<svg width="763" height="184" viewBox="0 0 763 184" fill="none" xmlns="http://www.w3.org/2000/svg">
<g filter="url(#filter0_d)">
<mask id="path-1-inside-1" fill="white">
<path fill-rule="evenodd" clip-rule="evenodd" d="M736 20.366C739.866 20.366 743 23.5 743 27.366V100.033C743 103.899 739.866 107.033 736 107.033H703.314L703.314 160.728C703.314 162.97 700.943 164.42 698.947 163.399L588.821 107.033H27C23.134 107.033 20 103.899 20 100.033V27.366C20 23.5 23.134 20.366 27 20.366H736Z"/>
</mask>
<path fill-rule="evenodd" clip-rule="evenodd" d="M736 20.366C739.866 20.366 743 23.5 743 27.366V100.033C743 103.899 739.866 107.033 736 107.033H703.314L703.314 160.728C703.314 162.97 700.943 164.42 698.947 163.399L588.821 107.033H27C23.134 107.033 20 103.899 20 100.033V27.366C20 23.5 23.134 20.366 27 20.366H736Z" fill="white"/>
<path d="M703.314 107.033H700.314V104.033H703.314V107.033ZM703.314 160.728H700.314H703.314ZM698.947 163.399L697.58 166.069H697.58L698.947 163.399ZM588.821 107.033V104.033H589.544L590.188 104.363L588.821 107.033ZM740 27.366C740 25.1568 738.209 23.366 736 23.366V17.366C741.523 17.366 746 21.8431 746 27.366H740ZM740 100.033V27.366H746V100.033H740ZM736 104.033C738.209 104.033 740 102.242 740 100.033H746C746 105.556 741.523 110.033 736 110.033V104.033ZM703.314 104.033H736V110.033H703.314V104.033ZM706.314 107.033L706.314 160.728H700.314L700.314 107.033H706.314ZM706.314 160.728C706.314 165.213 701.572 168.112 697.58 166.069L700.314 160.728H700.314H706.314ZM697.58 166.069L587.454 109.704L590.188 104.363L700.314 160.728L697.58 166.069ZM27 104.033H588.821V110.033H27V104.033ZM23 100.033C23 102.242 24.7909 104.033 27 104.033V110.033C21.4772 110.033 17 105.556 17 100.033H23ZM23 27.366V100.033H17V27.366H23ZM27 23.366C24.7909 23.366 23 25.1568 23 27.366H17C17 21.8431 21.4772 17.366 27 17.366V23.366ZM736 23.366H27V17.366H736V23.366Z" fill="#ED1C24" mask="url(#path-1-inside-1)"/>
<path d="M74.096 70.8878V73.5518H63.932V56.1998H67.16V70.8878H74.096ZM83.2319 65.9798C83.2319 65.5958 83.1759 65.2358 83.0639 64.8998C82.9599 64.5558 82.7999 64.2558 82.5839 63.9998C82.3679 63.7438 82.0919 63.5438 81.7559 63.3998C81.4279 63.2478 81.0439 63.1718 80.6039 63.1718C79.7479 63.1718 79.0719 63.4158 78.5759 63.9038C78.0879 64.3918 77.7759 65.0838 77.6399 65.9798H83.2319ZM77.5799 67.7678C77.6279 68.3998 77.7399 68.9478 77.9159 69.4118C78.0919 69.8678 78.3239 70.2478 78.6119 70.5518C78.8999 70.8478 79.2399 71.0718 79.6319 71.2238C80.0319 71.3678 80.4719 71.4398 80.9519 71.4398C81.4319 71.4398 81.8439 71.3838 82.1879 71.2718C82.5399 71.1598 82.8439 71.0358 83.0999 70.8998C83.3639 70.7638 83.5919 70.6398 83.7839 70.5278C83.9839 70.4158 84.1759 70.3598 84.3599 70.3598C84.6079 70.3598 84.7919 70.4518 84.9119 70.6358L85.7639 71.7158C85.4359 72.0998 85.0679 72.4238 84.6599 72.6878C84.2519 72.9438 83.8239 73.1518 83.3759 73.3118C82.9359 73.4638 82.4839 73.5718 82.0199 73.6358C81.5639 73.6998 81.1199 73.7318 80.6879 73.7318C79.8319 73.7318 79.0359 73.5918 78.2999 73.3118C77.5639 73.0238 76.9239 72.6038 76.3799 72.0518C75.8359 71.4918 75.4079 70.8038 75.0959 69.9878C74.7839 69.1638 74.6279 68.2118 74.6279 67.1318C74.6279 66.2918 74.7639 65.5038 75.0359 64.7678C75.3079 64.0238 75.6959 63.3798 76.1999 62.8358C76.7119 62.2838 77.3319 61.8478 78.0599 61.5278C78.7959 61.2078 79.6239 61.0478 80.5439 61.0478C81.3199 61.0478 82.0359 61.1718 82.6919 61.4198C83.3479 61.6678 83.9119 62.0318 84.3839 62.5118C84.8559 62.9838 85.2239 63.5678 85.4879 64.2638C85.7599 64.9518 85.8959 65.7398 85.8959 66.6278C85.8959 67.0758 85.8479 67.3798 85.7519 67.5398C85.6559 67.6918 85.4719 67.7678 85.1999 67.7678H77.5799ZM94.6243 68.2958C93.7683 68.3358 93.0483 68.4118 92.4643 68.5238C91.8803 68.6278 91.4123 68.7638 91.0603 68.9318C90.7083 69.0998 90.4563 69.2958 90.3043 69.5198C90.1523 69.7438 90.0763 69.9878 90.0763 70.2518C90.0763 70.7718 90.2283 71.1438 90.5323 71.3678C90.8443 71.5918 91.2483 71.7038 91.7443 71.7038C92.3523 71.7038 92.8763 71.5958 93.3163 71.3798C93.7643 71.1558 94.2003 70.8198 94.6243 70.3718V68.2958ZM87.8323 62.9558C89.2483 61.6598 90.9523 61.0118 92.9443 61.0118C93.6643 61.0118 94.3083 61.1318 94.8763 61.3718C95.4443 61.6038 95.9243 61.9318 96.3163 62.3558C96.7083 62.7718 97.0043 63.2718 97.2043 63.8558C97.4123 64.4398 97.5163 65.0798 97.5163 65.7758V73.5518H96.1723C95.8923 73.5518 95.6763 73.5118 95.5243 73.4318C95.3723 73.3438 95.2523 73.1718 95.1643 72.9158L94.9003 72.0278C94.5883 72.3078 94.2843 72.5558 93.9883 72.7718C93.6923 72.9798 93.3843 73.1558 93.0643 73.2998C92.7443 73.4438 92.4003 73.5518 92.0323 73.6238C91.6723 73.7038 91.2723 73.7438 90.8323 73.7438C90.3123 73.7438 89.8323 73.6758 89.3923 73.5398C88.9523 73.3958 88.5723 73.1838 88.2523 72.9038C87.9323 72.6238 87.6843 72.2758 87.5083 71.8598C87.3323 71.4438 87.2443 70.9598 87.2443 70.4078C87.2443 70.0958 87.2963 69.7878 87.4003 69.4838C87.5043 69.1718 87.6723 68.8758 87.9043 68.5958C88.1443 68.3158 88.4523 68.0518 88.8283 67.8038C89.2043 67.5558 89.6643 67.3398 90.2083 67.1558C90.7603 66.9718 91.4003 66.8238 92.1283 66.7118C92.8563 66.5918 93.6883 66.5198 94.6243 66.4958V65.7758C94.6243 64.9518 94.4483 64.3438 94.0963 63.9518C93.7443 63.5518 93.2363 63.3518 92.5723 63.3518C92.0923 63.3518 91.6923 63.4078 91.3723 63.5198C91.0603 63.6318 90.7843 63.7598 90.5443 63.9038C90.3043 64.0398 90.0843 64.1638 89.8843 64.2758C89.6923 64.3878 89.4763 64.4438 89.2363 64.4438C89.0283 64.4438 88.8523 64.3918 88.7083 64.2878C88.5643 64.1758 88.4483 64.0478 88.3603 63.9038L87.8323 62.9558ZM103.104 63.3758C103.488 62.6398 103.944 62.0638 104.472 61.6478C105 61.2238 105.624 61.0118 106.344 61.0118C106.912 61.0118 107.368 61.1358 107.712 61.3838L107.52 63.6038C107.48 63.7478 107.42 63.8518 107.34 63.9158C107.268 63.9718 107.168 63.9998 107.04 63.9998C106.92 63.9998 106.74 63.9798 106.5 63.9398C106.268 63.8998 106.04 63.8798 105.816 63.8798C105.488 63.8798 105.196 63.9278 104.94 64.0238C104.684 64.1198 104.452 64.2598 104.244 64.4438C104.044 64.6198 103.864 64.8358 103.704 65.0918C103.552 65.3478 103.408 65.6398 103.272 65.9678V73.5518H100.308V61.2398H102.048C102.352 61.2398 102.564 61.2958 102.684 61.4078C102.804 61.5118 102.884 61.7038 102.924 61.9838L103.104 63.3758ZM112.033 62.7518C112.281 62.5038 112.541 62.2758 112.813 62.0678C113.093 61.8518 113.385 61.6718 113.689 61.5278C114.001 61.3758 114.333 61.2598 114.685 61.1798C115.037 61.0918 115.421 61.0478 115.837 61.0478C116.509 61.0478 117.105 61.1638 117.625 61.3958C118.145 61.6198 118.577 61.9398 118.921 62.3558C119.273 62.7638 119.537 63.2558 119.713 63.8318C119.897 64.3998 119.989 65.0278 119.989 65.7158V73.5518H117.025V65.7158C117.025 64.9638 116.853 64.3838 116.509 63.9758C116.165 63.5598 115.641 63.3518 114.937 63.3518C114.425 63.3518 113.945 63.4678 113.497 63.6998C113.049 63.9318 112.625 64.2478 112.225 64.6478V73.5518H109.261V61.2398H111.073C111.457 61.2398 111.709 61.4198 111.829 61.7798L112.033 62.7518ZM125.88 61.2398V73.5518H122.904V61.2398H125.88ZM126.288 57.6518C126.288 57.9078 126.236 58.1478 126.132 58.3718C126.028 58.5958 125.888 58.7918 125.712 58.9598C125.544 59.1278 125.344 59.2638 125.112 59.3678C124.88 59.4638 124.632 59.5118 124.368 59.5118C124.112 59.5118 123.868 59.4638 123.636 59.3678C123.412 59.2638 123.216 59.1278 123.048 58.9598C122.88 58.7918 122.744 58.5958 122.64 58.3718C122.544 58.1478 122.496 57.9078 122.496 57.6518C122.496 57.3878 122.544 57.1398 122.64 56.9078C122.744 56.6758 122.88 56.4758 123.048 56.3078C123.216 56.1398 123.412 56.0078 123.636 55.9118C123.868 55.8078 124.112 55.7558 124.368 55.7558C124.632 55.7558 124.88 55.8078 125.112 55.9118C125.344 56.0078 125.544 56.1398 125.712 56.3078C125.888 56.4758 126.028 56.6758 126.132 56.9078C126.236 57.1398 126.288 57.3878 126.288 57.6518ZM131.674 62.7518C131.922 62.5038 132.182 62.2758 132.454 62.0678C132.734 61.8518 133.026 61.6718 133.33 61.5278C133.642 61.3758 133.974 61.2598 134.326 61.1798C134.678 61.0918 135.062 61.0478 135.478 61.0478C136.15 61.0478 136.746 61.1638 137.266 61.3958C137.786 61.6198 138.218 61.9398 138.562 62.3558C138.914 62.7638 139.178 63.2558 139.354 63.8318C139.538 64.3998 139.63 65.0278 139.63 65.7158V73.5518H136.666V65.7158C136.666 64.9638 136.494 64.3838 136.15 63.9758C135.806 63.5598 135.282 63.3518 134.578 63.3518C134.066 63.3518 133.586 63.4678 133.138 63.6998C132.69 63.9318 132.266 64.2478 131.866 64.6478V73.5518H128.902V61.2398H130.714C131.098 61.2398 131.35 61.4198 131.47 61.7798L131.674 62.7518ZM146.948 67.0958C147.316 67.0958 147.636 67.0478 147.908 66.9518C148.18 66.8478 148.404 66.7078 148.58 66.5318C148.764 66.3558 148.9 66.1438 148.988 65.8958C149.084 65.6478 149.132 65.3758 149.132 65.0798C149.132 64.4718 148.948 63.9918 148.58 63.6398C148.22 63.2798 147.676 63.0998 146.948 63.0998C146.22 63.0998 145.672 63.2798 145.304 63.6398C144.944 63.9918 144.764 64.4718 144.764 65.0798C144.764 65.3678 144.808 65.6358 144.896 65.8838C144.992 66.1318 145.128 66.3478 145.304 66.5318C145.488 66.7078 145.716 66.8478 145.988 66.9518C146.268 67.0478 146.588 67.0958 146.948 67.0958ZM150.296 74.1038C150.296 73.8638 150.224 73.6678 150.08 73.5158C149.936 73.3638 149.74 73.2478 149.492 73.1678C149.244 73.0798 148.952 73.0158 148.616 72.9758C148.288 72.9358 147.936 72.9078 147.56 72.8918C147.192 72.8678 146.808 72.8478 146.408 72.8318C146.016 72.8158 145.632 72.7838 145.256 72.7358C144.928 72.9198 144.66 73.1358 144.452 73.3838C144.252 73.6318 144.152 73.9198 144.152 74.2478C144.152 74.4638 144.204 74.6638 144.308 74.8478C144.42 75.0398 144.592 75.2038 144.824 75.3398C145.064 75.4758 145.372 75.5798 145.748 75.6518C146.124 75.7318 146.584 75.7718 147.128 75.7718C147.68 75.7718 148.156 75.7278 148.556 75.6398C148.956 75.5598 149.284 75.4438 149.54 75.2918C149.804 75.1478 149.996 74.9718 150.116 74.7638C150.236 74.5638 150.296 74.3438 150.296 74.1038ZM153.248 61.6598V62.7638C153.248 63.1158 153.036 63.3318 152.612 63.4118L151.508 63.6158C151.676 64.0398 151.76 64.5038 151.76 65.0078C151.76 65.6158 151.636 66.1678 151.388 66.6638C151.148 67.1518 150.812 67.5678 150.38 67.9118C149.948 68.2558 149.436 68.5238 148.844 68.7158C148.26 68.8998 147.628 68.9918 146.948 68.9918C146.708 68.9918 146.476 68.9798 146.252 68.9558C146.028 68.9318 145.808 68.8998 145.592 68.8598C145.208 69.0918 145.016 69.3518 145.016 69.6398C145.016 69.8878 145.128 70.0718 145.352 70.1918C145.584 70.3038 145.888 70.3838 146.264 70.4318C146.64 70.4798 147.068 70.5118 147.548 70.5278C148.028 70.5358 148.52 70.5598 149.024 70.5998C149.528 70.6398 150.02 70.7118 150.5 70.8158C150.98 70.9118 151.408 71.0678 151.784 71.2838C152.16 71.4998 152.46 71.7958 152.684 72.1718C152.916 72.5398 153.032 73.0158 153.032 73.5998C153.032 74.1438 152.896 74.6718 152.624 75.1838C152.36 75.6958 151.972 76.1518 151.46 76.5518C150.956 76.9518 150.332 77.2718 149.588 77.5118C148.852 77.7598 148.012 77.8838 147.068 77.8838C146.14 77.8838 145.332 77.7918 144.644 77.6078C143.956 77.4318 143.384 77.1918 142.928 76.8878C142.472 76.5918 142.132 76.2478 141.908 75.8558C141.684 75.4638 141.572 75.0558 141.572 74.6318C141.572 74.0558 141.744 73.5758 142.088 73.1918C142.44 72.7998 142.92 72.4878 143.528 72.2558C143.2 72.0878 142.94 71.8638 142.748 71.5838C142.556 71.3038 142.46 70.9358 142.46 70.4798C142.46 70.2958 142.492 70.1078 142.556 69.9158C142.628 69.7158 142.728 69.5198 142.856 69.3278C142.992 69.1358 143.16 68.9558 143.36 68.7878C143.56 68.6118 143.796 68.4558 144.068 68.3198C143.444 67.9838 142.952 67.5358 142.592 66.9758C142.24 66.4158 142.064 65.7598 142.064 65.0078C142.064 64.3998 142.184 63.8518 142.424 63.3638C142.672 62.8678 143.012 62.4478 143.444 62.1038C143.884 61.7518 144.4 61.4838 144.992 61.2998C145.592 61.1158 146.244 61.0238 146.948 61.0238C147.476 61.0238 147.972 61.0798 148.436 61.1918C148.9 61.2958 149.324 61.4518 149.708 61.6598H153.248ZM168.476 63.6398C168.396 63.7678 168.312 63.8598 168.224 63.9158C168.136 63.9638 168.024 63.9878 167.888 63.9878C167.744 63.9878 167.588 63.9478 167.42 63.8678C167.26 63.7878 167.072 63.6998 166.856 63.6038C166.64 63.4998 166.392 63.4078 166.112 63.3278C165.84 63.2478 165.516 63.2078 165.14 63.2078C164.556 63.2078 164.096 63.3318 163.76 63.5798C163.432 63.8278 163.268 64.1518 163.268 64.5518C163.268 64.8158 163.352 65.0398 163.52 65.2238C163.696 65.3998 163.924 65.5558 164.204 65.6918C164.492 65.8278 164.816 65.9518 165.176 66.0638C165.536 66.1678 165.9 66.2838 166.268 66.4118C166.644 66.5398 167.012 66.6878 167.372 66.8558C167.732 67.0158 168.052 67.2238 168.332 67.4798C168.62 67.7278 168.848 68.0278 169.016 68.3798C169.192 68.7318 169.28 69.1558 169.28 69.6518C169.28 70.2438 169.172 70.7918 168.956 71.2958C168.748 71.7918 168.436 72.2238 168.02 72.5918C167.604 72.9518 167.088 73.2358 166.472 73.4438C165.864 73.6438 165.16 73.7438 164.36 73.7438C163.936 73.7438 163.52 73.7038 163.112 73.6238C162.712 73.5518 162.324 73.4478 161.948 73.3118C161.58 73.1758 161.236 73.0158 160.916 72.8318C160.604 72.6478 160.328 72.4478 160.088 72.2318L160.772 71.1038C160.86 70.9678 160.964 70.8638 161.084 70.7918C161.204 70.7198 161.356 70.6838 161.54 70.6838C161.724 70.6838 161.896 70.7358 162.056 70.8398C162.224 70.9438 162.416 71.0558 162.632 71.1758C162.848 71.2958 163.1 71.4078 163.388 71.5118C163.684 71.6158 164.056 71.6678 164.504 71.6678C164.856 71.6678 165.156 71.6278 165.404 71.5478C165.66 71.4598 165.868 71.3478 166.028 71.2118C166.196 71.0758 166.316 70.9198 166.388 70.7438C166.468 70.5598 166.508 70.3718 166.508 70.1798C166.508 69.8918 166.42 69.6558 166.244 69.4718C166.076 69.2878 165.848 69.1278 165.56 68.9918C165.28 68.8558 164.956 68.7358 164.588 68.6318C164.228 68.5198 163.856 68.3998 163.472 68.2718C163.096 68.1438 162.724 67.9958 162.356 67.8278C161.996 67.6518 161.672 67.4318 161.384 67.1678C161.104 66.9038 160.876 66.5798 160.7 66.1958C160.532 65.8118 160.448 65.3478 160.448 64.8038C160.448 64.2998 160.548 63.8198 160.748 63.3638C160.948 62.9078 161.24 62.5118 161.624 62.1758C162.016 61.8318 162.5 61.5598 163.076 61.3598C163.66 61.1518 164.332 61.0478 165.092 61.0478C165.94 61.0478 166.712 61.1878 167.408 61.4678C168.104 61.7478 168.684 62.1158 169.148 62.5718L168.476 63.6398ZM175.615 73.7438C174.543 73.7438 173.719 73.4438 173.143 72.8438C172.575 72.2358 172.291 71.3998 172.291 70.3358V63.4598H171.031C170.871 63.4598 170.735 63.4078 170.623 63.3038C170.511 63.1998 170.455 63.0438 170.455 62.8358V61.6598L172.435 61.3358L173.059 57.9758C173.099 57.8158 173.175 57.6918 173.287 57.6038C173.399 57.5158 173.543 57.4718 173.719 57.4718H175.255V61.3478H178.543V63.4598H175.255V70.1318C175.255 70.5158 175.347 70.8158 175.531 71.0318C175.723 71.2478 175.983 71.3558 176.311 71.3558C176.495 71.3558 176.647 71.3358 176.767 71.2958C176.895 71.2478 177.003 71.1998 177.091 71.1518C177.187 71.1038 177.271 71.0598 177.343 71.0198C177.415 70.9718 177.487 70.9478 177.559 70.9478C177.647 70.9478 177.719 70.9718 177.775 71.0198C177.831 71.0598 177.891 71.1238 177.955 71.2118L178.843 72.6518C178.411 73.0118 177.915 73.2838 177.355 73.4678C176.795 73.6518 176.215 73.7438 175.615 73.7438ZM191.625 61.2398L184.917 76.9358C184.829 77.1438 184.713 77.2998 184.569 77.4038C184.433 77.5158 184.221 77.5718 183.933 77.5718H181.725L184.029 72.6278L179.049 61.2398H181.653C181.885 61.2398 182.065 61.2958 182.193 61.4078C182.329 61.5198 182.429 61.6478 182.493 61.7918L185.109 68.1758C185.197 68.3918 185.269 68.6078 185.325 68.8238C185.389 69.0398 185.449 69.2598 185.505 69.4838C185.577 69.2598 185.649 69.0398 185.721 68.8238C185.793 68.5998 185.873 68.3798 185.961 68.1638L188.433 61.7918C188.497 61.6318 188.601 61.4998 188.745 61.3958C188.897 61.2918 189.065 61.2398 189.249 61.2398H191.625ZM196.097 55.7198V73.5518H193.133V55.7198H196.097ZM206.982 65.9798C206.982 65.5958 206.926 65.2358 206.814 64.8998C206.71 64.5558 206.55 64.2558 206.334 63.9998C206.118 63.7438 205.842 63.5438 205.506 63.3998C205.178 63.2478 204.794 63.1718 204.354 63.1718C203.498 63.1718 202.822 63.4158 202.326 63.9038C201.838 64.3918 201.526 65.0838 201.39 65.9798H206.982ZM201.33 67.7678C201.378 68.3998 201.49 68.9478 201.666 69.4118C201.842 69.8678 202.074 70.2478 202.362 70.5518C202.65 70.8478 202.99 71.0718 203.382 71.2238C203.782 71.3678 204.222 71.4398 204.702 71.4398C205.182 71.4398 205.594 71.3838 205.938 71.2718C206.29 71.1598 206.594 71.0358 206.85 70.8998C207.114 70.7638 207.342 70.6398 207.534 70.5278C207.734 70.4158 207.926 70.3598 208.11 70.3598C208.358 70.3598 208.542 70.4518 208.662 70.6358L209.514 71.7158C209.186 72.0998 208.818 72.4238 208.41 72.6878C208.002 72.9438 207.574 73.1518 207.126 73.3118C206.686 73.4638 206.234 73.5718 205.77 73.6358C205.314 73.6998 204.87 73.7318 204.438 73.7318C203.582 73.7318 202.786 73.5918 202.05 73.3118C201.314 73.0238 200.674 72.6038 200.13 72.0518C199.586 71.4918 199.158 70.8038 198.846 69.9878C198.534 69.1638 198.378 68.2118 198.378 67.1318C198.378 66.2918 198.514 65.5038 198.786 64.7678C199.058 64.0238 199.446 63.3798 199.95 62.8358C200.462 62.2838 201.082 61.8478 201.81 61.5278C202.546 61.2078 203.374 61.0478 204.294 61.0478C205.07 61.0478 205.786 61.1718 206.442 61.4198C207.098 61.6678 207.662 62.0318 208.134 62.5118C208.606 62.9838 208.974 63.5678 209.238 64.2638C209.51 64.9518 209.646 65.7398 209.646 66.6278C209.646 67.0758 209.598 67.3798 209.502 67.5398C209.406 67.6918 209.222 67.7678 208.95 67.7678H201.33ZM219.382 63.6398C219.302 63.7678 219.218 63.8598 219.13 63.9158C219.042 63.9638 218.93 63.9878 218.794 63.9878C218.65 63.9878 218.494 63.9478 218.326 63.8678C218.166 63.7878 217.978 63.6998 217.762 63.6038C217.546 63.4998 217.298 63.4078 217.018 63.3278C216.746 63.2478 216.422 63.2078 216.046 63.2078C215.462 63.2078 215.002 63.3318 214.666 63.5798C214.338 63.8278 214.174 64.1518 214.174 64.5518C214.174 64.8158 214.258 65.0398 214.426 65.2238C214.602 65.3998 214.83 65.5558 215.11 65.6918C215.398 65.8278 215.722 65.9518 216.082 66.0638C216.442 66.1678 216.806 66.2838 217.174 66.4118C217.55 66.5398 217.918 66.6878 218.278 66.8558C218.638 67.0158 218.958 67.2238 219.238 67.4798C219.526 67.7278 219.754 68.0278 219.922 68.3798C220.098 68.7318 220.186 69.1558 220.186 69.6518C220.186 70.2438 220.078 70.7918 219.862 71.2958C219.654 71.7918 219.342 72.2238 218.926 72.5918C218.51 72.9518 217.994 73.2358 217.378 73.4438C216.77 73.6438 216.066 73.7438 215.266 73.7438C214.842 73.7438 214.426 73.7038 214.018 73.6238C213.618 73.5518 213.23 73.4478 212.854 73.3118C212.486 73.1758 212.142 73.0158 211.822 72.8318C211.51 72.6478 211.234 72.4478 210.994 72.2318L211.678 71.1038C211.766 70.9678 211.87 70.8638 211.99 70.7918C212.11 70.7198 212.262 70.6838 212.446 70.6838C212.63 70.6838 212.802 70.7358 212.962 70.8398C213.13 70.9438 213.322 71.0558 213.538 71.1758C213.754 71.2958 214.006 71.4078 214.294 71.5118C214.59 71.6158 214.962 71.6678 215.41 71.6678C215.762 71.6678 216.062 71.6278 216.31 71.5478C216.566 71.4598 216.774 71.3478 216.934 71.2118C217.102 71.0758 217.222 70.9198 217.294 70.7438C217.374 70.5598 217.414 70.3718 217.414 70.1798C217.414 69.8918 217.326 69.6558 217.15 69.4718C216.982 69.2878 216.754 69.1278 216.466 68.9918C216.186 68.8558 215.862 68.7358 215.494 68.6318C215.134 68.5198 214.762 68.3998 214.378 68.2718C214.002 68.1438 213.63 67.9958 213.262 67.8278C212.902 67.6518 212.578 67.4318 212.29 67.1678C212.01 66.9038 211.782 66.5798 211.606 66.1958C211.438 65.8118 211.354 65.3478 211.354 64.8038C211.354 64.2998 211.454 63.8198 211.654 63.3638C211.854 62.9078 212.146 62.5118 212.53 62.1758C212.922 61.8318 213.406 61.5598 213.982 61.3598C214.566 61.1518 215.238 61.0478 215.998 61.0478C216.846 61.0478 217.618 61.1878 218.314 61.4678C219.01 61.7478 219.59 62.1158 220.054 62.5718L219.382 63.6398ZM234.757 68.2958C233.901 68.3358 233.181 68.4118 232.597 68.5238C232.013 68.6278 231.545 68.7638 231.193 68.9318C230.841 69.0998 230.589 69.2958 230.437 69.5198C230.285 69.7438 230.209 69.9878 230.209 70.2518C230.209 70.7718 230.361 71.1438 230.665 71.3678C230.977 71.5918 231.381 71.7038 231.877 71.7038C232.485 71.7038 233.009 71.5958 233.449 71.3798C233.897 71.1558 234.333 70.8198 234.757 70.3718V68.2958ZM227.965 62.9558C229.381 61.6598 231.085 61.0118 233.077 61.0118C233.797 61.0118 234.441 61.1318 235.009 61.3718C235.577 61.6038 236.057 61.9318 236.449 62.3558C236.841 62.7718 237.137 63.2718 237.337 63.8558C237.545 64.4398 237.649 65.0798 237.649 65.7758V73.5518H236.305C236.025 73.5518 235.809 73.5118 235.657 73.4318C235.505 73.3438 235.385 73.1718 235.297 72.9158L235.033 72.0278C234.721 72.3078 234.417 72.5558 234.121 72.7718C233.825 72.9798 233.517 73.1558 233.197 73.2998C232.877 73.4438 232.533 73.5518 232.165 73.6238C231.805 73.7038 231.405 73.7438 230.965 73.7438C230.445 73.7438 229.965 73.6758 229.525 73.5398C229.085 73.3958 228.705 73.1838 228.385 72.9038C228.065 72.6238 227.817 72.2758 227.641 71.8598C227.465 71.4438 227.377 70.9598 227.377 70.4078C227.377 70.0958 227.429 69.7878 227.533 69.4838C227.637 69.1718 227.805 68.8758 228.037 68.5958C228.277 68.3158 228.585 68.0518 228.961 67.8038C229.337 67.5558 229.797 67.3398 230.341 67.1558C230.893 66.9718 231.533 66.8238 232.261 66.7118C232.989 66.5918 233.821 66.5198 234.757 66.4958V65.7758C234.757 64.9518 234.581 64.3438 234.229 63.9518C233.877 63.5518 233.369 63.3518 232.705 63.3518C232.225 63.3518 231.825 63.4078 231.505 63.5198C231.193 63.6318 230.917 63.7598 230.677 63.9038C230.437 64.0398 230.217 64.1638 230.017 64.2758C229.825 64.3878 229.609 64.4438 229.369 64.4438C229.161 64.4438 228.985 64.3918 228.841 64.2878C228.697 64.1758 228.581 64.0478 228.493 63.9038L227.965 62.9558ZM243.213 62.7518C243.461 62.5038 243.721 62.2758 243.993 62.0678C244.273 61.8518 244.565 61.6718 244.869 61.5278C245.181 61.3758 245.513 61.2598 245.865 61.1798C246.217 61.0918 246.601 61.0478 247.017 61.0478C247.689 61.0478 248.285 61.1638 248.805 61.3958C249.325 61.6198 249.757 61.9398 250.101 62.3558C250.453 62.7638 250.717 63.2558 250.893 63.8318C251.077 64.3998 251.169 65.0278 251.169 65.7158V73.5518H248.205V65.7158C248.205 64.9638 248.033 64.3838 247.689 63.9758C247.345 63.5598 246.821 63.3518 246.117 63.3518C245.605 63.3518 245.125 63.4678 244.677 63.6998C244.229 63.9318 243.805 64.2478 243.405 64.6478V73.5518H240.441V61.2398H242.253C242.637 61.2398 242.889 61.4198 243.009 61.7798L243.213 62.7518ZM261.715 64.3838C261.379 63.9758 261.011 63.6878 260.611 63.5198C260.219 63.3518 259.795 63.2678 259.339 63.2678C258.891 63.2678 258.487 63.3518 258.127 63.5198C257.767 63.6878 257.459 63.9438 257.203 64.2878C256.947 64.6238 256.751 65.0558 256.615 65.5838C256.479 66.1038 256.411 66.7198 256.411 67.4318C256.411 68.1518 256.467 68.7638 256.579 69.2678C256.699 69.7638 256.867 70.1718 257.083 70.4918C257.299 70.8038 257.563 71.0318 257.875 71.1758C258.187 71.3118 258.535 71.3798 258.919 71.3798C259.535 71.3798 260.059 71.2518 260.491 70.9958C260.923 70.7398 261.331 70.3758 261.715 69.9038V64.3838ZM264.679 55.7198V73.5518H262.867C262.475 73.5518 262.227 73.3718 262.123 73.0118L261.871 71.8238C261.375 72.3918 260.803 72.8518 260.155 73.2038C259.515 73.5558 258.767 73.7318 257.911 73.7318C257.239 73.7318 256.623 73.5918 256.063 73.3118C255.503 73.0318 255.019 72.6278 254.611 72.0998C254.211 71.5638 253.899 70.9038 253.675 70.1198C253.459 69.3358 253.351 68.4398 253.351 67.4318C253.351 66.5198 253.475 65.6718 253.723 64.8878C253.971 64.1038 254.327 63.4238 254.791 62.8478C255.255 62.2718 255.811 61.8238 256.459 61.5038C257.107 61.1758 257.835 61.0118 258.643 61.0118C259.331 61.0118 259.919 61.1198 260.407 61.3358C260.895 61.5518 261.331 61.8438 261.715 62.2118V55.7198H264.679ZM279.945 68.2958C279.089 68.3358 278.369 68.4118 277.785 68.5238C277.201 68.6278 276.733 68.7638 276.381 68.9318C276.029 69.0998 275.777 69.2958 275.625 69.5198C275.473 69.7438 275.397 69.9878 275.397 70.2518C275.397 70.7718 275.549 71.1438 275.853 71.3678C276.165 71.5918 276.569 71.7038 277.065 71.7038C277.673 71.7038 278.197 71.5958 278.637 71.3798C279.085 71.1558 279.521 70.8198 279.945 70.3718V68.2958ZM273.153 62.9558C274.569 61.6598 276.273 61.0118 278.265 61.0118C278.985 61.0118 279.629 61.1318 280.197 61.3718C280.765 61.6038 281.245 61.9318 281.637 62.3558C282.029 62.7718 282.325 63.2718 282.525 63.8558C282.733 64.4398 282.837 65.0798 282.837 65.7758V73.5518H281.493C281.213 73.5518 280.997 73.5118 280.845 73.4318C280.693 73.3438 280.573 73.1718 280.485 72.9158L280.221 72.0278C279.909 72.3078 279.605 72.5558 279.309 72.7718C279.013 72.9798 278.705 73.1558 278.385 73.2998C278.065 73.4438 277.721 73.5518 277.353 73.6238C276.993 73.7038 276.593 73.7438 276.153 73.7438C275.633 73.7438 275.153 73.6758 274.713 73.5398C274.273 73.3958 273.893 73.1838 273.573 72.9038C273.253 72.6238 273.005 72.2758 272.829 71.8598C272.653 71.4438 272.565 70.9598 272.565 70.4078C272.565 70.0958 272.617 69.7878 272.721 69.4838C272.825 69.1718 272.993 68.8758 273.225 68.5958C273.465 68.3158 273.773 68.0518 274.149 67.8038C274.525 67.5558 274.985 67.3398 275.529 67.1558C276.081 66.9718 276.721 66.8238 277.449 66.7118C278.177 66.5918 279.009 66.5198 279.945 66.4958V65.7758C279.945 64.9518 279.769 64.3438 279.417 63.9518C279.065 63.5518 278.557 63.3518 277.893 63.3518C277.413 63.3518 277.013 63.4078 276.693 63.5198C276.381 63.6318 276.105 63.7598 275.865 63.9038C275.625 64.0398 275.405 64.1638 275.205 64.2758C275.013 64.3878 274.797 64.4438 274.557 64.4438C274.349 64.4438 274.173 64.3918 274.029 64.2878C273.885 64.1758 273.769 64.0478 273.681 63.9038L273.153 62.9558ZM293.356 64.3838C293.02 63.9758 292.652 63.6878 292.252 63.5198C291.86 63.3518 291.436 63.2678 290.98 63.2678C290.532 63.2678 290.128 63.3518 289.768 63.5198C289.408 63.6878 289.1 63.9438 288.844 64.2878C288.588 64.6238 288.392 65.0558 288.256 65.5838C288.12 66.1038 288.052 66.7198 288.052 67.4318C288.052 68.1518 288.108 68.7638 288.22 69.2678C288.34 69.7638 288.508 70.1718 288.724 70.4918C288.94 70.8038 289.204 71.0318 289.516 71.1758C289.828 71.3118 290.176 71.3798 290.56 71.3798C291.176 71.3798 291.7 71.2518 292.132 70.9958C292.564 70.7398 292.972 70.3758 293.356 69.9038V64.3838ZM296.32 55.7198V73.5518H294.508C294.116 73.5518 293.868 73.3718 293.764 73.0118L293.512 71.8238C293.016 72.3918 292.444 72.8518 291.796 73.2038C291.156 73.5558 290.408 73.7318 289.552 73.7318C288.88 73.7318 288.264 73.5918 287.704 73.3118C287.144 73.0318 286.66 72.6278 286.252 72.0998C285.852 71.5638 285.54 70.9038 285.316 70.1198C285.1 69.3358 284.992 68.4398 284.992 67.4318C284.992 66.5198 285.116 65.6718 285.364 64.8878C285.612 64.1038 285.968 63.4238 286.432 62.8478C286.896 62.2718 287.452 61.8238 288.1 61.5038C288.748 61.1758 289.476 61.0118 290.284 61.0118C290.972 61.0118 291.56 61.1198 292.048 61.3358C292.536 61.5518 292.972 61.8438 293.356 62.2118V55.7198H296.32ZM309.853 61.2398V73.5518H308.041C307.649 73.5518 307.401 73.3718 307.297 73.0118L307.093 72.0278C306.589 72.5398 306.033 72.9558 305.425 73.2758C304.817 73.5878 304.101 73.7438 303.277 73.7438C302.605 73.7438 302.009 73.6318 301.489 73.4078C300.977 73.1758 300.545 72.8518 300.193 72.4358C299.841 72.0198 299.573 71.5278 299.389 70.9598C299.213 70.3838 299.125 69.7518 299.125 69.0638V61.2398H302.089V69.0638C302.089 69.8158 302.261 70.3998 302.605 70.8158C302.957 71.2238 303.481 71.4278 304.177 71.4278C304.689 71.4278 305.169 71.3158 305.617 71.0918C306.065 70.8598 306.489 70.5438 306.889 70.1438V61.2398H309.853ZM315.792 55.7198V73.5518H312.828V55.7198H315.792ZM322.849 73.7438C321.777 73.7438 320.953 73.4438 320.377 72.8438C319.809 72.2358 319.525 71.3998 319.525 70.3358V63.4598H318.265C318.105 63.4598 317.969 63.4078 317.857 63.3038C317.745 63.1998 317.689 63.0438 317.689 62.8358V61.6598L319.669 61.3358L320.293 57.9758C320.333 57.8158 320.409 57.6918 320.521 57.6038C320.633 57.5158 320.777 57.4718 320.953 57.4718H322.489V61.3478H325.777V63.4598H322.489V70.1318C322.489 70.5158 322.581 70.8158 322.765 71.0318C322.957 71.2478 323.217 71.3558 323.545 71.3558C323.729 71.3558 323.881 71.3358 324.001 71.2958C324.129 71.2478 324.237 71.1998 324.325 71.1518C324.421 71.1038 324.505 71.0598 324.577 71.0198C324.649 70.9718 324.721 70.9478 324.793 70.9478C324.881 70.9478 324.953 70.9718 325.009 71.0198C325.065 71.0598 325.125 71.1238 325.189 71.2118L326.077 72.6518C325.645 73.0118 325.149 73.2838 324.589 73.4678C324.029 73.6518 323.449 73.7438 322.849 73.7438ZM336.511 55.7198V73.5518H333.547V55.7198H336.511ZM347.396 65.9798C347.396 65.5958 347.34 65.2358 347.228 64.8998C347.124 64.5558 346.964 64.2558 346.748 63.9998C346.532 63.7438 346.256 63.5438 345.92 63.3998C345.592 63.2478 345.208 63.1718 344.768 63.1718C343.912 63.1718 343.236 63.4158 342.74 63.9038C342.252 64.3918 341.94 65.0838 341.804 65.9798H347.396ZM341.744 67.7678C341.792 68.3998 341.904 68.9478 342.08 69.4118C342.256 69.8678 342.488 70.2478 342.776 70.5518C343.064 70.8478 343.404 71.0718 343.796 71.2238C344.196 71.3678 344.636 71.4398 345.116 71.4398C345.596 71.4398 346.008 71.3838 346.352 71.2718C346.704 71.1598 347.008 71.0358 347.264 70.8998C347.528 70.7638 347.756 70.6398 347.948 70.5278C348.148 70.4158 348.34 70.3598 348.524 70.3598C348.772 70.3598 348.956 70.4518 349.076 70.6358L349.928 71.7158C349.6 72.0998 349.232 72.4238 348.824 72.6878C348.416 72.9438 347.988 73.1518 347.54 73.3118C347.1 73.4638 346.648 73.5718 346.184 73.6358C345.728 73.6998 345.284 73.7318 344.852 73.7318C343.996 73.7318 343.2 73.5918 342.464 73.3118C341.728 73.0238 341.088 72.6038 340.544 72.0518C340 71.4918 339.572 70.8038 339.26 69.9878C338.948 69.1638 338.792 68.2118 338.792 67.1318C338.792 66.2918 338.928 65.5038 339.2 64.7678C339.472 64.0238 339.86 63.3798 340.364 62.8358C340.876 62.2838 341.496 61.8478 342.224 61.5278C342.96 61.2078 343.788 61.0478 344.708 61.0478C345.484 61.0478 346.2 61.1718 346.856 61.4198C347.512 61.6678 348.076 62.0318 348.548 62.5118C349.02 62.9838 349.388 63.5678 349.652 64.2638C349.924 64.9518 350.06 65.7398 350.06 66.6278C350.06 67.0758 350.012 67.3798 349.916 67.5398C349.82 67.6918 349.636 67.7678 349.364 67.7678H341.744ZM358.788 68.2958C357.932 68.3358 357.212 68.4118 356.628 68.5238C356.044 68.6278 355.576 68.7638 355.224 68.9318C354.872 69.0998 354.62 69.2958 354.468 69.5198C354.316 69.7438 354.24 69.9878 354.24 70.2518C354.24 70.7718 354.392 71.1438 354.696 71.3678C355.008 71.5918 355.412 71.7038 355.908 71.7038C356.516 71.7038 357.04 71.5958 357.48 71.3798C357.928 71.1558 358.364 70.8198 358.788 70.3718V68.2958ZM351.996 62.9558C353.412 61.6598 355.116 61.0118 357.108 61.0118C357.828 61.0118 358.472 61.1318 359.04 61.3718C359.608 61.6038 360.088 61.9318 360.48 62.3558C360.872 62.7718 361.168 63.2718 361.368 63.8558C361.576 64.4398 361.68 65.0798 361.68 65.7758V73.5518H360.336C360.056 73.5518 359.84 73.5118 359.688 73.4318C359.536 73.3438 359.416 73.1718 359.328 72.9158L359.064 72.0278C358.752 72.3078 358.448 72.5558 358.152 72.7718C357.856 72.9798 357.548 73.1558 357.228 73.2998C356.908 73.4438 356.564 73.5518 356.196 73.6238C355.836 73.7038 355.436 73.7438 354.996 73.7438C354.476 73.7438 353.996 73.6758 353.556 73.5398C353.116 73.3958 352.736 73.1838 352.416 72.9038C352.096 72.6238 351.848 72.2758 351.672 71.8598C351.496 71.4438 351.408 70.9598 351.408 70.4078C351.408 70.0958 351.46 69.7878 351.564 69.4838C351.668 69.1718 351.836 68.8758 352.068 68.5958C352.308 68.3158 352.616 68.0518 352.992 67.8038C353.368 67.5558 353.828 67.3398 354.372 67.1558C354.924 66.9718 355.564 66.8238 356.292 66.7118C357.02 66.5918 357.852 66.5198 358.788 66.4958V65.7758C358.788 64.9518 358.612 64.3438 358.26 63.9518C357.908 63.5518 357.4 63.3518 356.736 63.3518C356.256 63.3518 355.856 63.4078 355.536 63.5198C355.224 63.6318 354.948 63.7598 354.708 63.9038C354.468 64.0398 354.248 64.1638 354.048 64.2758C353.856 64.3878 353.64 64.4438 353.4 64.4438C353.192 64.4438 353.016 64.3918 352.872 64.2878C352.728 64.1758 352.612 64.0478 352.524 63.9038L351.996 62.9558ZM367.268 63.3758C367.652 62.6398 368.108 62.0638 368.636 61.6478C369.164 61.2238 369.788 61.0118 370.508 61.0118C371.076 61.0118 371.532 61.1358 371.876 61.3838L371.684 63.6038C371.644 63.7478 371.584 63.8518 371.504 63.9158C371.432 63.9718 371.332 63.9998 371.204 63.9998C371.084 63.9998 370.904 63.9798 370.664 63.9398C370.432 63.8998 370.204 63.8798 369.98 63.8798C369.652 63.8798 369.36 63.9278 369.104 64.0238C368.848 64.1198 368.616 64.2598 368.408 64.4438C368.208 64.6198 368.028 64.8358 367.868 65.0918C367.716 65.3478 367.572 65.6398 367.436 65.9678V73.5518H364.472V61.2398H366.212C366.516 61.2398 366.728 61.2958 366.848 61.4078C366.968 61.5118 367.048 61.7038 367.088 61.9838L367.268 63.3758ZM376.197 62.7518C376.445 62.5038 376.705 62.2758 376.977 62.0678C377.257 61.8518 377.549 61.6718 377.853 61.5278C378.165 61.3758 378.497 61.2598 378.849 61.1798C379.201 61.0918 379.585 61.0478 380.001 61.0478C380.673 61.0478 381.269 61.1638 381.789 61.3958C382.309 61.6198 382.741 61.9398 383.085 62.3558C383.437 62.7638 383.701 63.2558 383.877 63.8318C384.061 64.3998 384.153 65.0278 384.153 65.7158V73.5518H381.189V65.7158C381.189 64.9638 381.017 64.3838 380.673 63.9758C380.329 63.5598 379.805 63.3518 379.101 63.3518C378.589 63.3518 378.109 63.4678 377.661 63.6998C377.213 63.9318 376.789 64.2478 376.389 64.6478V73.5518H373.425V61.2398H375.237C375.621 61.2398 375.873 61.4198 375.993 61.7798L376.197 62.7518ZM394.904 65.9798C394.904 65.5958 394.848 65.2358 394.736 64.8998C394.632 64.5558 394.472 64.2558 394.256 63.9998C394.04 63.7438 393.764 63.5438 393.428 63.3998C393.1 63.2478 392.716 63.1718 392.276 63.1718C391.42 63.1718 390.744 63.4158 390.248 63.9038C389.76 64.3918 389.448 65.0838 389.312 65.9798H394.904ZM389.252 67.7678C389.3 68.3998 389.412 68.9478 389.588 69.4118C389.764 69.8678 389.996 70.2478 390.284 70.5518C390.572 70.8478 390.912 71.0718 391.304 71.2238C391.704 71.3678 392.144 71.4398 392.624 71.4398C393.104 71.4398 393.516 71.3838 393.86 71.2718C394.212 71.1598 394.516 71.0358 394.772 70.8998C395.036 70.7638 395.264 70.6398 395.456 70.5278C395.656 70.4158 395.848 70.3598 396.032 70.3598C396.28 70.3598 396.464 70.4518 396.584 70.6358L397.436 71.7158C397.108 72.0998 396.74 72.4238 396.332 72.6878C395.924 72.9438 395.496 73.1518 395.048 73.3118C394.608 73.4638 394.156 73.5718 393.692 73.6358C393.236 73.6998 392.792 73.7318 392.36 73.7318C391.504 73.7318 390.708 73.5918 389.972 73.3118C389.236 73.0238 388.596 72.6038 388.052 72.0518C387.508 71.4918 387.08 70.8038 386.768 69.9878C386.456 69.1638 386.3 68.2118 386.3 67.1318C386.3 66.2918 386.436 65.5038 386.708 64.7678C386.98 64.0238 387.368 63.3798 387.872 62.8358C388.384 62.2838 389.004 61.8478 389.732 61.5278C390.468 61.2078 391.296 61.0478 392.216 61.0478C392.992 61.0478 393.708 61.1718 394.364 61.4198C395.02 61.6678 395.584 62.0318 396.056 62.5118C396.528 62.9838 396.896 63.5678 397.16 64.2638C397.432 64.9518 397.568 65.7398 397.568 66.6278C397.568 67.0758 397.52 67.3798 397.424 67.5398C397.328 67.6918 397.144 67.7678 396.872 67.7678H389.252ZM402.588 63.3758C402.972 62.6398 403.428 62.0638 403.956 61.6478C404.484 61.2238 405.108 61.0118 405.828 61.0118C406.396 61.0118 406.852 61.1358 407.196 61.3838L407.004 63.6038C406.964 63.7478 406.904 63.8518 406.824 63.9158C406.752 63.9718 406.652 63.9998 406.524 63.9998C406.404 63.9998 406.224 63.9798 405.984 63.9398C405.752 63.8998 405.524 63.8798 405.3 63.8798C404.972 63.8798 404.68 63.9278 404.424 64.0238C404.168 64.1198 403.936 64.2598 403.728 64.4438C403.528 64.6198 403.348 64.8358 403.188 65.0918C403.036 65.3478 402.892 65.6398 402.756 65.9678V73.5518H399.792V61.2398H401.532C401.836 61.2398 402.048 61.2958 402.168 61.4078C402.288 61.5118 402.368 61.7038 402.408 61.9838L402.588 63.3758ZM416.21 63.6398C416.13 63.7678 416.046 63.8598 415.958 63.9158C415.87 63.9638 415.758 63.9878 415.622 63.9878C415.478 63.9878 415.322 63.9478 415.154 63.8678C414.994 63.7878 414.806 63.6998 414.59 63.6038C414.374 63.4998 414.126 63.4078 413.846 63.3278C413.574 63.2478 413.25 63.2078 412.874 63.2078C412.29 63.2078 411.83 63.3318 411.494 63.5798C411.166 63.8278 411.002 64.1518 411.002 64.5518C411.002 64.8158 411.086 65.0398 411.254 65.2238C411.43 65.3998 411.658 65.5558 411.938 65.6918C412.226 65.8278 412.55 65.9518 412.91 66.0638C413.27 66.1678 413.634 66.2838 414.002 66.4118C414.378 66.5398 414.746 66.6878 415.106 66.8558C415.466 67.0158 415.786 67.2238 416.066 67.4798C416.354 67.7278 416.582 68.0278 416.75 68.3798C416.926 68.7318 417.014 69.1558 417.014 69.6518C417.014 70.2438 416.906 70.7918 416.69 71.2958C416.482 71.7918 416.17 72.2238 415.754 72.5918C415.338 72.9518 414.822 73.2358 414.206 73.4438C413.598 73.6438 412.894 73.7438 412.094 73.7438C411.67 73.7438 411.254 73.7038 410.846 73.6238C410.446 73.5518 410.058 73.4478 409.682 73.3118C409.314 73.1758 408.97 73.0158 408.65 72.8318C408.338 72.6478 408.062 72.4478 407.822 72.2318L408.506 71.1038C408.594 70.9678 408.698 70.8638 408.818 70.7918C408.938 70.7198 409.09 70.6838 409.274 70.6838C409.458 70.6838 409.63 70.7358 409.79 70.8398C409.958 70.9438 410.15 71.0558 410.366 71.1758C410.582 71.2958 410.834 71.4078 411.122 71.5118C411.418 71.6158 411.79 71.6678 412.238 71.6678C412.59 71.6678 412.89 71.6278 413.138 71.5478C413.394 71.4598 413.602 71.3478 413.762 71.2118C413.93 71.0758 414.05 70.9198 414.122 70.7438C414.202 70.5598 414.242 70.3718 414.242 70.1798C414.242 69.8918 414.154 69.6558 413.978 69.4718C413.81 69.2878 413.582 69.1278 413.294 68.9918C413.014 68.8558 412.69 68.7358 412.322 68.6318C411.962 68.5198 411.59 68.3998 411.206 68.2718C410.83 68.1438 410.458 67.9958 410.09 67.8278C409.73 67.6518 409.406 67.4318 409.118 67.1678C408.838 66.9038 408.61 66.5798 408.434 66.1958C408.266 65.8118 408.182 65.3478 408.182 64.8038C408.182 64.2998 408.282 63.8198 408.482 63.3638C408.682 62.9078 408.974 62.5118 409.358 62.1758C409.75 61.8318 410.234 61.5598 410.81 61.3598C411.394 61.1518 412.066 61.0478 412.826 61.0478C413.674 61.0478 414.446 61.1878 415.142 61.4678C415.838 61.7478 416.418 62.1158 416.882 62.5718L416.21 63.6398ZM419.053 71.9198C419.053 71.6718 419.097 71.4358 419.185 71.2118C419.281 70.9878 419.409 70.7958 419.569 70.6358C419.729 70.4758 419.921 70.3478 420.145 70.2518C420.369 70.1558 420.609 70.1078 420.865 70.1078C421.121 70.1078 421.357 70.1558 421.573 70.2518C421.797 70.3478 421.989 70.4758 422.149 70.6358C422.317 70.7958 422.449 70.9878 422.545 71.2118C422.641 71.4358 422.689 71.6718 422.689 71.9198C422.689 72.1758 422.641 72.4158 422.545 72.6398C422.449 72.8558 422.317 73.0438 422.149 73.2038C421.989 73.3638 421.797 73.4878 421.573 73.5758C421.357 73.6718 421.121 73.7198 420.865 73.7198C420.609 73.7198 420.369 73.6718 420.145 73.5758C419.921 73.4878 419.729 73.3638 419.569 73.2038C419.409 73.0438 419.281 72.8558 419.185 72.6398C419.097 72.4158 419.053 72.1758 419.053 71.9198ZM419.053 63.3638C419.053 63.1158 419.097 62.8798 419.185 62.6558C419.281 62.4318 419.409 62.2398 419.569 62.0798C419.729 61.9198 419.921 61.7918 420.145 61.6958C420.369 61.5998 420.609 61.5518 420.865 61.5518C421.121 61.5518 421.357 61.5998 421.573 61.6958C421.797 61.7918 421.989 61.9198 422.149 62.0798C422.317 62.2398 422.449 62.4318 422.545 62.6558C422.641 62.8798 422.689 63.1158 422.689 63.3638C422.689 63.6198 422.641 63.8598 422.545 64.0838C422.449 64.2998 422.317 64.4878 422.149 64.6478C421.989 64.8078 421.797 64.9358 421.573 65.0318C421.357 65.1198 421.121 65.1638 420.865 65.1638C420.609 65.1638 420.369 65.1198 420.145 65.0318C419.921 64.9358 419.729 64.8078 419.569 64.6478C419.409 64.4878 419.281 64.2998 419.185 64.0838C419.097 63.8598 419.053 63.6198 419.053 63.3638ZM440.089 63.8438C440.001 63.9558 439.913 64.0438 439.825 64.1078C439.745 64.1718 439.625 64.2038 439.465 64.2038C439.313 64.2038 439.165 64.1598 439.021 64.0718C438.877 63.9758 438.705 63.8718 438.505 63.7598C438.305 63.6398 438.065 63.5358 437.785 63.4478C437.513 63.3518 437.173 63.3038 436.765 63.3038C436.245 63.3038 435.789 63.3998 435.397 63.5918C435.005 63.7758 434.677 64.0438 434.413 64.3958C434.157 64.7478 433.965 65.1758 433.837 65.6798C433.709 66.1758 433.645 66.7398 433.645 67.3718C433.645 68.0278 433.713 68.6118 433.849 69.1238C433.993 69.6358 434.197 70.0678 434.461 70.4198C434.725 70.7638 435.045 71.0278 435.421 71.2118C435.797 71.3878 436.221 71.4758 436.693 71.4758C437.165 71.4758 437.545 71.4198 437.833 71.3078C438.129 71.1878 438.377 71.0598 438.577 70.9238C438.777 70.7798 438.949 70.6518 439.093 70.5398C439.245 70.4198 439.413 70.3598 439.597 70.3598C439.837 70.3598 440.017 70.4518 440.137 70.6358L440.989 71.7158C440.661 72.0998 440.305 72.4238 439.921 72.6878C439.537 72.9438 439.137 73.1518 438.721 73.3118C438.313 73.4638 437.889 73.5718 437.449 73.6358C437.017 73.6998 436.585 73.7318 436.153 73.7318C435.393 73.7318 434.677 73.5918 434.005 73.3118C433.333 73.0238 432.745 72.6078 432.241 72.0638C431.737 71.5198 431.337 70.8558 431.041 70.0718C430.753 69.2798 430.609 68.3798 430.609 67.3718C430.609 66.4678 430.737 65.6318 430.993 64.8638C431.257 64.0878 431.641 63.4198 432.145 62.8598C432.649 62.2918 433.273 61.8478 434.017 61.5278C434.761 61.2078 435.617 61.0478 436.585 61.0478C437.505 61.0478 438.309 61.1958 438.997 61.4918C439.693 61.7878 440.317 62.2118 440.869 62.7638L440.089 63.8438ZM445.811 62.5598C446.291 62.1118 446.819 61.7478 447.395 61.4678C447.971 61.1878 448.647 61.0478 449.423 61.0478C450.095 61.0478 450.691 61.1638 451.211 61.3958C451.731 61.6198 452.163 61.9398 452.507 62.3558C452.859 62.7638 453.123 63.2558 453.299 63.8318C453.483 64.3998 453.575 65.0278 453.575 65.7158V73.5518H450.611V65.7158C450.611 64.9638 450.439 64.3838 450.095 63.9758C449.751 63.5598 449.227 63.3518 448.523 63.3518C448.011 63.3518 447.531 63.4678 447.083 63.6998C446.635 63.9318 446.211 64.2478 445.811 64.6478V73.5518H442.847V55.7198H445.811V62.5598ZM462.898 68.2958C462.042 68.3358 461.322 68.4118 460.738 68.5238C460.154 68.6278 459.686 68.7638 459.334 68.9318C458.982 69.0998 458.73 69.2958 458.578 69.5198C458.426 69.7438 458.35 69.9878 458.35 70.2518C458.35 70.7718 458.502 71.1438 458.806 71.3678C459.118 71.5918 459.522 71.7038 460.018 71.7038C460.626 71.7038 461.15 71.5958 461.59 71.3798C462.038 71.1558 462.474 70.8198 462.898 70.3718V68.2958ZM456.106 62.9558C457.522 61.6598 459.226 61.0118 461.218 61.0118C461.938 61.0118 462.582 61.1318 463.15 61.3718C463.718 61.6038 464.198 61.9318 464.59 62.3558C464.982 62.7718 465.278 63.2718 465.478 63.8558C465.686 64.4398 465.79 65.0798 465.79 65.7758V73.5518H464.446C464.166 73.5518 463.95 73.5118 463.798 73.4318C463.646 73.3438 463.526 73.1718 463.438 72.9158L463.174 72.0278C462.862 72.3078 462.558 72.5558 462.262 72.7718C461.966 72.9798 461.658 73.1558 461.338 73.2998C461.018 73.4438 460.674 73.5518 460.306 73.6238C459.946 73.7038 459.546 73.7438 459.106 73.7438C458.586 73.7438 458.106 73.6758 457.666 73.5398C457.226 73.3958 456.846 73.1838 456.526 72.9038C456.206 72.6238 455.958 72.2758 455.782 71.8598C455.606 71.4438 455.518 70.9598 455.518 70.4078C455.518 70.0958 455.57 69.7878 455.674 69.4838C455.778 69.1718 455.946 68.8758 456.178 68.5958C456.418 68.3158 456.726 68.0518 457.102 67.8038C457.478 67.5558 457.938 67.3398 458.482 67.1558C459.034 66.9718 459.674 66.8238 460.402 66.7118C461.13 66.5918 461.962 66.5198 462.898 66.4958V65.7758C462.898 64.9518 462.722 64.3438 462.37 63.9518C462.018 63.5518 461.51 63.3518 460.846 63.3518C460.366 63.3518 459.966 63.4078 459.646 63.5198C459.334 63.6318 459.058 63.7598 458.818 63.9038C458.578 64.0398 458.358 64.1638 458.158 64.2758C457.966 64.3878 457.75 64.4438 457.51 64.4438C457.302 64.4438 457.126 64.3918 456.982 64.2878C456.838 64.1758 456.722 64.0478 456.634 63.9038L456.106 62.9558ZM471.581 55.7198V73.5518H468.617V55.7198H471.581ZM477.534 55.7198V73.5518H474.57V55.7198H477.534ZM488.419 65.9798C488.419 65.5958 488.363 65.2358 488.251 64.8998C488.147 64.5558 487.987 64.2558 487.771 63.9998C487.555 63.7438 487.279 63.5438 486.943 63.3998C486.615 63.2478 486.231 63.1718 485.791 63.1718C484.935 63.1718 484.259 63.4158 483.763 63.9038C483.275 64.3918 482.963 65.0838 482.827 65.9798H488.419ZM482.767 67.7678C482.815 68.3998 482.927 68.9478 483.103 69.4118C483.279 69.8678 483.511 70.2478 483.799 70.5518C484.087 70.8478 484.427 71.0718 484.819 71.2238C485.219 71.3678 485.659 71.4398 486.139 71.4398C486.619 71.4398 487.031 71.3838 487.375 71.2718C487.727 71.1598 488.031 71.0358 488.287 70.8998C488.551 70.7638 488.779 70.6398 488.971 70.5278C489.171 70.4158 489.363 70.3598 489.547 70.3598C489.795 70.3598 489.979 70.4518 490.099 70.6358L490.951 71.7158C490.623 72.0998 490.255 72.4238 489.847 72.6878C489.439 72.9438 489.011 73.1518 488.563 73.3118C488.123 73.4638 487.671 73.5718 487.207 73.6358C486.751 73.6998 486.307 73.7318 485.875 73.7318C485.019 73.7318 484.223 73.5918 483.487 73.3118C482.751 73.0238 482.111 72.6038 481.567 72.0518C481.023 71.4918 480.595 70.8038 480.283 69.9878C479.971 69.1638 479.815 68.2118 479.815 67.1318C479.815 66.2918 479.951 65.5038 480.223 64.7678C480.495 64.0238 480.883 63.3798 481.387 62.8358C481.899 62.2838 482.519 61.8478 483.247 61.5278C483.983 61.2078 484.811 61.0478 485.731 61.0478C486.507 61.0478 487.223 61.1718 487.879 61.4198C488.535 61.6678 489.099 62.0318 489.571 62.5118C490.043 62.9838 490.411 63.5678 490.675 64.2638C490.947 64.9518 491.083 65.7398 491.083 66.6278C491.083 67.0758 491.035 67.3798 490.939 67.5398C490.843 67.6918 490.659 67.7678 490.387 67.7678H482.767ZM496.08 62.7518C496.328 62.5038 496.588 62.2758 496.86 62.0678C497.14 61.8518 497.432 61.6718 497.736 61.5278C498.048 61.3758 498.38 61.2598 498.732 61.1798C499.084 61.0918 499.468 61.0478 499.884 61.0478C500.556 61.0478 501.152 61.1638 501.672 61.3958C502.192 61.6198 502.624 61.9398 502.968 62.3558C503.32 62.7638 503.584 63.2558 503.76 63.8318C503.944 64.3998 504.036 65.0278 504.036 65.7158V73.5518H501.072V65.7158C501.072 64.9638 500.9 64.3838 500.556 63.9758C500.212 63.5598 499.688 63.3518 498.984 63.3518C498.472 63.3518 497.992 63.4678 497.544 63.6998C497.096 63.9318 496.672 64.2478 496.272 64.6478V73.5518H493.308V61.2398H495.12C495.504 61.2398 495.756 61.4198 495.876 61.7798L496.08 62.7518ZM511.355 67.0958C511.723 67.0958 512.043 67.0478 512.315 66.9518C512.587 66.8478 512.811 66.7078 512.987 66.5318C513.171 66.3558 513.307 66.1438 513.395 65.8958C513.491 65.6478 513.539 65.3758 513.539 65.0798C513.539 64.4718 513.355 63.9918 512.987 63.6398C512.627 63.2798 512.083 63.0998 511.355 63.0998C510.627 63.0998 510.079 63.2798 509.711 63.6398C509.351 63.9918 509.171 64.4718 509.171 65.0798C509.171 65.3678 509.215 65.6358 509.303 65.8838C509.399 66.1318 509.535 66.3478 509.711 66.5318C509.895 66.7078 510.123 66.8478 510.395 66.9518C510.675 67.0478 510.995 67.0958 511.355 67.0958ZM514.703 74.1038C514.703 73.8638 514.631 73.6678 514.487 73.5158C514.343 73.3638 514.147 73.2478 513.899 73.1678C513.651 73.0798 513.359 73.0158 513.023 72.9758C512.695 72.9358 512.343 72.9078 511.967 72.8918C511.599 72.8678 511.215 72.8478 510.815 72.8318C510.423 72.8158 510.039 72.7838 509.663 72.7358C509.335 72.9198 509.067 73.1358 508.859 73.3838C508.659 73.6318 508.559 73.9198 508.559 74.2478C508.559 74.4638 508.611 74.6638 508.715 74.8478C508.827 75.0398 508.999 75.2038 509.231 75.3398C509.471 75.4758 509.779 75.5798 510.155 75.6518C510.531 75.7318 510.991 75.7718 511.535 75.7718C512.087 75.7718 512.563 75.7278 512.963 75.6398C513.363 75.5598 513.691 75.4438 513.947 75.2918C514.211 75.1478 514.403 74.9718 514.523 74.7638C514.643 74.5638 514.703 74.3438 514.703 74.1038ZM517.655 61.6598V62.7638C517.655 63.1158 517.443 63.3318 517.019 63.4118L515.915 63.6158C516.083 64.0398 516.167 64.5038 516.167 65.0078C516.167 65.6158 516.043 66.1678 515.795 66.6638C515.555 67.1518 515.219 67.5678 514.787 67.9118C514.355 68.2558 513.843 68.5238 513.251 68.7158C512.667 68.8998 512.035 68.9918 511.355 68.9918C511.115 68.9918 510.883 68.9798 510.659 68.9558C510.435 68.9318 510.215 68.8998 509.999 68.8598C509.615 69.0918 509.423 69.3518 509.423 69.6398C509.423 69.8878 509.535 70.0718 509.759 70.1918C509.991 70.3038 510.295 70.3838 510.671 70.4318C511.047 70.4798 511.475 70.5118 511.955 70.5278C512.435 70.5358 512.927 70.5598 513.431 70.5998C513.935 70.6398 514.427 70.7118 514.907 70.8158C515.387 70.9118 515.815 71.0678 516.191 71.2838C516.567 71.4998 516.867 71.7958 517.091 72.1718C517.323 72.5398 517.439 73.0158 517.439 73.5998C517.439 74.1438 517.303 74.6718 517.031 75.1838C516.767 75.6958 516.379 76.1518 515.867 76.5518C515.363 76.9518 514.739 77.2718 513.995 77.5118C513.259 77.7598 512.419 77.8838 511.475 77.8838C510.547 77.8838 509.739 77.7918 509.051 77.6078C508.363 77.4318 507.791 77.1918 507.335 76.8878C506.879 76.5918 506.539 76.2478 506.315 75.8558C506.091 75.4638 505.979 75.0558 505.979 74.6318C505.979 74.0558 506.151 73.5758 506.495 73.1918C506.847 72.7998 507.327 72.4878 507.935 72.2558C507.607 72.0878 507.347 71.8638 507.155 71.5838C506.963 71.3038 506.867 70.9358 506.867 70.4798C506.867 70.2958 506.899 70.1078 506.963 69.9158C507.035 69.7158 507.135 69.5198 507.263 69.3278C507.399 69.1358 507.567 68.9558 507.767 68.7878C507.967 68.6118 508.203 68.4558 508.475 68.3198C507.851 67.9838 507.359 67.5358 506.999 66.9758C506.647 66.4158 506.471 65.7598 506.471 65.0078C506.471 64.3998 506.591 63.8518 506.831 63.3638C507.079 62.8678 507.419 62.4478 507.851 62.1038C508.291 61.7518 508.807 61.4838 509.399 61.2998C509.999 61.1158 510.651 61.0238 511.355 61.0238C511.883 61.0238 512.379 61.0798 512.843 61.1918C513.307 61.2958 513.731 61.4518 514.115 61.6598H517.655ZM527.255 65.9798C527.255 65.5958 527.199 65.2358 527.087 64.8998C526.983 64.5558 526.823 64.2558 526.607 63.9998C526.391 63.7438 526.115 63.5438 525.779 63.3998C525.451 63.2478 525.067 63.1718 524.627 63.1718C523.771 63.1718 523.095 63.4158 522.599 63.9038C522.111 64.3918 521.799 65.0838 521.663 65.9798H527.255ZM521.603 67.7678C521.651 68.3998 521.763 68.9478 521.939 69.4118C522.115 69.8678 522.347 70.2478 522.635 70.5518C522.923 70.8478 523.263 71.0718 523.655 71.2238C524.055 71.3678 524.495 71.4398 524.975 71.4398C525.455 71.4398 525.867 71.3838 526.211 71.2718C526.563 71.1598 526.867 71.0358 527.123 70.8998C527.387 70.7638 527.615 70.6398 527.807 70.5278C528.007 70.4158 528.199 70.3598 528.383 70.3598C528.631 70.3598 528.815 70.4518 528.935 70.6358L529.787 71.7158C529.459 72.0998 529.091 72.4238 528.683 72.6878C528.275 72.9438 527.847 73.1518 527.399 73.3118C526.959 73.4638 526.507 73.5718 526.043 73.6358C525.587 73.6998 525.143 73.7318 524.711 73.7318C523.855 73.7318 523.059 73.5918 522.323 73.3118C521.587 73.0238 520.947 72.6038 520.403 72.0518C519.859 71.4918 519.431 70.8038 519.119 69.9878C518.807 69.1638 518.651 68.2118 518.651 67.1318C518.651 66.2918 518.787 65.5038 519.059 64.7678C519.331 64.0238 519.719 63.3798 520.223 62.8358C520.735 62.2838 521.355 61.8478 522.083 61.5278C522.819 61.2078 523.647 61.0478 524.567 61.0478C525.343 61.0478 526.059 61.1718 526.715 61.4198C527.371 61.6678 527.935 62.0318 528.407 62.5118C528.879 62.9838 529.247 63.5678 529.511 64.2638C529.783 64.9518 529.919 65.7398 529.919 66.6278C529.919 67.0758 529.871 67.3798 529.775 67.5398C529.679 67.6918 529.495 67.7678 529.223 67.7678H521.603ZM539.656 63.6398C539.576 63.7678 539.492 63.8598 539.404 63.9158C539.316 63.9638 539.204 63.9878 539.068 63.9878C538.924 63.9878 538.768 63.9478 538.6 63.8678C538.44 63.7878 538.252 63.6998 538.036 63.6038C537.82 63.4998 537.572 63.4078 537.292 63.3278C537.02 63.2478 536.696 63.2078 536.32 63.2078C535.736 63.2078 535.276 63.3318 534.94 63.5798C534.612 63.8278 534.448 64.1518 534.448 64.5518C534.448 64.8158 534.532 65.0398 534.7 65.2238C534.876 65.3998 535.104 65.5558 535.384 65.6918C535.672 65.8278 535.996 65.9518 536.356 66.0638C536.716 66.1678 537.08 66.2838 537.448 66.4118C537.824 66.5398 538.192 66.6878 538.552 66.8558C538.912 67.0158 539.232 67.2238 539.512 67.4798C539.8 67.7278 540.028 68.0278 540.196 68.3798C540.372 68.7318 540.46 69.1558 540.46 69.6518C540.46 70.2438 540.352 70.7918 540.136 71.2958C539.928 71.7918 539.616 72.2238 539.2 72.5918C538.784 72.9518 538.268 73.2358 537.652 73.4438C537.044 73.6438 536.34 73.7438 535.54 73.7438C535.116 73.7438 534.7 73.7038 534.292 73.6238C533.892 73.5518 533.504 73.4478 533.128 73.3118C532.76 73.1758 532.416 73.0158 532.096 72.8318C531.784 72.6478 531.508 72.4478 531.268 72.2318L531.952 71.1038C532.04 70.9678 532.144 70.8638 532.264 70.7918C532.384 70.7198 532.536 70.6838 532.72 70.6838C532.904 70.6838 533.076 70.7358 533.236 70.8398C533.404 70.9438 533.596 71.0558 533.812 71.1758C534.028 71.2958 534.28 71.4078 534.568 71.5118C534.864 71.6158 535.236 71.6678 535.684 71.6678C536.036 71.6678 536.336 71.6278 536.584 71.5478C536.84 71.4598 537.048 71.3478 537.208 71.2118C537.376 71.0758 537.496 70.9198 537.568 70.7438C537.648 70.5598 537.688 70.3718 537.688 70.1798C537.688 69.8918 537.6 69.6558 537.424 69.4718C537.256 69.2878 537.028 69.1278 536.74 68.9918C536.46 68.8558 536.136 68.7358 535.768 68.6318C535.408 68.5198 535.036 68.3998 534.652 68.2718C534.276 68.1438 533.904 67.9958 533.536 67.8278C533.176 67.6518 532.852 67.4318 532.564 67.1678C532.284 66.9038 532.056 66.5798 531.88 66.1958C531.712 65.8118 531.628 65.3478 531.628 64.8038C531.628 64.2998 531.728 63.8198 531.928 63.3638C532.128 62.9078 532.42 62.5118 532.804 62.1758C533.196 61.8318 533.68 61.5598 534.256 61.3598C534.84 61.1518 535.512 61.0478 536.272 61.0478C537.12 61.0478 537.892 61.1878 538.588 61.4678C539.284 61.7478 539.864 62.1158 540.328 62.5718L539.656 63.6398ZM555.031 68.2958C554.175 68.3358 553.455 68.4118 552.871 68.5238C552.287 68.6278 551.819 68.7638 551.467 68.9318C551.115 69.0998 550.863 69.2958 550.711 69.5198C550.559 69.7438 550.483 69.9878 550.483 70.2518C550.483 70.7718 550.635 71.1438 550.939 71.3678C551.251 71.5918 551.655 71.7038 552.151 71.7038C552.759 71.7038 553.283 71.5958 553.723 71.3798C554.171 71.1558 554.607 70.8198 555.031 70.3718V68.2958ZM548.239 62.9558C549.655 61.6598 551.359 61.0118 553.351 61.0118C554.071 61.0118 554.715 61.1318 555.283 61.3718C555.851 61.6038 556.331 61.9318 556.723 62.3558C557.115 62.7718 557.411 63.2718 557.611 63.8558C557.819 64.4398 557.923 65.0798 557.923 65.7758V73.5518H556.579C556.299 73.5518 556.083 73.5118 555.931 73.4318C555.779 73.3438 555.659 73.1718 555.571 72.9158L555.307 72.0278C554.995 72.3078 554.691 72.5558 554.395 72.7718C554.099 72.9798 553.791 73.1558 553.471 73.2998C553.151 73.4438 552.807 73.5518 552.439 73.6238C552.079 73.7038 551.679 73.7438 551.239 73.7438C550.719 73.7438 550.239 73.6758 549.799 73.5398C549.359 73.3958 548.979 73.1838 548.659 72.9038C548.339 72.6238 548.091 72.2758 547.915 71.8598C547.739 71.4438 547.651 70.9598 547.651 70.4078C547.651 70.0958 547.703 69.7878 547.807 69.4838C547.911 69.1718 548.079 68.8758 548.311 68.5958C548.551 68.3158 548.859 68.0518 549.235 67.8038C549.611 67.5558 550.071 67.3398 550.615 67.1558C551.167 66.9718 551.807 66.8238 552.535 66.7118C553.263 66.5918 554.095 66.5198 555.031 66.4958V65.7758C555.031 64.9518 554.855 64.3438 554.503 63.9518C554.151 63.5518 553.643 63.3518 552.979 63.3518C552.499 63.3518 552.099 63.4078 551.779 63.5198C551.467 63.6318 551.191 63.7598 550.951 63.9038C550.711 64.0398 550.491 64.1638 550.291 64.2758C550.099 64.3878 549.883 64.4438 549.643 64.4438C549.435 64.4438 549.259 64.3918 549.115 64.2878C548.971 64.1758 548.855 64.0478 548.767 63.9038L548.239 62.9558ZM563.486 62.7518C563.734 62.5038 563.994 62.2758 564.266 62.0678C564.546 61.8518 564.838 61.6718 565.142 61.5278C565.454 61.3758 565.786 61.2598 566.138 61.1798C566.49 61.0918 566.874 61.0478 567.29 61.0478C567.962 61.0478 568.558 61.1638 569.078 61.3958C569.598 61.6198 570.03 61.9398 570.374 62.3558C570.726 62.7638 570.99 63.2558 571.166 63.8318C571.35 64.3998 571.442 65.0278 571.442 65.7158V73.5518H568.478V65.7158C568.478 64.9638 568.306 64.3838 567.962 63.9758C567.618 63.5598 567.094 63.3518 566.39 63.3518C565.878 63.3518 565.398 63.4678 564.95 63.6998C564.502 63.9318 564.078 64.2478 563.678 64.6478V73.5518H560.714V61.2398H562.526C562.91 61.2398 563.162 61.4198 563.282 61.7798L563.486 62.7518ZM581.989 64.3838C581.653 63.9758 581.285 63.6878 580.885 63.5198C580.493 63.3518 580.069 63.2678 579.613 63.2678C579.165 63.2678 578.761 63.3518 578.401 63.5198C578.041 63.6878 577.733 63.9438 577.477 64.2878C577.221 64.6238 577.025 65.0558 576.889 65.5838C576.753 66.1038 576.685 66.7198 576.685 67.4318C576.685 68.1518 576.741 68.7638 576.853 69.2678C576.973 69.7638 577.141 70.1718 577.357 70.4918C577.573 70.8038 577.837 71.0318 578.149 71.1758C578.461 71.3118 578.809 71.3798 579.193 71.3798C579.809 71.3798 580.333 71.2518 580.765 70.9958C581.197 70.7398 581.605 70.3758 581.989 69.9038V64.3838ZM584.953 55.7198V73.5518H583.141C582.749 73.5518 582.501 73.3718 582.397 73.0118L582.145 71.8238C581.649 72.3918 581.077 72.8518 580.429 73.2038C579.789 73.5558 579.041 73.7318 578.185 73.7318C577.513 73.7318 576.897 73.5918 576.337 73.3118C575.777 73.0318 575.293 72.6278 574.885 72.0998C574.485 71.5638 574.173 70.9038 573.949 70.1198C573.733 69.3358 573.625 68.4398 573.625 67.4318C573.625 66.5198 573.749 65.6718 573.997 64.8878C574.245 64.1038 574.601 63.4238 575.065 62.8478C575.529 62.2718 576.085 61.8238 576.733 61.5038C577.381 61.1758 578.109 61.0118 578.917 61.0118C579.605 61.0118 580.193 61.1198 580.681 61.3358C581.169 61.5518 581.605 61.8438 581.989 62.2118V55.7198H584.953ZM601.226 63.6398C601.146 63.7678 601.062 63.8598 600.974 63.9158C600.886 63.9638 600.774 63.9878 600.638 63.9878C600.494 63.9878 600.338 63.9478 600.17 63.8678C600.01 63.7878 599.822 63.6998 599.606 63.6038C599.39 63.4998 599.142 63.4078 598.862 63.3278C598.59 63.2478 598.266 63.2078 597.89 63.2078C597.306 63.2078 596.846 63.3318 596.51 63.5798C596.182 63.8278 596.018 64.1518 596.018 64.5518C596.018 64.8158 596.102 65.0398 596.27 65.2238C596.446 65.3998 596.674 65.5558 596.954 65.6918C597.242 65.8278 597.566 65.9518 597.926 66.0638C598.286 66.1678 598.65 66.2838 599.018 66.4118C599.394 66.5398 599.762 66.6878 600.122 66.8558C600.482 67.0158 600.802 67.2238 601.082 67.4798C601.37 67.7278 601.598 68.0278 601.766 68.3798C601.942 68.7318 602.03 69.1558 602.03 69.6518C602.03 70.2438 601.922 70.7918 601.706 71.2958C601.498 71.7918 601.186 72.2238 600.77 72.5918C600.354 72.9518 599.838 73.2358 599.222 73.4438C598.614 73.6438 597.91 73.7438 597.11 73.7438C596.686 73.7438 596.27 73.7038 595.862 73.6238C595.462 73.5518 595.074 73.4478 594.698 73.3118C594.33 73.1758 593.986 73.0158 593.666 72.8318C593.354 72.6478 593.078 72.4478 592.838 72.2318L593.522 71.1038C593.61 70.9678 593.714 70.8638 593.834 70.7918C593.954 70.7198 594.106 70.6838 594.29 70.6838C594.474 70.6838 594.646 70.7358 594.806 70.8398C594.974 70.9438 595.166 71.0558 595.382 71.1758C595.598 71.2958 595.85 71.4078 596.138 71.5118C596.434 71.6158 596.806 71.6678 597.254 71.6678C597.606 71.6678 597.906 71.6278 598.154 71.5478C598.41 71.4598 598.618 71.3478 598.778 71.2118C598.946 71.0758 599.066 70.9198 599.138 70.7438C599.218 70.5598 599.258 70.3718 599.258 70.1798C599.258 69.8918 599.17 69.6558 598.994 69.4718C598.826 69.2878 598.598 69.1278 598.31 68.9918C598.03 68.8558 597.706 68.7358 597.338 68.6318C596.978 68.5198 596.606 68.3998 596.222 68.2718C595.846 68.1438 595.474 67.9958 595.106 67.8278C594.746 67.6518 594.422 67.4318 594.134 67.1678C593.854 66.9038 593.626 66.5798 593.45 66.1958C593.282 65.8118 593.198 65.3478 593.198 64.8038C593.198 64.2998 593.298 63.8198 593.498 63.3638C593.698 62.9078 593.99 62.5118 594.374 62.1758C594.766 61.8318 595.25 61.5598 595.826 61.3598C596.41 61.1518 597.082 61.0478 597.842 61.0478C598.69 61.0478 599.462 61.1878 600.158 61.4678C600.854 61.7478 601.434 62.1158 601.898 62.5718L601.226 63.6398ZM608.365 73.7438C607.293 73.7438 606.469 73.4438 605.893 72.8438C605.325 72.2358 605.041 71.3998 605.041 70.3358V63.4598H603.781C603.621 63.4598 603.485 63.4078 603.373 63.3038C603.261 63.1998 603.205 63.0438 603.205 62.8358V61.6598L605.185 61.3358L605.809 57.9758C605.849 57.8158 605.925 57.6918 606.037 57.6038C606.149 57.5158 606.293 57.4718 606.469 57.4718H608.005V61.3478H611.293V63.4598H608.005V70.1318C608.005 70.5158 608.097 70.8158 608.281 71.0318C608.473 71.2478 608.733 71.3558 609.061 71.3558C609.245 71.3558 609.397 71.3358 609.517 71.2958C609.645 71.2478 609.753 71.1998 609.841 71.1518C609.937 71.1038 610.021 71.0598 610.093 71.0198C610.165 70.9718 610.237 70.9478 610.309 70.9478C610.397 70.9478 610.469 70.9718 610.525 71.0198C610.581 71.0598 610.641 71.1238 610.705 71.2118L611.593 72.6518C611.161 73.0118 610.665 73.2838 610.105 73.4678C609.545 73.6518 608.965 73.7438 608.365 73.7438ZM615.987 63.3758C616.371 62.6398 616.827 62.0638 617.355 61.6478C617.883 61.2238 618.507 61.0118 619.227 61.0118C619.795 61.0118 620.251 61.1358 620.595 61.3838L620.403 63.6038C620.363 63.7478 620.303 63.8518 620.223 63.9158C620.151 63.9718 620.051 63.9998 619.923 63.9998C619.803 63.9998 619.623 63.9798 619.383 63.9398C619.151 63.8998 618.923 63.8798 618.699 63.8798C618.371 63.8798 618.079 63.9278 617.823 64.0238C617.567 64.1198 617.335 64.2598 617.127 64.4438C616.927 64.6198 616.747 64.8358 616.587 65.0918C616.435 65.3478 616.291 65.6398 616.155 65.9678V73.5518H613.191V61.2398H614.931C615.235 61.2398 615.447 61.2958 615.567 61.4078C615.687 61.5118 615.767 61.7038 615.807 61.9838L615.987 63.3758ZM628.484 68.2958C627.628 68.3358 626.908 68.4118 626.324 68.5238C625.74 68.6278 625.272 68.7638 624.92 68.9318C624.568 69.0998 624.316 69.2958 624.164 69.5198C624.012 69.7438 623.936 69.9878 623.936 70.2518C623.936 70.7718 624.088 71.1438 624.392 71.3678C624.704 71.5918 625.108 71.7038 625.604 71.7038C626.212 71.7038 626.736 71.5958 627.176 71.3798C627.624 71.1558 628.06 70.8198 628.484 70.3718V68.2958ZM621.692 62.9558C623.108 61.6598 624.812 61.0118 626.804 61.0118C627.524 61.0118 628.168 61.1318 628.736 61.3718C629.304 61.6038 629.784 61.9318 630.176 62.3558C630.568 62.7718 630.864 63.2718 631.064 63.8558C631.272 64.4398 631.376 65.0798 631.376 65.7758V73.5518H630.032C629.752 73.5518 629.536 73.5118 629.384 73.4318C629.232 73.3438 629.112 73.1718 629.024 72.9158L628.76 72.0278C628.448 72.3078 628.144 72.5558 627.848 72.7718C627.552 72.9798 627.244 73.1558 626.924 73.2998C626.604 73.4438 626.26 73.5518 625.892 73.6238C625.532 73.7038 625.132 73.7438 624.692 73.7438C624.172 73.7438 623.692 73.6758 623.252 73.5398C622.812 73.3958 622.432 73.1838 622.112 72.9038C621.792 72.6238 621.544 72.2758 621.368 71.8598C621.192 71.4438 621.104 70.9598 621.104 70.4078C621.104 70.0958 621.156 69.7878 621.26 69.4838C621.364 69.1718 621.532 68.8758 621.764 68.5958C622.004 68.3158 622.312 68.0518 622.688 67.8038C623.064 67.5558 623.524 67.3398 624.068 67.1558C624.62 66.9718 625.26 66.8238 625.988 66.7118C626.716 66.5918 627.548 66.5198 628.484 66.4958V65.7758C628.484 64.9518 628.308 64.3438 627.956 63.9518C627.604 63.5518 627.096 63.3518 626.432 63.3518C625.952 63.3518 625.552 63.4078 625.232 63.5198C624.92 63.6318 624.644 63.7598 624.404 63.9038C624.164 64.0398 623.944 64.1638 623.744 64.2758C623.552 64.3878 623.336 64.4438 623.096 64.4438C622.888 64.4438 622.712 64.3918 622.568 64.2878C622.424 64.1758 622.308 64.0478 622.22 63.9038L621.692 62.9558ZM638.107 73.7438C637.035 73.7438 636.211 73.4438 635.635 72.8438C635.067 72.2358 634.783 71.3998 634.783 70.3358V63.4598H633.523C633.363 63.4598 633.227 63.4078 633.115 63.3038C633.003 63.1998 632.947 63.0438 632.947 62.8358V61.6598L634.927 61.3358L635.551 57.9758C635.591 57.8158 635.667 57.6918 635.779 57.6038C635.891 57.5158 636.035 57.4718 636.211 57.4718H637.747V61.3478H641.035V63.4598H637.747V70.1318C637.747 70.5158 637.839 70.8158 638.023 71.0318C638.215 71.2478 638.475 71.3558 638.803 71.3558C638.987 71.3558 639.139 71.3358 639.259 71.2958C639.387 71.2478 639.495 71.1998 639.583 71.1518C639.679 71.1038 639.763 71.0598 639.835 71.0198C639.907 70.9718 639.979 70.9478 640.051 70.9478C640.139 70.9478 640.211 70.9718 640.267 71.0198C640.323 71.0598 640.383 71.1238 640.447 71.2118L641.335 72.6518C640.903 73.0118 640.407 73.2838 639.847 73.4678C639.287 73.6518 638.707 73.7438 638.107 73.7438ZM650.771 65.9798C650.771 65.5958 650.715 65.2358 650.603 64.8998C650.499 64.5558 650.339 64.2558 650.123 63.9998C649.907 63.7438 649.631 63.5438 649.295 63.3998C648.967 63.2478 648.583 63.1718 648.143 63.1718C647.287 63.1718 646.611 63.4158 646.115 63.9038C645.627 64.3918 645.315 65.0838 645.179 65.9798H650.771ZM645.119 67.7678C645.167 68.3998 645.279 68.9478 645.455 69.4118C645.631 69.8678 645.863 70.2478 646.151 70.5518C646.439 70.8478 646.779 71.0718 647.171 71.2238C647.571 71.3678 648.011 71.4398 648.491 71.4398C648.971 71.4398 649.383 71.3838 649.727 71.2718C650.079 71.1598 650.383 71.0358 650.639 70.8998C650.903 70.7638 651.131 70.6398 651.323 70.5278C651.523 70.4158 651.715 70.3598 651.899 70.3598C652.147 70.3598 652.331 70.4518 652.451 70.6358L653.303 71.7158C652.975 72.0998 652.607 72.4238 652.199 72.6878C651.791 72.9438 651.363 73.1518 650.915 73.3118C650.475 73.4638 650.023 73.5718 649.559 73.6358C649.103 73.6998 648.659 73.7318 648.227 73.7318C647.371 73.7318 646.575 73.5918 645.839 73.3118C645.103 73.0238 644.463 72.6038 643.919 72.0518C643.375 71.4918 642.947 70.8038 642.635 69.9878C642.323 69.1638 642.167 68.2118 642.167 67.1318C642.167 66.2918 642.303 65.5038 642.575 64.7678C642.847 64.0238 643.235 63.3798 643.739 62.8358C644.251 62.2838 644.871 61.8478 645.599 61.5278C646.335 61.2078 647.163 61.0478 648.083 61.0478C648.859 61.0478 649.575 61.1718 650.231 61.4198C650.887 61.6678 651.451 62.0318 651.923 62.5118C652.395 62.9838 652.763 63.5678 653.027 64.2638C653.299 64.9518 653.435 65.7398 653.435 66.6278C653.435 67.0758 653.387 67.3798 653.291 67.5398C653.195 67.6918 653.011 67.7678 652.739 67.7678H645.119ZM660.159 67.0958C660.527 67.0958 660.847 67.0478 661.119 66.9518C661.391 66.8478 661.615 66.7078 661.791 66.5318C661.975 66.3558 662.111 66.1438 662.199 65.8958C662.295 65.6478 662.343 65.3758 662.343 65.0798C662.343 64.4718 662.159 63.9918 661.791 63.6398C661.431 63.2798 660.887 63.0998 660.159 63.0998C659.431 63.0998 658.883 63.2798 658.515 63.6398C658.155 63.9918 657.975 64.4718 657.975 65.0798C657.975 65.3678 658.019 65.6358 658.107 65.8838C658.203 66.1318 658.339 66.3478 658.515 66.5318C658.699 66.7078 658.927 66.8478 659.199 66.9518C659.479 67.0478 659.799 67.0958 660.159 67.0958ZM663.507 74.1038C663.507 73.8638 663.435 73.6678 663.291 73.5158C663.147 73.3638 662.951 73.2478 662.703 73.1678C662.455 73.0798 662.163 73.0158 661.827 72.9758C661.499 72.9358 661.147 72.9078 660.771 72.8918C660.403 72.8678 660.019 72.8478 659.619 72.8318C659.227 72.8158 658.843 72.7838 658.467 72.7358C658.139 72.9198 657.871 73.1358 657.663 73.3838C657.463 73.6318 657.363 73.9198 657.363 74.2478C657.363 74.4638 657.415 74.6638 657.519 74.8478C657.631 75.0398 657.803 75.2038 658.035 75.3398C658.275 75.4758 658.583 75.5798 658.959 75.6518C659.335 75.7318 659.795 75.7718 660.339 75.7718C660.891 75.7718 661.367 75.7278 661.767 75.6398C662.167 75.5598 662.495 75.4438 662.751 75.2918C663.015 75.1478 663.207 74.9718 663.327 74.7638C663.447 74.5638 663.507 74.3438 663.507 74.1038ZM666.459 61.6598V62.7638C666.459 63.1158 666.247 63.3318 665.823 63.4118L664.719 63.6158C664.887 64.0398 664.971 64.5038 664.971 65.0078C664.971 65.6158 664.847 66.1678 664.599 66.6638C664.359 67.1518 664.023 67.5678 663.591 67.9118C663.159 68.2558 662.647 68.5238 662.055 68.7158C661.471 68.8998 660.839 68.9918 660.159 68.9918C659.919 68.9918 659.687 68.9798 659.463 68.9558C659.239 68.9318 659.019 68.8998 658.803 68.8598C658.419 69.0918 658.227 69.3518 658.227 69.6398C658.227 69.8878 658.339 70.0718 658.563 70.1918C658.795 70.3038 659.099 70.3838 659.475 70.4318C659.851 70.4798 660.279 70.5118 660.759 70.5278C661.239 70.5358 661.731 70.5598 662.235 70.5998C662.739 70.6398 663.231 70.7118 663.711 70.8158C664.191 70.9118 664.619 71.0678 664.995 71.2838C665.371 71.4998 665.671 71.7958 665.895 72.1718C666.127 72.5398 666.243 73.0158 666.243 73.5998C666.243 74.1438 666.107 74.6718 665.835 75.1838C665.571 75.6958 665.183 76.1518 664.671 76.5518C664.167 76.9518 663.543 77.2718 662.799 77.5118C662.063 77.7598 661.223 77.8838 660.279 77.8838C659.351 77.8838 658.543 77.7918 657.855 77.6078C657.167 77.4318 656.595 77.1918 656.139 76.8878C655.683 76.5918 655.343 76.2478 655.119 75.8558C654.895 75.4638 654.783 75.0558 654.783 74.6318C654.783 74.0558 654.955 73.5758 655.299 73.1918C655.651 72.7998 656.131 72.4878 656.739 72.2558C656.411 72.0878 656.151 71.8638 655.959 71.5838C655.767 71.3038 655.671 70.9358 655.671 70.4798C655.671 70.2958 655.703 70.1078 655.767 69.9158C655.839 69.7158 655.939 69.5198 656.067 69.3278C656.203 69.1358 656.371 68.9558 656.571 68.7878C656.771 68.6118 657.007 68.4558 657.279 68.3198C656.655 67.9838 656.163 67.5358 655.803 66.9758C655.451 66.4158 655.275 65.7598 655.275 65.0078C655.275 64.3998 655.395 63.8518 655.635 63.3638C655.883 62.8678 656.223 62.4478 656.655 62.1038C657.095 61.7518 657.611 61.4838 658.203 61.2998C658.803 61.1158 659.455 61.0238 660.159 61.0238C660.687 61.0238 661.183 61.0798 661.647 61.1918C662.111 61.2958 662.535 61.4518 662.919 61.6598H666.459ZM671.411 61.2398V73.5518H668.435V61.2398H671.411ZM671.819 57.6518C671.819 57.9078 671.767 58.1478 671.663 58.3718C671.559 58.5958 671.419 58.7918 671.243 58.9598C671.075 59.1278 670.875 59.2638 670.643 59.3678C670.411 59.4638 670.163 59.5118 669.899 59.5118C669.643 59.5118 669.399 59.4638 669.167 59.3678C668.943 59.2638 668.747 59.1278 668.579 58.9598C668.411 58.7918 668.275 58.5958 668.171 58.3718C668.075 58.1478 668.027 57.9078 668.027 57.6518C668.027 57.3878 668.075 57.1398 668.171 56.9078C668.275 56.6758 668.411 56.4758 668.579 56.3078C668.747 56.1398 668.943 56.0078 669.167 55.9118C669.399 55.8078 669.643 55.7558 669.899 55.7558C670.163 55.7558 670.411 55.8078 670.643 55.9118C670.875 56.0078 671.075 56.1398 671.243 56.3078C671.419 56.4758 671.559 56.6758 671.663 56.9078C671.767 57.1398 671.819 57.3878 671.819 57.6518ZM682.365 65.9798C682.365 65.5958 682.309 65.2358 682.197 64.8998C682.093 64.5558 681.933 64.2558 681.717 63.9998C681.501 63.7438 681.225 63.5438 680.889 63.3998C680.561 63.2478 680.177 63.1718 679.737 63.1718C678.881 63.1718 678.205 63.4158 677.709 63.9038C677.221 64.3918 676.909 65.0838 676.773 65.9798H682.365ZM676.713 67.7678C676.761 68.3998 676.873 68.9478 677.049 69.4118C677.225 69.8678 677.457 70.2478 677.745 70.5518C678.033 70.8478 678.373 71.0718 678.765 71.2238C679.165 71.3678 679.605 71.4398 680.085 71.4398C680.565 71.4398 680.977 71.3838 681.321 71.2718C681.673 71.1598 681.977 71.0358 682.233 70.8998C682.497 70.7638 682.725 70.6398 682.917 70.5278C683.117 70.4158 683.309 70.3598 683.493 70.3598C683.741 70.3598 683.925 70.4518 684.045 70.6358L684.897 71.7158C684.569 72.0998 684.201 72.4238 683.793 72.6878C683.385 72.9438 682.957 73.1518 682.509 73.3118C682.069 73.4638 681.617 73.5718 681.153 73.6358C680.697 73.6998 680.253 73.7318 679.821 73.7318C678.965 73.7318 678.169 73.5918 677.433 73.3118C676.697 73.0238 676.057 72.6038 675.513 72.0518C674.969 71.4918 674.541 70.8038 674.229 69.9878C673.917 69.1638 673.761 68.2118 673.761 67.1318C673.761 66.2918 673.897 65.5038 674.169 64.7678C674.441 64.0238 674.829 63.3798 675.333 62.8358C675.845 62.2838 676.465 61.8478 677.193 61.5278C677.929 61.2078 678.757 61.0478 679.677 61.0478C680.453 61.0478 681.169 61.1718 681.825 61.4198C682.481 61.6678 683.045 62.0318 683.517 62.5118C683.989 62.9838 684.357 63.5678 684.621 64.2638C684.893 64.9518 685.029 65.7398 685.029 66.6278C685.029 67.0758 684.981 67.3798 684.885 67.5398C684.789 67.6918 684.605 67.7678 684.333 67.7678H676.713ZM694.765 63.6398C694.685 63.7678 694.601 63.8598 694.513 63.9158C694.425 63.9638 694.313 63.9878 694.177 63.9878C694.033 63.9878 693.877 63.9478 693.709 63.8678C693.549 63.7878 693.361 63.6998 693.145 63.6038C692.929 63.4998 692.681 63.4078 692.401 63.3278C692.129 63.2478 691.805 63.2078 691.429 63.2078C690.845 63.2078 690.385 63.3318 690.049 63.5798C689.721 63.8278 689.557 64.1518 689.557 64.5518C689.557 64.8158 689.641 65.0398 689.809 65.2238C689.985 65.3998 690.213 65.5558 690.493 65.6918C690.781 65.8278 691.105 65.9518 691.465 66.0638C691.825 66.1678 692.189 66.2838 692.557 66.4118C692.933 66.5398 693.301 66.6878 693.661 66.8558C694.021 67.0158 694.341 67.2238 694.621 67.4798C694.909 67.7278 695.137 68.0278 695.305 68.3798C695.481 68.7318 695.569 69.1558 695.569 69.6518C695.569 70.2438 695.461 70.7918 695.245 71.2958C695.037 71.7918 694.725 72.2238 694.309 72.5918C693.893 72.9518 693.377 73.2358 692.761 73.4438C692.153 73.6438 691.449 73.7438 690.649 73.7438C690.225 73.7438 689.809 73.7038 689.401 73.6238C689.001 73.5518 688.613 73.4478 688.237 73.3118C687.869 73.1758 687.525 73.0158 687.205 72.8318C686.893 72.6478 686.617 72.4478 686.377 72.2318L687.061 71.1038C687.149 70.9678 687.253 70.8638 687.373 70.7918C687.493 70.7198 687.645 70.6838 687.829 70.6838C688.013 70.6838 688.185 70.7358 688.345 70.8398C688.513 70.9438 688.705 71.0558 688.921 71.1758C689.137 71.2958 689.389 71.4078 689.677 71.5118C689.973 71.6158 690.345 71.6678 690.793 71.6678C691.145 71.6678 691.445 71.6278 691.693 71.5478C691.949 71.4598 692.157 71.3478 692.317 71.2118C692.485 71.0758 692.605 70.9198 692.677 70.7438C692.757 70.5598 692.797 70.3718 692.797 70.1798C692.797 69.8918 692.709 69.6558 692.533 69.4718C692.365 69.2878 692.137 69.1278 691.849 68.9918C691.569 68.8558 691.245 68.7358 690.877 68.6318C690.517 68.5198 690.145 68.3998 689.761 68.2718C689.385 68.1438 689.013 67.9958 688.645 67.8278C688.285 67.6518 687.961 67.4318 687.673 67.1678C687.393 66.9038 687.165 66.5798 686.989 66.1958C686.821 65.8118 686.737 65.3478 686.737 64.8038C686.737 64.2998 686.837 63.8198 687.037 63.3638C687.237 62.9078 687.529 62.5118 687.913 62.1758C688.305 61.8318 688.789 61.5598 689.365 61.3598C689.949 61.1518 690.621 61.0478 691.381 61.0478C692.229 61.0478 693.001 61.1878 693.697 61.4678C694.393 61.7478 694.973 62.1158 695.437 62.5718L694.765 63.6398Z" fill="#31479E"/>
</g>
<defs>
<filter id="filter0_d" x="0" y="0.365967" width="763" height="183.366" filterUnits="userSpaceOnUse" color-interpolation-filters="sRGB">
<feFlood flood-opacity="0" result="BackgroundImageFix"/>
<feColorMatrix in="SourceAlpha" type="matrix" values="0 0 0 0 0 0 0 0 0 0 0 0 0 0 0 0 0 0 127 0"/>
<feOffset/>
<feGaussianBlur stdDeviation="10"/>
<feColorMatrix type="matrix" values="0 0 0 0 0 0 0 0 0 0 0 0 0 0 0 0 0 0 0.25 0"/>
<feBlend mode="normal" in2="BackgroundImageFix" result="effect1_dropShadow"/>
<feBlend mode="normal" in="SourceGraphic" in2="effect1_dropShadow" result="shape"/>
</filter>
</defs>
</svg>
