<svg width="343" height="108" viewBox="0 0 343 108" fill="none" xmlns="http://www.w3.org/2000/svg">
<g filter="url(#filter0_d)">
<mask id="path-1-inside-1" fill="white">
<path fill-rule="evenodd" clip-rule="evenodd" d="M27 20C23.134 20 20 23.134 20 27V65.5326C20 69.3986 23.134 72.5326 27 72.5326H36.5095L36.5095 84.7837C36.5095 87.1602 39.1413 88.5932 41.1374 87.3036L64.0018 72.5326H316C319.866 72.5326 323 69.3986 323 65.5326V27C323 23.134 319.866 20 316 20H27Z"/>
</mask>
<path fill-rule="evenodd" clip-rule="evenodd" d="M27 20C23.134 20 20 23.134 20 27V65.5326C20 69.3986 23.134 72.5326 27 72.5326H36.5095L36.5095 84.7837C36.5095 87.1602 39.1413 88.5932 41.1374 87.3036L64.0018 72.5326H316C319.866 72.5326 323 69.3986 323 65.5326V27C323 23.134 319.866 20 316 20H27Z" fill="white"/>
<path d="M36.5095 72.5326L39.5095 72.5326L39.5095 69.5326H36.5095V72.5326ZM36.5095 84.7837L33.5095 84.7837L33.5095 84.7837L36.5095 84.7837ZM41.1374 87.3036L39.5095 84.7837L39.5095 84.7837L41.1374 87.3036ZM64.0018 72.5326V69.5326H63.117L62.3739 70.0127L64.0018 72.5326ZM23 27C23 24.7909 24.7909 23 27 23V17C21.4772 17 17 21.4771 17 27H23ZM23 65.5326V27H17V65.5326H23ZM27 69.5326C24.7909 69.5326 23 67.7417 23 65.5326H17C17 71.0554 21.4771 75.5326 27 75.5326V69.5326ZM36.5095 69.5326H27V75.5326H36.5095V69.5326ZM33.5095 72.5326L33.5095 84.7837L39.5095 84.7837L39.5095 72.5326L33.5095 72.5326ZM33.5095 84.7837C33.5095 89.5367 38.773 92.4027 42.7654 89.8235L39.5095 84.7837L39.5095 84.7837L33.5095 84.7837ZM42.7654 89.8235L65.6297 75.0525L62.3739 70.0127L39.5095 84.7837L42.7654 89.8235ZM316 69.5326H64.0018V75.5326H316V69.5326ZM320 65.5326C320 67.7417 318.209 69.5326 316 69.5326V75.5326C321.523 75.5326 326 71.0554 326 65.5326H320ZM320 27V65.5326H326V27H320ZM316 23C318.209 23 320 24.7909 320 27H326C326 21.4772 321.523 17 316 17V23ZM27 23H316V17H27V23Z" fill="#31479E" mask="url(#path-1-inside-1)"/>
</g>
<path d="M40.55 39.724L39.494 36.838C39.442 36.71 39.388 36.558 39.332 36.382C39.276 36.206 39.22 36.016 39.164 35.812C39.112 36.016 39.058 36.208 39.002 36.388C38.946 36.564 38.892 36.718 38.84 36.85L37.79 39.724H40.55ZM43.4 43H42.152C42.012 43 41.898 42.966 41.81 42.898C41.722 42.826 41.656 42.738 41.612 42.634L40.964 40.864H37.37L36.722 42.634C36.69 42.726 36.628 42.81 36.536 42.886C36.444 42.962 36.33 43 36.194 43H34.934L38.348 34.324H39.992L43.4 43ZM45.4383 37.6C45.5623 37.476 45.6923 37.362 45.8283 37.258C45.9683 37.15 46.1143 37.06 46.2663 36.988C46.4223 36.912 46.5883 36.854 46.7643 36.814C46.9403 36.77 47.1323 36.748 47.3403 36.748C47.6763 36.748 47.9743 36.806 48.2343 36.922C48.4943 37.034 48.7103 37.194 48.8823 37.402C49.0583 37.606 49.1903 37.852 49.2783 38.14C49.3703 38.424 49.4163 38.738 49.4163 39.082V43H47.9343V39.082C47.9343 38.706 47.8483 38.416 47.6763 38.212C47.5043 38.004 47.2423 37.9 46.8903 37.9C46.6343 37.9 46.3943 37.958 46.1703 38.074C45.9463 38.19 45.7343 38.348 45.5343 38.548V43H44.0523V36.844H44.9583C45.1503 36.844 45.2763 36.934 45.3363 37.114L45.4383 37.6ZM54.6898 38.416C54.5218 38.212 54.3378 38.068 54.1378 37.984C53.9418 37.9 53.7298 37.858 53.5018 37.858C53.2778 37.858 53.0758 37.9 52.8958 37.984C52.7158 38.068 52.5618 38.196 52.4338 38.368C52.3058 38.536 52.2078 38.752 52.1398 39.016C52.0718 39.276 52.0378 39.584 52.0378 39.94C52.0378 40.3 52.0658 40.606 52.1218 40.858C52.1818 41.106 52.2658 41.31 52.3738 41.47C52.4818 41.626 52.6138 41.74 52.7698 41.812C52.9258 41.88 53.0998 41.914 53.2918 41.914C53.5998 41.914 53.8618 41.85 54.0778 41.722C54.2938 41.594 54.4978 41.412 54.6898 41.176V38.416ZM56.1718 34.084V43H55.2658C55.0698 43 54.9458 42.91 54.8938 42.73L54.7678 42.136C54.5198 42.42 54.2338 42.65 53.9098 42.826C53.5898 43.002 53.2158 43.09 52.7878 43.09C52.4518 43.09 52.1438 43.02 51.8638 42.88C51.5838 42.74 51.3418 42.538 51.1378 42.274C50.9378 42.006 50.7818 41.676 50.6698 41.284C50.5618 40.892 50.5078 40.444 50.5078 39.94C50.5078 39.484 50.5698 39.06 50.6938 38.668C50.8178 38.276 50.9958 37.936 51.2278 37.648C51.4598 37.36 51.7378 37.136 52.0618 36.976C52.3858 36.812 52.7498 36.73 53.1538 36.73C53.4978 36.73 53.7918 36.784 54.0358 36.892C54.2798 37 54.4978 37.146 54.6898 37.33V34.084H56.1718ZM59.0323 37.912C59.2243 37.544 59.4523 37.256 59.7163 37.048C59.9803 36.836 60.2923 36.73 60.6523 36.73C60.9363 36.73 61.1643 36.792 61.3363 36.916L61.2403 38.026C61.2203 38.098 61.1903 38.15 61.1503 38.182C61.1143 38.21 61.0643 38.224 61.0003 38.224C60.9403 38.224 60.8503 38.214 60.7303 38.194C60.6143 38.174 60.5003 38.164 60.3883 38.164C60.2243 38.164 60.0783 38.188 59.9503 38.236C59.8223 38.284 59.7063 38.354 59.6023 38.446C59.5023 38.534 59.4123 38.642 59.3323 38.77C59.2563 38.898 59.1843 39.044 59.1163 39.208V43H57.6343V36.844H58.5043C58.6563 36.844 58.7623 36.872 58.8223 36.928C58.8823 36.98 58.9223 37.076 58.9423 37.216L59.0323 37.912ZM65.2809 40.372C64.8529 40.392 64.4929 40.43 64.2009 40.486C63.9089 40.538 63.6749 40.606 63.4989 40.69C63.3229 40.774 63.1969 40.872 63.1209 40.984C63.0449 41.096 63.0069 41.218 63.0069 41.35C63.0069 41.61 63.0829 41.796 63.2349 41.908C63.3909 42.02 63.5929 42.076 63.8409 42.076C64.1449 42.076 64.4069 42.022 64.6269 41.914C64.8509 41.802 65.0689 41.634 65.2809 41.41V40.372ZM61.8849 37.702C62.5929 37.054 63.4449 36.73 64.4409 36.73C64.8009 36.73 65.1229 36.79 65.4069 36.91C65.6909 37.026 65.9309 37.19 66.1269 37.402C66.3229 37.61 66.4709 37.86 66.5709 38.152C66.6749 38.444 66.7269 38.764 66.7269 39.112V43H66.0549C65.9149 43 65.8069 42.98 65.7309 42.94C65.6549 42.896 65.5949 42.81 65.5509 42.682L65.4189 42.238C65.2629 42.378 65.1109 42.502 64.9629 42.61C64.8149 42.714 64.6609 42.802 64.5009 42.874C64.3409 42.946 64.1689 43 63.9849 43.036C63.8049 43.076 63.6049 43.096 63.3849 43.096C63.1249 43.096 62.8849 43.062 62.6649 42.994C62.4449 42.922 62.2549 42.816 62.0949 42.676C61.9349 42.536 61.8109 42.362 61.7229 42.154C61.6349 41.946 61.5909 41.704 61.5909 41.428C61.5909 41.272 61.6169 41.118 61.6689 40.966C61.7209 40.81 61.8049 40.662 61.9209 40.522C62.0409 40.382 62.1949 40.25 62.3829 40.126C62.5709 40.002 62.8009 39.894 63.0729 39.802C63.3489 39.71 63.6689 39.636 64.0329 39.58C64.3969 39.52 64.8129 39.484 65.2809 39.472V39.112C65.2809 38.7 65.1929 38.396 65.0169 38.2C64.8409 38 64.5869 37.9 64.2549 37.9C64.0149 37.9 63.8149 37.928 63.6549 37.984C63.4989 38.04 63.3609 38.104 63.2409 38.176C63.1209 38.244 63.0109 38.306 62.9109 38.362C62.8149 38.418 62.7069 38.446 62.5869 38.446C62.4829 38.446 62.3949 38.42 62.3229 38.368C62.2509 38.312 62.1929 38.248 62.1489 38.176L61.8849 37.702ZM70.3726 39.772C70.5566 39.772 70.7166 39.748 70.8526 39.7C70.9886 39.648 71.1006 39.578 71.1886 39.49C71.2806 39.402 71.3486 39.296 71.3926 39.172C71.4406 39.048 71.4646 38.912 71.4646 38.764C71.4646 38.46 71.3726 38.22 71.1886 38.044C71.0086 37.864 70.7366 37.774 70.3726 37.774C70.0086 37.774 69.7346 37.864 69.5506 38.044C69.3706 38.22 69.2806 38.46 69.2806 38.764C69.2806 38.908 69.3026 39.042 69.3466 39.166C69.3946 39.29 69.4626 39.398 69.5506 39.49C69.6426 39.578 69.7566 39.648 69.8926 39.7C70.0326 39.748 70.1926 39.772 70.3726 39.772ZM72.0466 43.276C72.0466 43.156 72.0106 43.058 71.9386 42.982C71.8666 42.906 71.7686 42.848 71.6446 42.808C71.5206 42.764 71.3746 42.732 71.2066 42.712C71.0426 42.692 70.8666 42.678 70.6786 42.67C70.4946 42.658 70.3026 42.648 70.1026 42.64C69.9066 42.632 69.7146 42.616 69.5266 42.592C69.3626 42.684 69.2286 42.792 69.1246 42.916C69.0246 43.04 68.9746 43.184 68.9746 43.348C68.9746 43.456 69.0006 43.556 69.0526 43.648C69.1086 43.744 69.1946 43.826 69.3106 43.894C69.4306 43.962 69.5846 44.014 69.7726 44.05C69.9606 44.09 70.1906 44.11 70.4626 44.11C70.7386 44.11 70.9766 44.088 71.1766 44.044C71.3766 44.004 71.5406 43.946 71.6686 43.87C71.8006 43.798 71.8966 43.71 71.9566 43.606C72.0166 43.506 72.0466 43.396 72.0466 43.276ZM73.5226 37.054V37.606C73.5226 37.782 73.4166 37.89 73.2046 37.93L72.6526 38.032C72.7366 38.244 72.7786 38.476 72.7786 38.728C72.7786 39.032 72.7166 39.308 72.5926 39.556C72.4726 39.8 72.3046 40.008 72.0886 40.18C71.8726 40.352 71.6166 40.486 71.3206 40.582C71.0286 40.674 70.7126 40.72 70.3726 40.72C70.2526 40.72 70.1366 40.714 70.0246 40.702C69.9126 40.69 69.8026 40.674 69.6946 40.654C69.5026 40.77 69.4066 40.9 69.4066 41.044C69.4066 41.168 69.4626 41.26 69.5746 41.32C69.6906 41.376 69.8426 41.416 70.0306 41.44C70.2186 41.464 70.4326 41.48 70.6726 41.488C70.9126 41.492 71.1586 41.504 71.4106 41.524C71.6626 41.544 71.9086 41.58 72.1486 41.632C72.3886 41.68 72.6026 41.758 72.7906 41.866C72.9786 41.974 73.1286 42.122 73.2406 42.31C73.3566 42.494 73.4146 42.732 73.4146 43.024C73.4146 43.296 73.3466 43.56 73.2106 43.816C73.0786 44.072 72.8846 44.3 72.6286 44.5C72.3766 44.7 72.0646 44.86 71.6926 44.98C71.3246 45.104 70.9046 45.166 70.4326 45.166C69.9686 45.166 69.5646 45.12 69.2206 45.028C68.8766 44.94 68.5906 44.82 68.3626 44.668C68.1346 44.52 67.9646 44.348 67.8526 44.152C67.7406 43.956 67.6846 43.752 67.6846 43.54C67.6846 43.252 67.7706 43.012 67.9426 42.82C68.1186 42.624 68.3586 42.468 68.6626 42.352C68.4986 42.268 68.3686 42.156 68.2726 42.016C68.1766 41.876 68.1286 41.692 68.1286 41.464C68.1286 41.372 68.1446 41.278 68.1766 41.182C68.2126 41.082 68.2626 40.984 68.3266 40.888C68.3946 40.792 68.4786 40.702 68.5786 40.618C68.6786 40.53 68.7966 40.452 68.9326 40.384C68.6206 40.216 68.3746 39.992 68.1946 39.712C68.0186 39.432 67.9306 39.104 67.9306 38.728C67.9306 38.424 67.9906 38.15 68.1106 37.906C68.2346 37.658 68.4046 37.448 68.6206 37.276C68.8406 37.1 69.0986 36.966 69.3946 36.874C69.6946 36.782 70.0206 36.736 70.3726 36.736C70.6366 36.736 70.8846 36.764 71.1166 36.82C71.3486 36.872 71.5606 36.95 71.7526 37.054H73.5226ZM77.081 36.748C77.537 36.748 77.951 36.822 78.323 36.97C78.699 37.118 79.019 37.328 79.283 37.6C79.551 37.872 79.757 38.204 79.901 38.596C80.045 38.988 80.117 39.426 80.117 39.91C80.117 40.398 80.045 40.838 79.901 41.23C79.757 41.622 79.551 41.956 79.283 42.232C79.019 42.508 78.699 42.72 78.323 42.868C77.951 43.016 77.537 43.09 77.081 43.09C76.621 43.09 76.203 43.016 75.827 42.868C75.451 42.72 75.129 42.508 74.861 42.232C74.597 41.956 74.391 41.622 74.243 41.23C74.099 40.838 74.027 40.398 74.027 39.91C74.027 39.426 74.099 38.988 74.243 38.596C74.391 38.204 74.597 37.872 74.861 37.6C75.129 37.328 75.451 37.118 75.827 36.97C76.203 36.822 76.621 36.748 77.081 36.748ZM77.081 41.95C77.593 41.95 77.971 41.778 78.215 41.434C78.463 41.09 78.587 40.586 78.587 39.922C78.587 39.258 78.463 38.752 78.215 38.404C77.971 38.056 77.593 37.882 77.081 37.882C76.561 37.882 76.175 38.058 75.923 38.41C75.675 38.758 75.551 39.262 75.551 39.922C75.551 40.582 75.675 41.086 75.923 41.434C76.175 41.778 76.561 41.95 77.081 41.95ZM83.4508 39.772C83.6348 39.772 83.7948 39.748 83.9308 39.7C84.0668 39.648 84.1788 39.578 84.2668 39.49C84.3588 39.402 84.4268 39.296 84.4708 39.172C84.5188 39.048 84.5428 38.912 84.5428 38.764C84.5428 38.46 84.4508 38.22 84.2668 38.044C84.0868 37.864 83.8148 37.774 83.4508 37.774C83.0868 37.774 82.8128 37.864 82.6288 38.044C82.4488 38.22 82.3588 38.46 82.3588 38.764C82.3588 38.908 82.3808 39.042 82.4248 39.166C82.4728 39.29 82.5408 39.398 82.6288 39.49C82.7208 39.578 82.8348 39.648 82.9708 39.7C83.1108 39.748 83.2708 39.772 83.4508 39.772ZM85.1248 43.276C85.1248 43.156 85.0888 43.058 85.0168 42.982C84.9448 42.906 84.8468 42.848 84.7228 42.808C84.5988 42.764 84.4528 42.732 84.2848 42.712C84.1208 42.692 83.9448 42.678 83.7568 42.67C83.5728 42.658 83.3808 42.648 83.1808 42.64C82.9848 42.632 82.7928 42.616 82.6048 42.592C82.4408 42.684 82.3068 42.792 82.2028 42.916C82.1028 43.04 82.0527 43.184 82.0527 43.348C82.0527 43.456 82.0788 43.556 82.1308 43.648C82.1868 43.744 82.2728 43.826 82.3888 43.894C82.5088 43.962 82.6628 44.014 82.8508 44.05C83.0388 44.09 83.2688 44.11 83.5408 44.11C83.8168 44.11 84.0548 44.088 84.2548 44.044C84.4548 44.004 84.6188 43.946 84.7468 43.87C84.8788 43.798 84.9748 43.71 85.0348 43.606C85.0948 43.506 85.1248 43.396 85.1248 43.276ZM86.6008 37.054V37.606C86.6008 37.782 86.4948 37.89 86.2828 37.93L85.7308 38.032C85.8148 38.244 85.8568 38.476 85.8568 38.728C85.8568 39.032 85.7948 39.308 85.6708 39.556C85.5508 39.8 85.3828 40.008 85.1668 40.18C84.9508 40.352 84.6948 40.486 84.3988 40.582C84.1068 40.674 83.7908 40.72 83.4508 40.72C83.3308 40.72 83.2148 40.714 83.1028 40.702C82.9908 40.69 82.8808 40.674 82.7728 40.654C82.5808 40.77 82.4848 40.9 82.4848 41.044C82.4848 41.168 82.5408 41.26 82.6528 41.32C82.7688 41.376 82.9208 41.416 83.1088 41.44C83.2968 41.464 83.5108 41.48 83.7508 41.488C83.9908 41.492 84.2368 41.504 84.4888 41.524C84.7408 41.544 84.9868 41.58 85.2268 41.632C85.4668 41.68 85.6808 41.758 85.8688 41.866C86.0568 41.974 86.2068 42.122 86.3188 42.31C86.4348 42.494 86.4928 42.732 86.4928 43.024C86.4928 43.296 86.4248 43.56 86.2888 43.816C86.1568 44.072 85.9628 44.3 85.7068 44.5C85.4548 44.7 85.1428 44.86 84.7708 44.98C84.4028 45.104 83.9828 45.166 83.5108 45.166C83.0468 45.166 82.6428 45.12 82.2988 45.028C81.9548 44.94 81.6688 44.82 81.4408 44.668C81.2128 44.52 81.0428 44.348 80.9308 44.152C80.8188 43.956 80.7628 43.752 80.7628 43.54C80.7628 43.252 80.8488 43.012 81.0208 42.82C81.1968 42.624 81.4368 42.468 81.7408 42.352C81.5768 42.268 81.4468 42.156 81.3507 42.016C81.2548 41.876 81.2068 41.692 81.2068 41.464C81.2068 41.372 81.2228 41.278 81.2548 41.182C81.2908 41.082 81.3408 40.984 81.4048 40.888C81.4728 40.792 81.5568 40.702 81.6568 40.618C81.7568 40.53 81.8748 40.452 82.0107 40.384C81.6988 40.216 81.4528 39.992 81.2728 39.712C81.0968 39.432 81.0088 39.104 81.0088 38.728C81.0088 38.424 81.0688 38.15 81.1888 37.906C81.3128 37.658 81.4828 37.448 81.6988 37.276C81.9188 37.1 82.1768 36.966 82.4728 36.874C82.7728 36.782 83.0988 36.736 83.4508 36.736C83.7148 36.736 83.9628 36.764 84.1948 36.82C84.4268 36.872 84.6388 36.95 84.8308 37.054H86.6008ZM89.0766 36.844V43H87.5886V36.844H89.0766ZM89.2806 35.05C89.2806 35.178 89.2546 35.298 89.2026 35.41C89.1506 35.522 89.0806 35.62 88.9926 35.704C88.9086 35.788 88.8086 35.856 88.6926 35.908C88.5766 35.956 88.4526 35.98 88.3206 35.98C88.1926 35.98 88.0706 35.956 87.9546 35.908C87.8426 35.856 87.7446 35.788 87.6606 35.704C87.5766 35.62 87.5086 35.522 87.4566 35.41C87.4086 35.298 87.3846 35.178 87.3846 35.05C87.3846 34.918 87.4086 34.794 87.4566 34.678C87.5086 34.562 87.5766 34.462 87.6606 34.378C87.7446 34.294 87.8426 34.228 87.9546 34.18C88.0706 34.128 88.1926 34.102 88.3206 34.102C88.4526 34.102 88.5766 34.128 88.6926 34.18C88.8086 34.228 88.9086 34.294 88.9926 34.378C89.0806 34.462 89.1506 34.562 89.2026 34.678C89.2546 34.794 89.2806 34.918 89.2806 35.05ZM94.9975 38.146C94.9535 38.202 94.9095 38.246 94.8655 38.278C94.8255 38.31 94.7655 38.326 94.6855 38.326C94.6095 38.326 94.5355 38.304 94.4635 38.26C94.3915 38.212 94.3055 38.16 94.2055 38.104C94.1055 38.044 93.9855 37.992 93.8455 37.948C93.7095 37.9 93.5395 37.876 93.3355 37.876C93.0755 37.876 92.8475 37.924 92.6515 38.02C92.4555 38.112 92.2915 38.246 92.1595 38.422C92.0315 38.598 91.9355 38.812 91.8715 39.064C91.8075 39.312 91.7755 39.594 91.7755 39.91C91.7755 40.238 91.8095 40.53 91.8775 40.786C91.9495 41.042 92.0515 41.258 92.1835 41.434C92.3155 41.606 92.4755 41.738 92.6635 41.83C92.8515 41.918 93.0635 41.962 93.2995 41.962C93.5355 41.962 93.7255 41.934 93.8695 41.878C94.0175 41.818 94.1415 41.754 94.2415 41.686C94.3415 41.614 94.4275 41.55 94.4995 41.494C94.5755 41.434 94.6595 41.404 94.7515 41.404C94.8715 41.404 94.9615 41.45 95.0215 41.542L95.4475 42.082C95.2835 42.274 95.1055 42.436 94.9135 42.568C94.7215 42.696 94.5215 42.8 94.3135 42.88C94.1095 42.956 93.8975 43.01 93.6775 43.042C93.4615 43.074 93.2455 43.09 93.0295 43.09C92.6495 43.09 92.2915 43.02 91.9555 42.88C91.6195 42.736 91.3255 42.528 91.0735 42.256C90.8215 41.984 90.6215 41.652 90.4735 41.26C90.3295 40.864 90.2575 40.414 90.2575 39.91C90.2575 39.458 90.3215 39.04 90.4495 38.656C90.5815 38.268 90.7735 37.934 91.0255 37.654C91.2775 37.37 91.5895 37.148 91.9615 36.988C92.3335 36.828 92.7615 36.748 93.2455 36.748C93.7055 36.748 94.1075 36.822 94.4515 36.97C94.7995 37.118 95.1115 37.33 95.3875 37.606L94.9975 38.146ZM99.6285 40.372C99.2005 40.392 98.8405 40.43 98.5485 40.486C98.2565 40.538 98.0225 40.606 97.8465 40.69C97.6705 40.774 97.5445 40.872 97.4685 40.984C97.3925 41.096 97.3545 41.218 97.3545 41.35C97.3545 41.61 97.4305 41.796 97.5825 41.908C97.7385 42.02 97.9405 42.076 98.1885 42.076C98.4925 42.076 98.7545 42.022 98.9745 41.914C99.1985 41.802 99.4165 41.634 99.6285 41.41V40.372ZM96.2325 37.702C96.9405 37.054 97.7925 36.73 98.7885 36.73C99.1485 36.73 99.4705 36.79 99.7545 36.91C100.039 37.026 100.279 37.19 100.475 37.402C100.671 37.61 100.819 37.86 100.919 38.152C101.023 38.444 101.075 38.764 101.075 39.112V43H100.403C100.263 43 100.155 42.98 100.079 42.94C100.003 42.896 99.9425 42.81 99.8985 42.682L99.7665 42.238C99.6105 42.378 99.4585 42.502 99.3105 42.61C99.1625 42.714 99.0085 42.802 98.8485 42.874C98.6885 42.946 98.5165 43 98.3325 43.036C98.1525 43.076 97.9525 43.096 97.7325 43.096C97.4725 43.096 97.2325 43.062 97.0125 42.994C96.7925 42.922 96.6025 42.816 96.4425 42.676C96.2825 42.536 96.1585 42.362 96.0705 42.154C95.9825 41.946 95.9385 41.704 95.9385 41.428C95.9385 41.272 95.9645 41.118 96.0165 40.966C96.0685 40.81 96.1525 40.662 96.2685 40.522C96.3885 40.382 96.5425 40.25 96.7305 40.126C96.9185 40.002 97.1485 39.894 97.4205 39.802C97.6965 39.71 98.0165 39.636 98.3805 39.58C98.7445 39.52 99.1605 39.484 99.6285 39.472V39.112C99.6285 38.7 99.5405 38.396 99.3645 38.2C99.1885 38 98.9345 37.9 98.6025 37.9C98.3625 37.9 98.1625 37.928 98.0025 37.984C97.8465 38.04 97.7085 38.104 97.5885 38.176C97.4685 38.244 97.3585 38.306 97.2585 38.362C97.1625 38.418 97.0545 38.446 96.9345 38.446C96.8305 38.446 96.7425 38.42 96.6705 38.368C96.5985 38.312 96.5405 38.248 96.4965 38.176L96.2325 37.702ZM103.97 34.084V43H102.488V34.084H103.97ZM109.847 41.404C110.015 41.608 110.197 41.752 110.393 41.836C110.593 41.92 110.809 41.962 111.041 41.962C111.265 41.962 111.467 41.92 111.647 41.836C111.827 41.752 111.979 41.624 112.103 41.452C112.231 41.28 112.329 41.064 112.397 40.804C112.465 40.54 112.499 40.23 112.499 39.874C112.499 39.514 112.469 39.21 112.409 38.962C112.353 38.71 112.271 38.506 112.163 38.35C112.055 38.194 111.923 38.08 111.767 38.008C111.615 37.936 111.441 37.9 111.245 37.9C110.937 37.9 110.675 37.966 110.459 38.098C110.243 38.226 110.039 38.408 109.847 38.644V41.404ZM109.769 37.684C110.021 37.4 110.307 37.17 110.627 36.994C110.947 36.818 111.323 36.73 111.755 36.73C112.091 36.73 112.397 36.8 112.673 36.94C112.953 37.08 113.193 37.284 113.393 37.552C113.597 37.816 113.753 38.144 113.861 38.536C113.973 38.924 114.029 39.37 114.029 39.874C114.029 40.334 113.967 40.76 113.843 41.152C113.719 41.544 113.541 41.884 113.309 42.172C113.081 42.46 112.803 42.686 112.475 42.85C112.151 43.01 111.787 43.09 111.383 43.09C111.039 43.09 110.745 43.038 110.501 42.934C110.257 42.826 110.039 42.678 109.847 42.49V45.01H108.365V36.844H109.271C109.463 36.844 109.589 36.934 109.649 37.114L109.769 37.684ZM119.151 39.214C119.151 39.022 119.123 38.842 119.067 38.674C119.015 38.502 118.935 38.352 118.827 38.224C118.719 38.096 118.581 37.996 118.413 37.924C118.249 37.848 118.057 37.81 117.837 37.81C117.409 37.81 117.071 37.932 116.823 38.176C116.579 38.42 116.423 38.766 116.355 39.214H119.151ZM116.325 40.108C116.349 40.424 116.405 40.698 116.493 40.93C116.581 41.158 116.697 41.348 116.841 41.5C116.985 41.648 117.155 41.76 117.351 41.836C117.551 41.908 117.771 41.944 118.011 41.944C118.251 41.944 118.457 41.916 118.629 41.86C118.805 41.804 118.957 41.742 119.085 41.674C119.217 41.606 119.331 41.544 119.427 41.488C119.527 41.432 119.623 41.404 119.715 41.404C119.839 41.404 119.931 41.45 119.991 41.542L120.417 42.082C120.253 42.274 120.069 42.436 119.865 42.568C119.661 42.696 119.447 42.8 119.223 42.88C119.003 42.956 118.777 43.01 118.545 43.042C118.317 43.074 118.095 43.09 117.879 43.09C117.451 43.09 117.053 43.02 116.685 42.88C116.317 42.736 115.997 42.526 115.725 42.25C115.453 41.97 115.239 41.626 115.083 41.218C114.927 40.806 114.849 40.33 114.849 39.79C114.849 39.37 114.917 38.976 115.053 38.608C115.189 38.236 115.383 37.914 115.635 37.642C115.891 37.366 116.201 37.148 116.565 36.988C116.933 36.828 117.347 36.748 117.807 36.748C118.195 36.748 118.553 36.81 118.881 36.934C119.209 37.058 119.491 37.24 119.727 37.48C119.963 37.716 120.147 38.008 120.279 38.356C120.415 38.7 120.483 39.094 120.483 39.538C120.483 39.762 120.459 39.914 120.411 39.994C120.363 40.07 120.271 40.108 120.135 40.108H116.325ZM122.993 37.912C123.185 37.544 123.413 37.256 123.677 37.048C123.941 36.836 124.253 36.73 124.613 36.73C124.897 36.73 125.125 36.792 125.297 36.916L125.201 38.026C125.181 38.098 125.151 38.15 125.111 38.182C125.075 38.21 125.025 38.224 124.961 38.224C124.901 38.224 124.811 38.214 124.691 38.194C124.575 38.174 124.461 38.164 124.349 38.164C124.185 38.164 124.039 38.188 123.911 38.236C123.783 38.284 123.667 38.354 123.563 38.446C123.463 38.534 123.373 38.642 123.293 38.77C123.217 38.898 123.145 39.044 123.077 39.208V43H121.595V36.844H122.465C122.617 36.844 122.723 36.872 122.783 36.928C122.843 36.98 122.883 37.076 122.903 37.216L122.993 37.912ZM129.804 38.044C129.764 38.108 129.722 38.154 129.678 38.182C129.634 38.206 129.578 38.218 129.51 38.218C129.438 38.218 129.36 38.198 129.276 38.158C129.196 38.118 129.102 38.074 128.994 38.026C128.886 37.974 128.762 37.928 128.622 37.888C128.486 37.848 128.324 37.828 128.136 37.828C127.844 37.828 127.614 37.89 127.446 38.014C127.282 38.138 127.2 38.3 127.2 38.5C127.2 38.632 127.242 38.744 127.326 38.836C127.414 38.924 127.528 39.002 127.668 39.07C127.812 39.138 127.974 39.2 128.154 39.256C128.334 39.308 128.516 39.366 128.7 39.43C128.888 39.494 129.072 39.568 129.252 39.652C129.432 39.732 129.592 39.836 129.732 39.964C129.876 40.088 129.99 40.238 130.074 40.414C130.162 40.59 130.206 40.802 130.206 41.05C130.206 41.346 130.152 41.62 130.044 41.872C129.94 42.12 129.784 42.336 129.576 42.52C129.368 42.7 129.11 42.842 128.802 42.946C128.498 43.046 128.146 43.096 127.746 43.096C127.534 43.096 127.326 43.076 127.122 43.036C126.922 43 126.728 42.948 126.54 42.88C126.356 42.812 126.184 42.732 126.024 42.64C125.868 42.548 125.73 42.448 125.61 42.34L125.952 41.776C125.996 41.708 126.048 41.656 126.108 41.62C126.168 41.584 126.244 41.566 126.336 41.566C126.428 41.566 126.514 41.592 126.594 41.644C126.678 41.696 126.774 41.752 126.882 41.812C126.99 41.872 127.116 41.928 127.26 41.98C127.408 42.032 127.594 42.058 127.818 42.058C127.994 42.058 128.144 42.038 128.268 41.998C128.396 41.954 128.5 41.898 128.58 41.83C128.664 41.762 128.724 41.684 128.76 41.596C128.8 41.504 128.82 41.41 128.82 41.314C128.82 41.17 128.776 41.052 128.688 40.96C128.604 40.868 128.49 40.788 128.346 40.72C128.206 40.652 128.044 40.592 127.86 40.54C127.68 40.484 127.494 40.424 127.302 40.36C127.114 40.296 126.928 40.222 126.744 40.138C126.564 40.05 126.402 39.94 126.258 39.808C126.118 39.676 126.004 39.514 125.916 39.322C125.832 39.13 125.79 38.898 125.79 38.626C125.79 38.374 125.84 38.134 125.94 37.906C126.04 37.678 126.186 37.48 126.378 37.312C126.574 37.14 126.816 37.004 127.104 36.904C127.396 36.8 127.732 36.748 128.112 36.748C128.536 36.748 128.922 36.818 129.27 36.958C129.618 37.098 129.908 37.282 130.14 37.51L129.804 38.044ZM132.804 41.404C132.972 41.608 133.154 41.752 133.35 41.836C133.55 41.92 133.766 41.962 133.998 41.962C134.222 41.962 134.424 41.92 134.604 41.836C134.784 41.752 134.936 41.624 135.06 41.452C135.188 41.28 135.286 41.064 135.354 40.804C135.422 40.54 135.456 40.23 135.456 39.874C135.456 39.514 135.426 39.21 135.366 38.962C135.31 38.71 135.228 38.506 135.12 38.35C135.012 38.194 134.88 38.08 134.724 38.008C134.572 37.936 134.398 37.9 134.202 37.9C133.894 37.9 133.632 37.966 133.416 38.098C133.2 38.226 132.996 38.408 132.804 38.644V41.404ZM132.726 37.684C132.978 37.4 133.264 37.17 133.584 36.994C133.904 36.818 134.28 36.73 134.712 36.73C135.048 36.73 135.354 36.8 135.63 36.94C135.91 37.08 136.15 37.284 136.35 37.552C136.554 37.816 136.71 38.144 136.818 38.536C136.93 38.924 136.986 39.37 136.986 39.874C136.986 40.334 136.924 40.76 136.8 41.152C136.676 41.544 136.498 41.884 136.266 42.172C136.038 42.46 135.76 42.686 135.432 42.85C135.108 43.01 134.744 43.09 134.34 43.09C133.996 43.09 133.702 43.038 133.458 42.934C133.214 42.826 132.996 42.678 132.804 42.49V45.01H131.322V36.844H132.228C132.42 36.844 132.546 36.934 132.606 37.114L132.726 37.684ZM142.108 39.214C142.108 39.022 142.08 38.842 142.024 38.674C141.972 38.502 141.892 38.352 141.784 38.224C141.676 38.096 141.538 37.996 141.37 37.924C141.206 37.848 141.014 37.81 140.794 37.81C140.366 37.81 140.028 37.932 139.78 38.176C139.536 38.42 139.38 38.766 139.312 39.214H142.108ZM139.282 40.108C139.306 40.424 139.362 40.698 139.45 40.93C139.538 41.158 139.654 41.348 139.798 41.5C139.942 41.648 140.112 41.76 140.308 41.836C140.508 41.908 140.728 41.944 140.968 41.944C141.208 41.944 141.414 41.916 141.586 41.86C141.762 41.804 141.914 41.742 142.042 41.674C142.174 41.606 142.288 41.544 142.384 41.488C142.484 41.432 142.58 41.404 142.672 41.404C142.796 41.404 142.888 41.45 142.948 41.542L143.374 42.082C143.21 42.274 143.026 42.436 142.822 42.568C142.618 42.696 142.404 42.8 142.18 42.88C141.96 42.956 141.734 43.01 141.502 43.042C141.274 43.074 141.052 43.09 140.836 43.09C140.408 43.09 140.01 43.02 139.642 42.88C139.274 42.736 138.954 42.526 138.682 42.25C138.41 41.97 138.196 41.626 138.04 41.218C137.884 40.806 137.806 40.33 137.806 39.79C137.806 39.37 137.874 38.976 138.01 38.608C138.146 38.236 138.34 37.914 138.592 37.642C138.848 37.366 139.158 37.148 139.522 36.988C139.89 36.828 140.304 36.748 140.764 36.748C141.152 36.748 141.51 36.81 141.838 36.934C142.166 37.058 142.448 37.24 142.684 37.48C142.92 37.716 143.104 38.008 143.236 38.356C143.372 38.7 143.44 39.094 143.44 39.538C143.44 39.762 143.416 39.914 143.368 39.994C143.32 40.07 143.228 40.108 143.092 40.108H139.282ZM148.962 38.146C148.918 38.202 148.874 38.246 148.83 38.278C148.79 38.31 148.73 38.326 148.65 38.326C148.574 38.326 148.5 38.304 148.428 38.26C148.356 38.212 148.27 38.16 148.17 38.104C148.07 38.044 147.95 37.992 147.81 37.948C147.674 37.9 147.504 37.876 147.3 37.876C147.04 37.876 146.812 37.924 146.616 38.02C146.42 38.112 146.256 38.246 146.124 38.422C145.996 38.598 145.9 38.812 145.836 39.064C145.772 39.312 145.74 39.594 145.74 39.91C145.74 40.238 145.774 40.53 145.842 40.786C145.914 41.042 146.016 41.258 146.148 41.434C146.28 41.606 146.44 41.738 146.628 41.83C146.816 41.918 147.028 41.962 147.264 41.962C147.5 41.962 147.69 41.934 147.834 41.878C147.982 41.818 148.106 41.754 148.206 41.686C148.306 41.614 148.392 41.55 148.464 41.494C148.54 41.434 148.624 41.404 148.716 41.404C148.836 41.404 148.926 41.45 148.986 41.542L149.412 42.082C149.248 42.274 149.07 42.436 148.878 42.568C148.686 42.696 148.486 42.8 148.278 42.88C148.074 42.956 147.862 43.01 147.642 43.042C147.426 43.074 147.21 43.09 146.994 43.09C146.614 43.09 146.256 43.02 145.92 42.88C145.584 42.736 145.29 42.528 145.038 42.256C144.786 41.984 144.586 41.652 144.438 41.26C144.294 40.864 144.222 40.414 144.222 39.91C144.222 39.458 144.286 39.04 144.414 38.656C144.546 38.268 144.738 37.934 144.99 37.654C145.242 37.37 145.554 37.148 145.926 36.988C146.298 36.828 146.726 36.748 147.21 36.748C147.67 36.748 148.072 36.822 148.416 36.97C148.764 37.118 149.076 37.33 149.352 37.606L148.962 38.146ZM156.551 43H155.069V37.954H152.213V41.29C152.213 41.482 152.259 41.632 152.351 41.74C152.447 41.848 152.577 41.902 152.741 41.902C152.833 41.902 152.909 41.892 152.969 41.872C153.033 41.848 153.087 41.824 153.131 41.8C153.179 41.776 153.221 41.754 153.257 41.734C153.293 41.71 153.329 41.698 153.365 41.698C153.409 41.698 153.445 41.71 153.473 41.734C153.501 41.754 153.531 41.786 153.563 41.83L154.007 42.55C153.791 42.73 153.543 42.866 153.263 42.958C152.983 43.05 152.693 43.096 152.393 43.096C151.857 43.096 151.445 42.946 151.157 42.646C150.873 42.342 150.731 41.924 150.731 41.392V37.954H150.101C150.021 37.954 149.953 37.928 149.897 37.876C149.841 37.824 149.813 37.746 149.813 37.642V37.054L150.803 36.886L151.115 35.212C151.135 35.132 151.173 35.07 151.229 35.026C151.285 34.982 151.357 34.96 151.445 34.96H152.213V36.898H156.551V43ZM156.809 35.026C156.809 35.154 156.783 35.276 156.731 35.392C156.679 35.504 156.609 35.602 156.521 35.686C156.437 35.77 156.335 35.838 156.215 35.89C156.099 35.938 155.975 35.962 155.843 35.962C155.715 35.962 155.595 35.938 155.483 35.89C155.371 35.838 155.273 35.77 155.189 35.686C155.105 35.602 155.037 35.504 154.985 35.392C154.937 35.276 154.913 35.154 154.913 35.026C154.913 34.894 154.937 34.772 154.985 34.66C155.037 34.544 155.105 34.444 155.189 34.36C155.273 34.272 155.371 34.204 155.483 34.156C155.595 34.104 155.715 34.078 155.843 34.078C155.975 34.078 156.099 34.104 156.215 34.156C156.335 34.204 156.437 34.272 156.521 34.36C156.609 34.444 156.679 34.544 156.731 34.66C156.783 34.772 156.809 34.894 156.809 35.026ZM163.614 36.844L161.172 43H159.828L157.386 36.844H158.61C158.722 36.844 158.814 36.87 158.886 36.922C158.962 36.974 159.012 37.04 159.036 37.12L160.224 40.408C160.288 40.6 160.344 40.788 160.392 40.972C160.44 41.156 160.482 41.34 160.518 41.524C160.558 41.34 160.602 41.156 160.65 40.972C160.698 40.788 160.756 40.6 160.824 40.408L162.036 37.12C162.064 37.04 162.114 36.974 162.186 36.922C162.258 36.87 162.344 36.844 162.444 36.844H163.614ZM168.182 39.214C168.182 39.022 168.154 38.842 168.098 38.674C168.046 38.502 167.966 38.352 167.858 38.224C167.75 38.096 167.612 37.996 167.444 37.924C167.28 37.848 167.088 37.81 166.868 37.81C166.44 37.81 166.102 37.932 165.854 38.176C165.61 38.42 165.454 38.766 165.386 39.214H168.182ZM165.356 40.108C165.38 40.424 165.436 40.698 165.524 40.93C165.612 41.158 165.728 41.348 165.872 41.5C166.016 41.648 166.186 41.76 166.382 41.836C166.582 41.908 166.802 41.944 167.042 41.944C167.282 41.944 167.488 41.916 167.66 41.86C167.836 41.804 167.988 41.742 168.116 41.674C168.248 41.606 168.362 41.544 168.458 41.488C168.558 41.432 168.654 41.404 168.746 41.404C168.87 41.404 168.962 41.45 169.022 41.542L169.448 42.082C169.284 42.274 169.1 42.436 168.896 42.568C168.692 42.696 168.478 42.8 168.254 42.88C168.034 42.956 167.808 43.01 167.576 43.042C167.348 43.074 167.126 43.09 166.91 43.09C166.482 43.09 166.084 43.02 165.716 42.88C165.348 42.736 165.028 42.526 164.756 42.25C164.484 41.97 164.27 41.626 164.114 41.218C163.958 40.806 163.88 40.33 163.88 39.79C163.88 39.37 163.948 38.976 164.084 38.608C164.22 38.236 164.414 37.914 164.666 37.642C164.922 37.366 165.232 37.148 165.596 36.988C165.964 36.828 166.378 36.748 166.838 36.748C167.226 36.748 167.584 36.81 167.912 36.934C168.24 37.058 168.522 37.24 168.758 37.48C168.994 37.716 169.178 38.008 169.31 38.356C169.446 38.7 169.514 39.094 169.514 39.538C169.514 39.762 169.49 39.914 169.442 39.994C169.394 40.07 169.302 40.108 169.166 40.108H165.356ZM174.383 38.044C174.343 38.108 174.301 38.154 174.257 38.182C174.213 38.206 174.157 38.218 174.089 38.218C174.017 38.218 173.939 38.198 173.855 38.158C173.775 38.118 173.681 38.074 173.573 38.026C173.465 37.974 173.341 37.928 173.201 37.888C173.065 37.848 172.903 37.828 172.715 37.828C172.423 37.828 172.193 37.89 172.025 38.014C171.861 38.138 171.779 38.3 171.779 38.5C171.779 38.632 171.821 38.744 171.905 38.836C171.993 38.924 172.107 39.002 172.247 39.07C172.391 39.138 172.553 39.2 172.733 39.256C172.913 39.308 173.095 39.366 173.279 39.43C173.467 39.494 173.651 39.568 173.831 39.652C174.011 39.732 174.171 39.836 174.311 39.964C174.455 40.088 174.569 40.238 174.653 40.414C174.741 40.59 174.785 40.802 174.785 41.05C174.785 41.346 174.731 41.62 174.623 41.872C174.519 42.12 174.363 42.336 174.155 42.52C173.947 42.7 173.689 42.842 173.381 42.946C173.077 43.046 172.725 43.096 172.325 43.096C172.113 43.096 171.905 43.076 171.701 43.036C171.501 43 171.307 42.948 171.119 42.88C170.935 42.812 170.763 42.732 170.603 42.64C170.447 42.548 170.309 42.448 170.189 42.34L170.531 41.776C170.575 41.708 170.627 41.656 170.687 41.62C170.747 41.584 170.823 41.566 170.915 41.566C171.007 41.566 171.093 41.592 171.173 41.644C171.257 41.696 171.353 41.752 171.461 41.812C171.569 41.872 171.695 41.928 171.839 41.98C171.987 42.032 172.173 42.058 172.397 42.058C172.573 42.058 172.723 42.038 172.847 41.998C172.975 41.954 173.079 41.898 173.159 41.83C173.243 41.762 173.303 41.684 173.339 41.596C173.379 41.504 173.399 41.41 173.399 41.314C173.399 41.17 173.355 41.052 173.267 40.96C173.183 40.868 173.069 40.788 172.925 40.72C172.785 40.652 172.623 40.592 172.439 40.54C172.259 40.484 172.073 40.424 171.881 40.36C171.693 40.296 171.507 40.222 171.323 40.138C171.143 40.05 170.981 39.94 170.837 39.808C170.697 39.676 170.583 39.514 170.495 39.322C170.411 39.13 170.369 38.898 170.369 38.626C170.369 38.374 170.419 38.134 170.519 37.906C170.619 37.678 170.765 37.48 170.957 37.312C171.153 37.14 171.395 37.004 171.683 36.904C171.975 36.8 172.311 36.748 172.691 36.748C173.115 36.748 173.501 36.818 173.849 36.958C174.197 37.098 174.487 37.282 174.719 37.51L174.383 38.044ZM182.07 40.372C181.642 40.392 181.282 40.43 180.99 40.486C180.698 40.538 180.464 40.606 180.288 40.69C180.112 40.774 179.986 40.872 179.91 40.984C179.834 41.096 179.796 41.218 179.796 41.35C179.796 41.61 179.872 41.796 180.024 41.908C180.18 42.02 180.382 42.076 180.63 42.076C180.934 42.076 181.196 42.022 181.416 41.914C181.64 41.802 181.858 41.634 182.07 41.41V40.372ZM178.674 37.702C179.382 37.054 180.234 36.73 181.23 36.73C181.59 36.73 181.912 36.79 182.196 36.91C182.48 37.026 182.72 37.19 182.916 37.402C183.112 37.61 183.26 37.86 183.36 38.152C183.464 38.444 183.516 38.764 183.516 39.112V43H182.844C182.704 43 182.596 42.98 182.52 42.94C182.444 42.896 182.384 42.81 182.34 42.682L182.208 42.238C182.052 42.378 181.9 42.502 181.752 42.61C181.604 42.714 181.45 42.802 181.29 42.874C181.13 42.946 180.958 43 180.774 43.036C180.594 43.076 180.394 43.096 180.174 43.096C179.914 43.096 179.674 43.062 179.454 42.994C179.234 42.922 179.044 42.816 178.884 42.676C178.724 42.536 178.6 42.362 178.512 42.154C178.424 41.946 178.38 41.704 178.38 41.428C178.38 41.272 178.406 41.118 178.458 40.966C178.51 40.81 178.594 40.662 178.71 40.522C178.83 40.382 178.984 40.25 179.172 40.126C179.36 40.002 179.59 39.894 179.862 39.802C180.138 39.71 180.458 39.636 180.822 39.58C181.186 39.52 181.602 39.484 182.07 39.472V39.112C182.07 38.7 181.982 38.396 181.806 38.2C181.63 38 181.376 37.9 181.044 37.9C180.804 37.9 180.604 37.928 180.444 37.984C180.288 38.04 180.15 38.104 180.03 38.176C179.91 38.244 179.8 38.306 179.7 38.362C179.604 38.418 179.496 38.446 179.376 38.446C179.272 38.446 179.184 38.42 179.112 38.368C179.04 38.312 178.982 38.248 178.938 38.176L178.674 37.702ZM186.394 41.404C186.562 41.608 186.744 41.752 186.94 41.836C187.14 41.92 187.356 41.962 187.588 41.962C187.812 41.962 188.014 41.92 188.194 41.836C188.374 41.752 188.526 41.624 188.65 41.452C188.778 41.28 188.876 41.064 188.944 40.804C189.012 40.54 189.046 40.23 189.046 39.874C189.046 39.514 189.016 39.21 188.956 38.962C188.9 38.71 188.818 38.506 188.71 38.35C188.602 38.194 188.47 38.08 188.314 38.008C188.162 37.936 187.988 37.9 187.792 37.9C187.484 37.9 187.222 37.966 187.006 38.098C186.79 38.226 186.586 38.408 186.394 38.644V41.404ZM186.316 37.684C186.568 37.4 186.854 37.17 187.174 36.994C187.494 36.818 187.87 36.73 188.302 36.73C188.638 36.73 188.944 36.8 189.22 36.94C189.5 37.08 189.74 37.284 189.94 37.552C190.144 37.816 190.3 38.144 190.408 38.536C190.52 38.924 190.576 39.37 190.576 39.874C190.576 40.334 190.514 40.76 190.39 41.152C190.266 41.544 190.088 41.884 189.856 42.172C189.628 42.46 189.35 42.686 189.022 42.85C188.698 43.01 188.334 43.09 187.93 43.09C187.586 43.09 187.292 43.038 187.048 42.934C186.804 42.826 186.586 42.678 186.394 42.49V45.01H184.912V36.844H185.818C186.01 36.844 186.136 36.934 186.196 37.114L186.316 37.684ZM193.214 41.404C193.382 41.608 193.564 41.752 193.76 41.836C193.96 41.92 194.176 41.962 194.408 41.962C194.632 41.962 194.834 41.92 195.014 41.836C195.194 41.752 195.346 41.624 195.47 41.452C195.598 41.28 195.696 41.064 195.764 40.804C195.832 40.54 195.866 40.23 195.866 39.874C195.866 39.514 195.836 39.21 195.776 38.962C195.72 38.71 195.638 38.506 195.53 38.35C195.422 38.194 195.29 38.08 195.134 38.008C194.982 37.936 194.808 37.9 194.612 37.9C194.304 37.9 194.042 37.966 193.826 38.098C193.61 38.226 193.406 38.408 193.214 38.644V41.404ZM193.136 37.684C193.388 37.4 193.674 37.17 193.994 36.994C194.314 36.818 194.69 36.73 195.122 36.73C195.458 36.73 195.764 36.8 196.04 36.94C196.32 37.08 196.56 37.284 196.76 37.552C196.964 37.816 197.12 38.144 197.228 38.536C197.34 38.924 197.396 39.37 197.396 39.874C197.396 40.334 197.334 40.76 197.21 41.152C197.086 41.544 196.908 41.884 196.676 42.172C196.448 42.46 196.17 42.686 195.842 42.85C195.518 43.01 195.154 43.09 194.75 43.09C194.406 43.09 194.112 43.038 193.868 42.934C193.624 42.826 193.406 42.678 193.214 42.49V45.01H191.732V36.844H192.638C192.83 36.844 192.956 36.934 193.016 37.114L193.136 37.684ZM200.052 34.084V43H198.57V34.084H200.052ZM203.065 36.844V43H201.577V36.844H203.065ZM203.269 35.05C203.269 35.178 203.243 35.298 203.191 35.41C203.139 35.522 203.069 35.62 202.981 35.704C202.897 35.788 202.797 35.856 202.681 35.908C202.565 35.956 202.441 35.98 202.309 35.98C202.181 35.98 202.059 35.956 201.943 35.908C201.831 35.856 201.733 35.788 201.649 35.704C201.565 35.62 201.497 35.522 201.445 35.41C201.397 35.298 201.373 35.178 201.373 35.05C201.373 34.918 201.397 34.794 201.445 34.678C201.497 34.562 201.565 34.462 201.649 34.378C201.733 34.294 201.831 34.228 201.943 34.18C202.059 34.128 202.181 34.102 202.309 34.102C202.441 34.102 202.565 34.128 202.681 34.18C202.797 34.228 202.897 34.294 202.981 34.378C203.069 34.462 203.139 34.562 203.191 34.678C203.243 34.794 203.269 34.918 203.269 35.05ZM208.542 39.214C208.542 39.022 208.514 38.842 208.458 38.674C208.406 38.502 208.326 38.352 208.218 38.224C208.11 38.096 207.972 37.996 207.804 37.924C207.64 37.848 207.448 37.81 207.228 37.81C206.8 37.81 206.462 37.932 206.214 38.176C205.97 38.42 205.814 38.766 205.746 39.214H208.542ZM205.716 40.108C205.74 40.424 205.796 40.698 205.884 40.93C205.972 41.158 206.088 41.348 206.232 41.5C206.376 41.648 206.546 41.76 206.742 41.836C206.942 41.908 207.162 41.944 207.402 41.944C207.642 41.944 207.848 41.916 208.02 41.86C208.196 41.804 208.348 41.742 208.476 41.674C208.608 41.606 208.722 41.544 208.818 41.488C208.918 41.432 209.014 41.404 209.106 41.404C209.23 41.404 209.322 41.45 209.382 41.542L209.808 42.082C209.644 42.274 209.46 42.436 209.256 42.568C209.052 42.696 208.838 42.8 208.614 42.88C208.394 42.956 208.168 43.01 207.936 43.042C207.708 43.074 207.486 43.09 207.27 43.09C206.842 43.09 206.444 43.02 206.076 42.88C205.708 42.736 205.388 42.526 205.116 42.25C204.844 41.97 204.63 41.626 204.474 41.218C204.318 40.806 204.24 40.33 204.24 39.79C204.24 39.37 204.308 38.976 204.444 38.608C204.58 38.236 204.774 37.914 205.026 37.642C205.282 37.366 205.592 37.148 205.956 36.988C206.324 36.828 206.738 36.748 207.198 36.748C207.586 36.748 207.944 36.81 208.272 36.934C208.6 37.058 208.882 37.24 209.118 37.48C209.354 37.716 209.538 38.008 209.67 38.356C209.806 38.7 209.874 39.094 209.874 39.538C209.874 39.762 209.85 39.914 209.802 39.994C209.754 40.07 209.662 40.108 209.526 40.108H205.716ZM214.85 38.416C214.682 38.212 214.498 38.068 214.298 37.984C214.102 37.9 213.89 37.858 213.662 37.858C213.438 37.858 213.236 37.9 213.056 37.984C212.876 38.068 212.722 38.196 212.594 38.368C212.466 38.536 212.368 38.752 212.3 39.016C212.232 39.276 212.198 39.584 212.198 39.94C212.198 40.3 212.226 40.606 212.282 40.858C212.342 41.106 212.426 41.31 212.534 41.47C212.642 41.626 212.774 41.74 212.93 41.812C213.086 41.88 213.26 41.914 213.452 41.914C213.76 41.914 214.022 41.85 214.238 41.722C214.454 41.594 214.658 41.412 214.85 41.176V38.416ZM216.332 34.084V43H215.426C215.23 43 215.106 42.91 215.054 42.73L214.928 42.136C214.68 42.42 214.394 42.65 214.07 42.826C213.75 43.002 213.376 43.09 212.948 43.09C212.612 43.09 212.304 43.02 212.024 42.88C211.744 42.74 211.502 42.538 211.298 42.274C211.098 42.006 210.942 41.676 210.83 41.284C210.722 40.892 210.668 40.444 210.668 39.94C210.668 39.484 210.73 39.06 210.854 38.668C210.978 38.276 211.156 37.936 211.388 37.648C211.62 37.36 211.898 37.136 212.222 36.976C212.546 36.812 212.91 36.73 213.314 36.73C213.658 36.73 213.952 36.784 214.196 36.892C214.44 37 214.658 37.146 214.85 37.33V34.084H216.332ZM222.764 43.096C222.228 43.096 221.816 42.946 221.528 42.646C221.244 42.342 221.102 41.924 221.102 41.392V37.954H220.472C220.392 37.954 220.324 37.928 220.268 37.876C220.212 37.824 220.184 37.746 220.184 37.642V37.054L221.174 36.892L221.486 35.212C221.506 35.132 221.544 35.07 221.6 35.026C221.656 34.982 221.728 34.96 221.816 34.96H222.584V36.898H224.228V37.954H222.584V41.29C222.584 41.482 222.63 41.632 222.722 41.74C222.818 41.848 222.948 41.902 223.112 41.902C223.204 41.902 223.28 41.892 223.34 41.872C223.404 41.848 223.458 41.824 223.502 41.8C223.55 41.776 223.592 41.754 223.628 41.734C223.664 41.71 223.7 41.698 223.736 41.698C223.78 41.698 223.816 41.71 223.844 41.734C223.872 41.754 223.902 41.786 223.934 41.83L224.378 42.55C224.162 42.73 223.914 42.866 223.634 42.958C223.354 43.05 223.064 43.096 222.764 43.096ZM227.854 36.748C228.31 36.748 228.724 36.822 229.096 36.97C229.472 37.118 229.792 37.328 230.056 37.6C230.324 37.872 230.53 38.204 230.674 38.596C230.818 38.988 230.89 39.426 230.89 39.91C230.89 40.398 230.818 40.838 230.674 41.23C230.53 41.622 230.324 41.956 230.056 42.232C229.792 42.508 229.472 42.72 229.096 42.868C228.724 43.016 228.31 43.09 227.854 43.09C227.394 43.09 226.976 43.016 226.6 42.868C226.224 42.72 225.902 42.508 225.634 42.232C225.37 41.956 225.164 41.622 225.016 41.23C224.872 40.838 224.8 40.398 224.8 39.91C224.8 39.426 224.872 38.988 225.016 38.596C225.164 38.204 225.37 37.872 225.634 37.6C225.902 37.328 226.224 37.118 226.6 36.97C226.976 36.822 227.394 36.748 227.854 36.748ZM227.854 41.95C228.366 41.95 228.744 41.778 228.988 41.434C229.236 41.09 229.36 40.586 229.36 39.922C229.36 39.258 229.236 38.752 228.988 38.404C228.744 38.056 228.366 37.882 227.854 37.882C227.334 37.882 226.948 38.058 226.696 38.41C226.448 38.758 226.324 39.262 226.324 39.922C226.324 40.582 226.448 41.086 226.696 41.434C226.948 41.778 227.334 41.95 227.854 41.95ZM236.439 34.084V43H234.957V34.084H236.439ZM241.168 40.372C240.74 40.392 240.38 40.43 240.088 40.486C239.796 40.538 239.562 40.606 239.386 40.69C239.21 40.774 239.084 40.872 239.008 40.984C238.932 41.096 238.894 41.218 238.894 41.35C238.894 41.61 238.97 41.796 239.122 41.908C239.278 42.02 239.48 42.076 239.728 42.076C240.032 42.076 240.294 42.022 240.514 41.914C240.738 41.802 240.956 41.634 241.168 41.41V40.372ZM237.772 37.702C238.48 37.054 239.332 36.73 240.328 36.73C240.688 36.73 241.01 36.79 241.294 36.91C241.578 37.026 241.818 37.19 242.014 37.402C242.21 37.61 242.358 37.86 242.458 38.152C242.562 38.444 242.614 38.764 242.614 39.112V43H241.942C241.802 43 241.694 42.98 241.618 42.94C241.542 42.896 241.482 42.81 241.438 42.682L241.306 42.238C241.15 42.378 240.998 42.502 240.85 42.61C240.702 42.714 240.548 42.802 240.388 42.874C240.228 42.946 240.056 43 239.872 43.036C239.692 43.076 239.492 43.096 239.272 43.096C239.012 43.096 238.772 43.062 238.552 42.994C238.332 42.922 238.142 42.816 237.982 42.676C237.822 42.536 237.698 42.362 237.61 42.154C237.522 41.946 237.478 41.704 237.478 41.428C237.478 41.272 237.504 41.118 237.556 40.966C237.608 40.81 237.692 40.662 237.808 40.522C237.928 40.382 238.082 40.25 238.27 40.126C238.458 40.002 238.688 39.894 238.96 39.802C239.236 39.71 239.556 39.636 239.92 39.58C240.284 39.52 240.7 39.484 241.168 39.472V39.112C241.168 38.7 241.08 38.396 240.904 38.2C240.728 38 240.474 37.9 240.142 37.9C239.902 37.9 239.702 37.928 239.542 37.984C239.386 38.04 239.248 38.104 239.128 38.176C239.008 38.244 238.898 38.306 238.798 38.362C238.702 38.418 238.594 38.446 238.474 38.446C238.37 38.446 238.282 38.42 238.21 38.368C238.138 38.312 238.08 38.248 238.036 38.176L237.772 37.702ZM245.395 37.6C245.519 37.476 245.649 37.362 245.785 37.258C245.925 37.15 246.071 37.06 246.223 36.988C246.379 36.912 246.545 36.854 246.721 36.814C246.897 36.77 247.089 36.748 247.297 36.748C247.633 36.748 247.931 36.806 248.191 36.922C248.451 37.034 248.667 37.194 248.839 37.402C249.015 37.606 249.147 37.852 249.235 38.14C249.327 38.424 249.373 38.738 249.373 39.082V43H247.891V39.082C247.891 38.706 247.805 38.416 247.633 38.212C247.461 38.004 247.199 37.9 246.847 37.9C246.591 37.9 246.351 37.958 246.127 38.074C245.903 38.19 245.691 38.348 245.491 38.548V43H244.009V36.844H244.915C245.107 36.844 245.233 36.934 245.293 37.114L245.395 37.6ZM253.033 39.772C253.217 39.772 253.377 39.748 253.513 39.7C253.649 39.648 253.761 39.578 253.849 39.49C253.941 39.402 254.009 39.296 254.053 39.172C254.101 39.048 254.125 38.912 254.125 38.764C254.125 38.46 254.033 38.22 253.849 38.044C253.669 37.864 253.397 37.774 253.033 37.774C252.669 37.774 252.395 37.864 252.211 38.044C252.031 38.22 251.941 38.46 251.941 38.764C251.941 38.908 251.963 39.042 252.007 39.166C252.055 39.29 252.123 39.398 252.211 39.49C252.303 39.578 252.417 39.648 252.553 39.7C252.693 39.748 252.853 39.772 253.033 39.772ZM254.707 43.276C254.707 43.156 254.671 43.058 254.599 42.982C254.527 42.906 254.429 42.848 254.305 42.808C254.181 42.764 254.035 42.732 253.867 42.712C253.703 42.692 253.527 42.678 253.339 42.67C253.155 42.658 252.963 42.648 252.763 42.64C252.567 42.632 252.375 42.616 252.187 42.592C252.023 42.684 251.889 42.792 251.785 42.916C251.685 43.04 251.635 43.184 251.635 43.348C251.635 43.456 251.661 43.556 251.713 43.648C251.769 43.744 251.855 43.826 251.971 43.894C252.091 43.962 252.245 44.014 252.433 44.05C252.621 44.09 252.851 44.11 253.123 44.11C253.399 44.11 253.637 44.088 253.837 44.044C254.037 44.004 254.201 43.946 254.329 43.87C254.461 43.798 254.557 43.71 254.617 43.606C254.677 43.506 254.707 43.396 254.707 43.276ZM256.183 37.054V37.606C256.183 37.782 256.077 37.89 255.865 37.93L255.313 38.032C255.397 38.244 255.439 38.476 255.439 38.728C255.439 39.032 255.377 39.308 255.253 39.556C255.133 39.8 254.965 40.008 254.749 40.18C254.533 40.352 254.277 40.486 253.981 40.582C253.689 40.674 253.373 40.72 253.033 40.72C252.913 40.72 252.797 40.714 252.685 40.702C252.573 40.69 252.463 40.674 252.355 40.654C252.163 40.77 252.067 40.9 252.067 41.044C252.067 41.168 252.123 41.26 252.235 41.32C252.351 41.376 252.503 41.416 252.691 41.44C252.879 41.464 253.093 41.48 253.333 41.488C253.573 41.492 253.819 41.504 254.071 41.524C254.323 41.544 254.569 41.58 254.809 41.632C255.049 41.68 255.263 41.758 255.451 41.866C255.639 41.974 255.789 42.122 255.901 42.31C256.017 42.494 256.075 42.732 256.075 43.024C256.075 43.296 256.007 43.56 255.871 43.816C255.739 44.072 255.545 44.3 255.289 44.5C255.037 44.7 254.725 44.86 254.353 44.98C253.985 45.104 253.565 45.166 253.093 45.166C252.629 45.166 252.225 45.12 251.881 45.028C251.537 44.94 251.251 44.82 251.023 44.668C250.795 44.52 250.625 44.348 250.513 44.152C250.401 43.956 250.345 43.752 250.345 43.54C250.345 43.252 250.431 43.012 250.603 42.82C250.779 42.624 251.019 42.468 251.323 42.352C251.159 42.268 251.029 42.156 250.933 42.016C250.837 41.876 250.789 41.692 250.789 41.464C250.789 41.372 250.805 41.278 250.837 41.182C250.873 41.082 250.923 40.984 250.987 40.888C251.055 40.792 251.139 40.702 251.239 40.618C251.339 40.53 251.457 40.452 251.593 40.384C251.281 40.216 251.035 39.992 250.855 39.712C250.679 39.432 250.591 39.104 250.591 38.728C250.591 38.424 250.651 38.15 250.771 37.906C250.895 37.658 251.065 37.448 251.281 37.276C251.501 37.1 251.759 36.966 252.055 36.874C252.355 36.782 252.681 36.736 253.033 36.736C253.297 36.736 253.545 36.764 253.777 36.82C254.009 36.872 254.221 36.95 254.413 37.054H256.183ZM262.427 36.844V43H261.521C261.325 43 261.201 42.91 261.149 42.73L261.047 42.238C260.795 42.494 260.517 42.702 260.213 42.862C259.909 43.018 259.551 43.096 259.139 43.096C258.803 43.096 258.505 43.04 258.245 42.928C257.989 42.812 257.773 42.65 257.597 42.442C257.421 42.234 257.287 41.988 257.195 41.704C257.107 41.416 257.063 41.1 257.063 40.756V36.844H258.545V40.756C258.545 41.132 258.631 41.424 258.803 41.632C258.979 41.836 259.241 41.938 259.589 41.938C259.845 41.938 260.085 41.882 260.309 41.77C260.533 41.654 260.745 41.496 260.945 41.296V36.844H262.427ZM267.148 40.372C266.72 40.392 266.36 40.43 266.068 40.486C265.776 40.538 265.542 40.606 265.366 40.69C265.19 40.774 265.064 40.872 264.988 40.984C264.912 41.096 264.874 41.218 264.874 41.35C264.874 41.61 264.95 41.796 265.102 41.908C265.258 42.02 265.46 42.076 265.708 42.076C266.012 42.076 266.274 42.022 266.494 41.914C266.718 41.802 266.936 41.634 267.148 41.41V40.372ZM263.752 37.702C264.46 37.054 265.312 36.73 266.308 36.73C266.668 36.73 266.99 36.79 267.274 36.91C267.558 37.026 267.798 37.19 267.994 37.402C268.19 37.61 268.338 37.86 268.438 38.152C268.542 38.444 268.594 38.764 268.594 39.112V43H267.922C267.782 43 267.674 42.98 267.598 42.94C267.522 42.896 267.462 42.81 267.418 42.682L267.286 42.238C267.13 42.378 266.978 42.502 266.83 42.61C266.682 42.714 266.528 42.802 266.368 42.874C266.208 42.946 266.036 43 265.852 43.036C265.672 43.076 265.472 43.096 265.252 43.096C264.992 43.096 264.752 43.062 264.532 42.994C264.312 42.922 264.122 42.816 263.962 42.676C263.802 42.536 263.678 42.362 263.59 42.154C263.502 41.946 263.458 41.704 263.458 41.428C263.458 41.272 263.484 41.118 263.536 40.966C263.588 40.81 263.672 40.662 263.788 40.522C263.908 40.382 264.062 40.25 264.25 40.126C264.438 40.002 264.668 39.894 264.94 39.802C265.216 39.71 265.536 39.636 265.9 39.58C266.264 39.52 266.68 39.484 267.148 39.472V39.112C267.148 38.7 267.06 38.396 266.884 38.2C266.708 38 266.454 37.9 266.122 37.9C265.882 37.9 265.682 37.928 265.522 37.984C265.366 38.04 265.228 38.104 265.108 38.176C264.988 38.244 264.878 38.306 264.778 38.362C264.682 38.418 264.574 38.446 264.454 38.446C264.35 38.446 264.262 38.42 264.19 38.368C264.118 38.312 264.06 38.248 264.016 38.176L263.752 37.702ZM272.24 39.772C272.424 39.772 272.584 39.748 272.72 39.7C272.856 39.648 272.968 39.578 273.056 39.49C273.148 39.402 273.216 39.296 273.26 39.172C273.308 39.048 273.332 38.912 273.332 38.764C273.332 38.46 273.24 38.22 273.056 38.044C272.876 37.864 272.604 37.774 272.24 37.774C271.876 37.774 271.602 37.864 271.418 38.044C271.238 38.22 271.148 38.46 271.148 38.764C271.148 38.908 271.17 39.042 271.214 39.166C271.262 39.29 271.33 39.398 271.418 39.49C271.51 39.578 271.624 39.648 271.76 39.7C271.9 39.748 272.06 39.772 272.24 39.772ZM273.914 43.276C273.914 43.156 273.878 43.058 273.806 42.982C273.734 42.906 273.636 42.848 273.512 42.808C273.388 42.764 273.242 42.732 273.074 42.712C272.91 42.692 272.734 42.678 272.546 42.67C272.362 42.658 272.17 42.648 271.97 42.64C271.774 42.632 271.582 42.616 271.394 42.592C271.23 42.684 271.096 42.792 270.992 42.916C270.892 43.04 270.842 43.184 270.842 43.348C270.842 43.456 270.868 43.556 270.92 43.648C270.976 43.744 271.062 43.826 271.178 43.894C271.298 43.962 271.452 44.014 271.64 44.05C271.828 44.09 272.058 44.11 272.33 44.11C272.606 44.11 272.844 44.088 273.044 44.044C273.244 44.004 273.408 43.946 273.536 43.87C273.668 43.798 273.764 43.71 273.824 43.606C273.884 43.506 273.914 43.396 273.914 43.276ZM275.39 37.054V37.606C275.39 37.782 275.284 37.89 275.072 37.93L274.52 38.032C274.604 38.244 274.646 38.476 274.646 38.728C274.646 39.032 274.584 39.308 274.46 39.556C274.34 39.8 274.172 40.008 273.956 40.18C273.74 40.352 273.484 40.486 273.188 40.582C272.896 40.674 272.58 40.72 272.24 40.72C272.12 40.72 272.004 40.714 271.892 40.702C271.78 40.69 271.67 40.674 271.562 40.654C271.37 40.77 271.274 40.9 271.274 41.044C271.274 41.168 271.33 41.26 271.442 41.32C271.558 41.376 271.71 41.416 271.898 41.44C272.086 41.464 272.3 41.48 272.54 41.488C272.78 41.492 273.026 41.504 273.278 41.524C273.53 41.544 273.776 41.58 274.016 41.632C274.256 41.68 274.47 41.758 274.658 41.866C274.846 41.974 274.996 42.122 275.108 42.31C275.224 42.494 275.282 42.732 275.282 43.024C275.282 43.296 275.214 43.56 275.078 43.816C274.946 44.072 274.752 44.3 274.496 44.5C274.244 44.7 273.932 44.86 273.56 44.98C273.192 45.104 272.772 45.166 272.3 45.166C271.836 45.166 271.432 45.12 271.088 45.028C270.744 44.94 270.458 44.82 270.23 44.668C270.002 44.52 269.832 44.348 269.72 44.152C269.608 43.956 269.552 43.752 269.552 43.54C269.552 43.252 269.638 43.012 269.81 42.82C269.986 42.624 270.226 42.468 270.53 42.352C270.366 42.268 270.236 42.156 270.14 42.016C270.044 41.876 269.996 41.692 269.996 41.464C269.996 41.372 270.012 41.278 270.044 41.182C270.08 41.082 270.13 40.984 270.194 40.888C270.262 40.792 270.346 40.702 270.446 40.618C270.546 40.53 270.664 40.452 270.8 40.384C270.488 40.216 270.242 39.992 270.062 39.712C269.886 39.432 269.798 39.104 269.798 38.728C269.798 38.424 269.858 38.15 269.978 37.906C270.102 37.658 270.272 37.448 270.488 37.276C270.708 37.1 270.966 36.966 271.262 36.874C271.562 36.782 271.888 36.736 272.24 36.736C272.504 36.736 272.752 36.764 272.984 36.82C273.216 36.872 273.428 36.95 273.62 37.054H275.39ZM280.19 39.214C280.19 39.022 280.162 38.842 280.106 38.674C280.054 38.502 279.974 38.352 279.866 38.224C279.758 38.096 279.62 37.996 279.452 37.924C279.288 37.848 279.096 37.81 278.876 37.81C278.448 37.81 278.11 37.932 277.862 38.176C277.618 38.42 277.462 38.766 277.394 39.214H280.19ZM277.364 40.108C277.388 40.424 277.444 40.698 277.532 40.93C277.62 41.158 277.736 41.348 277.88 41.5C278.024 41.648 278.194 41.76 278.39 41.836C278.59 41.908 278.81 41.944 279.05 41.944C279.29 41.944 279.496 41.916 279.668 41.86C279.844 41.804 279.996 41.742 280.124 41.674C280.256 41.606 280.37 41.544 280.466 41.488C280.566 41.432 280.662 41.404 280.754 41.404C280.878 41.404 280.97 41.45 281.03 41.542L281.456 42.082C281.292 42.274 281.108 42.436 280.904 42.568C280.7 42.696 280.486 42.8 280.262 42.88C280.042 42.956 279.816 43.01 279.584 43.042C279.356 43.074 279.134 43.09 278.918 43.09C278.49 43.09 278.092 43.02 277.724 42.88C277.356 42.736 277.036 42.526 276.764 42.25C276.492 41.97 276.278 41.626 276.122 41.218C275.966 40.806 275.888 40.33 275.888 39.79C275.888 39.37 275.956 38.976 276.092 38.608C276.228 38.236 276.422 37.914 276.674 37.642C276.93 37.366 277.24 37.148 277.604 36.988C277.972 36.828 278.386 36.748 278.846 36.748C279.234 36.748 279.592 36.81 279.92 36.934C280.248 37.058 280.53 37.24 280.766 37.48C281.002 37.716 281.186 38.008 281.318 38.356C281.454 38.7 281.522 39.094 281.522 39.538C281.522 39.762 281.498 39.914 281.45 39.994C281.402 40.07 281.31 40.108 281.174 40.108H277.364ZM37.784 57.096C37.248 57.096 36.836 56.946 36.548 56.646C36.264 56.342 36.122 55.924 36.122 55.392V51.954H35.492C35.412 51.954 35.344 51.928 35.288 51.876C35.232 51.824 35.204 51.746 35.204 51.642V51.054L36.194 50.892L36.506 49.212C36.526 49.132 36.564 49.07 36.62 49.026C36.676 48.982 36.748 48.96 36.836 48.96H37.604V50.898H39.248V51.954H37.604V55.29C37.604 55.482 37.65 55.632 37.742 55.74C37.838 55.848 37.968 55.902 38.132 55.902C38.224 55.902 38.3 55.892 38.36 55.872C38.424 55.848 38.478 55.824 38.522 55.8C38.57 55.776 38.612 55.754 38.648 55.734C38.684 55.71 38.72 55.698 38.756 55.698C38.8 55.698 38.836 55.71 38.864 55.734C38.892 55.754 38.922 55.786 38.954 55.83L39.398 56.55C39.182 56.73 38.934 56.866 38.654 56.958C38.374 57.05 38.084 57.096 37.784 57.096ZM44.116 53.214C44.116 53.022 44.088 52.842 44.032 52.674C43.98 52.502 43.9 52.352 43.792 52.224C43.684 52.096 43.546 51.996 43.378 51.924C43.214 51.848 43.022 51.81 42.802 51.81C42.374 51.81 42.036 51.932 41.788 52.176C41.544 52.42 41.388 52.766 41.32 53.214H44.116ZM41.29 54.108C41.314 54.424 41.37 54.698 41.458 54.93C41.546 55.158 41.662 55.348 41.806 55.5C41.95 55.648 42.12 55.76 42.316 55.836C42.516 55.908 42.736 55.944 42.976 55.944C43.216 55.944 43.422 55.916 43.594 55.86C43.77 55.804 43.922 55.742 44.05 55.674C44.182 55.606 44.296 55.544 44.392 55.488C44.492 55.432 44.588 55.404 44.68 55.404C44.804 55.404 44.896 55.45 44.956 55.542L45.382 56.082C45.218 56.274 45.034 56.436 44.83 56.568C44.626 56.696 44.412 56.8 44.188 56.88C43.968 56.956 43.742 57.01 43.51 57.042C43.282 57.074 43.06 57.09 42.844 57.09C42.416 57.09 42.018 57.02 41.65 56.88C41.282 56.736 40.962 56.526 40.69 56.25C40.418 55.97 40.204 55.626 40.048 55.218C39.892 54.806 39.814 54.33 39.814 53.79C39.814 53.37 39.882 52.976 40.018 52.608C40.154 52.236 40.348 51.914 40.6 51.642C40.856 51.366 41.166 51.148 41.53 50.988C41.898 50.828 42.312 50.748 42.772 50.748C43.16 50.748 43.518 50.81 43.846 50.934C44.174 51.058 44.456 51.24 44.692 51.48C44.928 51.716 45.112 52.008 45.244 52.356C45.38 52.7 45.448 53.094 45.448 53.538C45.448 53.762 45.424 53.914 45.376 53.994C45.328 54.07 45.236 54.108 45.1 54.108H41.29ZM49.8121 54.372C49.3841 54.392 49.0241 54.43 48.7321 54.486C48.4401 54.538 48.2061 54.606 48.0301 54.69C47.8541 54.774 47.7281 54.872 47.6521 54.984C47.5761 55.096 47.5381 55.218 47.5381 55.35C47.5381 55.61 47.6141 55.796 47.7661 55.908C47.9221 56.02 48.1241 56.076 48.3721 56.076C48.6761 56.076 48.9381 56.022 49.1581 55.914C49.3821 55.802 49.6001 55.634 49.8121 55.41V54.372ZM46.4161 51.702C47.1241 51.054 47.9761 50.73 48.9721 50.73C49.3321 50.73 49.6541 50.79 49.9381 50.91C50.2221 51.026 50.4621 51.19 50.6581 51.402C50.8541 51.61 51.0021 51.86 51.1021 52.152C51.2061 52.444 51.2581 52.764 51.2581 53.112V57H50.5861C50.4461 57 50.3381 56.98 50.2621 56.94C50.1861 56.896 50.1261 56.81 50.0821 56.682L49.9501 56.238C49.7941 56.378 49.6421 56.502 49.4941 56.61C49.3461 56.714 49.1921 56.802 49.0321 56.874C48.8721 56.946 48.7001 57 48.5161 57.036C48.3361 57.076 48.1361 57.096 47.9161 57.096C47.6561 57.096 47.4161 57.062 47.1961 56.994C46.9761 56.922 46.7861 56.816 46.6261 56.676C46.4661 56.536 46.3421 56.362 46.2541 56.154C46.1661 55.946 46.1221 55.704 46.1221 55.428C46.1221 55.272 46.1481 55.118 46.2001 54.966C46.2521 54.81 46.3361 54.662 46.4521 54.522C46.5721 54.382 46.7261 54.25 46.9141 54.126C47.1021 54.002 47.3321 53.894 47.6041 53.802C47.8801 53.71 48.2001 53.636 48.5641 53.58C48.9281 53.52 49.3441 53.484 49.8121 53.472V53.112C49.8121 52.7 49.7241 52.396 49.5481 52.2C49.3721 52 49.1181 51.9 48.7861 51.9C48.5461 51.9 48.3461 51.928 48.1861 51.984C48.0301 52.04 47.8921 52.104 47.7721 52.176C47.6521 52.244 47.5421 52.306 47.4421 52.362C47.3461 52.418 47.2381 52.446 47.1181 52.446C47.0141 52.446 46.9261 52.42 46.8541 52.368C46.7821 52.312 46.7241 52.248 46.6801 52.176L46.4161 51.702ZM57.0639 52.146C57.0199 52.202 56.9759 52.246 56.9319 52.278C56.8919 52.31 56.8319 52.326 56.7519 52.326C56.6759 52.326 56.6019 52.304 56.5299 52.26C56.4579 52.212 56.3719 52.16 56.2719 52.104C56.1719 52.044 56.0519 51.992 55.9119 51.948C55.7759 51.9 55.6059 51.876 55.4019 51.876C55.1419 51.876 54.9139 51.924 54.7179 52.02C54.5219 52.112 54.3579 52.246 54.2259 52.422C54.0979 52.598 54.0019 52.812 53.9379 53.064C53.8739 53.312 53.8419 53.594 53.8419 53.91C53.8419 54.238 53.8759 54.53 53.9439 54.786C54.0159 55.042 54.1179 55.258 54.2499 55.434C54.3819 55.606 54.5419 55.738 54.7299 55.83C54.9179 55.918 55.1299 55.962 55.3659 55.962C55.6019 55.962 55.7919 55.934 55.9359 55.878C56.0839 55.818 56.2079 55.754 56.3079 55.686C56.4079 55.614 56.4939 55.55 56.5659 55.494C56.6419 55.434 56.7259 55.404 56.8179 55.404C56.9379 55.404 57.0279 55.45 57.0879 55.542L57.5139 56.082C57.3499 56.274 57.1719 56.436 56.9799 56.568C56.7879 56.696 56.5879 56.8 56.3799 56.88C56.1759 56.956 55.9639 57.01 55.7439 57.042C55.5279 57.074 55.3119 57.09 55.0959 57.09C54.7159 57.09 54.3579 57.02 54.0219 56.88C53.6859 56.736 53.3919 56.528 53.1399 56.256C52.8879 55.984 52.6879 55.652 52.5399 55.26C52.3959 54.864 52.3239 54.414 52.3239 53.91C52.3239 53.458 52.3879 53.04 52.5159 52.656C52.6479 52.268 52.8399 51.934 53.0919 51.654C53.3439 51.37 53.6559 51.148 54.0279 50.988C54.3999 50.828 54.8279 50.748 55.3119 50.748C55.7719 50.748 56.1739 50.822 56.5179 50.97C56.8659 51.118 57.1779 51.33 57.4539 51.606L57.0639 52.146ZM59.9249 51.504C60.1649 51.28 60.4289 51.098 60.7169 50.958C61.0049 50.818 61.3429 50.748 61.7309 50.748C62.0669 50.748 62.3649 50.806 62.6249 50.922C62.8849 51.034 63.1009 51.194 63.2729 51.402C63.4489 51.606 63.5809 51.852 63.6689 52.14C63.7609 52.424 63.8069 52.738 63.8069 53.082V57H62.3249V53.082C62.3249 52.706 62.2389 52.416 62.0669 52.212C61.8949 52.004 61.6329 51.9 61.2809 51.9C61.0249 51.9 60.7849 51.958 60.5609 52.074C60.3369 52.19 60.1249 52.348 59.9249 52.548V57H58.4429V48.084H59.9249V51.504ZM66.7524 50.844V57H65.2644V50.844H66.7524ZM66.9564 49.05C66.9564 49.178 66.9304 49.298 66.8784 49.41C66.8264 49.522 66.7564 49.62 66.6684 49.704C66.5844 49.788 66.4844 49.856 66.3684 49.908C66.2524 49.956 66.1284 49.98 65.9964 49.98C65.8684 49.98 65.7464 49.956 65.6304 49.908C65.5184 49.856 65.4204 49.788 65.3364 49.704C65.2524 49.62 65.1844 49.522 65.1324 49.41C65.0844 49.298 65.0604 49.178 65.0604 49.05C65.0604 48.918 65.0844 48.794 65.1324 48.678C65.1844 48.562 65.2524 48.462 65.3364 48.378C65.4204 48.294 65.5184 48.228 65.6304 48.18C65.7464 48.128 65.8684 48.102 65.9964 48.102C66.1284 48.102 66.2524 48.128 66.3684 48.18C66.4844 48.228 66.5844 48.294 66.6684 48.378C66.7564 48.462 66.8264 48.562 66.8784 48.678C66.9304 48.794 66.9564 48.918 66.9564 49.05ZM69.6493 51.6C69.7733 51.476 69.9033 51.362 70.0393 51.258C70.1793 51.15 70.3253 51.06 70.4773 50.988C70.6333 50.912 70.7993 50.854 70.9753 50.814C71.1513 50.77 71.3433 50.748 71.5513 50.748C71.8873 50.748 72.1853 50.806 72.4453 50.922C72.7053 51.034 72.9213 51.194 73.0933 51.402C73.2693 51.606 73.4013 51.852 73.4893 52.14C73.5813 52.424 73.6273 52.738 73.6273 53.082V57H72.1453V53.082C72.1453 52.706 72.0593 52.416 71.8873 52.212C71.7153 52.004 71.4533 51.9 71.1013 51.9C70.8453 51.9 70.6053 51.958 70.3813 52.074C70.1573 52.19 69.9453 52.348 69.7453 52.548V57H68.2633V50.844H69.1693C69.3613 50.844 69.4873 50.934 69.5473 51.114L69.6493 51.6ZM77.2867 53.772C77.4707 53.772 77.6307 53.748 77.7667 53.7C77.9027 53.648 78.0147 53.578 78.1027 53.49C78.1947 53.402 78.2627 53.296 78.3067 53.172C78.3547 53.048 78.3787 52.912 78.3787 52.764C78.3787 52.46 78.2867 52.22 78.1027 52.044C77.9227 51.864 77.6507 51.774 77.2867 51.774C76.9227 51.774 76.6487 51.864 76.4647 52.044C76.2847 52.22 76.1947 52.46 76.1947 52.764C76.1947 52.908 76.2167 53.042 76.2607 53.166C76.3087 53.29 76.3767 53.398 76.4647 53.49C76.5567 53.578 76.6707 53.648 76.8067 53.7C76.9467 53.748 77.1067 53.772 77.2867 53.772ZM78.9607 57.276C78.9607 57.156 78.9247 57.058 78.8527 56.982C78.7807 56.906 78.6827 56.848 78.5587 56.808C78.4347 56.764 78.2887 56.732 78.1207 56.712C77.9567 56.692 77.7807 56.678 77.5927 56.67C77.4087 56.658 77.2167 56.648 77.0167 56.64C76.8207 56.632 76.6287 56.616 76.4407 56.592C76.2767 56.684 76.1427 56.792 76.0387 56.916C75.9387 57.04 75.8887 57.184 75.8887 57.348C75.8887 57.456 75.9147 57.556 75.9667 57.648C76.0227 57.744 76.1087 57.826 76.2247 57.894C76.3447 57.962 76.4987 58.014 76.6867 58.05C76.8747 58.09 77.1047 58.11 77.3767 58.11C77.6527 58.11 77.8907 58.088 78.0907 58.044C78.2907 58.004 78.4547 57.946 78.5827 57.87C78.7147 57.798 78.8107 57.71 78.8707 57.606C78.9307 57.506 78.9607 57.396 78.9607 57.276ZM80.4367 51.054V51.606C80.4367 51.782 80.3307 51.89 80.1187 51.93L79.5667 52.032C79.6507 52.244 79.6927 52.476 79.6927 52.728C79.6927 53.032 79.6307 53.308 79.5067 53.556C79.3867 53.8 79.2187 54.008 79.0027 54.18C78.7867 54.352 78.5307 54.486 78.2347 54.582C77.9427 54.674 77.6267 54.72 77.2867 54.72C77.1667 54.72 77.0507 54.714 76.9387 54.702C76.8267 54.69 76.7167 54.674 76.6087 54.654C76.4167 54.77 76.3207 54.9 76.3207 55.044C76.3207 55.168 76.3767 55.26 76.4887 55.32C76.6047 55.376 76.7567 55.416 76.9447 55.44C77.1327 55.464 77.3467 55.48 77.5867 55.488C77.8267 55.492 78.0727 55.504 78.3247 55.524C78.5767 55.544 78.8227 55.58 79.0627 55.632C79.3027 55.68 79.5167 55.758 79.7047 55.866C79.8927 55.974 80.0427 56.122 80.1547 56.31C80.2707 56.494 80.3287 56.732 80.3287 57.024C80.3287 57.296 80.2607 57.56 80.1247 57.816C79.9927 58.072 79.7987 58.3 79.5427 58.5C79.2907 58.7 78.9787 58.86 78.6067 58.98C78.2387 59.104 77.8187 59.166 77.3467 59.166C76.8827 59.166 76.4787 59.12 76.1347 59.028C75.7907 58.94 75.5047 58.82 75.2767 58.668C75.0487 58.52 74.8787 58.348 74.7667 58.152C74.6547 57.956 74.5987 57.752 74.5987 57.54C74.5987 57.252 74.6847 57.012 74.8567 56.82C75.0327 56.624 75.2727 56.468 75.5767 56.352C75.4127 56.268 75.2827 56.156 75.1867 56.016C75.0907 55.876 75.0427 55.692 75.0427 55.464C75.0427 55.372 75.0587 55.278 75.0907 55.182C75.1267 55.082 75.1767 54.984 75.2407 54.888C75.3087 54.792 75.3927 54.702 75.4927 54.618C75.5927 54.53 75.7107 54.452 75.8467 54.384C75.5347 54.216 75.2887 53.992 75.1087 53.712C74.9327 53.432 74.8447 53.104 74.8447 52.728C74.8447 52.424 74.9047 52.15 75.0247 51.906C75.1487 51.658 75.3187 51.448 75.5347 51.276C75.7547 51.1 76.0127 50.966 76.3087 50.874C76.6087 50.782 76.9347 50.736 77.2867 50.736C77.5507 50.736 77.7987 50.764 78.0307 50.82C78.2627 50.872 78.4747 50.95 78.6667 51.054H80.4367Z" fill="#31479E"/>
<defs>
<filter id="filter0_d" x="0" y="0" width="343" height="107.789" filterUnits="userSpaceOnUse" color-interpolation-filters="sRGB">
<feFlood flood-opacity="0" result="BackgroundImageFix"/>
<feColorMatrix in="SourceAlpha" type="matrix" values="0 0 0 0 0 0 0 0 0 0 0 0 0 0 0 0 0 0 127 0"/>
<feOffset/>
<feGaussianBlur stdDeviation="10"/>
<feColorMatrix type="matrix" values="0 0 0 0 0 0 0 0 0 0 0 0 0 0 0 0 0 0 0.25 0"/>
<feBlend mode="normal" in2="BackgroundImageFix" result="effect1_dropShadow"/>
<feBlend mode="normal" in="SourceGraphic" in2="effect1_dropShadow" result="shape"/>
</filter>
</defs>
</svg>
