<svg width="343" height="109" viewBox="0 0 343 109" fill="none" xmlns="http://www.w3.org/2000/svg">
<g filter="url(#filter0_d)">
<mask id="path-1-inside-1" fill="white">
<path fill-rule="evenodd" clip-rule="evenodd" d="M316 20.2532C319.866 20.2532 323 23.3872 323 27.2532V65.7857C323 69.6517 319.866 72.7857 316 72.7857H306.49L306.49 85.0368C306.49 87.4134 303.859 88.8463 301.863 87.5567L278.998 72.7857H27C23.134 72.7857 20 69.6517 20 65.7857V27.2532C20 23.3872 23.134 20.2532 27 20.2532H316Z"/>
</mask>
<path fill-rule="evenodd" clip-rule="evenodd" d="M316 20.2532C319.866 20.2532 323 23.3872 323 27.2532V65.7857C323 69.6517 319.866 72.7857 316 72.7857H306.49L306.49 85.0368C306.49 87.4134 303.859 88.8463 301.863 87.5567L278.998 72.7857H27C23.134 72.7857 20 69.6517 20 65.7857V27.2532C20 23.3872 23.134 20.2532 27 20.2532H316Z" fill="white"/>
<path d="M306.49 72.7857L303.49 72.7857L303.49 69.7857H306.49V72.7857ZM306.49 85.0368L309.49 85.0368L309.49 85.0368L306.49 85.0368ZM301.863 87.5567L303.49 85.0368L303.49 85.0368L301.863 87.5567ZM278.998 72.7857V69.7857H279.883L280.626 70.2658L278.998 72.7857ZM320 27.2532C320 25.044 318.209 23.2532 316 23.2532V17.2532C321.523 17.2532 326 21.7303 326 27.2532H320ZM320 65.7857V27.2532H326V65.7857H320ZM316 69.7857C318.209 69.7857 320 67.9949 320 65.7857H326C326 71.3086 321.523 75.7857 316 75.7857V69.7857ZM306.49 69.7857H316V75.7857H306.49V69.7857ZM309.49 72.7857L309.49 85.0368L303.49 85.0368L303.49 72.7857L309.49 72.7857ZM309.49 85.0368C309.49 89.7899 304.227 92.6558 300.235 90.0766L303.49 85.0368L303.49 85.0368L309.49 85.0368ZM300.235 90.0766L277.37 75.3056L280.626 70.2658L303.49 85.0368L300.235 90.0766ZM27 69.7857H278.998V75.7857H27V69.7857ZM23 65.7857C23 67.9949 24.7909 69.7857 27 69.7857V75.7857C21.4771 75.7857 17 71.3086 17 65.7857H23ZM23 27.2532V65.7857H17V27.2532H23ZM27 23.2532C24.7909 23.2532 23 25.044 23 27.2532H17C17 21.7303 21.4771 17.2532 27 17.2532V23.2532ZM316 23.2532H27V17.2532H316V23.2532Z" fill="#ED1C24" mask="url(#path-1-inside-1)"/>
</g>
<path d="M37.586 35.608V38.014H40.622V39.256H37.586V41.71H41.438V43H35.966V34.324H41.438V35.608H37.586ZM42.5863 38.758H45.6943V39.994H42.5863V38.758ZM48.6109 34.084V43H47.1289V34.084H48.6109ZM54.0535 39.214C54.0535 39.022 54.0255 38.842 53.9695 38.674C53.9175 38.502 53.8375 38.352 53.7295 38.224C53.6215 38.096 53.4835 37.996 53.3155 37.924C53.1515 37.848 52.9595 37.81 52.7395 37.81C52.3115 37.81 51.9735 37.932 51.7255 38.176C51.4815 38.42 51.3255 38.766 51.2575 39.214H54.0535ZM51.2275 40.108C51.2515 40.424 51.3075 40.698 51.3955 40.93C51.4835 41.158 51.5995 41.348 51.7435 41.5C51.8875 41.648 52.0575 41.76 52.2535 41.836C52.4535 41.908 52.6735 41.944 52.9135 41.944C53.1535 41.944 53.3595 41.916 53.5315 41.86C53.7075 41.804 53.8595 41.742 53.9875 41.674C54.1195 41.606 54.2335 41.544 54.3295 41.488C54.4295 41.432 54.5255 41.404 54.6175 41.404C54.7415 41.404 54.8335 41.45 54.8935 41.542L55.3195 42.082C55.1555 42.274 54.9715 42.436 54.7675 42.568C54.5635 42.696 54.3495 42.8 54.1255 42.88C53.9055 42.956 53.6795 43.01 53.4475 43.042C53.2195 43.074 52.9975 43.09 52.7815 43.09C52.3535 43.09 51.9555 43.02 51.5875 42.88C51.2195 42.736 50.8995 42.526 50.6275 42.25C50.3555 41.97 50.1415 41.626 49.9855 41.218C49.8295 40.806 49.7515 40.33 49.7515 39.79C49.7515 39.37 49.8195 38.976 49.9555 38.608C50.0915 38.236 50.2855 37.914 50.5375 37.642C50.7935 37.366 51.1035 37.148 51.4675 36.988C51.8355 36.828 52.2495 36.748 52.7095 36.748C53.0975 36.748 53.4555 36.81 53.7835 36.934C54.1115 37.058 54.3935 37.24 54.6295 37.48C54.8655 37.716 55.0495 38.008 55.1815 38.356C55.3175 38.7 55.3855 39.094 55.3855 39.538C55.3855 39.762 55.3615 39.914 55.3135 39.994C55.2655 40.07 55.1735 40.108 55.0375 40.108H51.2275ZM59.7496 40.372C59.3216 40.392 58.9616 40.43 58.6696 40.486C58.3776 40.538 58.1436 40.606 57.9676 40.69C57.7916 40.774 57.6656 40.872 57.5896 40.984C57.5136 41.096 57.4756 41.218 57.4756 41.35C57.4756 41.61 57.5516 41.796 57.7036 41.908C57.8596 42.02 58.0616 42.076 58.3096 42.076C58.6136 42.076 58.8756 42.022 59.0956 41.914C59.3196 41.802 59.5376 41.634 59.7496 41.41V40.372ZM56.3536 37.702C57.0616 37.054 57.9136 36.73 58.9096 36.73C59.2696 36.73 59.5916 36.79 59.8756 36.91C60.1596 37.026 60.3996 37.19 60.5956 37.402C60.7916 37.61 60.9396 37.86 61.0396 38.152C61.1436 38.444 61.1956 38.764 61.1956 39.112V43H60.5236C60.3836 43 60.2756 42.98 60.1996 42.94C60.1236 42.896 60.0636 42.81 60.0196 42.682L59.8876 42.238C59.7316 42.378 59.5796 42.502 59.4316 42.61C59.2836 42.714 59.1296 42.802 58.9696 42.874C58.8096 42.946 58.6376 43 58.4536 43.036C58.2736 43.076 58.0736 43.096 57.8536 43.096C57.5936 43.096 57.3536 43.062 57.1336 42.994C56.9136 42.922 56.7236 42.816 56.5636 42.676C56.4036 42.536 56.2796 42.362 56.1916 42.154C56.1036 41.946 56.0596 41.704 56.0596 41.428C56.0596 41.272 56.0856 41.118 56.1376 40.966C56.1896 40.81 56.2736 40.662 56.3896 40.522C56.5096 40.382 56.6636 40.25 56.8516 40.126C57.0396 40.002 57.2696 39.894 57.5416 39.802C57.8176 39.71 58.1376 39.636 58.5016 39.58C58.8656 39.52 59.2816 39.484 59.7496 39.472V39.112C59.7496 38.7 59.6616 38.396 59.4856 38.2C59.3096 38 59.0556 37.9 58.7236 37.9C58.4836 37.9 58.2836 37.928 58.1236 37.984C57.9676 38.04 57.8296 38.104 57.7096 38.176C57.5896 38.244 57.4796 38.306 57.3796 38.362C57.2836 38.418 57.1756 38.446 57.0556 38.446C56.9516 38.446 56.8636 38.42 56.7916 38.368C56.7196 38.312 56.6616 38.248 56.6176 38.176L56.3536 37.702ZM63.9894 37.912C64.1814 37.544 64.4094 37.256 64.6734 37.048C64.9374 36.836 65.2494 36.73 65.6094 36.73C65.8934 36.73 66.1214 36.792 66.2934 36.916L66.1974 38.026C66.1774 38.098 66.1474 38.15 66.1074 38.182C66.0714 38.21 66.0214 38.224 65.9574 38.224C65.8974 38.224 65.8074 38.214 65.6874 38.194C65.5714 38.174 65.4574 38.164 65.3454 38.164C65.1814 38.164 65.0354 38.188 64.9074 38.236C64.7794 38.284 64.6634 38.354 64.5594 38.446C64.4594 38.534 64.3694 38.642 64.2894 38.77C64.2134 38.898 64.1414 39.044 64.0734 39.208V43H62.5914V36.844H63.4614C63.6134 36.844 63.7194 36.872 63.7794 36.928C63.8394 36.98 63.8794 37.076 63.8994 37.216L63.9894 37.912ZM68.4539 37.6C68.5779 37.476 68.7079 37.362 68.8439 37.258C68.9839 37.15 69.1299 37.06 69.2819 36.988C69.4379 36.912 69.6039 36.854 69.7799 36.814C69.9559 36.77 70.1479 36.748 70.3559 36.748C70.6919 36.748 70.9899 36.806 71.2499 36.922C71.5099 37.034 71.7259 37.194 71.8979 37.402C72.0739 37.606 72.2059 37.852 72.2939 38.14C72.3859 38.424 72.4319 38.738 72.4319 39.082V43H70.9499V39.082C70.9499 38.706 70.8639 38.416 70.6919 38.212C70.5199 38.004 70.2579 37.9 69.9059 37.9C69.6499 37.9 69.4099 37.958 69.1859 38.074C68.9619 38.19 68.7499 38.348 68.5499 38.548V43H67.0679V36.844H67.9739C68.1659 36.844 68.2919 36.934 68.3519 37.114L68.4539 37.6ZM75.3774 36.844V43H73.8894V36.844H75.3774ZM75.5814 35.05C75.5814 35.178 75.5554 35.298 75.5034 35.41C75.4514 35.522 75.3814 35.62 75.2934 35.704C75.2094 35.788 75.1094 35.856 74.9934 35.908C74.8774 35.956 74.7534 35.98 74.6214 35.98C74.4934 35.98 74.3714 35.956 74.2554 35.908C74.1434 35.856 74.0454 35.788 73.9614 35.704C73.8774 35.62 73.8094 35.522 73.7574 35.41C73.7094 35.298 73.6854 35.178 73.6854 35.05C73.6854 34.918 73.7094 34.794 73.7574 34.678C73.8094 34.562 73.8774 34.462 73.9614 34.378C74.0454 34.294 74.1434 34.228 74.2554 34.18C74.3714 34.128 74.4934 34.102 74.6214 34.102C74.7534 34.102 74.8774 34.128 74.9934 34.18C75.1094 34.228 75.2094 34.294 75.2934 34.378C75.3814 34.462 75.4514 34.562 75.5034 34.678C75.5554 34.794 75.5814 34.918 75.5814 35.05ZM78.2743 37.6C78.3983 37.476 78.5283 37.362 78.6643 37.258C78.8043 37.15 78.9503 37.06 79.1023 36.988C79.2583 36.912 79.4243 36.854 79.6003 36.814C79.7763 36.77 79.9683 36.748 80.1763 36.748C80.5123 36.748 80.8103 36.806 81.0703 36.922C81.3303 37.034 81.5463 37.194 81.7183 37.402C81.8943 37.606 82.0263 37.852 82.1143 38.14C82.2063 38.424 82.2523 38.738 82.2523 39.082V43H80.7703V39.082C80.7703 38.706 80.6843 38.416 80.5123 38.212C80.3403 38.004 80.0783 37.9 79.7263 37.9C79.4703 37.9 79.2303 37.958 79.0063 38.074C78.7823 38.19 78.5703 38.348 78.3703 38.548V43H76.8883V36.844H77.7943C77.9863 36.844 78.1123 36.934 78.1723 37.114L78.2743 37.6ZM85.9117 39.772C86.0957 39.772 86.2557 39.748 86.3917 39.7C86.5277 39.648 86.6397 39.578 86.7277 39.49C86.8197 39.402 86.8877 39.296 86.9317 39.172C86.9797 39.048 87.0037 38.912 87.0037 38.764C87.0037 38.46 86.9117 38.22 86.7277 38.044C86.5477 37.864 86.2757 37.774 85.9117 37.774C85.5477 37.774 85.2737 37.864 85.0897 38.044C84.9097 38.22 84.8197 38.46 84.8197 38.764C84.8197 38.908 84.8417 39.042 84.8857 39.166C84.9337 39.29 85.0017 39.398 85.0897 39.49C85.1817 39.578 85.2957 39.648 85.4317 39.7C85.5717 39.748 85.7317 39.772 85.9117 39.772ZM87.5857 43.276C87.5857 43.156 87.5497 43.058 87.4777 42.982C87.4057 42.906 87.3077 42.848 87.1837 42.808C87.0597 42.764 86.9137 42.732 86.7457 42.712C86.5817 42.692 86.4057 42.678 86.2177 42.67C86.0337 42.658 85.8417 42.648 85.6417 42.64C85.4457 42.632 85.2537 42.616 85.0657 42.592C84.9017 42.684 84.7677 42.792 84.6637 42.916C84.5637 43.04 84.5137 43.184 84.5137 43.348C84.5137 43.456 84.5397 43.556 84.5917 43.648C84.6477 43.744 84.7337 43.826 84.8497 43.894C84.9697 43.962 85.1237 44.014 85.3117 44.05C85.4997 44.09 85.7297 44.11 86.0017 44.11C86.2777 44.11 86.5157 44.088 86.7157 44.044C86.9157 44.004 87.0797 43.946 87.2077 43.87C87.3397 43.798 87.4357 43.71 87.4957 43.606C87.5557 43.506 87.5857 43.396 87.5857 43.276ZM89.0617 37.054V37.606C89.0617 37.782 88.9557 37.89 88.7437 37.93L88.1917 38.032C88.2757 38.244 88.3177 38.476 88.3177 38.728C88.3177 39.032 88.2557 39.308 88.1317 39.556C88.0117 39.8 87.8437 40.008 87.6277 40.18C87.4117 40.352 87.1557 40.486 86.8597 40.582C86.5677 40.674 86.2517 40.72 85.9117 40.72C85.7917 40.72 85.6757 40.714 85.5637 40.702C85.4517 40.69 85.3417 40.674 85.2337 40.654C85.0417 40.77 84.9457 40.9 84.9457 41.044C84.9457 41.168 85.0017 41.26 85.1137 41.32C85.2297 41.376 85.3817 41.416 85.5697 41.44C85.7577 41.464 85.9717 41.48 86.2117 41.488C86.4517 41.492 86.6977 41.504 86.9497 41.524C87.2017 41.544 87.4477 41.58 87.6877 41.632C87.9277 41.68 88.1417 41.758 88.3297 41.866C88.5177 41.974 88.6677 42.122 88.7797 42.31C88.8957 42.494 88.9537 42.732 88.9537 43.024C88.9537 43.296 88.8857 43.56 88.7497 43.816C88.6177 44.072 88.4237 44.3 88.1677 44.5C87.9157 44.7 87.6037 44.86 87.2317 44.98C86.8637 45.104 86.4437 45.166 85.9717 45.166C85.5077 45.166 85.1037 45.12 84.7597 45.028C84.4157 44.94 84.1297 44.82 83.9017 44.668C83.6737 44.52 83.5037 44.348 83.3917 44.152C83.2797 43.956 83.2237 43.752 83.2237 43.54C83.2237 43.252 83.3097 43.012 83.4817 42.82C83.6577 42.624 83.8977 42.468 84.2017 42.352C84.0377 42.268 83.9077 42.156 83.8117 42.016C83.7157 41.876 83.6677 41.692 83.6677 41.464C83.6677 41.372 83.6837 41.278 83.7157 41.182C83.7517 41.082 83.8017 40.984 83.8657 40.888C83.9337 40.792 84.0177 40.702 84.1177 40.618C84.2177 40.53 84.3357 40.452 84.4717 40.384C84.1597 40.216 83.9137 39.992 83.7337 39.712C83.5577 39.432 83.4697 39.104 83.4697 38.728C83.4697 38.424 83.5297 38.15 83.6497 37.906C83.7737 37.658 83.9437 37.448 84.1597 37.276C84.3797 37.1 84.6377 36.966 84.9337 36.874C85.2337 36.782 85.5597 36.736 85.9117 36.736C86.1757 36.736 86.4237 36.764 86.6557 36.82C86.8877 36.872 87.0997 36.95 87.2917 37.054H89.0617ZM96.1715 40.372C95.7435 40.392 95.3835 40.43 95.0915 40.486C94.7995 40.538 94.5655 40.606 94.3895 40.69C94.2135 40.774 94.0875 40.872 94.0115 40.984C93.9355 41.096 93.8975 41.218 93.8975 41.35C93.8975 41.61 93.9735 41.796 94.1255 41.908C94.2815 42.02 94.4835 42.076 94.7315 42.076C95.0355 42.076 95.2975 42.022 95.5175 41.914C95.7415 41.802 95.9595 41.634 96.1715 41.41V40.372ZM92.7755 37.702C93.4835 37.054 94.3355 36.73 95.3315 36.73C95.6915 36.73 96.0135 36.79 96.2975 36.91C96.5815 37.026 96.8215 37.19 97.0175 37.402C97.2135 37.61 97.3615 37.86 97.4615 38.152C97.5655 38.444 97.6175 38.764 97.6175 39.112V43H96.9455C96.8055 43 96.6975 42.98 96.6215 42.94C96.5455 42.896 96.4855 42.81 96.4415 42.682L96.3095 42.238C96.1535 42.378 96.0015 42.502 95.8535 42.61C95.7055 42.714 95.5515 42.802 95.3915 42.874C95.2315 42.946 95.0595 43 94.8755 43.036C94.6955 43.076 94.4955 43.096 94.2755 43.096C94.0155 43.096 93.7755 43.062 93.5555 42.994C93.3355 42.922 93.1455 42.816 92.9855 42.676C92.8255 42.536 92.7015 42.362 92.6135 42.154C92.5255 41.946 92.4815 41.704 92.4815 41.428C92.4815 41.272 92.5075 41.118 92.5595 40.966C92.6115 40.81 92.6955 40.662 92.8115 40.522C92.9315 40.382 93.0855 40.25 93.2735 40.126C93.4615 40.002 93.6915 39.894 93.9635 39.802C94.2395 39.71 94.5595 39.636 94.9235 39.58C95.2875 39.52 95.7035 39.484 96.1715 39.472V39.112C96.1715 38.7 96.0835 38.396 95.9075 38.2C95.7315 38 95.4775 37.9 95.1455 37.9C94.9055 37.9 94.7055 37.928 94.5455 37.984C94.3895 38.04 94.2515 38.104 94.1315 38.176C94.0115 38.244 93.9015 38.306 93.8015 38.362C93.7055 38.418 93.5975 38.446 93.4775 38.446C93.3735 38.446 93.2855 38.42 93.2135 38.368C93.1415 38.312 93.0835 38.248 93.0395 38.176L92.7755 37.702ZM100.399 37.6C100.523 37.476 100.653 37.362 100.789 37.258C100.929 37.15 101.075 37.06 101.227 36.988C101.383 36.912 101.549 36.854 101.725 36.814C101.901 36.77 102.093 36.748 102.301 36.748C102.637 36.748 102.935 36.806 103.195 36.922C103.455 37.034 103.671 37.194 103.843 37.402C104.019 37.606 104.151 37.852 104.239 38.14C104.331 38.424 104.377 38.738 104.377 39.082V43H102.895V39.082C102.895 38.706 102.809 38.416 102.637 38.212C102.465 38.004 102.203 37.9 101.851 37.9C101.595 37.9 101.355 37.958 101.131 38.074C100.907 38.19 100.695 38.348 100.495 38.548V43H99.0133V36.844H99.9193C100.111 36.844 100.237 36.934 100.297 37.114L100.399 37.6ZM109.651 38.416C109.483 38.212 109.299 38.068 109.099 37.984C108.903 37.9 108.691 37.858 108.463 37.858C108.239 37.858 108.037 37.9 107.857 37.984C107.677 38.068 107.523 38.196 107.395 38.368C107.267 38.536 107.169 38.752 107.101 39.016C107.033 39.276 106.999 39.584 106.999 39.94C106.999 40.3 107.027 40.606 107.083 40.858C107.143 41.106 107.227 41.31 107.335 41.47C107.443 41.626 107.575 41.74 107.731 41.812C107.887 41.88 108.061 41.914 108.253 41.914C108.561 41.914 108.823 41.85 109.039 41.722C109.255 41.594 109.459 41.412 109.651 41.176V38.416ZM111.133 34.084V43H110.227C110.031 43 109.907 42.91 109.855 42.73L109.729 42.136C109.481 42.42 109.195 42.65 108.871 42.826C108.551 43.002 108.177 43.09 107.749 43.09C107.413 43.09 107.105 43.02 106.825 42.88C106.545 42.74 106.303 42.538 106.099 42.274C105.899 42.006 105.743 41.676 105.631 41.284C105.523 40.892 105.469 40.444 105.469 39.94C105.469 39.484 105.531 39.06 105.655 38.668C105.779 38.276 105.957 37.936 106.189 37.648C106.421 37.36 106.699 37.136 107.023 36.976C107.347 36.812 107.711 36.73 108.115 36.73C108.459 36.73 108.753 36.784 108.997 36.892C109.241 37 109.459 37.146 109.651 37.33V34.084H111.133ZM116.995 41.404C117.163 41.608 117.345 41.752 117.541 41.836C117.741 41.92 117.951 41.962 118.171 41.962C118.399 41.962 118.603 41.922 118.783 41.842C118.967 41.758 119.123 41.63 119.251 41.458C119.379 41.282 119.477 41.06 119.545 40.792C119.613 40.52 119.647 40.196 119.647 39.82C119.647 39.144 119.535 38.656 119.311 38.356C119.087 38.052 118.765 37.9 118.345 37.9C118.061 37.9 117.813 37.966 117.601 38.098C117.389 38.226 117.187 38.408 116.995 38.644V41.404ZM116.995 37.6C117.243 37.34 117.517 37.134 117.817 36.982C118.121 36.826 118.467 36.748 118.855 36.748C119.211 36.748 119.531 36.818 119.815 36.958C120.103 37.098 120.347 37.3 120.547 37.564C120.751 37.824 120.907 38.14 121.015 38.512C121.123 38.884 121.177 39.302 121.177 39.766C121.177 40.266 121.115 40.72 120.991 41.128C120.867 41.536 120.689 41.886 120.457 42.178C120.229 42.466 119.953 42.69 119.629 42.85C119.305 43.01 118.945 43.09 118.549 43.09C118.357 43.09 118.183 43.07 118.027 43.03C117.871 42.994 117.727 42.942 117.595 42.874C117.463 42.806 117.341 42.724 117.229 42.628C117.121 42.528 117.017 42.418 116.917 42.298L116.851 42.712C116.827 42.816 116.785 42.89 116.725 42.934C116.669 42.978 116.591 43 116.491 43H115.513V34.084H116.995V37.6ZM122.274 38.758H125.382V39.994H122.274V38.758ZM128.298 34.084V43H126.816V34.084H128.298ZM133.741 39.214C133.741 39.022 133.713 38.842 133.657 38.674C133.605 38.502 133.525 38.352 133.417 38.224C133.309 38.096 133.171 37.996 133.003 37.924C132.839 37.848 132.647 37.81 132.427 37.81C131.999 37.81 131.661 37.932 131.413 38.176C131.169 38.42 131.013 38.766 130.945 39.214H133.741ZM130.915 40.108C130.939 40.424 130.995 40.698 131.083 40.93C131.171 41.158 131.287 41.348 131.431 41.5C131.575 41.648 131.745 41.76 131.941 41.836C132.141 41.908 132.361 41.944 132.601 41.944C132.841 41.944 133.047 41.916 133.219 41.86C133.395 41.804 133.547 41.742 133.675 41.674C133.807 41.606 133.921 41.544 134.017 41.488C134.117 41.432 134.213 41.404 134.305 41.404C134.429 41.404 134.521 41.45 134.581 41.542L135.007 42.082C134.843 42.274 134.659 42.436 134.455 42.568C134.251 42.696 134.037 42.8 133.813 42.88C133.593 42.956 133.367 43.01 133.135 43.042C132.907 43.074 132.685 43.09 132.469 43.09C132.041 43.09 131.643 43.02 131.275 42.88C130.907 42.736 130.587 42.526 130.315 42.25C130.043 41.97 129.829 41.626 129.673 41.218C129.517 40.806 129.439 40.33 129.439 39.79C129.439 39.37 129.507 38.976 129.643 38.608C129.779 38.236 129.973 37.914 130.225 37.642C130.481 37.366 130.791 37.148 131.155 36.988C131.523 36.828 131.937 36.748 132.397 36.748C132.785 36.748 133.143 36.81 133.471 36.934C133.799 37.058 134.081 37.24 134.317 37.48C134.553 37.716 134.737 38.008 134.869 38.356C135.005 38.7 135.073 39.094 135.073 39.538C135.073 39.762 135.049 39.914 135.001 39.994C134.953 40.07 134.861 40.108 134.725 40.108H130.915ZM139.437 40.372C139.009 40.392 138.649 40.43 138.357 40.486C138.065 40.538 137.831 40.606 137.655 40.69C137.479 40.774 137.353 40.872 137.277 40.984C137.201 41.096 137.163 41.218 137.163 41.35C137.163 41.61 137.239 41.796 137.391 41.908C137.547 42.02 137.749 42.076 137.997 42.076C138.301 42.076 138.563 42.022 138.783 41.914C139.007 41.802 139.225 41.634 139.437 41.41V40.372ZM136.041 37.702C136.749 37.054 137.601 36.73 138.597 36.73C138.957 36.73 139.279 36.79 139.563 36.91C139.847 37.026 140.087 37.19 140.283 37.402C140.479 37.61 140.627 37.86 140.727 38.152C140.831 38.444 140.883 38.764 140.883 39.112V43H140.211C140.071 43 139.963 42.98 139.887 42.94C139.811 42.896 139.751 42.81 139.707 42.682L139.575 42.238C139.419 42.378 139.267 42.502 139.119 42.61C138.971 42.714 138.817 42.802 138.657 42.874C138.497 42.946 138.325 43 138.141 43.036C137.961 43.076 137.761 43.096 137.541 43.096C137.281 43.096 137.041 43.062 136.821 42.994C136.601 42.922 136.411 42.816 136.251 42.676C136.091 42.536 135.967 42.362 135.879 42.154C135.791 41.946 135.747 41.704 135.747 41.428C135.747 41.272 135.773 41.118 135.825 40.966C135.877 40.81 135.961 40.662 136.077 40.522C136.197 40.382 136.351 40.25 136.539 40.126C136.727 40.002 136.957 39.894 137.229 39.802C137.505 39.71 137.825 39.636 138.189 39.58C138.553 39.52 138.969 39.484 139.437 39.472V39.112C139.437 38.7 139.349 38.396 139.173 38.2C138.997 38 138.743 37.9 138.411 37.9C138.171 37.9 137.971 37.928 137.811 37.984C137.655 38.04 137.517 38.104 137.397 38.176C137.277 38.244 137.167 38.306 137.067 38.362C136.971 38.418 136.863 38.446 136.743 38.446C136.639 38.446 136.551 38.42 136.479 38.368C136.407 38.312 136.349 38.248 136.305 38.176L136.041 37.702ZM143.677 37.912C143.869 37.544 144.097 37.256 144.361 37.048C144.625 36.836 144.937 36.73 145.297 36.73C145.581 36.73 145.809 36.792 145.981 36.916L145.885 38.026C145.865 38.098 145.835 38.15 145.795 38.182C145.759 38.21 145.709 38.224 145.645 38.224C145.585 38.224 145.495 38.214 145.375 38.194C145.259 38.174 145.145 38.164 145.033 38.164C144.869 38.164 144.723 38.188 144.595 38.236C144.467 38.284 144.351 38.354 144.247 38.446C144.147 38.534 144.057 38.642 143.977 38.77C143.901 38.898 143.829 39.044 143.761 39.208V43H142.279V36.844H143.149C143.301 36.844 143.407 36.872 143.467 36.928C143.527 36.98 143.567 37.076 143.587 37.216L143.677 37.912ZM148.141 37.6C148.265 37.476 148.395 37.362 148.531 37.258C148.671 37.15 148.817 37.06 148.969 36.988C149.125 36.912 149.291 36.854 149.467 36.814C149.643 36.77 149.835 36.748 150.043 36.748C150.379 36.748 150.677 36.806 150.937 36.922C151.197 37.034 151.413 37.194 151.585 37.402C151.761 37.606 151.893 37.852 151.981 38.14C152.073 38.424 152.119 38.738 152.119 39.082V43H150.637V39.082C150.637 38.706 150.551 38.416 150.379 38.212C150.207 38.004 149.945 37.9 149.593 37.9C149.337 37.9 149.097 37.958 148.873 38.074C148.649 38.19 148.437 38.348 148.237 38.548V43H146.755V36.844H147.661C147.853 36.844 147.979 36.934 148.039 37.114L148.141 37.6ZM155.065 36.844V43H153.577V36.844H155.065ZM155.269 35.05C155.269 35.178 155.243 35.298 155.191 35.41C155.139 35.522 155.069 35.62 154.981 35.704C154.897 35.788 154.797 35.856 154.681 35.908C154.565 35.956 154.441 35.98 154.309 35.98C154.181 35.98 154.059 35.956 153.943 35.908C153.831 35.856 153.733 35.788 153.649 35.704C153.565 35.62 153.497 35.522 153.445 35.41C153.397 35.298 153.373 35.178 153.373 35.05C153.373 34.918 153.397 34.794 153.445 34.678C153.497 34.562 153.565 34.462 153.649 34.378C153.733 34.294 153.831 34.228 153.943 34.18C154.059 34.128 154.181 34.102 154.309 34.102C154.441 34.102 154.565 34.128 154.681 34.18C154.797 34.228 154.897 34.294 154.981 34.378C155.069 34.462 155.139 34.562 155.191 34.678C155.243 34.794 155.269 34.918 155.269 35.05ZM157.962 37.6C158.086 37.476 158.216 37.362 158.352 37.258C158.492 37.15 158.638 37.06 158.79 36.988C158.946 36.912 159.112 36.854 159.288 36.814C159.464 36.77 159.656 36.748 159.864 36.748C160.2 36.748 160.498 36.806 160.758 36.922C161.018 37.034 161.234 37.194 161.406 37.402C161.582 37.606 161.714 37.852 161.802 38.14C161.894 38.424 161.94 38.738 161.94 39.082V43H160.458V39.082C160.458 38.706 160.372 38.416 160.2 38.212C160.028 38.004 159.766 37.9 159.414 37.9C159.158 37.9 158.918 37.958 158.694 38.074C158.47 38.19 158.258 38.348 158.058 38.548V43H156.576V36.844H157.482C157.674 36.844 157.8 36.934 157.86 37.114L157.962 37.6ZM165.599 39.772C165.783 39.772 165.943 39.748 166.079 39.7C166.215 39.648 166.327 39.578 166.415 39.49C166.507 39.402 166.575 39.296 166.619 39.172C166.667 39.048 166.691 38.912 166.691 38.764C166.691 38.46 166.599 38.22 166.415 38.044C166.235 37.864 165.963 37.774 165.599 37.774C165.235 37.774 164.961 37.864 164.777 38.044C164.597 38.22 164.507 38.46 164.507 38.764C164.507 38.908 164.529 39.042 164.573 39.166C164.621 39.29 164.689 39.398 164.777 39.49C164.869 39.578 164.983 39.648 165.119 39.7C165.259 39.748 165.419 39.772 165.599 39.772ZM167.273 43.276C167.273 43.156 167.237 43.058 167.165 42.982C167.093 42.906 166.995 42.848 166.871 42.808C166.747 42.764 166.601 42.732 166.433 42.712C166.269 42.692 166.093 42.678 165.905 42.67C165.721 42.658 165.529 42.648 165.329 42.64C165.133 42.632 164.941 42.616 164.753 42.592C164.589 42.684 164.455 42.792 164.351 42.916C164.251 43.04 164.201 43.184 164.201 43.348C164.201 43.456 164.227 43.556 164.279 43.648C164.335 43.744 164.421 43.826 164.537 43.894C164.657 43.962 164.811 44.014 164.999 44.05C165.187 44.09 165.417 44.11 165.689 44.11C165.965 44.11 166.203 44.088 166.403 44.044C166.603 44.004 166.767 43.946 166.895 43.87C167.027 43.798 167.123 43.71 167.183 43.606C167.243 43.506 167.273 43.396 167.273 43.276ZM168.749 37.054V37.606C168.749 37.782 168.643 37.89 168.431 37.93L167.879 38.032C167.963 38.244 168.005 38.476 168.005 38.728C168.005 39.032 167.943 39.308 167.819 39.556C167.699 39.8 167.531 40.008 167.315 40.18C167.099 40.352 166.843 40.486 166.547 40.582C166.255 40.674 165.939 40.72 165.599 40.72C165.479 40.72 165.363 40.714 165.251 40.702C165.139 40.69 165.029 40.674 164.921 40.654C164.729 40.77 164.633 40.9 164.633 41.044C164.633 41.168 164.689 41.26 164.801 41.32C164.917 41.376 165.069 41.416 165.257 41.44C165.445 41.464 165.659 41.48 165.899 41.488C166.139 41.492 166.385 41.504 166.637 41.524C166.889 41.544 167.135 41.58 167.375 41.632C167.615 41.68 167.829 41.758 168.017 41.866C168.205 41.974 168.355 42.122 168.467 42.31C168.583 42.494 168.641 42.732 168.641 43.024C168.641 43.296 168.573 43.56 168.437 43.816C168.305 44.072 168.111 44.3 167.855 44.5C167.603 44.7 167.291 44.86 166.919 44.98C166.551 45.104 166.131 45.166 165.659 45.166C165.195 45.166 164.791 45.12 164.447 45.028C164.103 44.94 163.817 44.82 163.589 44.668C163.361 44.52 163.191 44.348 163.079 44.152C162.967 43.956 162.911 43.752 162.911 43.54C162.911 43.252 162.997 43.012 163.169 42.82C163.345 42.624 163.585 42.468 163.889 42.352C163.725 42.268 163.595 42.156 163.499 42.016C163.403 41.876 163.355 41.692 163.355 41.464C163.355 41.372 163.371 41.278 163.403 41.182C163.439 41.082 163.489 40.984 163.553 40.888C163.621 40.792 163.705 40.702 163.805 40.618C163.905 40.53 164.023 40.452 164.159 40.384C163.847 40.216 163.601 39.992 163.421 39.712C163.245 39.432 163.157 39.104 163.157 38.728C163.157 38.424 163.217 38.15 163.337 37.906C163.461 37.658 163.631 37.448 163.847 37.276C164.067 37.1 164.325 36.966 164.621 36.874C164.921 36.782 165.247 36.736 165.599 36.736C165.863 36.736 166.111 36.764 166.343 36.82C166.575 36.872 166.787 36.95 166.979 37.054H168.749ZM174.143 36.844V43H172.655V36.844H174.143ZM174.347 35.05C174.347 35.178 174.321 35.298 174.269 35.41C174.217 35.522 174.147 35.62 174.059 35.704C173.975 35.788 173.875 35.856 173.759 35.908C173.643 35.956 173.519 35.98 173.387 35.98C173.259 35.98 173.137 35.956 173.021 35.908C172.909 35.856 172.811 35.788 172.727 35.704C172.643 35.62 172.575 35.522 172.523 35.41C172.475 35.298 172.451 35.178 172.451 35.05C172.451 34.918 172.475 34.794 172.523 34.678C172.575 34.562 172.643 34.462 172.727 34.378C172.811 34.294 172.909 34.228 173.021 34.18C173.137 34.128 173.259 34.102 173.387 34.102C173.519 34.102 173.643 34.128 173.759 34.18C173.875 34.228 173.975 34.294 174.059 34.378C174.147 34.462 174.217 34.562 174.269 34.678C174.321 34.794 174.347 34.918 174.347 35.05ZM177.04 37.6C177.164 37.476 177.294 37.362 177.43 37.258C177.57 37.15 177.716 37.06 177.868 36.988C178.024 36.912 178.19 36.854 178.366 36.814C178.542 36.77 178.734 36.748 178.942 36.748C179.278 36.748 179.576 36.806 179.836 36.922C180.096 37.034 180.312 37.194 180.484 37.402C180.66 37.606 180.792 37.852 180.88 38.14C180.972 38.424 181.018 38.738 181.018 39.082V43H179.536V39.082C179.536 38.706 179.45 38.416 179.278 38.212C179.106 38.004 178.844 37.9 178.492 37.9C178.236 37.9 177.996 37.958 177.772 38.074C177.548 38.19 177.336 38.348 177.136 38.548V43H175.654V36.844H176.56C176.752 36.844 176.878 36.934 176.938 37.114L177.04 37.6ZM187.199 35.608V38.014H190.235V39.256H187.199V41.71H191.051V43H185.579V34.324H191.051V35.608H187.199ZM193.505 37.6C193.629 37.476 193.759 37.362 193.895 37.258C194.035 37.15 194.181 37.06 194.333 36.988C194.489 36.912 194.655 36.854 194.831 36.814C195.007 36.77 195.199 36.748 195.407 36.748C195.743 36.748 196.041 36.806 196.301 36.922C196.561 37.034 196.777 37.194 196.949 37.402C197.125 37.606 197.257 37.852 197.345 38.14C197.437 38.424 197.483 38.738 197.483 39.082V43H196.001V39.082C196.001 38.706 195.915 38.416 195.743 38.212C195.571 38.004 195.309 37.9 194.957 37.9C194.701 37.9 194.461 37.958 194.237 38.074C194.013 38.19 193.801 38.348 193.601 38.548V43H192.119V36.844H193.025C193.217 36.844 193.343 36.934 193.403 37.114L193.505 37.6ZM201.142 39.772C201.326 39.772 201.486 39.748 201.622 39.7C201.758 39.648 201.87 39.578 201.958 39.49C202.05 39.402 202.118 39.296 202.162 39.172C202.21 39.048 202.234 38.912 202.234 38.764C202.234 38.46 202.142 38.22 201.958 38.044C201.778 37.864 201.506 37.774 201.142 37.774C200.778 37.774 200.504 37.864 200.32 38.044C200.14 38.22 200.05 38.46 200.05 38.764C200.05 38.908 200.072 39.042 200.116 39.166C200.164 39.29 200.232 39.398 200.32 39.49C200.412 39.578 200.526 39.648 200.662 39.7C200.802 39.748 200.962 39.772 201.142 39.772ZM202.816 43.276C202.816 43.156 202.78 43.058 202.708 42.982C202.636 42.906 202.538 42.848 202.414 42.808C202.29 42.764 202.144 42.732 201.976 42.712C201.812 42.692 201.636 42.678 201.448 42.67C201.264 42.658 201.072 42.648 200.872 42.64C200.676 42.632 200.484 42.616 200.296 42.592C200.132 42.684 199.998 42.792 199.894 42.916C199.794 43.04 199.744 43.184 199.744 43.348C199.744 43.456 199.77 43.556 199.822 43.648C199.878 43.744 199.964 43.826 200.08 43.894C200.2 43.962 200.354 44.014 200.542 44.05C200.73 44.09 200.96 44.11 201.232 44.11C201.508 44.11 201.746 44.088 201.946 44.044C202.146 44.004 202.31 43.946 202.438 43.87C202.57 43.798 202.666 43.71 202.726 43.606C202.786 43.506 202.816 43.396 202.816 43.276ZM204.292 37.054V37.606C204.292 37.782 204.186 37.89 203.974 37.93L203.422 38.032C203.506 38.244 203.548 38.476 203.548 38.728C203.548 39.032 203.486 39.308 203.362 39.556C203.242 39.8 203.074 40.008 202.858 40.18C202.642 40.352 202.386 40.486 202.09 40.582C201.798 40.674 201.482 40.72 201.142 40.72C201.022 40.72 200.906 40.714 200.794 40.702C200.682 40.69 200.572 40.674 200.464 40.654C200.272 40.77 200.176 40.9 200.176 41.044C200.176 41.168 200.232 41.26 200.344 41.32C200.46 41.376 200.612 41.416 200.8 41.44C200.988 41.464 201.202 41.48 201.442 41.488C201.682 41.492 201.928 41.504 202.18 41.524C202.432 41.544 202.678 41.58 202.918 41.632C203.158 41.68 203.372 41.758 203.56 41.866C203.748 41.974 203.898 42.122 204.01 42.31C204.126 42.494 204.184 42.732 204.184 43.024C204.184 43.296 204.116 43.56 203.98 43.816C203.848 44.072 203.654 44.3 203.398 44.5C203.146 44.7 202.834 44.86 202.462 44.98C202.094 45.104 201.674 45.166 201.202 45.166C200.738 45.166 200.334 45.12 199.99 45.028C199.646 44.94 199.36 44.82 199.132 44.668C198.904 44.52 198.734 44.348 198.622 44.152C198.51 43.956 198.454 43.752 198.454 43.54C198.454 43.252 198.54 43.012 198.712 42.82C198.888 42.624 199.128 42.468 199.432 42.352C199.268 42.268 199.138 42.156 199.042 42.016C198.946 41.876 198.898 41.692 198.898 41.464C198.898 41.372 198.914 41.278 198.946 41.182C198.982 41.082 199.032 40.984 199.096 40.888C199.164 40.792 199.248 40.702 199.348 40.618C199.448 40.53 199.566 40.452 199.702 40.384C199.39 40.216 199.144 39.992 198.964 39.712C198.788 39.432 198.7 39.104 198.7 38.728C198.7 38.424 198.76 38.15 198.88 37.906C199.004 37.658 199.174 37.448 199.39 37.276C199.61 37.1 199.868 36.966 200.164 36.874C200.464 36.782 200.79 36.736 201.142 36.736C201.406 36.736 201.654 36.764 201.886 36.82C202.118 36.872 202.33 36.95 202.522 37.054H204.292ZM206.732 34.084V43H205.25V34.084H206.732ZM209.745 36.844V43H208.257V36.844H209.745ZM209.949 35.05C209.949 35.178 209.923 35.298 209.871 35.41C209.819 35.522 209.749 35.62 209.661 35.704C209.577 35.788 209.477 35.856 209.361 35.908C209.245 35.956 209.121 35.98 208.989 35.98C208.861 35.98 208.739 35.956 208.623 35.908C208.511 35.856 208.413 35.788 208.329 35.704C208.245 35.62 208.177 35.522 208.125 35.41C208.077 35.298 208.053 35.178 208.053 35.05C208.053 34.918 208.077 34.794 208.125 34.678C208.177 34.562 208.245 34.462 208.329 34.378C208.413 34.294 208.511 34.228 208.623 34.18C208.739 34.128 208.861 34.102 208.989 34.102C209.121 34.102 209.245 34.128 209.361 34.18C209.477 34.228 209.577 34.294 209.661 34.378C209.749 34.462 209.819 34.562 209.871 34.678C209.923 34.794 209.949 34.918 209.949 35.05ZM215.011 38.044C214.971 38.108 214.929 38.154 214.885 38.182C214.841 38.206 214.785 38.218 214.717 38.218C214.645 38.218 214.567 38.198 214.483 38.158C214.403 38.118 214.309 38.074 214.201 38.026C214.093 37.974 213.969 37.928 213.829 37.888C213.693 37.848 213.531 37.828 213.343 37.828C213.051 37.828 212.821 37.89 212.653 38.014C212.489 38.138 212.407 38.3 212.407 38.5C212.407 38.632 212.449 38.744 212.533 38.836C212.621 38.924 212.735 39.002 212.875 39.07C213.019 39.138 213.181 39.2 213.361 39.256C213.541 39.308 213.723 39.366 213.907 39.43C214.095 39.494 214.279 39.568 214.459 39.652C214.639 39.732 214.799 39.836 214.939 39.964C215.083 40.088 215.197 40.238 215.281 40.414C215.369 40.59 215.413 40.802 215.413 41.05C215.413 41.346 215.359 41.62 215.251 41.872C215.147 42.12 214.991 42.336 214.783 42.52C214.575 42.7 214.317 42.842 214.009 42.946C213.705 43.046 213.353 43.096 212.953 43.096C212.741 43.096 212.533 43.076 212.329 43.036C212.129 43 211.935 42.948 211.747 42.88C211.563 42.812 211.391 42.732 211.231 42.64C211.075 42.548 210.937 42.448 210.817 42.34L211.159 41.776C211.203 41.708 211.255 41.656 211.315 41.62C211.375 41.584 211.451 41.566 211.543 41.566C211.635 41.566 211.721 41.592 211.801 41.644C211.885 41.696 211.981 41.752 212.089 41.812C212.197 41.872 212.323 41.928 212.467 41.98C212.615 42.032 212.801 42.058 213.025 42.058C213.201 42.058 213.351 42.038 213.475 41.998C213.603 41.954 213.707 41.898 213.787 41.83C213.871 41.762 213.931 41.684 213.967 41.596C214.007 41.504 214.027 41.41 214.027 41.314C214.027 41.17 213.983 41.052 213.895 40.96C213.811 40.868 213.697 40.788 213.553 40.72C213.413 40.652 213.251 40.592 213.067 40.54C212.887 40.484 212.701 40.424 212.509 40.36C212.321 40.296 212.135 40.222 211.951 40.138C211.771 40.05 211.609 39.94 211.465 39.808C211.325 39.676 211.211 39.514 211.123 39.322C211.039 39.13 210.997 38.898 210.997 38.626C210.997 38.374 211.047 38.134 211.147 37.906C211.247 37.678 211.393 37.48 211.585 37.312C211.781 37.14 212.023 37.004 212.311 36.904C212.603 36.8 212.939 36.748 213.319 36.748C213.743 36.748 214.129 36.818 214.477 36.958C214.825 37.098 215.115 37.282 215.347 37.51L215.011 38.044ZM218.011 37.504C218.251 37.28 218.515 37.098 218.803 36.958C219.091 36.818 219.429 36.748 219.817 36.748C220.153 36.748 220.451 36.806 220.711 36.922C220.971 37.034 221.187 37.194 221.359 37.402C221.535 37.606 221.667 37.852 221.755 38.14C221.847 38.424 221.893 38.738 221.893 39.082V43H220.411V39.082C220.411 38.706 220.325 38.416 220.153 38.212C219.981 38.004 219.719 37.9 219.367 37.9C219.111 37.9 218.871 37.958 218.647 38.074C218.423 38.19 218.211 38.348 218.011 38.548V43H216.529V34.084H218.011V37.504ZM231.536 41.668V43H226.454V34.324H228.068V41.668H231.536ZM235.707 40.372C235.279 40.392 234.919 40.43 234.627 40.486C234.335 40.538 234.101 40.606 233.925 40.69C233.749 40.774 233.623 40.872 233.547 40.984C233.471 41.096 233.433 41.218 233.433 41.35C233.433 41.61 233.509 41.796 233.661 41.908C233.817 42.02 234.019 42.076 234.267 42.076C234.571 42.076 234.833 42.022 235.053 41.914C235.277 41.802 235.495 41.634 235.707 41.41V40.372ZM232.311 37.702C233.019 37.054 233.871 36.73 234.867 36.73C235.227 36.73 235.549 36.79 235.833 36.91C236.117 37.026 236.357 37.19 236.553 37.402C236.749 37.61 236.897 37.86 236.997 38.152C237.101 38.444 237.153 38.764 237.153 39.112V43H236.481C236.341 43 236.233 42.98 236.157 42.94C236.081 42.896 236.021 42.81 235.977 42.682L235.845 42.238C235.689 42.378 235.537 42.502 235.389 42.61C235.241 42.714 235.087 42.802 234.927 42.874C234.767 42.946 234.595 43 234.411 43.036C234.231 43.076 234.031 43.096 233.811 43.096C233.551 43.096 233.311 43.062 233.091 42.994C232.871 42.922 232.681 42.816 232.521 42.676C232.361 42.536 232.237 42.362 232.149 42.154C232.061 41.946 232.017 41.704 232.017 41.428C232.017 41.272 232.043 41.118 232.095 40.966C232.147 40.81 232.231 40.662 232.347 40.522C232.467 40.382 232.621 40.25 232.809 40.126C232.997 40.002 233.227 39.894 233.499 39.802C233.775 39.71 234.095 39.636 234.459 39.58C234.823 39.52 235.239 39.484 235.707 39.472V39.112C235.707 38.7 235.619 38.396 235.443 38.2C235.267 38 235.013 37.9 234.681 37.9C234.441 37.9 234.241 37.928 234.081 37.984C233.925 38.04 233.787 38.104 233.667 38.176C233.547 38.244 233.437 38.306 233.337 38.362C233.241 38.418 233.133 38.446 233.013 38.446C232.909 38.446 232.821 38.42 232.749 38.368C232.677 38.312 232.619 38.248 232.575 38.176L232.311 37.702ZM239.934 37.6C240.058 37.476 240.188 37.362 240.324 37.258C240.464 37.15 240.61 37.06 240.762 36.988C240.918 36.912 241.084 36.854 241.26 36.814C241.436 36.77 241.628 36.748 241.836 36.748C242.172 36.748 242.47 36.806 242.73 36.922C242.99 37.034 243.206 37.194 243.378 37.402C243.554 37.606 243.686 37.852 243.774 38.14C243.866 38.424 243.912 38.738 243.912 39.082V43H242.43V39.082C242.43 38.706 242.344 38.416 242.172 38.212C242 38.004 241.738 37.9 241.386 37.9C241.13 37.9 240.89 37.958 240.666 38.074C240.442 38.19 240.23 38.348 240.03 38.548V43H238.548V36.844H239.454C239.646 36.844 239.772 36.934 239.832 37.114L239.934 37.6ZM247.572 39.772C247.756 39.772 247.916 39.748 248.052 39.7C248.188 39.648 248.3 39.578 248.388 39.49C248.48 39.402 248.548 39.296 248.592 39.172C248.64 39.048 248.664 38.912 248.664 38.764C248.664 38.46 248.572 38.22 248.388 38.044C248.208 37.864 247.936 37.774 247.572 37.774C247.208 37.774 246.934 37.864 246.75 38.044C246.57 38.22 246.48 38.46 246.48 38.764C246.48 38.908 246.502 39.042 246.546 39.166C246.594 39.29 246.662 39.398 246.75 39.49C246.842 39.578 246.956 39.648 247.092 39.7C247.232 39.748 247.392 39.772 247.572 39.772ZM249.246 43.276C249.246 43.156 249.21 43.058 249.138 42.982C249.066 42.906 248.968 42.848 248.844 42.808C248.72 42.764 248.574 42.732 248.406 42.712C248.242 42.692 248.066 42.678 247.878 42.67C247.694 42.658 247.502 42.648 247.302 42.64C247.106 42.632 246.914 42.616 246.726 42.592C246.562 42.684 246.428 42.792 246.324 42.916C246.224 43.04 246.174 43.184 246.174 43.348C246.174 43.456 246.2 43.556 246.252 43.648C246.308 43.744 246.394 43.826 246.51 43.894C246.63 43.962 246.784 44.014 246.972 44.05C247.16 44.09 247.39 44.11 247.662 44.11C247.938 44.11 248.176 44.088 248.376 44.044C248.576 44.004 248.74 43.946 248.868 43.87C249 43.798 249.096 43.71 249.156 43.606C249.216 43.506 249.246 43.396 249.246 43.276ZM250.722 37.054V37.606C250.722 37.782 250.616 37.89 250.404 37.93L249.852 38.032C249.936 38.244 249.978 38.476 249.978 38.728C249.978 39.032 249.916 39.308 249.792 39.556C249.672 39.8 249.504 40.008 249.288 40.18C249.072 40.352 248.816 40.486 248.52 40.582C248.228 40.674 247.912 40.72 247.572 40.72C247.452 40.72 247.336 40.714 247.224 40.702C247.112 40.69 247.002 40.674 246.894 40.654C246.702 40.77 246.606 40.9 246.606 41.044C246.606 41.168 246.662 41.26 246.774 41.32C246.89 41.376 247.042 41.416 247.23 41.44C247.418 41.464 247.632 41.48 247.872 41.488C248.112 41.492 248.358 41.504 248.61 41.524C248.862 41.544 249.108 41.58 249.348 41.632C249.588 41.68 249.802 41.758 249.99 41.866C250.178 41.974 250.328 42.122 250.44 42.31C250.556 42.494 250.614 42.732 250.614 43.024C250.614 43.296 250.546 43.56 250.41 43.816C250.278 44.072 250.084 44.3 249.828 44.5C249.576 44.7 249.264 44.86 248.892 44.98C248.524 45.104 248.104 45.166 247.632 45.166C247.168 45.166 246.764 45.12 246.42 45.028C246.076 44.94 245.79 44.82 245.562 44.668C245.334 44.52 245.164 44.348 245.052 44.152C244.94 43.956 244.884 43.752 244.884 43.54C244.884 43.252 244.97 43.012 245.142 42.82C245.318 42.624 245.558 42.468 245.862 42.352C245.698 42.268 245.568 42.156 245.472 42.016C245.376 41.876 245.328 41.692 245.328 41.464C245.328 41.372 245.344 41.278 245.376 41.182C245.412 41.082 245.462 40.984 245.526 40.888C245.594 40.792 245.678 40.702 245.778 40.618C245.878 40.53 245.996 40.452 246.132 40.384C245.82 40.216 245.574 39.992 245.394 39.712C245.218 39.432 245.13 39.104 245.13 38.728C245.13 38.424 245.19 38.15 245.31 37.906C245.434 37.658 245.604 37.448 245.82 37.276C246.04 37.1 246.298 36.966 246.594 36.874C246.894 36.782 247.22 36.736 247.572 36.736C247.836 36.736 248.084 36.764 248.316 36.82C248.548 36.872 248.76 36.95 248.952 37.054H250.722ZM256.966 36.844V43H256.06C255.864 43 255.74 42.91 255.688 42.73L255.586 42.238C255.334 42.494 255.056 42.702 254.752 42.862C254.448 43.018 254.09 43.096 253.678 43.096C253.342 43.096 253.044 43.04 252.784 42.928C252.528 42.812 252.312 42.65 252.136 42.442C251.96 42.234 251.826 41.988 251.734 41.704C251.646 41.416 251.602 41.1 251.602 40.756V36.844H253.084V40.756C253.084 41.132 253.17 41.424 253.342 41.632C253.518 41.836 253.78 41.938 254.128 41.938C254.384 41.938 254.624 41.882 254.848 41.77C255.072 41.654 255.284 41.496 255.484 41.296V36.844H256.966ZM261.687 40.372C261.259 40.392 260.899 40.43 260.607 40.486C260.315 40.538 260.081 40.606 259.905 40.69C259.729 40.774 259.603 40.872 259.527 40.984C259.451 41.096 259.413 41.218 259.413 41.35C259.413 41.61 259.489 41.796 259.641 41.908C259.797 42.02 259.999 42.076 260.247 42.076C260.551 42.076 260.813 42.022 261.033 41.914C261.257 41.802 261.475 41.634 261.687 41.41V40.372ZM258.291 37.702C258.999 37.054 259.851 36.73 260.847 36.73C261.207 36.73 261.529 36.79 261.813 36.91C262.097 37.026 262.337 37.19 262.533 37.402C262.729 37.61 262.877 37.86 262.977 38.152C263.081 38.444 263.133 38.764 263.133 39.112V43H262.461C262.321 43 262.213 42.98 262.137 42.94C262.061 42.896 262.001 42.81 261.957 42.682L261.825 42.238C261.669 42.378 261.517 42.502 261.369 42.61C261.221 42.714 261.067 42.802 260.907 42.874C260.747 42.946 260.575 43 260.391 43.036C260.211 43.076 260.011 43.096 259.791 43.096C259.531 43.096 259.291 43.062 259.071 42.994C258.851 42.922 258.661 42.816 258.501 42.676C258.341 42.536 258.217 42.362 258.129 42.154C258.041 41.946 257.997 41.704 257.997 41.428C257.997 41.272 258.023 41.118 258.075 40.966C258.127 40.81 258.211 40.662 258.327 40.522C258.447 40.382 258.601 40.25 258.789 40.126C258.977 40.002 259.207 39.894 259.479 39.802C259.755 39.71 260.075 39.636 260.439 39.58C260.803 39.52 261.219 39.484 261.687 39.472V39.112C261.687 38.7 261.599 38.396 261.423 38.2C261.247 38 260.993 37.9 260.661 37.9C260.421 37.9 260.221 37.928 260.061 37.984C259.905 38.04 259.767 38.104 259.647 38.176C259.527 38.244 259.417 38.306 259.317 38.362C259.221 38.418 259.113 38.446 258.993 38.446C258.889 38.446 258.801 38.42 258.729 38.368C258.657 38.312 258.599 38.248 258.555 38.176L258.291 37.702ZM266.779 39.772C266.963 39.772 267.123 39.748 267.259 39.7C267.395 39.648 267.507 39.578 267.595 39.49C267.687 39.402 267.755 39.296 267.799 39.172C267.847 39.048 267.871 38.912 267.871 38.764C267.871 38.46 267.779 38.22 267.595 38.044C267.415 37.864 267.143 37.774 266.779 37.774C266.415 37.774 266.141 37.864 265.957 38.044C265.777 38.22 265.687 38.46 265.687 38.764C265.687 38.908 265.709 39.042 265.753 39.166C265.801 39.29 265.869 39.398 265.957 39.49C266.049 39.578 266.163 39.648 266.299 39.7C266.439 39.748 266.599 39.772 266.779 39.772ZM268.453 43.276C268.453 43.156 268.417 43.058 268.345 42.982C268.273 42.906 268.175 42.848 268.051 42.808C267.927 42.764 267.781 42.732 267.613 42.712C267.449 42.692 267.273 42.678 267.085 42.67C266.901 42.658 266.709 42.648 266.509 42.64C266.313 42.632 266.121 42.616 265.933 42.592C265.769 42.684 265.635 42.792 265.531 42.916C265.431 43.04 265.381 43.184 265.381 43.348C265.381 43.456 265.407 43.556 265.459 43.648C265.515 43.744 265.601 43.826 265.717 43.894C265.837 43.962 265.991 44.014 266.179 44.05C266.367 44.09 266.597 44.11 266.869 44.11C267.145 44.11 267.383 44.088 267.583 44.044C267.783 44.004 267.947 43.946 268.075 43.87C268.207 43.798 268.303 43.71 268.363 43.606C268.423 43.506 268.453 43.396 268.453 43.276ZM269.929 37.054V37.606C269.929 37.782 269.823 37.89 269.611 37.93L269.059 38.032C269.143 38.244 269.185 38.476 269.185 38.728C269.185 39.032 269.123 39.308 268.999 39.556C268.879 39.8 268.711 40.008 268.495 40.18C268.279 40.352 268.023 40.486 267.727 40.582C267.435 40.674 267.119 40.72 266.779 40.72C266.659 40.72 266.543 40.714 266.431 40.702C266.319 40.69 266.209 40.674 266.101 40.654C265.909 40.77 265.813 40.9 265.813 41.044C265.813 41.168 265.869 41.26 265.981 41.32C266.097 41.376 266.249 41.416 266.437 41.44C266.625 41.464 266.839 41.48 267.079 41.488C267.319 41.492 267.565 41.504 267.817 41.524C268.069 41.544 268.315 41.58 268.555 41.632C268.795 41.68 269.009 41.758 269.197 41.866C269.385 41.974 269.535 42.122 269.647 42.31C269.763 42.494 269.821 42.732 269.821 43.024C269.821 43.296 269.753 43.56 269.617 43.816C269.485 44.072 269.291 44.3 269.035 44.5C268.783 44.7 268.471 44.86 268.099 44.98C267.731 45.104 267.311 45.166 266.839 45.166C266.375 45.166 265.971 45.12 265.627 45.028C265.283 44.94 264.997 44.82 264.769 44.668C264.541 44.52 264.371 44.348 264.259 44.152C264.147 43.956 264.091 43.752 264.091 43.54C264.091 43.252 264.177 43.012 264.349 42.82C264.525 42.624 264.765 42.468 265.069 42.352C264.905 42.268 264.775 42.156 264.679 42.016C264.583 41.876 264.535 41.692 264.535 41.464C264.535 41.372 264.551 41.278 264.583 41.182C264.619 41.082 264.669 40.984 264.733 40.888C264.801 40.792 264.885 40.702 264.985 40.618C265.085 40.53 265.203 40.452 265.339 40.384C265.027 40.216 264.781 39.992 264.601 39.712C264.425 39.432 264.337 39.104 264.337 38.728C264.337 38.424 264.397 38.15 264.517 37.906C264.641 37.658 264.811 37.448 265.027 37.276C265.247 37.1 265.505 36.966 265.801 36.874C266.101 36.782 266.427 36.736 266.779 36.736C267.043 36.736 267.291 36.764 267.523 36.82C267.755 36.872 267.967 36.95 268.159 37.054H269.929ZM274.729 39.214C274.729 39.022 274.701 38.842 274.645 38.674C274.593 38.502 274.513 38.352 274.405 38.224C274.297 38.096 274.159 37.996 273.991 37.924C273.827 37.848 273.635 37.81 273.415 37.81C272.987 37.81 272.649 37.932 272.401 38.176C272.157 38.42 272.001 38.766 271.933 39.214H274.729ZM271.903 40.108C271.927 40.424 271.983 40.698 272.071 40.93C272.159 41.158 272.275 41.348 272.419 41.5C272.563 41.648 272.733 41.76 272.929 41.836C273.129 41.908 273.349 41.944 273.589 41.944C273.829 41.944 274.035 41.916 274.207 41.86C274.383 41.804 274.535 41.742 274.663 41.674C274.795 41.606 274.909 41.544 275.005 41.488C275.105 41.432 275.201 41.404 275.293 41.404C275.417 41.404 275.509 41.45 275.569 41.542L275.995 42.082C275.831 42.274 275.647 42.436 275.443 42.568C275.239 42.696 275.025 42.8 274.801 42.88C274.581 42.956 274.355 43.01 274.123 43.042C273.895 43.074 273.673 43.09 273.457 43.09C273.029 43.09 272.631 43.02 272.263 42.88C271.895 42.736 271.575 42.526 271.303 42.25C271.031 41.97 270.817 41.626 270.661 41.218C270.505 40.806 270.427 40.33 270.427 39.79C270.427 39.37 270.495 38.976 270.631 38.608C270.767 38.236 270.961 37.914 271.213 37.642C271.469 37.366 271.779 37.148 272.143 36.988C272.511 36.828 272.925 36.748 273.385 36.748C273.773 36.748 274.131 36.81 274.459 36.934C274.787 37.058 275.069 37.24 275.305 37.48C275.541 37.716 275.725 38.008 275.857 38.356C275.993 38.7 276.061 39.094 276.061 39.538C276.061 39.762 276.037 39.914 275.989 39.994C275.941 40.07 275.849 40.108 275.713 40.108H271.903ZM42.026 49.65H39.41V57H37.796V49.65H35.18V48.324H42.026V49.65ZM45.4519 53.214C45.4519 53.022 45.4239 52.842 45.3679 52.674C45.3159 52.502 45.2359 52.352 45.1279 52.224C45.0199 52.096 44.8819 51.996 44.7139 51.924C44.5499 51.848 44.3579 51.81 44.1379 51.81C43.7099 51.81 43.3719 51.932 43.1239 52.176C42.8799 52.42 42.7239 52.766 42.6559 53.214H45.4519ZM42.6259 54.108C42.6499 54.424 42.7059 54.698 42.7939 54.93C42.8819 55.158 42.9979 55.348 43.1419 55.5C43.2859 55.648 43.4559 55.76 43.6519 55.836C43.8519 55.908 44.0719 55.944 44.3119 55.944C44.5519 55.944 44.7579 55.916 44.9299 55.86C45.1059 55.804 45.2579 55.742 45.3859 55.674C45.5179 55.606 45.6319 55.544 45.7279 55.488C45.8279 55.432 45.9239 55.404 46.0159 55.404C46.1399 55.404 46.2319 55.45 46.2919 55.542L46.7179 56.082C46.5539 56.274 46.3699 56.436 46.1659 56.568C45.9619 56.696 45.7479 56.8 45.5239 56.88C45.3039 56.956 45.0779 57.01 44.8459 57.042C44.6179 57.074 44.3959 57.09 44.1799 57.09C43.7519 57.09 43.3539 57.02 42.9859 56.88C42.6179 56.736 42.2979 56.526 42.0259 56.25C41.7539 55.97 41.5399 55.626 41.3839 55.218C41.2279 54.806 41.1499 54.33 41.1499 53.79C41.1499 53.37 41.2179 52.976 41.3539 52.608C41.4899 52.236 41.6839 51.914 41.9359 51.642C42.1919 51.366 42.5019 51.148 42.8659 50.988C43.2339 50.828 43.6479 50.748 44.1079 50.748C44.4959 50.748 44.8539 50.81 45.1819 50.934C45.5099 51.058 45.7919 51.24 46.0279 51.48C46.2639 51.716 46.4479 52.008 46.5799 52.356C46.7159 52.7 46.7839 53.094 46.7839 53.538C46.7839 53.762 46.7599 53.914 46.7119 53.994C46.6639 54.07 46.5719 54.108 46.4359 54.108H42.6259ZM51.1481 54.372C50.7201 54.392 50.3601 54.43 50.0681 54.486C49.7761 54.538 49.5421 54.606 49.3661 54.69C49.1901 54.774 49.0641 54.872 48.9881 54.984C48.9121 55.096 48.8741 55.218 48.8741 55.35C48.8741 55.61 48.9501 55.796 49.1021 55.908C49.2581 56.02 49.4601 56.076 49.7081 56.076C50.0121 56.076 50.2741 56.022 50.4941 55.914C50.7181 55.802 50.9361 55.634 51.1481 55.41V54.372ZM47.7521 51.702C48.4601 51.054 49.3121 50.73 50.3081 50.73C50.6681 50.73 50.9901 50.79 51.2741 50.91C51.5581 51.026 51.7981 51.19 51.9941 51.402C52.1901 51.61 52.3381 51.86 52.4381 52.152C52.5421 52.444 52.5941 52.764 52.5941 53.112V57H51.9221C51.7821 57 51.6741 56.98 51.5981 56.94C51.5221 56.896 51.4621 56.81 51.4181 56.682L51.2861 56.238C51.1301 56.378 50.9781 56.502 50.8301 56.61C50.6821 56.714 50.5281 56.802 50.3681 56.874C50.2081 56.946 50.0361 57 49.8521 57.036C49.6721 57.076 49.4721 57.096 49.2521 57.096C48.9921 57.096 48.7521 57.062 48.5321 56.994C48.3121 56.922 48.1221 56.816 47.9621 56.676C47.8021 56.536 47.6781 56.362 47.5901 56.154C47.5021 55.946 47.4581 55.704 47.4581 55.428C47.4581 55.272 47.4841 55.118 47.5361 54.966C47.5881 54.81 47.6721 54.662 47.7881 54.522C47.9081 54.382 48.0621 54.25 48.2501 54.126C48.4381 54.002 48.6681 53.894 48.9401 53.802C49.2161 53.71 49.5361 53.636 49.9001 53.58C50.2641 53.52 50.6801 53.484 51.1481 53.472V53.112C51.1481 52.7 51.0601 52.396 50.8841 52.2C50.7081 52 50.4541 51.9 50.1221 51.9C49.8821 51.9 49.6821 51.928 49.5221 51.984C49.3661 52.04 49.2281 52.104 49.1081 52.176C48.9881 52.244 48.8781 52.306 48.7781 52.362C48.6821 52.418 48.5741 52.446 48.4541 52.446C48.3501 52.446 48.2621 52.42 48.1901 52.368C48.1181 52.312 48.0601 52.248 48.0161 52.176L47.7521 51.702ZM58.3998 52.146C58.3558 52.202 58.3118 52.246 58.2678 52.278C58.2278 52.31 58.1678 52.326 58.0878 52.326C58.0118 52.326 57.9378 52.304 57.8658 52.26C57.7938 52.212 57.7078 52.16 57.6078 52.104C57.5078 52.044 57.3878 51.992 57.2478 51.948C57.1118 51.9 56.9418 51.876 56.7378 51.876C56.4778 51.876 56.2498 51.924 56.0538 52.02C55.8578 52.112 55.6938 52.246 55.5618 52.422C55.4338 52.598 55.3378 52.812 55.2738 53.064C55.2098 53.312 55.1778 53.594 55.1778 53.91C55.1778 54.238 55.2118 54.53 55.2798 54.786C55.3518 55.042 55.4538 55.258 55.5858 55.434C55.7178 55.606 55.8778 55.738 56.0658 55.83C56.2538 55.918 56.4658 55.962 56.7018 55.962C56.9378 55.962 57.1278 55.934 57.2718 55.878C57.4198 55.818 57.5438 55.754 57.6438 55.686C57.7438 55.614 57.8298 55.55 57.9018 55.494C57.9778 55.434 58.0618 55.404 58.1538 55.404C58.2738 55.404 58.3638 55.45 58.4238 55.542L58.8498 56.082C58.6858 56.274 58.5078 56.436 58.3158 56.568C58.1238 56.696 57.9238 56.8 57.7158 56.88C57.5118 56.956 57.2998 57.01 57.0798 57.042C56.8638 57.074 56.6478 57.09 56.4318 57.09C56.0518 57.09 55.6938 57.02 55.3578 56.88C55.0218 56.736 54.7278 56.528 54.4758 56.256C54.2238 55.984 54.0238 55.652 53.8758 55.26C53.7318 54.864 53.6598 54.414 53.6598 53.91C53.6598 53.458 53.7238 53.04 53.8518 52.656C53.9838 52.268 54.1758 51.934 54.4278 51.654C54.6798 51.37 54.9918 51.148 55.3638 50.988C55.7358 50.828 56.1638 50.748 56.6478 50.748C57.1078 50.748 57.5098 50.822 57.8538 50.97C58.2018 51.118 58.5138 51.33 58.7898 51.606L58.3998 52.146ZM61.2609 51.504C61.5009 51.28 61.7649 51.098 62.0529 50.958C62.3409 50.818 62.6789 50.748 63.0669 50.748C63.4029 50.748 63.7009 50.806 63.9609 50.922C64.2209 51.034 64.4369 51.194 64.6089 51.402C64.7849 51.606 64.9169 51.852 65.0049 52.14C65.0969 52.424 65.1429 52.738 65.1429 53.082V57H63.6609V53.082C63.6609 52.706 63.5749 52.416 63.4029 52.212C63.2309 52.004 62.9689 51.9 62.6169 51.9C62.3609 51.9 62.1209 51.958 61.8969 52.074C61.6729 52.19 61.4609 52.348 61.2609 52.548V57H59.7789V48.084H61.2609V51.504ZM68.0883 50.844V57H66.6003V50.844H68.0883ZM68.2923 49.05C68.2923 49.178 68.2663 49.298 68.2143 49.41C68.1623 49.522 68.0923 49.62 68.0043 49.704C67.9203 49.788 67.8203 49.856 67.7043 49.908C67.5883 49.956 67.4643 49.98 67.3323 49.98C67.2043 49.98 67.0823 49.956 66.9663 49.908C66.8543 49.856 66.7563 49.788 66.6723 49.704C66.5883 49.62 66.5203 49.522 66.4683 49.41C66.4203 49.298 66.3963 49.178 66.3963 49.05C66.3963 48.918 66.4203 48.794 66.4683 48.678C66.5203 48.562 66.5883 48.462 66.6723 48.378C66.7563 48.294 66.8543 48.228 66.9663 48.18C67.0823 48.128 67.2043 48.102 67.3323 48.102C67.4643 48.102 67.5883 48.128 67.7043 48.18C67.8203 48.228 67.9203 48.294 68.0043 48.378C68.0923 48.462 68.1623 48.562 68.2143 48.678C68.2663 48.794 68.2923 48.918 68.2923 49.05ZM70.9852 51.6C71.1092 51.476 71.2392 51.362 71.3752 51.258C71.5152 51.15 71.6612 51.06 71.8132 50.988C71.9692 50.912 72.1352 50.854 72.3112 50.814C72.4872 50.77 72.6792 50.748 72.8872 50.748C73.2232 50.748 73.5212 50.806 73.7812 50.922C74.0412 51.034 74.2572 51.194 74.4292 51.402C74.6052 51.606 74.7372 51.852 74.8252 52.14C74.9172 52.424 74.9632 52.738 74.9632 53.082V57H73.4812V53.082C73.4812 52.706 73.3952 52.416 73.2232 52.212C73.0512 52.004 72.7892 51.9 72.4372 51.9C72.1812 51.9 71.9412 51.958 71.7172 52.074C71.4932 52.19 71.2812 52.348 71.0812 52.548V57H69.5992V50.844H70.5052C70.6972 50.844 70.8232 50.934 70.8832 51.114L70.9852 51.6ZM78.6226 53.772C78.8066 53.772 78.9666 53.748 79.1026 53.7C79.2386 53.648 79.3506 53.578 79.4386 53.49C79.5306 53.402 79.5986 53.296 79.6426 53.172C79.6906 53.048 79.7146 52.912 79.7146 52.764C79.7146 52.46 79.6226 52.22 79.4386 52.044C79.2586 51.864 78.9866 51.774 78.6226 51.774C78.2586 51.774 77.9846 51.864 77.8006 52.044C77.6206 52.22 77.5306 52.46 77.5306 52.764C77.5306 52.908 77.5526 53.042 77.5966 53.166C77.6446 53.29 77.7126 53.398 77.8006 53.49C77.8926 53.578 78.0066 53.648 78.1426 53.7C78.2826 53.748 78.4426 53.772 78.6226 53.772ZM80.2966 57.276C80.2966 57.156 80.2606 57.058 80.1886 56.982C80.1166 56.906 80.0186 56.848 79.8946 56.808C79.7706 56.764 79.6246 56.732 79.4566 56.712C79.2926 56.692 79.1166 56.678 78.9286 56.67C78.7446 56.658 78.5526 56.648 78.3526 56.64C78.1566 56.632 77.9646 56.616 77.7766 56.592C77.6126 56.684 77.4786 56.792 77.3746 56.916C77.2746 57.04 77.2246 57.184 77.2246 57.348C77.2246 57.456 77.2506 57.556 77.3026 57.648C77.3586 57.744 77.4446 57.826 77.5606 57.894C77.6806 57.962 77.8346 58.014 78.0226 58.05C78.2106 58.09 78.4406 58.11 78.7126 58.11C78.9886 58.11 79.2266 58.088 79.4266 58.044C79.6266 58.004 79.7906 57.946 79.9186 57.87C80.0506 57.798 80.1466 57.71 80.2066 57.606C80.2666 57.506 80.2966 57.396 80.2966 57.276ZM81.7726 51.054V51.606C81.7726 51.782 81.6666 51.89 81.4546 51.93L80.9026 52.032C80.9866 52.244 81.0286 52.476 81.0286 52.728C81.0286 53.032 80.9666 53.308 80.8426 53.556C80.7226 53.8 80.5546 54.008 80.3386 54.18C80.1226 54.352 79.8666 54.486 79.5706 54.582C79.2786 54.674 78.9626 54.72 78.6226 54.72C78.5026 54.72 78.3866 54.714 78.2746 54.702C78.1626 54.69 78.0526 54.674 77.9446 54.654C77.7526 54.77 77.6566 54.9 77.6566 55.044C77.6566 55.168 77.7126 55.26 77.8246 55.32C77.9406 55.376 78.0926 55.416 78.2806 55.44C78.4686 55.464 78.6826 55.48 78.9226 55.488C79.1626 55.492 79.4086 55.504 79.6606 55.524C79.9126 55.544 80.1586 55.58 80.3986 55.632C80.6386 55.68 80.8526 55.758 81.0406 55.866C81.2286 55.974 81.3786 56.122 81.4906 56.31C81.6066 56.494 81.6646 56.732 81.6646 57.024C81.6646 57.296 81.5966 57.56 81.4606 57.816C81.3286 58.072 81.1346 58.3 80.8786 58.5C80.6266 58.7 80.3146 58.86 79.9426 58.98C79.5746 59.104 79.1546 59.166 78.6826 59.166C78.2186 59.166 77.8146 59.12 77.4706 59.028C77.1266 58.94 76.8406 58.82 76.6126 58.668C76.3846 58.52 76.2146 58.348 76.1026 58.152C75.9906 57.956 75.9346 57.752 75.9346 57.54C75.9346 57.252 76.0206 57.012 76.1926 56.82C76.3686 56.624 76.6086 56.468 76.9126 56.352C76.7486 56.268 76.6186 56.156 76.5226 56.016C76.4266 55.876 76.3786 55.692 76.3786 55.464C76.3786 55.372 76.3946 55.278 76.4266 55.182C76.4626 55.082 76.5126 54.984 76.5766 54.888C76.6446 54.792 76.7286 54.702 76.8286 54.618C76.9286 54.53 77.0466 54.452 77.1826 54.384C76.8706 54.216 76.6246 53.992 76.4446 53.712C76.2686 53.432 76.1806 53.104 76.1806 52.728C76.1806 52.424 76.2406 52.15 76.3606 51.906C76.4846 51.658 76.6546 51.448 76.8706 51.276C77.0906 51.1 77.3486 50.966 77.6446 50.874C77.9446 50.782 78.2706 50.736 78.6226 50.736C78.8866 50.736 79.1346 50.764 79.3666 50.82C79.5986 50.872 79.8106 50.95 80.0026 51.054H81.7726Z" fill="#31479E"/>
<defs>
<filter id="filter0_d" x="0" y="0.253174" width="343" height="107.789" filterUnits="userSpaceOnUse" color-interpolation-filters="sRGB">
<feFlood flood-opacity="0" result="BackgroundImageFix"/>
<feColorMatrix in="SourceAlpha" type="matrix" values="0 0 0 0 0 0 0 0 0 0 0 0 0 0 0 0 0 0 127 0"/>
<feOffset/>
<feGaussianBlur stdDeviation="10"/>
<feColorMatrix type="matrix" values="0 0 0 0 0 0 0 0 0 0 0 0 0 0 0 0 0 0 0.25 0"/>
<feBlend mode="normal" in2="BackgroundImageFix" result="effect1_dropShadow"/>
<feBlend mode="normal" in="SourceGraphic" in2="effect1_dropShadow" result="shape"/>
</filter>
</defs>
</svg>
