<svg width="343" height="109" viewBox="0 0 343 109" fill="none" xmlns="http://www.w3.org/2000/svg">
<g filter="url(#filter0_d)">
<mask id="path-1-inside-1" fill="white">
<path fill-rule="evenodd" clip-rule="evenodd" d="M316 20.2506C319.866 20.2506 323 23.3846 323 27.2506V65.7832C323 69.6492 319.866 72.7832 316 72.7832H306.49L306.49 85.0342C306.49 87.4107 303.859 88.8437 301.863 87.5541L278.998 72.7832H27C23.134 72.7832 20 69.6492 20 65.7832V27.2506C20 23.3846 23.134 20.2506 27 20.2506H316Z"/>
</mask>
<path fill-rule="evenodd" clip-rule="evenodd" d="M316 20.2506C319.866 20.2506 323 23.3846 323 27.2506V65.7832C323 69.6492 319.866 72.7832 316 72.7832H306.49L306.49 85.0342C306.49 87.4107 303.859 88.8437 301.863 87.5541L278.998 72.7832H27C23.134 72.7832 20 69.6492 20 65.7832V27.2506C20 23.3846 23.134 20.2506 27 20.2506H316Z" fill="white"/>
<path d="M306.49 72.7832L303.49 72.7832L303.49 69.7832H306.49V72.7832ZM306.49 85.0342L309.49 85.0342L309.49 85.0342L306.49 85.0342ZM301.863 87.5541L303.49 85.0342L303.49 85.0342L301.863 87.5541ZM278.998 72.7832V69.7832H279.883L280.626 70.2633L278.998 72.7832ZM320 27.2506C320 25.0415 318.209 23.2506 316 23.2506V17.2506C321.523 17.2506 326 21.7278 326 27.2506H320ZM320 65.7832V27.2506H326V65.7832H320ZM316 69.7832C318.209 69.7832 320 67.9923 320 65.7832H326C326 71.306 321.523 75.7832 316 75.7832V69.7832ZM306.49 69.7832H316V75.7832H306.49V69.7832ZM309.49 72.7832L309.49 85.0342L303.49 85.0342L303.49 72.7832L309.49 72.7832ZM309.49 85.0342C309.49 89.7872 304.227 92.6532 300.235 90.074L303.49 85.0342L303.49 85.0342L309.49 85.0342ZM300.235 90.074L277.37 75.3031L280.626 70.2633L303.49 85.0342L300.235 90.074ZM27 69.7832H278.998V75.7832H27V69.7832ZM23 65.7832C23 67.9923 24.7909 69.7832 27 69.7832V75.7832C21.4771 75.7832 17 71.306 17 65.7832H23ZM23 27.2506V65.7832H17V27.2506H23ZM27 23.2506C24.7909 23.2506 23 25.0415 23 27.2506H17C17 21.7278 21.4771 17.2506 27 17.2506V23.2506ZM316 23.2506H27V17.2506H316V23.2506Z" fill="#ED1C24" mask="url(#path-1-inside-1)"/>
</g>
<path d="M41.048 41.668V43H35.966V34.324H37.58V41.668H41.048ZM45.616 39.214C45.616 39.022 45.588 38.842 45.532 38.674C45.48 38.502 45.4 38.352 45.292 38.224C45.184 38.096 45.046 37.996 44.878 37.924C44.714 37.848 44.522 37.81 44.302 37.81C43.874 37.81 43.536 37.932 43.288 38.176C43.044 38.42 42.888 38.766 42.82 39.214H45.616ZM42.79 40.108C42.814 40.424 42.87 40.698 42.958 40.93C43.046 41.158 43.162 41.348 43.306 41.5C43.45 41.648 43.62 41.76 43.816 41.836C44.016 41.908 44.236 41.944 44.476 41.944C44.716 41.944 44.922 41.916 45.094 41.86C45.27 41.804 45.422 41.742 45.55 41.674C45.682 41.606 45.796 41.544 45.892 41.488C45.992 41.432 46.088 41.404 46.18 41.404C46.304 41.404 46.396 41.45 46.456 41.542L46.882 42.082C46.718 42.274 46.534 42.436 46.33 42.568C46.126 42.696 45.912 42.8 45.688 42.88C45.468 42.956 45.242 43.01 45.01 43.042C44.782 43.074 44.56 43.09 44.344 43.09C43.916 43.09 43.518 43.02 43.15 42.88C42.782 42.736 42.462 42.526 42.19 42.25C41.918 41.97 41.704 41.626 41.548 41.218C41.392 40.806 41.314 40.33 41.314 39.79C41.314 39.37 41.382 38.976 41.518 38.608C41.654 38.236 41.848 37.914 42.1 37.642C42.356 37.366 42.666 37.148 43.03 36.988C43.398 36.828 43.812 36.748 44.272 36.748C44.66 36.748 45.018 36.81 45.346 36.934C45.674 37.058 45.956 37.24 46.192 37.48C46.428 37.716 46.612 38.008 46.744 38.356C46.88 38.7 46.948 39.094 46.948 39.538C46.948 39.762 46.924 39.914 46.876 39.994C46.828 40.07 46.736 40.108 46.6 40.108H42.79ZM51.3121 40.372C50.8841 40.392 50.5241 40.43 50.2321 40.486C49.9401 40.538 49.7061 40.606 49.5301 40.69C49.3541 40.774 49.2281 40.872 49.1521 40.984C49.0761 41.096 49.0381 41.218 49.0381 41.35C49.0381 41.61 49.1141 41.796 49.2661 41.908C49.4221 42.02 49.6241 42.076 49.8721 42.076C50.1761 42.076 50.4381 42.022 50.6581 41.914C50.8821 41.802 51.1001 41.634 51.3121 41.41V40.372ZM47.9161 37.702C48.6241 37.054 49.4761 36.73 50.4721 36.73C50.8321 36.73 51.1541 36.79 51.4381 36.91C51.7221 37.026 51.9621 37.19 52.1581 37.402C52.3541 37.61 52.5021 37.86 52.6021 38.152C52.7061 38.444 52.7581 38.764 52.7581 39.112V43H52.0861C51.9461 43 51.8381 42.98 51.7621 42.94C51.6861 42.896 51.6261 42.81 51.5821 42.682L51.4501 42.238C51.2941 42.378 51.1421 42.502 50.9941 42.61C50.8461 42.714 50.6921 42.802 50.5321 42.874C50.3721 42.946 50.2001 43 50.0161 43.036C49.8361 43.076 49.6361 43.096 49.4161 43.096C49.1561 43.096 48.9161 43.062 48.6961 42.994C48.4761 42.922 48.2861 42.816 48.1261 42.676C47.9661 42.536 47.8421 42.362 47.7541 42.154C47.6661 41.946 47.6221 41.704 47.6221 41.428C47.6221 41.272 47.6481 41.118 47.7001 40.966C47.7521 40.81 47.8361 40.662 47.9521 40.522C48.0721 40.382 48.2261 40.25 48.4141 40.126C48.6021 40.002 48.8321 39.894 49.1041 39.802C49.3801 39.71 49.7001 39.636 50.0641 39.58C50.4281 39.52 50.8441 39.484 51.3121 39.472V39.112C51.3121 38.7 51.2241 38.396 51.0481 38.2C50.8721 38 50.6181 37.9 50.2861 37.9C50.0461 37.9 49.8461 37.928 49.6861 37.984C49.5301 38.04 49.3921 38.104 49.2721 38.176C49.1521 38.244 49.0421 38.306 48.9421 38.362C48.8461 38.418 48.7381 38.446 48.6181 38.446C48.5141 38.446 48.4261 38.42 48.3541 38.368C48.2821 38.312 48.2241 38.248 48.1801 38.176L47.9161 37.702ZM55.5519 37.912C55.7439 37.544 55.9719 37.256 56.2359 37.048C56.4999 36.836 56.8119 36.73 57.1719 36.73C57.4559 36.73 57.6839 36.792 57.8559 36.916L57.7599 38.026C57.7399 38.098 57.7099 38.15 57.6699 38.182C57.6339 38.21 57.5839 38.224 57.5199 38.224C57.4599 38.224 57.3699 38.214 57.2499 38.194C57.1339 38.174 57.0199 38.164 56.9079 38.164C56.7439 38.164 56.5979 38.188 56.4699 38.236C56.3419 38.284 56.2259 38.354 56.1219 38.446C56.0219 38.534 55.9319 38.642 55.8519 38.77C55.7759 38.898 55.7039 39.044 55.6359 39.208V43H54.1539V36.844H55.0239C55.1759 36.844 55.2819 36.872 55.3419 36.928C55.4019 36.98 55.4419 37.076 55.4619 37.216L55.5519 37.912ZM60.0164 37.6C60.1404 37.476 60.2704 37.362 60.4064 37.258C60.5464 37.15 60.6924 37.06 60.8444 36.988C61.0004 36.912 61.1664 36.854 61.3424 36.814C61.5184 36.77 61.7104 36.748 61.9184 36.748C62.2544 36.748 62.5524 36.806 62.8124 36.922C63.0724 37.034 63.2884 37.194 63.4604 37.402C63.6364 37.606 63.7684 37.852 63.8564 38.14C63.9484 38.424 63.9944 38.738 63.9944 39.082V43H62.5124V39.082C62.5124 38.706 62.4264 38.416 62.2544 38.212C62.0824 38.004 61.8204 37.9 61.4684 37.9C61.2124 37.9 60.9724 37.958 60.7484 38.074C60.5244 38.19 60.3124 38.348 60.1124 38.548V43H58.6304V36.844H59.5364C59.7284 36.844 59.8544 36.934 59.9144 37.114L60.0164 37.6ZM66.9399 36.844V43H65.4519V36.844H66.9399ZM67.1439 35.05C67.1439 35.178 67.1179 35.298 67.0659 35.41C67.0139 35.522 66.9439 35.62 66.8559 35.704C66.7719 35.788 66.6719 35.856 66.5559 35.908C66.4399 35.956 66.3159 35.98 66.1839 35.98C66.0559 35.98 65.9339 35.956 65.8179 35.908C65.7059 35.856 65.6079 35.788 65.5239 35.704C65.4399 35.62 65.3719 35.522 65.3199 35.41C65.2719 35.298 65.2479 35.178 65.2479 35.05C65.2479 34.918 65.2719 34.794 65.3199 34.678C65.3719 34.562 65.4399 34.462 65.5239 34.378C65.6079 34.294 65.7059 34.228 65.8179 34.18C65.9339 34.128 66.0559 34.102 66.1839 34.102C66.3159 34.102 66.4399 34.128 66.5559 34.18C66.6719 34.228 66.7719 34.294 66.8559 34.378C66.9439 34.462 67.0139 34.562 67.0659 34.678C67.1179 34.794 67.1439 34.918 67.1439 35.05ZM69.8368 37.6C69.9608 37.476 70.0908 37.362 70.2268 37.258C70.3668 37.15 70.5128 37.06 70.6648 36.988C70.8208 36.912 70.9868 36.854 71.1628 36.814C71.3388 36.77 71.5308 36.748 71.7388 36.748C72.0748 36.748 72.3728 36.806 72.6328 36.922C72.8928 37.034 73.1088 37.194 73.2808 37.402C73.4568 37.606 73.5888 37.852 73.6768 38.14C73.7688 38.424 73.8148 38.738 73.8148 39.082V43H72.3328V39.082C72.3328 38.706 72.2468 38.416 72.0748 38.212C71.9028 38.004 71.6408 37.9 71.2888 37.9C71.0328 37.9 70.7928 37.958 70.5688 38.074C70.3448 38.19 70.1328 38.348 69.9328 38.548V43H68.4508V36.844H69.3568C69.5488 36.844 69.6748 36.934 69.7348 37.114L69.8368 37.6ZM77.4742 39.772C77.6582 39.772 77.8182 39.748 77.9542 39.7C78.0902 39.648 78.2022 39.578 78.2902 39.49C78.3822 39.402 78.4502 39.296 78.4942 39.172C78.5422 39.048 78.5662 38.912 78.5662 38.764C78.5662 38.46 78.4742 38.22 78.2902 38.044C78.1102 37.864 77.8382 37.774 77.4742 37.774C77.1102 37.774 76.8362 37.864 76.6522 38.044C76.4722 38.22 76.3822 38.46 76.3822 38.764C76.3822 38.908 76.4042 39.042 76.4482 39.166C76.4962 39.29 76.5642 39.398 76.6522 39.49C76.7442 39.578 76.8582 39.648 76.9942 39.7C77.1342 39.748 77.2942 39.772 77.4742 39.772ZM79.1482 43.276C79.1482 43.156 79.1122 43.058 79.0402 42.982C78.9682 42.906 78.8702 42.848 78.7462 42.808C78.6222 42.764 78.4762 42.732 78.3082 42.712C78.1442 42.692 77.9682 42.678 77.7802 42.67C77.5962 42.658 77.4042 42.648 77.2042 42.64C77.0082 42.632 76.8162 42.616 76.6282 42.592C76.4642 42.684 76.3302 42.792 76.2262 42.916C76.1262 43.04 76.0762 43.184 76.0762 43.348C76.0762 43.456 76.1022 43.556 76.1542 43.648C76.2102 43.744 76.2962 43.826 76.4122 43.894C76.5322 43.962 76.6862 44.014 76.8742 44.05C77.0622 44.09 77.2922 44.11 77.5642 44.11C77.8402 44.11 78.0782 44.088 78.2782 44.044C78.4782 44.004 78.6422 43.946 78.7702 43.87C78.9022 43.798 78.9982 43.71 79.0582 43.606C79.1182 43.506 79.1482 43.396 79.1482 43.276ZM80.6242 37.054V37.606C80.6242 37.782 80.5182 37.89 80.3062 37.93L79.7542 38.032C79.8382 38.244 79.8802 38.476 79.8802 38.728C79.8802 39.032 79.8182 39.308 79.6942 39.556C79.5742 39.8 79.4062 40.008 79.1902 40.18C78.9742 40.352 78.7182 40.486 78.4222 40.582C78.1302 40.674 77.8142 40.72 77.4742 40.72C77.3542 40.72 77.2382 40.714 77.1262 40.702C77.0142 40.69 76.9042 40.674 76.7962 40.654C76.6042 40.77 76.5082 40.9 76.5082 41.044C76.5082 41.168 76.5642 41.26 76.6762 41.32C76.7922 41.376 76.9442 41.416 77.1322 41.44C77.3202 41.464 77.5342 41.48 77.7742 41.488C78.0142 41.492 78.2602 41.504 78.5122 41.524C78.7642 41.544 79.0102 41.58 79.2502 41.632C79.4902 41.68 79.7042 41.758 79.8922 41.866C80.0802 41.974 80.2302 42.122 80.3422 42.31C80.4582 42.494 80.5162 42.732 80.5162 43.024C80.5162 43.296 80.4482 43.56 80.3122 43.816C80.1802 44.072 79.9862 44.3 79.7302 44.5C79.4782 44.7 79.1662 44.86 78.7942 44.98C78.4262 45.104 78.0062 45.166 77.5342 45.166C77.0702 45.166 76.6662 45.12 76.3222 45.028C75.9782 44.94 75.6922 44.82 75.4642 44.668C75.2362 44.52 75.0662 44.348 74.9542 44.152C74.8422 43.956 74.7862 43.752 74.7862 43.54C74.7862 43.252 74.8722 43.012 75.0442 42.82C75.2202 42.624 75.4602 42.468 75.7642 42.352C75.6002 42.268 75.4702 42.156 75.3742 42.016C75.2782 41.876 75.2302 41.692 75.2302 41.464C75.2302 41.372 75.2462 41.278 75.2782 41.182C75.3142 41.082 75.3642 40.984 75.4282 40.888C75.4962 40.792 75.5802 40.702 75.6802 40.618C75.7802 40.53 75.8982 40.452 76.0342 40.384C75.7222 40.216 75.4762 39.992 75.2962 39.712C75.1202 39.432 75.0322 39.104 75.0322 38.728C75.0322 38.424 75.0922 38.15 75.2122 37.906C75.3362 37.658 75.5062 37.448 75.7222 37.276C75.9422 37.1 76.2002 36.966 76.4962 36.874C76.7962 36.782 77.1222 36.736 77.4742 36.736C77.7382 36.736 77.9862 36.764 78.2182 36.82C78.4502 36.872 78.6622 36.95 78.8542 37.054H80.6242ZM88.238 38.044C88.198 38.108 88.156 38.154 88.112 38.182C88.068 38.206 88.012 38.218 87.944 38.218C87.872 38.218 87.794 38.198 87.71 38.158C87.63 38.118 87.536 38.074 87.428 38.026C87.32 37.974 87.196 37.928 87.056 37.888C86.92 37.848 86.758 37.828 86.57 37.828C86.278 37.828 86.048 37.89 85.88 38.014C85.716 38.138 85.634 38.3 85.634 38.5C85.634 38.632 85.676 38.744 85.76 38.836C85.848 38.924 85.962 39.002 86.102 39.07C86.246 39.138 86.408 39.2 86.588 39.256C86.768 39.308 86.95 39.366 87.134 39.43C87.322 39.494 87.506 39.568 87.686 39.652C87.866 39.732 88.026 39.836 88.166 39.964C88.31 40.088 88.424 40.238 88.508 40.414C88.596 40.59 88.64 40.802 88.64 41.05C88.64 41.346 88.586 41.62 88.478 41.872C88.374 42.12 88.218 42.336 88.01 42.52C87.802 42.7 87.544 42.842 87.236 42.946C86.932 43.046 86.58 43.096 86.18 43.096C85.968 43.096 85.76 43.076 85.556 43.036C85.356 43 85.162 42.948 84.974 42.88C84.79 42.812 84.618 42.732 84.458 42.64C84.302 42.548 84.164 42.448 84.044 42.34L84.386 41.776C84.43 41.708 84.482 41.656 84.542 41.62C84.602 41.584 84.678 41.566 84.77 41.566C84.862 41.566 84.948 41.592 85.028 41.644C85.112 41.696 85.208 41.752 85.316 41.812C85.424 41.872 85.55 41.928 85.694 41.98C85.842 42.032 86.028 42.058 86.252 42.058C86.428 42.058 86.578 42.038 86.702 41.998C86.83 41.954 86.934 41.898 87.014 41.83C87.098 41.762 87.158 41.684 87.194 41.596C87.234 41.504 87.254 41.41 87.254 41.314C87.254 41.17 87.21 41.052 87.122 40.96C87.038 40.868 86.924 40.788 86.78 40.72C86.64 40.652 86.478 40.592 86.294 40.54C86.114 40.484 85.928 40.424 85.736 40.36C85.548 40.296 85.362 40.222 85.178 40.138C84.998 40.05 84.836 39.94 84.692 39.808C84.552 39.676 84.438 39.514 84.35 39.322C84.266 39.13 84.224 38.898 84.224 38.626C84.224 38.374 84.274 38.134 84.374 37.906C84.474 37.678 84.62 37.48 84.812 37.312C85.008 37.14 85.25 37.004 85.538 36.904C85.83 36.8 86.166 36.748 86.546 36.748C86.97 36.748 87.356 36.818 87.704 36.958C88.052 37.098 88.342 37.282 88.574 37.51L88.238 38.044ZM91.8074 43.096C91.2714 43.096 90.8594 42.946 90.5714 42.646C90.2874 42.342 90.1454 41.924 90.1454 41.392V37.954H89.5154C89.4354 37.954 89.3674 37.928 89.3114 37.876C89.2554 37.824 89.2274 37.746 89.2274 37.642V37.054L90.2174 36.892L90.5294 35.212C90.5494 35.132 90.5874 35.07 90.6434 35.026C90.6994 34.982 90.7714 34.96 90.8594 34.96H91.6274V36.898H93.2714V37.954H91.6274V41.29C91.6274 41.482 91.6734 41.632 91.7654 41.74C91.8614 41.848 91.9914 41.902 92.1554 41.902C92.2474 41.902 92.3234 41.892 92.3834 41.872C92.4474 41.848 92.5014 41.824 92.5454 41.8C92.5934 41.776 92.6354 41.754 92.6714 41.734C92.7074 41.71 92.7434 41.698 92.7794 41.698C92.8234 41.698 92.8594 41.71 92.8874 41.734C92.9154 41.754 92.9454 41.786 92.9774 41.83L93.4214 42.55C93.2054 42.73 92.9574 42.866 92.6774 42.958C92.3974 43.05 92.1074 43.096 91.8074 43.096ZM99.8123 36.844L96.4583 44.692C96.4143 44.796 96.3563 44.874 96.2843 44.926C96.2163 44.982 96.1103 45.01 95.9663 45.01H94.8623L96.0143 42.538L93.5243 36.844H94.8263C94.9423 36.844 95.0323 36.872 95.0963 36.928C95.1643 36.984 95.2143 37.048 95.2463 37.12L96.5543 40.312C96.5983 40.42 96.6343 40.528 96.6623 40.636C96.6943 40.744 96.7243 40.854 96.7523 40.966C96.7883 40.854 96.8243 40.744 96.8603 40.636C96.8963 40.524 96.9363 40.414 96.9803 40.306L98.2163 37.12C98.2483 37.04 98.3003 36.974 98.3723 36.922C98.4483 36.87 98.5323 36.844 98.6243 36.844H99.8123ZM102.048 34.084V43H100.566V34.084H102.048ZM107.491 39.214C107.491 39.022 107.463 38.842 107.407 38.674C107.355 38.502 107.275 38.352 107.167 38.224C107.059 38.096 106.921 37.996 106.753 37.924C106.589 37.848 106.397 37.81 106.177 37.81C105.749 37.81 105.411 37.932 105.163 38.176C104.919 38.42 104.763 38.766 104.695 39.214H107.491ZM104.665 40.108C104.689 40.424 104.745 40.698 104.833 40.93C104.921 41.158 105.037 41.348 105.181 41.5C105.325 41.648 105.495 41.76 105.691 41.836C105.891 41.908 106.111 41.944 106.351 41.944C106.591 41.944 106.797 41.916 106.969 41.86C107.145 41.804 107.297 41.742 107.425 41.674C107.557 41.606 107.671 41.544 107.767 41.488C107.867 41.432 107.963 41.404 108.055 41.404C108.179 41.404 108.271 41.45 108.331 41.542L108.757 42.082C108.593 42.274 108.409 42.436 108.205 42.568C108.001 42.696 107.787 42.8 107.563 42.88C107.343 42.956 107.117 43.01 106.885 43.042C106.657 43.074 106.435 43.09 106.219 43.09C105.791 43.09 105.393 43.02 105.025 42.88C104.657 42.736 104.337 42.526 104.065 42.25C103.793 41.97 103.579 41.626 103.423 41.218C103.267 40.806 103.189 40.33 103.189 39.79C103.189 39.37 103.257 38.976 103.393 38.608C103.529 38.236 103.723 37.914 103.975 37.642C104.231 37.366 104.541 37.148 104.905 36.988C105.273 36.828 105.687 36.748 106.147 36.748C106.535 36.748 106.893 36.81 107.221 36.934C107.549 37.058 107.831 37.24 108.067 37.48C108.303 37.716 108.487 38.008 108.619 38.356C108.755 38.7 108.823 39.094 108.823 39.538C108.823 39.762 108.799 39.914 108.751 39.994C108.703 40.07 108.611 40.108 108.475 40.108H104.665ZM113.691 38.044C113.651 38.108 113.609 38.154 113.565 38.182C113.521 38.206 113.465 38.218 113.397 38.218C113.325 38.218 113.247 38.198 113.163 38.158C113.083 38.118 112.989 38.074 112.881 38.026C112.773 37.974 112.649 37.928 112.509 37.888C112.373 37.848 112.211 37.828 112.023 37.828C111.731 37.828 111.501 37.89 111.333 38.014C111.169 38.138 111.087 38.3 111.087 38.5C111.087 38.632 111.129 38.744 111.213 38.836C111.301 38.924 111.415 39.002 111.555 39.07C111.699 39.138 111.861 39.2 112.041 39.256C112.221 39.308 112.403 39.366 112.587 39.43C112.775 39.494 112.959 39.568 113.139 39.652C113.319 39.732 113.479 39.836 113.619 39.964C113.763 40.088 113.877 40.238 113.961 40.414C114.049 40.59 114.093 40.802 114.093 41.05C114.093 41.346 114.039 41.62 113.931 41.872C113.827 42.12 113.671 42.336 113.463 42.52C113.255 42.7 112.997 42.842 112.689 42.946C112.385 43.046 112.033 43.096 111.633 43.096C111.421 43.096 111.213 43.076 111.009 43.036C110.809 43 110.615 42.948 110.427 42.88C110.243 42.812 110.071 42.732 109.911 42.64C109.755 42.548 109.617 42.448 109.497 42.34L109.839 41.776C109.883 41.708 109.935 41.656 109.995 41.62C110.055 41.584 110.131 41.566 110.223 41.566C110.315 41.566 110.401 41.592 110.481 41.644C110.565 41.696 110.661 41.752 110.769 41.812C110.877 41.872 111.003 41.928 111.147 41.98C111.295 42.032 111.481 42.058 111.705 42.058C111.881 42.058 112.031 42.038 112.155 41.998C112.283 41.954 112.387 41.898 112.467 41.83C112.551 41.762 112.611 41.684 112.647 41.596C112.687 41.504 112.707 41.41 112.707 41.314C112.707 41.17 112.663 41.052 112.575 40.96C112.491 40.868 112.377 40.788 112.233 40.72C112.093 40.652 111.931 40.592 111.747 40.54C111.567 40.484 111.381 40.424 111.189 40.36C111.001 40.296 110.815 40.222 110.631 40.138C110.451 40.05 110.289 39.94 110.145 39.808C110.005 39.676 109.891 39.514 109.803 39.322C109.719 39.13 109.677 38.898 109.677 38.626C109.677 38.374 109.727 38.134 109.827 37.906C109.927 37.678 110.073 37.48 110.265 37.312C110.461 37.14 110.703 37.004 110.991 36.904C111.283 36.8 111.619 36.748 111.999 36.748C112.423 36.748 112.809 36.818 113.157 36.958C113.505 37.098 113.795 37.282 114.027 37.51L113.691 38.044ZM121.379 40.372C120.951 40.392 120.591 40.43 120.299 40.486C120.007 40.538 119.773 40.606 119.597 40.69C119.421 40.774 119.295 40.872 119.219 40.984C119.143 41.096 119.105 41.218 119.105 41.35C119.105 41.61 119.181 41.796 119.333 41.908C119.489 42.02 119.691 42.076 119.939 42.076C120.243 42.076 120.505 42.022 120.725 41.914C120.949 41.802 121.167 41.634 121.379 41.41V40.372ZM117.983 37.702C118.691 37.054 119.543 36.73 120.539 36.73C120.899 36.73 121.221 36.79 121.505 36.91C121.789 37.026 122.029 37.19 122.225 37.402C122.421 37.61 122.569 37.86 122.669 38.152C122.773 38.444 122.825 38.764 122.825 39.112V43H122.153C122.013 43 121.905 42.98 121.829 42.94C121.753 42.896 121.693 42.81 121.649 42.682L121.517 42.238C121.361 42.378 121.209 42.502 121.061 42.61C120.913 42.714 120.759 42.802 120.599 42.874C120.439 42.946 120.267 43 120.083 43.036C119.903 43.076 119.703 43.096 119.483 43.096C119.223 43.096 118.983 43.062 118.763 42.994C118.543 42.922 118.353 42.816 118.193 42.676C118.033 42.536 117.909 42.362 117.821 42.154C117.733 41.946 117.689 41.704 117.689 41.428C117.689 41.272 117.715 41.118 117.767 40.966C117.819 40.81 117.903 40.662 118.019 40.522C118.139 40.382 118.293 40.25 118.481 40.126C118.669 40.002 118.899 39.894 119.171 39.802C119.447 39.71 119.767 39.636 120.131 39.58C120.495 39.52 120.911 39.484 121.379 39.472V39.112C121.379 38.7 121.291 38.396 121.115 38.2C120.939 38 120.685 37.9 120.353 37.9C120.113 37.9 119.913 37.928 119.753 37.984C119.597 38.04 119.459 38.104 119.339 38.176C119.219 38.244 119.109 38.306 119.009 38.362C118.913 38.418 118.805 38.446 118.685 38.446C118.581 38.446 118.493 38.42 118.421 38.368C118.349 38.312 118.291 38.248 118.247 38.176L117.983 37.702ZM125.606 37.6C125.73 37.476 125.86 37.362 125.996 37.258C126.136 37.15 126.282 37.06 126.434 36.988C126.59 36.912 126.756 36.854 126.932 36.814C127.108 36.77 127.3 36.748 127.508 36.748C127.844 36.748 128.142 36.806 128.402 36.922C128.662 37.034 128.878 37.194 129.05 37.402C129.226 37.606 129.358 37.852 129.446 38.14C129.538 38.424 129.584 38.738 129.584 39.082V43H128.102V39.082C128.102 38.706 128.016 38.416 127.844 38.212C127.672 38.004 127.41 37.9 127.058 37.9C126.802 37.9 126.562 37.958 126.338 38.074C126.114 38.19 125.902 38.348 125.702 38.548V43H124.22V36.844H125.126C125.318 36.844 125.444 36.934 125.504 37.114L125.606 37.6ZM134.858 38.416C134.69 38.212 134.506 38.068 134.306 37.984C134.11 37.9 133.898 37.858 133.67 37.858C133.446 37.858 133.244 37.9 133.064 37.984C132.884 38.068 132.73 38.196 132.602 38.368C132.474 38.536 132.376 38.752 132.308 39.016C132.24 39.276 132.206 39.584 132.206 39.94C132.206 40.3 132.234 40.606 132.29 40.858C132.35 41.106 132.434 41.31 132.542 41.47C132.65 41.626 132.782 41.74 132.938 41.812C133.094 41.88 133.268 41.914 133.46 41.914C133.768 41.914 134.03 41.85 134.246 41.722C134.462 41.594 134.666 41.412 134.858 41.176V38.416ZM136.34 34.084V43H135.434C135.238 43 135.114 42.91 135.062 42.73L134.936 42.136C134.688 42.42 134.402 42.65 134.078 42.826C133.758 43.002 133.384 43.09 132.956 43.09C132.62 43.09 132.312 43.02 132.032 42.88C131.752 42.74 131.51 42.538 131.306 42.274C131.106 42.006 130.95 41.676 130.838 41.284C130.73 40.892 130.676 40.444 130.676 39.94C130.676 39.484 130.738 39.06 130.862 38.668C130.986 38.276 131.164 37.936 131.396 37.648C131.628 37.36 131.906 37.136 132.23 36.976C132.554 36.812 132.918 36.73 133.322 36.73C133.666 36.73 133.96 36.784 134.204 36.892C134.448 37 134.666 37.146 134.858 37.33V34.084H136.34ZM143.972 40.372C143.544 40.392 143.184 40.43 142.892 40.486C142.6 40.538 142.366 40.606 142.19 40.69C142.014 40.774 141.888 40.872 141.812 40.984C141.736 41.096 141.698 41.218 141.698 41.35C141.698 41.61 141.774 41.796 141.926 41.908C142.082 42.02 142.284 42.076 142.532 42.076C142.836 42.076 143.098 42.022 143.318 41.914C143.542 41.802 143.76 41.634 143.972 41.41V40.372ZM140.576 37.702C141.284 37.054 142.136 36.73 143.132 36.73C143.492 36.73 143.814 36.79 144.098 36.91C144.382 37.026 144.622 37.19 144.818 37.402C145.014 37.61 145.162 37.86 145.262 38.152C145.366 38.444 145.418 38.764 145.418 39.112V43H144.746C144.606 43 144.498 42.98 144.422 42.94C144.346 42.896 144.286 42.81 144.242 42.682L144.11 42.238C143.954 42.378 143.802 42.502 143.654 42.61C143.506 42.714 143.352 42.802 143.192 42.874C143.032 42.946 142.86 43 142.676 43.036C142.496 43.076 142.296 43.096 142.076 43.096C141.816 43.096 141.576 43.062 141.356 42.994C141.136 42.922 140.946 42.816 140.786 42.676C140.626 42.536 140.502 42.362 140.414 42.154C140.326 41.946 140.282 41.704 140.282 41.428C140.282 41.272 140.308 41.118 140.36 40.966C140.412 40.81 140.496 40.662 140.612 40.522C140.732 40.382 140.886 40.25 141.074 40.126C141.262 40.002 141.492 39.894 141.764 39.802C142.04 39.71 142.36 39.636 142.724 39.58C143.088 39.52 143.504 39.484 143.972 39.472V39.112C143.972 38.7 143.884 38.396 143.708 38.2C143.532 38 143.278 37.9 142.946 37.9C142.706 37.9 142.506 37.928 142.346 37.984C142.19 38.04 142.052 38.104 141.932 38.176C141.812 38.244 141.702 38.306 141.602 38.362C141.506 38.418 141.398 38.446 141.278 38.446C141.174 38.446 141.086 38.42 141.014 38.368C140.942 38.312 140.884 38.248 140.84 38.176L140.576 37.702ZM150.678 38.416C150.51 38.212 150.326 38.068 150.126 37.984C149.93 37.9 149.718 37.858 149.49 37.858C149.266 37.858 149.064 37.9 148.884 37.984C148.704 38.068 148.55 38.196 148.422 38.368C148.294 38.536 148.196 38.752 148.128 39.016C148.06 39.276 148.026 39.584 148.026 39.94C148.026 40.3 148.054 40.606 148.11 40.858C148.17 41.106 148.254 41.31 148.362 41.47C148.47 41.626 148.602 41.74 148.758 41.812C148.914 41.88 149.088 41.914 149.28 41.914C149.588 41.914 149.85 41.85 150.066 41.722C150.282 41.594 150.486 41.412 150.678 41.176V38.416ZM152.16 34.084V43H151.254C151.058 43 150.934 42.91 150.882 42.73L150.756 42.136C150.508 42.42 150.222 42.65 149.898 42.826C149.578 43.002 149.204 43.09 148.776 43.09C148.44 43.09 148.132 43.02 147.852 42.88C147.572 42.74 147.33 42.538 147.126 42.274C146.926 42.006 146.77 41.676 146.658 41.284C146.55 40.892 146.496 40.444 146.496 39.94C146.496 39.484 146.558 39.06 146.682 38.668C146.806 38.276 146.984 37.936 147.216 37.648C147.448 37.36 147.726 37.136 148.05 36.976C148.374 36.812 148.738 36.73 149.142 36.73C149.486 36.73 149.78 36.784 150.024 36.892C150.268 37 150.486 37.146 150.678 37.33V34.084H152.16ZM158.927 36.844V43H158.021C157.825 43 157.701 42.91 157.649 42.73L157.547 42.238C157.295 42.494 157.017 42.702 156.713 42.862C156.409 43.018 156.051 43.096 155.639 43.096C155.303 43.096 155.005 43.04 154.745 42.928C154.489 42.812 154.273 42.65 154.097 42.442C153.921 42.234 153.787 41.988 153.695 41.704C153.607 41.416 153.563 41.1 153.563 40.756V36.844H155.045V40.756C155.045 41.132 155.131 41.424 155.303 41.632C155.479 41.836 155.741 41.938 156.089 41.938C156.345 41.938 156.585 41.882 156.809 41.77C157.033 41.654 157.245 41.496 157.445 41.296V36.844H158.927ZM161.896 34.084V43H160.414V34.084H161.896ZM165.425 43.096C164.889 43.096 164.477 42.946 164.189 42.646C163.905 42.342 163.763 41.924 163.763 41.392V37.954H163.133C163.053 37.954 162.985 37.928 162.929 37.876C162.873 37.824 162.845 37.746 162.845 37.642V37.054L163.835 36.892L164.147 35.212C164.167 35.132 164.205 35.07 164.261 35.026C164.317 34.982 164.389 34.96 164.477 34.96H165.245V36.898H166.889V37.954H165.245V41.29C165.245 41.482 165.291 41.632 165.383 41.74C165.479 41.848 165.609 41.902 165.773 41.902C165.865 41.902 165.941 41.892 166.001 41.872C166.065 41.848 166.119 41.824 166.163 41.8C166.211 41.776 166.253 41.754 166.289 41.734C166.325 41.71 166.361 41.698 166.397 41.698C166.441 41.698 166.477 41.71 166.505 41.734C166.533 41.754 166.563 41.786 166.595 41.83L167.039 42.55C166.823 42.73 166.575 42.866 166.295 42.958C166.015 43.05 165.725 43.096 165.425 43.096ZM172.255 34.084V43H170.773V34.084H172.255ZM177.698 39.214C177.698 39.022 177.67 38.842 177.614 38.674C177.562 38.502 177.482 38.352 177.374 38.224C177.266 38.096 177.128 37.996 176.96 37.924C176.796 37.848 176.604 37.81 176.384 37.81C175.956 37.81 175.618 37.932 175.37 38.176C175.126 38.42 174.97 38.766 174.902 39.214H177.698ZM174.872 40.108C174.896 40.424 174.952 40.698 175.04 40.93C175.128 41.158 175.244 41.348 175.388 41.5C175.532 41.648 175.702 41.76 175.898 41.836C176.098 41.908 176.318 41.944 176.558 41.944C176.798 41.944 177.004 41.916 177.176 41.86C177.352 41.804 177.504 41.742 177.632 41.674C177.764 41.606 177.878 41.544 177.974 41.488C178.074 41.432 178.17 41.404 178.262 41.404C178.386 41.404 178.478 41.45 178.538 41.542L178.964 42.082C178.8 42.274 178.616 42.436 178.412 42.568C178.208 42.696 177.994 42.8 177.77 42.88C177.55 42.956 177.324 43.01 177.092 43.042C176.864 43.074 176.642 43.09 176.426 43.09C175.998 43.09 175.6 43.02 175.232 42.88C174.864 42.736 174.544 42.526 174.272 42.25C174 41.97 173.786 41.626 173.63 41.218C173.474 40.806 173.396 40.33 173.396 39.79C173.396 39.37 173.464 38.976 173.6 38.608C173.736 38.236 173.93 37.914 174.182 37.642C174.438 37.366 174.748 37.148 175.112 36.988C175.48 36.828 175.894 36.748 176.354 36.748C176.742 36.748 177.1 36.81 177.428 36.934C177.756 37.058 178.038 37.24 178.274 37.48C178.51 37.716 178.694 38.008 178.826 38.356C178.962 38.7 179.03 39.094 179.03 39.538C179.03 39.762 179.006 39.914 178.958 39.994C178.91 40.07 178.818 40.108 178.682 40.108H174.872ZM183.394 40.372C182.966 40.392 182.606 40.43 182.314 40.486C182.022 40.538 181.788 40.606 181.612 40.69C181.436 40.774 181.31 40.872 181.234 40.984C181.158 41.096 181.12 41.218 181.12 41.35C181.12 41.61 181.196 41.796 181.348 41.908C181.504 42.02 181.706 42.076 181.954 42.076C182.258 42.076 182.52 42.022 182.74 41.914C182.964 41.802 183.182 41.634 183.394 41.41V40.372ZM179.998 37.702C180.706 37.054 181.558 36.73 182.554 36.73C182.914 36.73 183.236 36.79 183.52 36.91C183.804 37.026 184.044 37.19 184.24 37.402C184.436 37.61 184.584 37.86 184.684 38.152C184.788 38.444 184.84 38.764 184.84 39.112V43H184.168C184.028 43 183.92 42.98 183.844 42.94C183.768 42.896 183.708 42.81 183.664 42.682L183.532 42.238C183.376 42.378 183.224 42.502 183.076 42.61C182.928 42.714 182.774 42.802 182.614 42.874C182.454 42.946 182.282 43 182.098 43.036C181.918 43.076 181.718 43.096 181.498 43.096C181.238 43.096 180.998 43.062 180.778 42.994C180.558 42.922 180.368 42.816 180.208 42.676C180.048 42.536 179.924 42.362 179.836 42.154C179.748 41.946 179.704 41.704 179.704 41.428C179.704 41.272 179.73 41.118 179.782 40.966C179.834 40.81 179.918 40.662 180.034 40.522C180.154 40.382 180.308 40.25 180.496 40.126C180.684 40.002 180.914 39.894 181.186 39.802C181.462 39.71 181.782 39.636 182.146 39.58C182.51 39.52 182.926 39.484 183.394 39.472V39.112C183.394 38.7 183.306 38.396 183.13 38.2C182.954 38 182.7 37.9 182.368 37.9C182.128 37.9 181.928 37.928 181.768 37.984C181.612 38.04 181.474 38.104 181.354 38.176C181.234 38.244 181.124 38.306 181.024 38.362C180.928 38.418 180.82 38.446 180.7 38.446C180.596 38.446 180.508 38.42 180.436 38.368C180.364 38.312 180.306 38.248 180.262 38.176L179.998 37.702ZM187.634 37.912C187.826 37.544 188.054 37.256 188.318 37.048C188.582 36.836 188.894 36.73 189.254 36.73C189.538 36.73 189.766 36.792 189.938 36.916L189.842 38.026C189.822 38.098 189.792 38.15 189.752 38.182C189.716 38.21 189.666 38.224 189.602 38.224C189.542 38.224 189.452 38.214 189.332 38.194C189.216 38.174 189.102 38.164 188.99 38.164C188.826 38.164 188.68 38.188 188.552 38.236C188.424 38.284 188.308 38.354 188.204 38.446C188.104 38.534 188.014 38.642 187.934 38.77C187.858 38.898 187.786 39.044 187.718 39.208V43H186.236V36.844H187.106C187.258 36.844 187.364 36.872 187.424 36.928C187.484 36.98 187.524 37.076 187.544 37.216L187.634 37.912ZM192.098 37.6C192.222 37.476 192.352 37.362 192.488 37.258C192.628 37.15 192.774 37.06 192.926 36.988C193.082 36.912 193.248 36.854 193.424 36.814C193.6 36.77 193.792 36.748 194 36.748C194.336 36.748 194.634 36.806 194.894 36.922C195.154 37.034 195.37 37.194 195.542 37.402C195.718 37.606 195.85 37.852 195.938 38.14C196.03 38.424 196.076 38.738 196.076 39.082V43H194.594V39.082C194.594 38.706 194.508 38.416 194.336 38.212C194.164 38.004 193.902 37.9 193.55 37.9C193.294 37.9 193.054 37.958 192.83 38.074C192.606 38.19 192.394 38.348 192.194 38.548V43H190.712V36.844H191.618C191.81 36.844 191.936 36.934 191.996 37.114L192.098 37.6ZM201.452 39.214C201.452 39.022 201.424 38.842 201.368 38.674C201.316 38.502 201.236 38.352 201.128 38.224C201.02 38.096 200.882 37.996 200.714 37.924C200.55 37.848 200.358 37.81 200.138 37.81C199.71 37.81 199.372 37.932 199.124 38.176C198.88 38.42 198.724 38.766 198.656 39.214H201.452ZM198.626 40.108C198.65 40.424 198.706 40.698 198.794 40.93C198.882 41.158 198.998 41.348 199.142 41.5C199.286 41.648 199.456 41.76 199.652 41.836C199.852 41.908 200.072 41.944 200.312 41.944C200.552 41.944 200.758 41.916 200.93 41.86C201.106 41.804 201.258 41.742 201.386 41.674C201.518 41.606 201.632 41.544 201.728 41.488C201.828 41.432 201.924 41.404 202.016 41.404C202.14 41.404 202.232 41.45 202.292 41.542L202.718 42.082C202.554 42.274 202.37 42.436 202.166 42.568C201.962 42.696 201.748 42.8 201.524 42.88C201.304 42.956 201.078 43.01 200.846 43.042C200.618 43.074 200.396 43.09 200.18 43.09C199.752 43.09 199.354 43.02 198.986 42.88C198.618 42.736 198.298 42.526 198.026 42.25C197.754 41.97 197.54 41.626 197.384 41.218C197.228 40.806 197.15 40.33 197.15 39.79C197.15 39.37 197.218 38.976 197.354 38.608C197.49 38.236 197.684 37.914 197.936 37.642C198.192 37.366 198.502 37.148 198.866 36.988C199.234 36.828 199.648 36.748 200.108 36.748C200.496 36.748 200.854 36.81 201.182 36.934C201.51 37.058 201.792 37.24 202.028 37.48C202.264 37.716 202.448 38.008 202.58 38.356C202.716 38.7 202.784 39.094 202.784 39.538C202.784 39.762 202.76 39.914 202.712 39.994C202.664 40.07 202.572 40.108 202.436 40.108H198.626ZM205.294 37.912C205.486 37.544 205.714 37.256 205.978 37.048C206.242 36.836 206.554 36.73 206.914 36.73C207.198 36.73 207.426 36.792 207.598 36.916L207.502 38.026C207.482 38.098 207.452 38.15 207.412 38.182C207.376 38.21 207.326 38.224 207.262 38.224C207.202 38.224 207.112 38.214 206.992 38.194C206.876 38.174 206.762 38.164 206.65 38.164C206.486 38.164 206.34 38.188 206.212 38.236C206.084 38.284 205.968 38.354 205.864 38.446C205.764 38.534 205.674 38.642 205.594 38.77C205.518 38.898 205.446 39.044 205.378 39.208V43H203.896V36.844H204.766C204.918 36.844 205.024 36.872 205.084 36.928C205.144 36.98 205.184 37.076 205.204 37.216L205.294 37.912ZM212.105 38.044C212.065 38.108 212.023 38.154 211.979 38.182C211.935 38.206 211.879 38.218 211.811 38.218C211.739 38.218 211.661 38.198 211.577 38.158C211.497 38.118 211.403 38.074 211.295 38.026C211.187 37.974 211.063 37.928 210.923 37.888C210.787 37.848 210.625 37.828 210.437 37.828C210.145 37.828 209.915 37.89 209.747 38.014C209.583 38.138 209.501 38.3 209.501 38.5C209.501 38.632 209.543 38.744 209.627 38.836C209.715 38.924 209.829 39.002 209.969 39.07C210.113 39.138 210.275 39.2 210.455 39.256C210.635 39.308 210.817 39.366 211.001 39.43C211.189 39.494 211.373 39.568 211.553 39.652C211.733 39.732 211.893 39.836 212.033 39.964C212.177 40.088 212.291 40.238 212.375 40.414C212.463 40.59 212.507 40.802 212.507 41.05C212.507 41.346 212.453 41.62 212.345 41.872C212.241 42.12 212.085 42.336 211.877 42.52C211.669 42.7 211.411 42.842 211.103 42.946C210.799 43.046 210.447 43.096 210.047 43.096C209.835 43.096 209.627 43.076 209.423 43.036C209.223 43 209.029 42.948 208.841 42.88C208.657 42.812 208.485 42.732 208.325 42.64C208.169 42.548 208.031 42.448 207.911 42.34L208.253 41.776C208.297 41.708 208.349 41.656 208.409 41.62C208.469 41.584 208.545 41.566 208.637 41.566C208.729 41.566 208.815 41.592 208.895 41.644C208.979 41.696 209.075 41.752 209.183 41.812C209.291 41.872 209.417 41.928 209.561 41.98C209.709 42.032 209.895 42.058 210.119 42.058C210.295 42.058 210.445 42.038 210.569 41.998C210.697 41.954 210.801 41.898 210.881 41.83C210.965 41.762 211.025 41.684 211.061 41.596C211.101 41.504 211.121 41.41 211.121 41.314C211.121 41.17 211.077 41.052 210.989 40.96C210.905 40.868 210.791 40.788 210.647 40.72C210.507 40.652 210.345 40.592 210.161 40.54C209.981 40.484 209.795 40.424 209.603 40.36C209.415 40.296 209.229 40.222 209.045 40.138C208.865 40.05 208.703 39.94 208.559 39.808C208.419 39.676 208.305 39.514 208.217 39.322C208.133 39.13 208.091 38.898 208.091 38.626C208.091 38.374 208.141 38.134 208.241 37.906C208.341 37.678 208.487 37.48 208.679 37.312C208.875 37.14 209.117 37.004 209.405 36.904C209.697 36.8 210.033 36.748 210.413 36.748C210.837 36.748 211.223 36.818 211.571 36.958C211.919 37.098 212.209 37.282 212.441 37.51L212.105 38.044ZM213.527 42.184C213.527 42.06 213.549 41.942 213.593 41.83C213.641 41.718 213.705 41.622 213.785 41.542C213.865 41.462 213.961 41.398 214.073 41.35C214.185 41.302 214.305 41.278 214.433 41.278C214.561 41.278 214.679 41.302 214.787 41.35C214.899 41.398 214.995 41.462 215.075 41.542C215.159 41.622 215.225 41.718 215.273 41.83C215.321 41.942 215.345 42.06 215.345 42.184C215.345 42.312 215.321 42.432 215.273 42.544C215.225 42.652 215.159 42.746 215.075 42.826C214.995 42.906 214.899 42.968 214.787 43.012C214.679 43.06 214.561 43.084 214.433 43.084C214.305 43.084 214.185 43.06 214.073 43.012C213.961 42.968 213.865 42.906 213.785 42.826C213.705 42.746 213.641 42.652 213.593 42.544C213.549 42.432 213.527 42.312 213.527 42.184ZM213.527 37.906C213.527 37.782 213.549 37.664 213.593 37.552C213.641 37.44 213.705 37.344 213.785 37.264C213.865 37.184 213.961 37.12 214.073 37.072C214.185 37.024 214.305 37 214.433 37C214.561 37 214.679 37.024 214.787 37.072C214.899 37.12 214.995 37.184 215.075 37.264C215.159 37.344 215.225 37.44 215.273 37.552C215.321 37.664 215.345 37.782 215.345 37.906C215.345 38.034 215.321 38.154 215.273 38.266C215.225 38.374 215.159 38.468 215.075 38.548C214.995 38.628 214.899 38.692 214.787 38.74C214.679 38.784 214.561 38.806 214.433 38.806C214.305 38.806 214.185 38.784 214.073 38.74C213.961 38.692 213.865 38.628 213.785 38.548C213.705 38.468 213.641 38.374 213.593 38.266C213.549 38.154 213.527 38.034 213.527 37.906ZM224.044 38.146C224 38.202 223.956 38.246 223.912 38.278C223.872 38.31 223.812 38.326 223.732 38.326C223.656 38.326 223.582 38.304 223.51 38.26C223.438 38.212 223.352 38.16 223.252 38.104C223.152 38.044 223.032 37.992 222.892 37.948C222.756 37.9 222.586 37.876 222.382 37.876C222.122 37.876 221.894 37.924 221.698 38.02C221.502 38.112 221.338 38.246 221.206 38.422C221.078 38.598 220.982 38.812 220.918 39.064C220.854 39.312 220.822 39.594 220.822 39.91C220.822 40.238 220.856 40.53 220.924 40.786C220.996 41.042 221.098 41.258 221.23 41.434C221.362 41.606 221.522 41.738 221.71 41.83C221.898 41.918 222.11 41.962 222.346 41.962C222.582 41.962 222.772 41.934 222.916 41.878C223.064 41.818 223.188 41.754 223.288 41.686C223.388 41.614 223.474 41.55 223.546 41.494C223.622 41.434 223.706 41.404 223.798 41.404C223.918 41.404 224.008 41.45 224.068 41.542L224.494 42.082C224.33 42.274 224.152 42.436 223.96 42.568C223.768 42.696 223.568 42.8 223.36 42.88C223.156 42.956 222.944 43.01 222.724 43.042C222.508 43.074 222.292 43.09 222.076 43.09C221.696 43.09 221.338 43.02 221.002 42.88C220.666 42.736 220.372 42.528 220.12 42.256C219.868 41.984 219.668 41.652 219.52 41.26C219.376 40.864 219.304 40.414 219.304 39.91C219.304 39.458 219.368 39.04 219.496 38.656C219.628 38.268 219.82 37.934 220.072 37.654C220.324 37.37 220.636 37.148 221.008 36.988C221.38 36.828 221.808 36.748 222.292 36.748C222.752 36.748 223.154 36.822 223.498 36.97C223.846 37.118 224.158 37.33 224.434 37.606L224.044 38.146ZM226.905 37.504C227.145 37.28 227.409 37.098 227.697 36.958C227.985 36.818 228.323 36.748 228.711 36.748C229.047 36.748 229.345 36.806 229.605 36.922C229.865 37.034 230.081 37.194 230.253 37.402C230.429 37.606 230.561 37.852 230.649 38.14C230.741 38.424 230.787 38.738 230.787 39.082V43H229.305V39.082C229.305 38.706 229.219 38.416 229.047 38.212C228.875 38.004 228.613 37.9 228.261 37.9C228.005 37.9 227.765 37.958 227.541 38.074C227.317 38.19 227.105 38.348 226.905 38.548V43H225.423V34.084H226.905V37.504ZM235.449 40.372C235.021 40.392 234.661 40.43 234.369 40.486C234.077 40.538 233.843 40.606 233.667 40.69C233.491 40.774 233.365 40.872 233.289 40.984C233.213 41.096 233.175 41.218 233.175 41.35C233.175 41.61 233.251 41.796 233.403 41.908C233.559 42.02 233.761 42.076 234.009 42.076C234.313 42.076 234.575 42.022 234.795 41.914C235.019 41.802 235.237 41.634 235.449 41.41V40.372ZM232.053 37.702C232.761 37.054 233.613 36.73 234.609 36.73C234.969 36.73 235.291 36.79 235.575 36.91C235.859 37.026 236.099 37.19 236.295 37.402C236.491 37.61 236.639 37.86 236.739 38.152C236.843 38.444 236.895 38.764 236.895 39.112V43H236.223C236.083 43 235.975 42.98 235.899 42.94C235.823 42.896 235.763 42.81 235.719 42.682L235.587 42.238C235.431 42.378 235.279 42.502 235.131 42.61C234.983 42.714 234.829 42.802 234.669 42.874C234.509 42.946 234.337 43 234.153 43.036C233.973 43.076 233.773 43.096 233.553 43.096C233.293 43.096 233.053 43.062 232.833 42.994C232.613 42.922 232.423 42.816 232.263 42.676C232.103 42.536 231.979 42.362 231.891 42.154C231.803 41.946 231.759 41.704 231.759 41.428C231.759 41.272 231.785 41.118 231.837 40.966C231.889 40.81 231.973 40.662 232.089 40.522C232.209 40.382 232.363 40.25 232.551 40.126C232.739 40.002 232.969 39.894 233.241 39.802C233.517 39.71 233.837 39.636 234.201 39.58C234.565 39.52 234.981 39.484 235.449 39.472V39.112C235.449 38.7 235.361 38.396 235.185 38.2C235.009 38 234.755 37.9 234.423 37.9C234.183 37.9 233.983 37.928 233.823 37.984C233.667 38.04 233.529 38.104 233.409 38.176C233.289 38.244 233.179 38.306 233.079 38.362C232.983 38.418 232.875 38.446 232.755 38.446C232.651 38.446 232.563 38.42 232.491 38.368C232.419 38.312 232.361 38.248 232.317 38.176L232.053 37.702ZM239.791 34.084V43H238.309V34.084H239.791ZM242.767 34.084V43H241.285V34.084H242.767ZM248.21 39.214C248.21 39.022 248.182 38.842 248.126 38.674C248.074 38.502 247.994 38.352 247.886 38.224C247.778 38.096 247.64 37.996 247.472 37.924C247.308 37.848 247.116 37.81 246.896 37.81C246.468 37.81 246.13 37.932 245.882 38.176C245.638 38.42 245.482 38.766 245.414 39.214H248.21ZM245.384 40.108C245.408 40.424 245.464 40.698 245.552 40.93C245.64 41.158 245.756 41.348 245.9 41.5C246.044 41.648 246.214 41.76 246.41 41.836C246.61 41.908 246.83 41.944 247.07 41.944C247.31 41.944 247.516 41.916 247.688 41.86C247.864 41.804 248.016 41.742 248.144 41.674C248.276 41.606 248.39 41.544 248.486 41.488C248.586 41.432 248.682 41.404 248.774 41.404C248.898 41.404 248.99 41.45 249.05 41.542L249.476 42.082C249.312 42.274 249.128 42.436 248.924 42.568C248.72 42.696 248.506 42.8 248.282 42.88C248.062 42.956 247.836 43.01 247.604 43.042C247.376 43.074 247.154 43.09 246.938 43.09C246.51 43.09 246.112 43.02 245.744 42.88C245.376 42.736 245.056 42.526 244.784 42.25C244.512 41.97 244.298 41.626 244.142 41.218C243.986 40.806 243.908 40.33 243.908 39.79C243.908 39.37 243.976 38.976 244.112 38.608C244.248 38.236 244.442 37.914 244.694 37.642C244.95 37.366 245.26 37.148 245.624 36.988C245.992 36.828 246.406 36.748 246.866 36.748C247.254 36.748 247.612 36.81 247.94 36.934C248.268 37.058 248.55 37.24 248.786 37.48C249.022 37.716 249.206 38.008 249.338 38.356C249.474 38.7 249.542 39.094 249.542 39.538C249.542 39.762 249.518 39.914 249.47 39.994C249.422 40.07 249.33 40.108 249.194 40.108H245.384ZM252.04 37.6C252.164 37.476 252.294 37.362 252.43 37.258C252.57 37.15 252.716 37.06 252.868 36.988C253.024 36.912 253.19 36.854 253.366 36.814C253.542 36.77 253.734 36.748 253.942 36.748C254.278 36.748 254.576 36.806 254.836 36.922C255.096 37.034 255.312 37.194 255.484 37.402C255.66 37.606 255.792 37.852 255.88 38.14C255.972 38.424 256.018 38.738 256.018 39.082V43H254.536V39.082C254.536 38.706 254.45 38.416 254.278 38.212C254.106 38.004 253.844 37.9 253.492 37.9C253.236 37.9 252.996 37.958 252.772 38.074C252.548 38.19 252.336 38.348 252.136 38.548V43H250.654V36.844H251.56C251.752 36.844 251.878 36.934 251.938 37.114L252.04 37.6ZM259.677 39.772C259.861 39.772 260.021 39.748 260.157 39.7C260.293 39.648 260.405 39.578 260.493 39.49C260.585 39.402 260.653 39.296 260.697 39.172C260.745 39.048 260.769 38.912 260.769 38.764C260.769 38.46 260.677 38.22 260.493 38.044C260.313 37.864 260.041 37.774 259.677 37.774C259.313 37.774 259.039 37.864 258.855 38.044C258.675 38.22 258.585 38.46 258.585 38.764C258.585 38.908 258.607 39.042 258.651 39.166C258.699 39.29 258.767 39.398 258.855 39.49C258.947 39.578 259.061 39.648 259.197 39.7C259.337 39.748 259.497 39.772 259.677 39.772ZM261.351 43.276C261.351 43.156 261.315 43.058 261.243 42.982C261.171 42.906 261.073 42.848 260.949 42.808C260.825 42.764 260.679 42.732 260.511 42.712C260.347 42.692 260.171 42.678 259.983 42.67C259.799 42.658 259.607 42.648 259.407 42.64C259.211 42.632 259.019 42.616 258.831 42.592C258.667 42.684 258.533 42.792 258.429 42.916C258.329 43.04 258.279 43.184 258.279 43.348C258.279 43.456 258.305 43.556 258.357 43.648C258.413 43.744 258.499 43.826 258.615 43.894C258.735 43.962 258.889 44.014 259.077 44.05C259.265 44.09 259.495 44.11 259.767 44.11C260.043 44.11 260.281 44.088 260.481 44.044C260.681 44.004 260.845 43.946 260.973 43.87C261.105 43.798 261.201 43.71 261.261 43.606C261.321 43.506 261.351 43.396 261.351 43.276ZM262.827 37.054V37.606C262.827 37.782 262.721 37.89 262.509 37.93L261.957 38.032C262.041 38.244 262.083 38.476 262.083 38.728C262.083 39.032 262.021 39.308 261.897 39.556C261.777 39.8 261.609 40.008 261.393 40.18C261.177 40.352 260.921 40.486 260.625 40.582C260.333 40.674 260.017 40.72 259.677 40.72C259.557 40.72 259.441 40.714 259.329 40.702C259.217 40.69 259.107 40.674 258.999 40.654C258.807 40.77 258.711 40.9 258.711 41.044C258.711 41.168 258.767 41.26 258.879 41.32C258.995 41.376 259.147 41.416 259.335 41.44C259.523 41.464 259.737 41.48 259.977 41.488C260.217 41.492 260.463 41.504 260.715 41.524C260.967 41.544 261.213 41.58 261.453 41.632C261.693 41.68 261.907 41.758 262.095 41.866C262.283 41.974 262.433 42.122 262.545 42.31C262.661 42.494 262.719 42.732 262.719 43.024C262.719 43.296 262.651 43.56 262.515 43.816C262.383 44.072 262.189 44.3 261.933 44.5C261.681 44.7 261.369 44.86 260.997 44.98C260.629 45.104 260.209 45.166 259.737 45.166C259.273 45.166 258.869 45.12 258.525 45.028C258.181 44.94 257.895 44.82 257.667 44.668C257.439 44.52 257.269 44.348 257.157 44.152C257.045 43.956 256.989 43.752 256.989 43.54C256.989 43.252 257.075 43.012 257.247 42.82C257.423 42.624 257.663 42.468 257.967 42.352C257.803 42.268 257.673 42.156 257.577 42.016C257.481 41.876 257.433 41.692 257.433 41.464C257.433 41.372 257.449 41.278 257.481 41.182C257.517 41.082 257.567 40.984 257.631 40.888C257.699 40.792 257.783 40.702 257.883 40.618C257.983 40.53 258.101 40.452 258.237 40.384C257.925 40.216 257.679 39.992 257.499 39.712C257.323 39.432 257.235 39.104 257.235 38.728C257.235 38.424 257.295 38.15 257.415 37.906C257.539 37.658 257.709 37.448 257.925 37.276C258.145 37.1 258.403 36.966 258.699 36.874C258.999 36.782 259.325 36.736 259.677 36.736C259.941 36.736 260.189 36.764 260.421 36.82C260.653 36.872 260.865 36.95 261.057 37.054H262.827ZM267.628 39.214C267.628 39.022 267.6 38.842 267.544 38.674C267.492 38.502 267.412 38.352 267.304 38.224C267.196 38.096 267.058 37.996 266.89 37.924C266.726 37.848 266.534 37.81 266.314 37.81C265.886 37.81 265.548 37.932 265.3 38.176C265.056 38.42 264.9 38.766 264.832 39.214H267.628ZM264.802 40.108C264.826 40.424 264.882 40.698 264.97 40.93C265.058 41.158 265.174 41.348 265.318 41.5C265.462 41.648 265.632 41.76 265.828 41.836C266.028 41.908 266.248 41.944 266.488 41.944C266.728 41.944 266.934 41.916 267.106 41.86C267.282 41.804 267.434 41.742 267.562 41.674C267.694 41.606 267.808 41.544 267.904 41.488C268.004 41.432 268.1 41.404 268.192 41.404C268.316 41.404 268.408 41.45 268.468 41.542L268.894 42.082C268.73 42.274 268.546 42.436 268.342 42.568C268.138 42.696 267.924 42.8 267.7 42.88C267.48 42.956 267.254 43.01 267.022 43.042C266.794 43.074 266.572 43.09 266.356 43.09C265.928 43.09 265.53 43.02 265.162 42.88C264.794 42.736 264.474 42.526 264.202 42.25C263.93 41.97 263.716 41.626 263.56 41.218C263.404 40.806 263.326 40.33 263.326 39.79C263.326 39.37 263.394 38.976 263.53 38.608C263.666 38.236 263.86 37.914 264.112 37.642C264.368 37.366 264.678 37.148 265.042 36.988C265.41 36.828 265.824 36.748 266.284 36.748C266.672 36.748 267.03 36.81 267.358 36.934C267.686 37.058 267.968 37.24 268.204 37.48C268.44 37.716 268.624 38.008 268.756 38.356C268.892 38.7 268.96 39.094 268.96 39.538C268.96 39.762 268.936 39.914 268.888 39.994C268.84 40.07 268.748 40.108 268.612 40.108H264.802ZM273.828 38.044C273.788 38.108 273.746 38.154 273.702 38.182C273.658 38.206 273.602 38.218 273.534 38.218C273.462 38.218 273.384 38.198 273.3 38.158C273.22 38.118 273.126 38.074 273.018 38.026C272.91 37.974 272.786 37.928 272.646 37.888C272.51 37.848 272.348 37.828 272.16 37.828C271.868 37.828 271.638 37.89 271.47 38.014C271.306 38.138 271.224 38.3 271.224 38.5C271.224 38.632 271.266 38.744 271.35 38.836C271.438 38.924 271.552 39.002 271.692 39.07C271.836 39.138 271.998 39.2 272.178 39.256C272.358 39.308 272.54 39.366 272.724 39.43C272.912 39.494 273.096 39.568 273.276 39.652C273.456 39.732 273.616 39.836 273.756 39.964C273.9 40.088 274.014 40.238 274.098 40.414C274.186 40.59 274.23 40.802 274.23 41.05C274.23 41.346 274.176 41.62 274.068 41.872C273.964 42.12 273.808 42.336 273.6 42.52C273.392 42.7 273.134 42.842 272.826 42.946C272.522 43.046 272.17 43.096 271.77 43.096C271.558 43.096 271.35 43.076 271.146 43.036C270.946 43 270.752 42.948 270.564 42.88C270.38 42.812 270.208 42.732 270.048 42.64C269.892 42.548 269.754 42.448 269.634 42.34L269.976 41.776C270.02 41.708 270.072 41.656 270.132 41.62C270.192 41.584 270.268 41.566 270.36 41.566C270.452 41.566 270.538 41.592 270.618 41.644C270.702 41.696 270.798 41.752 270.906 41.812C271.014 41.872 271.14 41.928 271.284 41.98C271.432 42.032 271.618 42.058 271.842 42.058C272.018 42.058 272.168 42.038 272.292 41.998C272.42 41.954 272.524 41.898 272.604 41.83C272.688 41.762 272.748 41.684 272.784 41.596C272.824 41.504 272.844 41.41 272.844 41.314C272.844 41.17 272.8 41.052 272.712 40.96C272.628 40.868 272.514 40.788 272.37 40.72C272.23 40.652 272.068 40.592 271.884 40.54C271.704 40.484 271.518 40.424 271.326 40.36C271.138 40.296 270.952 40.222 270.768 40.138C270.588 40.05 270.426 39.94 270.282 39.808C270.142 39.676 270.028 39.514 269.94 39.322C269.856 39.13 269.814 38.898 269.814 38.626C269.814 38.374 269.864 38.134 269.964 37.906C270.064 37.678 270.21 37.48 270.402 37.312C270.598 37.14 270.84 37.004 271.128 36.904C271.42 36.8 271.756 36.748 272.136 36.748C272.56 36.748 272.946 36.818 273.294 36.958C273.642 37.098 273.932 37.282 274.164 37.51L273.828 38.044ZM281.515 40.372C281.087 40.392 280.727 40.43 280.435 40.486C280.143 40.538 279.909 40.606 279.733 40.69C279.557 40.774 279.431 40.872 279.355 40.984C279.279 41.096 279.241 41.218 279.241 41.35C279.241 41.61 279.317 41.796 279.469 41.908C279.625 42.02 279.827 42.076 280.075 42.076C280.379 42.076 280.641 42.022 280.861 41.914C281.085 41.802 281.303 41.634 281.515 41.41V40.372ZM278.119 37.702C278.827 37.054 279.679 36.73 280.675 36.73C281.035 36.73 281.357 36.79 281.641 36.91C281.925 37.026 282.165 37.19 282.361 37.402C282.557 37.61 282.705 37.86 282.805 38.152C282.909 38.444 282.961 38.764 282.961 39.112V43H282.289C282.149 43 282.041 42.98 281.965 42.94C281.889 42.896 281.829 42.81 281.785 42.682L281.653 42.238C281.497 42.378 281.345 42.502 281.197 42.61C281.049 42.714 280.895 42.802 280.735 42.874C280.575 42.946 280.403 43 280.219 43.036C280.039 43.076 279.839 43.096 279.619 43.096C279.359 43.096 279.119 43.062 278.899 42.994C278.679 42.922 278.489 42.816 278.329 42.676C278.169 42.536 278.045 42.362 277.957 42.154C277.869 41.946 277.825 41.704 277.825 41.428C277.825 41.272 277.851 41.118 277.903 40.966C277.955 40.81 278.039 40.662 278.155 40.522C278.275 40.382 278.429 40.25 278.617 40.126C278.805 40.002 279.035 39.894 279.307 39.802C279.583 39.71 279.903 39.636 280.267 39.58C280.631 39.52 281.047 39.484 281.515 39.472V39.112C281.515 38.7 281.427 38.396 281.251 38.2C281.075 38 280.821 37.9 280.489 37.9C280.249 37.9 280.049 37.928 279.889 37.984C279.733 38.04 279.595 38.104 279.475 38.176C279.355 38.244 279.245 38.306 279.145 38.362C279.049 38.418 278.941 38.446 278.821 38.446C278.717 38.446 278.629 38.42 278.557 38.368C278.485 38.312 278.427 38.248 278.383 38.176L278.119 37.702ZM285.743 37.6C285.867 37.476 285.997 37.362 286.133 37.258C286.273 37.15 286.419 37.06 286.571 36.988C286.727 36.912 286.893 36.854 287.069 36.814C287.245 36.77 287.437 36.748 287.645 36.748C287.981 36.748 288.279 36.806 288.539 36.922C288.799 37.034 289.015 37.194 289.187 37.402C289.363 37.606 289.495 37.852 289.583 38.14C289.675 38.424 289.721 38.738 289.721 39.082V43H288.239V39.082C288.239 38.706 288.153 38.416 287.981 38.212C287.809 38.004 287.547 37.9 287.195 37.9C286.939 37.9 286.699 37.958 286.475 38.074C286.251 38.19 286.039 38.348 285.839 38.548V43H284.357V36.844H285.263C285.455 36.844 285.581 36.934 285.641 37.114L285.743 37.6ZM294.994 38.416C294.826 38.212 294.642 38.068 294.442 37.984C294.246 37.9 294.034 37.858 293.806 37.858C293.582 37.858 293.38 37.9 293.2 37.984C293.02 38.068 292.866 38.196 292.738 38.368C292.61 38.536 292.512 38.752 292.444 39.016C292.376 39.276 292.342 39.584 292.342 39.94C292.342 40.3 292.37 40.606 292.426 40.858C292.486 41.106 292.57 41.31 292.678 41.47C292.786 41.626 292.918 41.74 293.074 41.812C293.23 41.88 293.404 41.914 293.596 41.914C293.904 41.914 294.166 41.85 294.382 41.722C294.598 41.594 294.802 41.412 294.994 41.176V38.416ZM296.476 34.084V43H295.57C295.374 43 295.25 42.91 295.198 42.73L295.072 42.136C294.824 42.42 294.538 42.65 294.214 42.826C293.894 43.002 293.52 43.09 293.092 43.09C292.756 43.09 292.448 43.02 292.168 42.88C291.888 42.74 291.646 42.538 291.442 42.274C291.242 42.006 291.086 41.676 290.974 41.284C290.866 40.892 290.812 40.444 290.812 39.94C290.812 39.484 290.874 39.06 290.998 38.668C291.122 38.276 291.3 37.936 291.532 37.648C291.764 37.36 292.042 37.136 292.366 36.976C292.69 36.812 293.054 36.73 293.458 36.73C293.802 36.73 294.096 36.784 294.34 36.892C294.584 37 294.802 37.146 294.994 37.33V34.084H296.476ZM39.488 52.044C39.448 52.108 39.406 52.154 39.362 52.182C39.318 52.206 39.262 52.218 39.194 52.218C39.122 52.218 39.044 52.198 38.96 52.158C38.88 52.118 38.786 52.074 38.678 52.026C38.57 51.974 38.446 51.928 38.306 51.888C38.17 51.848 38.008 51.828 37.82 51.828C37.528 51.828 37.298 51.89 37.13 52.014C36.966 52.138 36.884 52.3 36.884 52.5C36.884 52.632 36.926 52.744 37.01 52.836C37.098 52.924 37.212 53.002 37.352 53.07C37.496 53.138 37.658 53.2 37.838 53.256C38.018 53.308 38.2 53.366 38.384 53.43C38.572 53.494 38.756 53.568 38.936 53.652C39.116 53.732 39.276 53.836 39.416 53.964C39.56 54.088 39.674 54.238 39.758 54.414C39.846 54.59 39.89 54.802 39.89 55.05C39.89 55.346 39.836 55.62 39.728 55.872C39.624 56.12 39.468 56.336 39.26 56.52C39.052 56.7 38.794 56.842 38.486 56.946C38.182 57.046 37.83 57.096 37.43 57.096C37.218 57.096 37.01 57.076 36.806 57.036C36.606 57 36.412 56.948 36.224 56.88C36.04 56.812 35.868 56.732 35.708 56.64C35.552 56.548 35.414 56.448 35.294 56.34L35.636 55.776C35.68 55.708 35.732 55.656 35.792 55.62C35.852 55.584 35.928 55.566 36.02 55.566C36.112 55.566 36.198 55.592 36.278 55.644C36.362 55.696 36.458 55.752 36.566 55.812C36.674 55.872 36.8 55.928 36.944 55.98C37.092 56.032 37.278 56.058 37.502 56.058C37.678 56.058 37.828 56.038 37.952 55.998C38.08 55.954 38.184 55.898 38.264 55.83C38.348 55.762 38.408 55.684 38.444 55.596C38.484 55.504 38.504 55.41 38.504 55.314C38.504 55.17 38.46 55.052 38.372 54.96C38.288 54.868 38.174 54.788 38.03 54.72C37.89 54.652 37.728 54.592 37.544 54.54C37.364 54.484 37.178 54.424 36.986 54.36C36.798 54.296 36.612 54.222 36.428 54.138C36.248 54.05 36.086 53.94 35.942 53.808C35.802 53.676 35.688 53.514 35.6 53.322C35.516 53.13 35.474 52.898 35.474 52.626C35.474 52.374 35.524 52.134 35.624 51.906C35.724 51.678 35.87 51.48 36.062 51.312C36.258 51.14 36.5 51.004 36.788 50.904C37.08 50.8 37.416 50.748 37.796 50.748C38.22 50.748 38.606 50.818 38.954 50.958C39.302 51.098 39.592 51.282 39.824 51.51L39.488 52.044ZM43.0574 57.096C42.5214 57.096 42.1094 56.946 41.8214 56.646C41.5374 56.342 41.3954 55.924 41.3954 55.392V51.954H40.7654C40.6854 51.954 40.6174 51.928 40.5614 51.876C40.5054 51.824 40.4774 51.746 40.4774 51.642V51.054L41.4674 50.892L41.7794 49.212C41.7994 49.132 41.8374 49.07 41.8934 49.026C41.9494 48.982 42.0214 48.96 42.1094 48.96H42.8774V50.898H44.5214V51.954H42.8774V55.29C42.8774 55.482 42.9234 55.632 43.0154 55.74C43.1114 55.848 43.2414 55.902 43.4054 55.902C43.4974 55.902 43.5734 55.892 43.6334 55.872C43.6974 55.848 43.7514 55.824 43.7954 55.8C43.8434 55.776 43.8854 55.754 43.9214 55.734C43.9574 55.71 43.9934 55.698 44.0294 55.698C44.0734 55.698 44.1094 55.71 44.1374 55.734C44.1654 55.754 44.1954 55.786 44.2274 55.83L44.6714 56.55C44.4554 56.73 44.2074 56.866 43.9274 56.958C43.6474 57.05 43.3574 57.096 43.0574 57.096ZM46.8683 51.912C47.0603 51.544 47.2883 51.256 47.5523 51.048C47.8163 50.836 48.1283 50.73 48.4883 50.73C48.7723 50.73 49.0003 50.792 49.1723 50.916L49.0763 52.026C49.0563 52.098 49.0263 52.15 48.9863 52.182C48.9503 52.21 48.9003 52.224 48.8363 52.224C48.7763 52.224 48.6863 52.214 48.5663 52.194C48.4503 52.174 48.3363 52.164 48.2243 52.164C48.0603 52.164 47.9143 52.188 47.7863 52.236C47.6583 52.284 47.5423 52.354 47.4383 52.446C47.3383 52.534 47.2483 52.642 47.1683 52.77C47.0923 52.898 47.0203 53.044 46.9523 53.208V57H45.4703V50.844H46.3403C46.4923 50.844 46.5983 50.872 46.6583 50.928C46.7183 50.98 46.7583 51.076 46.7783 51.216L46.8683 51.912ZM53.1168 54.372C52.6888 54.392 52.3288 54.43 52.0368 54.486C51.7448 54.538 51.5108 54.606 51.3348 54.69C51.1588 54.774 51.0328 54.872 50.9568 54.984C50.8808 55.096 50.8428 55.218 50.8428 55.35C50.8428 55.61 50.9188 55.796 51.0708 55.908C51.2268 56.02 51.4288 56.076 51.6768 56.076C51.9808 56.076 52.2428 56.022 52.4628 55.914C52.6868 55.802 52.9048 55.634 53.1168 55.41V54.372ZM49.7208 51.702C50.4288 51.054 51.2808 50.73 52.2768 50.73C52.6368 50.73 52.9588 50.79 53.2428 50.91C53.5268 51.026 53.7668 51.19 53.9628 51.402C54.1588 51.61 54.3068 51.86 54.4068 52.152C54.5108 52.444 54.5628 52.764 54.5628 53.112V57H53.8908C53.7508 57 53.6428 56.98 53.5668 56.94C53.4908 56.896 53.4308 56.81 53.3868 56.682L53.2548 56.238C53.0988 56.378 52.9468 56.502 52.7988 56.61C52.6508 56.714 52.4968 56.802 52.3368 56.874C52.1768 56.946 52.0048 57 51.8208 57.036C51.6408 57.076 51.4408 57.096 51.2208 57.096C50.9608 57.096 50.7208 57.062 50.5008 56.994C50.2808 56.922 50.0908 56.816 49.9308 56.676C49.7708 56.536 49.6468 56.362 49.5588 56.154C49.4708 55.946 49.4268 55.704 49.4268 55.428C49.4268 55.272 49.4528 55.118 49.5048 54.966C49.5568 54.81 49.6408 54.662 49.7568 54.522C49.8768 54.382 50.0308 54.25 50.2188 54.126C50.4068 54.002 50.6368 53.894 50.9088 53.802C51.1848 53.71 51.5048 53.636 51.8688 53.58C52.2328 53.52 52.6488 53.484 53.1168 53.472V53.112C53.1168 52.7 53.0288 52.396 52.8528 52.2C52.6768 52 52.4228 51.9 52.0908 51.9C51.8508 51.9 51.6508 51.928 51.4908 51.984C51.3348 52.04 51.1968 52.104 51.0768 52.176C50.9568 52.244 50.8468 52.306 50.7468 52.362C50.6508 52.418 50.5428 52.446 50.4228 52.446C50.3188 52.446 50.2308 52.42 50.1588 52.368C50.0868 52.312 50.0288 52.248 49.9848 52.176L49.7208 51.702ZM57.9285 57.096C57.3925 57.096 56.9805 56.946 56.6925 56.646C56.4085 56.342 56.2665 55.924 56.2665 55.392V51.954H55.6365C55.5565 51.954 55.4885 51.928 55.4325 51.876C55.3765 51.824 55.3485 51.746 55.3485 51.642V51.054L56.3385 50.892L56.6505 49.212C56.6705 49.132 56.7085 49.07 56.7645 49.026C56.8205 48.982 56.8925 48.96 56.9805 48.96H57.7485V50.898H59.3925V51.954H57.7485V55.29C57.7485 55.482 57.7945 55.632 57.8865 55.74C57.9825 55.848 58.1125 55.902 58.2765 55.902C58.3685 55.902 58.4445 55.892 58.5045 55.872C58.5685 55.848 58.6225 55.824 58.6665 55.8C58.7145 55.776 58.7565 55.754 58.7925 55.734C58.8285 55.71 58.8645 55.698 58.9005 55.698C58.9445 55.698 58.9805 55.71 59.0085 55.734C59.0365 55.754 59.0665 55.786 59.0985 55.83L59.5425 56.55C59.3265 56.73 59.0785 56.866 58.7985 56.958C58.5185 57.05 58.2285 57.096 57.9285 57.096ZM64.2605 53.214C64.2605 53.022 64.2325 52.842 64.1765 52.674C64.1245 52.502 64.0445 52.352 63.9365 52.224C63.8285 52.096 63.6905 51.996 63.5225 51.924C63.3585 51.848 63.1665 51.81 62.9465 51.81C62.5185 51.81 62.1805 51.932 61.9325 52.176C61.6885 52.42 61.5325 52.766 61.4645 53.214H64.2605ZM61.4345 54.108C61.4585 54.424 61.5145 54.698 61.6025 54.93C61.6905 55.158 61.8065 55.348 61.9505 55.5C62.0945 55.648 62.2645 55.76 62.4605 55.836C62.6605 55.908 62.8805 55.944 63.1205 55.944C63.3605 55.944 63.5665 55.916 63.7385 55.86C63.9145 55.804 64.0665 55.742 64.1945 55.674C64.3265 55.606 64.4405 55.544 64.5365 55.488C64.6365 55.432 64.7325 55.404 64.8245 55.404C64.9485 55.404 65.0405 55.45 65.1005 55.542L65.5265 56.082C65.3625 56.274 65.1785 56.436 64.9745 56.568C64.7705 56.696 64.5565 56.8 64.3325 56.88C64.1125 56.956 63.8865 57.01 63.6545 57.042C63.4265 57.074 63.2045 57.09 62.9885 57.09C62.5605 57.09 62.1625 57.02 61.7945 56.88C61.4265 56.736 61.1065 56.526 60.8345 56.25C60.5625 55.97 60.3485 55.626 60.1925 55.218C60.0365 54.806 59.9585 54.33 59.9585 53.79C59.9585 53.37 60.0265 52.976 60.1625 52.608C60.2985 52.236 60.4925 51.914 60.7445 51.642C61.0005 51.366 61.3105 51.148 61.6745 50.988C62.0425 50.828 62.4565 50.748 62.9165 50.748C63.3045 50.748 63.6625 50.81 63.9905 50.934C64.3185 51.058 64.6005 51.24 64.8365 51.48C65.0725 51.716 65.2565 52.008 65.3885 52.356C65.5245 52.7 65.5925 53.094 65.5925 53.538C65.5925 53.762 65.5685 53.914 65.5205 53.994C65.4725 54.07 65.3805 54.108 65.2445 54.108H61.4345ZM68.9547 53.772C69.1387 53.772 69.2987 53.748 69.4347 53.7C69.5707 53.648 69.6827 53.578 69.7707 53.49C69.8627 53.402 69.9307 53.296 69.9747 53.172C70.0227 53.048 70.0467 52.912 70.0467 52.764C70.0467 52.46 69.9547 52.22 69.7707 52.044C69.5907 51.864 69.3187 51.774 68.9547 51.774C68.5907 51.774 68.3167 51.864 68.1327 52.044C67.9527 52.22 67.8627 52.46 67.8627 52.764C67.8627 52.908 67.8847 53.042 67.9287 53.166C67.9767 53.29 68.0447 53.398 68.1327 53.49C68.2247 53.578 68.3387 53.648 68.4747 53.7C68.6147 53.748 68.7747 53.772 68.9547 53.772ZM70.6287 57.276C70.6287 57.156 70.5927 57.058 70.5207 56.982C70.4487 56.906 70.3507 56.848 70.2267 56.808C70.1027 56.764 69.9567 56.732 69.7887 56.712C69.6247 56.692 69.4487 56.678 69.2607 56.67C69.0767 56.658 68.8847 56.648 68.6847 56.64C68.4887 56.632 68.2967 56.616 68.1087 56.592C67.9447 56.684 67.8107 56.792 67.7067 56.916C67.6067 57.04 67.5567 57.184 67.5567 57.348C67.5567 57.456 67.5827 57.556 67.6347 57.648C67.6907 57.744 67.7767 57.826 67.8927 57.894C68.0127 57.962 68.1667 58.014 68.3547 58.05C68.5427 58.09 68.7727 58.11 69.0447 58.11C69.3207 58.11 69.5587 58.088 69.7587 58.044C69.9587 58.004 70.1227 57.946 70.2507 57.87C70.3827 57.798 70.4787 57.71 70.5387 57.606C70.5987 57.506 70.6287 57.396 70.6287 57.276ZM72.1047 51.054V51.606C72.1047 51.782 71.9987 51.89 71.7867 51.93L71.2347 52.032C71.3187 52.244 71.3607 52.476 71.3607 52.728C71.3607 53.032 71.2987 53.308 71.1747 53.556C71.0547 53.8 70.8867 54.008 70.6707 54.18C70.4547 54.352 70.1987 54.486 69.9027 54.582C69.6107 54.674 69.2947 54.72 68.9547 54.72C68.8347 54.72 68.7187 54.714 68.6067 54.702C68.4947 54.69 68.3847 54.674 68.2767 54.654C68.0847 54.77 67.9887 54.9 67.9887 55.044C67.9887 55.168 68.0447 55.26 68.1567 55.32C68.2727 55.376 68.4247 55.416 68.6127 55.44C68.8007 55.464 69.0147 55.48 69.2547 55.488C69.4947 55.492 69.7407 55.504 69.9927 55.524C70.2447 55.544 70.4907 55.58 70.7307 55.632C70.9707 55.68 71.1847 55.758 71.3727 55.866C71.5607 55.974 71.7107 56.122 71.8227 56.31C71.9387 56.494 71.9967 56.732 71.9967 57.024C71.9967 57.296 71.9287 57.56 71.7927 57.816C71.6607 58.072 71.4667 58.3 71.2107 58.5C70.9587 58.7 70.6467 58.86 70.2747 58.98C69.9067 59.104 69.4867 59.166 69.0147 59.166C68.5507 59.166 68.1467 59.12 67.8027 59.028C67.4587 58.94 67.1727 58.82 66.9447 58.668C66.7167 58.52 66.5467 58.348 66.4347 58.152C66.3227 57.956 66.2667 57.752 66.2667 57.54C66.2667 57.252 66.3527 57.012 66.5247 56.82C66.7007 56.624 66.9407 56.468 67.2447 56.352C67.0807 56.268 66.9507 56.156 66.8547 56.016C66.7587 55.876 66.7107 55.692 66.7107 55.464C66.7107 55.372 66.7267 55.278 66.7587 55.182C66.7947 55.082 66.8447 54.984 66.9087 54.888C66.9767 54.792 67.0607 54.702 67.1607 54.618C67.2607 54.53 67.3787 54.452 67.5147 54.384C67.2027 54.216 66.9567 53.992 66.7767 53.712C66.6007 53.432 66.5127 53.104 66.5127 52.728C66.5127 52.424 66.5727 52.15 66.6927 51.906C66.8167 51.658 66.9867 51.448 67.2027 51.276C67.4227 51.1 67.6807 50.966 67.9767 50.874C68.2767 50.782 68.6027 50.736 68.9547 50.736C69.2187 50.736 69.4667 50.764 69.6987 50.82C69.9307 50.872 70.1427 50.95 70.3347 51.054H72.1047ZM74.5805 50.844V57H73.0925V50.844H74.5805ZM74.7845 49.05C74.7845 49.178 74.7585 49.298 74.7065 49.41C74.6545 49.522 74.5845 49.62 74.4965 49.704C74.4125 49.788 74.3125 49.856 74.1965 49.908C74.0805 49.956 73.9565 49.98 73.8245 49.98C73.6965 49.98 73.5745 49.956 73.4585 49.908C73.3465 49.856 73.2485 49.788 73.1645 49.704C73.0805 49.62 73.0125 49.522 72.9605 49.41C72.9125 49.298 72.8885 49.178 72.8885 49.05C72.8885 48.918 72.9125 48.794 72.9605 48.678C73.0125 48.562 73.0805 48.462 73.1645 48.378C73.2485 48.294 73.3465 48.228 73.4585 48.18C73.5745 48.128 73.6965 48.102 73.8245 48.102C73.9565 48.102 74.0805 48.128 74.1965 48.18C74.3125 48.228 74.4125 48.294 74.4965 48.378C74.5845 48.462 74.6545 48.562 74.7065 48.678C74.7585 48.794 74.7845 48.918 74.7845 49.05ZM80.0574 53.214C80.0574 53.022 80.0294 52.842 79.9734 52.674C79.9214 52.502 79.8414 52.352 79.7334 52.224C79.6254 52.096 79.4874 51.996 79.3194 51.924C79.1554 51.848 78.9634 51.81 78.7434 51.81C78.3154 51.81 77.9774 51.932 77.7294 52.176C77.4854 52.42 77.3294 52.766 77.2614 53.214H80.0574ZM77.2314 54.108C77.2554 54.424 77.3114 54.698 77.3994 54.93C77.4874 55.158 77.6034 55.348 77.7474 55.5C77.8914 55.648 78.0614 55.76 78.2574 55.836C78.4574 55.908 78.6774 55.944 78.9174 55.944C79.1574 55.944 79.3634 55.916 79.5354 55.86C79.7114 55.804 79.8634 55.742 79.9914 55.674C80.1234 55.606 80.2374 55.544 80.3334 55.488C80.4334 55.432 80.5294 55.404 80.6214 55.404C80.7454 55.404 80.8374 55.45 80.8974 55.542L81.3234 56.082C81.1594 56.274 80.9754 56.436 80.7714 56.568C80.5674 56.696 80.3534 56.8 80.1294 56.88C79.9094 56.956 79.6834 57.01 79.4514 57.042C79.2234 57.074 79.0014 57.09 78.7854 57.09C78.3574 57.09 77.9594 57.02 77.5914 56.88C77.2234 56.736 76.9034 56.526 76.6314 56.25C76.3594 55.97 76.1454 55.626 75.9894 55.218C75.8334 54.806 75.7554 54.33 75.7554 53.79C75.7554 53.37 75.8234 52.976 75.9594 52.608C76.0954 52.236 76.2894 51.914 76.5414 51.642C76.7974 51.366 77.1074 51.148 77.4714 50.988C77.8394 50.828 78.2534 50.748 78.7134 50.748C79.1014 50.748 79.4594 50.81 79.7874 50.934C80.1154 51.058 80.3974 51.24 80.6334 51.48C80.8694 51.716 81.0534 52.008 81.1854 52.356C81.3214 52.7 81.3894 53.094 81.3894 53.538C81.3894 53.762 81.3654 53.914 81.3174 53.994C81.2694 54.07 81.1774 54.108 81.0414 54.108H77.2314ZM86.2575 52.044C86.2175 52.108 86.1755 52.154 86.1315 52.182C86.0875 52.206 86.0315 52.218 85.9635 52.218C85.8915 52.218 85.8135 52.198 85.7295 52.158C85.6495 52.118 85.5555 52.074 85.4475 52.026C85.3395 51.974 85.2155 51.928 85.0755 51.888C84.9395 51.848 84.7775 51.828 84.5895 51.828C84.2975 51.828 84.0675 51.89 83.8995 52.014C83.7355 52.138 83.6535 52.3 83.6535 52.5C83.6535 52.632 83.6955 52.744 83.7795 52.836C83.8675 52.924 83.9815 53.002 84.1215 53.07C84.2655 53.138 84.4275 53.2 84.6075 53.256C84.7875 53.308 84.9695 53.366 85.1535 53.43C85.3415 53.494 85.5255 53.568 85.7055 53.652C85.8855 53.732 86.0455 53.836 86.1855 53.964C86.3295 54.088 86.4435 54.238 86.5275 54.414C86.6155 54.59 86.6595 54.802 86.6595 55.05C86.6595 55.346 86.6055 55.62 86.4975 55.872C86.3935 56.12 86.2375 56.336 86.0295 56.52C85.8215 56.7 85.5635 56.842 85.2555 56.946C84.9515 57.046 84.5995 57.096 84.1995 57.096C83.9875 57.096 83.7795 57.076 83.5755 57.036C83.3755 57 83.1815 56.948 82.9935 56.88C82.8095 56.812 82.6375 56.732 82.4775 56.64C82.3215 56.548 82.1835 56.448 82.0635 56.34L82.4055 55.776C82.4495 55.708 82.5015 55.656 82.5615 55.62C82.6215 55.584 82.6975 55.566 82.7895 55.566C82.8815 55.566 82.9675 55.592 83.0475 55.644C83.1315 55.696 83.2275 55.752 83.3355 55.812C83.4435 55.872 83.5695 55.928 83.7135 55.98C83.8615 56.032 84.0475 56.058 84.2715 56.058C84.4475 56.058 84.5975 56.038 84.7215 55.998C84.8495 55.954 84.9535 55.898 85.0335 55.83C85.1175 55.762 85.1775 55.684 85.2135 55.596C85.2535 55.504 85.2735 55.41 85.2735 55.314C85.2735 55.17 85.2295 55.052 85.1415 54.96C85.0575 54.868 84.9435 54.788 84.7995 54.72C84.6595 54.652 84.4975 54.592 84.3135 54.54C84.1335 54.484 83.9475 54.424 83.7555 54.36C83.5675 54.296 83.3815 54.222 83.1975 54.138C83.0175 54.05 82.8555 53.94 82.7115 53.808C82.5715 53.676 82.4575 53.514 82.3695 53.322C82.2855 53.13 82.2435 52.898 82.2435 52.626C82.2435 52.374 82.2935 52.134 82.3935 51.906C82.4935 51.678 82.6395 51.48 82.8315 51.312C83.0275 51.14 83.2695 51.004 83.5575 50.904C83.8495 50.8 84.1855 50.748 84.5655 50.748C84.9895 50.748 85.3755 50.818 85.7235 50.958C86.0715 51.098 86.3615 51.282 86.5935 51.51L86.2575 52.044Z" fill="#31479E"/>
<defs>
<filter id="filter0_d" x="0" y="0.25061" width="343" height="107.788" filterUnits="userSpaceOnUse" color-interpolation-filters="sRGB">
<feFlood flood-opacity="0" result="BackgroundImageFix"/>
<feColorMatrix in="SourceAlpha" type="matrix" values="0 0 0 0 0 0 0 0 0 0 0 0 0 0 0 0 0 0 127 0"/>
<feOffset/>
<feGaussianBlur stdDeviation="10"/>
<feColorMatrix type="matrix" values="0 0 0 0 0 0 0 0 0 0 0 0 0 0 0 0 0 0 0.25 0"/>
<feBlend mode="normal" in2="BackgroundImageFix" result="effect1_dropShadow"/>
<feBlend mode="normal" in="SourceGraphic" in2="effect1_dropShadow" result="shape"/>
</filter>
</defs>
</svg>
