<svg width="343" height="108" viewBox="0 0 343 108" fill="none" xmlns="http://www.w3.org/2000/svg">
<g filter="url(#filter0_d)">
<mask id="path-1-inside-1" fill="white">
<path fill-rule="evenodd" clip-rule="evenodd" d="M27 20C23.134 20 20 23.134 20 27V65.5326C20 69.3986 23.134 72.5326 27 72.5326H36.5095L36.5095 84.7838C36.5095 87.1603 39.1413 88.5933 41.1374 87.3037L64.0019 72.5326H316C319.866 72.5326 323 69.3986 323 65.5326V27C323 23.134 319.866 20 316 20H27Z"/>
</mask>
<path fill-rule="evenodd" clip-rule="evenodd" d="M27 20C23.134 20 20 23.134 20 27V65.5326C20 69.3986 23.134 72.5326 27 72.5326H36.5095L36.5095 84.7838C36.5095 87.1603 39.1413 88.5933 41.1374 87.3037L64.0019 72.5326H316C319.866 72.5326 323 69.3986 323 65.5326V27C323 23.134 319.866 20 316 20H27Z" fill="white"/>
<path d="M36.5095 72.5326L39.5095 72.5326L39.5095 69.5326H36.5095V72.5326ZM36.5095 84.7838L33.5095 84.7838L33.5095 84.7838L36.5095 84.7838ZM41.1374 87.3037L39.5095 84.7838L39.5095 84.7838L41.1374 87.3037ZM64.0019 72.5326V69.5326H63.1172L62.374 70.0127L64.0019 72.5326ZM23 27C23 24.7909 24.7909 23 27 23V17C21.4772 17 17 21.4771 17 27H23ZM23 65.5326V27H17V65.5326H23ZM27 69.5326C24.7909 69.5326 23 67.7417 23 65.5326H17C17 71.0554 21.4771 75.5326 27 75.5326V69.5326ZM36.5095 69.5326H27V75.5326H36.5095V69.5326ZM33.5095 72.5326L33.5095 84.7838L39.5095 84.7838L39.5095 72.5326L33.5095 72.5326ZM33.5095 84.7838C33.5095 89.5368 38.773 92.4028 42.7654 89.8235L39.5095 84.7838L39.5095 84.7838L33.5095 84.7838ZM42.7654 89.8236L65.6298 75.0525L62.374 70.0127L39.5095 84.7838L42.7654 89.8236ZM316 69.5326H64.0019V75.5326H316V69.5326ZM320 65.5326C320 67.7417 318.209 69.5326 316 69.5326V75.5326C321.523 75.5326 326 71.0554 326 65.5326H320ZM320 27V65.5326H326V27H320ZM316 23C318.209 23 320 24.7909 320 27H326C326 21.4772 321.523 17 316 17V23ZM27 23H316V17H27V23Z" fill="#31479E" mask="url(#path-1-inside-1)"/>
</g>
<path d="M39.026 41.65H36.41V49H34.796V41.65H32.18V40.324H39.026V41.65ZM41.3038 43.504C41.5438 43.28 41.8078 43.098 42.0958 42.958C42.3838 42.818 42.7218 42.748 43.1098 42.748C43.4458 42.748 43.7438 42.806 44.0038 42.922C44.2638 43.034 44.4798 43.194 44.6518 43.402C44.8278 43.606 44.9598 43.852 45.0478 44.14C45.1398 44.424 45.1858 44.738 45.1858 45.082V49H43.7038V45.082C43.7038 44.706 43.6178 44.416 43.4458 44.212C43.2738 44.004 43.0118 43.9 42.6598 43.9C42.4038 43.9 42.1638 43.958 41.9398 44.074C41.7158 44.19 41.5038 44.348 41.3038 44.548V49H39.8218V40.084H41.3038V43.504ZM50.5613 45.214C50.5613 45.022 50.5333 44.842 50.4773 44.674C50.4253 44.502 50.3453 44.352 50.2373 44.224C50.1293 44.096 49.9913 43.996 49.8233 43.924C49.6593 43.848 49.4673 43.81 49.2473 43.81C48.8193 43.81 48.4813 43.932 48.2333 44.176C47.9893 44.42 47.8333 44.766 47.7653 45.214H50.5613ZM47.7353 46.108C47.7593 46.424 47.8153 46.698 47.9033 46.93C47.9913 47.158 48.1073 47.348 48.2513 47.5C48.3953 47.648 48.5653 47.76 48.7613 47.836C48.9613 47.908 49.1813 47.944 49.4213 47.944C49.6613 47.944 49.8673 47.916 50.0393 47.86C50.2153 47.804 50.3673 47.742 50.4953 47.674C50.6273 47.606 50.7413 47.544 50.8373 47.488C50.9373 47.432 51.0333 47.404 51.1253 47.404C51.2493 47.404 51.3413 47.45 51.4013 47.542L51.8273 48.082C51.6633 48.274 51.4793 48.436 51.2753 48.568C51.0713 48.696 50.8573 48.8 50.6333 48.88C50.4133 48.956 50.1873 49.01 49.9553 49.042C49.7273 49.074 49.5053 49.09 49.2893 49.09C48.8613 49.09 48.4633 49.02 48.0953 48.88C47.7273 48.736 47.4073 48.526 47.1353 48.25C46.8633 47.97 46.6493 47.626 46.4933 47.218C46.3373 46.806 46.2593 46.33 46.2593 45.79C46.2593 45.37 46.3273 44.976 46.4633 44.608C46.5993 44.236 46.7933 43.914 47.0453 43.642C47.3013 43.366 47.6113 43.148 47.9753 42.988C48.3433 42.828 48.7573 42.748 49.2173 42.748C49.6053 42.748 49.9633 42.81 50.2913 42.934C50.6193 43.058 50.9013 43.24 51.1373 43.48C51.3733 43.716 51.5573 44.008 51.6893 44.356C51.8253 44.7 51.8933 45.094 51.8933 45.538C51.8933 45.762 51.8693 45.914 51.8213 45.994C51.7733 46.07 51.6813 46.108 51.5453 46.108H47.7353ZM55.7294 42.748C56.1854 42.748 56.5994 42.822 56.9714 42.97C57.3474 43.118 57.6674 43.328 57.9314 43.6C58.1994 43.872 58.4054 44.204 58.5494 44.596C58.6934 44.988 58.7654 45.426 58.7654 45.91C58.7654 46.398 58.6934 46.838 58.5494 47.23C58.4054 47.622 58.1994 47.956 57.9314 48.232C57.6674 48.508 57.3474 48.72 56.9714 48.868C56.5994 49.016 56.1854 49.09 55.7294 49.09C55.2694 49.09 54.8514 49.016 54.4754 48.868C54.0994 48.72 53.7774 48.508 53.5094 48.232C53.2454 47.956 53.0394 47.622 52.8914 47.23C52.7474 46.838 52.6754 46.398 52.6754 45.91C52.6754 45.426 52.7474 44.988 52.8914 44.596C53.0394 44.204 53.2454 43.872 53.5094 43.6C53.7774 43.328 54.0994 43.118 54.4754 42.97C54.8514 42.822 55.2694 42.748 55.7294 42.748ZM55.7294 47.95C56.2414 47.95 56.6194 47.778 56.8634 47.434C57.1114 47.09 57.2354 46.586 57.2354 45.922C57.2354 45.258 57.1114 44.752 56.8634 44.404C56.6194 44.056 56.2414 43.882 55.7294 43.882C55.2094 43.882 54.8234 44.058 54.5714 44.41C54.3234 44.758 54.1994 45.262 54.1994 45.922C54.1994 46.582 54.3234 47.086 54.5714 47.434C54.8234 47.778 55.2094 47.95 55.7294 47.95ZM61.2941 43.912C61.4861 43.544 61.7141 43.256 61.9781 43.048C62.2421 42.836 62.5541 42.73 62.9141 42.73C63.1981 42.73 63.4261 42.792 63.5981 42.916L63.5021 44.026C63.4821 44.098 63.4521 44.15 63.4121 44.182C63.3761 44.21 63.3261 44.224 63.2621 44.224C63.2021 44.224 63.1121 44.214 62.9921 44.194C62.8761 44.174 62.7621 44.164 62.6501 44.164C62.4861 44.164 62.3401 44.188 62.2121 44.236C62.0841 44.284 61.9681 44.354 61.8641 44.446C61.7641 44.534 61.6741 44.642 61.5941 44.77C61.5181 44.898 61.4461 45.044 61.3781 45.208V49H59.8961V42.844H60.7661C60.9181 42.844 61.0241 42.872 61.0841 42.928C61.1441 42.98 61.1841 43.076 61.2041 43.216L61.2941 43.912ZM69.9646 42.844L66.6106 50.692C66.5666 50.796 66.5086 50.874 66.4366 50.926C66.3686 50.982 66.2626 51.01 66.1186 51.01H65.0146L66.1666 48.538L63.6766 42.844H64.9786C65.0946 42.844 65.1846 42.872 65.2486 42.928C65.3166 42.984 65.3666 43.048 65.3986 43.12L66.7066 46.312C66.7506 46.42 66.7866 46.528 66.8146 46.636C66.8466 46.744 66.8766 46.854 66.9046 46.966C66.9406 46.854 66.9766 46.744 67.0126 46.636C67.0486 46.524 67.0886 46.414 67.1326 46.306L68.3686 43.12C68.4006 43.04 68.4526 42.974 68.5246 42.922C68.6006 42.87 68.6846 42.844 68.7766 42.844H69.9646ZM76.566 46.372C76.138 46.392 75.778 46.43 75.486 46.486C75.194 46.538 74.96 46.606 74.784 46.69C74.608 46.774 74.482 46.872 74.406 46.984C74.33 47.096 74.292 47.218 74.292 47.35C74.292 47.61 74.368 47.796 74.52 47.908C74.676 48.02 74.878 48.076 75.126 48.076C75.43 48.076 75.692 48.022 75.912 47.914C76.136 47.802 76.354 47.634 76.566 47.41V46.372ZM73.17 43.702C73.878 43.054 74.73 42.73 75.726 42.73C76.086 42.73 76.408 42.79 76.692 42.91C76.976 43.026 77.216 43.19 77.412 43.402C77.608 43.61 77.756 43.86 77.856 44.152C77.96 44.444 78.012 44.764 78.012 45.112V49H77.34C77.2 49 77.092 48.98 77.016 48.94C76.94 48.896 76.88 48.81 76.836 48.682L76.704 48.238C76.548 48.378 76.396 48.502 76.248 48.61C76.1 48.714 75.946 48.802 75.786 48.874C75.626 48.946 75.454 49 75.27 49.036C75.09 49.076 74.89 49.096 74.67 49.096C74.41 49.096 74.17 49.062 73.95 48.994C73.73 48.922 73.54 48.816 73.38 48.676C73.22 48.536 73.096 48.362 73.008 48.154C72.92 47.946 72.876 47.704 72.876 47.428C72.876 47.272 72.902 47.118 72.954 46.966C73.006 46.81 73.09 46.662 73.206 46.522C73.326 46.382 73.48 46.25 73.668 46.126C73.856 46.002 74.086 45.894 74.358 45.802C74.634 45.71 74.954 45.636 75.318 45.58C75.682 45.52 76.098 45.484 76.566 45.472V45.112C76.566 44.7 76.478 44.396 76.302 44.2C76.126 44 75.872 43.9 75.54 43.9C75.3 43.9 75.1 43.928 74.94 43.984C74.784 44.04 74.646 44.104 74.526 44.176C74.406 44.244 74.296 44.306 74.196 44.362C74.1 44.418 73.992 44.446 73.872 44.446C73.768 44.446 73.68 44.42 73.608 44.368C73.536 44.312 73.478 44.248 73.434 44.176L73.17 43.702ZM80.7938 43.6C80.9178 43.476 81.0478 43.362 81.1838 43.258C81.3238 43.15 81.4698 43.06 81.6218 42.988C81.7778 42.912 81.9438 42.854 82.1198 42.814C82.2958 42.77 82.4878 42.748 82.6958 42.748C83.0318 42.748 83.3298 42.806 83.5898 42.922C83.8498 43.034 84.0658 43.194 84.2378 43.402C84.4138 43.606 84.5458 43.852 84.6338 44.14C84.7258 44.424 84.7718 44.738 84.7718 45.082V49H83.2898V45.082C83.2898 44.706 83.2038 44.416 83.0318 44.212C82.8598 44.004 82.5978 43.9 82.2458 43.9C81.9898 43.9 81.7498 43.958 81.5258 44.074C81.3018 44.19 81.0898 44.348 80.8898 44.548V49H79.4078V42.844H80.3138C80.5058 42.844 80.6318 42.934 80.6918 43.114L80.7938 43.6ZM90.0452 44.416C89.8772 44.212 89.6932 44.068 89.4932 43.984C89.2972 43.9 89.0852 43.858 88.8572 43.858C88.6332 43.858 88.4312 43.9 88.2512 43.984C88.0712 44.068 87.9172 44.196 87.7892 44.368C87.6612 44.536 87.5632 44.752 87.4952 45.016C87.4272 45.276 87.3932 45.584 87.3932 45.94C87.3932 46.3 87.4212 46.606 87.4772 46.858C87.5372 47.106 87.6212 47.31 87.7292 47.47C87.8372 47.626 87.9692 47.74 88.1252 47.812C88.2812 47.88 88.4552 47.914 88.6472 47.914C88.9552 47.914 89.2172 47.85 89.4332 47.722C89.6492 47.594 89.8532 47.412 90.0452 47.176V44.416ZM91.5272 40.084V49H90.6212C90.4252 49 90.3012 48.91 90.2492 48.73L90.1232 48.136C89.8752 48.42 89.5892 48.65 89.2652 48.826C88.9452 49.002 88.5712 49.09 88.1432 49.09C87.8072 49.09 87.4992 49.02 87.2192 48.88C86.9392 48.74 86.6972 48.538 86.4932 48.274C86.2932 48.006 86.1372 47.676 86.0252 47.284C85.9172 46.892 85.8632 46.444 85.8632 45.94C85.8632 45.484 85.9252 45.06 86.0492 44.668C86.1732 44.276 86.3512 43.936 86.5832 43.648C86.8152 43.36 87.0932 43.136 87.4172 42.976C87.7412 42.812 88.1052 42.73 88.5092 42.73C88.8532 42.73 89.1472 42.784 89.3912 42.892C89.6352 43 89.8532 43.146 90.0452 43.33V40.084H91.5272ZM97.3898 47.404C97.5578 47.608 97.7398 47.752 97.9358 47.836C98.1358 47.92 98.3518 47.962 98.5838 47.962C98.8078 47.962 99.0098 47.92 99.1898 47.836C99.3698 47.752 99.5218 47.624 99.6458 47.452C99.7738 47.28 99.8718 47.064 99.9398 46.804C100.008 46.54 100.042 46.23 100.042 45.874C100.042 45.514 100.012 45.21 99.9518 44.962C99.8958 44.71 99.8138 44.506 99.7058 44.35C99.5978 44.194 99.4658 44.08 99.3098 44.008C99.1578 43.936 98.9838 43.9 98.7878 43.9C98.4798 43.9 98.2178 43.966 98.0018 44.098C97.7858 44.226 97.5818 44.408 97.3898 44.644V47.404ZM97.3118 43.684C97.5638 43.4 97.8498 43.17 98.1698 42.994C98.4898 42.818 98.8658 42.73 99.2978 42.73C99.6338 42.73 99.9398 42.8 100.216 42.94C100.496 43.08 100.736 43.284 100.936 43.552C101.14 43.816 101.296 44.144 101.404 44.536C101.516 44.924 101.572 45.37 101.572 45.874C101.572 46.334 101.51 46.76 101.386 47.152C101.262 47.544 101.084 47.884 100.852 48.172C100.624 48.46 100.346 48.686 100.018 48.85C99.6938 49.01 99.3298 49.09 98.9258 49.09C98.5818 49.09 98.2878 49.038 98.0438 48.934C97.7998 48.826 97.5818 48.678 97.3898 48.49V51.01H95.9078V42.844H96.8138C97.0058 42.844 97.1318 42.934 97.1918 43.114L97.3118 43.684ZM104.126 43.912C104.318 43.544 104.546 43.256 104.81 43.048C105.074 42.836 105.386 42.73 105.746 42.73C106.03 42.73 106.258 42.792 106.43 42.916L106.334 44.026C106.314 44.098 106.284 44.15 106.244 44.182C106.208 44.21 106.158 44.224 106.094 44.224C106.034 44.224 105.944 44.214 105.824 44.194C105.708 44.174 105.594 44.164 105.482 44.164C105.318 44.164 105.172 44.188 105.044 44.236C104.916 44.284 104.8 44.354 104.696 44.446C104.596 44.534 104.506 44.642 104.426 44.77C104.35 44.898 104.278 45.044 104.21 45.208V49H102.728V42.844H103.598C103.75 42.844 103.856 42.872 103.916 42.928C103.976 42.98 104.016 43.076 104.036 43.216L104.126 43.912ZM110.375 46.372C109.947 46.392 109.587 46.43 109.295 46.486C109.003 46.538 108.769 46.606 108.593 46.69C108.417 46.774 108.291 46.872 108.215 46.984C108.139 47.096 108.101 47.218 108.101 47.35C108.101 47.61 108.177 47.796 108.329 47.908C108.485 48.02 108.687 48.076 108.935 48.076C109.239 48.076 109.501 48.022 109.721 47.914C109.945 47.802 110.163 47.634 110.375 47.41V46.372ZM106.979 43.702C107.687 43.054 108.539 42.73 109.535 42.73C109.895 42.73 110.217 42.79 110.501 42.91C110.785 43.026 111.025 43.19 111.221 43.402C111.417 43.61 111.565 43.86 111.665 44.152C111.769 44.444 111.821 44.764 111.821 45.112V49H111.149C111.009 49 110.901 48.98 110.825 48.94C110.749 48.896 110.689 48.81 110.645 48.682L110.513 48.238C110.357 48.378 110.205 48.502 110.057 48.61C109.909 48.714 109.755 48.802 109.595 48.874C109.435 48.946 109.263 49 109.079 49.036C108.899 49.076 108.699 49.096 108.479 49.096C108.219 49.096 107.979 49.062 107.759 48.994C107.539 48.922 107.349 48.816 107.189 48.676C107.029 48.536 106.905 48.362 106.817 48.154C106.729 47.946 106.685 47.704 106.685 47.428C106.685 47.272 106.711 47.118 106.763 46.966C106.815 46.81 106.899 46.662 107.015 46.522C107.135 46.382 107.289 46.25 107.477 46.126C107.665 46.002 107.895 45.894 108.167 45.802C108.443 45.71 108.763 45.636 109.127 45.58C109.491 45.52 109.907 45.484 110.375 45.472V45.112C110.375 44.7 110.287 44.396 110.111 44.2C109.935 44 109.681 43.9 109.349 43.9C109.109 43.9 108.909 43.928 108.749 43.984C108.593 44.04 108.455 44.104 108.335 44.176C108.215 44.244 108.105 44.306 108.005 44.362C107.909 44.418 107.801 44.446 107.681 44.446C107.577 44.446 107.489 44.42 107.417 44.368C107.345 44.312 107.287 44.248 107.243 44.176L106.979 43.702ZM117.626 44.146C117.582 44.202 117.538 44.246 117.494 44.278C117.454 44.31 117.394 44.326 117.314 44.326C117.238 44.326 117.164 44.304 117.092 44.26C117.02 44.212 116.934 44.16 116.834 44.104C116.734 44.044 116.614 43.992 116.474 43.948C116.338 43.9 116.168 43.876 115.964 43.876C115.704 43.876 115.476 43.924 115.28 44.02C115.084 44.112 114.92 44.246 114.788 44.422C114.66 44.598 114.564 44.812 114.5 45.064C114.436 45.312 114.404 45.594 114.404 45.91C114.404 46.238 114.438 46.53 114.506 46.786C114.578 47.042 114.68 47.258 114.812 47.434C114.944 47.606 115.104 47.738 115.292 47.83C115.48 47.918 115.692 47.962 115.928 47.962C116.164 47.962 116.354 47.934 116.498 47.878C116.646 47.818 116.77 47.754 116.87 47.686C116.97 47.614 117.056 47.55 117.128 47.494C117.204 47.434 117.288 47.404 117.38 47.404C117.5 47.404 117.59 47.45 117.65 47.542L118.076 48.082C117.912 48.274 117.734 48.436 117.542 48.568C117.35 48.696 117.15 48.8 116.942 48.88C116.738 48.956 116.526 49.01 116.306 49.042C116.09 49.074 115.874 49.09 115.658 49.09C115.278 49.09 114.92 49.02 114.584 48.88C114.248 48.736 113.954 48.528 113.702 48.256C113.45 47.984 113.25 47.652 113.102 47.26C112.958 46.864 112.886 46.414 112.886 45.91C112.886 45.458 112.95 45.04 113.078 44.656C113.21 44.268 113.402 43.934 113.654 43.654C113.906 43.37 114.218 43.148 114.59 42.988C114.962 42.828 115.39 42.748 115.874 42.748C116.334 42.748 116.736 42.822 117.08 42.97C117.428 43.118 117.74 43.33 118.016 43.606L117.626 44.146ZM125.215 49H123.733V43.954H120.877V47.29C120.877 47.482 120.923 47.632 121.015 47.74C121.111 47.848 121.241 47.902 121.405 47.902C121.497 47.902 121.573 47.892 121.633 47.872C121.697 47.848 121.751 47.824 121.795 47.8C121.843 47.776 121.885 47.754 121.921 47.734C121.957 47.71 121.993 47.698 122.029 47.698C122.073 47.698 122.109 47.71 122.137 47.734C122.165 47.754 122.195 47.786 122.227 47.83L122.671 48.55C122.455 48.73 122.207 48.866 121.927 48.958C121.647 49.05 121.357 49.096 121.057 49.096C120.521 49.096 120.109 48.946 119.821 48.646C119.537 48.342 119.395 47.924 119.395 47.392V43.954H118.765C118.685 43.954 118.617 43.928 118.561 43.876C118.505 43.824 118.477 43.746 118.477 43.642V43.054L119.467 42.886L119.779 41.212C119.799 41.132 119.837 41.07 119.893 41.026C119.949 40.982 120.021 40.96 120.109 40.96H120.877V42.898H125.215V49ZM125.473 41.026C125.473 41.154 125.447 41.276 125.395 41.392C125.343 41.504 125.273 41.602 125.185 41.686C125.101 41.77 124.999 41.838 124.879 41.89C124.763 41.938 124.639 41.962 124.507 41.962C124.379 41.962 124.259 41.938 124.147 41.89C124.035 41.838 123.937 41.77 123.853 41.686C123.769 41.602 123.701 41.504 123.649 41.392C123.601 41.276 123.577 41.154 123.577 41.026C123.577 40.894 123.601 40.772 123.649 40.66C123.701 40.544 123.769 40.444 123.853 40.36C123.937 40.272 124.035 40.204 124.147 40.156C124.259 40.104 124.379 40.078 124.507 40.078C124.639 40.078 124.763 40.104 124.879 40.156C124.999 40.204 125.101 40.272 125.185 40.36C125.273 40.444 125.343 40.544 125.395 40.66C125.447 40.772 125.473 40.894 125.473 41.026ZM131.138 44.146C131.094 44.202 131.05 44.246 131.006 44.278C130.966 44.31 130.906 44.326 130.826 44.326C130.75 44.326 130.676 44.304 130.604 44.26C130.532 44.212 130.446 44.16 130.346 44.104C130.246 44.044 130.126 43.992 129.986 43.948C129.85 43.9 129.68 43.876 129.476 43.876C129.216 43.876 128.988 43.924 128.792 44.02C128.596 44.112 128.432 44.246 128.3 44.422C128.172 44.598 128.076 44.812 128.012 45.064C127.948 45.312 127.916 45.594 127.916 45.91C127.916 46.238 127.95 46.53 128.018 46.786C128.09 47.042 128.192 47.258 128.324 47.434C128.456 47.606 128.616 47.738 128.804 47.83C128.992 47.918 129.204 47.962 129.44 47.962C129.676 47.962 129.866 47.934 130.01 47.878C130.158 47.818 130.282 47.754 130.382 47.686C130.482 47.614 130.568 47.55 130.64 47.494C130.716 47.434 130.8 47.404 130.892 47.404C131.012 47.404 131.102 47.45 131.162 47.542L131.588 48.082C131.424 48.274 131.246 48.436 131.054 48.568C130.862 48.696 130.662 48.8 130.454 48.88C130.25 48.956 130.038 49.01 129.818 49.042C129.602 49.074 129.386 49.09 129.17 49.09C128.79 49.09 128.432 49.02 128.096 48.88C127.76 48.736 127.466 48.528 127.214 48.256C126.962 47.984 126.762 47.652 126.614 47.26C126.47 46.864 126.398 46.414 126.398 45.91C126.398 45.458 126.462 45.04 126.59 44.656C126.722 44.268 126.914 43.934 127.166 43.654C127.418 43.37 127.73 43.148 128.102 42.988C128.474 42.828 128.902 42.748 129.386 42.748C129.846 42.748 130.248 42.822 130.592 42.97C130.94 43.118 131.252 43.33 131.528 43.606L131.138 44.146ZM136.378 45.214C136.378 45.022 136.35 44.842 136.294 44.674C136.242 44.502 136.162 44.352 136.054 44.224C135.946 44.096 135.808 43.996 135.64 43.924C135.476 43.848 135.284 43.81 135.064 43.81C134.636 43.81 134.298 43.932 134.05 44.176C133.806 44.42 133.65 44.766 133.582 45.214H136.378ZM133.552 46.108C133.576 46.424 133.632 46.698 133.72 46.93C133.808 47.158 133.924 47.348 134.068 47.5C134.212 47.648 134.382 47.76 134.578 47.836C134.778 47.908 134.998 47.944 135.238 47.944C135.478 47.944 135.684 47.916 135.856 47.86C136.032 47.804 136.184 47.742 136.312 47.674C136.444 47.606 136.558 47.544 136.654 47.488C136.754 47.432 136.85 47.404 136.942 47.404C137.066 47.404 137.158 47.45 137.218 47.542L137.644 48.082C137.48 48.274 137.296 48.436 137.092 48.568C136.888 48.696 136.674 48.8 136.45 48.88C136.23 48.956 136.004 49.01 135.772 49.042C135.544 49.074 135.322 49.09 135.106 49.09C134.678 49.09 134.28 49.02 133.912 48.88C133.544 48.736 133.224 48.526 132.952 48.25C132.68 47.97 132.466 47.626 132.31 47.218C132.154 46.806 132.076 46.33 132.076 45.79C132.076 45.37 132.144 44.976 132.28 44.608C132.416 44.236 132.61 43.914 132.862 43.642C133.118 43.366 133.428 43.148 133.792 42.988C134.16 42.828 134.574 42.748 135.034 42.748C135.422 42.748 135.78 42.81 136.108 42.934C136.436 43.058 136.718 43.24 136.954 43.48C137.19 43.716 137.374 44.008 137.506 44.356C137.642 44.7 137.71 45.094 137.71 45.538C137.71 45.762 137.686 45.914 137.638 45.994C137.59 46.07 137.498 46.108 137.362 46.108H133.552ZM143.276 42.844V49H141.788V42.844H143.276ZM143.48 41.05C143.48 41.178 143.454 41.298 143.402 41.41C143.35 41.522 143.28 41.62 143.192 41.704C143.108 41.788 143.008 41.856 142.892 41.908C142.776 41.956 142.652 41.98 142.52 41.98C142.392 41.98 142.27 41.956 142.154 41.908C142.042 41.856 141.944 41.788 141.86 41.704C141.776 41.62 141.708 41.522 141.656 41.41C141.608 41.298 141.584 41.178 141.584 41.05C141.584 40.918 141.608 40.794 141.656 40.678C141.708 40.562 141.776 40.462 141.86 40.378C141.944 40.294 142.042 40.228 142.154 40.18C142.27 40.128 142.392 40.102 142.52 40.102C142.652 40.102 142.776 40.128 142.892 40.18C143.008 40.228 143.108 40.294 143.192 40.378C143.28 40.462 143.35 40.562 143.402 40.678C143.454 40.794 143.48 40.918 143.48 41.05ZM146.173 43.6C146.297 43.476 146.427 43.362 146.563 43.258C146.703 43.15 146.849 43.06 147.001 42.988C147.157 42.912 147.323 42.854 147.499 42.814C147.675 42.77 147.867 42.748 148.075 42.748C148.411 42.748 148.709 42.806 148.969 42.922C149.229 43.034 149.445 43.194 149.617 43.402C149.793 43.606 149.925 43.852 150.013 44.14C150.105 44.424 150.151 44.738 150.151 45.082V49H148.669V45.082C148.669 44.706 148.583 44.416 148.411 44.212C148.239 44.004 147.977 43.9 147.625 43.9C147.369 43.9 147.129 43.958 146.905 44.074C146.681 44.19 146.469 44.348 146.269 44.548V49H144.787V42.844H145.693C145.885 42.844 146.011 42.934 146.071 43.114L146.173 43.6ZM159.794 47.668V49H154.712V40.324H156.326V47.668H159.794ZM162.248 42.844V49H160.76V42.844H162.248ZM162.452 41.05C162.452 41.178 162.426 41.298 162.374 41.41C162.322 41.522 162.252 41.62 162.164 41.704C162.08 41.788 161.98 41.856 161.864 41.908C161.748 41.956 161.624 41.98 161.492 41.98C161.364 41.98 161.242 41.956 161.126 41.908C161.014 41.856 160.916 41.788 160.832 41.704C160.748 41.62 160.68 41.522 160.628 41.41C160.58 41.298 160.556 41.178 160.556 41.05C160.556 40.918 160.58 40.794 160.628 40.678C160.68 40.562 160.748 40.462 160.832 40.378C160.916 40.294 161.014 40.228 161.126 40.18C161.242 40.128 161.364 40.102 161.492 40.102C161.624 40.102 161.748 40.128 161.864 40.18C161.98 40.228 162.08 40.294 162.164 40.378C162.252 40.462 162.322 40.562 162.374 40.678C162.426 40.794 162.452 40.918 162.452 41.05ZM164.191 49V43.96L163.657 43.876C163.541 43.852 163.447 43.812 163.375 43.756C163.307 43.696 163.273 43.612 163.273 43.504V42.898H164.191V42.442C164.191 42.09 164.243 41.774 164.347 41.494C164.455 41.214 164.607 40.976 164.803 40.78C165.003 40.584 165.245 40.434 165.529 40.33C165.813 40.226 166.133 40.174 166.489 40.174C166.773 40.174 167.037 40.212 167.281 40.288L167.251 41.032C167.247 41.088 167.231 41.134 167.203 41.17C167.175 41.202 167.137 41.228 167.089 41.248C167.045 41.264 166.993 41.276 166.933 41.284C166.873 41.288 166.809 41.29 166.741 41.29C166.565 41.29 166.407 41.31 166.267 41.35C166.131 41.386 166.015 41.452 165.919 41.548C165.823 41.64 165.749 41.764 165.697 41.92C165.649 42.072 165.625 42.262 165.625 42.49V42.898H167.227V43.954H165.673V49H164.191ZM171.862 45.214C171.862 45.022 171.834 44.842 171.778 44.674C171.726 44.502 171.646 44.352 171.538 44.224C171.43 44.096 171.292 43.996 171.124 43.924C170.96 43.848 170.768 43.81 170.548 43.81C170.12 43.81 169.782 43.932 169.534 44.176C169.29 44.42 169.134 44.766 169.066 45.214H171.862ZM169.036 46.108C169.06 46.424 169.116 46.698 169.204 46.93C169.292 47.158 169.408 47.348 169.552 47.5C169.696 47.648 169.866 47.76 170.062 47.836C170.262 47.908 170.482 47.944 170.722 47.944C170.962 47.944 171.168 47.916 171.34 47.86C171.516 47.804 171.668 47.742 171.796 47.674C171.928 47.606 172.042 47.544 172.138 47.488C172.238 47.432 172.334 47.404 172.426 47.404C172.55 47.404 172.642 47.45 172.702 47.542L173.128 48.082C172.964 48.274 172.78 48.436 172.576 48.568C172.372 48.696 172.158 48.8 171.934 48.88C171.714 48.956 171.488 49.01 171.256 49.042C171.028 49.074 170.806 49.09 170.59 49.09C170.162 49.09 169.764 49.02 169.396 48.88C169.028 48.736 168.708 48.526 168.436 48.25C168.164 47.97 167.95 47.626 167.794 47.218C167.638 46.806 167.56 46.33 167.56 45.79C167.56 45.37 167.628 44.976 167.764 44.608C167.9 44.236 168.094 43.914 168.346 43.642C168.602 43.366 168.912 43.148 169.276 42.988C169.644 42.828 170.058 42.748 170.518 42.748C170.906 42.748 171.264 42.81 171.592 42.934C171.92 43.058 172.202 43.24 172.438 43.48C172.674 43.716 172.858 44.008 172.99 44.356C173.126 44.7 173.194 45.094 173.194 45.538C173.194 45.762 173.17 45.914 173.122 45.994C173.074 46.07 172.982 46.108 172.846 46.108H169.036ZM175.806 40.084V49H174.324V40.084H175.806ZM180.007 42.748C180.463 42.748 180.877 42.822 181.249 42.97C181.625 43.118 181.945 43.328 182.209 43.6C182.477 43.872 182.683 44.204 182.827 44.596C182.971 44.988 183.043 45.426 183.043 45.91C183.043 46.398 182.971 46.838 182.827 47.23C182.683 47.622 182.477 47.956 182.209 48.232C181.945 48.508 181.625 48.72 181.249 48.868C180.877 49.016 180.463 49.09 180.007 49.09C179.547 49.09 179.129 49.016 178.753 48.868C178.377 48.72 178.055 48.508 177.787 48.232C177.523 47.956 177.317 47.622 177.169 47.23C177.025 46.838 176.953 46.398 176.953 45.91C176.953 45.426 177.025 44.988 177.169 44.596C177.317 44.204 177.523 43.872 177.787 43.6C178.055 43.328 178.377 43.118 178.753 42.97C179.129 42.822 179.547 42.748 180.007 42.748ZM180.007 47.95C180.519 47.95 180.897 47.778 181.141 47.434C181.389 47.09 181.513 46.586 181.513 45.922C181.513 45.258 181.389 44.752 181.141 44.404C180.897 44.056 180.519 43.882 180.007 43.882C179.487 43.882 179.101 44.058 178.849 44.41C178.601 44.758 178.477 45.262 178.477 45.922C178.477 46.582 178.601 47.086 178.849 47.434C179.101 47.778 179.487 47.95 180.007 47.95ZM185.559 43.6C185.683 43.476 185.813 43.362 185.949 43.258C186.089 43.15 186.235 43.06 186.387 42.988C186.543 42.912 186.709 42.854 186.885 42.814C187.061 42.77 187.253 42.748 187.461 42.748C187.797 42.748 188.095 42.806 188.355 42.922C188.615 43.034 188.831 43.194 189.003 43.402C189.179 43.606 189.311 43.852 189.399 44.14C189.491 44.424 189.537 44.738 189.537 45.082V49H188.055V45.082C188.055 44.706 187.969 44.416 187.797 44.212C187.625 44.004 187.363 43.9 187.011 43.9C186.755 43.9 186.515 43.958 186.291 44.074C186.067 44.19 185.855 44.348 185.655 44.548V49H184.173V42.844H185.079C185.271 42.844 185.397 42.934 185.457 43.114L185.559 43.6ZM193.197 45.772C193.381 45.772 193.541 45.748 193.677 45.7C193.813 45.648 193.925 45.578 194.013 45.49C194.105 45.402 194.173 45.296 194.217 45.172C194.265 45.048 194.289 44.912 194.289 44.764C194.289 44.46 194.197 44.22 194.013 44.044C193.833 43.864 193.561 43.774 193.197 43.774C192.833 43.774 192.559 43.864 192.375 44.044C192.195 44.22 192.105 44.46 192.105 44.764C192.105 44.908 192.127 45.042 192.171 45.166C192.219 45.29 192.287 45.398 192.375 45.49C192.467 45.578 192.581 45.648 192.717 45.7C192.857 45.748 193.017 45.772 193.197 45.772ZM194.871 49.276C194.871 49.156 194.835 49.058 194.763 48.982C194.691 48.906 194.593 48.848 194.469 48.808C194.345 48.764 194.199 48.732 194.031 48.712C193.867 48.692 193.691 48.678 193.503 48.67C193.319 48.658 193.127 48.648 192.927 48.64C192.731 48.632 192.539 48.616 192.351 48.592C192.187 48.684 192.053 48.792 191.949 48.916C191.849 49.04 191.799 49.184 191.799 49.348C191.799 49.456 191.825 49.556 191.877 49.648C191.933 49.744 192.019 49.826 192.135 49.894C192.255 49.962 192.409 50.014 192.597 50.05C192.785 50.09 193.015 50.11 193.287 50.11C193.563 50.11 193.801 50.088 194.001 50.044C194.201 50.004 194.365 49.946 194.493 49.87C194.625 49.798 194.721 49.71 194.781 49.606C194.841 49.506 194.871 49.396 194.871 49.276ZM196.347 43.054V43.606C196.347 43.782 196.241 43.89 196.029 43.93L195.477 44.032C195.561 44.244 195.603 44.476 195.603 44.728C195.603 45.032 195.541 45.308 195.417 45.556C195.297 45.8 195.129 46.008 194.913 46.18C194.697 46.352 194.441 46.486 194.145 46.582C193.853 46.674 193.537 46.72 193.197 46.72C193.077 46.72 192.961 46.714 192.849 46.702C192.737 46.69 192.627 46.674 192.519 46.654C192.327 46.77 192.231 46.9 192.231 47.044C192.231 47.168 192.287 47.26 192.399 47.32C192.515 47.376 192.667 47.416 192.855 47.44C193.043 47.464 193.257 47.48 193.497 47.488C193.737 47.492 193.983 47.504 194.235 47.524C194.487 47.544 194.733 47.58 194.973 47.632C195.213 47.68 195.427 47.758 195.615 47.866C195.803 47.974 195.953 48.122 196.065 48.31C196.181 48.494 196.239 48.732 196.239 49.024C196.239 49.296 196.171 49.56 196.035 49.816C195.903 50.072 195.709 50.3 195.453 50.5C195.201 50.7 194.889 50.86 194.517 50.98C194.149 51.104 193.729 51.166 193.257 51.166C192.793 51.166 192.389 51.12 192.045 51.028C191.701 50.94 191.415 50.82 191.187 50.668C190.959 50.52 190.789 50.348 190.677 50.152C190.565 49.956 190.509 49.752 190.509 49.54C190.509 49.252 190.595 49.012 190.767 48.82C190.943 48.624 191.183 48.468 191.487 48.352C191.323 48.268 191.193 48.156 191.097 48.016C191.001 47.876 190.953 47.692 190.953 47.464C190.953 47.372 190.969 47.278 191.001 47.182C191.037 47.082 191.087 46.984 191.151 46.888C191.219 46.792 191.303 46.702 191.403 46.618C191.503 46.53 191.621 46.452 191.757 46.384C191.445 46.216 191.199 45.992 191.019 45.712C190.843 45.432 190.755 45.104 190.755 44.728C190.755 44.424 190.815 44.15 190.935 43.906C191.059 43.658 191.229 43.448 191.445 43.276C191.665 43.1 191.923 42.966 192.219 42.874C192.519 42.782 192.845 42.736 193.197 42.736C193.461 42.736 193.709 42.764 193.941 42.82C194.173 42.872 194.385 42.95 194.577 43.054H196.347ZM205.521 47.668V49H200.439V40.324H202.053V47.668H205.521ZM209.691 46.372C209.263 46.392 208.903 46.43 208.611 46.486C208.319 46.538 208.085 46.606 207.909 46.69C207.733 46.774 207.607 46.872 207.531 46.984C207.455 47.096 207.417 47.218 207.417 47.35C207.417 47.61 207.493 47.796 207.645 47.908C207.801 48.02 208.003 48.076 208.251 48.076C208.555 48.076 208.817 48.022 209.037 47.914C209.261 47.802 209.479 47.634 209.691 47.41V46.372ZM206.295 43.702C207.003 43.054 207.855 42.73 208.851 42.73C209.211 42.73 209.533 42.79 209.817 42.91C210.101 43.026 210.341 43.19 210.537 43.402C210.733 43.61 210.881 43.86 210.981 44.152C211.085 44.444 211.137 44.764 211.137 45.112V49H210.465C210.325 49 210.217 48.98 210.141 48.94C210.065 48.896 210.005 48.81 209.961 48.682L209.829 48.238C209.673 48.378 209.521 48.502 209.373 48.61C209.225 48.714 209.071 48.802 208.911 48.874C208.751 48.946 208.579 49 208.395 49.036C208.215 49.076 208.015 49.096 207.795 49.096C207.535 49.096 207.295 49.062 207.075 48.994C206.855 48.922 206.665 48.816 206.505 48.676C206.345 48.536 206.221 48.362 206.133 48.154C206.045 47.946 206.001 47.704 206.001 47.428C206.001 47.272 206.027 47.118 206.079 46.966C206.131 46.81 206.215 46.662 206.331 46.522C206.451 46.382 206.605 46.25 206.793 46.126C206.981 46.002 207.211 45.894 207.483 45.802C207.759 45.71 208.079 45.636 208.443 45.58C208.807 45.52 209.223 45.484 209.691 45.472V45.112C209.691 44.7 209.603 44.396 209.427 44.2C209.251 44 208.997 43.9 208.665 43.9C208.425 43.9 208.225 43.928 208.065 43.984C207.909 44.04 207.771 44.104 207.651 44.176C207.531 44.244 207.421 44.306 207.321 44.362C207.225 44.418 207.117 44.446 206.997 44.446C206.893 44.446 206.805 44.42 206.733 44.368C206.661 44.312 206.603 44.248 206.559 44.176L206.295 43.702ZM213.919 43.6C214.043 43.476 214.173 43.362 214.309 43.258C214.449 43.15 214.595 43.06 214.747 42.988C214.903 42.912 215.069 42.854 215.245 42.814C215.421 42.77 215.613 42.748 215.821 42.748C216.157 42.748 216.455 42.806 216.715 42.922C216.975 43.034 217.191 43.194 217.363 43.402C217.539 43.606 217.671 43.852 217.759 44.14C217.851 44.424 217.897 44.738 217.897 45.082V49H216.415V45.082C216.415 44.706 216.329 44.416 216.157 44.212C215.985 44.004 215.723 43.9 215.371 43.9C215.115 43.9 214.875 43.958 214.651 44.074C214.427 44.19 214.215 44.348 214.015 44.548V49H212.533V42.844H213.439C213.631 42.844 213.757 42.934 213.817 43.114L213.919 43.6ZM221.556 45.772C221.74 45.772 221.9 45.748 222.036 45.7C222.172 45.648 222.284 45.578 222.372 45.49C222.464 45.402 222.532 45.296 222.576 45.172C222.624 45.048 222.648 44.912 222.648 44.764C222.648 44.46 222.556 44.22 222.372 44.044C222.192 43.864 221.92 43.774 221.556 43.774C221.192 43.774 220.918 43.864 220.734 44.044C220.554 44.22 220.464 44.46 220.464 44.764C220.464 44.908 220.486 45.042 220.53 45.166C220.578 45.29 220.646 45.398 220.734 45.49C220.826 45.578 220.94 45.648 221.076 45.7C221.216 45.748 221.376 45.772 221.556 45.772ZM223.23 49.276C223.23 49.156 223.194 49.058 223.122 48.982C223.05 48.906 222.952 48.848 222.828 48.808C222.704 48.764 222.558 48.732 222.39 48.712C222.226 48.692 222.05 48.678 221.862 48.67C221.678 48.658 221.486 48.648 221.286 48.64C221.09 48.632 220.898 48.616 220.71 48.592C220.546 48.684 220.412 48.792 220.308 48.916C220.208 49.04 220.158 49.184 220.158 49.348C220.158 49.456 220.184 49.556 220.236 49.648C220.292 49.744 220.378 49.826 220.494 49.894C220.614 49.962 220.768 50.014 220.956 50.05C221.144 50.09 221.374 50.11 221.646 50.11C221.922 50.11 222.16 50.088 222.36 50.044C222.56 50.004 222.724 49.946 222.852 49.87C222.984 49.798 223.08 49.71 223.14 49.606C223.2 49.506 223.23 49.396 223.23 49.276ZM224.706 43.054V43.606C224.706 43.782 224.6 43.89 224.388 43.93L223.836 44.032C223.92 44.244 223.962 44.476 223.962 44.728C223.962 45.032 223.9 45.308 223.776 45.556C223.656 45.8 223.488 46.008 223.272 46.18C223.056 46.352 222.8 46.486 222.504 46.582C222.212 46.674 221.896 46.72 221.556 46.72C221.436 46.72 221.32 46.714 221.208 46.702C221.096 46.69 220.986 46.674 220.878 46.654C220.686 46.77 220.59 46.9 220.59 47.044C220.59 47.168 220.646 47.26 220.758 47.32C220.874 47.376 221.026 47.416 221.214 47.44C221.402 47.464 221.616 47.48 221.856 47.488C222.096 47.492 222.342 47.504 222.594 47.524C222.846 47.544 223.092 47.58 223.332 47.632C223.572 47.68 223.786 47.758 223.974 47.866C224.162 47.974 224.312 48.122 224.424 48.31C224.54 48.494 224.598 48.732 224.598 49.024C224.598 49.296 224.53 49.56 224.394 49.816C224.262 50.072 224.068 50.3 223.812 50.5C223.56 50.7 223.248 50.86 222.876 50.98C222.508 51.104 222.088 51.166 221.616 51.166C221.152 51.166 220.748 51.12 220.404 51.028C220.06 50.94 219.774 50.82 219.546 50.668C219.318 50.52 219.148 50.348 219.036 50.152C218.924 49.956 218.868 49.752 218.868 49.54C218.868 49.252 218.954 49.012 219.126 48.82C219.302 48.624 219.542 48.468 219.846 48.352C219.682 48.268 219.552 48.156 219.456 48.016C219.36 47.876 219.312 47.692 219.312 47.464C219.312 47.372 219.328 47.278 219.36 47.182C219.396 47.082 219.446 46.984 219.51 46.888C219.578 46.792 219.662 46.702 219.762 46.618C219.862 46.53 219.98 46.452 220.116 46.384C219.804 46.216 219.558 45.992 219.378 45.712C219.202 45.432 219.114 45.104 219.114 44.728C219.114 44.424 219.174 44.15 219.294 43.906C219.418 43.658 219.588 43.448 219.804 43.276C220.024 43.1 220.282 42.966 220.578 42.874C220.878 42.782 221.204 42.736 221.556 42.736C221.82 42.736 222.068 42.764 222.3 42.82C222.532 42.872 222.744 42.95 222.936 43.054H224.706ZM230.95 42.844V49H230.044C229.848 49 229.724 48.91 229.672 48.73L229.57 48.238C229.318 48.494 229.04 48.702 228.736 48.862C228.432 49.018 228.074 49.096 227.662 49.096C227.326 49.096 227.028 49.04 226.768 48.928C226.512 48.812 226.296 48.65 226.12 48.442C225.944 48.234 225.81 47.988 225.718 47.704C225.63 47.416 225.586 47.1 225.586 46.756V42.844H227.068V46.756C227.068 47.132 227.154 47.424 227.326 47.632C227.502 47.836 227.764 47.938 228.112 47.938C228.368 47.938 228.608 47.882 228.832 47.77C229.056 47.654 229.268 47.496 229.468 47.296V42.844H230.95ZM235.672 46.372C235.244 46.392 234.884 46.43 234.592 46.486C234.3 46.538 234.066 46.606 233.89 46.69C233.714 46.774 233.588 46.872 233.512 46.984C233.436 47.096 233.398 47.218 233.398 47.35C233.398 47.61 233.474 47.796 233.626 47.908C233.782 48.02 233.984 48.076 234.232 48.076C234.536 48.076 234.798 48.022 235.018 47.914C235.242 47.802 235.46 47.634 235.672 47.41V46.372ZM232.276 43.702C232.984 43.054 233.836 42.73 234.832 42.73C235.192 42.73 235.514 42.79 235.798 42.91C236.082 43.026 236.322 43.19 236.518 43.402C236.714 43.61 236.862 43.86 236.962 44.152C237.066 44.444 237.118 44.764 237.118 45.112V49H236.446C236.306 49 236.198 48.98 236.122 48.94C236.046 48.896 235.986 48.81 235.942 48.682L235.81 48.238C235.654 48.378 235.502 48.502 235.354 48.61C235.206 48.714 235.052 48.802 234.892 48.874C234.732 48.946 234.56 49 234.376 49.036C234.196 49.076 233.996 49.096 233.776 49.096C233.516 49.096 233.276 49.062 233.056 48.994C232.836 48.922 232.646 48.816 232.486 48.676C232.326 48.536 232.202 48.362 232.114 48.154C232.026 47.946 231.982 47.704 231.982 47.428C231.982 47.272 232.008 47.118 232.06 46.966C232.112 46.81 232.196 46.662 232.312 46.522C232.432 46.382 232.586 46.25 232.774 46.126C232.962 46.002 233.192 45.894 233.464 45.802C233.74 45.71 234.06 45.636 234.424 45.58C234.788 45.52 235.204 45.484 235.672 45.472V45.112C235.672 44.7 235.584 44.396 235.408 44.2C235.232 44 234.978 43.9 234.646 43.9C234.406 43.9 234.206 43.928 234.046 43.984C233.89 44.04 233.752 44.104 233.632 44.176C233.512 44.244 233.402 44.306 233.302 44.362C233.206 44.418 233.098 44.446 232.978 44.446C232.874 44.446 232.786 44.42 232.714 44.368C232.642 44.312 232.584 44.248 232.54 44.176L232.276 43.702ZM240.763 45.772C240.947 45.772 241.107 45.748 241.243 45.7C241.379 45.648 241.491 45.578 241.579 45.49C241.671 45.402 241.739 45.296 241.783 45.172C241.831 45.048 241.855 44.912 241.855 44.764C241.855 44.46 241.763 44.22 241.579 44.044C241.399 43.864 241.127 43.774 240.763 43.774C240.399 43.774 240.125 43.864 239.941 44.044C239.761 44.22 239.671 44.46 239.671 44.764C239.671 44.908 239.693 45.042 239.737 45.166C239.785 45.29 239.853 45.398 239.941 45.49C240.033 45.578 240.147 45.648 240.283 45.7C240.423 45.748 240.583 45.772 240.763 45.772ZM242.437 49.276C242.437 49.156 242.401 49.058 242.329 48.982C242.257 48.906 242.159 48.848 242.035 48.808C241.911 48.764 241.765 48.732 241.597 48.712C241.433 48.692 241.257 48.678 241.069 48.67C240.885 48.658 240.693 48.648 240.493 48.64C240.297 48.632 240.105 48.616 239.917 48.592C239.753 48.684 239.619 48.792 239.515 48.916C239.415 49.04 239.365 49.184 239.365 49.348C239.365 49.456 239.391 49.556 239.443 49.648C239.499 49.744 239.585 49.826 239.701 49.894C239.821 49.962 239.975 50.014 240.163 50.05C240.351 50.09 240.581 50.11 240.853 50.11C241.129 50.11 241.367 50.088 241.567 50.044C241.767 50.004 241.931 49.946 242.059 49.87C242.191 49.798 242.287 49.71 242.347 49.606C242.407 49.506 242.437 49.396 242.437 49.276ZM243.913 43.054V43.606C243.913 43.782 243.807 43.89 243.595 43.93L243.043 44.032C243.127 44.244 243.169 44.476 243.169 44.728C243.169 45.032 243.107 45.308 242.983 45.556C242.863 45.8 242.695 46.008 242.479 46.18C242.263 46.352 242.007 46.486 241.711 46.582C241.419 46.674 241.103 46.72 240.763 46.72C240.643 46.72 240.527 46.714 240.415 46.702C240.303 46.69 240.193 46.674 240.085 46.654C239.893 46.77 239.797 46.9 239.797 47.044C239.797 47.168 239.853 47.26 239.965 47.32C240.081 47.376 240.233 47.416 240.421 47.44C240.609 47.464 240.823 47.48 241.063 47.488C241.303 47.492 241.549 47.504 241.801 47.524C242.053 47.544 242.299 47.58 242.539 47.632C242.779 47.68 242.993 47.758 243.181 47.866C243.369 47.974 243.519 48.122 243.631 48.31C243.747 48.494 243.805 48.732 243.805 49.024C243.805 49.296 243.737 49.56 243.601 49.816C243.469 50.072 243.275 50.3 243.019 50.5C242.767 50.7 242.455 50.86 242.083 50.98C241.715 51.104 241.295 51.166 240.823 51.166C240.359 51.166 239.955 51.12 239.611 51.028C239.267 50.94 238.981 50.82 238.753 50.668C238.525 50.52 238.355 50.348 238.243 50.152C238.131 49.956 238.075 49.752 238.075 49.54C238.075 49.252 238.161 49.012 238.333 48.82C238.509 48.624 238.749 48.468 239.053 48.352C238.889 48.268 238.759 48.156 238.663 48.016C238.567 47.876 238.519 47.692 238.519 47.464C238.519 47.372 238.535 47.278 238.567 47.182C238.603 47.082 238.653 46.984 238.717 46.888C238.785 46.792 238.869 46.702 238.969 46.618C239.069 46.53 239.187 46.452 239.323 46.384C239.011 46.216 238.765 45.992 238.585 45.712C238.409 45.432 238.321 45.104 238.321 44.728C238.321 44.424 238.381 44.15 238.501 43.906C238.625 43.658 238.795 43.448 239.011 43.276C239.231 43.1 239.489 42.966 239.785 42.874C240.085 42.782 240.411 42.736 240.763 42.736C241.027 42.736 241.275 42.764 241.507 42.82C241.739 42.872 241.951 42.95 242.143 43.054H243.913ZM248.714 45.214C248.714 45.022 248.686 44.842 248.63 44.674C248.578 44.502 248.498 44.352 248.39 44.224C248.282 44.096 248.144 43.996 247.976 43.924C247.812 43.848 247.62 43.81 247.4 43.81C246.972 43.81 246.634 43.932 246.386 44.176C246.142 44.42 245.986 44.766 245.918 45.214H248.714ZM245.888 46.108C245.912 46.424 245.968 46.698 246.056 46.93C246.144 47.158 246.26 47.348 246.404 47.5C246.548 47.648 246.718 47.76 246.914 47.836C247.114 47.908 247.334 47.944 247.574 47.944C247.814 47.944 248.02 47.916 248.192 47.86C248.368 47.804 248.52 47.742 248.648 47.674C248.78 47.606 248.894 47.544 248.99 47.488C249.09 47.432 249.186 47.404 249.278 47.404C249.402 47.404 249.494 47.45 249.554 47.542L249.98 48.082C249.816 48.274 249.632 48.436 249.428 48.568C249.224 48.696 249.01 48.8 248.786 48.88C248.566 48.956 248.34 49.01 248.108 49.042C247.88 49.074 247.658 49.09 247.442 49.09C247.014 49.09 246.616 49.02 246.248 48.88C245.88 48.736 245.56 48.526 245.288 48.25C245.016 47.97 244.802 47.626 244.646 47.218C244.49 46.806 244.412 46.33 244.412 45.79C244.412 45.37 244.48 44.976 244.616 44.608C244.752 44.236 244.946 43.914 245.198 43.642C245.454 43.366 245.764 43.148 246.128 42.988C246.496 42.828 246.91 42.748 247.37 42.748C247.758 42.748 248.116 42.81 248.444 42.934C248.772 43.058 249.054 43.24 249.29 43.48C249.526 43.716 249.71 44.008 249.842 44.356C249.978 44.7 250.046 45.094 250.046 45.538C250.046 45.762 250.022 45.914 249.974 45.994C249.926 46.07 249.834 46.108 249.698 46.108H245.888ZM259.392 47.668V49H254.31V40.324H255.924V47.668H259.392ZM263.96 45.214C263.96 45.022 263.932 44.842 263.876 44.674C263.824 44.502 263.744 44.352 263.636 44.224C263.528 44.096 263.39 43.996 263.222 43.924C263.058 43.848 262.866 43.81 262.646 43.81C262.218 43.81 261.88 43.932 261.632 44.176C261.388 44.42 261.232 44.766 261.164 45.214H263.96ZM261.134 46.108C261.158 46.424 261.214 46.698 261.302 46.93C261.39 47.158 261.506 47.348 261.65 47.5C261.794 47.648 261.964 47.76 262.16 47.836C262.36 47.908 262.58 47.944 262.82 47.944C263.06 47.944 263.266 47.916 263.438 47.86C263.614 47.804 263.766 47.742 263.894 47.674C264.026 47.606 264.14 47.544 264.236 47.488C264.336 47.432 264.432 47.404 264.524 47.404C264.648 47.404 264.74 47.45 264.8 47.542L265.226 48.082C265.062 48.274 264.878 48.436 264.674 48.568C264.47 48.696 264.256 48.8 264.032 48.88C263.812 48.956 263.586 49.01 263.354 49.042C263.126 49.074 262.904 49.09 262.688 49.09C262.26 49.09 261.862 49.02 261.494 48.88C261.126 48.736 260.806 48.526 260.534 48.25C260.262 47.97 260.048 47.626 259.892 47.218C259.736 46.806 259.658 46.33 259.658 45.79C259.658 45.37 259.726 44.976 259.862 44.608C259.998 44.236 260.192 43.914 260.444 43.642C260.7 43.366 261.01 43.148 261.374 42.988C261.742 42.828 262.156 42.748 262.616 42.748C263.004 42.748 263.362 42.81 263.69 42.934C264.018 43.058 264.3 43.24 264.536 43.48C264.772 43.716 264.956 44.008 265.088 44.356C265.224 44.7 265.292 45.094 265.292 45.538C265.292 45.762 265.268 45.914 265.22 45.994C265.172 46.07 265.08 46.108 264.944 46.108H261.134ZM269.656 46.372C269.228 46.392 268.868 46.43 268.576 46.486C268.284 46.538 268.05 46.606 267.874 46.69C267.698 46.774 267.572 46.872 267.496 46.984C267.42 47.096 267.382 47.218 267.382 47.35C267.382 47.61 267.458 47.796 267.61 47.908C267.766 48.02 267.968 48.076 268.216 48.076C268.52 48.076 268.782 48.022 269.002 47.914C269.226 47.802 269.444 47.634 269.656 47.41V46.372ZM266.26 43.702C266.968 43.054 267.82 42.73 268.816 42.73C269.176 42.73 269.498 42.79 269.782 42.91C270.066 43.026 270.306 43.19 270.502 43.402C270.698 43.61 270.846 43.86 270.946 44.152C271.05 44.444 271.102 44.764 271.102 45.112V49H270.43C270.29 49 270.182 48.98 270.106 48.94C270.03 48.896 269.97 48.81 269.926 48.682L269.794 48.238C269.638 48.378 269.486 48.502 269.338 48.61C269.19 48.714 269.036 48.802 268.876 48.874C268.716 48.946 268.544 49 268.36 49.036C268.18 49.076 267.98 49.096 267.76 49.096C267.5 49.096 267.26 49.062 267.04 48.994C266.82 48.922 266.63 48.816 266.47 48.676C266.31 48.536 266.186 48.362 266.098 48.154C266.01 47.946 265.966 47.704 265.966 47.428C265.966 47.272 265.992 47.118 266.044 46.966C266.096 46.81 266.18 46.662 266.296 46.522C266.416 46.382 266.57 46.25 266.758 46.126C266.946 46.002 267.176 45.894 267.448 45.802C267.724 45.71 268.044 45.636 268.408 45.58C268.772 45.52 269.188 45.484 269.656 45.472V45.112C269.656 44.7 269.568 44.396 269.392 44.2C269.216 44 268.962 43.9 268.63 43.9C268.39 43.9 268.19 43.928 268.03 43.984C267.874 44.04 267.736 44.104 267.616 44.176C267.496 44.244 267.386 44.306 267.286 44.362C267.19 44.418 267.082 44.446 266.962 44.446C266.858 44.446 266.77 44.42 266.698 44.368C266.626 44.312 266.568 44.248 266.524 44.176L266.26 43.702ZM273.896 43.912C274.088 43.544 274.316 43.256 274.58 43.048C274.844 42.836 275.156 42.73 275.516 42.73C275.8 42.73 276.028 42.792 276.2 42.916L276.104 44.026C276.084 44.098 276.054 44.15 276.014 44.182C275.978 44.21 275.928 44.224 275.864 44.224C275.804 44.224 275.714 44.214 275.594 44.194C275.478 44.174 275.364 44.164 275.252 44.164C275.088 44.164 274.942 44.188 274.814 44.236C274.686 44.284 274.57 44.354 274.466 44.446C274.366 44.534 274.276 44.642 274.196 44.77C274.12 44.898 274.048 45.044 273.98 45.208V49H272.498V42.844H273.368C273.52 42.844 273.626 42.872 273.686 42.928C273.746 42.98 273.786 43.076 273.806 43.216L273.896 43.912ZM278.36 43.6C278.484 43.476 278.614 43.362 278.75 43.258C278.89 43.15 279.036 43.06 279.188 42.988C279.344 42.912 279.51 42.854 279.686 42.814C279.862 42.77 280.054 42.748 280.262 42.748C280.598 42.748 280.896 42.806 281.156 42.922C281.416 43.034 281.632 43.194 281.804 43.402C281.98 43.606 282.112 43.852 282.2 44.14C282.292 44.424 282.338 44.738 282.338 45.082V49H280.856V45.082C280.856 44.706 280.77 44.416 280.598 44.212C280.426 44.004 280.164 43.9 279.812 43.9C279.556 43.9 279.316 43.958 279.092 44.074C278.868 44.19 278.656 44.348 278.456 44.548V49H276.974V42.844H277.88C278.072 42.844 278.198 42.934 278.258 43.114L278.36 43.6ZM285.284 42.844V49H283.796V42.844H285.284ZM285.488 41.05C285.488 41.178 285.462 41.298 285.41 41.41C285.358 41.522 285.288 41.62 285.2 41.704C285.116 41.788 285.016 41.856 284.9 41.908C284.784 41.956 284.66 41.98 284.528 41.98C284.4 41.98 284.278 41.956 284.162 41.908C284.05 41.856 283.952 41.788 283.868 41.704C283.784 41.62 283.716 41.522 283.664 41.41C283.616 41.298 283.592 41.178 283.592 41.05C283.592 40.918 283.616 40.794 283.664 40.678C283.716 40.562 283.784 40.462 283.868 40.378C283.952 40.294 284.05 40.228 284.162 40.18C284.278 40.128 284.4 40.102 284.528 40.102C284.66 40.102 284.784 40.128 284.9 40.18C285.016 40.228 285.116 40.294 285.2 40.378C285.288 40.462 285.358 40.562 285.41 40.678C285.462 40.794 285.488 40.918 285.488 41.05ZM288.181 43.6C288.305 43.476 288.435 43.362 288.571 43.258C288.711 43.15 288.857 43.06 289.009 42.988C289.165 42.912 289.331 42.854 289.507 42.814C289.683 42.77 289.875 42.748 290.083 42.748C290.419 42.748 290.717 42.806 290.977 42.922C291.237 43.034 291.453 43.194 291.625 43.402C291.801 43.606 291.933 43.852 292.021 44.14C292.113 44.424 292.159 44.738 292.159 45.082V49H290.677V45.082C290.677 44.706 290.591 44.416 290.419 44.212C290.247 44.004 289.985 43.9 289.633 43.9C289.377 43.9 289.137 43.958 288.913 44.074C288.689 44.19 288.477 44.348 288.277 44.548V49H286.795V42.844H287.701C287.893 42.844 288.019 42.934 288.079 43.114L288.181 43.6ZM295.818 45.772C296.002 45.772 296.162 45.748 296.298 45.7C296.434 45.648 296.546 45.578 296.634 45.49C296.726 45.402 296.794 45.296 296.838 45.172C296.886 45.048 296.91 44.912 296.91 44.764C296.91 44.46 296.818 44.22 296.634 44.044C296.454 43.864 296.182 43.774 295.818 43.774C295.454 43.774 295.18 43.864 294.996 44.044C294.816 44.22 294.726 44.46 294.726 44.764C294.726 44.908 294.748 45.042 294.792 45.166C294.84 45.29 294.908 45.398 294.996 45.49C295.088 45.578 295.202 45.648 295.338 45.7C295.478 45.748 295.638 45.772 295.818 45.772ZM297.492 49.276C297.492 49.156 297.456 49.058 297.384 48.982C297.312 48.906 297.214 48.848 297.09 48.808C296.966 48.764 296.82 48.732 296.652 48.712C296.488 48.692 296.312 48.678 296.124 48.67C295.94 48.658 295.748 48.648 295.548 48.64C295.352 48.632 295.16 48.616 294.972 48.592C294.808 48.684 294.674 48.792 294.57 48.916C294.47 49.04 294.42 49.184 294.42 49.348C294.42 49.456 294.446 49.556 294.498 49.648C294.554 49.744 294.64 49.826 294.756 49.894C294.876 49.962 295.03 50.014 295.218 50.05C295.406 50.09 295.636 50.11 295.908 50.11C296.184 50.11 296.422 50.088 296.622 50.044C296.822 50.004 296.986 49.946 297.114 49.87C297.246 49.798 297.342 49.71 297.402 49.606C297.462 49.506 297.492 49.396 297.492 49.276ZM298.968 43.054V43.606C298.968 43.782 298.862 43.89 298.65 43.93L298.098 44.032C298.182 44.244 298.224 44.476 298.224 44.728C298.224 45.032 298.162 45.308 298.038 45.556C297.918 45.8 297.75 46.008 297.534 46.18C297.318 46.352 297.062 46.486 296.766 46.582C296.474 46.674 296.158 46.72 295.818 46.72C295.698 46.72 295.582 46.714 295.47 46.702C295.358 46.69 295.248 46.674 295.14 46.654C294.948 46.77 294.852 46.9 294.852 47.044C294.852 47.168 294.908 47.26 295.02 47.32C295.136 47.376 295.288 47.416 295.476 47.44C295.664 47.464 295.878 47.48 296.118 47.488C296.358 47.492 296.604 47.504 296.856 47.524C297.108 47.544 297.354 47.58 297.594 47.632C297.834 47.68 298.048 47.758 298.236 47.866C298.424 47.974 298.574 48.122 298.686 48.31C298.802 48.494 298.86 48.732 298.86 49.024C298.86 49.296 298.792 49.56 298.656 49.816C298.524 50.072 298.33 50.3 298.074 50.5C297.822 50.7 297.51 50.86 297.138 50.98C296.77 51.104 296.35 51.166 295.878 51.166C295.414 51.166 295.01 51.12 294.666 51.028C294.322 50.94 294.036 50.82 293.808 50.668C293.58 50.52 293.41 50.348 293.298 50.152C293.186 49.956 293.13 49.752 293.13 49.54C293.13 49.252 293.216 49.012 293.388 48.82C293.564 48.624 293.804 48.468 294.108 48.352C293.944 48.268 293.814 48.156 293.718 48.016C293.622 47.876 293.574 47.692 293.574 47.464C293.574 47.372 293.59 47.278 293.622 47.182C293.658 47.082 293.708 46.984 293.772 46.888C293.84 46.792 293.924 46.702 294.024 46.618C294.124 46.53 294.242 46.452 294.378 46.384C294.066 46.216 293.82 45.992 293.64 45.712C293.464 45.432 293.376 45.104 293.376 44.728C293.376 44.424 293.436 44.15 293.556 43.906C293.68 43.658 293.85 43.448 294.066 43.276C294.286 43.1 294.544 42.966 294.84 42.874C295.14 42.782 295.466 42.736 295.818 42.736C296.082 42.736 296.33 42.764 296.562 42.82C296.794 42.872 297.006 42.95 297.198 43.054H298.968Z" fill="#31479E"/>
<defs>
<filter id="filter0_d" x="0" y="0" width="343" height="107.789" filterUnits="userSpaceOnUse" color-interpolation-filters="sRGB">
<feFlood flood-opacity="0" result="BackgroundImageFix"/>
<feColorMatrix in="SourceAlpha" type="matrix" values="0 0 0 0 0 0 0 0 0 0 0 0 0 0 0 0 0 0 127 0"/>
<feOffset/>
<feGaussianBlur stdDeviation="10"/>
<feColorMatrix type="matrix" values="0 0 0 0 0 0 0 0 0 0 0 0 0 0 0 0 0 0 0.25 0"/>
<feBlend mode="normal" in2="BackgroundImageFix" result="effect1_dropShadow"/>
<feBlend mode="normal" in="SourceGraphic" in2="effect1_dropShadow" result="shape"/>
</filter>
</defs>
</svg>
