<svg width="763" height="185" viewBox="0 0 763 185" fill="none" xmlns="http://www.w3.org/2000/svg">
<g filter="url(#filter0_d)">
<mask id="path-1-inside-1" fill="white">
<path fill-rule="evenodd" clip-rule="evenodd" d="M736 20.8301C739.866 20.8301 743 23.9641 743 27.8301V100.497C743 104.363 739.866 107.497 736 107.497H703.314L703.314 161.192C703.314 163.435 700.943 164.884 698.947 163.863L588.821 107.497H27C23.134 107.497 20 104.363 20 100.497V27.8301C20 23.9641 23.134 20.8301 27 20.8301H736Z"/>
</mask>
<path fill-rule="evenodd" clip-rule="evenodd" d="M736 20.8301C739.866 20.8301 743 23.9641 743 27.8301V100.497C743 104.363 739.866 107.497 736 107.497H703.314L703.314 161.192C703.314 163.435 700.943 164.884 698.947 163.863L588.821 107.497H27C23.134 107.497 20 104.363 20 100.497V27.8301C20 23.9641 23.134 20.8301 27 20.8301H736Z" fill="white"/>
<path d="M703.314 107.497H700.314V104.497H703.314V107.497ZM703.314 161.192H700.314H703.314ZM698.947 163.863L697.58 166.533H697.58L698.947 163.863ZM588.821 107.497V104.497H589.544L590.188 104.827L588.821 107.497ZM740 27.8301C740 25.6209 738.209 23.8301 736 23.8301V17.8301C741.523 17.8301 746 22.3072 746 27.8301H740ZM740 100.497V27.8301H746V100.497H740ZM736 104.497C738.209 104.497 740 102.706 740 100.497H746C746 106.02 741.523 110.497 736 110.497V104.497ZM703.314 104.497H736V110.497H703.314V104.497ZM706.314 107.497L706.314 161.192H700.314L700.314 107.497H706.314ZM706.314 161.192C706.314 165.677 701.572 168.577 697.58 166.533L700.314 161.192H700.314H706.314ZM697.58 166.533L587.454 110.168L590.188 104.827L700.314 161.192L697.58 166.533ZM27 104.497H588.821V110.497H27V104.497ZM23 100.497C23 102.706 24.7909 104.497 27 104.497V110.497C21.4772 110.497 17 106.02 17 100.497H23ZM23 27.8301V100.497H17V27.8301H23ZM27 23.8301C24.7909 23.8301 23 25.6209 23 27.8301H17C17 22.3072 21.4772 17.8301 27 17.8301V23.8301ZM736 23.8301H27V17.8301H736V23.8301Z" fill="#ED1C24" mask="url(#path-1-inside-1)"/>
<path d="M74.096 67.7278V70.3918H63.932V53.0398H67.16V67.7278H74.096ZM83.2319 62.8198C83.2319 62.4358 83.1759 62.0758 83.0639 61.7398C82.9599 61.3958 82.7999 61.0958 82.5839 60.8398C82.3679 60.5838 82.0919 60.3838 81.7559 60.2398C81.4279 60.0878 81.0439 60.0118 80.6039 60.0118C79.7479 60.0118 79.0719 60.2558 78.5759 60.7438C78.0879 61.2318 77.7759 61.9238 77.6399 62.8198H83.2319ZM77.5799 64.6078C77.6279 65.2398 77.7399 65.7878 77.9159 66.2518C78.0919 66.7078 78.3239 67.0878 78.6119 67.3918C78.8999 67.6878 79.2399 67.9118 79.6319 68.0638C80.0319 68.2078 80.4719 68.2798 80.9519 68.2798C81.4319 68.2798 81.8439 68.2238 82.1879 68.1118C82.5399 67.9998 82.8439 67.8758 83.0999 67.7398C83.3639 67.6038 83.5919 67.4798 83.7839 67.3678C83.9839 67.2558 84.1759 67.1998 84.3599 67.1998C84.6079 67.1998 84.7919 67.2918 84.9119 67.4758L85.7639 68.5558C85.4359 68.9398 85.0679 69.2638 84.6599 69.5278C84.2519 69.7838 83.8239 69.9918 83.3759 70.1518C82.9359 70.3038 82.4839 70.4118 82.0199 70.4758C81.5639 70.5398 81.1199 70.5718 80.6879 70.5718C79.8319 70.5718 79.0359 70.4318 78.2999 70.1518C77.5639 69.8638 76.9239 69.4438 76.3799 68.8918C75.8359 68.3318 75.4079 67.6438 75.0959 66.8278C74.7839 66.0038 74.6279 65.0518 74.6279 63.9718C74.6279 63.1318 74.7639 62.3438 75.0359 61.6078C75.3079 60.8638 75.6959 60.2198 76.1999 59.6758C76.7119 59.1238 77.3319 58.6878 78.0599 58.3678C78.7959 58.0478 79.6239 57.8878 80.5439 57.8878C81.3199 57.8878 82.0359 58.0118 82.6919 58.2598C83.3479 58.5078 83.9119 58.8718 84.3839 59.3518C84.8559 59.8238 85.2239 60.4078 85.4879 61.1038C85.7599 61.7918 85.8959 62.5798 85.8959 63.4678C85.8959 63.9158 85.8479 64.2198 85.7519 64.3798C85.6559 64.5318 85.4719 64.6078 85.1999 64.6078H77.5799ZM94.6243 65.1358C93.7683 65.1758 93.0483 65.2518 92.4643 65.3638C91.8803 65.4678 91.4123 65.6038 91.0603 65.7718C90.7083 65.9398 90.4563 66.1358 90.3043 66.3598C90.1523 66.5838 90.0763 66.8278 90.0763 67.0918C90.0763 67.6118 90.2283 67.9838 90.5323 68.2078C90.8443 68.4318 91.2483 68.5438 91.7443 68.5438C92.3523 68.5438 92.8763 68.4358 93.3163 68.2198C93.7643 67.9958 94.2003 67.6598 94.6243 67.2118V65.1358ZM87.8323 59.7958C89.2483 58.4998 90.9523 57.8518 92.9443 57.8518C93.6643 57.8518 94.3083 57.9718 94.8763 58.2118C95.4443 58.4438 95.9243 58.7718 96.3163 59.1958C96.7083 59.6118 97.0043 60.1118 97.2043 60.6958C97.4123 61.2798 97.5163 61.9198 97.5163 62.6158V70.3918H96.1723C95.8923 70.3918 95.6763 70.3518 95.5243 70.2718C95.3723 70.1838 95.2523 70.0118 95.1643 69.7558L94.9003 68.8678C94.5883 69.1478 94.2843 69.3958 93.9883 69.6118C93.6923 69.8198 93.3843 69.9958 93.0643 70.1398C92.7443 70.2838 92.4003 70.3918 92.0323 70.4638C91.6723 70.5438 91.2723 70.5838 90.8323 70.5838C90.3123 70.5838 89.8323 70.5158 89.3923 70.3798C88.9523 70.2358 88.5723 70.0238 88.2523 69.7438C87.9323 69.4638 87.6843 69.1158 87.5083 68.6998C87.3323 68.2838 87.2443 67.7998 87.2443 67.2478C87.2443 66.9358 87.2963 66.6278 87.4003 66.3238C87.5043 66.0118 87.6723 65.7158 87.9043 65.4358C88.1443 65.1558 88.4523 64.8918 88.8283 64.6438C89.2043 64.3958 89.6643 64.1798 90.2083 63.9958C90.7603 63.8118 91.4003 63.6638 92.1283 63.5518C92.8563 63.4318 93.6883 63.3598 94.6243 63.3358V62.6158C94.6243 61.7918 94.4483 61.1838 94.0963 60.7918C93.7443 60.3918 93.2363 60.1918 92.5723 60.1918C92.0923 60.1918 91.6923 60.2478 91.3723 60.3598C91.0603 60.4718 90.7843 60.5998 90.5443 60.7438C90.3043 60.8798 90.0843 61.0038 89.8843 61.1158C89.6923 61.2278 89.4763 61.2838 89.2363 61.2838C89.0283 61.2838 88.8523 61.2318 88.7083 61.1278C88.5643 61.0158 88.4483 60.8878 88.3603 60.7438L87.8323 59.7958ZM103.104 60.2158C103.488 59.4798 103.944 58.9038 104.472 58.4878C105 58.0638 105.624 57.8518 106.344 57.8518C106.912 57.8518 107.368 57.9758 107.712 58.2238L107.52 60.4438C107.48 60.5878 107.42 60.6918 107.34 60.7558C107.268 60.8118 107.168 60.8398 107.04 60.8398C106.92 60.8398 106.74 60.8198 106.5 60.7798C106.268 60.7398 106.04 60.7198 105.816 60.7198C105.488 60.7198 105.196 60.7678 104.94 60.8638C104.684 60.9598 104.452 61.0998 104.244 61.2838C104.044 61.4598 103.864 61.6758 103.704 61.9318C103.552 62.1878 103.408 62.4798 103.272 62.8078V70.3918H100.308V58.0798H102.048C102.352 58.0798 102.564 58.1358 102.684 58.2478C102.804 58.3518 102.884 58.5438 102.924 58.8238L103.104 60.2158ZM112.033 59.5918C112.281 59.3438 112.541 59.1158 112.813 58.9078C113.093 58.6918 113.385 58.5118 113.689 58.3678C114.001 58.2158 114.333 58.0998 114.685 58.0198C115.037 57.9318 115.421 57.8878 115.837 57.8878C116.509 57.8878 117.105 58.0038 117.625 58.2358C118.145 58.4598 118.577 58.7798 118.921 59.1958C119.273 59.6038 119.537 60.0958 119.713 60.6718C119.897 61.2398 119.989 61.8678 119.989 62.5558V70.3918H117.025V62.5558C117.025 61.8038 116.853 61.2238 116.509 60.8158C116.165 60.3998 115.641 60.1918 114.937 60.1918C114.425 60.1918 113.945 60.3078 113.497 60.5398C113.049 60.7718 112.625 61.0878 112.225 61.4878V70.3918H109.261V58.0798H111.073C111.457 58.0798 111.709 58.2598 111.829 58.6198L112.033 59.5918ZM125.88 58.0798V70.3918H122.904V58.0798H125.88ZM126.288 54.4918C126.288 54.7478 126.236 54.9878 126.132 55.2118C126.028 55.4358 125.888 55.6318 125.712 55.7998C125.544 55.9678 125.344 56.1038 125.112 56.2078C124.88 56.3038 124.632 56.3518 124.368 56.3518C124.112 56.3518 123.868 56.3038 123.636 56.2078C123.412 56.1038 123.216 55.9678 123.048 55.7998C122.88 55.6318 122.744 55.4358 122.64 55.2118C122.544 54.9878 122.496 54.7478 122.496 54.4918C122.496 54.2278 122.544 53.9798 122.64 53.7478C122.744 53.5158 122.88 53.3158 123.048 53.1478C123.216 52.9798 123.412 52.8478 123.636 52.7518C123.868 52.6478 124.112 52.5958 124.368 52.5958C124.632 52.5958 124.88 52.6478 125.112 52.7518C125.344 52.8478 125.544 52.9798 125.712 53.1478C125.888 53.3158 126.028 53.5158 126.132 53.7478C126.236 53.9798 126.288 54.2278 126.288 54.4918ZM131.674 59.5918C131.922 59.3438 132.182 59.1158 132.454 58.9078C132.734 58.6918 133.026 58.5118 133.33 58.3678C133.642 58.2158 133.974 58.0998 134.326 58.0198C134.678 57.9318 135.062 57.8878 135.478 57.8878C136.15 57.8878 136.746 58.0038 137.266 58.2358C137.786 58.4598 138.218 58.7798 138.562 59.1958C138.914 59.6038 139.178 60.0958 139.354 60.6718C139.538 61.2398 139.63 61.8678 139.63 62.5558V70.3918H136.666V62.5558C136.666 61.8038 136.494 61.2238 136.15 60.8158C135.806 60.3998 135.282 60.1918 134.578 60.1918C134.066 60.1918 133.586 60.3078 133.138 60.5398C132.69 60.7718 132.266 61.0878 131.866 61.4878V70.3918H128.902V58.0798H130.714C131.098 58.0798 131.35 58.2598 131.47 58.6198L131.674 59.5918ZM146.948 63.9358C147.316 63.9358 147.636 63.8878 147.908 63.7918C148.18 63.6878 148.404 63.5478 148.58 63.3718C148.764 63.1958 148.9 62.9838 148.988 62.7358C149.084 62.4878 149.132 62.2158 149.132 61.9198C149.132 61.3118 148.948 60.8318 148.58 60.4798C148.22 60.1198 147.676 59.9398 146.948 59.9398C146.22 59.9398 145.672 60.1198 145.304 60.4798C144.944 60.8318 144.764 61.3118 144.764 61.9198C144.764 62.2078 144.808 62.4758 144.896 62.7238C144.992 62.9718 145.128 63.1878 145.304 63.3718C145.488 63.5478 145.716 63.6878 145.988 63.7918C146.268 63.8878 146.588 63.9358 146.948 63.9358ZM150.296 70.9438C150.296 70.7038 150.224 70.5078 150.08 70.3558C149.936 70.2038 149.74 70.0878 149.492 70.0078C149.244 69.9198 148.952 69.8558 148.616 69.8158C148.288 69.7758 147.936 69.7478 147.56 69.7318C147.192 69.7078 146.808 69.6878 146.408 69.6718C146.016 69.6558 145.632 69.6238 145.256 69.5758C144.928 69.7598 144.66 69.9758 144.452 70.2238C144.252 70.4718 144.152 70.7598 144.152 71.0878C144.152 71.3038 144.204 71.5038 144.308 71.6878C144.42 71.8798 144.592 72.0438 144.824 72.1798C145.064 72.3158 145.372 72.4198 145.748 72.4918C146.124 72.5718 146.584 72.6118 147.128 72.6118C147.68 72.6118 148.156 72.5678 148.556 72.4798C148.956 72.3998 149.284 72.2838 149.54 72.1318C149.804 71.9878 149.996 71.8118 150.116 71.6038C150.236 71.4038 150.296 71.1838 150.296 70.9438ZM153.248 58.4998V59.6038C153.248 59.9558 153.036 60.1718 152.612 60.2518L151.508 60.4558C151.676 60.8798 151.76 61.3438 151.76 61.8478C151.76 62.4558 151.636 63.0078 151.388 63.5038C151.148 63.9918 150.812 64.4078 150.38 64.7518C149.948 65.0958 149.436 65.3638 148.844 65.5558C148.26 65.7398 147.628 65.8318 146.948 65.8318C146.708 65.8318 146.476 65.8198 146.252 65.7958C146.028 65.7718 145.808 65.7398 145.592 65.6998C145.208 65.9318 145.016 66.1918 145.016 66.4798C145.016 66.7278 145.128 66.9118 145.352 67.0318C145.584 67.1438 145.888 67.2238 146.264 67.2718C146.64 67.3198 147.068 67.3518 147.548 67.3678C148.028 67.3758 148.52 67.3998 149.024 67.4398C149.528 67.4798 150.02 67.5518 150.5 67.6558C150.98 67.7518 151.408 67.9078 151.784 68.1238C152.16 68.3398 152.46 68.6358 152.684 69.0118C152.916 69.3798 153.032 69.8558 153.032 70.4398C153.032 70.9838 152.896 71.5118 152.624 72.0238C152.36 72.5358 151.972 72.9918 151.46 73.3918C150.956 73.7918 150.332 74.1118 149.588 74.3518C148.852 74.5998 148.012 74.7238 147.068 74.7238C146.14 74.7238 145.332 74.6318 144.644 74.4478C143.956 74.2718 143.384 74.0318 142.928 73.7278C142.472 73.4318 142.132 73.0878 141.908 72.6958C141.684 72.3038 141.572 71.8958 141.572 71.4718C141.572 70.8958 141.744 70.4158 142.088 70.0318C142.44 69.6398 142.92 69.3278 143.528 69.0958C143.2 68.9278 142.94 68.7038 142.748 68.4238C142.556 68.1438 142.46 67.7758 142.46 67.3198C142.46 67.1358 142.492 66.9478 142.556 66.7558C142.628 66.5558 142.728 66.3598 142.856 66.1678C142.992 65.9758 143.16 65.7958 143.36 65.6278C143.56 65.4518 143.796 65.2958 144.068 65.1598C143.444 64.8238 142.952 64.3758 142.592 63.8158C142.24 63.2558 142.064 62.5998 142.064 61.8478C142.064 61.2398 142.184 60.6918 142.424 60.2038C142.672 59.7078 143.012 59.2878 143.444 58.9438C143.884 58.5918 144.4 58.3238 144.992 58.1398C145.592 57.9558 146.244 57.8638 146.948 57.8638C147.476 57.8638 147.972 57.9198 148.436 58.0318C148.9 58.1358 149.324 58.2918 149.708 58.4998H153.248ZM168.476 60.4798C168.396 60.6078 168.312 60.6998 168.224 60.7558C168.136 60.8038 168.024 60.8278 167.888 60.8278C167.744 60.8278 167.588 60.7878 167.42 60.7078C167.26 60.6278 167.072 60.5398 166.856 60.4438C166.64 60.3398 166.392 60.2478 166.112 60.1678C165.84 60.0878 165.516 60.0478 165.14 60.0478C164.556 60.0478 164.096 60.1718 163.76 60.4198C163.432 60.6678 163.268 60.9918 163.268 61.3918C163.268 61.6558 163.352 61.8798 163.52 62.0638C163.696 62.2398 163.924 62.3958 164.204 62.5318C164.492 62.6678 164.816 62.7918 165.176 62.9038C165.536 63.0078 165.9 63.1238 166.268 63.2518C166.644 63.3798 167.012 63.5278 167.372 63.6958C167.732 63.8558 168.052 64.0638 168.332 64.3198C168.62 64.5678 168.848 64.8678 169.016 65.2198C169.192 65.5718 169.28 65.9958 169.28 66.4918C169.28 67.0838 169.172 67.6318 168.956 68.1358C168.748 68.6318 168.436 69.0638 168.02 69.4318C167.604 69.7918 167.088 70.0758 166.472 70.2838C165.864 70.4838 165.16 70.5838 164.36 70.5838C163.936 70.5838 163.52 70.5438 163.112 70.4638C162.712 70.3918 162.324 70.2878 161.948 70.1518C161.58 70.0158 161.236 69.8558 160.916 69.6718C160.604 69.4878 160.328 69.2878 160.088 69.0718L160.772 67.9438C160.86 67.8078 160.964 67.7038 161.084 67.6318C161.204 67.5598 161.356 67.5238 161.54 67.5238C161.724 67.5238 161.896 67.5758 162.056 67.6798C162.224 67.7838 162.416 67.8958 162.632 68.0158C162.848 68.1358 163.1 68.2478 163.388 68.3518C163.684 68.4558 164.056 68.5078 164.504 68.5078C164.856 68.5078 165.156 68.4678 165.404 68.3878C165.66 68.2998 165.868 68.1878 166.028 68.0518C166.196 67.9158 166.316 67.7598 166.388 67.5838C166.468 67.3998 166.508 67.2118 166.508 67.0198C166.508 66.7318 166.42 66.4958 166.244 66.3118C166.076 66.1278 165.848 65.9678 165.56 65.8318C165.28 65.6958 164.956 65.5758 164.588 65.4718C164.228 65.3598 163.856 65.2398 163.472 65.1118C163.096 64.9838 162.724 64.8358 162.356 64.6678C161.996 64.4918 161.672 64.2718 161.384 64.0078C161.104 63.7438 160.876 63.4198 160.7 63.0358C160.532 62.6518 160.448 62.1878 160.448 61.6438C160.448 61.1398 160.548 60.6598 160.748 60.2038C160.948 59.7478 161.24 59.3518 161.624 59.0158C162.016 58.6718 162.5 58.3998 163.076 58.1998C163.66 57.9918 164.332 57.8878 165.092 57.8878C165.94 57.8878 166.712 58.0278 167.408 58.3078C168.104 58.5878 168.684 58.9558 169.148 59.4118L168.476 60.4798ZM175.615 70.5838C174.543 70.5838 173.719 70.2838 173.143 69.6838C172.575 69.0758 172.291 68.2398 172.291 67.1758V60.2998H171.031C170.871 60.2998 170.735 60.2478 170.623 60.1438C170.511 60.0398 170.455 59.8838 170.455 59.6758V58.4998L172.435 58.1758L173.059 54.8158C173.099 54.6558 173.175 54.5318 173.287 54.4438C173.399 54.3558 173.543 54.3118 173.719 54.3118H175.255V58.1878H178.543V60.2998H175.255V66.9718C175.255 67.3558 175.347 67.6558 175.531 67.8718C175.723 68.0878 175.983 68.1958 176.311 68.1958C176.495 68.1958 176.647 68.1758 176.767 68.1358C176.895 68.0878 177.003 68.0398 177.091 67.9918C177.187 67.9438 177.271 67.8998 177.343 67.8598C177.415 67.8118 177.487 67.7878 177.559 67.7878C177.647 67.7878 177.719 67.8118 177.775 67.8598C177.831 67.8998 177.891 67.9638 177.955 68.0518L178.843 69.4918C178.411 69.8518 177.915 70.1238 177.355 70.3078C176.795 70.4918 176.215 70.5838 175.615 70.5838ZM191.625 58.0798L184.917 73.7758C184.829 73.9838 184.713 74.1398 184.569 74.2438C184.433 74.3558 184.221 74.4118 183.933 74.4118H181.725L184.029 69.4678L179.049 58.0798H181.653C181.885 58.0798 182.065 58.1358 182.193 58.2478C182.329 58.3598 182.429 58.4878 182.493 58.6318L185.109 65.0158C185.197 65.2318 185.269 65.4478 185.325 65.6638C185.389 65.8798 185.449 66.0998 185.505 66.3238C185.577 66.0998 185.649 65.8798 185.721 65.6638C185.793 65.4398 185.873 65.2198 185.961 65.0038L188.433 58.6318C188.497 58.4718 188.601 58.3398 188.745 58.2358C188.897 58.1318 189.065 58.0798 189.249 58.0798H191.625ZM196.097 52.5598V70.3918H193.133V52.5598H196.097ZM206.982 62.8198C206.982 62.4358 206.926 62.0758 206.814 61.7398C206.71 61.3958 206.55 61.0958 206.334 60.8398C206.118 60.5838 205.842 60.3838 205.506 60.2398C205.178 60.0878 204.794 60.0118 204.354 60.0118C203.498 60.0118 202.822 60.2558 202.326 60.7438C201.838 61.2318 201.526 61.9238 201.39 62.8198H206.982ZM201.33 64.6078C201.378 65.2398 201.49 65.7878 201.666 66.2518C201.842 66.7078 202.074 67.0878 202.362 67.3918C202.65 67.6878 202.99 67.9118 203.382 68.0638C203.782 68.2078 204.222 68.2798 204.702 68.2798C205.182 68.2798 205.594 68.2238 205.938 68.1118C206.29 67.9998 206.594 67.8758 206.85 67.7398C207.114 67.6038 207.342 67.4798 207.534 67.3678C207.734 67.2558 207.926 67.1998 208.11 67.1998C208.358 67.1998 208.542 67.2918 208.662 67.4758L209.514 68.5558C209.186 68.9398 208.818 69.2638 208.41 69.5278C208.002 69.7838 207.574 69.9918 207.126 70.1518C206.686 70.3038 206.234 70.4118 205.77 70.4758C205.314 70.5398 204.87 70.5718 204.438 70.5718C203.582 70.5718 202.786 70.4318 202.05 70.1518C201.314 69.8638 200.674 69.4438 200.13 68.8918C199.586 68.3318 199.158 67.6438 198.846 66.8278C198.534 66.0038 198.378 65.0518 198.378 63.9718C198.378 63.1318 198.514 62.3438 198.786 61.6078C199.058 60.8638 199.446 60.2198 199.95 59.6758C200.462 59.1238 201.082 58.6878 201.81 58.3678C202.546 58.0478 203.374 57.8878 204.294 57.8878C205.07 57.8878 205.786 58.0118 206.442 58.2598C207.098 58.5078 207.662 58.8718 208.134 59.3518C208.606 59.8238 208.974 60.4078 209.238 61.1038C209.51 61.7918 209.646 62.5798 209.646 63.4678C209.646 63.9158 209.598 64.2198 209.502 64.3798C209.406 64.5318 209.222 64.6078 208.95 64.6078H201.33ZM219.382 60.4798C219.302 60.6078 219.218 60.6998 219.13 60.7558C219.042 60.8038 218.93 60.8278 218.794 60.8278C218.65 60.8278 218.494 60.7878 218.326 60.7078C218.166 60.6278 217.978 60.5398 217.762 60.4438C217.546 60.3398 217.298 60.2478 217.018 60.1678C216.746 60.0878 216.422 60.0478 216.046 60.0478C215.462 60.0478 215.002 60.1718 214.666 60.4198C214.338 60.6678 214.174 60.9918 214.174 61.3918C214.174 61.6558 214.258 61.8798 214.426 62.0638C214.602 62.2398 214.83 62.3958 215.11 62.5318C215.398 62.6678 215.722 62.7918 216.082 62.9038C216.442 63.0078 216.806 63.1238 217.174 63.2518C217.55 63.3798 217.918 63.5278 218.278 63.6958C218.638 63.8558 218.958 64.0638 219.238 64.3198C219.526 64.5678 219.754 64.8678 219.922 65.2198C220.098 65.5718 220.186 65.9958 220.186 66.4918C220.186 67.0838 220.078 67.6318 219.862 68.1358C219.654 68.6318 219.342 69.0638 218.926 69.4318C218.51 69.7918 217.994 70.0758 217.378 70.2838C216.77 70.4838 216.066 70.5838 215.266 70.5838C214.842 70.5838 214.426 70.5438 214.018 70.4638C213.618 70.3918 213.23 70.2878 212.854 70.1518C212.486 70.0158 212.142 69.8558 211.822 69.6718C211.51 69.4878 211.234 69.2878 210.994 69.0718L211.678 67.9438C211.766 67.8078 211.87 67.7038 211.99 67.6318C212.11 67.5598 212.262 67.5238 212.446 67.5238C212.63 67.5238 212.802 67.5758 212.962 67.6798C213.13 67.7838 213.322 67.8958 213.538 68.0158C213.754 68.1358 214.006 68.2478 214.294 68.3518C214.59 68.4558 214.962 68.5078 215.41 68.5078C215.762 68.5078 216.062 68.4678 216.31 68.3878C216.566 68.2998 216.774 68.1878 216.934 68.0518C217.102 67.9158 217.222 67.7598 217.294 67.5838C217.374 67.3998 217.414 67.2118 217.414 67.0198C217.414 66.7318 217.326 66.4958 217.15 66.3118C216.982 66.1278 216.754 65.9678 216.466 65.8318C216.186 65.6958 215.862 65.5758 215.494 65.4718C215.134 65.3598 214.762 65.2398 214.378 65.1118C214.002 64.9838 213.63 64.8358 213.262 64.6678C212.902 64.4918 212.578 64.2718 212.29 64.0078C212.01 63.7438 211.782 63.4198 211.606 63.0358C211.438 62.6518 211.354 62.1878 211.354 61.6438C211.354 61.1398 211.454 60.6598 211.654 60.2038C211.854 59.7478 212.146 59.3518 212.53 59.0158C212.922 58.6718 213.406 58.3998 213.982 58.1998C214.566 57.9918 215.238 57.8878 215.998 57.8878C216.846 57.8878 217.618 58.0278 218.314 58.3078C219.01 58.5878 219.59 58.9558 220.054 59.4118L219.382 60.4798ZM234.757 65.1358C233.901 65.1758 233.181 65.2518 232.597 65.3638C232.013 65.4678 231.545 65.6038 231.193 65.7718C230.841 65.9398 230.589 66.1358 230.437 66.3598C230.285 66.5838 230.209 66.8278 230.209 67.0918C230.209 67.6118 230.361 67.9838 230.665 68.2078C230.977 68.4318 231.381 68.5438 231.877 68.5438C232.485 68.5438 233.009 68.4358 233.449 68.2198C233.897 67.9958 234.333 67.6598 234.757 67.2118V65.1358ZM227.965 59.7958C229.381 58.4998 231.085 57.8518 233.077 57.8518C233.797 57.8518 234.441 57.9718 235.009 58.2118C235.577 58.4438 236.057 58.7718 236.449 59.1958C236.841 59.6118 237.137 60.1118 237.337 60.6958C237.545 61.2798 237.649 61.9198 237.649 62.6158V70.3918H236.305C236.025 70.3918 235.809 70.3518 235.657 70.2718C235.505 70.1838 235.385 70.0118 235.297 69.7558L235.033 68.8678C234.721 69.1478 234.417 69.3958 234.121 69.6118C233.825 69.8198 233.517 69.9958 233.197 70.1398C232.877 70.2838 232.533 70.3918 232.165 70.4638C231.805 70.5438 231.405 70.5838 230.965 70.5838C230.445 70.5838 229.965 70.5158 229.525 70.3798C229.085 70.2358 228.705 70.0238 228.385 69.7438C228.065 69.4638 227.817 69.1158 227.641 68.6998C227.465 68.2838 227.377 67.7998 227.377 67.2478C227.377 66.9358 227.429 66.6278 227.533 66.3238C227.637 66.0118 227.805 65.7158 228.037 65.4358C228.277 65.1558 228.585 64.8918 228.961 64.6438C229.337 64.3958 229.797 64.1798 230.341 63.9958C230.893 63.8118 231.533 63.6638 232.261 63.5518C232.989 63.4318 233.821 63.3598 234.757 63.3358V62.6158C234.757 61.7918 234.581 61.1838 234.229 60.7918C233.877 60.3918 233.369 60.1918 232.705 60.1918C232.225 60.1918 231.825 60.2478 231.505 60.3598C231.193 60.4718 230.917 60.5998 230.677 60.7438C230.437 60.8798 230.217 61.0038 230.017 61.1158C229.825 61.2278 229.609 61.2838 229.369 61.2838C229.161 61.2838 228.985 61.2318 228.841 61.1278C228.697 61.0158 228.581 60.8878 228.493 60.7438L227.965 59.7958ZM243.213 59.5918C243.461 59.3438 243.721 59.1158 243.993 58.9078C244.273 58.6918 244.565 58.5118 244.869 58.3678C245.181 58.2158 245.513 58.0998 245.865 58.0198C246.217 57.9318 246.601 57.8878 247.017 57.8878C247.689 57.8878 248.285 58.0038 248.805 58.2358C249.325 58.4598 249.757 58.7798 250.101 59.1958C250.453 59.6038 250.717 60.0958 250.893 60.6718C251.077 61.2398 251.169 61.8678 251.169 62.5558V70.3918H248.205V62.5558C248.205 61.8038 248.033 61.2238 247.689 60.8158C247.345 60.3998 246.821 60.1918 246.117 60.1918C245.605 60.1918 245.125 60.3078 244.677 60.5398C244.229 60.7718 243.805 61.0878 243.405 61.4878V70.3918H240.441V58.0798H242.253C242.637 58.0798 242.889 58.2598 243.009 58.6198L243.213 59.5918ZM261.715 61.2238C261.379 60.8158 261.011 60.5278 260.611 60.3598C260.219 60.1918 259.795 60.1078 259.339 60.1078C258.891 60.1078 258.487 60.1918 258.127 60.3598C257.767 60.5278 257.459 60.7838 257.203 61.1278C256.947 61.4638 256.751 61.8958 256.615 62.4238C256.479 62.9438 256.411 63.5598 256.411 64.2718C256.411 64.9918 256.467 65.6038 256.579 66.1078C256.699 66.6038 256.867 67.0118 257.083 67.3318C257.299 67.6438 257.563 67.8718 257.875 68.0158C258.187 68.1518 258.535 68.2198 258.919 68.2198C259.535 68.2198 260.059 68.0918 260.491 67.8358C260.923 67.5798 261.331 67.2158 261.715 66.7438V61.2238ZM264.679 52.5598V70.3918H262.867C262.475 70.3918 262.227 70.2118 262.123 69.8518L261.871 68.6638C261.375 69.2318 260.803 69.6918 260.155 70.0438C259.515 70.3958 258.767 70.5718 257.911 70.5718C257.239 70.5718 256.623 70.4318 256.063 70.1518C255.503 69.8718 255.019 69.4678 254.611 68.9398C254.211 68.4038 253.899 67.7438 253.675 66.9598C253.459 66.1758 253.351 65.2798 253.351 64.2718C253.351 63.3598 253.475 62.5118 253.723 61.7278C253.971 60.9438 254.327 60.2638 254.791 59.6878C255.255 59.1118 255.811 58.6638 256.459 58.3438C257.107 58.0158 257.835 57.8518 258.643 57.8518C259.331 57.8518 259.919 57.9598 260.407 58.1758C260.895 58.3918 261.331 58.6838 261.715 59.0518V52.5598H264.679ZM279.945 65.1358C279.089 65.1758 278.369 65.2518 277.785 65.3638C277.201 65.4678 276.733 65.6038 276.381 65.7718C276.029 65.9398 275.777 66.1358 275.625 66.3598C275.473 66.5838 275.397 66.8278 275.397 67.0918C275.397 67.6118 275.549 67.9838 275.853 68.2078C276.165 68.4318 276.569 68.5438 277.065 68.5438C277.673 68.5438 278.197 68.4358 278.637 68.2198C279.085 67.9958 279.521 67.6598 279.945 67.2118V65.1358ZM273.153 59.7958C274.569 58.4998 276.273 57.8518 278.265 57.8518C278.985 57.8518 279.629 57.9718 280.197 58.2118C280.765 58.4438 281.245 58.7718 281.637 59.1958C282.029 59.6118 282.325 60.1118 282.525 60.6958C282.733 61.2798 282.837 61.9198 282.837 62.6158V70.3918H281.493C281.213 70.3918 280.997 70.3518 280.845 70.2718C280.693 70.1838 280.573 70.0118 280.485 69.7558L280.221 68.8678C279.909 69.1478 279.605 69.3958 279.309 69.6118C279.013 69.8198 278.705 69.9958 278.385 70.1398C278.065 70.2838 277.721 70.3918 277.353 70.4638C276.993 70.5438 276.593 70.5838 276.153 70.5838C275.633 70.5838 275.153 70.5158 274.713 70.3798C274.273 70.2358 273.893 70.0238 273.573 69.7438C273.253 69.4638 273.005 69.1158 272.829 68.6998C272.653 68.2838 272.565 67.7998 272.565 67.2478C272.565 66.9358 272.617 66.6278 272.721 66.3238C272.825 66.0118 272.993 65.7158 273.225 65.4358C273.465 65.1558 273.773 64.8918 274.149 64.6438C274.525 64.3958 274.985 64.1798 275.529 63.9958C276.081 63.8118 276.721 63.6638 277.449 63.5518C278.177 63.4318 279.009 63.3598 279.945 63.3358V62.6158C279.945 61.7918 279.769 61.1838 279.417 60.7918C279.065 60.3918 278.557 60.1918 277.893 60.1918C277.413 60.1918 277.013 60.2478 276.693 60.3598C276.381 60.4718 276.105 60.5998 275.865 60.7438C275.625 60.8798 275.405 61.0038 275.205 61.1158C275.013 61.2278 274.797 61.2838 274.557 61.2838C274.349 61.2838 274.173 61.2318 274.029 61.1278C273.885 61.0158 273.769 60.8878 273.681 60.7438L273.153 59.7958ZM293.356 61.2238C293.02 60.8158 292.652 60.5278 292.252 60.3598C291.86 60.1918 291.436 60.1078 290.98 60.1078C290.532 60.1078 290.128 60.1918 289.768 60.3598C289.408 60.5278 289.1 60.7838 288.844 61.1278C288.588 61.4638 288.392 61.8958 288.256 62.4238C288.12 62.9438 288.052 63.5598 288.052 64.2718C288.052 64.9918 288.108 65.6038 288.22 66.1078C288.34 66.6038 288.508 67.0118 288.724 67.3318C288.94 67.6438 289.204 67.8718 289.516 68.0158C289.828 68.1518 290.176 68.2198 290.56 68.2198C291.176 68.2198 291.7 68.0918 292.132 67.8358C292.564 67.5798 292.972 67.2158 293.356 66.7438V61.2238ZM296.32 52.5598V70.3918H294.508C294.116 70.3918 293.868 70.2118 293.764 69.8518L293.512 68.6638C293.016 69.2318 292.444 69.6918 291.796 70.0438C291.156 70.3958 290.408 70.5718 289.552 70.5718C288.88 70.5718 288.264 70.4318 287.704 70.1518C287.144 69.8718 286.66 69.4678 286.252 68.9398C285.852 68.4038 285.54 67.7438 285.316 66.9598C285.1 66.1758 284.992 65.2798 284.992 64.2718C284.992 63.3598 285.116 62.5118 285.364 61.7278C285.612 60.9438 285.968 60.2638 286.432 59.6878C286.896 59.1118 287.452 58.6638 288.1 58.3438C288.748 58.0158 289.476 57.8518 290.284 57.8518C290.972 57.8518 291.56 57.9598 292.048 58.1758C292.536 58.3918 292.972 58.6838 293.356 59.0518V52.5598H296.32ZM309.853 58.0798V70.3918H308.041C307.649 70.3918 307.401 70.2118 307.297 69.8518L307.093 68.8678C306.589 69.3798 306.033 69.7958 305.425 70.1158C304.817 70.4278 304.101 70.5838 303.277 70.5838C302.605 70.5838 302.009 70.4718 301.489 70.2478C300.977 70.0158 300.545 69.6918 300.193 69.2758C299.841 68.8598 299.573 68.3678 299.389 67.7998C299.213 67.2238 299.125 66.5918 299.125 65.9038V58.0798H302.089V65.9038C302.089 66.6558 302.261 67.2398 302.605 67.6558C302.957 68.0638 303.481 68.2678 304.177 68.2678C304.689 68.2678 305.169 68.1558 305.617 67.9318C306.065 67.6998 306.489 67.3838 306.889 66.9838V58.0798H309.853ZM315.792 52.5598V70.3918H312.828V52.5598H315.792ZM322.849 70.5838C321.777 70.5838 320.953 70.2838 320.377 69.6838C319.809 69.0758 319.525 68.2398 319.525 67.1758V60.2998H318.265C318.105 60.2998 317.969 60.2478 317.857 60.1438C317.745 60.0398 317.689 59.8838 317.689 59.6758V58.4998L319.669 58.1758L320.293 54.8158C320.333 54.6558 320.409 54.5318 320.521 54.4438C320.633 54.3558 320.777 54.3118 320.953 54.3118H322.489V58.1878H325.777V60.2998H322.489V66.9718C322.489 67.3558 322.581 67.6558 322.765 67.8718C322.957 68.0878 323.217 68.1958 323.545 68.1958C323.729 68.1958 323.881 68.1758 324.001 68.1358C324.129 68.0878 324.237 68.0398 324.325 67.9918C324.421 67.9438 324.505 67.8998 324.577 67.8598C324.649 67.8118 324.721 67.7878 324.793 67.7878C324.881 67.7878 324.953 67.8118 325.009 67.8598C325.065 67.8998 325.125 67.9638 325.189 68.0518L326.077 69.4918C325.645 69.8518 325.149 70.1238 324.589 70.3078C324.029 70.4918 323.449 70.5838 322.849 70.5838ZM336.511 52.5598V70.3918H333.547V52.5598H336.511ZM347.396 62.8198C347.396 62.4358 347.34 62.0758 347.228 61.7398C347.124 61.3958 346.964 61.0958 346.748 60.8398C346.532 60.5838 346.256 60.3838 345.92 60.2398C345.592 60.0878 345.208 60.0118 344.768 60.0118C343.912 60.0118 343.236 60.2558 342.74 60.7438C342.252 61.2318 341.94 61.9238 341.804 62.8198H347.396ZM341.744 64.6078C341.792 65.2398 341.904 65.7878 342.08 66.2518C342.256 66.7078 342.488 67.0878 342.776 67.3918C343.064 67.6878 343.404 67.9118 343.796 68.0638C344.196 68.2078 344.636 68.2798 345.116 68.2798C345.596 68.2798 346.008 68.2238 346.352 68.1118C346.704 67.9998 347.008 67.8758 347.264 67.7398C347.528 67.6038 347.756 67.4798 347.948 67.3678C348.148 67.2558 348.34 67.1998 348.524 67.1998C348.772 67.1998 348.956 67.2918 349.076 67.4758L349.928 68.5558C349.6 68.9398 349.232 69.2638 348.824 69.5278C348.416 69.7838 347.988 69.9918 347.54 70.1518C347.1 70.3038 346.648 70.4118 346.184 70.4758C345.728 70.5398 345.284 70.5718 344.852 70.5718C343.996 70.5718 343.2 70.4318 342.464 70.1518C341.728 69.8638 341.088 69.4438 340.544 68.8918C340 68.3318 339.572 67.6438 339.26 66.8278C338.948 66.0038 338.792 65.0518 338.792 63.9718C338.792 63.1318 338.928 62.3438 339.2 61.6078C339.472 60.8638 339.86 60.2198 340.364 59.6758C340.876 59.1238 341.496 58.6878 342.224 58.3678C342.96 58.0478 343.788 57.8878 344.708 57.8878C345.484 57.8878 346.2 58.0118 346.856 58.2598C347.512 58.5078 348.076 58.8718 348.548 59.3518C349.02 59.8238 349.388 60.4078 349.652 61.1038C349.924 61.7918 350.06 62.5798 350.06 63.4678C350.06 63.9158 350.012 64.2198 349.916 64.3798C349.82 64.5318 349.636 64.6078 349.364 64.6078H341.744ZM358.788 65.1358C357.932 65.1758 357.212 65.2518 356.628 65.3638C356.044 65.4678 355.576 65.6038 355.224 65.7718C354.872 65.9398 354.62 66.1358 354.468 66.3598C354.316 66.5838 354.24 66.8278 354.24 67.0918C354.24 67.6118 354.392 67.9838 354.696 68.2078C355.008 68.4318 355.412 68.5438 355.908 68.5438C356.516 68.5438 357.04 68.4358 357.48 68.2198C357.928 67.9958 358.364 67.6598 358.788 67.2118V65.1358ZM351.996 59.7958C353.412 58.4998 355.116 57.8518 357.108 57.8518C357.828 57.8518 358.472 57.9718 359.04 58.2118C359.608 58.4438 360.088 58.7718 360.48 59.1958C360.872 59.6118 361.168 60.1118 361.368 60.6958C361.576 61.2798 361.68 61.9198 361.68 62.6158V70.3918H360.336C360.056 70.3918 359.84 70.3518 359.688 70.2718C359.536 70.1838 359.416 70.0118 359.328 69.7558L359.064 68.8678C358.752 69.1478 358.448 69.3958 358.152 69.6118C357.856 69.8198 357.548 69.9958 357.228 70.1398C356.908 70.2838 356.564 70.3918 356.196 70.4638C355.836 70.5438 355.436 70.5838 354.996 70.5838C354.476 70.5838 353.996 70.5158 353.556 70.3798C353.116 70.2358 352.736 70.0238 352.416 69.7438C352.096 69.4638 351.848 69.1158 351.672 68.6998C351.496 68.2838 351.408 67.7998 351.408 67.2478C351.408 66.9358 351.46 66.6278 351.564 66.3238C351.668 66.0118 351.836 65.7158 352.068 65.4358C352.308 65.1558 352.616 64.8918 352.992 64.6438C353.368 64.3958 353.828 64.1798 354.372 63.9958C354.924 63.8118 355.564 63.6638 356.292 63.5518C357.02 63.4318 357.852 63.3598 358.788 63.3358V62.6158C358.788 61.7918 358.612 61.1838 358.26 60.7918C357.908 60.3918 357.4 60.1918 356.736 60.1918C356.256 60.1918 355.856 60.2478 355.536 60.3598C355.224 60.4718 354.948 60.5998 354.708 60.7438C354.468 60.8798 354.248 61.0038 354.048 61.1158C353.856 61.2278 353.64 61.2838 353.4 61.2838C353.192 61.2838 353.016 61.2318 352.872 61.1278C352.728 61.0158 352.612 60.8878 352.524 60.7438L351.996 59.7958ZM367.268 60.2158C367.652 59.4798 368.108 58.9038 368.636 58.4878C369.164 58.0638 369.788 57.8518 370.508 57.8518C371.076 57.8518 371.532 57.9758 371.876 58.2238L371.684 60.4438C371.644 60.5878 371.584 60.6918 371.504 60.7558C371.432 60.8118 371.332 60.8398 371.204 60.8398C371.084 60.8398 370.904 60.8198 370.664 60.7798C370.432 60.7398 370.204 60.7198 369.98 60.7198C369.652 60.7198 369.36 60.7678 369.104 60.8638C368.848 60.9598 368.616 61.0998 368.408 61.2838C368.208 61.4598 368.028 61.6758 367.868 61.9318C367.716 62.1878 367.572 62.4798 367.436 62.8078V70.3918H364.472V58.0798H366.212C366.516 58.0798 366.728 58.1358 366.848 58.2478C366.968 58.3518 367.048 58.5438 367.088 58.8238L367.268 60.2158ZM376.197 59.5918C376.445 59.3438 376.705 59.1158 376.977 58.9078C377.257 58.6918 377.549 58.5118 377.853 58.3678C378.165 58.2158 378.497 58.0998 378.849 58.0198C379.201 57.9318 379.585 57.8878 380.001 57.8878C380.673 57.8878 381.269 58.0038 381.789 58.2358C382.309 58.4598 382.741 58.7798 383.085 59.1958C383.437 59.6038 383.701 60.0958 383.877 60.6718C384.061 61.2398 384.153 61.8678 384.153 62.5558V70.3918H381.189V62.5558C381.189 61.8038 381.017 61.2238 380.673 60.8158C380.329 60.3998 379.805 60.1918 379.101 60.1918C378.589 60.1918 378.109 60.3078 377.661 60.5398C377.213 60.7718 376.789 61.0878 376.389 61.4878V70.3918H373.425V58.0798H375.237C375.621 58.0798 375.873 58.2598 375.993 58.6198L376.197 59.5918ZM394.904 62.8198C394.904 62.4358 394.848 62.0758 394.736 61.7398C394.632 61.3958 394.472 61.0958 394.256 60.8398C394.04 60.5838 393.764 60.3838 393.428 60.2398C393.1 60.0878 392.716 60.0118 392.276 60.0118C391.42 60.0118 390.744 60.2558 390.248 60.7438C389.76 61.2318 389.448 61.9238 389.312 62.8198H394.904ZM389.252 64.6078C389.3 65.2398 389.412 65.7878 389.588 66.2518C389.764 66.7078 389.996 67.0878 390.284 67.3918C390.572 67.6878 390.912 67.9118 391.304 68.0638C391.704 68.2078 392.144 68.2798 392.624 68.2798C393.104 68.2798 393.516 68.2238 393.86 68.1118C394.212 67.9998 394.516 67.8758 394.772 67.7398C395.036 67.6038 395.264 67.4798 395.456 67.3678C395.656 67.2558 395.848 67.1998 396.032 67.1998C396.28 67.1998 396.464 67.2918 396.584 67.4758L397.436 68.5558C397.108 68.9398 396.74 69.2638 396.332 69.5278C395.924 69.7838 395.496 69.9918 395.048 70.1518C394.608 70.3038 394.156 70.4118 393.692 70.4758C393.236 70.5398 392.792 70.5718 392.36 70.5718C391.504 70.5718 390.708 70.4318 389.972 70.1518C389.236 69.8638 388.596 69.4438 388.052 68.8918C387.508 68.3318 387.08 67.6438 386.768 66.8278C386.456 66.0038 386.3 65.0518 386.3 63.9718C386.3 63.1318 386.436 62.3438 386.708 61.6078C386.98 60.8638 387.368 60.2198 387.872 59.6758C388.384 59.1238 389.004 58.6878 389.732 58.3678C390.468 58.0478 391.296 57.8878 392.216 57.8878C392.992 57.8878 393.708 58.0118 394.364 58.2598C395.02 58.5078 395.584 58.8718 396.056 59.3518C396.528 59.8238 396.896 60.4078 397.16 61.1038C397.432 61.7918 397.568 62.5798 397.568 63.4678C397.568 63.9158 397.52 64.2198 397.424 64.3798C397.328 64.5318 397.144 64.6078 396.872 64.6078H389.252ZM402.588 60.2158C402.972 59.4798 403.428 58.9038 403.956 58.4878C404.484 58.0638 405.108 57.8518 405.828 57.8518C406.396 57.8518 406.852 57.9758 407.196 58.2238L407.004 60.4438C406.964 60.5878 406.904 60.6918 406.824 60.7558C406.752 60.8118 406.652 60.8398 406.524 60.8398C406.404 60.8398 406.224 60.8198 405.984 60.7798C405.752 60.7398 405.524 60.7198 405.3 60.7198C404.972 60.7198 404.68 60.7678 404.424 60.8638C404.168 60.9598 403.936 61.0998 403.728 61.2838C403.528 61.4598 403.348 61.6758 403.188 61.9318C403.036 62.1878 402.892 62.4798 402.756 62.8078V70.3918H399.792V58.0798H401.532C401.836 58.0798 402.048 58.1358 402.168 58.2478C402.288 58.3518 402.368 58.5438 402.408 58.8238L402.588 60.2158ZM416.21 60.4798C416.13 60.6078 416.046 60.6998 415.958 60.7558C415.87 60.8038 415.758 60.8278 415.622 60.8278C415.478 60.8278 415.322 60.7878 415.154 60.7078C414.994 60.6278 414.806 60.5398 414.59 60.4438C414.374 60.3398 414.126 60.2478 413.846 60.1678C413.574 60.0878 413.25 60.0478 412.874 60.0478C412.29 60.0478 411.83 60.1718 411.494 60.4198C411.166 60.6678 411.002 60.9918 411.002 61.3918C411.002 61.6558 411.086 61.8798 411.254 62.0638C411.43 62.2398 411.658 62.3958 411.938 62.5318C412.226 62.6678 412.55 62.7918 412.91 62.9038C413.27 63.0078 413.634 63.1238 414.002 63.2518C414.378 63.3798 414.746 63.5278 415.106 63.6958C415.466 63.8558 415.786 64.0638 416.066 64.3198C416.354 64.5678 416.582 64.8678 416.75 65.2198C416.926 65.5718 417.014 65.9958 417.014 66.4918C417.014 67.0838 416.906 67.6318 416.69 68.1358C416.482 68.6318 416.17 69.0638 415.754 69.4318C415.338 69.7918 414.822 70.0758 414.206 70.2838C413.598 70.4838 412.894 70.5838 412.094 70.5838C411.67 70.5838 411.254 70.5438 410.846 70.4638C410.446 70.3918 410.058 70.2878 409.682 70.1518C409.314 70.0158 408.97 69.8558 408.65 69.6718C408.338 69.4878 408.062 69.2878 407.822 69.0718L408.506 67.9438C408.594 67.8078 408.698 67.7038 408.818 67.6318C408.938 67.5598 409.09 67.5238 409.274 67.5238C409.458 67.5238 409.63 67.5758 409.79 67.6798C409.958 67.7838 410.15 67.8958 410.366 68.0158C410.582 68.1358 410.834 68.2478 411.122 68.3518C411.418 68.4558 411.79 68.5078 412.238 68.5078C412.59 68.5078 412.89 68.4678 413.138 68.3878C413.394 68.2998 413.602 68.1878 413.762 68.0518C413.93 67.9158 414.05 67.7598 414.122 67.5838C414.202 67.3998 414.242 67.2118 414.242 67.0198C414.242 66.7318 414.154 66.4958 413.978 66.3118C413.81 66.1278 413.582 65.9678 413.294 65.8318C413.014 65.6958 412.69 65.5758 412.322 65.4718C411.962 65.3598 411.59 65.2398 411.206 65.1118C410.83 64.9838 410.458 64.8358 410.09 64.6678C409.73 64.4918 409.406 64.2718 409.118 64.0078C408.838 63.7438 408.61 63.4198 408.434 63.0358C408.266 62.6518 408.182 62.1878 408.182 61.6438C408.182 61.1398 408.282 60.6598 408.482 60.2038C408.682 59.7478 408.974 59.3518 409.358 59.0158C409.75 58.6718 410.234 58.3998 410.81 58.1998C411.394 57.9918 412.066 57.8878 412.826 57.8878C413.674 57.8878 414.446 58.0278 415.142 58.3078C415.838 58.5878 416.418 58.9558 416.882 59.4118L416.21 60.4798ZM419.053 68.7598C419.053 68.5118 419.097 68.2758 419.185 68.0518C419.281 67.8278 419.409 67.6358 419.569 67.4758C419.729 67.3158 419.921 67.1878 420.145 67.0918C420.369 66.9958 420.609 66.9478 420.865 66.9478C421.121 66.9478 421.357 66.9958 421.573 67.0918C421.797 67.1878 421.989 67.3158 422.149 67.4758C422.317 67.6358 422.449 67.8278 422.545 68.0518C422.641 68.2758 422.689 68.5118 422.689 68.7598C422.689 69.0158 422.641 69.2558 422.545 69.4798C422.449 69.6958 422.317 69.8838 422.149 70.0438C421.989 70.2038 421.797 70.3278 421.573 70.4158C421.357 70.5118 421.121 70.5598 420.865 70.5598C420.609 70.5598 420.369 70.5118 420.145 70.4158C419.921 70.3278 419.729 70.2038 419.569 70.0438C419.409 69.8838 419.281 69.6958 419.185 69.4798C419.097 69.2558 419.053 69.0158 419.053 68.7598ZM419.053 60.2038C419.053 59.9558 419.097 59.7198 419.185 59.4958C419.281 59.2718 419.409 59.0798 419.569 58.9198C419.729 58.7598 419.921 58.6318 420.145 58.5358C420.369 58.4398 420.609 58.3918 420.865 58.3918C421.121 58.3918 421.357 58.4398 421.573 58.5358C421.797 58.6318 421.989 58.7598 422.149 58.9198C422.317 59.0798 422.449 59.2718 422.545 59.4958C422.641 59.7198 422.689 59.9558 422.689 60.2038C422.689 60.4598 422.641 60.6998 422.545 60.9238C422.449 61.1398 422.317 61.3278 422.149 61.4878C421.989 61.6478 421.797 61.7758 421.573 61.8718C421.357 61.9598 421.121 62.0038 420.865 62.0038C420.609 62.0038 420.369 61.9598 420.145 61.8718C419.921 61.7758 419.729 61.6478 419.569 61.4878C419.409 61.3278 419.281 61.1398 419.185 60.9238C419.097 60.6998 419.053 60.4598 419.053 60.2038ZM440.089 60.6838C440.001 60.7958 439.913 60.8838 439.825 60.9478C439.745 61.0118 439.625 61.0438 439.465 61.0438C439.313 61.0438 439.165 60.9998 439.021 60.9118C438.877 60.8158 438.705 60.7118 438.505 60.5998C438.305 60.4798 438.065 60.3758 437.785 60.2878C437.513 60.1918 437.173 60.1438 436.765 60.1438C436.245 60.1438 435.789 60.2398 435.397 60.4318C435.005 60.6158 434.677 60.8838 434.413 61.2358C434.157 61.5878 433.965 62.0158 433.837 62.5198C433.709 63.0158 433.645 63.5798 433.645 64.2118C433.645 64.8678 433.713 65.4518 433.849 65.9638C433.993 66.4758 434.197 66.9078 434.461 67.2598C434.725 67.6038 435.045 67.8678 435.421 68.0518C435.797 68.2278 436.221 68.3158 436.693 68.3158C437.165 68.3158 437.545 68.2598 437.833 68.1478C438.129 68.0278 438.377 67.8998 438.577 67.7638C438.777 67.6198 438.949 67.4918 439.093 67.3798C439.245 67.2598 439.413 67.1998 439.597 67.1998C439.837 67.1998 440.017 67.2918 440.137 67.4758L440.989 68.5558C440.661 68.9398 440.305 69.2638 439.921 69.5278C439.537 69.7838 439.137 69.9918 438.721 70.1518C438.313 70.3038 437.889 70.4118 437.449 70.4758C437.017 70.5398 436.585 70.5718 436.153 70.5718C435.393 70.5718 434.677 70.4318 434.005 70.1518C433.333 69.8638 432.745 69.4478 432.241 68.9038C431.737 68.3598 431.337 67.6958 431.041 66.9118C430.753 66.1198 430.609 65.2198 430.609 64.2118C430.609 63.3078 430.737 62.4718 430.993 61.7038C431.257 60.9278 431.641 60.2598 432.145 59.6998C432.649 59.1318 433.273 58.6878 434.017 58.3678C434.761 58.0478 435.617 57.8878 436.585 57.8878C437.505 57.8878 438.309 58.0358 438.997 58.3318C439.693 58.6278 440.317 59.0518 440.869 59.6038L440.089 60.6838ZM445.811 59.3998C446.291 58.9518 446.819 58.5878 447.395 58.3078C447.971 58.0278 448.647 57.8878 449.423 57.8878C450.095 57.8878 450.691 58.0038 451.211 58.2358C451.731 58.4598 452.163 58.7798 452.507 59.1958C452.859 59.6038 453.123 60.0958 453.299 60.6718C453.483 61.2398 453.575 61.8678 453.575 62.5558V70.3918H450.611V62.5558C450.611 61.8038 450.439 61.2238 450.095 60.8158C449.751 60.3998 449.227 60.1918 448.523 60.1918C448.011 60.1918 447.531 60.3078 447.083 60.5398C446.635 60.7718 446.211 61.0878 445.811 61.4878V70.3918H442.847V52.5598H445.811V59.3998ZM462.898 65.1358C462.042 65.1758 461.322 65.2518 460.738 65.3638C460.154 65.4678 459.686 65.6038 459.334 65.7718C458.982 65.9398 458.73 66.1358 458.578 66.3598C458.426 66.5838 458.35 66.8278 458.35 67.0918C458.35 67.6118 458.502 67.9838 458.806 68.2078C459.118 68.4318 459.522 68.5438 460.018 68.5438C460.626 68.5438 461.15 68.4358 461.59 68.2198C462.038 67.9958 462.474 67.6598 462.898 67.2118V65.1358ZM456.106 59.7958C457.522 58.4998 459.226 57.8518 461.218 57.8518C461.938 57.8518 462.582 57.9718 463.15 58.2118C463.718 58.4438 464.198 58.7718 464.59 59.1958C464.982 59.6118 465.278 60.1118 465.478 60.6958C465.686 61.2798 465.79 61.9198 465.79 62.6158V70.3918H464.446C464.166 70.3918 463.95 70.3518 463.798 70.2718C463.646 70.1838 463.526 70.0118 463.438 69.7558L463.174 68.8678C462.862 69.1478 462.558 69.3958 462.262 69.6118C461.966 69.8198 461.658 69.9958 461.338 70.1398C461.018 70.2838 460.674 70.3918 460.306 70.4638C459.946 70.5438 459.546 70.5838 459.106 70.5838C458.586 70.5838 458.106 70.5158 457.666 70.3798C457.226 70.2358 456.846 70.0238 456.526 69.7438C456.206 69.4638 455.958 69.1158 455.782 68.6998C455.606 68.2838 455.518 67.7998 455.518 67.2478C455.518 66.9358 455.57 66.6278 455.674 66.3238C455.778 66.0118 455.946 65.7158 456.178 65.4358C456.418 65.1558 456.726 64.8918 457.102 64.6438C457.478 64.3958 457.938 64.1798 458.482 63.9958C459.034 63.8118 459.674 63.6638 460.402 63.5518C461.13 63.4318 461.962 63.3598 462.898 63.3358V62.6158C462.898 61.7918 462.722 61.1838 462.37 60.7918C462.018 60.3918 461.51 60.1918 460.846 60.1918C460.366 60.1918 459.966 60.2478 459.646 60.3598C459.334 60.4718 459.058 60.5998 458.818 60.7438C458.578 60.8798 458.358 61.0038 458.158 61.1158C457.966 61.2278 457.75 61.2838 457.51 61.2838C457.302 61.2838 457.126 61.2318 456.982 61.1278C456.838 61.0158 456.722 60.8878 456.634 60.7438L456.106 59.7958ZM471.581 52.5598V70.3918H468.617V52.5598H471.581ZM477.534 52.5598V70.3918H474.57V52.5598H477.534ZM488.419 62.8198C488.419 62.4358 488.363 62.0758 488.251 61.7398C488.147 61.3958 487.987 61.0958 487.771 60.8398C487.555 60.5838 487.279 60.3838 486.943 60.2398C486.615 60.0878 486.231 60.0118 485.791 60.0118C484.935 60.0118 484.259 60.2558 483.763 60.7438C483.275 61.2318 482.963 61.9238 482.827 62.8198H488.419ZM482.767 64.6078C482.815 65.2398 482.927 65.7878 483.103 66.2518C483.279 66.7078 483.511 67.0878 483.799 67.3918C484.087 67.6878 484.427 67.9118 484.819 68.0638C485.219 68.2078 485.659 68.2798 486.139 68.2798C486.619 68.2798 487.031 68.2238 487.375 68.1118C487.727 67.9998 488.031 67.8758 488.287 67.7398C488.551 67.6038 488.779 67.4798 488.971 67.3678C489.171 67.2558 489.363 67.1998 489.547 67.1998C489.795 67.1998 489.979 67.2918 490.099 67.4758L490.951 68.5558C490.623 68.9398 490.255 69.2638 489.847 69.5278C489.439 69.7838 489.011 69.9918 488.563 70.1518C488.123 70.3038 487.671 70.4118 487.207 70.4758C486.751 70.5398 486.307 70.5718 485.875 70.5718C485.019 70.5718 484.223 70.4318 483.487 70.1518C482.751 69.8638 482.111 69.4438 481.567 68.8918C481.023 68.3318 480.595 67.6438 480.283 66.8278C479.971 66.0038 479.815 65.0518 479.815 63.9718C479.815 63.1318 479.951 62.3438 480.223 61.6078C480.495 60.8638 480.883 60.2198 481.387 59.6758C481.899 59.1238 482.519 58.6878 483.247 58.3678C483.983 58.0478 484.811 57.8878 485.731 57.8878C486.507 57.8878 487.223 58.0118 487.879 58.2598C488.535 58.5078 489.099 58.8718 489.571 59.3518C490.043 59.8238 490.411 60.4078 490.675 61.1038C490.947 61.7918 491.083 62.5798 491.083 63.4678C491.083 63.9158 491.035 64.2198 490.939 64.3798C490.843 64.5318 490.659 64.6078 490.387 64.6078H482.767ZM496.08 59.5918C496.328 59.3438 496.588 59.1158 496.86 58.9078C497.14 58.6918 497.432 58.5118 497.736 58.3678C498.048 58.2158 498.38 58.0998 498.732 58.0198C499.084 57.9318 499.468 57.8878 499.884 57.8878C500.556 57.8878 501.152 58.0038 501.672 58.2358C502.192 58.4598 502.624 58.7798 502.968 59.1958C503.32 59.6038 503.584 60.0958 503.76 60.6718C503.944 61.2398 504.036 61.8678 504.036 62.5558V70.3918H501.072V62.5558C501.072 61.8038 500.9 61.2238 500.556 60.8158C500.212 60.3998 499.688 60.1918 498.984 60.1918C498.472 60.1918 497.992 60.3078 497.544 60.5398C497.096 60.7718 496.672 61.0878 496.272 61.4878V70.3918H493.308V58.0798H495.12C495.504 58.0798 495.756 58.2598 495.876 58.6198L496.08 59.5918ZM511.355 63.9358C511.723 63.9358 512.043 63.8878 512.315 63.7918C512.587 63.6878 512.811 63.5478 512.987 63.3718C513.171 63.1958 513.307 62.9838 513.395 62.7358C513.491 62.4878 513.539 62.2158 513.539 61.9198C513.539 61.3118 513.355 60.8318 512.987 60.4798C512.627 60.1198 512.083 59.9398 511.355 59.9398C510.627 59.9398 510.079 60.1198 509.711 60.4798C509.351 60.8318 509.171 61.3118 509.171 61.9198C509.171 62.2078 509.215 62.4758 509.303 62.7238C509.399 62.9718 509.535 63.1878 509.711 63.3718C509.895 63.5478 510.123 63.6878 510.395 63.7918C510.675 63.8878 510.995 63.9358 511.355 63.9358ZM514.703 70.9438C514.703 70.7038 514.631 70.5078 514.487 70.3558C514.343 70.2038 514.147 70.0878 513.899 70.0078C513.651 69.9198 513.359 69.8558 513.023 69.8158C512.695 69.7758 512.343 69.7478 511.967 69.7318C511.599 69.7078 511.215 69.6878 510.815 69.6718C510.423 69.6558 510.039 69.6238 509.663 69.5758C509.335 69.7598 509.067 69.9758 508.859 70.2238C508.659 70.4718 508.559 70.7598 508.559 71.0878C508.559 71.3038 508.611 71.5038 508.715 71.6878C508.827 71.8798 508.999 72.0438 509.231 72.1798C509.471 72.3158 509.779 72.4198 510.155 72.4918C510.531 72.5718 510.991 72.6118 511.535 72.6118C512.087 72.6118 512.563 72.5678 512.963 72.4798C513.363 72.3998 513.691 72.2838 513.947 72.1318C514.211 71.9878 514.403 71.8118 514.523 71.6038C514.643 71.4038 514.703 71.1838 514.703 70.9438ZM517.655 58.4998V59.6038C517.655 59.9558 517.443 60.1718 517.019 60.2518L515.915 60.4558C516.083 60.8798 516.167 61.3438 516.167 61.8478C516.167 62.4558 516.043 63.0078 515.795 63.5038C515.555 63.9918 515.219 64.4078 514.787 64.7518C514.355 65.0958 513.843 65.3638 513.251 65.5558C512.667 65.7398 512.035 65.8318 511.355 65.8318C511.115 65.8318 510.883 65.8198 510.659 65.7958C510.435 65.7718 510.215 65.7398 509.999 65.6998C509.615 65.9318 509.423 66.1918 509.423 66.4798C509.423 66.7278 509.535 66.9118 509.759 67.0318C509.991 67.1438 510.295 67.2238 510.671 67.2718C511.047 67.3198 511.475 67.3518 511.955 67.3678C512.435 67.3758 512.927 67.3998 513.431 67.4398C513.935 67.4798 514.427 67.5518 514.907 67.6558C515.387 67.7518 515.815 67.9078 516.191 68.1238C516.567 68.3398 516.867 68.6358 517.091 69.0118C517.323 69.3798 517.439 69.8558 517.439 70.4398C517.439 70.9838 517.303 71.5118 517.031 72.0238C516.767 72.5358 516.379 72.9918 515.867 73.3918C515.363 73.7918 514.739 74.1118 513.995 74.3518C513.259 74.5998 512.419 74.7238 511.475 74.7238C510.547 74.7238 509.739 74.6318 509.051 74.4478C508.363 74.2718 507.791 74.0318 507.335 73.7278C506.879 73.4318 506.539 73.0878 506.315 72.6958C506.091 72.3038 505.979 71.8958 505.979 71.4718C505.979 70.8958 506.151 70.4158 506.495 70.0318C506.847 69.6398 507.327 69.3278 507.935 69.0958C507.607 68.9278 507.347 68.7038 507.155 68.4238C506.963 68.1438 506.867 67.7758 506.867 67.3198C506.867 67.1358 506.899 66.9478 506.963 66.7558C507.035 66.5558 507.135 66.3598 507.263 66.1678C507.399 65.9758 507.567 65.7958 507.767 65.6278C507.967 65.4518 508.203 65.2958 508.475 65.1598C507.851 64.8238 507.359 64.3758 506.999 63.8158C506.647 63.2558 506.471 62.5998 506.471 61.8478C506.471 61.2398 506.591 60.6918 506.831 60.2038C507.079 59.7078 507.419 59.2878 507.851 58.9438C508.291 58.5918 508.807 58.3238 509.399 58.1398C509.999 57.9558 510.651 57.8638 511.355 57.8638C511.883 57.8638 512.379 57.9198 512.843 58.0318C513.307 58.1358 513.731 58.2918 514.115 58.4998H517.655ZM527.255 62.8198C527.255 62.4358 527.199 62.0758 527.087 61.7398C526.983 61.3958 526.823 61.0958 526.607 60.8398C526.391 60.5838 526.115 60.3838 525.779 60.2398C525.451 60.0878 525.067 60.0118 524.627 60.0118C523.771 60.0118 523.095 60.2558 522.599 60.7438C522.111 61.2318 521.799 61.9238 521.663 62.8198H527.255ZM521.603 64.6078C521.651 65.2398 521.763 65.7878 521.939 66.2518C522.115 66.7078 522.347 67.0878 522.635 67.3918C522.923 67.6878 523.263 67.9118 523.655 68.0638C524.055 68.2078 524.495 68.2798 524.975 68.2798C525.455 68.2798 525.867 68.2238 526.211 68.1118C526.563 67.9998 526.867 67.8758 527.123 67.7398C527.387 67.6038 527.615 67.4798 527.807 67.3678C528.007 67.2558 528.199 67.1998 528.383 67.1998C528.631 67.1998 528.815 67.2918 528.935 67.4758L529.787 68.5558C529.459 68.9398 529.091 69.2638 528.683 69.5278C528.275 69.7838 527.847 69.9918 527.399 70.1518C526.959 70.3038 526.507 70.4118 526.043 70.4758C525.587 70.5398 525.143 70.5718 524.711 70.5718C523.855 70.5718 523.059 70.4318 522.323 70.1518C521.587 69.8638 520.947 69.4438 520.403 68.8918C519.859 68.3318 519.431 67.6438 519.119 66.8278C518.807 66.0038 518.651 65.0518 518.651 63.9718C518.651 63.1318 518.787 62.3438 519.059 61.6078C519.331 60.8638 519.719 60.2198 520.223 59.6758C520.735 59.1238 521.355 58.6878 522.083 58.3678C522.819 58.0478 523.647 57.8878 524.567 57.8878C525.343 57.8878 526.059 58.0118 526.715 58.2598C527.371 58.5078 527.935 58.8718 528.407 59.3518C528.879 59.8238 529.247 60.4078 529.511 61.1038C529.783 61.7918 529.919 62.5798 529.919 63.4678C529.919 63.9158 529.871 64.2198 529.775 64.3798C529.679 64.5318 529.495 64.6078 529.223 64.6078H521.603ZM539.656 60.4798C539.576 60.6078 539.492 60.6998 539.404 60.7558C539.316 60.8038 539.204 60.8278 539.068 60.8278C538.924 60.8278 538.768 60.7878 538.6 60.7078C538.44 60.6278 538.252 60.5398 538.036 60.4438C537.82 60.3398 537.572 60.2478 537.292 60.1678C537.02 60.0878 536.696 60.0478 536.32 60.0478C535.736 60.0478 535.276 60.1718 534.94 60.4198C534.612 60.6678 534.448 60.9918 534.448 61.3918C534.448 61.6558 534.532 61.8798 534.7 62.0638C534.876 62.2398 535.104 62.3958 535.384 62.5318C535.672 62.6678 535.996 62.7918 536.356 62.9038C536.716 63.0078 537.08 63.1238 537.448 63.2518C537.824 63.3798 538.192 63.5278 538.552 63.6958C538.912 63.8558 539.232 64.0638 539.512 64.3198C539.8 64.5678 540.028 64.8678 540.196 65.2198C540.372 65.5718 540.46 65.9958 540.46 66.4918C540.46 67.0838 540.352 67.6318 540.136 68.1358C539.928 68.6318 539.616 69.0638 539.2 69.4318C538.784 69.7918 538.268 70.0758 537.652 70.2838C537.044 70.4838 536.34 70.5838 535.54 70.5838C535.116 70.5838 534.7 70.5438 534.292 70.4638C533.892 70.3918 533.504 70.2878 533.128 70.1518C532.76 70.0158 532.416 69.8558 532.096 69.6718C531.784 69.4878 531.508 69.2878 531.268 69.0718L531.952 67.9438C532.04 67.8078 532.144 67.7038 532.264 67.6318C532.384 67.5598 532.536 67.5238 532.72 67.5238C532.904 67.5238 533.076 67.5758 533.236 67.6798C533.404 67.7838 533.596 67.8958 533.812 68.0158C534.028 68.1358 534.28 68.2478 534.568 68.3518C534.864 68.4558 535.236 68.5078 535.684 68.5078C536.036 68.5078 536.336 68.4678 536.584 68.3878C536.84 68.2998 537.048 68.1878 537.208 68.0518C537.376 67.9158 537.496 67.7598 537.568 67.5838C537.648 67.3998 537.688 67.2118 537.688 67.0198C537.688 66.7318 537.6 66.4958 537.424 66.3118C537.256 66.1278 537.028 65.9678 536.74 65.8318C536.46 65.6958 536.136 65.5758 535.768 65.4718C535.408 65.3598 535.036 65.2398 534.652 65.1118C534.276 64.9838 533.904 64.8358 533.536 64.6678C533.176 64.4918 532.852 64.2718 532.564 64.0078C532.284 63.7438 532.056 63.4198 531.88 63.0358C531.712 62.6518 531.628 62.1878 531.628 61.6438C531.628 61.1398 531.728 60.6598 531.928 60.2038C532.128 59.7478 532.42 59.3518 532.804 59.0158C533.196 58.6718 533.68 58.3998 534.256 58.1998C534.84 57.9918 535.512 57.8878 536.272 57.8878C537.12 57.8878 537.892 58.0278 538.588 58.3078C539.284 58.5878 539.864 58.9558 540.328 59.4118L539.656 60.4798ZM555.031 65.1358C554.175 65.1758 553.455 65.2518 552.871 65.3638C552.287 65.4678 551.819 65.6038 551.467 65.7718C551.115 65.9398 550.863 66.1358 550.711 66.3598C550.559 66.5838 550.483 66.8278 550.483 67.0918C550.483 67.6118 550.635 67.9838 550.939 68.2078C551.251 68.4318 551.655 68.5438 552.151 68.5438C552.759 68.5438 553.283 68.4358 553.723 68.2198C554.171 67.9958 554.607 67.6598 555.031 67.2118V65.1358ZM548.239 59.7958C549.655 58.4998 551.359 57.8518 553.351 57.8518C554.071 57.8518 554.715 57.9718 555.283 58.2118C555.851 58.4438 556.331 58.7718 556.723 59.1958C557.115 59.6118 557.411 60.1118 557.611 60.6958C557.819 61.2798 557.923 61.9198 557.923 62.6158V70.3918H556.579C556.299 70.3918 556.083 70.3518 555.931 70.2718C555.779 70.1838 555.659 70.0118 555.571 69.7558L555.307 68.8678C554.995 69.1478 554.691 69.3958 554.395 69.6118C554.099 69.8198 553.791 69.9958 553.471 70.1398C553.151 70.2838 552.807 70.3918 552.439 70.4638C552.079 70.5438 551.679 70.5838 551.239 70.5838C550.719 70.5838 550.239 70.5158 549.799 70.3798C549.359 70.2358 548.979 70.0238 548.659 69.7438C548.339 69.4638 548.091 69.1158 547.915 68.6998C547.739 68.2838 547.651 67.7998 547.651 67.2478C547.651 66.9358 547.703 66.6278 547.807 66.3238C547.911 66.0118 548.079 65.7158 548.311 65.4358C548.551 65.1558 548.859 64.8918 549.235 64.6438C549.611 64.3958 550.071 64.1798 550.615 63.9958C551.167 63.8118 551.807 63.6638 552.535 63.5518C553.263 63.4318 554.095 63.3598 555.031 63.3358V62.6158C555.031 61.7918 554.855 61.1838 554.503 60.7918C554.151 60.3918 553.643 60.1918 552.979 60.1918C552.499 60.1918 552.099 60.2478 551.779 60.3598C551.467 60.4718 551.191 60.5998 550.951 60.7438C550.711 60.8798 550.491 61.0038 550.291 61.1158C550.099 61.2278 549.883 61.2838 549.643 61.2838C549.435 61.2838 549.259 61.2318 549.115 61.1278C548.971 61.0158 548.855 60.8878 548.767 60.7438L548.239 59.7958ZM563.486 59.5918C563.734 59.3438 563.994 59.1158 564.266 58.9078C564.546 58.6918 564.838 58.5118 565.142 58.3678C565.454 58.2158 565.786 58.0998 566.138 58.0198C566.49 57.9318 566.874 57.8878 567.29 57.8878C567.962 57.8878 568.558 58.0038 569.078 58.2358C569.598 58.4598 570.03 58.7798 570.374 59.1958C570.726 59.6038 570.99 60.0958 571.166 60.6718C571.35 61.2398 571.442 61.8678 571.442 62.5558V70.3918H568.478V62.5558C568.478 61.8038 568.306 61.2238 567.962 60.8158C567.618 60.3998 567.094 60.1918 566.39 60.1918C565.878 60.1918 565.398 60.3078 564.95 60.5398C564.502 60.7718 564.078 61.0878 563.678 61.4878V70.3918H560.714V58.0798H562.526C562.91 58.0798 563.162 58.2598 563.282 58.6198L563.486 59.5918ZM581.989 61.2238C581.653 60.8158 581.285 60.5278 580.885 60.3598C580.493 60.1918 580.069 60.1078 579.613 60.1078C579.165 60.1078 578.761 60.1918 578.401 60.3598C578.041 60.5278 577.733 60.7838 577.477 61.1278C577.221 61.4638 577.025 61.8958 576.889 62.4238C576.753 62.9438 576.685 63.5598 576.685 64.2718C576.685 64.9918 576.741 65.6038 576.853 66.1078C576.973 66.6038 577.141 67.0118 577.357 67.3318C577.573 67.6438 577.837 67.8718 578.149 68.0158C578.461 68.1518 578.809 68.2198 579.193 68.2198C579.809 68.2198 580.333 68.0918 580.765 67.8358C581.197 67.5798 581.605 67.2158 581.989 66.7438V61.2238ZM584.953 52.5598V70.3918H583.141C582.749 70.3918 582.501 70.2118 582.397 69.8518L582.145 68.6638C581.649 69.2318 581.077 69.6918 580.429 70.0438C579.789 70.3958 579.041 70.5718 578.185 70.5718C577.513 70.5718 576.897 70.4318 576.337 70.1518C575.777 69.8718 575.293 69.4678 574.885 68.9398C574.485 68.4038 574.173 67.7438 573.949 66.9598C573.733 66.1758 573.625 65.2798 573.625 64.2718C573.625 63.3598 573.749 62.5118 573.997 61.7278C574.245 60.9438 574.601 60.2638 575.065 59.6878C575.529 59.1118 576.085 58.6638 576.733 58.3438C577.381 58.0158 578.109 57.8518 578.917 57.8518C579.605 57.8518 580.193 57.9598 580.681 58.1758C581.169 58.3918 581.605 58.6838 581.989 59.0518V52.5598H584.953ZM601.226 60.4798C601.146 60.6078 601.062 60.6998 600.974 60.7558C600.886 60.8038 600.774 60.8278 600.638 60.8278C600.494 60.8278 600.338 60.7878 600.17 60.7078C600.01 60.6278 599.822 60.5398 599.606 60.4438C599.39 60.3398 599.142 60.2478 598.862 60.1678C598.59 60.0878 598.266 60.0478 597.89 60.0478C597.306 60.0478 596.846 60.1718 596.51 60.4198C596.182 60.6678 596.018 60.9918 596.018 61.3918C596.018 61.6558 596.102 61.8798 596.27 62.0638C596.446 62.2398 596.674 62.3958 596.954 62.5318C597.242 62.6678 597.566 62.7918 597.926 62.9038C598.286 63.0078 598.65 63.1238 599.018 63.2518C599.394 63.3798 599.762 63.5278 600.122 63.6958C600.482 63.8558 600.802 64.0638 601.082 64.3198C601.37 64.5678 601.598 64.8678 601.766 65.2198C601.942 65.5718 602.03 65.9958 602.03 66.4918C602.03 67.0838 601.922 67.6318 601.706 68.1358C601.498 68.6318 601.186 69.0638 600.77 69.4318C600.354 69.7918 599.838 70.0758 599.222 70.2838C598.614 70.4838 597.91 70.5838 597.11 70.5838C596.686 70.5838 596.27 70.5438 595.862 70.4638C595.462 70.3918 595.074 70.2878 594.698 70.1518C594.33 70.0158 593.986 69.8558 593.666 69.6718C593.354 69.4878 593.078 69.2878 592.838 69.0718L593.522 67.9438C593.61 67.8078 593.714 67.7038 593.834 67.6318C593.954 67.5598 594.106 67.5238 594.29 67.5238C594.474 67.5238 594.646 67.5758 594.806 67.6798C594.974 67.7838 595.166 67.8958 595.382 68.0158C595.598 68.1358 595.85 68.2478 596.138 68.3518C596.434 68.4558 596.806 68.5078 597.254 68.5078C597.606 68.5078 597.906 68.4678 598.154 68.3878C598.41 68.2998 598.618 68.1878 598.778 68.0518C598.946 67.9158 599.066 67.7598 599.138 67.5838C599.218 67.3998 599.258 67.2118 599.258 67.0198C599.258 66.7318 599.17 66.4958 598.994 66.3118C598.826 66.1278 598.598 65.9678 598.31 65.8318C598.03 65.6958 597.706 65.5758 597.338 65.4718C596.978 65.3598 596.606 65.2398 596.222 65.1118C595.846 64.9838 595.474 64.8358 595.106 64.6678C594.746 64.4918 594.422 64.2718 594.134 64.0078C593.854 63.7438 593.626 63.4198 593.45 63.0358C593.282 62.6518 593.198 62.1878 593.198 61.6438C593.198 61.1398 593.298 60.6598 593.498 60.2038C593.698 59.7478 593.99 59.3518 594.374 59.0158C594.766 58.6718 595.25 58.3998 595.826 58.1998C596.41 57.9918 597.082 57.8878 597.842 57.8878C598.69 57.8878 599.462 58.0278 600.158 58.3078C600.854 58.5878 601.434 58.9558 601.898 59.4118L601.226 60.4798ZM608.365 70.5838C607.293 70.5838 606.469 70.2838 605.893 69.6838C605.325 69.0758 605.041 68.2398 605.041 67.1758V60.2998H603.781C603.621 60.2998 603.485 60.2478 603.373 60.1438C603.261 60.0398 603.205 59.8838 603.205 59.6758V58.4998L605.185 58.1758L605.809 54.8158C605.849 54.6558 605.925 54.5318 606.037 54.4438C606.149 54.3558 606.293 54.3118 606.469 54.3118H608.005V58.1878H611.293V60.2998H608.005V66.9718C608.005 67.3558 608.097 67.6558 608.281 67.8718C608.473 68.0878 608.733 68.1958 609.061 68.1958C609.245 68.1958 609.397 68.1758 609.517 68.1358C609.645 68.0878 609.753 68.0398 609.841 67.9918C609.937 67.9438 610.021 67.8998 610.093 67.8598C610.165 67.8118 610.237 67.7878 610.309 67.7878C610.397 67.7878 610.469 67.8118 610.525 67.8598C610.581 67.8998 610.641 67.9638 610.705 68.0518L611.593 69.4918C611.161 69.8518 610.665 70.1238 610.105 70.3078C609.545 70.4918 608.965 70.5838 608.365 70.5838ZM615.987 60.2158C616.371 59.4798 616.827 58.9038 617.355 58.4878C617.883 58.0638 618.507 57.8518 619.227 57.8518C619.795 57.8518 620.251 57.9758 620.595 58.2238L620.403 60.4438C620.363 60.5878 620.303 60.6918 620.223 60.7558C620.151 60.8118 620.051 60.8398 619.923 60.8398C619.803 60.8398 619.623 60.8198 619.383 60.7798C619.151 60.7398 618.923 60.7198 618.699 60.7198C618.371 60.7198 618.079 60.7678 617.823 60.8638C617.567 60.9598 617.335 61.0998 617.127 61.2838C616.927 61.4598 616.747 61.6758 616.587 61.9318C616.435 62.1878 616.291 62.4798 616.155 62.8078V70.3918H613.191V58.0798H614.931C615.235 58.0798 615.447 58.1358 615.567 58.2478C615.687 58.3518 615.767 58.5438 615.807 58.8238L615.987 60.2158ZM628.484 65.1358C627.628 65.1758 626.908 65.2518 626.324 65.3638C625.74 65.4678 625.272 65.6038 624.92 65.7718C624.568 65.9398 624.316 66.1358 624.164 66.3598C624.012 66.5838 623.936 66.8278 623.936 67.0918C623.936 67.6118 624.088 67.9838 624.392 68.2078C624.704 68.4318 625.108 68.5438 625.604 68.5438C626.212 68.5438 626.736 68.4358 627.176 68.2198C627.624 67.9958 628.06 67.6598 628.484 67.2118V65.1358ZM621.692 59.7958C623.108 58.4998 624.812 57.8518 626.804 57.8518C627.524 57.8518 628.168 57.9718 628.736 58.2118C629.304 58.4438 629.784 58.7718 630.176 59.1958C630.568 59.6118 630.864 60.1118 631.064 60.6958C631.272 61.2798 631.376 61.9198 631.376 62.6158V70.3918H630.032C629.752 70.3918 629.536 70.3518 629.384 70.2718C629.232 70.1838 629.112 70.0118 629.024 69.7558L628.76 68.8678C628.448 69.1478 628.144 69.3958 627.848 69.6118C627.552 69.8198 627.244 69.9958 626.924 70.1398C626.604 70.2838 626.26 70.3918 625.892 70.4638C625.532 70.5438 625.132 70.5838 624.692 70.5838C624.172 70.5838 623.692 70.5158 623.252 70.3798C622.812 70.2358 622.432 70.0238 622.112 69.7438C621.792 69.4638 621.544 69.1158 621.368 68.6998C621.192 68.2838 621.104 67.7998 621.104 67.2478C621.104 66.9358 621.156 66.6278 621.26 66.3238C621.364 66.0118 621.532 65.7158 621.764 65.4358C622.004 65.1558 622.312 64.8918 622.688 64.6438C623.064 64.3958 623.524 64.1798 624.068 63.9958C624.62 63.8118 625.26 63.6638 625.988 63.5518C626.716 63.4318 627.548 63.3598 628.484 63.3358V62.6158C628.484 61.7918 628.308 61.1838 627.956 60.7918C627.604 60.3918 627.096 60.1918 626.432 60.1918C625.952 60.1918 625.552 60.2478 625.232 60.3598C624.92 60.4718 624.644 60.5998 624.404 60.7438C624.164 60.8798 623.944 61.0038 623.744 61.1158C623.552 61.2278 623.336 61.2838 623.096 61.2838C622.888 61.2838 622.712 61.2318 622.568 61.1278C622.424 61.0158 622.308 60.8878 622.22 60.7438L621.692 59.7958ZM638.107 70.5838C637.035 70.5838 636.211 70.2838 635.635 69.6838C635.067 69.0758 634.783 68.2398 634.783 67.1758V60.2998H633.523C633.363 60.2998 633.227 60.2478 633.115 60.1438C633.003 60.0398 632.947 59.8838 632.947 59.6758V58.4998L634.927 58.1758L635.551 54.8158C635.591 54.6558 635.667 54.5318 635.779 54.4438C635.891 54.3558 636.035 54.3118 636.211 54.3118H637.747V58.1878H641.035V60.2998H637.747V66.9718C637.747 67.3558 637.839 67.6558 638.023 67.8718C638.215 68.0878 638.475 68.1958 638.803 68.1958C638.987 68.1958 639.139 68.1758 639.259 68.1358C639.387 68.0878 639.495 68.0398 639.583 67.9918C639.679 67.9438 639.763 67.8998 639.835 67.8598C639.907 67.8118 639.979 67.7878 640.051 67.7878C640.139 67.7878 640.211 67.8118 640.267 67.8598C640.323 67.8998 640.383 67.9638 640.447 68.0518L641.335 69.4918C640.903 69.8518 640.407 70.1238 639.847 70.3078C639.287 70.4918 638.707 70.5838 638.107 70.5838ZM650.771 62.8198C650.771 62.4358 650.715 62.0758 650.603 61.7398C650.499 61.3958 650.339 61.0958 650.123 60.8398C649.907 60.5838 649.631 60.3838 649.295 60.2398C648.967 60.0878 648.583 60.0118 648.143 60.0118C647.287 60.0118 646.611 60.2558 646.115 60.7438C645.627 61.2318 645.315 61.9238 645.179 62.8198H650.771ZM645.119 64.6078C645.167 65.2398 645.279 65.7878 645.455 66.2518C645.631 66.7078 645.863 67.0878 646.151 67.3918C646.439 67.6878 646.779 67.9118 647.171 68.0638C647.571 68.2078 648.011 68.2798 648.491 68.2798C648.971 68.2798 649.383 68.2238 649.727 68.1118C650.079 67.9998 650.383 67.8758 650.639 67.7398C650.903 67.6038 651.131 67.4798 651.323 67.3678C651.523 67.2558 651.715 67.1998 651.899 67.1998C652.147 67.1998 652.331 67.2918 652.451 67.4758L653.303 68.5558C652.975 68.9398 652.607 69.2638 652.199 69.5278C651.791 69.7838 651.363 69.9918 650.915 70.1518C650.475 70.3038 650.023 70.4118 649.559 70.4758C649.103 70.5398 648.659 70.5718 648.227 70.5718C647.371 70.5718 646.575 70.4318 645.839 70.1518C645.103 69.8638 644.463 69.4438 643.919 68.8918C643.375 68.3318 642.947 67.6438 642.635 66.8278C642.323 66.0038 642.167 65.0518 642.167 63.9718C642.167 63.1318 642.303 62.3438 642.575 61.6078C642.847 60.8638 643.235 60.2198 643.739 59.6758C644.251 59.1238 644.871 58.6878 645.599 58.3678C646.335 58.0478 647.163 57.8878 648.083 57.8878C648.859 57.8878 649.575 58.0118 650.231 58.2598C650.887 58.5078 651.451 58.8718 651.923 59.3518C652.395 59.8238 652.763 60.4078 653.027 61.1038C653.299 61.7918 653.435 62.5798 653.435 63.4678C653.435 63.9158 653.387 64.2198 653.291 64.3798C653.195 64.5318 653.011 64.6078 652.739 64.6078H645.119ZM660.159 63.9358C660.527 63.9358 660.847 63.8878 661.119 63.7918C661.391 63.6878 661.615 63.5478 661.791 63.3718C661.975 63.1958 662.111 62.9838 662.199 62.7358C662.295 62.4878 662.343 62.2158 662.343 61.9198C662.343 61.3118 662.159 60.8318 661.791 60.4798C661.431 60.1198 660.887 59.9398 660.159 59.9398C659.431 59.9398 658.883 60.1198 658.515 60.4798C658.155 60.8318 657.975 61.3118 657.975 61.9198C657.975 62.2078 658.019 62.4758 658.107 62.7238C658.203 62.9718 658.339 63.1878 658.515 63.3718C658.699 63.5478 658.927 63.6878 659.199 63.7918C659.479 63.8878 659.799 63.9358 660.159 63.9358ZM663.507 70.9438C663.507 70.7038 663.435 70.5078 663.291 70.3558C663.147 70.2038 662.951 70.0878 662.703 70.0078C662.455 69.9198 662.163 69.8558 661.827 69.8158C661.499 69.7758 661.147 69.7478 660.771 69.7318C660.403 69.7078 660.019 69.6878 659.619 69.6718C659.227 69.6558 658.843 69.6238 658.467 69.5758C658.139 69.7598 657.871 69.9758 657.663 70.2238C657.463 70.4718 657.363 70.7598 657.363 71.0878C657.363 71.3038 657.415 71.5038 657.519 71.6878C657.631 71.8798 657.803 72.0438 658.035 72.1798C658.275 72.3158 658.583 72.4198 658.959 72.4918C659.335 72.5718 659.795 72.6118 660.339 72.6118C660.891 72.6118 661.367 72.5678 661.767 72.4798C662.167 72.3998 662.495 72.2838 662.751 72.1318C663.015 71.9878 663.207 71.8118 663.327 71.6038C663.447 71.4038 663.507 71.1838 663.507 70.9438ZM666.459 58.4998V59.6038C666.459 59.9558 666.247 60.1718 665.823 60.2518L664.719 60.4558C664.887 60.8798 664.971 61.3438 664.971 61.8478C664.971 62.4558 664.847 63.0078 664.599 63.5038C664.359 63.9918 664.023 64.4078 663.591 64.7518C663.159 65.0958 662.647 65.3638 662.055 65.5558C661.471 65.7398 660.839 65.8318 660.159 65.8318C659.919 65.8318 659.687 65.8198 659.463 65.7958C659.239 65.7718 659.019 65.7398 658.803 65.6998C658.419 65.9318 658.227 66.1918 658.227 66.4798C658.227 66.7278 658.339 66.9118 658.563 67.0318C658.795 67.1438 659.099 67.2238 659.475 67.2718C659.851 67.3198 660.279 67.3518 660.759 67.3678C661.239 67.3758 661.731 67.3998 662.235 67.4398C662.739 67.4798 663.231 67.5518 663.711 67.6558C664.191 67.7518 664.619 67.9078 664.995 68.1238C665.371 68.3398 665.671 68.6358 665.895 69.0118C666.127 69.3798 666.243 69.8558 666.243 70.4398C666.243 70.9838 666.107 71.5118 665.835 72.0238C665.571 72.5358 665.183 72.9918 664.671 73.3918C664.167 73.7918 663.543 74.1118 662.799 74.3518C662.063 74.5998 661.223 74.7238 660.279 74.7238C659.351 74.7238 658.543 74.6318 657.855 74.4478C657.167 74.2718 656.595 74.0318 656.139 73.7278C655.683 73.4318 655.343 73.0878 655.119 72.6958C654.895 72.3038 654.783 71.8958 654.783 71.4718C654.783 70.8958 654.955 70.4158 655.299 70.0318C655.651 69.6398 656.131 69.3278 656.739 69.0958C656.411 68.9278 656.151 68.7038 655.959 68.4238C655.767 68.1438 655.671 67.7758 655.671 67.3198C655.671 67.1358 655.703 66.9478 655.767 66.7558C655.839 66.5558 655.939 66.3598 656.067 66.1678C656.203 65.9758 656.371 65.7958 656.571 65.6278C656.771 65.4518 657.007 65.2958 657.279 65.1598C656.655 64.8238 656.163 64.3758 655.803 63.8158C655.451 63.2558 655.275 62.5998 655.275 61.8478C655.275 61.2398 655.395 60.6918 655.635 60.2038C655.883 59.7078 656.223 59.2878 656.655 58.9438C657.095 58.5918 657.611 58.3238 658.203 58.1398C658.803 57.9558 659.455 57.8638 660.159 57.8638C660.687 57.8638 661.183 57.9198 661.647 58.0318C662.111 58.1358 662.535 58.2918 662.919 58.4998H666.459ZM671.411 58.0798V70.3918H668.435V58.0798H671.411ZM671.819 54.4918C671.819 54.7478 671.767 54.9878 671.663 55.2118C671.559 55.4358 671.419 55.6318 671.243 55.7998C671.075 55.9678 670.875 56.1038 670.643 56.2078C670.411 56.3038 670.163 56.3518 669.899 56.3518C669.643 56.3518 669.399 56.3038 669.167 56.2078C668.943 56.1038 668.747 55.9678 668.579 55.7998C668.411 55.6318 668.275 55.4358 668.171 55.2118C668.075 54.9878 668.027 54.7478 668.027 54.4918C668.027 54.2278 668.075 53.9798 668.171 53.7478C668.275 53.5158 668.411 53.3158 668.579 53.1478C668.747 52.9798 668.943 52.8478 669.167 52.7518C669.399 52.6478 669.643 52.5958 669.899 52.5958C670.163 52.5958 670.411 52.6478 670.643 52.7518C670.875 52.8478 671.075 52.9798 671.243 53.1478C671.419 53.3158 671.559 53.5158 671.663 53.7478C671.767 53.9798 671.819 54.2278 671.819 54.4918ZM682.365 62.8198C682.365 62.4358 682.309 62.0758 682.197 61.7398C682.093 61.3958 681.933 61.0958 681.717 60.8398C681.501 60.5838 681.225 60.3838 680.889 60.2398C680.561 60.0878 680.177 60.0118 679.737 60.0118C678.881 60.0118 678.205 60.2558 677.709 60.7438C677.221 61.2318 676.909 61.9238 676.773 62.8198H682.365ZM676.713 64.6078C676.761 65.2398 676.873 65.7878 677.049 66.2518C677.225 66.7078 677.457 67.0878 677.745 67.3918C678.033 67.6878 678.373 67.9118 678.765 68.0638C679.165 68.2078 679.605 68.2798 680.085 68.2798C680.565 68.2798 680.977 68.2238 681.321 68.1118C681.673 67.9998 681.977 67.8758 682.233 67.7398C682.497 67.6038 682.725 67.4798 682.917 67.3678C683.117 67.2558 683.309 67.1998 683.493 67.1998C683.741 67.1998 683.925 67.2918 684.045 67.4758L684.897 68.5558C684.569 68.9398 684.201 69.2638 683.793 69.5278C683.385 69.7838 682.957 69.9918 682.509 70.1518C682.069 70.3038 681.617 70.4118 681.153 70.4758C680.697 70.5398 680.253 70.5718 679.821 70.5718C678.965 70.5718 678.169 70.4318 677.433 70.1518C676.697 69.8638 676.057 69.4438 675.513 68.8918C674.969 68.3318 674.541 67.6438 674.229 66.8278C673.917 66.0038 673.761 65.0518 673.761 63.9718C673.761 63.1318 673.897 62.3438 674.169 61.6078C674.441 60.8638 674.829 60.2198 675.333 59.6758C675.845 59.1238 676.465 58.6878 677.193 58.3678C677.929 58.0478 678.757 57.8878 679.677 57.8878C680.453 57.8878 681.169 58.0118 681.825 58.2598C682.481 58.5078 683.045 58.8718 683.517 59.3518C683.989 59.8238 684.357 60.4078 684.621 61.1038C684.893 61.7918 685.029 62.5798 685.029 63.4678C685.029 63.9158 684.981 64.2198 684.885 64.3798C684.789 64.5318 684.605 64.6078 684.333 64.6078H676.713ZM694.765 60.4798C694.685 60.6078 694.601 60.6998 694.513 60.7558C694.425 60.8038 694.313 60.8278 694.177 60.8278C694.033 60.8278 693.877 60.7878 693.709 60.7078C693.549 60.6278 693.361 60.5398 693.145 60.4438C692.929 60.3398 692.681 60.2478 692.401 60.1678C692.129 60.0878 691.805 60.0478 691.429 60.0478C690.845 60.0478 690.385 60.1718 690.049 60.4198C689.721 60.6678 689.557 60.9918 689.557 61.3918C689.557 61.6558 689.641 61.8798 689.809 62.0638C689.985 62.2398 690.213 62.3958 690.493 62.5318C690.781 62.6678 691.105 62.7918 691.465 62.9038C691.825 63.0078 692.189 63.1238 692.557 63.2518C692.933 63.3798 693.301 63.5278 693.661 63.6958C694.021 63.8558 694.341 64.0638 694.621 64.3198C694.909 64.5678 695.137 64.8678 695.305 65.2198C695.481 65.5718 695.569 65.9958 695.569 66.4918C695.569 67.0838 695.461 67.6318 695.245 68.1358C695.037 68.6318 694.725 69.0638 694.309 69.4318C693.893 69.7918 693.377 70.0758 692.761 70.2838C692.153 70.4838 691.449 70.5838 690.649 70.5838C690.225 70.5838 689.809 70.5438 689.401 70.4638C689.001 70.3918 688.613 70.2878 688.237 70.1518C687.869 70.0158 687.525 69.8558 687.205 69.6718C686.893 69.4878 686.617 69.2878 686.377 69.0718L687.061 67.9438C687.149 67.8078 687.253 67.7038 687.373 67.6318C687.493 67.5598 687.645 67.5238 687.829 67.5238C688.013 67.5238 688.185 67.5758 688.345 67.6798C688.513 67.7838 688.705 67.8958 688.921 68.0158C689.137 68.1358 689.389 68.2478 689.677 68.3518C689.973 68.4558 690.345 68.5078 690.793 68.5078C691.145 68.5078 691.445 68.4678 691.693 68.3878C691.949 68.2998 692.157 68.1878 692.317 68.0518C692.485 67.9158 692.605 67.7598 692.677 67.5838C692.757 67.3998 692.797 67.2118 692.797 67.0198C692.797 66.7318 692.709 66.4958 692.533 66.3118C692.365 66.1278 692.137 65.9678 691.849 65.8318C691.569 65.6958 691.245 65.5758 690.877 65.4718C690.517 65.3598 690.145 65.2398 689.761 65.1118C689.385 64.9838 689.013 64.8358 688.645 64.6678C688.285 64.4918 687.961 64.2718 687.673 64.0078C687.393 63.7438 687.165 63.4198 686.989 63.0358C686.821 62.6518 686.737 62.1878 686.737 61.6438C686.737 61.1398 686.837 60.6598 687.037 60.2038C687.237 59.7478 687.529 59.3518 687.913 59.0158C688.305 58.6718 688.789 58.3998 689.365 58.1998C689.949 57.9918 690.621 57.8878 691.381 57.8878C692.229 57.8878 693.001 58.0278 693.697 58.3078C694.393 58.5878 694.973 58.9558 695.437 59.4118L694.765 60.4798Z" fill="#31479E"/>
</g>
<defs>
<filter id="filter0_d" x="0" y="0.830078" width="763" height="183.366" filterUnits="userSpaceOnUse" color-interpolation-filters="sRGB">
<feFlood flood-opacity="0" result="BackgroundImageFix"/>
<feColorMatrix in="SourceAlpha" type="matrix" values="0 0 0 0 0 0 0 0 0 0 0 0 0 0 0 0 0 0 127 0"/>
<feOffset/>
<feGaussianBlur stdDeviation="10"/>
<feColorMatrix type="matrix" values="0 0 0 0 0 0 0 0 0 0 0 0 0 0 0 0 0 0 0.25 0"/>
<feBlend mode="normal" in2="BackgroundImageFix" result="effect1_dropShadow"/>
<feBlend mode="normal" in="SourceGraphic" in2="effect1_dropShadow" result="shape"/>
</filter>
</defs>
</svg>
