<svg width="343" height="109" viewBox="0 0 343 109" fill="none" xmlns="http://www.w3.org/2000/svg">
<g filter="url(#filter0_d)">
<mask id="path-1-inside-1" fill="white">
<path fill-rule="evenodd" clip-rule="evenodd" d="M27 20.5012C23.134 20.5012 20 23.6352 20 27.5012V66.0338C20 69.8998 23.134 73.0338 27 73.0338H36.5095L36.5095 85.2849C36.5095 87.6615 39.1413 89.0944 41.1374 87.8048L64.0018 73.0338H316C319.866 73.0338 323 69.8998 323 66.0338V27.5012C323 23.6352 319.866 20.5012 316 20.5012H27Z"/>
</mask>
<path fill-rule="evenodd" clip-rule="evenodd" d="M27 20.5012C23.134 20.5012 20 23.6352 20 27.5012V66.0338C20 69.8998 23.134 73.0338 27 73.0338H36.5095L36.5095 85.2849C36.5095 87.6615 39.1413 89.0944 41.1374 87.8048L64.0018 73.0338H316C319.866 73.0338 323 69.8998 323 66.0338V27.5012C323 23.6352 319.866 20.5012 316 20.5012H27Z" fill="white"/>
<path d="M36.5095 73.0338L39.5095 73.0338L39.5095 70.0338H36.5095V73.0338ZM36.5095 85.2849L33.5095 85.2849L33.5095 85.2849L36.5095 85.2849ZM41.1374 87.8048L39.5095 85.2849L39.5095 85.2849L41.1374 87.8048ZM64.0018 73.0338V70.0338H63.1171L62.3739 70.5139L64.0018 73.0338ZM23 27.5012C23 25.2921 24.7909 23.5012 27 23.5012V17.5012C21.4772 17.5012 17 21.9784 17 27.5012H23ZM23 66.0338V27.5012H17V66.0338H23ZM27 70.0338C24.7909 70.0338 23 68.2429 23 66.0338H17C17 71.5566 21.4771 76.0338 27 76.0338V70.0338ZM36.5095 70.0338H27V76.0338H36.5095V70.0338ZM33.5095 73.0338L33.5095 85.2849L39.5095 85.2849L39.5095 73.0338L33.5095 73.0338ZM33.5095 85.2849C33.5095 90.038 38.773 92.9039 42.7654 90.3247L39.5095 85.2849L39.5095 85.2849L33.5095 85.2849ZM42.7654 90.3247L65.6298 75.5537L62.3739 70.5139L39.5095 85.2849L42.7654 90.3247ZM316 70.0338H64.0018V76.0338H316V70.0338ZM320 66.0338C320 68.2429 318.209 70.0338 316 70.0338V76.0338C321.523 76.0338 326 71.5566 326 66.0338H320ZM320 27.5012V66.0338H326V27.5012H320ZM316 23.5012C318.209 23.5012 320 25.2921 320 27.5012H326C326 21.9784 321.523 17.5012 316 17.5012V23.5012ZM27 23.5012H316V17.5012H27V23.5012Z" fill="#31479E" mask="url(#path-1-inside-1)"/>
</g>
<path d="M36.458 41.698C36.77 41.698 37.048 41.646 37.292 41.542C37.54 41.438 37.748 41.292 37.916 41.104C38.084 40.916 38.212 40.688 38.3 40.42C38.392 40.152 38.438 39.852 38.438 39.52V34.324H40.052V39.52C40.052 40.036 39.968 40.514 39.8 40.954C39.636 41.39 39.398 41.768 39.086 42.088C38.778 42.404 38.402 42.652 37.958 42.832C37.514 43.008 37.014 43.096 36.458 43.096C35.898 43.096 35.396 43.008 34.952 42.832C34.508 42.652 34.13 42.404 33.818 42.088C33.51 41.768 33.272 41.39 33.104 40.954C32.94 40.514 32.858 40.036 32.858 39.52V34.324H34.472V39.514C34.472 39.846 34.516 40.146 34.604 40.414C34.696 40.682 34.826 40.912 34.994 41.104C35.166 41.292 35.374 41.438 35.618 41.542C35.866 41.646 36.146 41.698 36.458 41.698ZM45.1364 38.044C45.0964 38.108 45.0544 38.154 45.0104 38.182C44.9664 38.206 44.9104 38.218 44.8424 38.218C44.7704 38.218 44.6924 38.198 44.6084 38.158C44.5284 38.118 44.4344 38.074 44.3264 38.026C44.2184 37.974 44.0944 37.928 43.9544 37.888C43.8184 37.848 43.6564 37.828 43.4684 37.828C43.1764 37.828 42.9464 37.89 42.7784 38.014C42.6144 38.138 42.5324 38.3 42.5324 38.5C42.5324 38.632 42.5744 38.744 42.6584 38.836C42.7464 38.924 42.8604 39.002 43.0004 39.07C43.1444 39.138 43.3064 39.2 43.4864 39.256C43.6664 39.308 43.8484 39.366 44.0324 39.43C44.2204 39.494 44.4044 39.568 44.5844 39.652C44.7644 39.732 44.9244 39.836 45.0644 39.964C45.2084 40.088 45.3224 40.238 45.4064 40.414C45.4944 40.59 45.5384 40.802 45.5384 41.05C45.5384 41.346 45.4844 41.62 45.3764 41.872C45.2724 42.12 45.1164 42.336 44.9084 42.52C44.7004 42.7 44.4424 42.842 44.1344 42.946C43.8304 43.046 43.4784 43.096 43.0784 43.096C42.8664 43.096 42.6584 43.076 42.4544 43.036C42.2544 43 42.0604 42.948 41.8724 42.88C41.6884 42.812 41.5164 42.732 41.3564 42.64C41.2004 42.548 41.0624 42.448 40.9424 42.34L41.2844 41.776C41.3284 41.708 41.3804 41.656 41.4404 41.62C41.5004 41.584 41.5764 41.566 41.6684 41.566C41.7604 41.566 41.8464 41.592 41.9264 41.644C42.0104 41.696 42.1064 41.752 42.2144 41.812C42.3224 41.872 42.4484 41.928 42.5924 41.98C42.7404 42.032 42.9264 42.058 43.1504 42.058C43.3264 42.058 43.4764 42.038 43.6004 41.998C43.7284 41.954 43.8324 41.898 43.9124 41.83C43.9964 41.762 44.0564 41.684 44.0924 41.596C44.1324 41.504 44.1524 41.41 44.1524 41.314C44.1524 41.17 44.1084 41.052 44.0204 40.96C43.9364 40.868 43.8224 40.788 43.6784 40.72C43.5384 40.652 43.3764 40.592 43.1924 40.54C43.0124 40.484 42.8264 40.424 42.6344 40.36C42.4464 40.296 42.2604 40.222 42.0764 40.138C41.8964 40.05 41.7344 39.94 41.5904 39.808C41.4504 39.676 41.3364 39.514 41.2484 39.322C41.1644 39.13 41.1224 38.898 41.1224 38.626C41.1224 38.374 41.1724 38.134 41.2724 37.906C41.3724 37.678 41.5184 37.48 41.7104 37.312C41.9064 37.14 42.1484 37.004 42.4364 36.904C42.7284 36.8 43.0644 36.748 43.4444 36.748C43.8684 36.748 44.2544 36.818 44.6024 36.958C44.9504 37.098 45.2404 37.282 45.4724 37.51L45.1364 38.044ZM48.1899 36.844V43H46.7019V36.844H48.1899ZM48.3939 35.05C48.3939 35.178 48.3679 35.298 48.3159 35.41C48.2639 35.522 48.1939 35.62 48.1059 35.704C48.0219 35.788 47.9219 35.856 47.8059 35.908C47.6899 35.956 47.5659 35.98 47.4339 35.98C47.3059 35.98 47.1839 35.956 47.0679 35.908C46.9559 35.856 46.8579 35.788 46.7739 35.704C46.6899 35.62 46.6219 35.522 46.5699 35.41C46.5219 35.298 46.4979 35.178 46.4979 35.05C46.4979 34.918 46.5219 34.794 46.5699 34.678C46.6219 34.562 46.6899 34.462 46.7739 34.378C46.8579 34.294 46.9559 34.228 47.0679 34.18C47.1839 34.128 47.3059 34.102 47.4339 34.102C47.5659 34.102 47.6899 34.128 47.8059 34.18C47.9219 34.228 48.0219 34.294 48.1059 34.378C48.1939 34.462 48.2639 34.562 48.3159 34.678C48.3679 34.794 48.3939 34.918 48.3939 35.05ZM51.0868 37.6C51.2108 37.476 51.3408 37.362 51.4768 37.258C51.6168 37.15 51.7628 37.06 51.9148 36.988C52.0708 36.912 52.2368 36.854 52.4128 36.814C52.5888 36.77 52.7808 36.748 52.9888 36.748C53.3248 36.748 53.6228 36.806 53.8828 36.922C54.1428 37.034 54.3588 37.194 54.5308 37.402C54.7068 37.606 54.8388 37.852 54.9268 38.14C55.0188 38.424 55.0648 38.738 55.0648 39.082V43H53.5828V39.082C53.5828 38.706 53.4968 38.416 53.3248 38.212C53.1528 38.004 52.8908 37.9 52.5388 37.9C52.2828 37.9 52.0428 37.958 51.8188 38.074C51.5948 38.19 51.3828 38.348 51.1828 38.548V43H49.7008V36.844H50.6068C50.7988 36.844 50.9248 36.934 50.9848 37.114L51.0868 37.6ZM58.7242 39.772C58.9082 39.772 59.0682 39.748 59.2042 39.7C59.3402 39.648 59.4522 39.578 59.5402 39.49C59.6322 39.402 59.7002 39.296 59.7442 39.172C59.7922 39.048 59.8162 38.912 59.8162 38.764C59.8162 38.46 59.7242 38.22 59.5402 38.044C59.3602 37.864 59.0882 37.774 58.7242 37.774C58.3602 37.774 58.0862 37.864 57.9022 38.044C57.7222 38.22 57.6322 38.46 57.6322 38.764C57.6322 38.908 57.6542 39.042 57.6982 39.166C57.7462 39.29 57.8142 39.398 57.9022 39.49C57.9942 39.578 58.1082 39.648 58.2442 39.7C58.3842 39.748 58.5442 39.772 58.7242 39.772ZM60.3982 43.276C60.3982 43.156 60.3622 43.058 60.2902 42.982C60.2182 42.906 60.1202 42.848 59.9962 42.808C59.8722 42.764 59.7262 42.732 59.5582 42.712C59.3942 42.692 59.2182 42.678 59.0302 42.67C58.8462 42.658 58.6542 42.648 58.4542 42.64C58.2582 42.632 58.0662 42.616 57.8782 42.592C57.7142 42.684 57.5802 42.792 57.4762 42.916C57.3762 43.04 57.3262 43.184 57.3262 43.348C57.3262 43.456 57.3522 43.556 57.4042 43.648C57.4602 43.744 57.5462 43.826 57.6622 43.894C57.7822 43.962 57.9362 44.014 58.1242 44.05C58.3122 44.09 58.5422 44.11 58.8142 44.11C59.0902 44.11 59.3282 44.088 59.5282 44.044C59.7282 44.004 59.8922 43.946 60.0202 43.87C60.1522 43.798 60.2482 43.71 60.3082 43.606C60.3682 43.506 60.3982 43.396 60.3982 43.276ZM61.8742 37.054V37.606C61.8742 37.782 61.7682 37.89 61.5562 37.93L61.0042 38.032C61.0882 38.244 61.1302 38.476 61.1302 38.728C61.1302 39.032 61.0682 39.308 60.9442 39.556C60.8242 39.8 60.6562 40.008 60.4402 40.18C60.2242 40.352 59.9682 40.486 59.6722 40.582C59.3802 40.674 59.0642 40.72 58.7242 40.72C58.6042 40.72 58.4882 40.714 58.3762 40.702C58.2642 40.69 58.1542 40.674 58.0462 40.654C57.8542 40.77 57.7582 40.9 57.7582 41.044C57.7582 41.168 57.8142 41.26 57.9262 41.32C58.0422 41.376 58.1942 41.416 58.3822 41.44C58.5702 41.464 58.7842 41.48 59.0242 41.488C59.2642 41.492 59.5102 41.504 59.7622 41.524C60.0142 41.544 60.2602 41.58 60.5002 41.632C60.7402 41.68 60.9542 41.758 61.1422 41.866C61.3302 41.974 61.4802 42.122 61.5922 42.31C61.7082 42.494 61.7662 42.732 61.7662 43.024C61.7662 43.296 61.6982 43.56 61.5622 43.816C61.4302 44.072 61.2362 44.3 60.9802 44.5C60.7282 44.7 60.4162 44.86 60.0442 44.98C59.6762 45.104 59.2562 45.166 58.7842 45.166C58.3202 45.166 57.9162 45.12 57.5722 45.028C57.2282 44.94 56.9422 44.82 56.7142 44.668C56.4862 44.52 56.3162 44.348 56.2042 44.152C56.0922 43.956 56.0362 43.752 56.0362 43.54C56.0362 43.252 56.1222 43.012 56.2942 42.82C56.4702 42.624 56.7102 42.468 57.0142 42.352C56.8502 42.268 56.7202 42.156 56.6242 42.016C56.5282 41.876 56.4802 41.692 56.4802 41.464C56.4802 41.372 56.4962 41.278 56.5282 41.182C56.5642 41.082 56.6142 40.984 56.6782 40.888C56.7462 40.792 56.8302 40.702 56.9302 40.618C57.0302 40.53 57.1482 40.452 57.2842 40.384C56.9722 40.216 56.7262 39.992 56.5462 39.712C56.3702 39.432 56.2822 39.104 56.2822 38.728C56.2822 38.424 56.3422 38.15 56.4622 37.906C56.5862 37.658 56.7562 37.448 56.9722 37.276C57.1922 37.1 57.4502 36.966 57.7462 36.874C58.0462 36.782 58.3722 36.736 58.7242 36.736C58.9882 36.736 59.2362 36.764 59.4682 36.82C59.7002 36.872 59.9122 36.95 60.1042 37.054H61.8742ZM69.596 38.416C69.428 38.212 69.244 38.068 69.044 37.984C68.848 37.9 68.636 37.858 68.408 37.858C68.184 37.858 67.982 37.9 67.802 37.984C67.622 38.068 67.468 38.196 67.34 38.368C67.212 38.536 67.114 38.752 67.046 39.016C66.978 39.276 66.944 39.584 66.944 39.94C66.944 40.3 66.972 40.606 67.028 40.858C67.088 41.106 67.172 41.31 67.28 41.47C67.388 41.626 67.52 41.74 67.676 41.812C67.832 41.88 68.006 41.914 68.198 41.914C68.506 41.914 68.768 41.85 68.984 41.722C69.2 41.594 69.404 41.412 69.596 41.176V38.416ZM71.078 34.084V43H70.172C69.976 43 69.852 42.91 69.8 42.73L69.674 42.136C69.426 42.42 69.14 42.65 68.816 42.826C68.496 43.002 68.122 43.09 67.694 43.09C67.358 43.09 67.05 43.02 66.77 42.88C66.49 42.74 66.248 42.538 66.044 42.274C65.844 42.006 65.688 41.676 65.576 41.284C65.468 40.892 65.414 40.444 65.414 39.94C65.414 39.484 65.476 39.06 65.6 38.668C65.724 38.276 65.902 37.936 66.134 37.648C66.366 37.36 66.644 37.136 66.968 36.976C67.292 36.812 67.656 36.73 68.06 36.73C68.404 36.73 68.698 36.784 68.942 36.892C69.186 37 69.404 37.146 69.596 37.33V34.084H71.078ZM74.0766 36.844V43H72.5886V36.844H74.0766ZM74.2806 35.05C74.2806 35.178 74.2546 35.298 74.2026 35.41C74.1506 35.522 74.0806 35.62 73.9926 35.704C73.9086 35.788 73.8086 35.856 73.6926 35.908C73.5766 35.956 73.4526 35.98 73.3206 35.98C73.1926 35.98 73.0706 35.956 72.9546 35.908C72.8426 35.856 72.7446 35.788 72.6606 35.704C72.5766 35.62 72.5086 35.522 72.4566 35.41C72.4086 35.298 72.3846 35.178 72.3846 35.05C72.3846 34.918 72.4086 34.794 72.4566 34.678C72.5086 34.562 72.5766 34.462 72.6606 34.378C72.7446 34.294 72.8426 34.228 72.9546 34.18C73.0706 34.128 73.1926 34.102 73.3206 34.102C73.4526 34.102 73.5766 34.128 73.6926 34.18C73.8086 34.228 73.9086 34.294 73.9926 34.378C74.0806 34.462 74.1506 34.562 74.2026 34.678C74.2546 34.794 74.2806 34.918 74.2806 35.05ZM77.8375 39.772C78.0215 39.772 78.1815 39.748 78.3175 39.7C78.4535 39.648 78.5655 39.578 78.6535 39.49C78.7455 39.402 78.8135 39.296 78.8575 39.172C78.9055 39.048 78.9295 38.912 78.9295 38.764C78.9295 38.46 78.8375 38.22 78.6535 38.044C78.4735 37.864 78.2015 37.774 77.8375 37.774C77.4735 37.774 77.1995 37.864 77.0155 38.044C76.8355 38.22 76.7455 38.46 76.7455 38.764C76.7455 38.908 76.7675 39.042 76.8115 39.166C76.8595 39.29 76.9275 39.398 77.0155 39.49C77.1075 39.578 77.2215 39.648 77.3575 39.7C77.4975 39.748 77.6575 39.772 77.8375 39.772ZM79.5115 43.276C79.5115 43.156 79.4755 43.058 79.4035 42.982C79.3315 42.906 79.2335 42.848 79.1095 42.808C78.9855 42.764 78.8395 42.732 78.6715 42.712C78.5075 42.692 78.3315 42.678 78.1435 42.67C77.9595 42.658 77.7675 42.648 77.5675 42.64C77.3715 42.632 77.1795 42.616 76.9915 42.592C76.8275 42.684 76.6935 42.792 76.5895 42.916C76.4895 43.04 76.4395 43.184 76.4395 43.348C76.4395 43.456 76.4655 43.556 76.5175 43.648C76.5735 43.744 76.6595 43.826 76.7755 43.894C76.8955 43.962 77.0495 44.014 77.2375 44.05C77.4255 44.09 77.6555 44.11 77.9275 44.11C78.2035 44.11 78.4415 44.088 78.6415 44.044C78.8415 44.004 79.0055 43.946 79.1335 43.87C79.2655 43.798 79.3615 43.71 79.4215 43.606C79.4815 43.506 79.5115 43.396 79.5115 43.276ZM80.9875 37.054V37.606C80.9875 37.782 80.8815 37.89 80.6695 37.93L80.1175 38.032C80.2015 38.244 80.2435 38.476 80.2435 38.728C80.2435 39.032 80.1815 39.308 80.0575 39.556C79.9375 39.8 79.7695 40.008 79.5535 40.18C79.3375 40.352 79.0815 40.486 78.7855 40.582C78.4935 40.674 78.1775 40.72 77.8375 40.72C77.7175 40.72 77.6015 40.714 77.4895 40.702C77.3775 40.69 77.2675 40.674 77.1595 40.654C76.9675 40.77 76.8715 40.9 76.8715 41.044C76.8715 41.168 76.9275 41.26 77.0395 41.32C77.1555 41.376 77.3075 41.416 77.4955 41.44C77.6835 41.464 77.8975 41.48 78.1375 41.488C78.3775 41.492 78.6235 41.504 78.8755 41.524C79.1275 41.544 79.3735 41.58 79.6135 41.632C79.8535 41.68 80.0675 41.758 80.2555 41.866C80.4435 41.974 80.5935 42.122 80.7055 42.31C80.8215 42.494 80.8795 42.732 80.8795 43.024C80.8795 43.296 80.8115 43.56 80.6755 43.816C80.5435 44.072 80.3495 44.3 80.0935 44.5C79.8415 44.7 79.5295 44.86 79.1575 44.98C78.7895 45.104 78.3695 45.166 77.8975 45.166C77.4335 45.166 77.0295 45.12 76.6855 45.028C76.3415 44.94 76.0555 44.82 75.8275 44.668C75.5995 44.52 75.4295 44.348 75.3175 44.152C75.2055 43.956 75.1495 43.752 75.1495 43.54C75.1495 43.252 75.2355 43.012 75.4075 42.82C75.5835 42.624 75.8235 42.468 76.1275 42.352C75.9635 42.268 75.8335 42.156 75.7375 42.016C75.6415 41.876 75.5935 41.692 75.5935 41.464C75.5935 41.372 75.6095 41.278 75.6415 41.182C75.6775 41.082 75.7275 40.984 75.7915 40.888C75.8595 40.792 75.9435 40.702 76.0435 40.618C76.1435 40.53 76.2615 40.452 76.3975 40.384C76.0855 40.216 75.8395 39.992 75.6595 39.712C75.4835 39.432 75.3955 39.104 75.3955 38.728C75.3955 38.424 75.4555 38.15 75.5755 37.906C75.6995 37.658 75.8695 37.448 76.0855 37.276C76.3055 37.1 76.5635 36.966 76.8595 36.874C77.1595 36.782 77.4855 36.736 77.8375 36.736C78.1015 36.736 78.3495 36.764 78.5815 36.82C78.8135 36.872 79.0255 36.95 79.2175 37.054H80.9875ZM83.4633 36.844V43H81.9753V36.844H83.4633ZM83.6673 35.05C83.6673 35.178 83.6413 35.298 83.5893 35.41C83.5373 35.522 83.4673 35.62 83.3793 35.704C83.2953 35.788 83.1953 35.856 83.0793 35.908C82.9633 35.956 82.8393 35.98 82.7073 35.98C82.5793 35.98 82.4573 35.956 82.3413 35.908C82.2293 35.856 82.1313 35.788 82.0473 35.704C81.9633 35.62 81.8953 35.522 81.8433 35.41C81.7953 35.298 81.7713 35.178 81.7713 35.05C81.7713 34.918 81.7953 34.794 81.8433 34.678C81.8953 34.562 81.9633 34.462 82.0473 34.378C82.1313 34.294 82.2293 34.228 82.3413 34.18C82.4573 34.128 82.5793 34.102 82.7073 34.102C82.8393 34.102 82.9633 34.128 83.0793 34.18C83.1953 34.228 83.2953 34.294 83.3793 34.378C83.4673 34.462 83.5373 34.562 83.5893 34.678C83.6413 34.794 83.6673 34.918 83.6673 35.05ZM87.0262 43.096C86.4902 43.096 86.0782 42.946 85.7902 42.646C85.5062 42.342 85.3642 41.924 85.3642 41.392V37.954H84.7342C84.6542 37.954 84.5862 37.928 84.5302 37.876C84.4742 37.824 84.4462 37.746 84.4462 37.642V37.054L85.4362 36.892L85.7482 35.212C85.7682 35.132 85.8062 35.07 85.8622 35.026C85.9182 34.982 85.9902 34.96 86.0782 34.96H86.8462V36.898H88.4902V37.954H86.8462V41.29C86.8462 41.482 86.8922 41.632 86.9842 41.74C87.0802 41.848 87.2102 41.902 87.3742 41.902C87.4662 41.902 87.5422 41.892 87.6022 41.872C87.6662 41.848 87.7202 41.824 87.7642 41.8C87.8122 41.776 87.8542 41.754 87.8902 41.734C87.9262 41.71 87.9622 41.698 87.9982 41.698C88.0422 41.698 88.0782 41.71 88.1062 41.734C88.1342 41.754 88.1642 41.786 88.1962 41.83L88.6402 42.55C88.4242 42.73 88.1762 42.866 87.8962 42.958C87.6162 43.05 87.3262 43.096 87.0262 43.096ZM92.691 40.372C92.263 40.392 91.903 40.43 91.611 40.486C91.319 40.538 91.085 40.606 90.909 40.69C90.733 40.774 90.607 40.872 90.531 40.984C90.455 41.096 90.417 41.218 90.417 41.35C90.417 41.61 90.493 41.796 90.645 41.908C90.801 42.02 91.003 42.076 91.251 42.076C91.555 42.076 91.817 42.022 92.037 41.914C92.261 41.802 92.479 41.634 92.691 41.41V40.372ZM89.295 37.702C90.003 37.054 90.855 36.73 91.851 36.73C92.211 36.73 92.533 36.79 92.817 36.91C93.101 37.026 93.341 37.19 93.537 37.402C93.733 37.61 93.881 37.86 93.981 38.152C94.085 38.444 94.137 38.764 94.137 39.112V43H93.465C93.325 43 93.217 42.98 93.141 42.94C93.065 42.896 93.005 42.81 92.961 42.682L92.829 42.238C92.673 42.378 92.521 42.502 92.373 42.61C92.225 42.714 92.071 42.802 91.911 42.874C91.751 42.946 91.579 43 91.395 43.036C91.215 43.076 91.015 43.096 90.795 43.096C90.535 43.096 90.295 43.062 90.075 42.994C89.855 42.922 89.665 42.816 89.505 42.676C89.345 42.536 89.221 42.362 89.133 42.154C89.045 41.946 89.001 41.704 89.001 41.428C89.001 41.272 89.027 41.118 89.079 40.966C89.131 40.81 89.215 40.662 89.331 40.522C89.451 40.382 89.605 40.25 89.793 40.126C89.981 40.002 90.211 39.894 90.483 39.802C90.759 39.71 91.079 39.636 91.443 39.58C91.807 39.52 92.223 39.484 92.691 39.472V39.112C92.691 38.7 92.603 38.396 92.427 38.2C92.251 38 91.997 37.9 91.665 37.9C91.425 37.9 91.225 37.928 91.065 37.984C90.909 38.04 90.771 38.104 90.651 38.176C90.531 38.244 90.421 38.306 90.321 38.362C90.225 38.418 90.117 38.446 89.997 38.446C89.893 38.446 89.805 38.42 89.733 38.368C89.661 38.312 89.603 38.248 89.559 38.176L89.295 37.702ZM97.0328 34.084V43H95.5508V34.084H97.0328ZM102.825 37.912C103.017 37.544 103.245 37.256 103.509 37.048C103.773 36.836 104.085 36.73 104.445 36.73C104.729 36.73 104.957 36.792 105.129 36.916L105.033 38.026C105.013 38.098 104.983 38.15 104.943 38.182C104.907 38.21 104.857 38.224 104.793 38.224C104.733 38.224 104.643 38.214 104.523 38.194C104.407 38.174 104.293 38.164 104.181 38.164C104.017 38.164 103.871 38.188 103.743 38.236C103.615 38.284 103.499 38.354 103.395 38.446C103.295 38.534 103.205 38.642 103.125 38.77C103.049 38.898 102.977 39.044 102.909 39.208V43H101.427V36.844H102.297C102.449 36.844 102.555 36.872 102.615 36.928C102.675 36.98 102.715 37.076 102.735 37.216L102.825 37.912ZM109.694 39.214C109.694 39.022 109.666 38.842 109.61 38.674C109.558 38.502 109.478 38.352 109.37 38.224C109.262 38.096 109.124 37.996 108.956 37.924C108.792 37.848 108.6 37.81 108.38 37.81C107.952 37.81 107.614 37.932 107.366 38.176C107.122 38.42 106.966 38.766 106.898 39.214H109.694ZM106.868 40.108C106.892 40.424 106.948 40.698 107.036 40.93C107.124 41.158 107.24 41.348 107.384 41.5C107.528 41.648 107.698 41.76 107.894 41.836C108.094 41.908 108.314 41.944 108.554 41.944C108.794 41.944 109 41.916 109.172 41.86C109.348 41.804 109.5 41.742 109.628 41.674C109.76 41.606 109.874 41.544 109.97 41.488C110.07 41.432 110.166 41.404 110.258 41.404C110.382 41.404 110.474 41.45 110.534 41.542L110.96 42.082C110.796 42.274 110.612 42.436 110.408 42.568C110.204 42.696 109.99 42.8 109.766 42.88C109.546 42.956 109.32 43.01 109.088 43.042C108.86 43.074 108.638 43.09 108.422 43.09C107.994 43.09 107.596 43.02 107.228 42.88C106.86 42.736 106.54 42.526 106.268 42.25C105.996 41.97 105.782 41.626 105.626 41.218C105.47 40.806 105.392 40.33 105.392 39.79C105.392 39.37 105.46 38.976 105.596 38.608C105.732 38.236 105.926 37.914 106.178 37.642C106.434 37.366 106.744 37.148 107.108 36.988C107.476 36.828 107.89 36.748 108.35 36.748C108.738 36.748 109.096 36.81 109.424 36.934C109.752 37.058 110.034 37.24 110.27 37.48C110.506 37.716 110.69 38.008 110.822 38.356C110.958 38.7 111.026 39.094 111.026 39.538C111.026 39.762 111.002 39.914 110.954 39.994C110.906 40.07 110.814 40.108 110.678 40.108H106.868ZM115.894 38.044C115.854 38.108 115.812 38.154 115.768 38.182C115.724 38.206 115.668 38.218 115.6 38.218C115.528 38.218 115.45 38.198 115.366 38.158C115.286 38.118 115.192 38.074 115.084 38.026C114.976 37.974 114.852 37.928 114.712 37.888C114.576 37.848 114.414 37.828 114.226 37.828C113.934 37.828 113.704 37.89 113.536 38.014C113.372 38.138 113.29 38.3 113.29 38.5C113.29 38.632 113.332 38.744 113.416 38.836C113.504 38.924 113.618 39.002 113.758 39.07C113.902 39.138 114.064 39.2 114.244 39.256C114.424 39.308 114.606 39.366 114.79 39.43C114.978 39.494 115.162 39.568 115.342 39.652C115.522 39.732 115.682 39.836 115.822 39.964C115.966 40.088 116.08 40.238 116.164 40.414C116.252 40.59 116.296 40.802 116.296 41.05C116.296 41.346 116.242 41.62 116.134 41.872C116.03 42.12 115.874 42.336 115.666 42.52C115.458 42.7 115.2 42.842 114.892 42.946C114.588 43.046 114.236 43.096 113.836 43.096C113.624 43.096 113.416 43.076 113.212 43.036C113.012 43 112.818 42.948 112.63 42.88C112.446 42.812 112.274 42.732 112.114 42.64C111.958 42.548 111.82 42.448 111.7 42.34L112.042 41.776C112.086 41.708 112.138 41.656 112.198 41.62C112.258 41.584 112.334 41.566 112.426 41.566C112.518 41.566 112.604 41.592 112.684 41.644C112.768 41.696 112.864 41.752 112.972 41.812C113.08 41.872 113.206 41.928 113.35 41.98C113.498 42.032 113.684 42.058 113.908 42.058C114.084 42.058 114.234 42.038 114.358 41.998C114.486 41.954 114.59 41.898 114.67 41.83C114.754 41.762 114.814 41.684 114.85 41.596C114.89 41.504 114.91 41.41 114.91 41.314C114.91 41.17 114.866 41.052 114.778 40.96C114.694 40.868 114.58 40.788 114.436 40.72C114.296 40.652 114.134 40.592 113.95 40.54C113.77 40.484 113.584 40.424 113.392 40.36C113.204 40.296 113.018 40.222 112.834 40.138C112.654 40.05 112.492 39.94 112.348 39.808C112.208 39.676 112.094 39.514 112.006 39.322C111.922 39.13 111.88 38.898 111.88 38.626C111.88 38.374 111.93 38.134 112.03 37.906C112.13 37.678 112.276 37.48 112.468 37.312C112.664 37.14 112.906 37.004 113.194 36.904C113.486 36.8 113.822 36.748 114.202 36.748C114.626 36.748 115.012 36.818 115.36 36.958C115.708 37.098 115.998 37.282 116.23 37.51L115.894 38.044ZM120.136 36.748C120.592 36.748 121.006 36.822 121.378 36.97C121.754 37.118 122.074 37.328 122.338 37.6C122.606 37.872 122.812 38.204 122.956 38.596C123.1 38.988 123.172 39.426 123.172 39.91C123.172 40.398 123.1 40.838 122.956 41.23C122.812 41.622 122.606 41.956 122.338 42.232C122.074 42.508 121.754 42.72 121.378 42.868C121.006 43.016 120.592 43.09 120.136 43.09C119.676 43.09 119.258 43.016 118.882 42.868C118.506 42.72 118.184 42.508 117.916 42.232C117.652 41.956 117.446 41.622 117.298 41.23C117.154 40.838 117.082 40.398 117.082 39.91C117.082 39.426 117.154 38.988 117.298 38.596C117.446 38.204 117.652 37.872 117.916 37.6C118.184 37.328 118.506 37.118 118.882 36.97C119.258 36.822 119.676 36.748 120.136 36.748ZM120.136 41.95C120.648 41.95 121.026 41.778 121.27 41.434C121.518 41.09 121.642 40.586 121.642 39.922C121.642 39.258 121.518 38.752 121.27 38.404C121.026 38.056 120.648 37.882 120.136 37.882C119.616 37.882 119.23 38.058 118.978 38.41C118.73 38.758 118.606 39.262 118.606 39.922C118.606 40.582 118.73 41.086 118.978 41.434C119.23 41.778 119.616 41.95 120.136 41.95ZM129.606 36.844V43H128.7C128.504 43 128.38 42.91 128.328 42.73L128.226 42.238C127.974 42.494 127.696 42.702 127.392 42.862C127.088 43.018 126.73 43.096 126.318 43.096C125.982 43.096 125.684 43.04 125.424 42.928C125.168 42.812 124.952 42.65 124.776 42.442C124.6 42.234 124.466 41.988 124.374 41.704C124.286 41.416 124.242 41.1 124.242 40.756V36.844H125.724V40.756C125.724 41.132 125.81 41.424 125.982 41.632C126.158 41.836 126.42 41.938 126.768 41.938C127.024 41.938 127.264 41.882 127.488 41.77C127.712 41.654 127.924 41.496 128.124 41.296V36.844H129.606ZM132.474 37.912C132.666 37.544 132.894 37.256 133.158 37.048C133.422 36.836 133.734 36.73 134.094 36.73C134.378 36.73 134.606 36.792 134.778 36.916L134.682 38.026C134.662 38.098 134.632 38.15 134.592 38.182C134.556 38.21 134.506 38.224 134.442 38.224C134.382 38.224 134.292 38.214 134.172 38.194C134.056 38.174 133.942 38.164 133.83 38.164C133.666 38.164 133.52 38.188 133.392 38.236C133.264 38.284 133.148 38.354 133.044 38.446C132.944 38.534 132.854 38.642 132.774 38.77C132.698 38.898 132.626 39.044 132.558 39.208V43H131.076V36.844H131.946C132.098 36.844 132.204 36.872 132.264 36.928C132.324 36.98 132.364 37.076 132.384 37.216L132.474 37.912ZM139.787 38.146C139.743 38.202 139.699 38.246 139.655 38.278C139.615 38.31 139.555 38.326 139.475 38.326C139.399 38.326 139.325 38.304 139.253 38.26C139.181 38.212 139.095 38.16 138.995 38.104C138.895 38.044 138.775 37.992 138.635 37.948C138.499 37.9 138.329 37.876 138.125 37.876C137.865 37.876 137.637 37.924 137.441 38.02C137.245 38.112 137.081 38.246 136.949 38.422C136.821 38.598 136.725 38.812 136.661 39.064C136.597 39.312 136.565 39.594 136.565 39.91C136.565 40.238 136.599 40.53 136.667 40.786C136.739 41.042 136.841 41.258 136.973 41.434C137.105 41.606 137.265 41.738 137.453 41.83C137.641 41.918 137.853 41.962 138.089 41.962C138.325 41.962 138.515 41.934 138.659 41.878C138.807 41.818 138.931 41.754 139.031 41.686C139.131 41.614 139.217 41.55 139.289 41.494C139.365 41.434 139.449 41.404 139.541 41.404C139.661 41.404 139.751 41.45 139.811 41.542L140.237 42.082C140.073 42.274 139.895 42.436 139.703 42.568C139.511 42.696 139.311 42.8 139.103 42.88C138.899 42.956 138.687 43.01 138.467 43.042C138.251 43.074 138.035 43.09 137.819 43.09C137.439 43.09 137.081 43.02 136.745 42.88C136.409 42.736 136.115 42.528 135.863 42.256C135.611 41.984 135.411 41.652 135.263 41.26C135.119 40.864 135.047 40.414 135.047 39.91C135.047 39.458 135.111 39.04 135.239 38.656C135.371 38.268 135.563 37.934 135.815 37.654C136.067 37.37 136.379 37.148 136.751 36.988C137.123 36.828 137.551 36.748 138.035 36.748C138.495 36.748 138.897 36.822 139.241 36.97C139.589 37.118 139.901 37.33 140.177 37.606L139.787 38.146ZM145.026 39.214C145.026 39.022 144.998 38.842 144.942 38.674C144.89 38.502 144.81 38.352 144.702 38.224C144.594 38.096 144.456 37.996 144.288 37.924C144.124 37.848 143.932 37.81 143.712 37.81C143.284 37.81 142.946 37.932 142.698 38.176C142.454 38.42 142.298 38.766 142.23 39.214H145.026ZM142.2 40.108C142.224 40.424 142.28 40.698 142.368 40.93C142.456 41.158 142.572 41.348 142.716 41.5C142.86 41.648 143.03 41.76 143.226 41.836C143.426 41.908 143.646 41.944 143.886 41.944C144.126 41.944 144.332 41.916 144.504 41.86C144.68 41.804 144.832 41.742 144.96 41.674C145.092 41.606 145.206 41.544 145.302 41.488C145.402 41.432 145.498 41.404 145.59 41.404C145.714 41.404 145.806 41.45 145.866 41.542L146.292 42.082C146.128 42.274 145.944 42.436 145.74 42.568C145.536 42.696 145.322 42.8 145.098 42.88C144.878 42.956 144.652 43.01 144.42 43.042C144.192 43.074 143.97 43.09 143.754 43.09C143.326 43.09 142.928 43.02 142.56 42.88C142.192 42.736 141.872 42.526 141.6 42.25C141.328 41.97 141.114 41.626 140.958 41.218C140.802 40.806 140.724 40.33 140.724 39.79C140.724 39.37 140.792 38.976 140.928 38.608C141.064 38.236 141.258 37.914 141.51 37.642C141.766 37.366 142.076 37.148 142.44 36.988C142.808 36.828 143.222 36.748 143.682 36.748C144.07 36.748 144.428 36.81 144.756 36.934C145.084 37.058 145.366 37.24 145.602 37.48C145.838 37.716 146.022 38.008 146.154 38.356C146.29 38.7 146.358 39.094 146.358 39.538C146.358 39.762 146.334 39.914 146.286 39.994C146.238 40.07 146.146 40.108 146.01 40.108H142.2ZM151.226 38.044C151.186 38.108 151.144 38.154 151.1 38.182C151.056 38.206 151 38.218 150.932 38.218C150.86 38.218 150.782 38.198 150.698 38.158C150.618 38.118 150.524 38.074 150.416 38.026C150.308 37.974 150.184 37.928 150.044 37.888C149.908 37.848 149.746 37.828 149.558 37.828C149.266 37.828 149.036 37.89 148.868 38.014C148.704 38.138 148.622 38.3 148.622 38.5C148.622 38.632 148.664 38.744 148.748 38.836C148.836 38.924 148.95 39.002 149.09 39.07C149.234 39.138 149.396 39.2 149.576 39.256C149.756 39.308 149.938 39.366 150.122 39.43C150.31 39.494 150.494 39.568 150.674 39.652C150.854 39.732 151.014 39.836 151.154 39.964C151.298 40.088 151.412 40.238 151.496 40.414C151.584 40.59 151.628 40.802 151.628 41.05C151.628 41.346 151.574 41.62 151.466 41.872C151.362 42.12 151.206 42.336 150.998 42.52C150.79 42.7 150.532 42.842 150.224 42.946C149.92 43.046 149.568 43.096 149.168 43.096C148.956 43.096 148.748 43.076 148.544 43.036C148.344 43 148.15 42.948 147.962 42.88C147.778 42.812 147.606 42.732 147.446 42.64C147.29 42.548 147.152 42.448 147.032 42.34L147.374 41.776C147.418 41.708 147.47 41.656 147.53 41.62C147.59 41.584 147.666 41.566 147.758 41.566C147.85 41.566 147.936 41.592 148.016 41.644C148.1 41.696 148.196 41.752 148.304 41.812C148.412 41.872 148.538 41.928 148.682 41.98C148.83 42.032 149.016 42.058 149.24 42.058C149.416 42.058 149.566 42.038 149.69 41.998C149.818 41.954 149.922 41.898 150.002 41.83C150.086 41.762 150.146 41.684 150.182 41.596C150.222 41.504 150.242 41.41 150.242 41.314C150.242 41.17 150.198 41.052 150.11 40.96C150.026 40.868 149.912 40.788 149.768 40.72C149.628 40.652 149.466 40.592 149.282 40.54C149.102 40.484 148.916 40.424 148.724 40.36C148.536 40.296 148.35 40.222 148.166 40.138C147.986 40.05 147.824 39.94 147.68 39.808C147.54 39.676 147.426 39.514 147.338 39.322C147.254 39.13 147.212 38.898 147.212 38.626C147.212 38.374 147.262 38.134 147.362 37.906C147.462 37.678 147.608 37.48 147.8 37.312C147.996 37.14 148.238 37.004 148.526 36.904C148.818 36.8 149.154 36.748 149.534 36.748C149.958 36.748 150.344 36.818 150.692 36.958C151.04 37.098 151.33 37.282 151.562 37.51L151.226 38.044ZM164.206 36.844L162.25 43H161.062C160.926 43 160.832 42.912 160.78 42.736L159.676 39.178C159.64 39.058 159.606 38.94 159.574 38.824C159.546 38.704 159.522 38.584 159.502 38.464C159.478 38.584 159.45 38.706 159.418 38.83C159.39 38.95 159.358 39.07 159.322 39.19L158.2 42.736C158.152 42.912 158.046 43 157.882 43H156.742L154.792 36.844H155.974C156.082 36.844 156.174 36.87 156.25 36.922C156.326 36.974 156.376 37.04 156.4 37.12L157.282 40.408C157.326 40.588 157.364 40.764 157.396 40.936C157.432 41.108 157.462 41.28 157.486 41.452C157.53 41.28 157.576 41.108 157.624 40.936C157.676 40.764 157.73 40.588 157.786 40.408L158.806 37.108C158.83 37.028 158.876 36.962 158.944 36.91C159.016 36.858 159.102 36.832 159.202 36.832H159.856C159.96 36.832 160.048 36.858 160.12 36.91C160.196 36.962 160.246 37.028 160.27 37.108L161.26 40.408C161.312 40.588 161.36 40.766 161.404 40.942C161.452 41.114 161.498 41.286 161.542 41.458C161.594 41.118 161.668 40.768 161.764 40.408L162.67 37.12C162.698 37.04 162.748 36.974 162.82 36.922C162.892 36.87 162.978 36.844 163.078 36.844H164.206ZM166.584 36.844V43H165.096V36.844H166.584ZM166.788 35.05C166.788 35.178 166.762 35.298 166.71 35.41C166.658 35.522 166.588 35.62 166.5 35.704C166.416 35.788 166.316 35.856 166.2 35.908C166.084 35.956 165.96 35.98 165.828 35.98C165.7 35.98 165.578 35.956 165.462 35.908C165.35 35.856 165.252 35.788 165.168 35.704C165.084 35.62 165.016 35.522 164.964 35.41C164.916 35.298 164.892 35.178 164.892 35.05C164.892 34.918 164.916 34.794 164.964 34.678C165.016 34.562 165.084 34.462 165.168 34.378C165.252 34.294 165.35 34.228 165.462 34.18C165.578 34.128 165.7 34.102 165.828 34.102C165.96 34.102 166.084 34.128 166.2 34.18C166.316 34.228 166.416 34.294 166.5 34.378C166.588 34.462 166.658 34.562 166.71 34.678C166.762 34.794 166.788 34.918 166.788 35.05ZM170.147 43.096C169.611 43.096 169.199 42.946 168.911 42.646C168.627 42.342 168.485 41.924 168.485 41.392V37.954H167.855C167.775 37.954 167.707 37.928 167.651 37.876C167.595 37.824 167.567 37.746 167.567 37.642V37.054L168.557 36.892L168.869 35.212C168.889 35.132 168.927 35.07 168.983 35.026C169.039 34.982 169.111 34.96 169.199 34.96H169.967V36.898H171.611V37.954H169.967V41.29C169.967 41.482 170.013 41.632 170.105 41.74C170.201 41.848 170.331 41.902 170.495 41.902C170.587 41.902 170.663 41.892 170.723 41.872C170.787 41.848 170.841 41.824 170.885 41.8C170.933 41.776 170.975 41.754 171.011 41.734C171.047 41.71 171.083 41.698 171.119 41.698C171.163 41.698 171.199 41.71 171.227 41.734C171.255 41.754 171.285 41.786 171.317 41.83L171.761 42.55C171.545 42.73 171.297 42.866 171.017 42.958C170.737 43.05 170.447 43.096 170.147 43.096ZM174.042 37.504C174.282 37.28 174.546 37.098 174.834 36.958C175.122 36.818 175.46 36.748 175.848 36.748C176.184 36.748 176.482 36.806 176.742 36.922C177.002 37.034 177.218 37.194 177.39 37.402C177.566 37.606 177.698 37.852 177.786 38.14C177.878 38.424 177.924 38.738 177.924 39.082V43H176.442V39.082C176.442 38.706 176.356 38.416 176.184 38.212C176.012 38.004 175.75 37.9 175.398 37.9C175.142 37.9 174.902 37.958 174.678 38.074C174.454 38.19 174.242 38.348 174.042 38.548V43H172.56V34.084H174.042V37.504ZM185.504 40.372C185.076 40.392 184.716 40.43 184.424 40.486C184.132 40.538 183.898 40.606 183.722 40.69C183.546 40.774 183.42 40.872 183.344 40.984C183.268 41.096 183.23 41.218 183.23 41.35C183.23 41.61 183.306 41.796 183.458 41.908C183.614 42.02 183.816 42.076 184.064 42.076C184.368 42.076 184.63 42.022 184.85 41.914C185.074 41.802 185.292 41.634 185.504 41.41V40.372ZM182.108 37.702C182.816 37.054 183.668 36.73 184.664 36.73C185.024 36.73 185.346 36.79 185.63 36.91C185.914 37.026 186.154 37.19 186.35 37.402C186.546 37.61 186.694 37.86 186.794 38.152C186.898 38.444 186.95 38.764 186.95 39.112V43H186.278C186.138 43 186.03 42.98 185.954 42.94C185.878 42.896 185.818 42.81 185.774 42.682L185.642 42.238C185.486 42.378 185.334 42.502 185.186 42.61C185.038 42.714 184.884 42.802 184.724 42.874C184.564 42.946 184.392 43 184.208 43.036C184.028 43.076 183.828 43.096 183.608 43.096C183.348 43.096 183.108 43.062 182.888 42.994C182.668 42.922 182.478 42.816 182.318 42.676C182.158 42.536 182.034 42.362 181.946 42.154C181.858 41.946 181.814 41.704 181.814 41.428C181.814 41.272 181.84 41.118 181.892 40.966C181.944 40.81 182.028 40.662 182.144 40.522C182.264 40.382 182.418 40.25 182.606 40.126C182.794 40.002 183.024 39.894 183.296 39.802C183.572 39.71 183.892 39.636 184.256 39.58C184.62 39.52 185.036 39.484 185.504 39.472V39.112C185.504 38.7 185.416 38.396 185.24 38.2C185.064 38 184.81 37.9 184.478 37.9C184.238 37.9 184.038 37.928 183.878 37.984C183.722 38.04 183.584 38.104 183.464 38.176C183.344 38.244 183.234 38.306 183.134 38.362C183.038 38.418 182.93 38.446 182.81 38.446C182.706 38.446 182.618 38.42 182.546 38.368C182.474 38.312 182.416 38.248 182.372 38.176L182.108 37.702ZM192.209 38.416C192.041 38.212 191.857 38.068 191.657 37.984C191.461 37.9 191.249 37.858 191.021 37.858C190.797 37.858 190.595 37.9 190.415 37.984C190.235 38.068 190.081 38.196 189.953 38.368C189.825 38.536 189.727 38.752 189.659 39.016C189.591 39.276 189.557 39.584 189.557 39.94C189.557 40.3 189.585 40.606 189.641 40.858C189.701 41.106 189.785 41.31 189.893 41.47C190.001 41.626 190.133 41.74 190.289 41.812C190.445 41.88 190.619 41.914 190.811 41.914C191.119 41.914 191.381 41.85 191.597 41.722C191.813 41.594 192.017 41.412 192.209 41.176V38.416ZM193.691 34.084V43H192.785C192.589 43 192.465 42.91 192.413 42.73L192.287 42.136C192.039 42.42 191.753 42.65 191.429 42.826C191.109 43.002 190.735 43.09 190.307 43.09C189.971 43.09 189.663 43.02 189.383 42.88C189.103 42.74 188.861 42.538 188.657 42.274C188.457 42.006 188.301 41.676 188.189 41.284C188.081 40.892 188.027 40.444 188.027 39.94C188.027 39.484 188.089 39.06 188.213 38.668C188.337 38.276 188.515 37.936 188.747 37.648C188.979 37.36 189.257 37.136 189.581 36.976C189.905 36.812 190.269 36.73 190.673 36.73C191.017 36.73 191.311 36.784 191.555 36.892C191.799 37 192.017 37.146 192.209 37.33V34.084H193.691ZM200.458 36.844V43H199.552C199.356 43 199.232 42.91 199.18 42.73L199.078 42.238C198.826 42.494 198.548 42.702 198.244 42.862C197.94 43.018 197.582 43.096 197.17 43.096C196.834 43.096 196.536 43.04 196.276 42.928C196.02 42.812 195.804 42.65 195.628 42.442C195.452 42.234 195.318 41.988 195.226 41.704C195.138 41.416 195.094 41.1 195.094 40.756V36.844H196.576V40.756C196.576 41.132 196.662 41.424 196.834 41.632C197.01 41.836 197.272 41.938 197.62 41.938C197.876 41.938 198.116 41.882 198.34 41.77C198.564 41.654 198.776 41.496 198.976 41.296V36.844H200.458ZM203.427 34.084V43H201.945V34.084H203.427ZM206.956 43.096C206.42 43.096 206.008 42.946 205.72 42.646C205.436 42.342 205.294 41.924 205.294 41.392V37.954H204.664C204.584 37.954 204.516 37.928 204.46 37.876C204.404 37.824 204.376 37.746 204.376 37.642V37.054L205.366 36.892L205.678 35.212C205.698 35.132 205.736 35.07 205.792 35.026C205.848 34.982 205.92 34.96 206.008 34.96H206.776V36.898H208.42V37.954H206.776V41.29C206.776 41.482 206.822 41.632 206.914 41.74C207.01 41.848 207.14 41.902 207.304 41.902C207.396 41.902 207.472 41.892 207.532 41.872C207.596 41.848 207.65 41.824 207.694 41.8C207.742 41.776 207.784 41.754 207.82 41.734C207.856 41.71 207.892 41.698 207.928 41.698C207.972 41.698 208.008 41.71 208.036 41.734C208.064 41.754 208.094 41.786 208.126 41.83L208.57 42.55C208.354 42.73 208.106 42.866 207.826 42.958C207.546 43.05 207.256 43.096 206.956 43.096ZM213.787 34.084V43H212.305V34.084H213.787ZM219.229 39.214C219.229 39.022 219.201 38.842 219.145 38.674C219.093 38.502 219.013 38.352 218.905 38.224C218.797 38.096 218.659 37.996 218.491 37.924C218.327 37.848 218.135 37.81 217.915 37.81C217.487 37.81 217.149 37.932 216.901 38.176C216.657 38.42 216.501 38.766 216.433 39.214H219.229ZM216.403 40.108C216.427 40.424 216.483 40.698 216.571 40.93C216.659 41.158 216.775 41.348 216.919 41.5C217.063 41.648 217.233 41.76 217.429 41.836C217.629 41.908 217.849 41.944 218.089 41.944C218.329 41.944 218.535 41.916 218.707 41.86C218.883 41.804 219.035 41.742 219.163 41.674C219.295 41.606 219.409 41.544 219.505 41.488C219.605 41.432 219.701 41.404 219.793 41.404C219.917 41.404 220.009 41.45 220.069 41.542L220.495 42.082C220.331 42.274 220.147 42.436 219.943 42.568C219.739 42.696 219.525 42.8 219.301 42.88C219.081 42.956 218.855 43.01 218.623 43.042C218.395 43.074 218.173 43.09 217.957 43.09C217.529 43.09 217.131 43.02 216.763 42.88C216.395 42.736 216.075 42.526 215.803 42.25C215.531 41.97 215.317 41.626 215.161 41.218C215.005 40.806 214.927 40.33 214.927 39.79C214.927 39.37 214.995 38.976 215.131 38.608C215.267 38.236 215.461 37.914 215.713 37.642C215.969 37.366 216.279 37.148 216.643 36.988C217.011 36.828 217.425 36.748 217.885 36.748C218.273 36.748 218.631 36.81 218.959 36.934C219.287 37.058 219.569 37.24 219.805 37.48C220.041 37.716 220.225 38.008 220.357 38.356C220.493 38.7 220.561 39.094 220.561 39.538C220.561 39.762 220.537 39.914 220.489 39.994C220.441 40.07 220.349 40.108 220.213 40.108H216.403ZM224.925 40.372C224.497 40.392 224.137 40.43 223.845 40.486C223.553 40.538 223.319 40.606 223.143 40.69C222.967 40.774 222.841 40.872 222.765 40.984C222.689 41.096 222.651 41.218 222.651 41.35C222.651 41.61 222.727 41.796 222.879 41.908C223.035 42.02 223.237 42.076 223.485 42.076C223.789 42.076 224.051 42.022 224.271 41.914C224.495 41.802 224.713 41.634 224.925 41.41V40.372ZM221.529 37.702C222.237 37.054 223.089 36.73 224.085 36.73C224.445 36.73 224.767 36.79 225.051 36.91C225.335 37.026 225.575 37.19 225.771 37.402C225.967 37.61 226.115 37.86 226.215 38.152C226.319 38.444 226.371 38.764 226.371 39.112V43H225.699C225.559 43 225.451 42.98 225.375 42.94C225.299 42.896 225.239 42.81 225.195 42.682L225.063 42.238C224.907 42.378 224.755 42.502 224.607 42.61C224.459 42.714 224.305 42.802 224.145 42.874C223.985 42.946 223.813 43 223.629 43.036C223.449 43.076 223.249 43.096 223.029 43.096C222.769 43.096 222.529 43.062 222.309 42.994C222.089 42.922 221.899 42.816 221.739 42.676C221.579 42.536 221.455 42.362 221.367 42.154C221.279 41.946 221.235 41.704 221.235 41.428C221.235 41.272 221.261 41.118 221.313 40.966C221.365 40.81 221.449 40.662 221.565 40.522C221.685 40.382 221.839 40.25 222.027 40.126C222.215 40.002 222.445 39.894 222.717 39.802C222.993 39.71 223.313 39.636 223.677 39.58C224.041 39.52 224.457 39.484 224.925 39.472V39.112C224.925 38.7 224.837 38.396 224.661 38.2C224.485 38 224.231 37.9 223.899 37.9C223.659 37.9 223.459 37.928 223.299 37.984C223.143 38.04 223.005 38.104 222.885 38.176C222.765 38.244 222.655 38.306 222.555 38.362C222.459 38.418 222.351 38.446 222.231 38.446C222.127 38.446 222.039 38.42 221.967 38.368C221.895 38.312 221.837 38.248 221.793 38.176L221.529 37.702ZM229.165 37.912C229.357 37.544 229.585 37.256 229.849 37.048C230.113 36.836 230.425 36.73 230.785 36.73C231.069 36.73 231.297 36.792 231.469 36.916L231.373 38.026C231.353 38.098 231.323 38.15 231.283 38.182C231.247 38.21 231.197 38.224 231.133 38.224C231.073 38.224 230.983 38.214 230.863 38.194C230.747 38.174 230.633 38.164 230.521 38.164C230.357 38.164 230.211 38.188 230.083 38.236C229.955 38.284 229.839 38.354 229.735 38.446C229.635 38.534 229.545 38.642 229.465 38.77C229.389 38.898 229.317 39.044 229.249 39.208V43H227.767V36.844H228.637C228.789 36.844 228.895 36.872 228.955 36.928C229.015 36.98 229.055 37.076 229.075 37.216L229.165 37.912ZM233.63 37.6C233.754 37.476 233.884 37.362 234.02 37.258C234.16 37.15 234.306 37.06 234.458 36.988C234.614 36.912 234.78 36.854 234.956 36.814C235.132 36.77 235.324 36.748 235.532 36.748C235.868 36.748 236.166 36.806 236.426 36.922C236.686 37.034 236.902 37.194 237.074 37.402C237.25 37.606 237.382 37.852 237.47 38.14C237.562 38.424 237.608 38.738 237.608 39.082V43H236.126V39.082C236.126 38.706 236.04 38.416 235.868 38.212C235.696 38.004 235.434 37.9 235.082 37.9C234.826 37.9 234.586 37.958 234.362 38.074C234.138 38.19 233.926 38.348 233.726 38.548V43H232.244V36.844H233.15C233.342 36.844 233.468 36.934 233.528 37.114L233.63 37.6ZM242.983 39.214C242.983 39.022 242.955 38.842 242.899 38.674C242.847 38.502 242.767 38.352 242.659 38.224C242.551 38.096 242.413 37.996 242.245 37.924C242.081 37.848 241.889 37.81 241.669 37.81C241.241 37.81 240.903 37.932 240.655 38.176C240.411 38.42 240.255 38.766 240.187 39.214H242.983ZM240.157 40.108C240.181 40.424 240.237 40.698 240.325 40.93C240.413 41.158 240.529 41.348 240.673 41.5C240.817 41.648 240.987 41.76 241.183 41.836C241.383 41.908 241.603 41.944 241.843 41.944C242.083 41.944 242.289 41.916 242.461 41.86C242.637 41.804 242.789 41.742 242.917 41.674C243.049 41.606 243.163 41.544 243.259 41.488C243.359 41.432 243.455 41.404 243.547 41.404C243.671 41.404 243.763 41.45 243.823 41.542L244.249 42.082C244.085 42.274 243.901 42.436 243.697 42.568C243.493 42.696 243.279 42.8 243.055 42.88C242.835 42.956 242.609 43.01 242.377 43.042C242.149 43.074 241.927 43.09 241.711 43.09C241.283 43.09 240.885 43.02 240.517 42.88C240.149 42.736 239.829 42.526 239.557 42.25C239.285 41.97 239.071 41.626 238.915 41.218C238.759 40.806 238.681 40.33 238.681 39.79C238.681 39.37 238.749 38.976 238.885 38.608C239.021 38.236 239.215 37.914 239.467 37.642C239.723 37.366 240.033 37.148 240.397 36.988C240.765 36.828 241.179 36.748 241.639 36.748C242.027 36.748 242.385 36.81 242.713 36.934C243.041 37.058 243.323 37.24 243.559 37.48C243.795 37.716 243.979 38.008 244.111 38.356C244.247 38.7 244.315 39.094 244.315 39.538C244.315 39.762 244.291 39.914 244.243 39.994C244.195 40.07 244.103 40.108 243.967 40.108H240.157ZM246.825 37.912C247.017 37.544 247.245 37.256 247.509 37.048C247.773 36.836 248.085 36.73 248.445 36.73C248.729 36.73 248.957 36.792 249.129 36.916L249.033 38.026C249.013 38.098 248.983 38.15 248.943 38.182C248.907 38.21 248.857 38.224 248.793 38.224C248.733 38.224 248.643 38.214 248.523 38.194C248.407 38.174 248.293 38.164 248.181 38.164C248.017 38.164 247.871 38.188 247.743 38.236C247.615 38.284 247.499 38.354 247.395 38.446C247.295 38.534 247.205 38.642 247.125 38.77C247.049 38.898 246.977 39.044 246.909 39.208V43H245.427V36.844H246.297C246.449 36.844 246.555 36.872 246.615 36.928C246.675 36.98 246.715 37.076 246.735 37.216L246.825 37.912ZM253.636 38.044C253.596 38.108 253.554 38.154 253.51 38.182C253.466 38.206 253.41 38.218 253.342 38.218C253.27 38.218 253.192 38.198 253.108 38.158C253.028 38.118 252.934 38.074 252.826 38.026C252.718 37.974 252.594 37.928 252.454 37.888C252.318 37.848 252.156 37.828 251.968 37.828C251.676 37.828 251.446 37.89 251.278 38.014C251.114 38.138 251.032 38.3 251.032 38.5C251.032 38.632 251.074 38.744 251.158 38.836C251.246 38.924 251.36 39.002 251.5 39.07C251.644 39.138 251.806 39.2 251.986 39.256C252.166 39.308 252.348 39.366 252.532 39.43C252.72 39.494 252.904 39.568 253.084 39.652C253.264 39.732 253.424 39.836 253.564 39.964C253.708 40.088 253.822 40.238 253.906 40.414C253.994 40.59 254.038 40.802 254.038 41.05C254.038 41.346 253.984 41.62 253.876 41.872C253.772 42.12 253.616 42.336 253.408 42.52C253.2 42.7 252.942 42.842 252.634 42.946C252.33 43.046 251.978 43.096 251.578 43.096C251.366 43.096 251.158 43.076 250.954 43.036C250.754 43 250.56 42.948 250.372 42.88C250.188 42.812 250.016 42.732 249.856 42.64C249.7 42.548 249.562 42.448 249.442 42.34L249.784 41.776C249.828 41.708 249.88 41.656 249.94 41.62C250 41.584 250.076 41.566 250.168 41.566C250.26 41.566 250.346 41.592 250.426 41.644C250.51 41.696 250.606 41.752 250.714 41.812C250.822 41.872 250.948 41.928 251.092 41.98C251.24 42.032 251.426 42.058 251.65 42.058C251.826 42.058 251.976 42.038 252.1 41.998C252.228 41.954 252.332 41.898 252.412 41.83C252.496 41.762 252.556 41.684 252.592 41.596C252.632 41.504 252.652 41.41 252.652 41.314C252.652 41.17 252.608 41.052 252.52 40.96C252.436 40.868 252.322 40.788 252.178 40.72C252.038 40.652 251.876 40.592 251.692 40.54C251.512 40.484 251.326 40.424 251.134 40.36C250.946 40.296 250.76 40.222 250.576 40.138C250.396 40.05 250.234 39.94 250.09 39.808C249.95 39.676 249.836 39.514 249.748 39.322C249.664 39.13 249.622 38.898 249.622 38.626C249.622 38.374 249.672 38.134 249.772 37.906C249.872 37.678 250.018 37.48 250.21 37.312C250.406 37.14 250.648 37.004 250.936 36.904C251.228 36.8 251.564 36.748 251.944 36.748C252.368 36.748 252.754 36.818 253.102 36.958C253.45 37.098 253.74 37.282 253.972 37.51L253.636 38.044ZM260.796 36.748C261.252 36.748 261.666 36.822 262.038 36.97C262.414 37.118 262.734 37.328 262.998 37.6C263.266 37.872 263.472 38.204 263.616 38.596C263.76 38.988 263.832 39.426 263.832 39.91C263.832 40.398 263.76 40.838 263.616 41.23C263.472 41.622 263.266 41.956 262.998 42.232C262.734 42.508 262.414 42.72 262.038 42.868C261.666 43.016 261.252 43.09 260.796 43.09C260.336 43.09 259.918 43.016 259.542 42.868C259.166 42.72 258.844 42.508 258.576 42.232C258.312 41.956 258.106 41.622 257.958 41.23C257.814 40.838 257.742 40.398 257.742 39.91C257.742 39.426 257.814 38.988 257.958 38.596C258.106 38.204 258.312 37.872 258.576 37.6C258.844 37.328 259.166 37.118 259.542 36.97C259.918 36.822 260.336 36.748 260.796 36.748ZM260.796 41.95C261.308 41.95 261.686 41.778 261.93 41.434C262.178 41.09 262.302 40.586 262.302 39.922C262.302 39.258 262.178 38.752 261.93 38.404C261.686 38.056 261.308 37.882 260.796 37.882C260.276 37.882 259.89 38.058 259.638 38.41C259.39 38.758 259.266 39.262 259.266 39.922C259.266 40.582 259.39 41.086 259.638 41.434C259.89 41.778 260.276 41.95 260.796 41.95ZM265.242 43V37.96L264.708 37.876C264.592 37.852 264.498 37.812 264.426 37.756C264.358 37.696 264.324 37.612 264.324 37.504V36.898H265.242V36.442C265.242 36.09 265.294 35.774 265.398 35.494C265.506 35.214 265.658 34.976 265.854 34.78C266.054 34.584 266.296 34.434 266.58 34.33C266.864 34.226 267.184 34.174 267.54 34.174C267.824 34.174 268.088 34.212 268.332 34.288L268.302 35.032C268.298 35.088 268.282 35.134 268.254 35.17C268.226 35.202 268.188 35.228 268.14 35.248C268.096 35.264 268.044 35.276 267.984 35.284C267.924 35.288 267.86 35.29 267.792 35.29C267.616 35.29 267.458 35.31 267.318 35.35C267.182 35.386 267.066 35.452 266.97 35.548C266.874 35.64 266.8 35.764 266.748 35.92C266.7 36.072 266.676 36.262 266.676 36.49V36.898H268.278V37.954H266.724V43H265.242ZM34.232 48.084V57H32.75V48.084H34.232ZM38.9606 54.372C38.5326 54.392 38.1726 54.43 37.8806 54.486C37.5886 54.538 37.3546 54.606 37.1786 54.69C37.0026 54.774 36.8766 54.872 36.8006 54.984C36.7246 55.096 36.6866 55.218 36.6866 55.35C36.6866 55.61 36.7626 55.796 36.9146 55.908C37.0706 56.02 37.2726 56.076 37.5206 56.076C37.8246 56.076 38.0866 56.022 38.3066 55.914C38.5306 55.802 38.7486 55.634 38.9606 55.41V54.372ZM35.5646 51.702C36.2726 51.054 37.1246 50.73 38.1206 50.73C38.4806 50.73 38.8026 50.79 39.0866 50.91C39.3706 51.026 39.6106 51.19 39.8066 51.402C40.0026 51.61 40.1506 51.86 40.2506 52.152C40.3546 52.444 40.4066 52.764 40.4066 53.112V57H39.7346C39.5946 57 39.4866 56.98 39.4106 56.94C39.3346 56.896 39.2746 56.81 39.2306 56.682L39.0986 56.238C38.9426 56.378 38.7906 56.502 38.6426 56.61C38.4946 56.714 38.3406 56.802 38.1806 56.874C38.0206 56.946 37.8486 57 37.6646 57.036C37.4846 57.076 37.2846 57.096 37.0646 57.096C36.8046 57.096 36.5646 57.062 36.3446 56.994C36.1246 56.922 35.9346 56.816 35.7746 56.676C35.6146 56.536 35.4906 56.362 35.4026 56.154C35.3146 55.946 35.2706 55.704 35.2706 55.428C35.2706 55.272 35.2966 55.118 35.3486 54.966C35.4006 54.81 35.4846 54.662 35.6006 54.522C35.7206 54.382 35.8746 54.25 36.0626 54.126C36.2506 54.002 36.4806 53.894 36.7526 53.802C37.0286 53.71 37.3486 53.636 37.7126 53.58C38.0766 53.52 38.4926 53.484 38.9606 53.472V53.112C38.9606 52.7 38.8726 52.396 38.6966 52.2C38.5206 52 38.2666 51.9 37.9346 51.9C37.6946 51.9 37.4946 51.928 37.3346 51.984C37.1786 52.04 37.0406 52.104 36.9206 52.176C36.8006 52.244 36.6906 52.306 36.5906 52.362C36.4946 52.418 36.3866 52.446 36.2666 52.446C36.1626 52.446 36.0746 52.42 36.0026 52.368C35.9306 52.312 35.8726 52.248 35.8286 52.176L35.5646 51.702ZM43.1883 51.6C43.3123 51.476 43.4423 51.362 43.5783 51.258C43.7183 51.15 43.8643 51.06 44.0163 50.988C44.1723 50.912 44.3383 50.854 44.5143 50.814C44.6903 50.77 44.8823 50.748 45.0903 50.748C45.4263 50.748 45.7243 50.806 45.9843 50.922C46.2443 51.034 46.4603 51.194 46.6323 51.402C46.8083 51.606 46.9403 51.852 47.0283 52.14C47.1203 52.424 47.1663 52.738 47.1663 53.082V57H45.6843V53.082C45.6843 52.706 45.5983 52.416 45.4263 52.212C45.2543 52.004 44.9923 51.9 44.6403 51.9C44.3843 51.9 44.1443 51.958 43.9203 52.074C43.6963 52.19 43.4843 52.348 43.2843 52.548V57H41.8023V50.844H42.7083C42.9003 50.844 43.0263 50.934 43.0863 51.114L43.1883 51.6ZM50.8258 53.772C51.0098 53.772 51.1698 53.748 51.3058 53.7C51.4418 53.648 51.5538 53.578 51.6418 53.49C51.7338 53.402 51.8018 53.296 51.8458 53.172C51.8938 53.048 51.9178 52.912 51.9178 52.764C51.9178 52.46 51.8258 52.22 51.6418 52.044C51.4618 51.864 51.1898 51.774 50.8258 51.774C50.4618 51.774 50.1878 51.864 50.0038 52.044C49.8238 52.22 49.7338 52.46 49.7338 52.764C49.7338 52.908 49.7558 53.042 49.7998 53.166C49.8478 53.29 49.9158 53.398 50.0038 53.49C50.0958 53.578 50.2098 53.648 50.3458 53.7C50.4858 53.748 50.6458 53.772 50.8258 53.772ZM52.4998 57.276C52.4998 57.156 52.4638 57.058 52.3918 56.982C52.3198 56.906 52.2218 56.848 52.0978 56.808C51.9738 56.764 51.8278 56.732 51.6598 56.712C51.4958 56.692 51.3198 56.678 51.1318 56.67C50.9478 56.658 50.7558 56.648 50.5558 56.64C50.3598 56.632 50.1678 56.616 49.9798 56.592C49.8158 56.684 49.6818 56.792 49.5778 56.916C49.4778 57.04 49.4277 57.184 49.4277 57.348C49.4277 57.456 49.4538 57.556 49.5058 57.648C49.5618 57.744 49.6478 57.826 49.7638 57.894C49.8838 57.962 50.0378 58.014 50.2258 58.05C50.4138 58.09 50.6438 58.11 50.9158 58.11C51.1918 58.11 51.4298 58.088 51.6298 58.044C51.8298 58.004 51.9938 57.946 52.1218 57.87C52.2538 57.798 52.3498 57.71 52.4098 57.606C52.4698 57.506 52.4998 57.396 52.4998 57.276ZM53.9758 51.054V51.606C53.9758 51.782 53.8698 51.89 53.6578 51.93L53.1058 52.032C53.1898 52.244 53.2318 52.476 53.2318 52.728C53.2318 53.032 53.1698 53.308 53.0458 53.556C52.9258 53.8 52.7578 54.008 52.5418 54.18C52.3258 54.352 52.0698 54.486 51.7738 54.582C51.4818 54.674 51.1658 54.72 50.8258 54.72C50.7058 54.72 50.5898 54.714 50.4778 54.702C50.3658 54.69 50.2558 54.674 50.1478 54.654C49.9558 54.77 49.8598 54.9 49.8598 55.044C49.8598 55.168 49.9158 55.26 50.0278 55.32C50.1438 55.376 50.2958 55.416 50.4838 55.44C50.6718 55.464 50.8858 55.48 51.1258 55.488C51.3658 55.492 51.6118 55.504 51.8638 55.524C52.1158 55.544 52.3618 55.58 52.6018 55.632C52.8418 55.68 53.0558 55.758 53.2438 55.866C53.4318 55.974 53.5818 56.122 53.6938 56.31C53.8098 56.494 53.8678 56.732 53.8678 57.024C53.8678 57.296 53.7998 57.56 53.6638 57.816C53.5318 58.072 53.3378 58.3 53.0818 58.5C52.8298 58.7 52.5178 58.86 52.1458 58.98C51.7778 59.104 51.3578 59.166 50.8858 59.166C50.4218 59.166 50.0178 59.12 49.6738 59.028C49.3298 58.94 49.0438 58.82 48.8158 58.668C48.5878 58.52 48.4178 58.348 48.3058 58.152C48.1938 57.956 48.1378 57.752 48.1378 57.54C48.1378 57.252 48.2238 57.012 48.3958 56.82C48.5718 56.624 48.8118 56.468 49.1158 56.352C48.9518 56.268 48.8218 56.156 48.7257 56.016C48.6298 55.876 48.5818 55.692 48.5818 55.464C48.5818 55.372 48.5978 55.278 48.6298 55.182C48.6658 55.082 48.7158 54.984 48.7798 54.888C48.8478 54.792 48.9318 54.702 49.0318 54.618C49.1318 54.53 49.2498 54.452 49.3857 54.384C49.0738 54.216 48.8278 53.992 48.6478 53.712C48.4718 53.432 48.3838 53.104 48.3838 52.728C48.3838 52.424 48.4438 52.15 48.5638 51.906C48.6878 51.658 48.8578 51.448 49.0738 51.276C49.2938 51.1 49.5518 50.966 49.8478 50.874C50.1478 50.782 50.4738 50.736 50.8258 50.736C51.0898 50.736 51.3378 50.764 51.5698 50.82C51.8018 50.872 52.0138 50.95 52.2058 51.054H53.9758ZM60.2196 50.844V57H59.3136C59.1176 57 58.9936 56.91 58.9416 56.73L58.8396 56.238C58.5876 56.494 58.3096 56.702 58.0056 56.862C57.7016 57.018 57.3436 57.096 56.9316 57.096C56.5956 57.096 56.2976 57.04 56.0376 56.928C55.7816 56.812 55.5656 56.65 55.3896 56.442C55.2136 56.234 55.0796 55.988 54.9876 55.704C54.8996 55.416 54.8556 55.1 54.8556 54.756V50.844H56.3376V54.756C56.3376 55.132 56.4236 55.424 56.5956 55.632C56.7716 55.836 57.0336 55.938 57.3816 55.938C57.6376 55.938 57.8776 55.882 58.1016 55.77C58.3256 55.654 58.5376 55.496 58.7376 55.296V50.844H60.2196ZM64.941 54.372C64.513 54.392 64.153 54.43 63.861 54.486C63.569 54.538 63.335 54.606 63.159 54.69C62.983 54.774 62.857 54.872 62.781 54.984C62.705 55.096 62.667 55.218 62.667 55.35C62.667 55.61 62.743 55.796 62.895 55.908C63.051 56.02 63.253 56.076 63.501 56.076C63.805 56.076 64.067 56.022 64.287 55.914C64.511 55.802 64.729 55.634 64.941 55.41V54.372ZM61.545 51.702C62.253 51.054 63.105 50.73 64.101 50.73C64.461 50.73 64.783 50.79 65.067 50.91C65.351 51.026 65.591 51.19 65.787 51.402C65.983 51.61 66.131 51.86 66.231 52.152C66.335 52.444 66.387 52.764 66.387 53.112V57H65.715C65.575 57 65.467 56.98 65.391 56.94C65.315 56.896 65.255 56.81 65.211 56.682L65.079 56.238C64.923 56.378 64.771 56.502 64.623 56.61C64.475 56.714 64.321 56.802 64.161 56.874C64.001 56.946 63.829 57 63.645 57.036C63.465 57.076 63.265 57.096 63.045 57.096C62.785 57.096 62.545 57.062 62.325 56.994C62.105 56.922 61.915 56.816 61.755 56.676C61.595 56.536 61.471 56.362 61.383 56.154C61.295 55.946 61.251 55.704 61.251 55.428C61.251 55.272 61.277 55.118 61.329 54.966C61.381 54.81 61.465 54.662 61.581 54.522C61.701 54.382 61.855 54.25 62.043 54.126C62.231 54.002 62.461 53.894 62.733 53.802C63.009 53.71 63.329 53.636 63.693 53.58C64.057 53.52 64.473 53.484 64.941 53.472V53.112C64.941 52.7 64.853 52.396 64.677 52.2C64.501 52 64.247 51.9 63.915 51.9C63.675 51.9 63.475 51.928 63.315 51.984C63.159 52.04 63.021 52.104 62.901 52.176C62.781 52.244 62.671 52.306 62.571 52.362C62.475 52.418 62.367 52.446 62.247 52.446C62.143 52.446 62.055 52.42 61.983 52.368C61.911 52.312 61.853 52.248 61.809 52.176L61.545 51.702ZM70.0328 53.772C70.2168 53.772 70.3768 53.748 70.5128 53.7C70.6488 53.648 70.7608 53.578 70.8488 53.49C70.9408 53.402 71.0088 53.296 71.0528 53.172C71.1008 53.048 71.1248 52.912 71.1248 52.764C71.1248 52.46 71.0328 52.22 70.8488 52.044C70.6688 51.864 70.3968 51.774 70.0328 51.774C69.6688 51.774 69.3948 51.864 69.2108 52.044C69.0308 52.22 68.9408 52.46 68.9408 52.764C68.9408 52.908 68.9628 53.042 69.0068 53.166C69.0548 53.29 69.1228 53.398 69.2108 53.49C69.3028 53.578 69.4168 53.648 69.5528 53.7C69.6928 53.748 69.8528 53.772 70.0328 53.772ZM71.7068 57.276C71.7068 57.156 71.6708 57.058 71.5988 56.982C71.5268 56.906 71.4288 56.848 71.3048 56.808C71.1808 56.764 71.0348 56.732 70.8668 56.712C70.7028 56.692 70.5268 56.678 70.3388 56.67C70.1548 56.658 69.9628 56.648 69.7628 56.64C69.5668 56.632 69.3748 56.616 69.1868 56.592C69.0228 56.684 68.8888 56.792 68.7848 56.916C68.6848 57.04 68.6348 57.184 68.6348 57.348C68.6348 57.456 68.6608 57.556 68.7128 57.648C68.7688 57.744 68.8548 57.826 68.9708 57.894C69.0908 57.962 69.2448 58.014 69.4328 58.05C69.6208 58.09 69.8508 58.11 70.1228 58.11C70.3988 58.11 70.6368 58.088 70.8368 58.044C71.0368 58.004 71.2008 57.946 71.3288 57.87C71.4608 57.798 71.5568 57.71 71.6168 57.606C71.6768 57.506 71.7068 57.396 71.7068 57.276ZM73.1828 51.054V51.606C73.1828 51.782 73.0768 51.89 72.8648 51.93L72.3128 52.032C72.3968 52.244 72.4388 52.476 72.4388 52.728C72.4388 53.032 72.3768 53.308 72.2528 53.556C72.1328 53.8 71.9648 54.008 71.7488 54.18C71.5328 54.352 71.2768 54.486 70.9808 54.582C70.6888 54.674 70.3728 54.72 70.0328 54.72C69.9128 54.72 69.7968 54.714 69.6848 54.702C69.5728 54.69 69.4628 54.674 69.3548 54.654C69.1628 54.77 69.0668 54.9 69.0668 55.044C69.0668 55.168 69.1228 55.26 69.2348 55.32C69.3508 55.376 69.5028 55.416 69.6908 55.44C69.8788 55.464 70.0928 55.48 70.3328 55.488C70.5728 55.492 70.8188 55.504 71.0708 55.524C71.3228 55.544 71.5688 55.58 71.8088 55.632C72.0488 55.68 72.2628 55.758 72.4508 55.866C72.6388 55.974 72.7888 56.122 72.9008 56.31C73.0168 56.494 73.0748 56.732 73.0748 57.024C73.0748 57.296 73.0068 57.56 72.8708 57.816C72.7388 58.072 72.5448 58.3 72.2888 58.5C72.0368 58.7 71.7248 58.86 71.3528 58.98C70.9848 59.104 70.5648 59.166 70.0928 59.166C69.6288 59.166 69.2248 59.12 68.8808 59.028C68.5368 58.94 68.2508 58.82 68.0228 58.668C67.7948 58.52 67.6248 58.348 67.5128 58.152C67.4008 57.956 67.3448 57.752 67.3448 57.54C67.3448 57.252 67.4308 57.012 67.6028 56.82C67.7788 56.624 68.0188 56.468 68.3228 56.352C68.1588 56.268 68.0288 56.156 67.9328 56.016C67.8368 55.876 67.7888 55.692 67.7888 55.464C67.7888 55.372 67.8048 55.278 67.8368 55.182C67.8728 55.082 67.9228 54.984 67.9868 54.888C68.0548 54.792 68.1388 54.702 68.2388 54.618C68.3388 54.53 68.4568 54.452 68.5928 54.384C68.2808 54.216 68.0348 53.992 67.8548 53.712C67.6788 53.432 67.5908 53.104 67.5908 52.728C67.5908 52.424 67.6508 52.15 67.7708 51.906C67.8948 51.658 68.0648 51.448 68.2808 51.276C68.5008 51.1 68.7588 50.966 69.0548 50.874C69.3548 50.782 69.6808 50.736 70.0328 50.736C70.2968 50.736 70.5448 50.764 70.7768 50.82C71.0088 50.872 71.2208 50.95 71.4128 51.054H73.1828ZM77.9832 53.214C77.9832 53.022 77.9552 52.842 77.8992 52.674C77.8472 52.502 77.7672 52.352 77.6592 52.224C77.5512 52.096 77.4132 51.996 77.2452 51.924C77.0812 51.848 76.8892 51.81 76.6692 51.81C76.2412 51.81 75.9032 51.932 75.6552 52.176C75.4112 52.42 75.2552 52.766 75.1872 53.214H77.9832ZM75.1572 54.108C75.1812 54.424 75.2372 54.698 75.3252 54.93C75.4132 55.158 75.5292 55.348 75.6732 55.5C75.8172 55.648 75.9872 55.76 76.1832 55.836C76.3832 55.908 76.6032 55.944 76.8432 55.944C77.0832 55.944 77.2892 55.916 77.4612 55.86C77.6372 55.804 77.7892 55.742 77.9172 55.674C78.0492 55.606 78.1632 55.544 78.2592 55.488C78.3592 55.432 78.4552 55.404 78.5472 55.404C78.6712 55.404 78.7632 55.45 78.8232 55.542L79.2492 56.082C79.0852 56.274 78.9012 56.436 78.6972 56.568C78.4932 56.696 78.2792 56.8 78.0552 56.88C77.8352 56.956 77.6092 57.01 77.3772 57.042C77.1492 57.074 76.9272 57.09 76.7112 57.09C76.2832 57.09 75.8852 57.02 75.5172 56.88C75.1492 56.736 74.8292 56.526 74.5572 56.25C74.2852 55.97 74.0712 55.626 73.9152 55.218C73.7592 54.806 73.6812 54.33 73.6812 53.79C73.6812 53.37 73.7492 52.976 73.8852 52.608C74.0212 52.236 74.2152 51.914 74.4672 51.642C74.7232 51.366 75.0332 51.148 75.3972 50.988C75.7652 50.828 76.1792 50.748 76.6392 50.748C77.0272 50.748 77.3852 50.81 77.7132 50.934C78.0412 51.058 78.3232 51.24 78.5592 51.48C78.7952 51.716 78.9792 52.008 79.1112 52.356C79.2472 52.7 79.3152 53.094 79.3152 53.538C79.3152 53.762 79.2912 53.914 79.2432 53.994C79.1952 54.07 79.1032 54.108 78.9672 54.108H75.1572ZM84.1833 52.044C84.1433 52.108 84.1013 52.154 84.0573 52.182C84.0133 52.206 83.9573 52.218 83.8893 52.218C83.8173 52.218 83.7393 52.198 83.6553 52.158C83.5753 52.118 83.4813 52.074 83.3733 52.026C83.2653 51.974 83.1413 51.928 83.0013 51.888C82.8653 51.848 82.7033 51.828 82.5153 51.828C82.2233 51.828 81.9933 51.89 81.8253 52.014C81.6613 52.138 81.5793 52.3 81.5793 52.5C81.5793 52.632 81.6213 52.744 81.7053 52.836C81.7933 52.924 81.9073 53.002 82.0473 53.07C82.1913 53.138 82.3533 53.2 82.5333 53.256C82.7133 53.308 82.8953 53.366 83.0793 53.43C83.2673 53.494 83.4513 53.568 83.6313 53.652C83.8113 53.732 83.9713 53.836 84.1113 53.964C84.2553 54.088 84.3693 54.238 84.4533 54.414C84.5413 54.59 84.5853 54.802 84.5853 55.05C84.5853 55.346 84.5313 55.62 84.4233 55.872C84.3193 56.12 84.1633 56.336 83.9553 56.52C83.7473 56.7 83.4893 56.842 83.1813 56.946C82.8773 57.046 82.5253 57.096 82.1253 57.096C81.9133 57.096 81.7053 57.076 81.5013 57.036C81.3013 57 81.1073 56.948 80.9193 56.88C80.7353 56.812 80.5633 56.732 80.4033 56.64C80.2473 56.548 80.1093 56.448 79.9893 56.34L80.3313 55.776C80.3753 55.708 80.4273 55.656 80.4873 55.62C80.5473 55.584 80.6233 55.566 80.7153 55.566C80.8073 55.566 80.8933 55.592 80.9733 55.644C81.0573 55.696 81.1533 55.752 81.2613 55.812C81.3693 55.872 81.4953 55.928 81.6393 55.98C81.7873 56.032 81.9733 56.058 82.1973 56.058C82.3733 56.058 82.5233 56.038 82.6473 55.998C82.7753 55.954 82.8793 55.898 82.9593 55.83C83.0433 55.762 83.1033 55.684 83.1393 55.596C83.1793 55.504 83.1993 55.41 83.1993 55.314C83.1993 55.17 83.1553 55.052 83.0673 54.96C82.9833 54.868 82.8693 54.788 82.7253 54.72C82.5853 54.652 82.4233 54.592 82.2393 54.54C82.0593 54.484 81.8733 54.424 81.6813 54.36C81.4933 54.296 81.3073 54.222 81.1233 54.138C80.9433 54.05 80.7813 53.94 80.6373 53.808C80.4973 53.676 80.3833 53.514 80.2953 53.322C80.2113 53.13 80.1693 52.898 80.1693 52.626C80.1693 52.374 80.2193 52.134 80.3193 51.906C80.4193 51.678 80.5653 51.48 80.7573 51.312C80.9533 51.14 81.1953 51.004 81.4833 50.904C81.7753 50.8 82.1113 50.748 82.4913 50.748C82.9153 50.748 83.3013 50.818 83.6493 50.958C83.9973 51.098 84.2873 51.282 84.5193 51.51L84.1833 52.044ZM85.6768 58.47C85.6048 58.41 85.5688 58.336 85.5688 58.248C85.5688 58.216 85.5788 58.18 85.5988 58.14C85.6228 58.1 85.6508 58.064 85.6828 58.032C85.7268 57.984 85.7808 57.924 85.8448 57.852C85.9088 57.784 85.9728 57.704 86.0368 57.612C86.1008 57.524 86.1588 57.426 86.2108 57.318C86.2668 57.214 86.3088 57.102 86.3368 56.982C86.2088 56.982 86.0928 56.96 85.9888 56.916C85.8848 56.868 85.7948 56.804 85.7188 56.724C85.6468 56.644 85.5888 56.55 85.5448 56.442C85.5048 56.334 85.4848 56.216 85.4848 56.088C85.4848 55.976 85.5048 55.872 85.5448 55.776C85.5888 55.676 85.6488 55.59 85.7248 55.518C85.8008 55.442 85.8928 55.384 86.0008 55.344C86.1088 55.3 86.2268 55.278 86.3548 55.278C86.5068 55.278 86.6388 55.306 86.7508 55.362C86.8668 55.414 86.9608 55.488 87.0328 55.584C87.1088 55.676 87.1648 55.784 87.2008 55.908C87.2408 56.028 87.2608 56.156 87.2608 56.292C87.2608 56.484 87.2308 56.686 87.1708 56.898C87.1148 57.11 87.0308 57.322 86.9188 57.534C86.8068 57.746 86.6668 57.952 86.4988 58.152C86.3348 58.352 86.1468 58.536 85.9348 58.704L85.6768 58.47ZM92.9132 55.404C93.0812 55.608 93.2632 55.752 93.4592 55.836C93.6592 55.92 93.8752 55.962 94.1072 55.962C94.3312 55.962 94.5332 55.92 94.7132 55.836C94.8932 55.752 95.0452 55.624 95.1692 55.452C95.2972 55.28 95.3952 55.064 95.4632 54.804C95.5312 54.54 95.5652 54.23 95.5652 53.874C95.5652 53.514 95.5352 53.21 95.4752 52.962C95.4192 52.71 95.3372 52.506 95.2292 52.35C95.1212 52.194 94.9892 52.08 94.8332 52.008C94.6812 51.936 94.5072 51.9 94.3112 51.9C94.0032 51.9 93.7412 51.966 93.5252 52.098C93.3092 52.226 93.1052 52.408 92.9132 52.644V55.404ZM92.8352 51.684C93.0872 51.4 93.3732 51.17 93.6932 50.994C94.0132 50.818 94.3892 50.73 94.8212 50.73C95.1572 50.73 95.4632 50.8 95.7392 50.94C96.0192 51.08 96.2592 51.284 96.4592 51.552C96.6632 51.816 96.8192 52.144 96.9272 52.536C97.0392 52.924 97.0952 53.37 97.0952 53.874C97.0952 54.334 97.0332 54.76 96.9092 55.152C96.7852 55.544 96.6072 55.884 96.3752 56.172C96.1472 56.46 95.8692 56.686 95.5412 56.85C95.2172 57.01 94.8532 57.09 94.4492 57.09C94.1052 57.09 93.8112 57.038 93.5672 56.934C93.3232 56.826 93.1052 56.678 92.9132 56.49V59.01H91.4312V50.844H92.3372C92.5292 50.844 92.6552 50.934 92.7152 51.114L92.8352 51.684ZM101.504 54.372C101.076 54.392 100.716 54.43 100.424 54.486C100.132 54.538 99.8975 54.606 99.7215 54.69C99.5455 54.774 99.4195 54.872 99.3435 54.984C99.2675 55.096 99.2295 55.218 99.2295 55.35C99.2295 55.61 99.3055 55.796 99.4575 55.908C99.6135 56.02 99.8155 56.076 100.064 56.076C100.368 56.076 100.63 56.022 100.85 55.914C101.074 55.802 101.292 55.634 101.504 55.41V54.372ZM98.1075 51.702C98.8155 51.054 99.6675 50.73 100.664 50.73C101.024 50.73 101.346 50.79 101.63 50.91C101.914 51.026 102.154 51.19 102.35 51.402C102.546 51.61 102.694 51.86 102.794 52.152C102.898 52.444 102.95 52.764 102.95 53.112V57H102.278C102.138 57 102.03 56.98 101.954 56.94C101.878 56.896 101.818 56.81 101.774 56.682L101.642 56.238C101.486 56.378 101.334 56.502 101.186 56.61C101.038 56.714 100.884 56.802 100.724 56.874C100.564 56.946 100.392 57 100.208 57.036C100.028 57.076 99.8275 57.096 99.6075 57.096C99.3475 57.096 99.1075 57.062 98.8875 56.994C98.6675 56.922 98.4775 56.816 98.3175 56.676C98.1575 56.536 98.0335 56.362 97.9455 56.154C97.8575 55.946 97.8135 55.704 97.8135 55.428C97.8135 55.272 97.8395 55.118 97.8915 54.966C97.9435 54.81 98.0275 54.662 98.1435 54.522C98.2635 54.382 98.4175 54.25 98.6055 54.126C98.7935 54.002 99.0235 53.894 99.2955 53.802C99.5715 53.71 99.8915 53.636 100.256 53.58C100.62 53.52 101.036 53.484 101.504 53.472V53.112C101.504 52.7 101.416 52.396 101.24 52.2C101.064 52 100.81 51.9 100.478 51.9C100.238 51.9 100.038 51.928 99.8775 51.984C99.7215 52.04 99.5835 52.104 99.4635 52.176C99.3435 52.244 99.2335 52.306 99.1335 52.362C99.0375 52.418 98.9295 52.446 98.8095 52.446C98.7055 52.446 98.6175 52.42 98.5455 52.368C98.4735 52.312 98.4155 52.248 98.3715 52.176L98.1075 51.702ZM105.743 51.912C105.935 51.544 106.163 51.256 106.427 51.048C106.691 50.836 107.003 50.73 107.363 50.73C107.647 50.73 107.875 50.792 108.047 50.916L107.951 52.026C107.931 52.098 107.901 52.15 107.861 52.182C107.825 52.21 107.775 52.224 107.711 52.224C107.651 52.224 107.561 52.214 107.441 52.194C107.325 52.174 107.211 52.164 107.099 52.164C106.935 52.164 106.789 52.188 106.661 52.236C106.533 52.284 106.417 52.354 106.313 52.446C106.213 52.534 106.123 52.642 106.043 52.77C105.967 52.898 105.895 53.044 105.827 53.208V57H104.345V50.844H105.215C105.367 50.844 105.473 50.872 105.533 50.928C105.593 50.98 105.633 51.076 105.653 51.216L105.743 51.912ZM115.032 57H113.55V51.954H110.694V55.29C110.694 55.482 110.74 55.632 110.832 55.74C110.928 55.848 111.058 55.902 111.222 55.902C111.314 55.902 111.39 55.892 111.45 55.872C111.514 55.848 111.568 55.824 111.612 55.8C111.66 55.776 111.702 55.754 111.738 55.734C111.774 55.71 111.81 55.698 111.846 55.698C111.89 55.698 111.926 55.71 111.954 55.734C111.982 55.754 112.012 55.786 112.044 55.83L112.488 56.55C112.272 56.73 112.024 56.866 111.744 56.958C111.464 57.05 111.174 57.096 110.874 57.096C110.338 57.096 109.926 56.946 109.638 56.646C109.354 56.342 109.212 55.924 109.212 55.392V51.954H108.582C108.502 51.954 108.434 51.928 108.378 51.876C108.322 51.824 108.294 51.746 108.294 51.642V51.054L109.284 50.886L109.596 49.212C109.616 49.132 109.654 49.07 109.71 49.026C109.766 48.982 109.838 48.96 109.926 48.96H110.694V50.898H115.032V57ZM115.29 49.026C115.29 49.154 115.264 49.276 115.212 49.392C115.16 49.504 115.09 49.602 115.002 49.686C114.918 49.77 114.816 49.838 114.696 49.89C114.58 49.938 114.456 49.962 114.324 49.962C114.196 49.962 114.076 49.938 113.964 49.89C113.852 49.838 113.754 49.77 113.67 49.686C113.586 49.602 113.518 49.504 113.466 49.392C113.418 49.276 113.394 49.154 113.394 49.026C113.394 48.894 113.418 48.772 113.466 48.66C113.518 48.544 113.586 48.444 113.67 48.36C113.754 48.272 113.852 48.204 113.964 48.156C114.076 48.104 114.196 48.078 114.324 48.078C114.456 48.078 114.58 48.104 114.696 48.156C114.816 48.204 114.918 48.272 115.002 48.36C115.09 48.444 115.16 48.544 115.212 48.66C115.264 48.772 115.29 48.894 115.29 49.026ZM120.955 52.146C120.911 52.202 120.867 52.246 120.823 52.278C120.783 52.31 120.723 52.326 120.643 52.326C120.567 52.326 120.493 52.304 120.421 52.26C120.349 52.212 120.263 52.16 120.163 52.104C120.063 52.044 119.943 51.992 119.803 51.948C119.667 51.9 119.497 51.876 119.293 51.876C119.033 51.876 118.805 51.924 118.609 52.02C118.413 52.112 118.249 52.246 118.117 52.422C117.989 52.598 117.893 52.812 117.829 53.064C117.765 53.312 117.733 53.594 117.733 53.91C117.733 54.238 117.767 54.53 117.835 54.786C117.907 55.042 118.009 55.258 118.141 55.434C118.273 55.606 118.433 55.738 118.621 55.83C118.809 55.918 119.021 55.962 119.257 55.962C119.493 55.962 119.683 55.934 119.827 55.878C119.975 55.818 120.099 55.754 120.199 55.686C120.299 55.614 120.385 55.55 120.457 55.494C120.533 55.434 120.617 55.404 120.709 55.404C120.829 55.404 120.919 55.45 120.979 55.542L121.405 56.082C121.241 56.274 121.063 56.436 120.871 56.568C120.679 56.696 120.479 56.8 120.271 56.88C120.067 56.956 119.855 57.01 119.635 57.042C119.419 57.074 119.203 57.09 118.987 57.09C118.607 57.09 118.249 57.02 117.913 56.88C117.577 56.736 117.283 56.528 117.031 56.256C116.779 55.984 116.579 55.652 116.431 55.26C116.287 54.864 116.215 54.414 116.215 53.91C116.215 53.458 116.279 53.04 116.407 52.656C116.539 52.268 116.731 51.934 116.983 51.654C117.235 51.37 117.547 51.148 117.919 50.988C118.291 50.828 118.719 50.748 119.202 50.748C119.663 50.748 120.065 50.822 120.409 50.97C120.757 51.118 121.069 51.33 121.345 51.606L120.955 52.146ZM127.638 50.844V57H126.732C126.536 57 126.412 56.91 126.36 56.73L126.258 56.238C126.006 56.494 125.728 56.702 125.424 56.862C125.12 57.018 124.762 57.096 124.35 57.096C124.014 57.096 123.716 57.04 123.456 56.928C123.2 56.812 122.984 56.65 122.808 56.442C122.632 56.234 122.498 55.988 122.406 55.704C122.318 55.416 122.274 55.1 122.274 54.756V50.844H123.756V54.756C123.756 55.132 123.842 55.424 124.014 55.632C124.19 55.836 124.452 55.938 124.8 55.938C125.056 55.938 125.296 55.882 125.52 55.77C125.744 55.654 125.956 55.496 126.156 55.296V50.844H127.638ZM130.607 48.084V57H129.125V48.084H130.607ZM135.336 54.372C134.908 54.392 134.548 54.43 134.256 54.486C133.964 54.538 133.73 54.606 133.554 54.69C133.378 54.774 133.252 54.872 133.176 54.984C133.1 55.096 133.062 55.218 133.062 55.35C133.062 55.61 133.138 55.796 133.29 55.908C133.446 56.02 133.648 56.076 133.896 56.076C134.2 56.076 134.462 56.022 134.682 55.914C134.906 55.802 135.124 55.634 135.336 55.41V54.372ZM131.94 51.702C132.648 51.054 133.5 50.73 134.496 50.73C134.856 50.73 135.178 50.79 135.462 50.91C135.746 51.026 135.986 51.19 136.182 51.402C136.378 51.61 136.526 51.86 136.626 52.152C136.73 52.444 136.782 52.764 136.782 53.112V57H136.11C135.97 57 135.862 56.98 135.786 56.94C135.71 56.896 135.65 56.81 135.606 56.682L135.474 56.238C135.318 56.378 135.166 56.502 135.018 56.61C134.87 56.714 134.716 56.802 134.556 56.874C134.396 56.946 134.224 57 134.04 57.036C133.86 57.076 133.66 57.096 133.44 57.096C133.18 57.096 132.94 57.062 132.72 56.994C132.5 56.922 132.31 56.816 132.15 56.676C131.99 56.536 131.866 56.362 131.778 56.154C131.69 55.946 131.646 55.704 131.646 55.428C131.646 55.272 131.672 55.118 131.724 54.966C131.776 54.81 131.86 54.662 131.976 54.522C132.096 54.382 132.25 54.25 132.438 54.126C132.626 54.002 132.856 53.894 133.128 53.802C133.404 53.71 133.724 53.636 134.088 53.58C134.452 53.52 134.868 53.484 135.336 53.472V53.112C135.336 52.7 135.248 52.396 135.072 52.2C134.896 52 134.642 51.9 134.31 51.9C134.07 51.9 133.87 51.928 133.71 51.984C133.554 52.04 133.416 52.104 133.296 52.176C133.176 52.244 133.066 52.306 132.966 52.362C132.87 52.418 132.762 52.446 132.642 52.446C132.538 52.446 132.45 52.42 132.378 52.368C132.306 52.312 132.248 52.248 132.204 52.176L131.94 51.702ZM139.575 51.912C139.767 51.544 139.995 51.256 140.259 51.048C140.523 50.836 140.835 50.73 141.195 50.73C141.479 50.73 141.707 50.792 141.879 50.916L141.783 52.026C141.763 52.098 141.733 52.15 141.693 52.182C141.657 52.21 141.607 52.224 141.543 52.224C141.483 52.224 141.393 52.214 141.273 52.194C141.157 52.174 141.043 52.164 140.931 52.164C140.767 52.164 140.621 52.188 140.493 52.236C140.365 52.284 140.249 52.354 140.145 52.446C140.045 52.534 139.955 52.642 139.875 52.77C139.799 52.898 139.727 53.044 139.659 53.208V57H138.177V50.844H139.047C139.199 50.844 139.305 50.872 139.365 50.928C139.425 50.98 139.465 51.076 139.485 51.216L139.575 51.912ZM144.154 48.084V57H142.672V48.084H144.154ZM151.222 50.844L147.868 58.692C147.824 58.796 147.766 58.874 147.694 58.926C147.626 58.982 147.52 59.01 147.376 59.01H146.272L147.424 56.538L144.934 50.844H146.236C146.352 50.844 146.442 50.872 146.506 50.928C146.574 50.984 146.624 51.048 146.656 51.12L147.964 54.312C148.008 54.42 148.044 54.528 148.072 54.636C148.104 54.744 148.134 54.854 148.162 54.966C148.198 54.854 148.234 54.744 148.27 54.636C148.306 54.524 148.346 54.414 148.39 54.306L149.626 51.12C149.658 51.04 149.71 50.974 149.782 50.922C149.858 50.87 149.942 50.844 150.034 50.844H151.222ZM156.426 49.608V52.014H159.462V53.256H156.426V55.71H160.278V57H154.806V48.324H160.278V49.608H156.426ZM162.731 51.6C162.855 51.476 162.985 51.362 163.121 51.258C163.261 51.15 163.407 51.06 163.559 50.988C163.715 50.912 163.881 50.854 164.057 50.814C164.233 50.77 164.425 50.748 164.633 50.748C164.969 50.748 165.267 50.806 165.527 50.922C165.787 51.034 166.003 51.194 166.175 51.402C166.351 51.606 166.483 51.852 166.571 52.14C166.663 52.424 166.709 52.738 166.709 53.082V57H165.227V53.082C165.227 52.706 165.141 52.416 164.969 52.212C164.797 52.004 164.535 51.9 164.183 51.9C163.927 51.9 163.687 51.958 163.463 52.074C163.239 52.19 163.027 52.348 162.827 52.548V57H161.345V50.844H162.251C162.443 50.844 162.569 50.934 162.629 51.114L162.731 51.6ZM170.369 53.772C170.553 53.772 170.713 53.748 170.849 53.7C170.985 53.648 171.097 53.578 171.185 53.49C171.277 53.402 171.345 53.296 171.389 53.172C171.437 53.048 171.461 52.912 171.461 52.764C171.461 52.46 171.369 52.22 171.185 52.044C171.005 51.864 170.733 51.774 170.369 51.774C170.005 51.774 169.731 51.864 169.547 52.044C169.367 52.22 169.277 52.46 169.277 52.764C169.277 52.908 169.299 53.042 169.343 53.166C169.391 53.29 169.459 53.398 169.547 53.49C169.639 53.578 169.753 53.648 169.889 53.7C170.029 53.748 170.189 53.772 170.369 53.772ZM172.043 57.276C172.043 57.156 172.007 57.058 171.935 56.982C171.863 56.906 171.765 56.848 171.641 56.808C171.517 56.764 171.371 56.732 171.203 56.712C171.039 56.692 170.863 56.678 170.675 56.67C170.491 56.658 170.299 56.648 170.099 56.64C169.903 56.632 169.711 56.616 169.523 56.592C169.359 56.684 169.225 56.792 169.121 56.916C169.021 57.04 168.971 57.184 168.971 57.348C168.971 57.456 168.997 57.556 169.049 57.648C169.105 57.744 169.191 57.826 169.307 57.894C169.427 57.962 169.581 58.014 169.769 58.05C169.957 58.09 170.187 58.11 170.459 58.11C170.735 58.11 170.973 58.088 171.173 58.044C171.373 58.004 171.537 57.946 171.665 57.87C171.797 57.798 171.893 57.71 171.953 57.606C172.013 57.506 172.043 57.396 172.043 57.276ZM173.519 51.054V51.606C173.519 51.782 173.413 51.89 173.201 51.93L172.649 52.032C172.733 52.244 172.775 52.476 172.775 52.728C172.775 53.032 172.713 53.308 172.589 53.556C172.469 53.8 172.301 54.008 172.085 54.18C171.869 54.352 171.613 54.486 171.317 54.582C171.025 54.674 170.709 54.72 170.369 54.72C170.249 54.72 170.133 54.714 170.021 54.702C169.909 54.69 169.799 54.674 169.691 54.654C169.499 54.77 169.403 54.9 169.403 55.044C169.403 55.168 169.459 55.26 169.571 55.32C169.687 55.376 169.839 55.416 170.027 55.44C170.215 55.464 170.429 55.48 170.669 55.488C170.909 55.492 171.155 55.504 171.407 55.524C171.659 55.544 171.905 55.58 172.145 55.632C172.385 55.68 172.599 55.758 172.787 55.866C172.975 55.974 173.125 56.122 173.237 56.31C173.353 56.494 173.411 56.732 173.411 57.024C173.411 57.296 173.343 57.56 173.207 57.816C173.075 58.072 172.881 58.3 172.625 58.5C172.373 58.7 172.061 58.86 171.689 58.98C171.321 59.104 170.901 59.166 170.429 59.166C169.965 59.166 169.561 59.12 169.217 59.028C168.873 58.94 168.587 58.82 168.359 58.668C168.131 58.52 167.961 58.348 167.849 58.152C167.737 57.956 167.681 57.752 167.681 57.54C167.681 57.252 167.767 57.012 167.939 56.82C168.115 56.624 168.355 56.468 168.659 56.352C168.495 56.268 168.365 56.156 168.269 56.016C168.173 55.876 168.125 55.692 168.125 55.464C168.125 55.372 168.141 55.278 168.173 55.182C168.209 55.082 168.259 54.984 168.323 54.888C168.391 54.792 168.475 54.702 168.575 54.618C168.675 54.53 168.793 54.452 168.929 54.384C168.617 54.216 168.371 53.992 168.191 53.712C168.015 53.432 167.927 53.104 167.927 52.728C167.927 52.424 167.987 52.15 168.107 51.906C168.231 51.658 168.401 51.448 168.617 51.276C168.837 51.1 169.095 50.966 169.391 50.874C169.691 50.782 170.017 50.736 170.369 50.736C170.633 50.736 170.881 50.764 171.113 50.82C171.345 50.872 171.557 50.95 171.749 51.054H173.519ZM175.959 48.084V57H174.477V48.084H175.959ZM178.971 50.844V57H177.483V50.844H178.971ZM179.175 49.05C179.175 49.178 179.149 49.298 179.097 49.41C179.045 49.522 178.975 49.62 178.887 49.704C178.803 49.788 178.703 49.856 178.587 49.908C178.471 49.956 178.347 49.98 178.215 49.98C178.087 49.98 177.965 49.956 177.849 49.908C177.737 49.856 177.639 49.788 177.555 49.704C177.471 49.62 177.403 49.522 177.351 49.41C177.303 49.298 177.279 49.178 177.279 49.05C177.279 48.918 177.303 48.794 177.351 48.678C177.403 48.562 177.471 48.462 177.555 48.378C177.639 48.294 177.737 48.228 177.849 48.18C177.965 48.128 178.087 48.102 178.215 48.102C178.347 48.102 178.471 48.128 178.587 48.18C178.703 48.228 178.803 48.294 178.887 48.378C178.975 48.462 179.045 48.562 179.097 48.678C179.149 48.794 179.175 48.918 179.175 49.05ZM184.238 52.044C184.198 52.108 184.156 52.154 184.112 52.182C184.068 52.206 184.012 52.218 183.944 52.218C183.872 52.218 183.794 52.198 183.71 52.158C183.63 52.118 183.536 52.074 183.428 52.026C183.32 51.974 183.196 51.928 183.056 51.888C182.92 51.848 182.758 51.828 182.57 51.828C182.278 51.828 182.048 51.89 181.88 52.014C181.716 52.138 181.634 52.3 181.634 52.5C181.634 52.632 181.676 52.744 181.76 52.836C181.848 52.924 181.962 53.002 182.102 53.07C182.246 53.138 182.408 53.2 182.588 53.256C182.768 53.308 182.95 53.366 183.134 53.43C183.322 53.494 183.506 53.568 183.686 53.652C183.866 53.732 184.026 53.836 184.166 53.964C184.31 54.088 184.424 54.238 184.508 54.414C184.596 54.59 184.64 54.802 184.64 55.05C184.64 55.346 184.586 55.62 184.478 55.872C184.374 56.12 184.218 56.336 184.01 56.52C183.802 56.7 183.544 56.842 183.236 56.946C182.932 57.046 182.58 57.096 182.18 57.096C181.968 57.096 181.76 57.076 181.556 57.036C181.356 57 181.162 56.948 180.974 56.88C180.79 56.812 180.618 56.732 180.458 56.64C180.302 56.548 180.164 56.448 180.044 56.34L180.386 55.776C180.43 55.708 180.482 55.656 180.542 55.62C180.602 55.584 180.678 55.566 180.77 55.566C180.862 55.566 180.948 55.592 181.028 55.644C181.112 55.696 181.208 55.752 181.316 55.812C181.424 55.872 181.55 55.928 181.694 55.98C181.842 56.032 182.028 56.058 182.252 56.058C182.428 56.058 182.578 56.038 182.702 55.998C182.83 55.954 182.934 55.898 183.014 55.83C183.098 55.762 183.158 55.684 183.194 55.596C183.234 55.504 183.254 55.41 183.254 55.314C183.254 55.17 183.21 55.052 183.122 54.96C183.038 54.868 182.924 54.788 182.78 54.72C182.64 54.652 182.478 54.592 182.294 54.54C182.114 54.484 181.928 54.424 181.736 54.36C181.548 54.296 181.362 54.222 181.178 54.138C180.998 54.05 180.836 53.94 180.692 53.808C180.552 53.676 180.438 53.514 180.35 53.322C180.266 53.13 180.224 52.898 180.224 52.626C180.224 52.374 180.274 52.134 180.374 51.906C180.474 51.678 180.62 51.48 180.812 51.312C181.008 51.14 181.25 51.004 181.538 50.904C181.83 50.8 182.166 50.748 182.546 50.748C182.97 50.748 183.356 50.818 183.704 50.958C184.052 51.098 184.342 51.282 184.574 51.51L184.238 52.044ZM187.237 51.504C187.477 51.28 187.741 51.098 188.029 50.958C188.317 50.818 188.655 50.748 189.043 50.748C189.379 50.748 189.677 50.806 189.937 50.922C190.197 51.034 190.413 51.194 190.585 51.402C190.761 51.606 190.893 51.852 190.981 52.14C191.073 52.424 191.119 52.738 191.119 53.082V57H189.637V53.082C189.637 52.706 189.551 52.416 189.379 52.212C189.207 52.004 188.945 51.9 188.593 51.9C188.337 51.9 188.097 51.958 187.873 52.074C187.649 52.19 187.437 52.348 187.237 52.548V57H185.755V48.084H187.237V51.504Z" fill="#31479E"/>
<defs>
<filter id="filter0_d" x="0" y="0.501221" width="343" height="107.789" filterUnits="userSpaceOnUse" color-interpolation-filters="sRGB">
<feFlood flood-opacity="0" result="BackgroundImageFix"/>
<feColorMatrix in="SourceAlpha" type="matrix" values="0 0 0 0 0 0 0 0 0 0 0 0 0 0 0 0 0 0 127 0"/>
<feOffset/>
<feGaussianBlur stdDeviation="10"/>
<feColorMatrix type="matrix" values="0 0 0 0 0 0 0 0 0 0 0 0 0 0 0 0 0 0 0.25 0"/>
<feBlend mode="normal" in2="BackgroundImageFix" result="effect1_dropShadow"/>
<feBlend mode="normal" in="SourceGraphic" in2="effect1_dropShadow" result="shape"/>
</filter>
</defs>
</svg>
