<svg width="715" height="184" viewBox="0 0 715 184" fill="none" xmlns="http://www.w3.org/2000/svg">
<g filter="url(#filter0_d)">
<mask id="path-1-inside-1" fill="white">
<path fill-rule="evenodd" clip-rule="evenodd" d="M27 20.1958C23.134 20.1958 20 23.3298 20 27.1958V99.863C20 103.729 23.134 106.863 27 106.863H59.6864L59.6864 160.558C59.6864 162.8 62.057 164.25 64.0533 163.228L174.179 106.863H688C691.866 106.863 695 103.729 695 99.863V27.1958C695 23.3298 691.866 20.1958 688 20.1958H27Z"/>
</mask>
<path fill-rule="evenodd" clip-rule="evenodd" d="M27 20.1958C23.134 20.1958 20 23.3298 20 27.1958V99.863C20 103.729 23.134 106.863 27 106.863H59.6864L59.6864 160.558C59.6864 162.8 62.057 164.25 64.0533 163.228L174.179 106.863H688C691.866 106.863 695 103.729 695 99.863V27.1958C695 23.3298 691.866 20.1958 688 20.1958H27Z" fill="white"/>
<path d="M59.6864 106.863H62.6864V103.863H59.6864V106.863ZM59.6864 160.558H62.6864H59.6864ZM64.0533 163.228L65.4201 165.899H65.4201L64.0533 163.228ZM174.179 106.863V103.863H173.456L172.813 104.193L174.179 106.863ZM23 27.1958C23 24.9867 24.7909 23.1958 27 23.1958V17.1958C21.4772 17.1958 17 21.673 17 27.1958H23ZM23 99.863V27.1958H17V99.863H23ZM27 103.863C24.7909 103.863 23 102.072 23 99.863H17C17 105.386 21.4772 109.863 27 109.863V103.863ZM59.6864 103.863H27V109.863H59.6864V103.863ZM56.6864 106.863L56.6864 160.558H62.6864L62.6864 106.863H56.6864ZM56.6864 160.558C56.6864 165.043 61.4277 167.942 65.4201 165.899L62.6864 160.558H62.6864H56.6864ZM65.4201 165.899L175.546 109.534L172.813 104.193L62.6864 160.558L65.4201 165.899ZM688 103.863H174.179V109.863H688V103.863ZM692 99.863C692 102.072 690.209 103.863 688 103.863V109.863C693.523 109.863 698 105.386 698 99.863H692ZM692 27.1958V99.863H698V27.1958H692ZM688 23.1958C690.209 23.1958 692 24.9867 692 27.1958H698C698 21.6729 693.523 17.1958 688 17.1958V23.1958ZM27 23.1958H688V17.1958H27V23.1958Z" fill="#31479E" mask="url(#path-1-inside-1)"/>
<path d="M73.1 65.9458L70.988 60.1738C70.884 59.9178 70.776 59.6138 70.664 59.2618C70.552 58.9098 70.44 58.5298 70.328 58.1218C70.224 58.5298 70.116 58.9138 70.004 59.2738C69.892 59.6258 69.784 59.9338 69.68 60.1978L67.58 65.9458H73.1ZM78.8 72.4978H76.304C76.024 72.4978 75.796 72.4298 75.62 72.2938C75.444 72.1498 75.312 71.9738 75.224 71.7658L73.928 68.2258H66.74L65.444 71.7658C65.38 71.9498 65.256 72.1178 65.072 72.2698C64.888 72.4218 64.66 72.4978 64.388 72.4978H61.868L68.696 55.1458H71.984L78.8 72.4978ZM82.8766 61.6978C83.1246 61.4498 83.3846 61.2218 83.6566 61.0138C83.9366 60.7978 84.2286 60.6178 84.5326 60.4738C84.8446 60.3218 85.1766 60.2058 85.5286 60.1258C85.8806 60.0378 86.2646 59.9938 86.6806 59.9938C87.3526 59.9938 87.9486 60.1098 88.4686 60.3418C88.9886 60.5658 89.4206 60.8858 89.7646 61.3018C90.1166 61.7098 90.3806 62.2018 90.5566 62.7778C90.7406 63.3458 90.8326 63.9738 90.8326 64.6618V72.4978H87.8686V64.6618C87.8686 63.9098 87.6966 63.3298 87.3526 62.9218C87.0086 62.5058 86.4846 62.2978 85.7806 62.2978C85.2686 62.2978 84.7886 62.4138 84.3406 62.6458C83.8926 62.8778 83.4686 63.1938 83.0686 63.5938V72.4978H80.1046V60.1858H81.9166C82.3006 60.1858 82.5526 60.3658 82.6726 60.7258L82.8766 61.6978ZM101.38 63.3298C101.044 62.9218 100.676 62.6338 100.276 62.4658C99.8835 62.2978 99.4595 62.2138 99.0035 62.2138C98.5555 62.2138 98.1515 62.2978 97.7915 62.4658C97.4315 62.6338 97.1235 62.8898 96.8675 63.2338C96.6115 63.5698 96.4155 64.0018 96.2795 64.5298C96.1435 65.0498 96.0755 65.6658 96.0755 66.3778C96.0755 67.0978 96.1315 67.7098 96.2435 68.2138C96.3635 68.7098 96.5315 69.1178 96.7475 69.4378C96.9635 69.7498 97.2275 69.9778 97.5395 70.1218C97.8515 70.2578 98.1995 70.3258 98.5835 70.3258C99.1995 70.3258 99.7235 70.1978 100.156 69.9418C100.588 69.6858 100.996 69.3218 101.38 68.8498V63.3298ZM104.344 54.6658V72.4978H102.532C102.14 72.4978 101.892 72.3178 101.788 71.9578L101.536 70.7698C101.04 71.3378 100.468 71.7978 99.8195 72.1498C99.1795 72.5018 98.4315 72.6778 97.5755 72.6778C96.9035 72.6778 96.2875 72.5378 95.7275 72.2578C95.1675 71.9778 94.6835 71.5738 94.2755 71.0458C93.8755 70.5098 93.5635 69.8498 93.3395 69.0658C93.1235 68.2818 93.0155 67.3858 93.0155 66.3778C93.0155 65.4658 93.1395 64.6178 93.3875 63.8338C93.6355 63.0498 93.9915 62.3698 94.4555 61.7938C94.9195 61.2178 95.4755 60.7698 96.1235 60.4498C96.7715 60.1218 97.4995 59.9578 98.3075 59.9578C98.9955 59.9578 99.5835 60.0658 100.072 60.2818C100.56 60.4978 100.996 60.7898 101.38 61.1578V54.6658H104.344ZM110.065 62.3218C110.449 61.5858 110.905 61.0098 111.433 60.5938C111.961 60.1698 112.585 59.9578 113.305 59.9578C113.873 59.9578 114.329 60.0818 114.673 60.3298L114.481 62.5498C114.441 62.6938 114.381 62.7978 114.301 62.8618C114.229 62.9178 114.129 62.9458 114.001 62.9458C113.881 62.9458 113.701 62.9258 113.461 62.8858C113.229 62.8458 113.001 62.8258 112.777 62.8258C112.449 62.8258 112.157 62.8738 111.901 62.9698C111.645 63.0658 111.413 63.2058 111.205 63.3898C111.005 63.5658 110.825 63.7818 110.665 64.0378C110.513 64.2938 110.369 64.5858 110.233 64.9138V72.4978H107.269V60.1858H109.009C109.313 60.1858 109.525 60.2418 109.645 60.3538C109.765 60.4578 109.845 60.6498 109.885 60.9298L110.065 62.3218ZM122.562 67.2418C121.706 67.2818 120.986 67.3578 120.402 67.4698C119.818 67.5738 119.35 67.7098 118.998 67.8778C118.646 68.0458 118.394 68.2418 118.242 68.4658C118.09 68.6898 118.014 68.9338 118.014 69.1978C118.014 69.7178 118.166 70.0898 118.47 70.3138C118.782 70.5378 119.186 70.6498 119.682 70.6498C120.29 70.6498 120.814 70.5418 121.254 70.3258C121.702 70.1018 122.138 69.7658 122.562 69.3178V67.2418ZM115.77 61.9018C117.186 60.6058 118.89 59.9578 120.882 59.9578C121.602 59.9578 122.246 60.0778 122.814 60.3178C123.382 60.5498 123.862 60.8778 124.254 61.3018C124.646 61.7178 124.942 62.2178 125.142 62.8018C125.35 63.3858 125.454 64.0258 125.454 64.7218V72.4978H124.11C123.83 72.4978 123.614 72.4578 123.462 72.3778C123.31 72.2898 123.19 72.1178 123.102 71.8618L122.838 70.9738C122.526 71.2538 122.222 71.5018 121.926 71.7178C121.63 71.9258 121.322 72.1018 121.002 72.2458C120.682 72.3898 120.338 72.4978 119.97 72.5698C119.61 72.6498 119.21 72.6898 118.77 72.6898C118.25 72.6898 117.77 72.6218 117.33 72.4858C116.89 72.3418 116.51 72.1298 116.19 71.8498C115.87 71.5698 115.622 71.2218 115.446 70.8058C115.27 70.3898 115.182 69.9058 115.182 69.3538C115.182 69.0418 115.234 68.7338 115.338 68.4298C115.442 68.1178 115.61 67.8218 115.842 67.5418C116.082 67.2618 116.39 66.9978 116.766 66.7498C117.142 66.5018 117.602 66.2858 118.146 66.1018C118.698 65.9178 119.338 65.7698 120.066 65.6578C120.794 65.5378 121.626 65.4658 122.562 65.4418V64.7218C122.562 63.8978 122.386 63.2898 122.034 62.8978C121.682 62.4978 121.174 62.2978 120.51 62.2978C120.03 62.2978 119.63 62.3538 119.31 62.4658C118.998 62.5778 118.722 62.7058 118.482 62.8498C118.242 62.9858 118.022 63.1098 117.822 63.2218C117.63 63.3338 117.414 63.3898 117.174 63.3898C116.966 63.3898 116.79 63.3378 116.646 63.2338C116.502 63.1218 116.386 62.9938 116.298 62.8498L115.77 61.9018ZM132.745 66.0418C133.113 66.0418 133.433 65.9938 133.705 65.8978C133.977 65.7938 134.201 65.6538 134.377 65.4778C134.561 65.3018 134.697 65.0898 134.785 64.8418C134.881 64.5938 134.929 64.3218 134.929 64.0258C134.929 63.4178 134.745 62.9378 134.377 62.5858C134.017 62.2258 133.473 62.0458 132.745 62.0458C132.017 62.0458 131.469 62.2258 131.101 62.5858C130.741 62.9378 130.561 63.4178 130.561 64.0258C130.561 64.3138 130.605 64.5818 130.693 64.8298C130.789 65.0778 130.925 65.2938 131.101 65.4778C131.285 65.6538 131.513 65.7938 131.785 65.8978C132.065 65.9938 132.385 66.0418 132.745 66.0418ZM136.093 73.0498C136.093 72.8098 136.021 72.6138 135.877 72.4618C135.733 72.3098 135.537 72.1938 135.289 72.1138C135.041 72.0258 134.749 71.9618 134.413 71.9218C134.085 71.8818 133.733 71.8538 133.357 71.8378C132.989 71.8138 132.605 71.7938 132.205 71.7778C131.813 71.7618 131.429 71.7298 131.053 71.6818C130.725 71.8658 130.457 72.0818 130.249 72.3298C130.049 72.5778 129.949 72.8658 129.949 73.1938C129.949 73.4098 130.001 73.6098 130.105 73.7938C130.217 73.9858 130.389 74.1498 130.621 74.2858C130.861 74.4218 131.169 74.5258 131.545 74.5978C131.921 74.6778 132.381 74.7178 132.925 74.7178C133.477 74.7178 133.953 74.6738 134.353 74.5858C134.753 74.5058 135.081 74.3898 135.337 74.2378C135.601 74.0938 135.793 73.9178 135.913 73.7098C136.033 73.5098 136.093 73.2898 136.093 73.0498ZM139.045 60.6058V61.7098C139.045 62.0618 138.833 62.2778 138.409 62.3578L137.305 62.5618C137.473 62.9858 137.557 63.4498 137.557 63.9538C137.557 64.5618 137.433 65.1138 137.185 65.6098C136.945 66.0978 136.609 66.5138 136.177 66.8578C135.745 67.2018 135.233 67.4698 134.641 67.6618C134.057 67.8458 133.425 67.9378 132.745 67.9378C132.505 67.9378 132.273 67.9258 132.049 67.9018C131.825 67.8778 131.605 67.8458 131.389 67.8058C131.005 68.0378 130.813 68.2978 130.813 68.5858C130.813 68.8338 130.925 69.0178 131.149 69.1378C131.381 69.2498 131.685 69.3298 132.061 69.3778C132.437 69.4258 132.865 69.4578 133.345 69.4738C133.825 69.4818 134.317 69.5058 134.821 69.5458C135.325 69.5858 135.817 69.6578 136.297 69.7618C136.777 69.8578 137.205 70.0138 137.581 70.2298C137.957 70.4458 138.257 70.7418 138.481 71.1178C138.713 71.4858 138.829 71.9618 138.829 72.5458C138.829 73.0898 138.693 73.6178 138.421 74.1298C138.157 74.6418 137.769 75.0978 137.257 75.4978C136.753 75.8978 136.129 76.2178 135.385 76.4578C134.649 76.7058 133.809 76.8298 132.865 76.8298C131.937 76.8298 131.129 76.7378 130.441 76.5538C129.753 76.3778 129.181 76.1378 128.725 75.8338C128.269 75.5378 127.929 75.1938 127.705 74.8018C127.481 74.4098 127.369 74.0018 127.369 73.5778C127.369 73.0018 127.541 72.5218 127.885 72.1378C128.237 71.7458 128.717 71.4338 129.325 71.2018C128.997 71.0338 128.737 70.8098 128.545 70.5298C128.353 70.2498 128.257 69.8818 128.257 69.4258C128.257 69.2418 128.289 69.0538 128.353 68.8618C128.425 68.6618 128.525 68.4658 128.653 68.2738C128.789 68.0818 128.957 67.9018 129.157 67.7338C129.357 67.5578 129.593 67.4018 129.865 67.2658C129.241 66.9298 128.749 66.4818 128.389 65.9218C128.037 65.3618 127.861 64.7058 127.861 63.9538C127.861 63.3458 127.981 62.7978 128.221 62.3098C128.469 61.8138 128.809 61.3938 129.241 61.0498C129.681 60.6978 130.197 60.4298 130.789 60.2458C131.389 60.0618 132.041 59.9698 132.745 59.9698C133.273 59.9698 133.769 60.0258 134.233 60.1378C134.697 60.2418 135.121 60.3978 135.505 60.6058H139.045ZM146.162 59.9938C147.074 59.9938 147.902 60.1418 148.646 60.4378C149.398 60.7338 150.038 61.1538 150.566 61.6978C151.102 62.2418 151.514 62.9058 151.802 63.6898C152.09 64.4738 152.234 65.3498 152.234 66.3178C152.234 67.2938 152.09 68.1738 151.802 68.9578C151.514 69.7418 151.102 70.4098 150.566 70.9618C150.038 71.5138 149.398 71.9378 148.646 72.2338C147.902 72.5298 147.074 72.6778 146.162 72.6778C145.242 72.6778 144.406 72.5298 143.654 72.2338C142.902 71.9378 142.258 71.5138 141.722 70.9618C141.194 70.4098 140.782 69.7418 140.486 68.9578C140.198 68.1738 140.054 67.2938 140.054 66.3178C140.054 65.3498 140.198 64.4738 140.486 63.6898C140.782 62.9058 141.194 62.2418 141.722 61.6978C142.258 61.1538 142.902 60.7338 143.654 60.4378C144.406 60.1418 145.242 59.9938 146.162 59.9938ZM146.162 70.3978C147.186 70.3978 147.942 70.0538 148.43 69.3658C148.926 68.6778 149.174 67.6698 149.174 66.3418C149.174 65.0138 148.926 64.0018 148.43 63.3058C147.942 62.6098 147.186 62.2618 146.162 62.2618C145.122 62.2618 144.35 62.6138 143.846 63.3178C143.35 64.0138 143.102 65.0218 143.102 66.3418C143.102 67.6618 143.35 68.6698 143.846 69.3658C144.35 70.0538 145.122 70.3978 146.162 70.3978ZM158.902 66.0418C159.27 66.0418 159.59 65.9938 159.862 65.8978C160.134 65.7938 160.358 65.6538 160.534 65.4778C160.718 65.3018 160.854 65.0898 160.942 64.8418C161.038 64.5938 161.086 64.3218 161.086 64.0258C161.086 63.4178 160.902 62.9378 160.534 62.5858C160.174 62.2258 159.63 62.0458 158.902 62.0458C158.174 62.0458 157.626 62.2258 157.258 62.5858C156.898 62.9378 156.718 63.4178 156.718 64.0258C156.718 64.3138 156.762 64.5818 156.85 64.8298C156.946 65.0778 157.082 65.2938 157.258 65.4778C157.442 65.6538 157.67 65.7938 157.942 65.8978C158.222 65.9938 158.542 66.0418 158.902 66.0418ZM162.25 73.0498C162.25 72.8098 162.178 72.6138 162.034 72.4618C161.89 72.3098 161.694 72.1938 161.446 72.1138C161.198 72.0258 160.906 71.9618 160.57 71.9218C160.242 71.8818 159.89 71.8538 159.514 71.8378C159.146 71.8138 158.762 71.7938 158.362 71.7778C157.97 71.7618 157.586 71.7298 157.21 71.6818C156.882 71.8658 156.614 72.0818 156.406 72.3298C156.206 72.5778 156.105 72.8658 156.105 73.1938C156.105 73.4098 156.158 73.6098 156.262 73.7938C156.374 73.9858 156.546 74.1498 156.778 74.2858C157.018 74.4218 157.326 74.5258 157.702 74.5978C158.078 74.6778 158.538 74.7178 159.082 74.7178C159.634 74.7178 160.11 74.6738 160.51 74.5858C160.91 74.5058 161.238 74.3898 161.494 74.2378C161.758 74.0938 161.95 73.9178 162.07 73.7098C162.19 73.5098 162.25 73.2898 162.25 73.0498ZM165.202 60.6058V61.7098C165.202 62.0618 164.99 62.2778 164.566 62.3578L163.462 62.5618C163.63 62.9858 163.714 63.4498 163.714 63.9538C163.714 64.5618 163.59 65.1138 163.342 65.6098C163.102 66.0978 162.766 66.5138 162.334 66.8578C161.902 67.2018 161.39 67.4698 160.798 67.6618C160.214 67.8458 159.582 67.9378 158.902 67.9378C158.662 67.9378 158.43 67.9258 158.206 67.9018C157.982 67.8778 157.762 67.8458 157.546 67.8058C157.162 68.0378 156.97 68.2978 156.97 68.5858C156.97 68.8338 157.082 69.0178 157.306 69.1378C157.538 69.2498 157.842 69.3298 158.218 69.3778C158.594 69.4258 159.022 69.4578 159.502 69.4738C159.982 69.4818 160.474 69.5058 160.978 69.5458C161.482 69.5858 161.974 69.6578 162.454 69.7618C162.934 69.8578 163.362 70.0138 163.738 70.2298C164.114 70.4458 164.414 70.7418 164.638 71.1178C164.87 71.4858 164.986 71.9618 164.986 72.5458C164.986 73.0898 164.85 73.6178 164.578 74.1298C164.314 74.6418 163.926 75.0978 163.414 75.4978C162.91 75.8978 162.286 76.2178 161.542 76.4578C160.806 76.7058 159.966 76.8298 159.022 76.8298C158.094 76.8298 157.286 76.7378 156.598 76.5538C155.91 76.3778 155.338 76.1378 154.882 75.8338C154.426 75.5378 154.086 75.1938 153.862 74.8018C153.638 74.4098 153.526 74.0018 153.526 73.5778C153.526 73.0018 153.698 72.5218 154.042 72.1378C154.394 71.7458 154.874 71.4338 155.482 71.2018C155.154 71.0338 154.894 70.8098 154.701 70.5298C154.51 70.2498 154.414 69.8818 154.414 69.4258C154.414 69.2418 154.446 69.0538 154.51 68.8618C154.582 68.6618 154.682 68.4658 154.81 68.2738C154.946 68.0818 155.114 67.9018 155.314 67.7338C155.514 67.5578 155.75 67.4018 156.021 67.2658C155.398 66.9298 154.906 66.4818 154.546 65.9218C154.194 65.3618 154.018 64.7058 154.018 63.9538C154.018 63.3458 154.138 62.7978 154.378 62.3098C154.626 61.8138 154.966 61.3938 155.398 61.0498C155.838 60.6978 156.354 60.4298 156.946 60.2458C157.546 60.0618 158.198 59.9698 158.902 59.9698C159.43 59.9698 159.926 60.0258 160.39 60.1378C160.854 60.2418 161.278 60.3978 161.662 60.6058H165.202ZM170.153 60.1858V72.4978H167.177V60.1858H170.153ZM170.561 56.5978C170.561 56.8538 170.509 57.0938 170.405 57.3178C170.301 57.5418 170.161 57.7378 169.985 57.9058C169.817 58.0738 169.617 58.2098 169.385 58.3138C169.153 58.4098 168.905 58.4578 168.641 58.4578C168.385 58.4578 168.141 58.4098 167.909 58.3138C167.685 58.2098 167.489 58.0738 167.321 57.9058C167.153 57.7378 167.017 57.5418 166.913 57.3178C166.817 57.0938 166.769 56.8538 166.769 56.5978C166.769 56.3338 166.817 56.0858 166.913 55.8538C167.017 55.6218 167.153 55.4218 167.321 55.2538C167.489 55.0858 167.685 54.9538 167.909 54.8578C168.141 54.7538 168.385 54.7018 168.641 54.7018C168.905 54.7018 169.153 54.7538 169.385 54.8578C169.617 54.9538 169.817 55.0858 169.985 55.2538C170.161 55.4218 170.301 55.6218 170.405 55.8538C170.509 56.0858 170.561 56.3338 170.561 56.5978ZM181.995 62.7898C181.907 62.9018 181.819 62.9898 181.731 63.0538C181.651 63.1178 181.531 63.1498 181.371 63.1498C181.219 63.1498 181.071 63.1058 180.927 63.0178C180.783 62.9218 180.611 62.8178 180.411 62.7058C180.211 62.5858 179.971 62.4818 179.691 62.3938C179.419 62.2978 179.079 62.2498 178.671 62.2498C178.151 62.2498 177.695 62.3458 177.303 62.5378C176.911 62.7218 176.583 62.9898 176.319 63.3418C176.063 63.6938 175.871 64.1218 175.743 64.6258C175.615 65.1218 175.551 65.6858 175.551 66.3178C175.551 66.9738 175.619 67.5578 175.755 68.0698C175.899 68.5818 176.103 69.0138 176.367 69.3658C176.631 69.7098 176.951 69.9738 177.327 70.1578C177.703 70.3338 178.127 70.4218 178.599 70.4218C179.071 70.4218 179.451 70.3658 179.739 70.2538C180.035 70.1338 180.283 70.0058 180.483 69.8698C180.683 69.7258 180.855 69.5978 180.999 69.4858C181.151 69.3658 181.319 69.3058 181.503 69.3058C181.743 69.3058 181.923 69.3978 182.043 69.5818L182.895 70.6618C182.567 71.0458 182.211 71.3698 181.827 71.6338C181.443 71.8898 181.043 72.0978 180.627 72.2578C180.219 72.4098 179.795 72.5178 179.355 72.5818C178.923 72.6458 178.491 72.6778 178.059 72.6778C177.299 72.6778 176.583 72.5378 175.911 72.2578C175.239 71.9698 174.651 71.5538 174.147 71.0098C173.643 70.4658 173.243 69.8018 172.947 69.0178C172.659 68.2258 172.515 67.3258 172.515 66.3178C172.515 65.4138 172.643 64.5778 172.899 63.8098C173.163 63.0338 173.547 62.3658 174.051 61.8058C174.555 61.2378 175.179 60.7938 175.923 60.4738C176.667 60.1538 177.523 59.9938 178.491 59.9938C179.411 59.9938 180.215 60.1418 180.903 60.4378C181.599 60.7338 182.223 61.1578 182.775 61.7098L181.995 62.7898ZM191.257 67.2418C190.401 67.2818 189.681 67.3578 189.097 67.4698C188.513 67.5738 188.045 67.7098 187.693 67.8778C187.341 68.0458 187.089 68.2418 186.937 68.4658C186.785 68.6898 186.709 68.9338 186.709 69.1978C186.709 69.7178 186.861 70.0898 187.165 70.3138C187.477 70.5378 187.881 70.6498 188.377 70.6498C188.985 70.6498 189.509 70.5418 189.949 70.3258C190.397 70.1018 190.833 69.7658 191.257 69.3178V67.2418ZM184.465 61.9018C185.881 60.6058 187.585 59.9578 189.577 59.9578C190.297 59.9578 190.941 60.0778 191.509 60.3178C192.077 60.5498 192.557 60.8778 192.949 61.3018C193.341 61.7178 193.637 62.2178 193.837 62.8018C194.045 63.3858 194.149 64.0258 194.149 64.7218V72.4978H192.805C192.525 72.4978 192.309 72.4578 192.157 72.3778C192.005 72.2898 191.885 72.1178 191.797 71.8618L191.533 70.9738C191.221 71.2538 190.917 71.5018 190.621 71.7178C190.325 71.9258 190.017 72.1018 189.697 72.2458C189.377 72.3898 189.033 72.4978 188.665 72.5698C188.305 72.6498 187.905 72.6898 187.465 72.6898C186.945 72.6898 186.465 72.6218 186.025 72.4858C185.585 72.3418 185.205 72.1298 184.885 71.8498C184.565 71.5698 184.317 71.2218 184.141 70.8058C183.965 70.3898 183.877 69.9058 183.877 69.3538C183.877 69.0418 183.929 68.7338 184.033 68.4298C184.137 68.1178 184.305 67.8218 184.537 67.5418C184.777 67.2618 185.085 66.9978 185.461 66.7498C185.837 66.5018 186.297 66.2858 186.841 66.1018C187.393 65.9178 188.033 65.7698 188.761 65.6578C189.489 65.5378 190.321 65.4658 191.257 65.4418V64.7218C191.257 63.8978 191.081 63.2898 190.729 62.8978C190.377 62.4978 189.869 62.2978 189.205 62.2978C188.725 62.2978 188.325 62.3538 188.005 62.4658C187.693 62.5778 187.417 62.7058 187.177 62.8498C186.937 62.9858 186.717 63.1098 186.517 63.2218C186.325 63.3338 186.109 63.3898 185.869 63.3898C185.661 63.3898 185.485 63.3378 185.341 63.2338C185.197 63.1218 185.081 62.9938 184.993 62.8498L184.465 61.9018ZM199.941 54.6658V72.4978H196.977V54.6658H199.941ZM211.694 69.3058C212.03 69.7138 212.394 70.0018 212.786 70.1698C213.186 70.3378 213.618 70.4218 214.082 70.4218C214.53 70.4218 214.934 70.3378 215.294 70.1698C215.654 70.0018 215.958 69.7458 216.206 69.4018C216.462 69.0578 216.658 68.6258 216.794 68.1058C216.93 67.5778 216.998 66.9578 216.998 66.2458C216.998 65.5258 216.938 64.9178 216.818 64.4218C216.706 63.9178 216.542 63.5098 216.326 63.1978C216.11 62.8858 215.846 62.6578 215.534 62.5138C215.23 62.3698 214.882 62.2978 214.49 62.2978C213.874 62.2978 213.35 62.4298 212.918 62.6938C212.486 62.9498 212.078 63.3138 211.694 63.7858V69.3058ZM211.538 61.8658C212.042 61.2978 212.614 60.8378 213.254 60.4858C213.894 60.1338 214.646 59.9578 215.51 59.9578C216.182 59.9578 216.794 60.0978 217.346 60.3778C217.906 60.6578 218.386 61.0658 218.786 61.6018C219.194 62.1298 219.506 62.7858 219.722 63.5698C219.946 64.3458 220.058 65.2378 220.058 66.2458C220.058 67.1658 219.934 68.0178 219.686 68.8018C219.438 69.5858 219.082 70.2658 218.618 70.8418C218.162 71.4178 217.606 71.8698 216.95 72.1978C216.302 72.5178 215.574 72.6778 214.766 72.6778C214.078 72.6778 213.49 72.5738 213.002 72.3658C212.514 72.1498 212.078 71.8538 211.694 71.4778V76.5178H208.73V60.1858H210.542C210.926 60.1858 211.178 60.3658 211.298 60.7258L211.538 61.8658ZM230.302 64.9258C230.302 64.5418 230.246 64.1818 230.134 63.8458C230.03 63.5018 229.87 63.2018 229.654 62.9458C229.438 62.6898 229.162 62.4898 228.826 62.3458C228.498 62.1938 228.114 62.1178 227.674 62.1178C226.818 62.1178 226.142 62.3618 225.646 62.8498C225.158 63.3378 224.846 64.0298 224.71 64.9258H230.302ZM224.65 66.7138C224.698 67.3458 224.81 67.8938 224.986 68.3578C225.162 68.8138 225.394 69.1938 225.682 69.4978C225.97 69.7938 226.31 70.0178 226.702 70.1698C227.102 70.3138 227.542 70.3858 228.022 70.3858C228.502 70.3858 228.914 70.3298 229.258 70.2178C229.61 70.1058 229.914 69.9818 230.17 69.8458C230.434 69.7098 230.662 69.5858 230.854 69.4738C231.054 69.3618 231.246 69.3058 231.43 69.3058C231.678 69.3058 231.862 69.3978 231.982 69.5818L232.834 70.6618C232.506 71.0458 232.138 71.3698 231.73 71.6338C231.322 71.8898 230.894 72.0978 230.446 72.2578C230.006 72.4098 229.554 72.5178 229.09 72.5818C228.634 72.6458 228.19 72.6778 227.758 72.6778C226.902 72.6778 226.106 72.5378 225.37 72.2578C224.634 71.9698 223.994 71.5498 223.45 70.9978C222.906 70.4378 222.478 69.7498 222.166 68.9338C221.854 68.1098 221.698 67.1578 221.698 66.0778C221.698 65.2378 221.834 64.4498 222.106 63.7138C222.378 62.9698 222.766 62.3258 223.27 61.7818C223.782 61.2298 224.402 60.7938 225.13 60.4738C225.866 60.1538 226.694 59.9938 227.614 59.9938C228.39 59.9938 229.106 60.1178 229.762 60.3658C230.418 60.6138 230.982 60.9778 231.454 61.4578C231.926 61.9298 232.294 62.5138 232.558 63.2098C232.83 63.8978 232.966 64.6858 232.966 65.5738C232.966 66.0218 232.918 66.3258 232.822 66.4858C232.726 66.6378 232.542 66.7138 232.27 66.7138H224.65ZM237.987 62.3218C238.371 61.5858 238.827 61.0098 239.355 60.5938C239.883 60.1698 240.507 59.9578 241.227 59.9578C241.795 59.9578 242.251 60.0818 242.595 60.3298L242.403 62.5498C242.363 62.6938 242.303 62.7978 242.223 62.8618C242.151 62.9178 242.051 62.9458 241.923 62.9458C241.803 62.9458 241.623 62.9258 241.383 62.8858C241.151 62.8458 240.923 62.8258 240.699 62.8258C240.371 62.8258 240.079 62.8738 239.823 62.9698C239.567 63.0658 239.335 63.2058 239.127 63.3898C238.927 63.5658 238.747 63.7818 238.587 64.0378C238.435 64.2938 238.291 64.5858 238.155 64.9138V72.4978H235.191V60.1858H236.931C237.235 60.1858 237.447 60.2418 237.567 60.3538C237.687 60.4578 237.767 60.6498 237.807 60.9298L237.987 62.3218ZM251.609 62.5858C251.529 62.7138 251.445 62.8058 251.357 62.8618C251.269 62.9098 251.157 62.9338 251.021 62.9338C250.877 62.9338 250.721 62.8938 250.553 62.8138C250.393 62.7338 250.205 62.6458 249.989 62.5498C249.773 62.4458 249.525 62.3538 249.245 62.2738C248.973 62.1938 248.649 62.1538 248.273 62.1538C247.689 62.1538 247.229 62.2778 246.893 62.5258C246.565 62.7738 246.401 63.0978 246.401 63.4978C246.401 63.7618 246.485 63.9858 246.653 64.1698C246.829 64.3458 247.057 64.5018 247.337 64.6378C247.625 64.7738 247.949 64.8978 248.309 65.0098C248.669 65.1138 249.033 65.2298 249.401 65.3578C249.777 65.4858 250.145 65.6338 250.505 65.8018C250.865 65.9618 251.185 66.1698 251.465 66.4258C251.753 66.6738 251.981 66.9738 252.149 67.3258C252.325 67.6778 252.413 68.1018 252.413 68.5978C252.413 69.1898 252.305 69.7378 252.089 70.2418C251.881 70.7378 251.569 71.1698 251.153 71.5378C250.737 71.8978 250.221 72.1818 249.605 72.3898C248.997 72.5898 248.293 72.6898 247.493 72.6898C247.069 72.6898 246.653 72.6498 246.245 72.5698C245.845 72.4978 245.457 72.3938 245.081 72.2578C244.713 72.1218 244.369 71.9618 244.049 71.7778C243.737 71.5938 243.461 71.3938 243.221 71.1778L243.905 70.0498C243.993 69.9138 244.097 69.8098 244.217 69.7378C244.337 69.6658 244.489 69.6298 244.673 69.6298C244.857 69.6298 245.029 69.6818 245.189 69.7858C245.357 69.8898 245.549 70.0018 245.765 70.1218C245.981 70.2418 246.233 70.3538 246.521 70.4578C246.817 70.5618 247.189 70.6138 247.637 70.6138C247.989 70.6138 248.289 70.5738 248.537 70.4938C248.793 70.4058 249.001 70.2938 249.161 70.1578C249.329 70.0218 249.449 69.8658 249.521 69.6898C249.601 69.5058 249.641 69.3178 249.641 69.1258C249.641 68.8378 249.553 68.6018 249.377 68.4178C249.209 68.2338 248.981 68.0738 248.693 67.9378C248.413 67.8018 248.089 67.6818 247.721 67.5778C247.361 67.4658 246.989 67.3458 246.605 67.2178C246.229 67.0898 245.857 66.9418 245.489 66.7738C245.129 66.5978 244.805 66.3778 244.517 66.1138C244.237 65.8498 244.009 65.5258 243.833 65.1418C243.665 64.7578 243.581 64.2938 243.581 63.7498C243.581 63.2458 243.681 62.7658 243.881 62.3098C244.081 61.8538 244.373 61.4578 244.757 61.1218C245.149 60.7778 245.633 60.5058 246.209 60.3058C246.793 60.0978 247.465 59.9938 248.225 59.9938C249.073 59.9938 249.845 60.1338 250.541 60.4138C251.237 60.6938 251.817 61.0618 252.281 61.5178L251.609 62.5858ZM257.608 69.3058C257.944 69.7138 258.308 70.0018 258.7 70.1698C259.1 70.3378 259.532 70.4218 259.996 70.4218C260.444 70.4218 260.848 70.3378 261.208 70.1698C261.568 70.0018 261.872 69.7458 262.12 69.4018C262.376 69.0578 262.572 68.6258 262.708 68.1058C262.844 67.5778 262.912 66.9578 262.912 66.2458C262.912 65.5258 262.852 64.9178 262.732 64.4218C262.62 63.9178 262.456 63.5098 262.24 63.1978C262.024 62.8858 261.76 62.6578 261.448 62.5138C261.144 62.3698 260.796 62.2978 260.404 62.2978C259.788 62.2978 259.264 62.4298 258.832 62.6938C258.4 62.9498 257.992 63.3138 257.608 63.7858V69.3058ZM257.452 61.8658C257.956 61.2978 258.528 60.8378 259.168 60.4858C259.808 60.1338 260.56 59.9578 261.424 59.9578C262.096 59.9578 262.708 60.0978 263.26 60.3778C263.82 60.6578 264.3 61.0658 264.7 61.6018C265.108 62.1298 265.42 62.7858 265.636 63.5698C265.86 64.3458 265.972 65.2378 265.972 66.2458C265.972 67.1658 265.848 68.0178 265.6 68.8018C265.352 69.5858 264.996 70.2658 264.532 70.8418C264.076 71.4178 263.52 71.8698 262.864 72.1978C262.216 72.5178 261.488 72.6778 260.68 72.6778C259.992 72.6778 259.404 72.5738 258.916 72.3658C258.428 72.1498 257.992 71.8538 257.608 71.4778V76.5178H254.644V60.1858H256.456C256.84 60.1858 257.092 60.3658 257.212 60.7258L257.452 61.8658ZM276.216 64.9258C276.216 64.5418 276.16 64.1818 276.048 63.8458C275.944 63.5018 275.784 63.2018 275.568 62.9458C275.352 62.6898 275.076 62.4898 274.74 62.3458C274.412 62.1938 274.028 62.1178 273.588 62.1178C272.732 62.1178 272.056 62.3618 271.56 62.8498C271.072 63.3378 270.76 64.0298 270.624 64.9258H276.216ZM270.564 66.7138C270.612 67.3458 270.724 67.8938 270.9 68.3578C271.076 68.8138 271.308 69.1938 271.596 69.4978C271.884 69.7938 272.224 70.0178 272.616 70.1698C273.016 70.3138 273.456 70.3858 273.936 70.3858C274.416 70.3858 274.828 70.3298 275.172 70.2178C275.524 70.1058 275.828 69.9818 276.084 69.8458C276.348 69.7098 276.576 69.5858 276.768 69.4738C276.968 69.3618 277.16 69.3058 277.344 69.3058C277.592 69.3058 277.776 69.3978 277.896 69.5818L278.748 70.6618C278.42 71.0458 278.052 71.3698 277.644 71.6338C277.236 71.8898 276.808 72.0978 276.36 72.2578C275.92 72.4098 275.468 72.5178 275.004 72.5818C274.548 72.6458 274.104 72.6778 273.672 72.6778C272.816 72.6778 272.02 72.5378 271.284 72.2578C270.548 71.9698 269.908 71.5498 269.364 70.9978C268.82 70.4378 268.392 69.7498 268.08 68.9338C267.768 68.1098 267.612 67.1578 267.612 66.0778C267.612 65.2378 267.748 64.4498 268.02 63.7138C268.292 62.9698 268.68 62.3258 269.184 61.7818C269.696 61.2298 270.316 60.7938 271.044 60.4738C271.78 60.1538 272.608 59.9938 273.528 59.9938C274.304 59.9938 275.02 60.1178 275.676 60.3658C276.332 60.6138 276.896 60.9778 277.368 61.4578C277.84 61.9298 278.208 62.5138 278.472 63.2098C278.744 63.8978 278.88 64.6858 278.88 65.5738C278.88 66.0218 278.832 66.3258 278.736 66.4858C278.64 66.6378 278.456 66.7138 278.184 66.7138H270.564ZM289.925 62.7898C289.837 62.9018 289.749 62.9898 289.661 63.0538C289.581 63.1178 289.461 63.1498 289.301 63.1498C289.149 63.1498 289.001 63.1058 288.857 63.0178C288.713 62.9218 288.541 62.8178 288.341 62.7058C288.141 62.5858 287.901 62.4818 287.621 62.3938C287.349 62.2978 287.009 62.2498 286.601 62.2498C286.081 62.2498 285.625 62.3458 285.233 62.5378C284.841 62.7218 284.513 62.9898 284.249 63.3418C283.993 63.6938 283.801 64.1218 283.673 64.6258C283.545 65.1218 283.481 65.6858 283.481 66.3178C283.481 66.9738 283.549 67.5578 283.685 68.0698C283.829 68.5818 284.033 69.0138 284.297 69.3658C284.561 69.7098 284.881 69.9738 285.257 70.1578C285.633 70.3338 286.057 70.4218 286.529 70.4218C287.001 70.4218 287.381 70.3658 287.669 70.2538C287.965 70.1338 288.213 70.0058 288.413 69.8698C288.613 69.7258 288.785 69.5978 288.929 69.4858C289.081 69.3658 289.249 69.3058 289.433 69.3058C289.673 69.3058 289.853 69.3978 289.973 69.5818L290.825 70.6618C290.497 71.0458 290.141 71.3698 289.757 71.6338C289.373 71.8898 288.973 72.0978 288.557 72.2578C288.149 72.4098 287.725 72.5178 287.285 72.5818C286.853 72.6458 286.421 72.6778 285.989 72.6778C285.229 72.6778 284.513 72.5378 283.841 72.2578C283.169 71.9698 282.581 71.5538 282.077 71.0098C281.573 70.4658 281.173 69.8018 280.877 69.0178C280.589 68.2258 280.445 67.3258 280.445 66.3178C280.445 65.4138 280.573 64.5778 280.829 63.8098C281.093 63.0338 281.477 62.3658 281.981 61.8058C282.485 61.2378 283.109 60.7938 283.853 60.4738C284.597 60.1538 285.453 59.9938 286.421 59.9938C287.341 59.9938 288.145 60.1418 288.833 60.4378C289.529 60.7338 290.153 61.1578 290.705 61.7098L289.925 62.7898ZM305.103 72.4978H302.139V62.4058H296.427V69.0778C296.427 69.4618 296.519 69.7618 296.703 69.9778C296.895 70.1938 297.155 70.3018 297.483 70.3018C297.667 70.3018 297.819 70.2818 297.939 70.2418C298.067 70.1938 298.175 70.1458 298.263 70.0978C298.359 70.0498 298.443 70.0058 298.515 69.9658C298.587 69.9178 298.659 69.8938 298.731 69.8938C298.819 69.8938 298.891 69.9178 298.947 69.9658C299.003 70.0058 299.063 70.0698 299.127 70.1578L300.015 71.5978C299.583 71.9578 299.087 72.2298 298.527 72.4138C297.967 72.5978 297.387 72.6898 296.787 72.6898C295.715 72.6898 294.891 72.3898 294.315 71.7898C293.747 71.1818 293.463 70.3458 293.463 69.2818V62.4058H292.203C292.043 62.4058 291.907 62.3538 291.795 62.2498C291.683 62.1458 291.627 61.9898 291.627 61.7818V60.6058L293.607 60.2698L294.231 56.9218C294.271 56.7618 294.347 56.6378 294.459 56.5498C294.571 56.4618 294.715 56.4178 294.891 56.4178H296.427V60.2938H305.103V72.4978ZM305.619 56.5498C305.619 56.8058 305.567 57.0498 305.463 57.2818C305.359 57.5058 305.219 57.7018 305.043 57.8698C304.875 58.0378 304.671 58.1738 304.431 58.2778C304.199 58.3738 303.951 58.4218 303.687 58.4218C303.431 58.4218 303.191 58.3738 302.967 58.2778C302.743 58.1738 302.547 58.0378 302.379 57.8698C302.211 57.7018 302.075 57.5058 301.971 57.2818C301.875 57.0498 301.827 56.8058 301.827 56.5498C301.827 56.2858 301.875 56.0418 301.971 55.8178C302.075 55.5858 302.211 55.3858 302.379 55.2178C302.547 55.0418 302.743 54.9058 302.967 54.8098C303.191 54.7058 303.431 54.6538 303.687 54.6538C303.951 54.6538 304.199 54.7058 304.431 54.8098C304.671 54.9058 304.875 55.0418 305.043 55.2178C305.219 55.3858 305.359 55.5858 305.463 55.8178C305.567 56.0418 305.619 56.2858 305.619 56.5498ZM319.228 60.1858L314.344 72.4978H311.656L306.772 60.1858H309.22C309.444 60.1858 309.628 60.2378 309.772 60.3418C309.924 60.4458 310.024 60.5778 310.072 60.7378L312.448 67.3138C312.576 67.6978 312.688 68.0738 312.784 68.4418C312.88 68.8098 312.964 69.1778 313.036 69.5458C313.116 69.1778 313.204 68.8098 313.3 68.4418C313.396 68.0738 313.512 67.6978 313.648 67.3138L316.072 60.7378C316.128 60.5778 316.228 60.4458 316.372 60.3418C316.516 60.2378 316.688 60.1858 316.888 60.1858H319.228ZM328.365 64.9258C328.365 64.5418 328.309 64.1818 328.197 63.8458C328.093 63.5018 327.933 63.2018 327.717 62.9458C327.501 62.6898 327.225 62.4898 326.889 62.3458C326.561 62.1938 326.177 62.1178 325.737 62.1178C324.881 62.1178 324.205 62.3618 323.709 62.8498C323.221 63.3378 322.909 64.0298 322.773 64.9258H328.365ZM322.713 66.7138C322.761 67.3458 322.873 67.8938 323.049 68.3578C323.225 68.8138 323.457 69.1938 323.745 69.4978C324.033 69.7938 324.373 70.0178 324.765 70.1698C325.165 70.3138 325.605 70.3858 326.085 70.3858C326.565 70.3858 326.977 70.3298 327.321 70.2178C327.673 70.1058 327.977 69.9818 328.233 69.8458C328.497 69.7098 328.725 69.5858 328.917 69.4738C329.117 69.3618 329.309 69.3058 329.493 69.3058C329.741 69.3058 329.925 69.3978 330.045 69.5818L330.897 70.6618C330.569 71.0458 330.201 71.3698 329.793 71.6338C329.385 71.8898 328.957 72.0978 328.509 72.2578C328.069 72.4098 327.617 72.5178 327.153 72.5818C326.697 72.6458 326.253 72.6778 325.821 72.6778C324.965 72.6778 324.169 72.5378 323.433 72.2578C322.697 71.9698 322.057 71.5498 321.513 70.9978C320.969 70.4378 320.541 69.7498 320.229 68.9338C319.917 68.1098 319.761 67.1578 319.761 66.0778C319.761 65.2378 319.897 64.4498 320.169 63.7138C320.441 62.9698 320.829 62.3258 321.333 61.7818C321.845 61.2298 322.465 60.7938 323.193 60.4738C323.929 60.1538 324.757 59.9938 325.677 59.9938C326.453 59.9938 327.169 60.1178 327.825 60.3658C328.481 60.6138 329.045 60.9778 329.517 61.4578C329.989 61.9298 330.357 62.5138 330.621 63.2098C330.893 63.8978 331.029 64.6858 331.029 65.5738C331.029 66.0218 330.981 66.3258 330.885 66.4858C330.789 66.6378 330.605 66.7138 330.333 66.7138H322.713ZM340.765 62.5858C340.685 62.7138 340.601 62.8058 340.513 62.8618C340.425 62.9098 340.313 62.9338 340.177 62.9338C340.033 62.9338 339.877 62.8938 339.709 62.8138C339.549 62.7338 339.361 62.6458 339.145 62.5498C338.929 62.4458 338.681 62.3538 338.401 62.2738C338.129 62.1938 337.805 62.1538 337.429 62.1538C336.845 62.1538 336.385 62.2778 336.049 62.5258C335.721 62.7738 335.557 63.0978 335.557 63.4978C335.557 63.7618 335.641 63.9858 335.809 64.1698C335.985 64.3458 336.213 64.5018 336.493 64.6378C336.781 64.7738 337.105 64.8978 337.465 65.0098C337.825 65.1138 338.189 65.2298 338.557 65.3578C338.933 65.4858 339.301 65.6338 339.661 65.8018C340.021 65.9618 340.341 66.1698 340.621 66.4258C340.909 66.6738 341.137 66.9738 341.305 67.3258C341.481 67.6778 341.569 68.1018 341.569 68.5978C341.569 69.1898 341.461 69.7378 341.245 70.2418C341.037 70.7378 340.725 71.1698 340.309 71.5378C339.893 71.8978 339.377 72.1818 338.761 72.3898C338.153 72.5898 337.449 72.6898 336.649 72.6898C336.225 72.6898 335.809 72.6498 335.401 72.5698C335.001 72.4978 334.613 72.3938 334.237 72.2578C333.869 72.1218 333.525 71.9618 333.205 71.7778C332.893 71.5938 332.617 71.3938 332.377 71.1778L333.061 70.0498C333.149 69.9138 333.253 69.8098 333.373 69.7378C333.493 69.6658 333.645 69.6298 333.829 69.6298C334.013 69.6298 334.185 69.6818 334.345 69.7858C334.513 69.8898 334.705 70.0018 334.921 70.1218C335.137 70.2418 335.389 70.3538 335.677 70.4578C335.973 70.5618 336.345 70.6138 336.793 70.6138C337.145 70.6138 337.445 70.5738 337.693 70.4938C337.949 70.4058 338.157 70.2938 338.317 70.1578C338.485 70.0218 338.605 69.8658 338.677 69.6898C338.757 69.5058 338.797 69.3178 338.797 69.1258C338.797 68.8378 338.709 68.6018 338.533 68.4178C338.365 68.2338 338.137 68.0738 337.849 67.9378C337.569 67.8018 337.245 67.6818 336.877 67.5778C336.517 67.4658 336.145 67.3458 335.761 67.2178C335.385 67.0898 335.013 66.9418 334.645 66.7738C334.285 66.5978 333.961 66.3778 333.673 66.1138C333.393 65.8498 333.165 65.5258 332.989 65.1418C332.821 64.7578 332.737 64.2938 332.737 63.7498C332.737 63.2458 332.837 62.7658 333.037 62.3098C333.237 61.8538 333.529 61.4578 333.913 61.1218C334.305 60.7778 334.789 60.5058 335.365 60.3058C335.949 60.0978 336.621 59.9938 337.381 59.9938C338.229 59.9938 339.001 60.1338 339.697 60.4138C340.393 60.6938 340.973 61.0618 341.437 61.5178L340.765 62.5858ZM356.14 67.2418C355.284 67.2818 354.564 67.3578 353.98 67.4698C353.396 67.5738 352.928 67.7098 352.576 67.8778C352.224 68.0458 351.972 68.2418 351.82 68.4658C351.668 68.6898 351.592 68.9338 351.592 69.1978C351.592 69.7178 351.744 70.0898 352.048 70.3138C352.36 70.5378 352.764 70.6498 353.26 70.6498C353.868 70.6498 354.392 70.5418 354.832 70.3258C355.28 70.1018 355.716 69.7658 356.14 69.3178V67.2418ZM349.348 61.9018C350.764 60.6058 352.468 59.9578 354.46 59.9578C355.18 59.9578 355.824 60.0778 356.392 60.3178C356.96 60.5498 357.44 60.8778 357.832 61.3018C358.224 61.7178 358.52 62.2178 358.72 62.8018C358.928 63.3858 359.032 64.0258 359.032 64.7218V72.4978H357.688C357.408 72.4978 357.192 72.4578 357.04 72.3778C356.888 72.2898 356.768 72.1178 356.68 71.8618L356.416 70.9738C356.104 71.2538 355.8 71.5018 355.504 71.7178C355.208 71.9258 354.9 72.1018 354.58 72.2458C354.26 72.3898 353.916 72.4978 353.548 72.5698C353.188 72.6498 352.788 72.6898 352.348 72.6898C351.828 72.6898 351.348 72.6218 350.908 72.4858C350.468 72.3418 350.088 72.1298 349.768 71.8498C349.448 71.5698 349.2 71.2218 349.024 70.8058C348.848 70.3898 348.76 69.9058 348.76 69.3538C348.76 69.0418 348.812 68.7338 348.916 68.4298C349.02 68.1178 349.188 67.8218 349.42 67.5418C349.66 67.2618 349.968 66.9978 350.344 66.7498C350.72 66.5018 351.18 66.2858 351.724 66.1018C352.276 65.9178 352.916 65.7698 353.644 65.6578C354.372 65.5378 355.204 65.4658 356.14 65.4418V64.7218C356.14 63.8978 355.964 63.2898 355.612 62.8978C355.26 62.4978 354.752 62.2978 354.088 62.2978C353.608 62.2978 353.208 62.3538 352.888 62.4658C352.576 62.5778 352.3 62.7058 352.06 62.8498C351.82 62.9858 351.6 63.1098 351.4 63.2218C351.208 63.3338 350.992 63.3898 350.752 63.3898C350.544 63.3898 350.368 63.3378 350.224 63.2338C350.08 63.1218 349.964 62.9938 349.876 62.8498L349.348 61.9018ZM364.787 69.3058C365.123 69.7138 365.487 70.0018 365.879 70.1698C366.279 70.3378 366.711 70.4218 367.175 70.4218C367.623 70.4218 368.027 70.3378 368.387 70.1698C368.747 70.0018 369.051 69.7458 369.299 69.4018C369.555 69.0578 369.751 68.6258 369.887 68.1058C370.023 67.5778 370.091 66.9578 370.091 66.2458C370.091 65.5258 370.031 64.9178 369.911 64.4218C369.799 63.9178 369.635 63.5098 369.419 63.1978C369.203 62.8858 368.939 62.6578 368.627 62.5138C368.323 62.3698 367.975 62.2978 367.583 62.2978C366.967 62.2978 366.443 62.4298 366.011 62.6938C365.579 62.9498 365.171 63.3138 364.787 63.7858V69.3058ZM364.631 61.8658C365.135 61.2978 365.707 60.8378 366.347 60.4858C366.987 60.1338 367.739 59.9578 368.603 59.9578C369.275 59.9578 369.887 60.0978 370.439 60.3778C370.999 60.6578 371.479 61.0658 371.879 61.6018C372.287 62.1298 372.599 62.7858 372.815 63.5698C373.039 64.3458 373.151 65.2378 373.151 66.2458C373.151 67.1658 373.027 68.0178 372.779 68.8018C372.531 69.5858 372.175 70.2658 371.711 70.8418C371.255 71.4178 370.699 71.8698 370.043 72.1978C369.395 72.5178 368.667 72.6778 367.859 72.6778C367.171 72.6778 366.583 72.5738 366.095 72.3658C365.607 72.1498 365.171 71.8538 364.787 71.4778V76.5178H361.823V60.1858H363.635C364.019 60.1858 364.271 60.3658 364.391 60.7258L364.631 61.8658ZM378.428 69.3058C378.764 69.7138 379.128 70.0018 379.52 70.1698C379.92 70.3378 380.352 70.4218 380.816 70.4218C381.264 70.4218 381.668 70.3378 382.028 70.1698C382.388 70.0018 382.692 69.7458 382.94 69.4018C383.196 69.0578 383.392 68.6258 383.528 68.1058C383.664 67.5778 383.732 66.9578 383.732 66.2458C383.732 65.5258 383.672 64.9178 383.552 64.4218C383.44 63.9178 383.276 63.5098 383.06 63.1978C382.844 62.8858 382.58 62.6578 382.268 62.5138C381.964 62.3698 381.616 62.2978 381.224 62.2978C380.608 62.2978 380.084 62.4298 379.652 62.6938C379.22 62.9498 378.812 63.3138 378.428 63.7858V69.3058ZM378.272 61.8658C378.776 61.2978 379.348 60.8378 379.988 60.4858C380.628 60.1338 381.38 59.9578 382.244 59.9578C382.916 59.9578 383.528 60.0978 384.08 60.3778C384.64 60.6578 385.12 61.0658 385.52 61.6018C385.928 62.1298 386.24 62.7858 386.456 63.5698C386.68 64.3458 386.792 65.2378 386.792 66.2458C386.792 67.1658 386.668 68.0178 386.42 68.8018C386.172 69.5858 385.816 70.2658 385.352 70.8418C384.896 71.4178 384.34 71.8698 383.684 72.1978C383.036 72.5178 382.308 72.6778 381.5 72.6778C380.812 72.6778 380.224 72.5738 379.736 72.3658C379.248 72.1498 378.812 71.8538 378.428 71.4778V76.5178H375.464V60.1858H377.276C377.66 60.1858 377.912 60.3658 378.032 60.7258L378.272 61.8658ZM392.105 54.6658V72.4978H389.141V54.6658H392.105ZM398.13 60.1858V72.4978H395.154V60.1858H398.13ZM398.538 56.5978C398.538 56.8538 398.486 57.0938 398.382 57.3178C398.278 57.5418 398.138 57.7378 397.962 57.9058C397.794 58.0738 397.594 58.2098 397.362 58.3138C397.13 58.4098 396.882 58.4578 396.618 58.4578C396.362 58.4578 396.118 58.4098 395.886 58.3138C395.662 58.2098 395.466 58.0738 395.298 57.9058C395.13 57.7378 394.994 57.5418 394.89 57.3178C394.794 57.0938 394.746 56.8538 394.746 56.5978C394.746 56.3338 394.794 56.0858 394.89 55.8538C394.994 55.6218 395.13 55.4218 395.298 55.2538C395.466 55.0858 395.662 54.9538 395.886 54.8578C396.118 54.7538 396.362 54.7018 396.618 54.7018C396.882 54.7018 397.13 54.7538 397.362 54.8578C397.594 54.9538 397.794 55.0858 397.962 55.2538C398.138 55.4218 398.278 55.6218 398.382 55.8538C398.486 56.0858 398.538 56.3338 398.538 56.5978ZM409.084 64.9258C409.084 64.5418 409.028 64.1818 408.916 63.8458C408.812 63.5018 408.652 63.2018 408.436 62.9458C408.22 62.6898 407.944 62.4898 407.608 62.3458C407.28 62.1938 406.896 62.1178 406.456 62.1178C405.6 62.1178 404.924 62.3618 404.428 62.8498C403.94 63.3378 403.628 64.0298 403.492 64.9258H409.084ZM403.432 66.7138C403.48 67.3458 403.592 67.8938 403.768 68.3578C403.944 68.8138 404.176 69.1938 404.464 69.4978C404.752 69.7938 405.092 70.0178 405.484 70.1698C405.884 70.3138 406.324 70.3858 406.804 70.3858C407.284 70.3858 407.696 70.3298 408.04 70.2178C408.392 70.1058 408.696 69.9818 408.952 69.8458C409.216 69.7098 409.444 69.5858 409.636 69.4738C409.836 69.3618 410.028 69.3058 410.212 69.3058C410.46 69.3058 410.644 69.3978 410.764 69.5818L411.616 70.6618C411.288 71.0458 410.92 71.3698 410.512 71.6338C410.104 71.8898 409.676 72.0978 409.228 72.2578C408.788 72.4098 408.336 72.5178 407.872 72.5818C407.416 72.6458 406.972 72.6778 406.54 72.6778C405.684 72.6778 404.888 72.5378 404.152 72.2578C403.416 71.9698 402.776 71.5498 402.232 70.9978C401.688 70.4378 401.26 69.7498 400.948 68.9338C400.636 68.1098 400.479 67.1578 400.479 66.0778C400.479 65.2378 400.616 64.4498 400.888 63.7138C401.16 62.9698 401.548 62.3258 402.052 61.7818C402.564 61.2298 403.184 60.7938 403.912 60.4738C404.648 60.1538 405.476 59.9938 406.396 59.9938C407.172 59.9938 407.888 60.1178 408.544 60.3658C409.2 60.6138 409.764 60.9778 410.236 61.4578C410.708 61.9298 411.076 62.5138 411.34 63.2098C411.612 63.8978 411.747 64.6858 411.747 65.5738C411.747 66.0218 411.7 66.3258 411.604 66.4858C411.508 66.6378 411.324 66.7138 411.052 66.7138H403.432ZM421.7 63.3298C421.364 62.9218 420.996 62.6338 420.596 62.4658C420.204 62.2978 419.78 62.2138 419.324 62.2138C418.876 62.2138 418.472 62.2978 418.112 62.4658C417.752 62.6338 417.444 62.8898 417.188 63.2338C416.932 63.5698 416.736 64.0018 416.6 64.5298C416.464 65.0498 416.396 65.6658 416.396 66.3778C416.396 67.0978 416.452 67.7098 416.564 68.2138C416.684 68.7098 416.852 69.1178 417.068 69.4378C417.284 69.7498 417.548 69.9778 417.86 70.1218C418.172 70.2578 418.52 70.3258 418.904 70.3258C419.52 70.3258 420.044 70.1978 420.476 69.9418C420.908 69.6858 421.316 69.3218 421.7 68.8498V63.3298ZM424.664 54.6658V72.4978H422.852C422.46 72.4978 422.212 72.3178 422.108 71.9578L421.856 70.7698C421.36 71.3378 420.788 71.7978 420.14 72.1498C419.5 72.5018 418.752 72.6778 417.896 72.6778C417.224 72.6778 416.608 72.5378 416.048 72.2578C415.488 71.9778 415.004 71.5738 414.596 71.0458C414.196 70.5098 413.884 69.8498 413.66 69.0658C413.444 68.2818 413.336 67.3858 413.336 66.3778C413.336 65.4658 413.46 64.6178 413.708 63.8338C413.956 63.0498 414.312 62.3698 414.776 61.7938C415.24 61.2178 415.796 60.7698 416.444 60.4498C417.092 60.1218 417.82 59.9578 418.628 59.9578C419.316 59.9578 419.904 60.0658 420.392 60.2818C420.88 60.4978 421.316 60.7898 421.7 61.1578V54.6658H424.664ZM437.529 72.6898C436.457 72.6898 435.633 72.3898 435.057 71.7898C434.489 71.1818 434.205 70.3458 434.205 69.2818V62.4058H432.945C432.785 62.4058 432.649 62.3538 432.537 62.2498C432.425 62.1458 432.369 61.9898 432.369 61.7818V60.6058L434.349 60.2818L434.973 56.9218C435.013 56.7618 435.089 56.6378 435.201 56.5498C435.313 56.4618 435.457 56.4178 435.633 56.4178H437.169V60.2938H440.457V62.4058H437.169V69.0778C437.169 69.4618 437.261 69.7618 437.445 69.9778C437.637 70.1938 437.897 70.3018 438.225 70.3018C438.409 70.3018 438.561 70.2818 438.681 70.2418C438.809 70.1938 438.917 70.1458 439.005 70.0978C439.101 70.0498 439.185 70.0058 439.257 69.9658C439.329 69.9178 439.401 69.8938 439.473 69.8938C439.561 69.8938 439.633 69.9178 439.689 69.9658C439.745 70.0058 439.805 70.0698 439.869 70.1578L440.757 71.5978C440.325 71.9578 439.829 72.2298 439.269 72.4138C438.709 72.5978 438.129 72.6898 437.529 72.6898ZM447.709 59.9938C448.621 59.9938 449.449 60.1418 450.193 60.4378C450.945 60.7338 451.585 61.1538 452.113 61.6978C452.649 62.2418 453.061 62.9058 453.349 63.6898C453.637 64.4738 453.781 65.3498 453.781 66.3178C453.781 67.2938 453.637 68.1738 453.349 68.9578C453.061 69.7418 452.649 70.4098 452.113 70.9618C451.585 71.5138 450.945 71.9378 450.193 72.2338C449.449 72.5298 448.621 72.6778 447.709 72.6778C446.789 72.6778 445.953 72.5298 445.201 72.2338C444.449 71.9378 443.805 71.5138 443.269 70.9618C442.741 70.4098 442.329 69.7418 442.033 68.9578C441.745 68.1738 441.601 67.2938 441.601 66.3178C441.601 65.3498 441.745 64.4738 442.033 63.6898C442.329 62.9058 442.741 62.2418 443.269 61.6978C443.805 61.1538 444.449 60.7338 445.201 60.4378C445.953 60.1418 446.789 59.9938 447.709 59.9938ZM447.709 70.3978C448.733 70.3978 449.489 70.0538 449.977 69.3658C450.473 68.6778 450.721 67.6698 450.721 66.3418C450.721 65.0138 450.473 64.0018 449.977 63.3058C449.489 62.6098 448.733 62.2618 447.709 62.2618C446.669 62.2618 445.897 62.6138 445.393 63.3178C444.897 64.0138 444.649 65.0218 444.649 66.3418C444.649 67.6618 444.897 68.6698 445.393 69.3658C445.897 70.0538 446.669 70.3978 447.709 70.3978ZM464.878 54.6658V72.4978H461.914V54.6658H464.878ZM474.335 67.2418C473.479 67.2818 472.759 67.3578 472.175 67.4698C471.591 67.5738 471.123 67.7098 470.771 67.8778C470.419 68.0458 470.167 68.2418 470.015 68.4658C469.863 68.6898 469.787 68.9338 469.787 69.1978C469.787 69.7178 469.939 70.0898 470.243 70.3138C470.555 70.5378 470.959 70.6498 471.455 70.6498C472.063 70.6498 472.587 70.5418 473.027 70.3258C473.475 70.1018 473.911 69.7658 474.335 69.3178V67.2418ZM467.543 61.9018C468.959 60.6058 470.663 59.9578 472.655 59.9578C473.375 59.9578 474.019 60.0778 474.587 60.3178C475.155 60.5498 475.635 60.8778 476.027 61.3018C476.419 61.7178 476.715 62.2178 476.915 62.8018C477.123 63.3858 477.227 64.0258 477.227 64.7218V72.4978H475.883C475.603 72.4978 475.387 72.4578 475.235 72.3778C475.083 72.2898 474.963 72.1178 474.875 71.8618L474.611 70.9738C474.299 71.2538 473.995 71.5018 473.699 71.7178C473.403 71.9258 473.095 72.1018 472.775 72.2458C472.455 72.3898 472.111 72.4978 471.743 72.5698C471.383 72.6498 470.983 72.6898 470.543 72.6898C470.023 72.6898 469.543 72.6218 469.103 72.4858C468.663 72.3418 468.283 72.1298 467.963 71.8498C467.643 71.5698 467.395 71.2218 467.219 70.8058C467.043 70.3898 466.955 69.9058 466.955 69.3538C466.955 69.0418 467.007 68.7338 467.111 68.4298C467.215 68.1178 467.383 67.8218 467.615 67.5418C467.855 67.2618 468.163 66.9978 468.539 66.7498C468.915 66.5018 469.375 66.2858 469.919 66.1018C470.471 65.9178 471.111 65.7698 471.839 65.6578C472.567 65.5378 473.399 65.4658 474.335 65.4418V64.7218C474.335 63.8978 474.159 63.2898 473.807 62.8978C473.455 62.4978 472.947 62.2978 472.283 62.2978C471.803 62.2978 471.403 62.3538 471.083 62.4658C470.771 62.5778 470.495 62.7058 470.255 62.8498C470.015 62.9858 469.795 63.1098 469.595 63.2218C469.403 63.3338 469.187 63.3898 468.947 63.3898C468.739 63.3898 468.563 63.3378 468.419 63.2338C468.275 63.1218 468.159 62.9938 468.071 62.8498L467.543 61.9018ZM482.791 61.6978C483.039 61.4498 483.299 61.2218 483.571 61.0138C483.851 60.7978 484.143 60.6178 484.447 60.4738C484.759 60.3218 485.091 60.2058 485.443 60.1258C485.795 60.0378 486.179 59.9938 486.595 59.9938C487.267 59.9938 487.863 60.1098 488.383 60.3418C488.903 60.5658 489.335 60.8858 489.679 61.3018C490.031 61.7098 490.295 62.2018 490.471 62.7778C490.655 63.3458 490.747 63.9738 490.747 64.6618V72.4978H487.783V64.6618C487.783 63.9098 487.611 63.3298 487.267 62.9218C486.923 62.5058 486.399 62.2978 485.695 62.2978C485.183 62.2978 484.703 62.4138 484.255 62.6458C483.807 62.8778 483.383 63.1938 482.983 63.5938V72.4978H480.019V60.1858H481.831C482.215 60.1858 482.467 60.3658 482.587 60.7258L482.791 61.6978ZM498.066 66.0418C498.434 66.0418 498.754 65.9938 499.026 65.8978C499.298 65.7938 499.522 65.6538 499.698 65.4778C499.882 65.3018 500.018 65.0898 500.106 64.8418C500.202 64.5938 500.25 64.3218 500.25 64.0258C500.25 63.4178 500.066 62.9378 499.698 62.5858C499.338 62.2258 498.794 62.0458 498.066 62.0458C497.338 62.0458 496.79 62.2258 496.422 62.5858C496.062 62.9378 495.882 63.4178 495.882 64.0258C495.882 64.3138 495.926 64.5818 496.014 64.8298C496.11 65.0778 496.246 65.2938 496.422 65.4778C496.606 65.6538 496.834 65.7938 497.106 65.8978C497.386 65.9938 497.706 66.0418 498.066 66.0418ZM501.414 73.0498C501.414 72.8098 501.342 72.6138 501.198 72.4618C501.054 72.3098 500.858 72.1938 500.61 72.1138C500.362 72.0258 500.07 71.9618 499.734 71.9218C499.406 71.8818 499.054 71.8538 498.678 71.8378C498.31 71.8138 497.926 71.7938 497.526 71.7778C497.134 71.7618 496.75 71.7298 496.374 71.6818C496.046 71.8658 495.778 72.0818 495.57 72.3298C495.37 72.5778 495.27 72.8658 495.27 73.1938C495.27 73.4098 495.322 73.6098 495.426 73.7938C495.538 73.9858 495.71 74.1498 495.942 74.2858C496.182 74.4218 496.49 74.5258 496.866 74.5978C497.242 74.6778 497.702 74.7178 498.246 74.7178C498.798 74.7178 499.274 74.6738 499.674 74.5858C500.074 74.5058 500.402 74.3898 500.658 74.2378C500.922 74.0938 501.114 73.9178 501.234 73.7098C501.354 73.5098 501.414 73.2898 501.414 73.0498ZM504.366 60.6058V61.7098C504.366 62.0618 504.154 62.2778 503.73 62.3578L502.626 62.5618C502.794 62.9858 502.878 63.4498 502.878 63.9538C502.878 64.5618 502.754 65.1138 502.506 65.6098C502.266 66.0978 501.93 66.5138 501.498 66.8578C501.066 67.2018 500.554 67.4698 499.962 67.6618C499.378 67.8458 498.746 67.9378 498.066 67.9378C497.826 67.9378 497.594 67.9258 497.37 67.9018C497.146 67.8778 496.926 67.8458 496.71 67.8058C496.326 68.0378 496.134 68.2978 496.134 68.5858C496.134 68.8338 496.246 69.0178 496.47 69.1378C496.702 69.2498 497.006 69.3298 497.382 69.3778C497.758 69.4258 498.186 69.4578 498.666 69.4738C499.146 69.4818 499.638 69.5058 500.142 69.5458C500.646 69.5858 501.138 69.6578 501.618 69.7618C502.098 69.8578 502.526 70.0138 502.902 70.2298C503.278 70.4458 503.578 70.7418 503.802 71.1178C504.034 71.4858 504.15 71.9618 504.15 72.5458C504.15 73.0898 504.014 73.6178 503.742 74.1298C503.478 74.6418 503.09 75.0978 502.578 75.4978C502.074 75.8978 501.45 76.2178 500.706 76.4578C499.97 76.7058 499.13 76.8298 498.186 76.8298C497.258 76.8298 496.45 76.7378 495.762 76.5538C495.074 76.3778 494.502 76.1378 494.046 75.8338C493.59 75.5378 493.25 75.1938 493.026 74.8018C492.802 74.4098 492.69 74.0018 492.69 73.5778C492.69 73.0018 492.862 72.5218 493.206 72.1378C493.558 71.7458 494.038 71.4338 494.646 71.2018C494.318 71.0338 494.058 70.8098 493.866 70.5298C493.674 70.2498 493.578 69.8818 493.578 69.4258C493.578 69.2418 493.61 69.0538 493.674 68.8618C493.746 68.6618 493.846 68.4658 493.974 68.2738C494.11 68.0818 494.278 67.9018 494.478 67.7338C494.678 67.5578 494.914 67.4018 495.186 67.2658C494.562 66.9298 494.07 66.4818 493.71 65.9218C493.358 65.3618 493.182 64.7058 493.182 63.9538C493.182 63.3458 493.302 62.7978 493.542 62.3098C493.79 61.8138 494.13 61.3938 494.562 61.0498C495.002 60.6978 495.518 60.4298 496.11 60.2458C496.71 60.0618 497.362 59.9698 498.066 59.9698C498.594 59.9698 499.09 60.0258 499.554 60.1378C500.018 60.2418 500.442 60.3978 500.826 60.6058H504.366ZM516.853 60.1858V72.4978H515.041C514.649 72.4978 514.401 72.3178 514.297 71.9578L514.093 70.9738C513.589 71.4858 513.033 71.9018 512.425 72.2218C511.817 72.5338 511.101 72.6898 510.277 72.6898C509.605 72.6898 509.009 72.5778 508.489 72.3538C507.977 72.1218 507.545 71.7978 507.193 71.3818C506.841 70.9658 506.573 70.4738 506.389 69.9058C506.213 69.3298 506.125 68.6978 506.125 68.0098V60.1858H509.089V68.0098C509.089 68.7618 509.261 69.3458 509.605 69.7618C509.957 70.1698 510.481 70.3738 511.177 70.3738C511.689 70.3738 512.169 70.2618 512.617 70.0378C513.065 69.8058 513.489 69.4898 513.889 69.0898V60.1858H516.853ZM526.296 67.2418C525.44 67.2818 524.72 67.3578 524.136 67.4698C523.552 67.5738 523.084 67.7098 522.732 67.8778C522.38 68.0458 522.128 68.2418 521.976 68.4658C521.824 68.6898 521.748 68.9338 521.748 69.1978C521.748 69.7178 521.9 70.0898 522.204 70.3138C522.516 70.5378 522.92 70.6498 523.416 70.6498C524.024 70.6498 524.548 70.5418 524.988 70.3258C525.436 70.1018 525.872 69.7658 526.296 69.3178V67.2418ZM519.504 61.9018C520.92 60.6058 522.624 59.9578 524.616 59.9578C525.336 59.9578 525.98 60.0778 526.548 60.3178C527.116 60.5498 527.596 60.8778 527.988 61.3018C528.38 61.7178 528.676 62.2178 528.876 62.8018C529.084 63.3858 529.188 64.0258 529.188 64.7218V72.4978H527.844C527.564 72.4978 527.348 72.4578 527.196 72.3778C527.044 72.2898 526.924 72.1178 526.836 71.8618L526.572 70.9738C526.26 71.2538 525.956 71.5018 525.66 71.7178C525.364 71.9258 525.056 72.1018 524.736 72.2458C524.416 72.3898 524.072 72.4978 523.704 72.5698C523.344 72.6498 522.944 72.6898 522.504 72.6898C521.984 72.6898 521.504 72.6218 521.064 72.4858C520.624 72.3418 520.244 72.1298 519.924 71.8498C519.604 71.5698 519.356 71.2218 519.18 70.8058C519.004 70.3898 518.916 69.9058 518.916 69.3538C518.916 69.0418 518.968 68.7338 519.072 68.4298C519.176 68.1178 519.344 67.8218 519.576 67.5418C519.816 67.2618 520.124 66.9978 520.5 66.7498C520.876 66.5018 521.336 66.2858 521.88 66.1018C522.432 65.9178 523.072 65.7698 523.8 65.6578C524.528 65.5378 525.36 65.4658 526.296 65.4418V64.7218C526.296 63.8978 526.12 63.2898 525.768 62.8978C525.416 62.4978 524.908 62.2978 524.244 62.2978C523.764 62.2978 523.364 62.3538 523.044 62.4658C522.732 62.5778 522.456 62.7058 522.216 62.8498C521.976 62.9858 521.756 63.1098 521.556 63.2218C521.364 63.3338 521.148 63.3898 520.908 63.3898C520.7 63.3898 520.524 63.3378 520.38 63.2338C520.236 63.1218 520.12 62.9938 520.032 62.8498L519.504 61.9018ZM536.48 66.0418C536.848 66.0418 537.168 65.9938 537.44 65.8978C537.712 65.7938 537.936 65.6538 538.112 65.4778C538.296 65.3018 538.432 65.0898 538.52 64.8418C538.616 64.5938 538.664 64.3218 538.664 64.0258C538.664 63.4178 538.48 62.9378 538.112 62.5858C537.752 62.2258 537.208 62.0458 536.48 62.0458C535.752 62.0458 535.204 62.2258 534.836 62.5858C534.476 62.9378 534.296 63.4178 534.296 64.0258C534.296 64.3138 534.34 64.5818 534.428 64.8298C534.524 65.0778 534.66 65.2938 534.836 65.4778C535.02 65.6538 535.248 65.7938 535.52 65.8978C535.8 65.9938 536.12 66.0418 536.48 66.0418ZM539.828 73.0498C539.828 72.8098 539.756 72.6138 539.612 72.4618C539.468 72.3098 539.272 72.1938 539.024 72.1138C538.776 72.0258 538.484 71.9618 538.148 71.9218C537.82 71.8818 537.468 71.8538 537.092 71.8378C536.724 71.8138 536.34 71.7938 535.94 71.7778C535.548 71.7618 535.164 71.7298 534.788 71.6818C534.46 71.8658 534.192 72.0818 533.984 72.3298C533.784 72.5778 533.684 72.8658 533.684 73.1938C533.684 73.4098 533.736 73.6098 533.84 73.7938C533.952 73.9858 534.124 74.1498 534.356 74.2858C534.596 74.4218 534.904 74.5258 535.28 74.5978C535.656 74.6778 536.116 74.7178 536.66 74.7178C537.212 74.7178 537.688 74.6738 538.088 74.5858C538.488 74.5058 538.816 74.3898 539.072 74.2378C539.336 74.0938 539.528 73.9178 539.648 73.7098C539.768 73.5098 539.828 73.2898 539.828 73.0498ZM542.78 60.6058V61.7098C542.78 62.0618 542.568 62.2778 542.144 62.3578L541.04 62.5618C541.208 62.9858 541.292 63.4498 541.292 63.9538C541.292 64.5618 541.168 65.1138 540.92 65.6098C540.68 66.0978 540.344 66.5138 539.912 66.8578C539.48 67.2018 538.968 67.4698 538.376 67.6618C537.792 67.8458 537.16 67.9378 536.48 67.9378C536.24 67.9378 536.008 67.9258 535.784 67.9018C535.56 67.8778 535.34 67.8458 535.124 67.8058C534.74 68.0378 534.548 68.2978 534.548 68.5858C534.548 68.8338 534.66 69.0178 534.884 69.1378C535.116 69.2498 535.42 69.3298 535.796 69.3778C536.172 69.4258 536.6 69.4578 537.08 69.4738C537.56 69.4818 538.052 69.5058 538.556 69.5458C539.06 69.5858 539.552 69.6578 540.032 69.7618C540.512 69.8578 540.94 70.0138 541.316 70.2298C541.692 70.4458 541.992 70.7418 542.216 71.1178C542.448 71.4858 542.564 71.9618 542.564 72.5458C542.564 73.0898 542.428 73.6178 542.156 74.1298C541.892 74.6418 541.504 75.0978 540.992 75.4978C540.488 75.8978 539.864 76.2178 539.12 76.4578C538.384 76.7058 537.544 76.8298 536.6 76.8298C535.672 76.8298 534.864 76.7378 534.176 76.5538C533.488 76.3778 532.916 76.1378 532.46 75.8338C532.004 75.5378 531.664 75.1938 531.44 74.8018C531.216 74.4098 531.104 74.0018 531.104 73.5778C531.104 73.0018 531.276 72.5218 531.62 72.1378C531.972 71.7458 532.452 71.4338 533.06 71.2018C532.732 71.0338 532.472 70.8098 532.28 70.5298C532.088 70.2498 531.992 69.8818 531.992 69.4258C531.992 69.2418 532.024 69.0538 532.088 68.8618C532.16 68.6618 532.26 68.4658 532.388 68.2738C532.524 68.0818 532.692 67.9018 532.892 67.7338C533.092 67.5578 533.328 67.4018 533.6 67.2658C532.976 66.9298 532.484 66.4818 532.124 65.9218C531.772 65.3618 531.596 64.7058 531.596 63.9538C531.596 63.3458 531.716 62.7978 531.956 62.3098C532.204 61.8138 532.544 61.3938 532.976 61.0498C533.416 60.6978 533.932 60.4298 534.524 60.2458C535.124 60.0618 535.776 59.9698 536.48 59.9698C537.008 59.9698 537.504 60.0258 537.968 60.1378C538.432 60.2418 538.856 60.3978 539.24 60.6058H542.78ZM552.38 64.9258C552.38 64.5418 552.324 64.1818 552.212 63.8458C552.108 63.5018 551.948 63.2018 551.732 62.9458C551.516 62.6898 551.24 62.4898 550.904 62.3458C550.576 62.1938 550.192 62.1178 549.752 62.1178C548.896 62.1178 548.22 62.3618 547.724 62.8498C547.236 63.3378 546.924 64.0298 546.788 64.9258H552.38ZM546.728 66.7138C546.776 67.3458 546.888 67.8938 547.064 68.3578C547.24 68.8138 547.472 69.1938 547.76 69.4978C548.048 69.7938 548.388 70.0178 548.78 70.1698C549.18 70.3138 549.62 70.3858 550.1 70.3858C550.58 70.3858 550.992 70.3298 551.336 70.2178C551.688 70.1058 551.992 69.9818 552.248 69.8458C552.512 69.7098 552.74 69.5858 552.932 69.4738C553.132 69.3618 553.324 69.3058 553.508 69.3058C553.756 69.3058 553.94 69.3978 554.06 69.5818L554.912 70.6618C554.584 71.0458 554.216 71.3698 553.808 71.6338C553.4 71.8898 552.972 72.0978 552.524 72.2578C552.084 72.4098 551.632 72.5178 551.168 72.5818C550.712 72.6458 550.268 72.6778 549.836 72.6778C548.98 72.6778 548.184 72.5378 547.448 72.2578C546.712 71.9698 546.072 71.5498 545.528 70.9978C544.984 70.4378 544.556 69.7498 544.244 68.9338C543.932 68.1098 543.776 67.1578 543.776 66.0778C543.776 65.2378 543.912 64.4498 544.184 63.7138C544.456 62.9698 544.844 62.3258 545.348 61.7818C545.86 61.2298 546.48 60.7938 547.208 60.4738C547.944 60.1538 548.772 59.9938 549.692 59.9938C550.468 59.9938 551.184 60.1178 551.84 60.3658C552.496 60.6138 553.06 60.9778 553.532 61.4578C554.004 61.9298 554.372 62.5138 554.636 63.2098C554.908 63.8978 555.044 64.6858 555.044 65.5738C555.044 66.0218 554.996 66.3258 554.9 66.4858C554.804 66.6378 554.62 66.7138 554.348 66.7138H546.728ZM567.209 72.6898C566.137 72.6898 565.313 72.3898 564.737 71.7898C564.169 71.1818 563.885 70.3458 563.885 69.2818V62.4058H562.625C562.465 62.4058 562.329 62.3538 562.217 62.2498C562.105 62.1458 562.049 61.9898 562.049 61.7818V60.6058L564.029 60.2818L564.653 56.9218C564.693 56.7618 564.769 56.6378 564.881 56.5498C564.993 56.4618 565.137 56.4178 565.313 56.4178H566.849V60.2938H570.137V62.4058H566.849V69.0778C566.849 69.4618 566.941 69.7618 567.125 69.9778C567.317 70.1938 567.577 70.3018 567.905 70.3018C568.089 70.3018 568.241 70.2818 568.361 70.2418C568.489 70.1938 568.597 70.1458 568.685 70.0978C568.781 70.0498 568.865 70.0058 568.937 69.9658C569.009 69.9178 569.081 69.8938 569.153 69.8938C569.241 69.8938 569.313 69.9178 569.369 69.9658C569.425 70.0058 569.485 70.0698 569.549 70.1578L570.437 71.5978C570.005 71.9578 569.509 72.2298 568.949 72.4138C568.389 72.5978 567.809 72.6898 567.209 72.6898ZM579.873 64.9258C579.873 64.5418 579.817 64.1818 579.705 63.8458C579.601 63.5018 579.441 63.2018 579.225 62.9458C579.009 62.6898 578.733 62.4898 578.397 62.3458C578.069 62.1938 577.685 62.1178 577.245 62.1178C576.389 62.1178 575.713 62.3618 575.217 62.8498C574.729 63.3378 574.417 64.0298 574.281 64.9258H579.873ZM574.221 66.7138C574.269 67.3458 574.381 67.8938 574.557 68.3578C574.733 68.8138 574.965 69.1938 575.253 69.4978C575.541 69.7938 575.881 70.0178 576.273 70.1698C576.673 70.3138 577.113 70.3858 577.593 70.3858C578.073 70.3858 578.485 70.3298 578.829 70.2178C579.181 70.1058 579.485 69.9818 579.741 69.8458C580.005 69.7098 580.233 69.5858 580.425 69.4738C580.625 69.3618 580.817 69.3058 581.001 69.3058C581.249 69.3058 581.433 69.3978 581.553 69.5818L582.405 70.6618C582.077 71.0458 581.709 71.3698 581.301 71.6338C580.893 71.8898 580.465 72.0978 580.017 72.2578C579.577 72.4098 579.125 72.5178 578.661 72.5818C578.205 72.6458 577.761 72.6778 577.329 72.6778C576.473 72.6778 575.677 72.5378 574.941 72.2578C574.205 71.9698 573.565 71.5498 573.021 70.9978C572.477 70.4378 572.049 69.7498 571.737 68.9338C571.425 68.1098 571.269 67.1578 571.269 66.0778C571.269 65.2378 571.405 64.4498 571.677 63.7138C571.949 62.9698 572.337 62.3258 572.841 61.7818C573.353 61.2298 573.973 60.7938 574.701 60.4738C575.437 60.1538 576.265 59.9938 577.185 59.9938C577.961 59.9938 578.677 60.1178 579.333 60.3658C579.989 60.6138 580.553 60.9778 581.025 61.4578C581.497 61.9298 581.865 62.5138 582.129 63.2098C582.401 63.8978 582.537 64.6858 582.537 65.5738C582.537 66.0218 582.489 66.3258 582.393 66.4858C582.297 66.6378 582.113 66.7138 581.841 66.7138H574.221ZM591.265 67.2418C590.409 67.2818 589.689 67.3578 589.105 67.4698C588.521 67.5738 588.053 67.7098 587.701 67.8778C587.349 68.0458 587.097 68.2418 586.945 68.4658C586.793 68.6898 586.717 68.9338 586.717 69.1978C586.717 69.7178 586.869 70.0898 587.173 70.3138C587.485 70.5378 587.889 70.6498 588.385 70.6498C588.993 70.6498 589.517 70.5418 589.957 70.3258C590.405 70.1018 590.841 69.7658 591.265 69.3178V67.2418ZM584.473 61.9018C585.889 60.6058 587.593 59.9578 589.585 59.9578C590.305 59.9578 590.949 60.0778 591.517 60.3178C592.085 60.5498 592.565 60.8778 592.957 61.3018C593.349 61.7178 593.645 62.2178 593.845 62.8018C594.053 63.3858 594.157 64.0258 594.157 64.7218V72.4978H592.813C592.533 72.4978 592.317 72.4578 592.165 72.3778C592.013 72.2898 591.893 72.1178 591.805 71.8618L591.541 70.9738C591.229 71.2538 590.925 71.5018 590.629 71.7178C590.333 71.9258 590.025 72.1018 589.705 72.2458C589.385 72.3898 589.041 72.4978 588.673 72.5698C588.313 72.6498 587.913 72.6898 587.473 72.6898C586.953 72.6898 586.473 72.6218 586.033 72.4858C585.593 72.3418 585.213 72.1298 584.893 71.8498C584.573 71.5698 584.325 71.2218 584.149 70.8058C583.973 70.3898 583.885 69.9058 583.885 69.3538C583.885 69.0418 583.937 68.7338 584.041 68.4298C584.145 68.1178 584.313 67.8218 584.545 67.5418C584.785 67.2618 585.093 66.9978 585.469 66.7498C585.845 66.5018 586.305 66.2858 586.849 66.1018C587.401 65.9178 588.041 65.7698 588.769 65.6578C589.497 65.5378 590.329 65.4658 591.265 65.4418V64.7218C591.265 63.8978 591.089 63.2898 590.737 62.8978C590.385 62.4978 589.877 62.2978 589.213 62.2978C588.733 62.2978 588.333 62.3538 588.013 62.4658C587.701 62.5778 587.425 62.7058 587.185 62.8498C586.945 62.9858 586.725 63.1098 586.525 63.2218C586.333 63.3338 586.117 63.3898 585.877 63.3898C585.669 63.3898 585.493 63.3378 585.349 63.2338C585.205 63.1218 585.089 62.9938 585.001 62.8498L584.473 61.9018ZM605.768 62.7898C605.68 62.9018 605.592 62.9898 605.504 63.0538C605.424 63.1178 605.304 63.1498 605.144 63.1498C604.992 63.1498 604.844 63.1058 604.7 63.0178C604.556 62.9218 604.384 62.8178 604.184 62.7058C603.984 62.5858 603.744 62.4818 603.464 62.3938C603.192 62.2978 602.852 62.2498 602.444 62.2498C601.924 62.2498 601.468 62.3458 601.076 62.5378C600.684 62.7218 600.356 62.9898 600.092 63.3418C599.836 63.6938 599.644 64.1218 599.516 64.6258C599.388 65.1218 599.324 65.6858 599.324 66.3178C599.324 66.9738 599.392 67.5578 599.528 68.0698C599.672 68.5818 599.876 69.0138 600.14 69.3658C600.404 69.7098 600.724 69.9738 601.1 70.1578C601.476 70.3338 601.9 70.4218 602.372 70.4218C602.844 70.4218 603.224 70.3658 603.512 70.2538C603.808 70.1338 604.056 70.0058 604.256 69.8698C604.456 69.7258 604.628 69.5978 604.772 69.4858C604.924 69.3658 605.092 69.3058 605.276 69.3058C605.516 69.3058 605.696 69.3978 605.816 69.5818L606.668 70.6618C606.34 71.0458 605.984 71.3698 605.6 71.6338C605.216 71.8898 604.816 72.0978 604.4 72.2578C603.992 72.4098 603.568 72.5178 603.128 72.5818C602.696 72.6458 602.264 72.6778 601.832 72.6778C601.072 72.6778 600.356 72.5378 599.684 72.2578C599.012 71.9698 598.424 71.5538 597.92 71.0098C597.416 70.4658 597.016 69.8018 596.72 69.0178C596.432 68.2258 596.288 67.3258 596.288 66.3178C596.288 65.4138 596.416 64.5778 596.672 63.8098C596.936 63.0338 597.32 62.3658 597.824 61.8058C598.328 61.2378 598.952 60.7938 599.696 60.4738C600.44 60.1538 601.296 59.9938 602.264 59.9938C603.184 59.9938 603.988 60.1418 604.676 60.4378C605.372 60.7338 605.996 61.1578 606.548 61.7098L605.768 62.7898ZM611.491 61.5058C611.971 61.0578 612.499 60.6938 613.075 60.4138C613.651 60.1338 614.327 59.9938 615.103 59.9938C615.775 59.9938 616.371 60.1098 616.891 60.3418C617.411 60.5658 617.843 60.8858 618.187 61.3018C618.539 61.7098 618.803 62.2018 618.979 62.7778C619.163 63.3458 619.255 63.9738 619.255 64.6618V72.4978H616.291V64.6618C616.291 63.9098 616.119 63.3298 615.775 62.9218C615.431 62.5058 614.907 62.2978 614.203 62.2978C613.691 62.2978 613.211 62.4138 612.763 62.6458C612.315 62.8778 611.891 63.1938 611.491 63.5938V72.4978H608.527V54.6658H611.491V61.5058ZM625.145 60.1858V72.4978H622.169V60.1858H625.145ZM625.553 56.5978C625.553 56.8538 625.501 57.0938 625.397 57.3178C625.293 57.5418 625.153 57.7378 624.977 57.9058C624.809 58.0738 624.609 58.2098 624.377 58.3138C624.145 58.4098 623.897 58.4578 623.633 58.4578C623.377 58.4578 623.133 58.4098 622.901 58.3138C622.677 58.2098 622.481 58.0738 622.313 57.9058C622.145 57.7378 622.009 57.5418 621.905 57.3178C621.809 57.0938 621.761 56.8538 621.761 56.5978C621.761 56.3338 621.809 56.0858 621.905 55.8538C622.009 55.6218 622.145 55.4218 622.313 55.2538C622.481 55.0858 622.677 54.9538 622.901 54.8578C623.133 54.7538 623.377 54.7018 623.633 54.7018C623.897 54.7018 624.145 54.7538 624.377 54.8578C624.609 54.9538 624.809 55.0858 624.977 55.2538C625.153 55.4218 625.293 55.6218 625.397 55.8538C625.501 56.0858 625.553 56.3338 625.553 56.5978ZM630.939 61.6978C631.187 61.4498 631.447 61.2218 631.719 61.0138C631.999 60.7978 632.291 60.6178 632.595 60.4738C632.907 60.3218 633.239 60.2058 633.591 60.1258C633.943 60.0378 634.327 59.9938 634.743 59.9938C635.415 59.9938 636.011 60.1098 636.531 60.3418C637.051 60.5658 637.483 60.8858 637.827 61.3018C638.179 61.7098 638.443 62.2018 638.619 62.7778C638.803 63.3458 638.895 63.9738 638.895 64.6618V72.4978H635.931V64.6618C635.931 63.9098 635.759 63.3298 635.415 62.9218C635.071 62.5058 634.547 62.2978 633.843 62.2978C633.331 62.2978 632.851 62.4138 632.403 62.6458C631.955 62.8778 631.531 63.1938 631.131 63.5938V72.4978H628.167V60.1858H629.979C630.363 60.1858 630.615 60.3658 630.735 60.7258L630.939 61.6978ZM646.214 66.0418C646.582 66.0418 646.902 65.9938 647.174 65.8978C647.446 65.7938 647.67 65.6538 647.846 65.4778C648.03 65.3018 648.166 65.0898 648.254 64.8418C648.35 64.5938 648.398 64.3218 648.398 64.0258C648.398 63.4178 648.214 62.9378 647.846 62.5858C647.486 62.2258 646.942 62.0458 646.214 62.0458C645.486 62.0458 644.938 62.2258 644.57 62.5858C644.21 62.9378 644.03 63.4178 644.03 64.0258C644.03 64.3138 644.074 64.5818 644.162 64.8298C644.258 65.0778 644.394 65.2938 644.57 65.4778C644.754 65.6538 644.982 65.7938 645.254 65.8978C645.534 65.9938 645.854 66.0418 646.214 66.0418ZM649.562 73.0498C649.562 72.8098 649.49 72.6138 649.346 72.4618C649.202 72.3098 649.006 72.1938 648.758 72.1138C648.51 72.0258 648.218 71.9618 647.882 71.9218C647.554 71.8818 647.202 71.8538 646.826 71.8378C646.458 71.8138 646.074 71.7938 645.674 71.7778C645.282 71.7618 644.898 71.7298 644.522 71.6818C644.194 71.8658 643.926 72.0818 643.718 72.3298C643.518 72.5778 643.418 72.8658 643.418 73.1938C643.418 73.4098 643.47 73.6098 643.574 73.7938C643.686 73.9858 643.858 74.1498 644.09 74.2858C644.33 74.4218 644.638 74.5258 645.014 74.5978C645.39 74.6778 645.85 74.7178 646.394 74.7178C646.946 74.7178 647.422 74.6738 647.822 74.5858C648.222 74.5058 648.55 74.3898 648.806 74.2378C649.07 74.0938 649.262 73.9178 649.382 73.7098C649.502 73.5098 649.562 73.2898 649.562 73.0498ZM652.514 60.6058V61.7098C652.514 62.0618 652.302 62.2778 651.878 62.3578L650.774 62.5618C650.942 62.9858 651.026 63.4498 651.026 63.9538C651.026 64.5618 650.902 65.1138 650.654 65.6098C650.414 66.0978 650.078 66.5138 649.646 66.8578C649.214 67.2018 648.702 67.4698 648.11 67.6618C647.526 67.8458 646.894 67.9378 646.214 67.9378C645.974 67.9378 645.742 67.9258 645.518 67.9018C645.294 67.8778 645.074 67.8458 644.858 67.8058C644.474 68.0378 644.282 68.2978 644.282 68.5858C644.282 68.8338 644.394 69.0178 644.618 69.1378C644.85 69.2498 645.154 69.3298 645.53 69.3778C645.906 69.4258 646.334 69.4578 646.814 69.4738C647.294 69.4818 647.786 69.5058 648.29 69.5458C648.794 69.5858 649.286 69.6578 649.766 69.7618C650.246 69.8578 650.674 70.0138 651.05 70.2298C651.426 70.4458 651.726 70.7418 651.95 71.1178C652.182 71.4858 652.298 71.9618 652.298 72.5458C652.298 73.0898 652.162 73.6178 651.89 74.1298C651.626 74.6418 651.238 75.0978 650.726 75.4978C650.222 75.8978 649.598 76.2178 648.854 76.4578C648.118 76.7058 647.278 76.8298 646.334 76.8298C645.406 76.8298 644.598 76.7378 643.91 76.5538C643.222 76.3778 642.65 76.1378 642.194 75.8338C641.738 75.5378 641.398 75.1938 641.174 74.8018C640.95 74.4098 640.838 74.0018 640.838 73.5778C640.838 73.0018 641.01 72.5218 641.354 72.1378C641.706 71.7458 642.186 71.4338 642.794 71.2018C642.466 71.0338 642.206 70.8098 642.014 70.5298C641.822 70.2498 641.726 69.8818 641.726 69.4258C641.726 69.2418 641.758 69.0538 641.822 68.8618C641.894 68.6618 641.994 68.4658 642.122 68.2738C642.258 68.0818 642.426 67.9018 642.626 67.7338C642.826 67.5578 643.062 67.4018 643.334 67.2658C642.71 66.9298 642.218 66.4818 641.858 65.9218C641.506 65.3618 641.33 64.7058 641.33 63.9538C641.33 63.3458 641.45 62.7978 641.69 62.3098C641.938 61.8138 642.278 61.3938 642.71 61.0498C643.15 60.6978 643.666 60.4298 644.258 60.2458C644.858 60.0618 645.51 59.9698 646.214 59.9698C646.742 59.9698 647.238 60.0258 647.702 60.1378C648.166 60.2418 648.59 60.3978 648.974 60.6058H652.514Z" fill="#31479E"/>
</g>
<defs>
<filter id="filter0_d" x="0" y="0.195801" width="715" height="183.366" filterUnits="userSpaceOnUse" color-interpolation-filters="sRGB">
<feFlood flood-opacity="0" result="BackgroundImageFix"/>
<feColorMatrix in="SourceAlpha" type="matrix" values="0 0 0 0 0 0 0 0 0 0 0 0 0 0 0 0 0 0 127 0"/>
<feOffset/>
<feGaussianBlur stdDeviation="10"/>
<feColorMatrix type="matrix" values="0 0 0 0 0 0 0 0 0 0 0 0 0 0 0 0 0 0 0.25 0"/>
<feBlend mode="normal" in2="BackgroundImageFix" result="effect1_dropShadow"/>
<feBlend mode="normal" in="SourceGraphic" in2="effect1_dropShadow" result="shape"/>
</filter>
</defs>
</svg>
