<svg width="917" height="185" viewBox="0 0 917 185" fill="none" xmlns="http://www.w3.org/2000/svg">
<g filter="url(#filter0_d)">
<mask id="path-1-inside-1" fill="white">
<path fill-rule="evenodd" clip-rule="evenodd" d="M27 20.7319C23.134 20.7319 20 23.8659 20 27.7319V100.399C20 104.265 23.134 107.399 27 107.399H59.6864L59.6864 161.094C59.6864 163.337 62.057 164.786 64.0533 163.765L174.179 107.399H890C893.866 107.399 897 104.265 897 100.399V27.7319C897 23.8659 893.866 20.7319 890 20.7319H27Z"/>
</mask>
<path fill-rule="evenodd" clip-rule="evenodd" d="M27 20.7319C23.134 20.7319 20 23.8659 20 27.7319V100.399C20 104.265 23.134 107.399 27 107.399H59.6864L59.6864 161.094C59.6864 163.337 62.057 164.786 64.0533 163.765L174.179 107.399H890C893.866 107.399 897 104.265 897 100.399V27.7319C897 23.8659 893.866 20.7319 890 20.7319H27Z" fill="white"/>
<path d="M59.6864 107.399H62.6864V104.399H59.6864V107.399ZM59.6864 161.094H62.6864H59.6864ZM64.0533 163.765L65.4201 166.435H65.4201L64.0533 163.765ZM174.179 107.399V104.399H173.456L172.813 104.729L174.179 107.399ZM23 27.7319C23 25.5228 24.7909 23.7319 27 23.7319V17.7319C21.4772 17.7319 17 22.2091 17 27.7319H23ZM23 100.399V27.7319H17V100.399H23ZM27 104.399C24.7909 104.399 23 102.608 23 100.399H17C17 105.922 21.4772 110.399 27 110.399V104.399ZM59.6864 104.399H27V110.399H59.6864V104.399ZM56.6864 107.399L56.6864 161.094H62.6864L62.6864 107.399H56.6864ZM56.6864 161.094C56.6864 165.579 61.4277 168.478 65.4201 166.435L62.6864 161.094H62.6864H56.6864ZM65.4201 166.435L175.546 110.07L172.813 104.729L62.6864 161.094L65.4201 166.435ZM890 104.399H174.179V110.399H890V104.399ZM894 100.399C894 102.608 892.209 104.399 890 104.399V110.399C895.523 110.399 900 105.922 900 100.399H894ZM894 27.7319V100.399H900V27.7319H894ZM890 23.7319C892.209 23.7319 894 25.5228 894 27.7319H900C900 22.2091 895.523 17.7319 890 17.7319V23.7319ZM27 23.7319H890V17.7319H27V23.7319Z" fill="#31479E" mask="url(#path-1-inside-1)"/>
<path d="M70.9159 70.4299C71.5399 70.4299 72.0959 70.3259 72.5839 70.1179C73.0799 69.9099 73.4959 69.6179 73.8319 69.2419C74.1679 68.8659 74.4239 68.4099 74.5999 67.8739C74.7839 67.3379 74.8759 66.7379 74.8759 66.0739V55.6819H78.1039V66.0739C78.1039 67.1059 77.9359 68.0619 77.5999 68.9419C77.2719 69.8139 76.7959 70.5699 76.1719 71.2099C75.5559 71.8419 74.8039 72.3379 73.9159 72.6979C73.0279 73.0499 72.0279 73.2259 70.9159 73.2259C69.7959 73.2259 68.7919 73.0499 67.9039 72.6979C67.0159 72.3379 66.2599 71.8419 65.6359 71.2099C65.0199 70.5699 64.5439 69.8139 64.2079 68.9419C63.8799 68.0619 63.7159 67.1059 63.7159 66.0739V55.6819H66.9439V66.0619C66.9439 66.7259 67.0319 67.3259 67.2079 67.8619C67.3919 68.3979 67.6519 68.8579 67.9879 69.2419C68.3319 69.6179 68.7479 69.9099 69.2359 70.1179C69.7319 70.3259 70.2919 70.4299 70.9159 70.4299Z" fill="#31479E"/>
<path d="M88.2728 63.1219C88.1928 63.2499 88.1088 63.3419 88.0208 63.3979C87.9328 63.4459 87.8208 63.4699 87.6848 63.4699C87.5408 63.4699 87.3848 63.4299 87.2168 63.3499C87.0568 63.2699 86.8688 63.1819 86.6528 63.0859C86.4368 62.9819 86.1888 62.8899 85.9088 62.8099C85.6368 62.7299 85.3128 62.6899 84.9368 62.6899C84.3528 62.6899 83.8928 62.8139 83.5568 63.0619C83.2288 63.3099 83.0648 63.6339 83.0648 64.0339C83.0648 64.2979 83.1488 64.5219 83.3168 64.7059C83.4928 64.8819 83.7208 65.0379 84.0008 65.1739C84.2888 65.3099 84.6128 65.4339 84.9728 65.5459C85.3328 65.6499 85.6968 65.7659 86.0648 65.8939C86.4408 66.0219 86.8088 66.1699 87.1688 66.3379C87.5288 66.4979 87.8488 66.7059 88.1288 66.9619C88.4168 67.2099 88.6448 67.5099 88.8128 67.8619C88.9888 68.2139 89.0768 68.6379 89.0768 69.1339C89.0768 69.7259 88.9688 70.2739 88.7528 70.7779C88.5448 71.2739 88.2328 71.7059 87.8168 72.0739C87.4008 72.4339 86.8848 72.7179 86.2688 72.9259C85.6608 73.1259 84.9568 73.2259 84.1568 73.2259C83.7328 73.2259 83.3168 73.1859 82.9088 73.1059C82.5088 73.0339 82.1208 72.9299 81.7448 72.7939C81.3768 72.6579 81.0328 72.4979 80.7128 72.3139C80.4008 72.1299 80.1248 71.9299 79.8848 71.7139L80.5688 70.5859C80.6568 70.4499 80.7608 70.3459 80.8808 70.2739C81.0008 70.2019 81.1528 70.1659 81.3368 70.1659C81.5208 70.1659 81.6928 70.2179 81.8528 70.3219C82.0208 70.4259 82.2128 70.5379 82.4288 70.6579C82.6448 70.7779 82.8968 70.8899 83.1848 70.9939C83.4808 71.0979 83.8528 71.1499 84.3008 71.1499C84.6528 71.1499 84.9528 71.1099 85.2008 71.0299C85.4568 70.9419 85.6648 70.8299 85.8248 70.6939C85.9928 70.5579 86.1128 70.4019 86.1848 70.2259C86.2648 70.0419 86.3048 69.8539 86.3048 69.6619C86.3048 69.3739 86.2168 69.1379 86.0408 68.9539C85.8728 68.7699 85.6448 68.6099 85.3568 68.4739C85.0768 68.3379 84.7528 68.2179 84.3848 68.1139C84.0248 68.0019 83.6528 67.8819 83.2688 67.7539C82.8928 67.6259 82.5208 67.4779 82.1528 67.3099C81.7928 67.1339 81.4688 66.9139 81.1808 66.6499C80.9008 66.3859 80.6728 66.0619 80.4968 65.6779C80.3288 65.2939 80.2448 64.8299 80.2448 64.2859C80.2448 63.7819 80.3448 63.3019 80.5448 62.8459C80.7448 62.3899 81.0368 61.9939 81.4208 61.6579C81.8128 61.3139 82.2968 61.0419 82.8728 60.8419C83.4568 60.6339 84.1288 60.5299 84.8888 60.5299C85.7368 60.5299 86.5088 60.6699 87.2048 60.9499C87.9008 61.2299 88.4808 61.5979 88.9448 62.0539L88.2728 63.1219Z" fill="#31479E"/>
<path d="M94.3797 60.7219V73.0339H91.4037V60.7219H94.3797ZM94.7877 57.1339C94.7877 57.3899 94.7357 57.6299 94.6317 57.8539C94.5277 58.0779 94.3877 58.2739 94.2117 58.4419C94.0437 58.6099 93.8437 58.7459 93.6117 58.8499C93.3797 58.9459 93.1317 58.9939 92.8677 58.9939C92.6117 58.9939 92.3677 58.9459 92.1357 58.8499C91.9117 58.7459 91.7157 58.6099 91.5477 58.4419C91.3797 58.2739 91.2437 58.0779 91.1397 57.8539C91.0437 57.6299 90.9957 57.3899 90.9957 57.1339C90.9957 56.8699 91.0437 56.6219 91.1397 56.3899C91.2437 56.1579 91.3797 55.9579 91.5477 55.7899C91.7157 55.6219 91.9117 55.4899 92.1357 55.3939C92.3677 55.2899 92.6117 55.2379 92.8677 55.2379C93.1317 55.2379 93.3797 55.2899 93.6117 55.3939C93.8437 55.4899 94.0437 55.6219 94.2117 55.7899C94.3877 55.9579 94.5277 56.1579 94.6317 56.3899C94.7357 56.6219 94.7877 56.8699 94.7877 57.1339Z" fill="#31479E"/>
<path d="M100.173 62.2339C100.421 61.9859 100.681 61.7579 100.953 61.5499C101.233 61.3339 101.525 61.1539 101.829 61.0099C102.141 60.8579 102.473 60.7419 102.825 60.6619C103.177 60.5739 103.561 60.5299 103.977 60.5299C104.649 60.5299 105.245 60.6459 105.765 60.8779C106.285 61.1019 106.717 61.4219 107.061 61.8379C107.413 62.2459 107.677 62.7379 107.853 63.3139C108.037 63.8819 108.129 64.5099 108.129 65.1979V73.0339H105.165V65.1979C105.165 64.4459 104.993 63.8659 104.649 63.4579C104.305 63.0419 103.781 62.8339 103.077 62.8339C102.565 62.8339 102.085 62.9499 101.637 63.1819C101.189 63.4139 100.765 63.7299 100.365 64.1299V73.0339H97.4014V60.7219H99.2134C99.5974 60.7219 99.8494 60.9019 99.9694 61.2619L100.173 62.2339Z" fill="#31479E"/>
<path d="M115.448 66.5779C115.816 66.5779 116.136 66.5299 116.408 66.4339C116.68 66.3299 116.904 66.1899 117.08 66.0139C117.264 65.8379 117.4 65.6259 117.488 65.3779C117.584 65.1299 117.632 64.8579 117.632 64.5619C117.632 63.9539 117.448 63.4739 117.08 63.1219C116.72 62.7619 116.176 62.5819 115.448 62.5819C114.72 62.5819 114.172 62.7619 113.804 63.1219C113.444 63.4739 113.264 63.9539 113.264 64.5619C113.264 64.8499 113.308 65.1179 113.396 65.3659C113.492 65.6139 113.628 65.8299 113.804 66.0139C113.988 66.1899 114.216 66.3299 114.488 66.4339C114.768 66.5299 115.088 66.5779 115.448 66.5779ZM118.796 73.5859C118.796 73.3459 118.724 73.1499 118.58 72.9979C118.436 72.8459 118.24 72.7299 117.992 72.6499C117.744 72.5619 117.452 72.4979 117.116 72.4579C116.788 72.4179 116.436 72.3899 116.06 72.3739C115.692 72.3499 115.308 72.3299 114.908 72.3139C114.516 72.2979 114.132 72.2659 113.756 72.2179C113.428 72.4019 113.16 72.6179 112.952 72.8659C112.752 73.1139 112.652 73.4019 112.652 73.7299C112.652 73.9459 112.704 74.1459 112.808 74.3299C112.92 74.5219 113.092 74.6859 113.324 74.8219C113.564 74.9579 113.872 75.0619 114.248 75.1339C114.624 75.2139 115.084 75.2539 115.628 75.2539C116.18 75.2539 116.656 75.2099 117.056 75.1219C117.456 75.0419 117.784 74.9259 118.04 74.7739C118.304 74.6299 118.496 74.4539 118.616 74.2459C118.736 74.0459 118.796 73.8259 118.796 73.5859ZM121.748 61.1419V62.2459C121.748 62.5979 121.536 62.8139 121.112 62.8939L120.008 63.0979C120.176 63.5219 120.26 63.9859 120.26 64.4899C120.26 65.0979 120.136 65.6499 119.888 66.1459C119.648 66.6339 119.312 67.0499 118.88 67.3939C118.448 67.7379 117.936 68.0059 117.344 68.1979C116.76 68.3819 116.128 68.4739 115.448 68.4739C115.208 68.4739 114.976 68.4619 114.752 68.4379C114.528 68.4139 114.308 68.3819 114.092 68.3419C113.708 68.5739 113.516 68.8339 113.516 69.1219C113.516 69.3699 113.628 69.5539 113.852 69.6739C114.084 69.7859 114.388 69.8659 114.764 69.9139C115.14 69.9619 115.568 69.9939 116.048 70.0099C116.528 70.0179 117.02 70.0419 117.524 70.0819C118.028 70.1219 118.52 70.1939 119 70.2979C119.48 70.3939 119.908 70.5499 120.284 70.7659C120.66 70.9819 120.96 71.2779 121.184 71.6539C121.416 72.0219 121.532 72.4979 121.532 73.0819C121.532 73.6259 121.396 74.1539 121.124 74.6659C120.86 75.1779 120.472 75.6339 119.96 76.0339C119.456 76.4339 118.832 76.7539 118.088 76.9939C117.352 77.2419 116.512 77.3659 115.568 77.3659C114.64 77.3659 113.832 77.2739 113.144 77.0899C112.456 76.9139 111.884 76.6739 111.428 76.3699C110.972 76.0739 110.632 75.7299 110.408 75.3379C110.184 74.9459 110.072 74.5379 110.072 74.1139C110.072 73.5379 110.244 73.0579 110.588 72.6739C110.94 72.2819 111.42 71.9699 112.028 71.7379C111.7 71.5699 111.44 71.3459 111.248 71.0659C111.056 70.7859 110.96 70.4179 110.96 69.9619C110.96 69.7779 110.992 69.5899 111.056 69.3979C111.128 69.1979 111.228 69.0019 111.356 68.8099C111.492 68.6179 111.66 68.4379 111.86 68.2699C112.06 68.0939 112.296 67.9379 112.568 67.8019C111.944 67.4659 111.452 67.0179 111.092 66.4579C110.74 65.8979 110.564 65.2419 110.564 64.4899C110.564 63.8819 110.684 63.3339 110.924 62.8459C111.172 62.3499 111.512 61.9299 111.944 61.5859C112.384 61.2339 112.9 60.9659 113.492 60.7819C114.092 60.5979 114.744 60.5059 115.448 60.5059C115.976 60.5059 116.472 60.5619 116.936 60.6739C117.4 60.7779 117.824 60.9339 118.208 61.1419H121.748Z" fill="#31479E"/>
<path d="M137.192 63.8659C136.856 63.4579 136.488 63.1699 136.088 63.0019C135.696 62.8339 135.272 62.7499 134.816 62.7499C134.368 62.7499 133.964 62.8339 133.604 63.0019C133.244 63.1699 132.936 63.4259 132.68 63.7699C132.424 64.1059 132.228 64.5379 132.092 65.0659C131.956 65.5859 131.888 66.2019 131.888 66.9139C131.888 67.6339 131.944 68.2459 132.056 68.7499C132.176 69.2459 132.344 69.6539 132.56 69.9739C132.776 70.2859 133.04 70.5139 133.352 70.6579C133.664 70.7939 134.012 70.8619 134.396 70.8619C135.012 70.8619 135.536 70.7339 135.968 70.4779C136.4 70.2219 136.808 69.8579 137.192 69.3859V63.8659ZM140.156 55.2019V73.0339H138.344C137.952 73.0339 137.704 72.8539 137.6 72.4939L137.348 71.3059C136.852 71.8739 136.28 72.3339 135.632 72.6859C134.992 73.0379 134.244 73.2139 133.388 73.2139C132.716 73.2139 132.1 73.0739 131.54 72.7939C130.98 72.5139 130.496 72.1099 130.088 71.5819C129.688 71.0459 129.376 70.3859 129.152 69.6019C128.936 68.8179 128.828 67.9219 128.828 66.9139C128.828 66.0019 128.952 65.1539 129.2 64.3699C129.448 63.5859 129.804 62.9059 130.268 62.3299C130.732 61.7539 131.288 61.3059 131.936 60.9859C132.584 60.6579 133.312 60.4939 134.12 60.4939C134.808 60.4939 135.396 60.6019 135.884 60.8179C136.372 61.0339 136.808 61.3259 137.192 61.6939V55.2019H140.156Z" fill="#31479E"/>
<path d="M146.153 60.7219V73.0339H143.177V60.7219H146.153ZM146.561 57.1339C146.561 57.3899 146.509 57.6299 146.405 57.8539C146.301 58.0779 146.161 58.2739 145.985 58.4419C145.817 58.6099 145.617 58.7459 145.385 58.8499C145.153 58.9459 144.905 58.9939 144.641 58.9939C144.385 58.9939 144.141 58.9459 143.909 58.8499C143.685 58.7459 143.489 58.6099 143.321 58.4419C143.153 58.2739 143.017 58.0779 142.913 57.8539C142.817 57.6299 142.769 57.3899 142.769 57.1339C142.769 56.8699 142.817 56.6219 142.913 56.3899C143.017 56.1579 143.153 55.9579 143.321 55.7899C143.489 55.6219 143.685 55.4899 143.909 55.3939C144.141 55.2899 144.385 55.2379 144.641 55.2379C144.905 55.2379 145.153 55.2899 145.385 55.3939C145.617 55.4899 145.817 55.6219 145.985 55.7899C146.161 55.9579 146.301 56.1579 146.405 56.3899C146.509 56.6219 146.561 56.8699 146.561 57.1339Z" fill="#31479E"/>
<path d="M153.675 66.5779C154.043 66.5779 154.363 66.5299 154.635 66.4339C154.907 66.3299 155.131 66.1899 155.307 66.0139C155.491 65.8379 155.627 65.6259 155.715 65.3779C155.811 65.1299 155.859 64.8579 155.859 64.5619C155.859 63.9539 155.675 63.4739 155.307 63.1219C154.947 62.7619 154.403 62.5819 153.675 62.5819C152.947 62.5819 152.399 62.7619 152.031 63.1219C151.671 63.4739 151.491 63.9539 151.491 64.5619C151.491 64.8499 151.535 65.1179 151.623 65.3659C151.719 65.6139 151.855 65.8299 152.031 66.0139C152.215 66.1899 152.443 66.3299 152.715 66.4339C152.995 66.5299 153.315 66.5779 153.675 66.5779ZM157.023 73.5859C157.023 73.3459 156.951 73.1499 156.807 72.9979C156.663 72.8459 156.467 72.7299 156.219 72.6499C155.971 72.5619 155.679 72.4979 155.343 72.4579C155.015 72.4179 154.663 72.3899 154.287 72.3739C153.919 72.3499 153.535 72.3299 153.135 72.3139C152.743 72.2979 152.359 72.2659 151.983 72.2179C151.655 72.4019 151.387 72.6179 151.179 72.8659C150.979 73.1139 150.879 73.4019 150.879 73.7299C150.879 73.9459 150.931 74.1459 151.035 74.3299C151.147 74.5219 151.319 74.6859 151.551 74.8219C151.791 74.9579 152.099 75.0619 152.475 75.1339C152.851 75.2139 153.311 75.2539 153.855 75.2539C154.407 75.2539 154.883 75.2099 155.283 75.1219C155.683 75.0419 156.011 74.9259 156.267 74.7739C156.531 74.6299 156.723 74.4539 156.843 74.2459C156.963 74.0459 157.023 73.8259 157.023 73.5859ZM159.975 61.1419V62.2459C159.975 62.5979 159.763 62.8139 159.339 62.8939L158.235 63.0979C158.403 63.5219 158.487 63.9859 158.487 64.4899C158.487 65.0979 158.363 65.6499 158.115 66.1459C157.875 66.6339 157.539 67.0499 157.107 67.3939C156.675 67.7379 156.163 68.0059 155.571 68.1979C154.987 68.3819 154.355 68.4739 153.675 68.4739C153.435 68.4739 153.203 68.4619 152.979 68.4379C152.755 68.4139 152.535 68.3819 152.319 68.3419C151.935 68.5739 151.743 68.8339 151.743 69.1219C151.743 69.3699 151.855 69.5539 152.079 69.6739C152.311 69.7859 152.615 69.8659 152.991 69.9139C153.367 69.9619 153.795 69.9939 154.275 70.0099C154.755 70.0179 155.247 70.0419 155.751 70.0819C156.255 70.1219 156.747 70.1939 157.227 70.2979C157.707 70.3939 158.135 70.5499 158.511 70.7659C158.887 70.9819 159.187 71.2779 159.411 71.6539C159.643 72.0219 159.759 72.4979 159.759 73.0819C159.759 73.6259 159.623 74.1539 159.351 74.6659C159.087 75.1779 158.699 75.6339 158.187 76.0339C157.683 76.4339 157.059 76.7539 156.315 76.9939C155.579 77.2419 154.739 77.3659 153.795 77.3659C152.867 77.3659 152.059 77.2739 151.371 77.0899C150.683 76.9139 150.111 76.6739 149.655 76.3699C149.199 76.0739 148.859 75.7299 148.635 75.3379C148.411 74.9459 148.299 74.5379 148.299 74.1139C148.299 73.5379 148.471 73.0579 148.815 72.6739C149.167 72.2819 149.647 71.9699 150.255 71.7379C149.927 71.5699 149.667 71.3459 149.475 71.0659C149.283 70.7859 149.187 70.4179 149.187 69.9619C149.187 69.7779 149.219 69.5899 149.283 69.3979C149.355 69.1979 149.455 69.0019 149.583 68.8099C149.719 68.6179 149.887 68.4379 150.087 68.2699C150.287 68.0939 150.523 67.9379 150.795 67.8019C150.171 67.4659 149.679 67.0179 149.319 66.4579C148.967 65.8979 148.791 65.2419 148.791 64.4899C148.791 63.8819 148.911 63.3339 149.151 62.8459C149.399 62.3499 149.739 61.9299 150.171 61.5859C150.611 61.2339 151.127 60.9659 151.719 60.7819C152.319 60.5979 152.971 60.5059 153.675 60.5059C154.203 60.5059 154.699 60.5619 155.163 60.6739C155.627 60.7779 156.051 60.9339 156.435 61.1419H159.975Z" fill="#31479E"/>
<path d="M164.927 60.7219V73.0339H161.951V60.7219H164.927ZM165.335 57.1339C165.335 57.3899 165.283 57.6299 165.179 57.8539C165.075 58.0779 164.935 58.2739 164.759 58.4419C164.591 58.6099 164.391 58.7459 164.159 58.8499C163.927 58.9459 163.679 58.9939 163.415 58.9939C163.159 58.9939 162.915 58.9459 162.683 58.8499C162.459 58.7459 162.263 58.6099 162.095 58.4419C161.927 58.2739 161.791 58.0779 161.687 57.8539C161.591 57.6299 161.543 57.3899 161.543 57.1339C161.543 56.8699 161.591 56.6219 161.687 56.3899C161.791 56.1579 161.927 55.9579 162.095 55.7899C162.263 55.6219 162.459 55.4899 162.683 55.3939C162.915 55.2899 163.159 55.2379 163.415 55.2379C163.679 55.2379 163.927 55.2899 164.159 55.3939C164.391 55.4899 164.591 55.6219 164.759 55.7899C164.935 55.9579 165.075 56.1579 165.179 56.3899C165.283 56.6219 165.335 56.8699 165.335 57.1339Z" fill="#31479E"/>
<path d="M172.052 73.2259C170.98 73.2259 170.156 72.9259 169.58 72.3259C169.012 71.7179 168.728 70.8819 168.728 69.8179V62.9419H167.468C167.308 62.9419 167.172 62.8899 167.06 62.7859C166.948 62.6819 166.892 62.5259 166.892 62.3179V61.1419L168.872 60.8179L169.496 57.4579C169.536 57.2979 169.612 57.1739 169.724 57.0859C169.836 56.9979 169.98 56.9539 170.156 56.9539H171.692V60.8299H174.98V62.9419H171.692V69.6139C171.692 69.9979 171.784 70.2979 171.968 70.5139C172.16 70.7299 172.42 70.8379 172.748 70.8379C172.932 70.8379 173.084 70.8179 173.204 70.7779C173.332 70.7299 173.44 70.6819 173.528 70.6339C173.624 70.5859 173.708 70.5419 173.78 70.5019C173.852 70.4539 173.924 70.4299 173.996 70.4299C174.084 70.4299 174.156 70.4539 174.212 70.5019C174.268 70.5419 174.328 70.6059 174.392 70.6939L175.28 72.1339C174.848 72.4939 174.352 72.7659 173.792 72.9499C173.232 73.1339 172.652 73.2259 172.052 73.2259Z" fill="#31479E"/>
<path d="M183.382 67.7779C182.526 67.8179 181.806 67.8939 181.222 68.0059C180.638 68.1099 180.17 68.2459 179.818 68.4139C179.466 68.5819 179.214 68.7779 179.062 69.0019C178.91 69.2259 178.834 69.4699 178.834 69.7339C178.834 70.2539 178.986 70.6259 179.29 70.8499C179.602 71.0739 180.006 71.1859 180.502 71.1859C181.11 71.1859 181.634 71.0779 182.074 70.8619C182.522 70.6379 182.958 70.3019 183.382 69.8539V67.7779ZM176.59 62.4379C178.006 61.1419 179.71 60.4939 181.702 60.4939C182.422 60.4939 183.066 60.6139 183.634 60.8539C184.202 61.0859 184.682 61.4139 185.074 61.8379C185.466 62.2539 185.762 62.7539 185.962 63.3379C186.17 63.9219 186.274 64.5619 186.274 65.2579V73.0339H184.93C184.65 73.0339 184.434 72.9939 184.282 72.9139C184.13 72.8259 184.01 72.6539 183.922 72.3979L183.658 71.5099C183.346 71.7899 183.042 72.0379 182.746 72.2539C182.45 72.4619 182.142 72.6379 181.822 72.7819C181.502 72.9259 181.158 73.0339 180.79 73.1059C180.43 73.1859 180.03 73.2259 179.59 73.2259C179.07 73.2259 178.59 73.1579 178.15 73.0219C177.71 72.8779 177.33 72.6659 177.01 72.3859C176.69 72.1059 176.442 71.7579 176.266 71.3419C176.09 70.9259 176.002 70.4419 176.002 69.8899C176.002 69.5779 176.054 69.2699 176.158 68.9659C176.262 68.6539 176.43 68.3579 176.662 68.0779C176.902 67.7979 177.21 67.5339 177.586 67.2859C177.962 67.0379 178.422 66.8219 178.966 66.6379C179.518 66.4539 180.158 66.3059 180.886 66.1939C181.614 66.0739 182.446 66.0019 183.382 65.9779V65.2579C183.382 64.4339 183.206 63.8259 182.854 63.4339C182.502 63.0339 181.994 62.8339 181.33 62.8339C180.85 62.8339 180.45 62.8899 180.13 63.0019C179.818 63.1139 179.542 63.2419 179.302 63.3859C179.062 63.5219 178.842 63.6459 178.642 63.7579C178.45 63.8699 178.234 63.9259 177.994 63.9259C177.786 63.9259 177.61 63.8739 177.466 63.7699C177.322 63.6579 177.206 63.5299 177.118 63.3859L176.59 62.4379Z" fill="#31479E"/>
<path d="M192.066 55.2019V73.0339H189.102V55.2019H192.066Z" fill="#31479E"/>
<path d="M203.651 62.8579C204.035 62.1219 204.491 61.5459 205.019 61.1299C205.547 60.7059 206.171 60.4939 206.891 60.4939C207.459 60.4939 207.915 60.6179 208.259 60.8659L208.067 63.0859C208.027 63.2299 207.967 63.3339 207.887 63.3979C207.815 63.4539 207.715 63.4819 207.587 63.4819C207.467 63.4819 207.287 63.4619 207.047 63.4219C206.815 63.3819 206.587 63.3619 206.363 63.3619C206.035 63.3619 205.743 63.4099 205.487 63.5059C205.231 63.6019 204.999 63.7419 204.791 63.9259C204.591 64.1019 204.411 64.3179 204.251 64.5739C204.099 64.8299 203.955 65.1219 203.819 65.4499V73.0339H200.855V60.7219H202.595C202.899 60.7219 203.111 60.7779 203.231 60.8899C203.351 60.9939 203.431 61.1859 203.471 61.4659L203.651 62.8579Z" fill="#31479E"/>
<path d="M217.388 65.4619C217.388 65.0779 217.332 64.7179 217.22 64.3819C217.116 64.0379 216.956 63.7379 216.74 63.4819C216.524 63.2259 216.248 63.0259 215.912 62.8819C215.584 62.7299 215.2 62.6539 214.76 62.6539C213.904 62.6539 213.228 62.8979 212.732 63.3859C212.244 63.8739 211.932 64.5659 211.796 65.4619H217.388ZM211.736 67.2499C211.784 67.8819 211.896 68.4299 212.072 68.8939C212.248 69.3499 212.48 69.7299 212.768 70.0339C213.056 70.3299 213.396 70.5539 213.788 70.7059C214.188 70.8499 214.628 70.9219 215.108 70.9219C215.588 70.9219 216 70.8659 216.344 70.7539C216.696 70.6419 217 70.5179 217.256 70.3819C217.52 70.2459 217.748 70.1219 217.94 70.0099C218.14 69.8979 218.332 69.8419 218.516 69.8419C218.764 69.8419 218.948 69.9339 219.068 70.1179L219.92 71.1979C219.592 71.5819 219.224 71.9059 218.816 72.1699C218.408 72.4259 217.98 72.6339 217.532 72.7939C217.092 72.9459 216.64 73.0539 216.176 73.1179C215.72 73.1819 215.276 73.2139 214.844 73.2139C213.988 73.2139 213.192 73.0739 212.456 72.7939C211.72 72.5059 211.08 72.0859 210.536 71.5339C209.992 70.9739 209.564 70.2859 209.252 69.4699C208.94 68.6459 208.784 67.6939 208.784 66.6139C208.784 65.7739 208.92 64.9859 209.192 64.2499C209.464 63.5059 209.852 62.8619 210.356 62.3179C210.868 61.7659 211.488 61.3299 212.216 61.0099C212.952 60.6899 213.78 60.5299 214.7 60.5299C215.476 60.5299 216.192 60.6539 216.848 60.9019C217.504 61.1499 218.068 61.5139 218.54 61.9939C219.012 62.4659 219.38 63.0499 219.644 63.7459C219.916 64.4339 220.052 65.2219 220.052 66.1099C220.052 66.5579 220.004 66.8619 219.908 67.0219C219.812 67.1739 219.628 67.2499 219.356 67.2499H211.736Z" fill="#31479E"/>
<path d="M229.788 63.1219C229.708 63.2499 229.624 63.3419 229.536 63.3979C229.448 63.4459 229.336 63.4699 229.2 63.4699C229.056 63.4699 228.9 63.4299 228.732 63.3499C228.572 63.2699 228.384 63.1819 228.168 63.0859C227.952 62.9819 227.704 62.8899 227.424 62.8099C227.152 62.7299 226.828 62.6899 226.452 62.6899C225.868 62.6899 225.408 62.8139 225.072 63.0619C224.744 63.3099 224.58 63.6339 224.58 64.0339C224.58 64.2979 224.664 64.5219 224.832 64.7059C225.008 64.8819 225.236 65.0379 225.516 65.1739C225.804 65.3099 226.128 65.4339 226.488 65.5459C226.848 65.6499 227.212 65.7659 227.58 65.8939C227.956 66.0219 228.324 66.1699 228.684 66.3379C229.044 66.4979 229.364 66.7059 229.644 66.9619C229.932 67.2099 230.16 67.5099 230.328 67.8619C230.504 68.2139 230.592 68.6379 230.592 69.1339C230.592 69.7259 230.484 70.2739 230.268 70.7779C230.06 71.2739 229.748 71.7059 229.332 72.0739C228.916 72.4339 228.4 72.7179 227.784 72.9259C227.176 73.1259 226.472 73.2259 225.672 73.2259C225.248 73.2259 224.832 73.1859 224.424 73.1059C224.024 73.0339 223.636 72.9299 223.26 72.7939C222.892 72.6579 222.548 72.4979 222.228 72.3139C221.916 72.1299 221.64 71.9299 221.4 71.7139L222.084 70.5859C222.172 70.4499 222.276 70.3459 222.396 70.2739C222.516 70.2019 222.668 70.1659 222.852 70.1659C223.036 70.1659 223.208 70.2179 223.368 70.3219C223.536 70.4259 223.728 70.5379 223.944 70.6579C224.16 70.7779 224.412 70.8899 224.7 70.9939C224.996 71.0979 225.368 71.1499 225.816 71.1499C226.168 71.1499 226.468 71.1099 226.716 71.0299C226.972 70.9419 227.18 70.8299 227.34 70.6939C227.508 70.5579 227.628 70.4019 227.7 70.2259C227.78 70.0419 227.82 69.8539 227.82 69.6619C227.82 69.3739 227.732 69.1379 227.556 68.9539C227.388 68.7699 227.16 68.6099 226.872 68.4739C226.592 68.3379 226.268 68.2179 225.9 68.1139C225.54 68.0019 225.168 67.8819 224.784 67.7539C224.408 67.6259 224.036 67.4779 223.668 67.3099C223.308 67.1339 222.984 66.9139 222.696 66.6499C222.416 66.3859 222.188 66.0619 222.012 65.6779C221.844 65.2939 221.76 64.8299 221.76 64.2859C221.76 63.7819 221.86 63.3019 222.06 62.8459C222.26 62.3899 222.552 61.9939 222.936 61.6579C223.328 61.3139 223.812 61.0419 224.388 60.8419C224.972 60.6339 225.644 60.5299 226.404 60.5299C227.252 60.5299 228.024 60.6699 228.72 60.9499C229.416 61.2299 229.996 61.5979 230.46 62.0539L229.788 63.1219Z" fill="#31479E"/>
<path d="M238.271 60.5299C239.183 60.5299 240.011 60.6779 240.755 60.9739C241.507 61.2699 242.147 61.6899 242.675 62.2339C243.211 62.7779 243.623 63.4419 243.911 64.2259C244.199 65.0099 244.343 65.8859 244.343 66.8539C244.343 67.8299 244.199 68.7099 243.911 69.4939C243.623 70.2779 243.211 70.9459 242.675 71.4979C242.147 72.0499 241.507 72.4739 240.755 72.7699C240.011 73.0659 239.183 73.2139 238.271 73.2139C237.351 73.2139 236.515 73.0659 235.763 72.7699C235.011 72.4739 234.367 72.0499 233.831 71.4979C233.303 70.9459 232.891 70.2779 232.595 69.4939C232.307 68.7099 232.163 67.8299 232.163 66.8539C232.163 65.8859 232.307 65.0099 232.595 64.2259C232.891 63.4419 233.303 62.7779 233.831 62.2339C234.367 61.6899 235.011 61.2699 235.763 60.9739C236.515 60.6779 237.351 60.5299 238.271 60.5299ZM238.271 70.9339C239.295 70.9339 240.051 70.5899 240.539 69.9019C241.035 69.2139 241.283 68.2059 241.283 66.8779C241.283 65.5499 241.035 64.5379 240.539 63.8419C240.051 63.1459 239.295 62.7979 238.271 62.7979C237.231 62.7979 236.459 63.1499 235.955 63.8539C235.459 64.5499 235.211 65.5579 235.211 66.8779C235.211 68.1979 235.459 69.2059 235.955 69.9019C236.459 70.5899 237.231 70.9339 238.271 70.9339Z" fill="#31479E"/>
<path d="M257.213 60.7219V73.0339H255.401C255.009 73.0339 254.761 72.8539 254.657 72.4939L254.453 71.5099C253.949 72.0219 253.393 72.4379 252.785 72.7579C252.177 73.0699 251.461 73.2259 250.637 73.2259C249.965 73.2259 249.369 73.1139 248.849 72.8899C248.337 72.6579 247.905 72.3339 247.553 71.9179C247.201 71.5019 246.933 71.0099 246.749 70.4419C246.573 69.8659 246.485 69.2339 246.485 68.5459V60.7219H249.449V68.5459C249.449 69.2979 249.621 69.8819 249.965 70.2979C250.317 70.7059 250.841 70.9099 251.537 70.9099C252.049 70.9099 252.529 70.7979 252.977 70.5739C253.425 70.3419 253.849 70.0259 254.249 69.6259V60.7219H257.213Z" fill="#31479E"/>
<path d="M262.947 62.8579C263.331 62.1219 263.787 61.5459 264.315 61.1299C264.843 60.7059 265.467 60.4939 266.187 60.4939C266.755 60.4939 267.211 60.6179 267.555 60.8659L267.363 63.0859C267.323 63.2299 267.263 63.3339 267.183 63.3979C267.111 63.4539 267.011 63.4819 266.883 63.4819C266.763 63.4819 266.583 63.4619 266.343 63.4219C266.111 63.3819 265.883 63.3619 265.659 63.3619C265.331 63.3619 265.039 63.4099 264.783 63.5059C264.527 63.6019 264.295 63.7419 264.087 63.9259C263.887 64.1019 263.707 64.3179 263.547 64.5739C263.395 64.8299 263.251 65.1219 263.115 65.4499V73.0339H260.151V60.7219H261.891C262.195 60.7219 262.407 60.7779 262.527 60.8899C262.647 60.9939 262.727 61.1859 262.767 61.4659L262.947 62.8579Z" fill="#31479E"/>
<path d="M277.573 63.3259C277.485 63.4379 277.397 63.5259 277.309 63.5899C277.229 63.6539 277.109 63.6859 276.949 63.6859C276.797 63.6859 276.649 63.6419 276.505 63.5539C276.361 63.4579 276.189 63.3539 275.989 63.2419C275.789 63.1219 275.549 63.0179 275.269 62.9299C274.997 62.8339 274.657 62.7859 274.249 62.7859C273.729 62.7859 273.273 62.8819 272.881 63.0739C272.489 63.2579 272.161 63.5259 271.897 63.8779C271.641 64.2299 271.449 64.6579 271.321 65.1619C271.193 65.6579 271.129 66.2219 271.129 66.8539C271.129 67.5099 271.197 68.0939 271.333 68.6059C271.477 69.1179 271.681 69.5499 271.945 69.9019C272.209 70.2459 272.529 70.5099 272.905 70.6939C273.281 70.8699 273.705 70.9579 274.177 70.9579C274.649 70.9579 275.029 70.9019 275.317 70.7899C275.613 70.6699 275.861 70.5419 276.061 70.4059C276.261 70.2619 276.433 70.1339 276.577 70.0219C276.729 69.9019 276.897 69.8419 277.081 69.8419C277.321 69.8419 277.501 69.9339 277.621 70.1179L278.473 71.1979C278.145 71.5819 277.789 71.9059 277.405 72.1699C277.021 72.4259 276.621 72.6339 276.205 72.7939C275.797 72.9459 275.373 73.0539 274.933 73.1179C274.501 73.1819 274.069 73.2139 273.637 73.2139C272.877 73.2139 272.161 73.0739 271.489 72.7939C270.817 72.5059 270.229 72.0899 269.725 71.5459C269.221 71.0019 268.821 70.3379 268.525 69.5539C268.237 68.7619 268.093 67.8619 268.093 66.8539C268.093 65.9499 268.221 65.1139 268.477 64.3459C268.741 63.5699 269.125 62.9019 269.629 62.3419C270.133 61.7739 270.757 61.3299 271.501 61.0099C272.245 60.6899 273.101 60.5299 274.069 60.5299C274.989 60.5299 275.793 60.6779 276.481 60.9739C277.177 61.2699 277.801 61.6939 278.353 62.2459L277.573 63.3259Z" fill="#31479E"/>
<path d="M288.052 65.4619C288.052 65.0779 287.996 64.7179 287.884 64.3819C287.78 64.0379 287.62 63.7379 287.404 63.4819C287.188 63.2259 286.912 63.0259 286.576 62.8819C286.248 62.7299 285.864 62.6539 285.424 62.6539C284.568 62.6539 283.892 62.8979 283.396 63.3859C282.908 63.8739 282.596 64.5659 282.46 65.4619H288.052ZM282.4 67.2499C282.448 67.8819 282.56 68.4299 282.736 68.8939C282.912 69.3499 283.144 69.7299 283.432 70.0339C283.72 70.3299 284.06 70.5539 284.452 70.7059C284.852 70.8499 285.292 70.9219 285.772 70.9219C286.252 70.9219 286.664 70.8659 287.008 70.7539C287.36 70.6419 287.664 70.5179 287.92 70.3819C288.184 70.2459 288.412 70.1219 288.604 70.0099C288.804 69.8979 288.996 69.8419 289.18 69.8419C289.428 69.8419 289.612 69.9339 289.732 70.1179L290.584 71.1979C290.256 71.5819 289.888 71.9059 289.48 72.1699C289.072 72.4259 288.644 72.6339 288.196 72.7939C287.756 72.9459 287.304 73.0539 286.84 73.1179C286.384 73.1819 285.94 73.2139 285.508 73.2139C284.652 73.2139 283.856 73.0739 283.12 72.7939C282.384 72.5059 281.744 72.0859 281.2 71.5339C280.656 70.9739 280.228 70.2859 279.916 69.4699C279.604 68.6459 279.448 67.6939 279.448 66.6139C279.448 65.7739 279.584 64.9859 279.856 64.2499C280.128 63.5059 280.516 62.8619 281.02 62.3179C281.532 61.7659 282.152 61.3299 282.88 61.0099C283.616 60.6899 284.444 60.5299 285.364 60.5299C286.14 60.5299 286.856 60.6539 287.512 60.9019C288.168 61.1499 288.732 61.5139 289.204 61.9939C289.676 62.4659 290.044 63.0499 290.308 63.7459C290.58 64.4339 290.716 65.2219 290.716 66.1099C290.716 66.5579 290.668 66.8619 290.572 67.0219C290.476 67.1739 290.292 67.2499 290.02 67.2499H282.4Z" fill="#31479E"/>
<path d="M300.452 63.1219C300.372 63.2499 300.288 63.3419 300.201 63.3979C300.113 63.4459 300.001 63.4699 299.865 63.4699C299.721 63.4699 299.564 63.4299 299.396 63.3499C299.236 63.2699 299.049 63.1819 298.833 63.0859C298.617 62.9819 298.368 62.8899 298.089 62.8099C297.816 62.7299 297.493 62.6899 297.117 62.6899C296.533 62.6899 296.073 62.8139 295.737 63.0619C295.409 63.3099 295.245 63.6339 295.245 64.0339C295.245 64.2979 295.329 64.5219 295.497 64.7059C295.673 64.8819 295.901 65.0379 296.181 65.1739C296.469 65.3099 296.793 65.4339 297.153 65.5459C297.513 65.6499 297.877 65.7659 298.245 65.8939C298.621 66.0219 298.989 66.1699 299.349 66.3379C299.709 66.4979 300.029 66.7059 300.309 66.9619C300.596 67.2099 300.825 67.5099 300.993 67.8619C301.169 68.2139 301.257 68.6379 301.257 69.1339C301.257 69.7259 301.149 70.2739 300.933 70.7779C300.725 71.2739 300.413 71.7059 299.997 72.0739C299.581 72.4339 299.064 72.7179 298.449 72.9259C297.84 73.1259 297.137 73.2259 296.337 73.2259C295.913 73.2259 295.497 73.1859 295.089 73.1059C294.689 73.0339 294.301 72.9299 293.924 72.7939C293.557 72.6579 293.213 72.4979 292.893 72.3139C292.581 72.1299 292.305 71.9299 292.064 71.7139L292.749 70.5859C292.837 70.4499 292.941 70.3459 293.061 70.2739C293.18 70.2019 293.333 70.1659 293.517 70.1659C293.701 70.1659 293.872 70.2179 294.033 70.3219C294.201 70.4259 294.393 70.5379 294.609 70.6579C294.825 70.7779 295.077 70.8899 295.365 70.9939C295.661 71.0979 296.033 71.1499 296.48 71.1499C296.833 71.1499 297.133 71.1099 297.381 71.0299C297.637 70.9419 297.844 70.8299 298.005 70.6939C298.173 70.5579 298.292 70.4019 298.365 70.2259C298.445 70.0419 298.485 69.8539 298.485 69.6619C298.485 69.3739 298.396 69.1379 298.221 68.9539C298.053 68.7699 297.824 68.6099 297.536 68.4739C297.257 68.3379 296.932 68.2179 296.564 68.1139C296.204 68.0019 295.833 67.8819 295.449 67.7539C295.072 67.6259 294.701 67.4779 294.333 67.3099C293.973 67.1339 293.648 66.9139 293.361 66.6499C293.081 66.3859 292.852 66.0619 292.676 65.6779C292.508 65.2939 292.424 64.8299 292.424 64.2859C292.424 63.7819 292.525 63.3019 292.725 62.8459C292.924 62.3899 293.217 61.9939 293.601 61.6579C293.993 61.3139 294.477 61.0419 295.053 60.8419C295.637 60.6339 296.309 60.5299 297.069 60.5299C297.917 60.5299 298.689 60.6699 299.385 60.9499C300.081 61.2299 300.661 61.5979 301.125 62.0539L300.452 63.1219Z" fill="#31479E"/>
<path d="M326.411 60.7219L322.499 73.0339H320.123C319.851 73.0339 319.663 72.8579 319.559 72.5059L317.351 65.3899C317.279 65.1499 317.211 64.9139 317.147 64.6819C317.091 64.4419 317.043 64.2019 317.003 63.9619C316.955 64.2019 316.899 64.4459 316.835 64.6939C316.779 64.9339 316.715 65.1739 316.643 65.4139L314.399 72.5059C314.303 72.8579 314.091 73.0339 313.763 73.0339H311.483L307.583 60.7219H309.947C310.163 60.7219 310.347 60.7739 310.499 60.8779C310.651 60.9819 310.751 61.1139 310.799 61.2739L312.563 67.8499C312.651 68.2099 312.727 68.5619 312.791 68.9059C312.863 69.2499 312.923 69.5939 312.971 69.9379C313.059 69.5939 313.151 69.2499 313.247 68.9059C313.351 68.5619 313.459 68.2099 313.571 67.8499L315.611 61.2499C315.659 61.0899 315.751 60.9579 315.887 60.8539C316.031 60.7499 316.203 60.6979 316.403 60.6979H317.711C317.919 60.6979 318.095 60.7499 318.239 60.8539C318.391 60.9579 318.491 61.0899 318.539 61.2499L320.519 67.8499C320.623 68.2099 320.719 68.5659 320.807 68.9179C320.903 69.2619 320.995 69.6059 321.083 69.9499C321.187 69.2699 321.335 68.5699 321.527 67.8499L323.339 61.2739C323.395 61.1139 323.495 60.9819 323.639 60.8779C323.783 60.7739 323.955 60.7219 324.155 60.7219H326.411Z" fill="#31479E"/>
<path d="M331.169 60.7219V73.0339H328.193V60.7219H331.169ZM331.577 57.1339C331.577 57.3899 331.525 57.6299 331.421 57.8539C331.317 58.0779 331.177 58.2739 331.001 58.4419C330.833 58.6099 330.633 58.7459 330.401 58.8499C330.169 58.9459 329.921 58.9939 329.657 58.9939C329.401 58.9939 329.157 58.9459 328.925 58.8499C328.701 58.7459 328.505 58.6099 328.337 58.4419C328.169 58.2739 328.033 58.0779 327.929 57.8539C327.833 57.6299 327.785 57.3899 327.785 57.1339C327.785 56.8699 327.833 56.6219 327.929 56.3899C328.033 56.1579 328.169 55.9579 328.337 55.7899C328.505 55.6219 328.701 55.4899 328.925 55.3939C329.157 55.2899 329.401 55.2379 329.657 55.2379C329.921 55.2379 330.169 55.2899 330.401 55.3939C330.633 55.4899 330.833 55.6219 331.001 55.7899C331.177 55.9579 331.317 56.1579 331.421 56.3899C331.525 56.6219 331.577 56.8699 331.577 57.1339Z" fill="#31479E"/>
<path d="M338.294 73.2259C337.223 73.2259 336.398 72.9259 335.823 72.3259C335.255 71.7179 334.971 70.8819 334.971 69.8179V62.9419H333.711C333.551 62.9419 333.414 62.8899 333.302 62.7859C333.19 62.6819 333.134 62.5259 333.134 62.3179V61.1419L335.115 60.8179L335.738 57.4579C335.779 57.2979 335.854 57.1739 335.966 57.0859C336.078 56.9979 336.223 56.9539 336.398 56.9539H337.935V60.8299H341.223V62.9419H337.935V69.6139C337.935 69.9979 338.027 70.2979 338.211 70.5139C338.402 70.7299 338.663 70.8379 338.991 70.8379C339.174 70.8379 339.327 70.8179 339.447 70.7779C339.574 70.7299 339.682 70.6819 339.771 70.6339C339.867 70.5859 339.951 70.5419 340.022 70.5019C340.094 70.4539 340.167 70.4299 340.238 70.4299C340.327 70.4299 340.398 70.4539 340.454 70.5019C340.51 70.5419 340.57 70.6059 340.634 70.6939L341.522 72.1339C341.09 72.4939 340.595 72.7659 340.035 72.9499C339.475 73.1339 338.895 73.2259 338.294 73.2259Z" fill="#31479E"/>
<path d="M346.084 62.0419C346.564 61.5939 347.092 61.2299 347.668 60.9499C348.244 60.6699 348.92 60.5299 349.696 60.5299C350.368 60.5299 350.964 60.6459 351.484 60.8779C352.004 61.1019 352.436 61.4219 352.78 61.8379C353.132 62.2459 353.396 62.7379 353.572 63.3139C353.756 63.8819 353.848 64.5099 353.848 65.1979V73.0339H350.884V65.1979C350.884 64.4459 350.712 63.8659 350.368 63.4579C350.024 63.0419 349.5 62.8339 348.796 62.8339C348.284 62.8339 347.804 62.9499 347.356 63.1819C346.908 63.4139 346.484 63.7299 346.084 64.1299V73.0339H343.12V55.2019H346.084V62.0419Z" fill="#31479E"/>
<path d="M369.007 67.7779C368.151 67.8179 367.431 67.8939 366.847 68.0059C366.263 68.1099 365.795 68.2459 365.443 68.4139C365.091 68.5819 364.839 68.7779 364.687 69.0019C364.535 69.2259 364.459 69.4699 364.459 69.7339C364.459 70.2539 364.611 70.6259 364.915 70.8499C365.227 71.0739 365.631 71.1859 366.127 71.1859C366.735 71.1859 367.259 71.0779 367.699 70.8619C368.147 70.6379 368.583 70.3019 369.007 69.8539V67.7779ZM362.215 62.4379C363.631 61.1419 365.335 60.4939 367.327 60.4939C368.047 60.4939 368.691 60.6139 369.259 60.8539C369.827 61.0859 370.307 61.4139 370.699 61.8379C371.091 62.2539 371.387 62.7539 371.587 63.3379C371.795 63.9219 371.899 64.5619 371.899 65.2579V73.0339H370.555C370.275 73.0339 370.059 72.9939 369.907 72.9139C369.755 72.8259 369.635 72.6539 369.547 72.3979L369.283 71.5099C368.971 71.7899 368.667 72.0379 368.371 72.2539C368.075 72.4619 367.767 72.6379 367.447 72.7819C367.127 72.9259 366.783 73.0339 366.415 73.1059C366.055 73.1859 365.655 73.2259 365.215 73.2259C364.695 73.2259 364.215 73.1579 363.775 73.0219C363.335 72.8779 362.955 72.6659 362.635 72.3859C362.315 72.1059 362.067 71.7579 361.891 71.3419C361.715 70.9259 361.627 70.4419 361.627 69.8899C361.627 69.5779 361.679 69.2699 361.783 68.9659C361.887 68.6539 362.055 68.3579 362.287 68.0779C362.527 67.7979 362.835 67.5339 363.211 67.2859C363.587 67.0379 364.047 66.8219 364.591 66.6379C365.143 66.4539 365.783 66.3059 366.511 66.1939C367.239 66.0739 368.071 66.0019 369.007 65.9779V65.2579C369.007 64.4339 368.831 63.8259 368.479 63.4339C368.127 63.0339 367.619 62.8339 366.955 62.8339C366.475 62.8339 366.075 62.8899 365.755 63.0019C365.443 63.1139 365.167 63.2419 364.927 63.3859C364.687 63.5219 364.467 63.6459 364.267 63.7579C364.075 63.8699 363.859 63.9259 363.619 63.9259C363.411 63.9259 363.235 63.8739 363.091 63.7699C362.947 63.6579 362.831 63.5299 362.743 63.3859L362.215 62.4379Z" fill="#31479E"/>
<path d="M382.419 63.8659C382.083 63.4579 381.715 63.1699 381.315 63.0019C380.923 62.8339 380.499 62.7499 380.043 62.7499C379.595 62.7499 379.19 62.8339 378.831 63.0019C378.471 63.1699 378.163 63.4259 377.906 63.7699C377.65 64.1059 377.454 64.5379 377.319 65.0659C377.183 65.5859 377.115 66.2019 377.115 66.9139C377.115 67.6339 377.171 68.2459 377.283 68.7499C377.402 69.2459 377.57 69.6539 377.786 69.9739C378.003 70.2859 378.266 70.5139 378.578 70.6579C378.891 70.7939 379.238 70.8619 379.622 70.8619C380.238 70.8619 380.763 70.7339 381.195 70.4779C381.627 70.2219 382.035 69.8579 382.419 69.3859V63.8659ZM385.383 55.2019V73.0339H383.57C383.178 73.0339 382.931 72.8539 382.827 72.4939L382.574 71.3059C382.078 71.8739 381.507 72.3339 380.859 72.6859C380.219 73.0379 379.47 73.2139 378.615 73.2139C377.943 73.2139 377.327 73.0739 376.767 72.7939C376.207 72.5139 375.723 72.1099 375.315 71.5819C374.915 71.0459 374.603 70.3859 374.379 69.6019C374.163 68.8179 374.055 67.9219 374.055 66.9139C374.055 66.0019 374.179 65.1539 374.427 64.3699C374.674 63.5859 375.031 62.9059 375.495 62.3299C375.958 61.7539 376.514 61.3059 377.163 60.9859C377.811 60.6579 378.538 60.4939 379.346 60.4939C380.034 60.4939 380.622 60.6019 381.111 60.8179C381.599 61.0339 382.035 61.3259 382.419 61.6939V55.2019H385.383Z" fill="#31479E"/>
<path d="M398.916 60.7219V73.0339H397.104C396.712 73.0339 396.464 72.8539 396.36 72.4939L396.156 71.5099C395.652 72.0219 395.096 72.4379 394.488 72.7579C393.88 73.0699 393.164 73.2259 392.34 73.2259C391.668 73.2259 391.072 73.1139 390.552 72.8899C390.04 72.6579 389.608 72.3339 389.256 71.9179C388.904 71.5019 388.636 71.0099 388.452 70.4419C388.276 69.8659 388.188 69.2339 388.188 68.5459V60.7219H391.152V68.5459C391.152 69.2979 391.324 69.8819 391.668 70.2979C392.02 70.7059 392.544 70.9099 393.24 70.9099C393.752 70.9099 394.232 70.7979 394.68 70.5739C395.128 70.3419 395.552 70.0259 395.952 69.6259V60.7219H398.916Z" fill="#31479E"/>
<path d="M404.855 55.2019V73.0339H401.891V55.2019H404.855Z" fill="#31479E"/>
<path d="M411.912 73.2259C410.84 73.2259 410.016 72.9259 409.44 72.3259C408.872 71.7179 408.588 70.8819 408.588 69.8179V62.9419H407.328C407.168 62.9419 407.032 62.8899 406.92 62.7859C406.808 62.6819 406.752 62.5259 406.752 62.3179V61.1419L408.732 60.8179L409.356 57.4579C409.396 57.2979 409.472 57.1739 409.584 57.0859C409.696 56.9979 409.84 56.9539 410.016 56.9539H411.552V60.8299H414.84V62.9419H411.552V69.6139C411.552 69.9979 411.644 70.2979 411.828 70.5139C412.02 70.7299 412.28 70.8379 412.608 70.8379C412.792 70.8379 412.944 70.8179 413.064 70.7779C413.192 70.7299 413.3 70.6819 413.388 70.6339C413.484 70.5859 413.568 70.5419 413.64 70.5019C413.712 70.4539 413.784 70.4299 413.856 70.4299C413.944 70.4299 414.016 70.4539 414.072 70.5019C414.128 70.5419 414.188 70.6059 414.252 70.6939L415.14 72.1339C414.708 72.4939 414.212 72.7659 413.652 72.9499C413.092 73.1339 412.512 73.2259 411.912 73.2259Z" fill="#31479E"/>
<path d="M425.573 55.2019V73.0339H422.609V55.2019H425.573Z" fill="#31479E"/>
<path d="M436.458 65.4619C436.458 65.0779 436.402 64.7179 436.29 64.3819C436.186 64.0379 436.026 63.7379 435.81 63.4819C435.594 63.2259 435.318 63.0259 434.982 62.8819C434.654 62.7299 434.27 62.6539 433.83 62.6539C432.974 62.6539 432.298 62.8979 431.802 63.3859C431.314 63.8739 431.002 64.5659 430.866 65.4619H436.458ZM430.806 67.2499C430.854 67.8819 430.966 68.4299 431.142 68.8939C431.318 69.3499 431.55 69.7299 431.838 70.0339C432.126 70.3299 432.466 70.5539 432.858 70.7059C433.258 70.8499 433.698 70.9219 434.178 70.9219C434.658 70.9219 435.07 70.8659 435.414 70.7539C435.766 70.6419 436.07 70.5179 436.326 70.3819C436.59 70.2459 436.818 70.1219 437.01 70.0099C437.21 69.8979 437.402 69.8419 437.586 69.8419C437.834 69.8419 438.018 69.9339 438.138 70.1179L438.99 71.1979C438.662 71.5819 438.294 71.9059 437.886 72.1699C437.478 72.4259 437.05 72.6339 436.602 72.7939C436.162 72.9459 435.71 73.0539 435.246 73.1179C434.79 73.1819 434.346 73.2139 433.914 73.2139C433.058 73.2139 432.262 73.0739 431.526 72.7939C430.79 72.5059 430.15 72.0859 429.606 71.5339C429.062 70.9739 428.634 70.2859 428.322 69.4699C428.01 68.6459 427.854 67.6939 427.854 66.6139C427.854 65.7739 427.99 64.9859 428.262 64.2499C428.534 63.5059 428.922 62.8619 429.426 62.3179C429.938 61.7659 430.558 61.3299 431.286 61.0099C432.022 60.6899 432.85 60.5299 433.77 60.5299C434.546 60.5299 435.262 60.6539 435.918 60.9019C436.574 61.1499 437.138 61.5139 437.61 61.9939C438.082 62.4659 438.45 63.0499 438.714 63.7459C438.986 64.4339 439.122 65.2219 439.122 66.1099C439.122 66.5579 439.074 66.8619 438.978 67.0219C438.882 67.1739 438.698 67.2499 438.426 67.2499H430.806Z" fill="#31479E"/>
<path d="M447.851 67.7779C446.995 67.8179 446.275 67.8939 445.691 68.0059C445.107 68.1099 444.639 68.2459 444.287 68.4139C443.935 68.5819 443.683 68.7779 443.531 69.0019C443.379 69.2259 443.303 69.4699 443.303 69.7339C443.303 70.2539 443.455 70.6259 443.759 70.8499C444.071 71.0739 444.475 71.1859 444.971 71.1859C445.579 71.1859 446.103 71.0779 446.543 70.8619C446.991 70.6379 447.427 70.3019 447.851 69.8539V67.7779ZM441.059 62.4379C442.475 61.1419 444.179 60.4939 446.171 60.4939C446.891 60.4939 447.535 60.6139 448.103 60.8539C448.671 61.0859 449.151 61.4139 449.543 61.8379C449.935 62.2539 450.231 62.7539 450.431 63.3379C450.639 63.9219 450.743 64.5619 450.743 65.2579V73.0339H449.399C449.119 73.0339 448.903 72.9939 448.751 72.9139C448.599 72.8259 448.479 72.6539 448.391 72.3979L448.127 71.5099C447.815 71.7899 447.511 72.0379 447.215 72.2539C446.919 72.4619 446.611 72.6379 446.291 72.7819C445.971 72.9259 445.627 73.0339 445.259 73.1059C444.899 73.1859 444.499 73.2259 444.059 73.2259C443.539 73.2259 443.059 73.1579 442.619 73.0219C442.179 72.8779 441.799 72.6659 441.479 72.3859C441.159 72.1059 440.911 71.7579 440.735 71.3419C440.559 70.9259 440.471 70.4419 440.471 69.8899C440.471 69.5779 440.523 69.2699 440.627 68.9659C440.731 68.6539 440.899 68.3579 441.131 68.0779C441.371 67.7979 441.679 67.5339 442.055 67.2859C442.431 67.0379 442.891 66.8219 443.435 66.6379C443.987 66.4539 444.627 66.3059 445.355 66.1939C446.083 66.0739 446.915 66.0019 447.851 65.9779V65.2579C447.851 64.4339 447.675 63.8259 447.323 63.4339C446.971 63.0339 446.463 62.8339 445.799 62.8339C445.319 62.8339 444.919 62.8899 444.599 63.0019C444.287 63.1139 444.011 63.2419 443.771 63.3859C443.531 63.5219 443.311 63.6459 443.111 63.7579C442.919 63.8699 442.703 63.9259 442.463 63.9259C442.255 63.9259 442.079 63.8739 441.935 63.7699C441.791 63.6579 441.675 63.5299 441.587 63.3859L441.059 62.4379Z" fill="#31479E"/>
<path d="M456.33 62.8579C456.714 62.1219 457.17 61.5459 457.698 61.1299C458.226 60.7059 458.85 60.4939 459.57 60.4939C460.138 60.4939 460.594 60.6179 460.938 60.8659L460.746 63.0859C460.706 63.2299 460.646 63.3339 460.566 63.3979C460.494 63.4539 460.394 63.4819 460.266 63.4819C460.146 63.4819 459.966 63.4619 459.726 63.4219C459.494 63.3819 459.266 63.3619 459.042 63.3619C458.714 63.3619 458.422 63.4099 458.166 63.5059C457.91 63.6019 457.678 63.7419 457.47 63.9259C457.27 64.1019 457.09 64.3179 456.93 64.5739C456.778 64.8299 456.634 65.1219 456.498 65.4499V73.0339H453.534V60.7219H455.274C455.578 60.7219 455.79 60.7779 455.91 60.8899C456.03 60.9939 456.11 61.1859 456.15 61.4659L456.33 62.8579Z" fill="#31479E"/>
<path d="M465.259 62.2339C465.507 61.9859 465.767 61.7579 466.039 61.5499C466.319 61.3339 466.611 61.1539 466.915 61.0099C467.227 60.8579 467.559 60.7419 467.911 60.6619C468.263 60.5739 468.647 60.5299 469.063 60.5299C469.735 60.5299 470.331 60.6459 470.851 60.8779C471.371 61.1019 471.803 61.4219 472.147 61.8379C472.499 62.2459 472.763 62.7379 472.939 63.3139C473.123 63.8819 473.215 64.5099 473.215 65.1979V73.0339H470.251V65.1979C470.251 64.4459 470.079 63.8659 469.735 63.4579C469.391 63.0419 468.867 62.8339 468.163 62.8339C467.651 62.8339 467.171 62.9499 466.723 63.1819C466.275 63.4139 465.851 63.7299 465.451 64.1299V73.0339H462.487V60.7219H464.299C464.683 60.7219 464.935 60.9019 465.055 61.2619L465.259 62.2339Z" fill="#31479E"/>
<path d="M483.966 65.4619C483.966 65.0779 483.91 64.7179 483.798 64.3819C483.694 64.0379 483.534 63.7379 483.318 63.4819C483.102 63.2259 482.826 63.0259 482.49 62.8819C482.162 62.7299 481.778 62.6539 481.338 62.6539C480.482 62.6539 479.806 62.8979 479.31 63.3859C478.822 63.8739 478.51 64.5659 478.374 65.4619H483.966ZM478.314 67.2499C478.362 67.8819 478.474 68.4299 478.65 68.8939C478.826 69.3499 479.058 69.7299 479.346 70.0339C479.634 70.3299 479.974 70.5539 480.366 70.7059C480.766 70.8499 481.206 70.9219 481.686 70.9219C482.166 70.9219 482.578 70.8659 482.922 70.7539C483.274 70.6419 483.578 70.5179 483.834 70.3819C484.098 70.2459 484.326 70.1219 484.518 70.0099C484.718 69.8979 484.91 69.8419 485.094 69.8419C485.342 69.8419 485.526 69.9339 485.646 70.1179L486.498 71.1979C486.17 71.5819 485.802 71.9059 485.394 72.1699C484.986 72.4259 484.558 72.6339 484.11 72.7939C483.67 72.9459 483.218 73.0539 482.754 73.1179C482.298 73.1819 481.854 73.2139 481.422 73.2139C480.566 73.2139 479.77 73.0739 479.034 72.7939C478.298 72.5059 477.658 72.0859 477.114 71.5339C476.57 70.9739 476.142 70.2859 475.83 69.4699C475.518 68.6459 475.362 67.6939 475.362 66.6139C475.362 65.7739 475.498 64.9859 475.77 64.2499C476.042 63.5059 476.43 62.8619 476.934 62.3179C477.446 61.7659 478.066 61.3299 478.794 61.0099C479.53 60.6899 480.358 60.5299 481.278 60.5299C482.054 60.5299 482.77 60.6539 483.426 60.9019C484.082 61.1499 484.646 61.5139 485.118 61.9939C485.59 62.4659 485.958 63.0499 486.222 63.7459C486.494 64.4339 486.63 65.2219 486.63 66.1099C486.63 66.5579 486.582 66.8619 486.486 67.0219C486.39 67.1739 486.206 67.2499 485.934 67.2499H478.314Z" fill="#31479E"/>
<path d="M491.651 62.8579C492.035 62.1219 492.491 61.5459 493.019 61.1299C493.547 60.7059 494.171 60.4939 494.891 60.4939C495.459 60.4939 495.915 60.6179 496.259 60.8659L496.067 63.0859C496.027 63.2299 495.967 63.3339 495.887 63.3979C495.815 63.4539 495.715 63.4819 495.587 63.4819C495.467 63.4819 495.287 63.4619 495.047 63.4219C494.815 63.3819 494.587 63.3619 494.363 63.3619C494.035 63.3619 493.743 63.4099 493.487 63.5059C493.231 63.6019 492.999 63.7419 492.791 63.9259C492.591 64.1019 492.411 64.3179 492.251 64.5739C492.099 64.8299 491.955 65.1219 491.819 65.4499V73.0339H488.855V60.7219H490.595C490.899 60.7219 491.111 60.7779 491.231 60.8899C491.351 60.9939 491.431 61.1859 491.471 61.4659L491.651 62.8579Z" fill="#31479E"/>
<path d="M505.273 63.1219C505.193 63.2499 505.109 63.3419 505.021 63.3979C504.933 63.4459 504.821 63.4699 504.685 63.4699C504.541 63.4699 504.385 63.4299 504.217 63.3499C504.057 63.2699 503.869 63.1819 503.653 63.0859C503.437 62.9819 503.189 62.8899 502.909 62.8099C502.637 62.7299 502.313 62.6899 501.937 62.6899C501.353 62.6899 500.893 62.8139 500.557 63.0619C500.229 63.3099 500.065 63.6339 500.065 64.0339C500.065 64.2979 500.149 64.5219 500.317 64.7059C500.493 64.8819 500.721 65.0379 501.001 65.1739C501.289 65.3099 501.613 65.4339 501.973 65.5459C502.333 65.6499 502.697 65.7659 503.065 65.8939C503.441 66.0219 503.809 66.1699 504.169 66.3379C504.529 66.4979 504.849 66.7059 505.129 66.9619C505.417 67.2099 505.645 67.5099 505.813 67.8619C505.989 68.2139 506.077 68.6379 506.077 69.1339C506.077 69.7259 505.969 70.2739 505.753 70.7779C505.545 71.2739 505.233 71.7059 504.817 72.0739C504.401 72.4339 503.885 72.7179 503.269 72.9259C502.661 73.1259 501.957 73.2259 501.157 73.2259C500.733 73.2259 500.317 73.1859 499.909 73.1059C499.509 73.0339 499.121 72.9299 498.745 72.7939C498.377 72.6579 498.033 72.4979 497.713 72.3139C497.401 72.1299 497.125 71.9299 496.885 71.7139L497.569 70.5859C497.657 70.4499 497.761 70.3459 497.881 70.2739C498.001 70.2019 498.153 70.1659 498.337 70.1659C498.521 70.1659 498.693 70.2179 498.853 70.3219C499.021 70.4259 499.213 70.5379 499.429 70.6579C499.645 70.7779 499.897 70.8899 500.185 70.9939C500.481 71.0979 500.853 71.1499 501.301 71.1499C501.653 71.1499 501.953 71.1099 502.201 71.0299C502.457 70.9419 502.665 70.8299 502.825 70.6939C502.993 70.5579 503.113 70.4019 503.185 70.2259C503.265 70.0419 503.305 69.8539 503.305 69.6619C503.305 69.3739 503.217 69.1379 503.041 68.9539C502.873 68.7699 502.645 68.6099 502.357 68.4739C502.077 68.3379 501.753 68.2179 501.385 68.1139C501.025 68.0019 500.653 67.8819 500.269 67.7539C499.893 67.6259 499.521 67.4779 499.153 67.3099C498.793 67.1339 498.469 66.9139 498.181 66.6499C497.901 66.3859 497.673 66.0619 497.497 65.6779C497.329 65.2939 497.245 64.8299 497.245 64.2859C497.245 63.7819 497.345 63.3019 497.545 62.8459C497.745 62.3899 498.037 61.9939 498.421 61.6579C498.813 61.3139 499.297 61.0419 499.873 60.8419C500.457 60.6339 501.129 60.5299 501.889 60.5299C502.737 60.5299 503.509 60.6699 504.205 60.9499C504.901 61.2299 505.481 61.5979 505.945 62.0539L505.273 63.1219Z" fill="#31479E"/>
<path d="M519.592 60.5299C520.504 60.5299 521.332 60.6779 522.076 60.9739C522.828 61.2699 523.468 61.6899 523.996 62.2339C524.532 62.7779 524.944 63.4419 525.232 64.2259C525.52 65.0099 525.664 65.8859 525.664 66.8539C525.664 67.8299 525.52 68.7099 525.232 69.4939C524.944 70.2779 524.532 70.9459 523.996 71.4979C523.468 72.0499 522.828 72.4739 522.076 72.7699C521.332 73.0659 520.504 73.2139 519.592 73.2139C518.672 73.2139 517.836 73.0659 517.084 72.7699C516.332 72.4739 515.688 72.0499 515.152 71.4979C514.624 70.9459 514.212 70.2779 513.916 69.4939C513.628 68.7099 513.484 67.8299 513.484 66.8539C513.484 65.8859 513.628 65.0099 513.916 64.2259C514.212 63.4419 514.624 62.7779 515.152 62.2339C515.688 61.6899 516.332 61.2699 517.084 60.9739C517.836 60.6779 518.672 60.5299 519.592 60.5299ZM519.592 70.9339C520.616 70.9339 521.372 70.5899 521.86 69.9019C522.356 69.2139 522.604 68.2059 522.604 66.8779C522.604 65.5499 522.356 64.5379 521.86 63.8419C521.372 63.1459 520.616 62.7979 519.592 62.7979C518.552 62.7979 517.78 63.1499 517.276 63.8539C516.78 64.5499 516.532 65.5579 516.532 66.8779C516.532 68.1979 516.78 69.2059 517.276 69.9019C517.78 70.5899 518.552 70.9339 519.592 70.9339Z" fill="#31479E"/>
<path d="M528.484 73.0339V62.9539L527.416 62.7859C527.184 62.7379 526.996 62.6579 526.852 62.5459C526.716 62.4259 526.648 62.2579 526.648 62.0419V60.8299H528.484V59.9179C528.484 59.2139 528.588 58.5819 528.796 58.0219C529.012 57.4619 529.316 56.9859 529.708 56.5939C530.108 56.2019 530.592 55.9019 531.16 55.6939C531.728 55.4859 532.368 55.3819 533.08 55.3819C533.648 55.3819 534.176 55.4579 534.664 55.6099L534.604 57.0979C534.596 57.2099 534.564 57.3019 534.508 57.3739C534.452 57.4379 534.376 57.4899 534.28 57.5299C534.192 57.5619 534.088 57.5859 533.968 57.6019C533.848 57.6099 533.72 57.6139 533.584 57.6139C533.232 57.6139 532.916 57.6539 532.636 57.7339C532.364 57.8059 532.132 57.9379 531.94 58.1299C531.748 58.3139 531.6 58.5619 531.496 58.8739C531.4 59.1779 531.352 59.5579 531.352 60.0139V60.8299H534.556V62.9419H531.448V73.0339H528.484Z" fill="#31479E"/>
<path d="M544.612 55.2019V73.0339H541.648V55.2019H544.612Z" fill="#31479E"/>
<path d="M554.07 67.7779C553.214 67.8179 552.494 67.8939 551.91 68.0059C551.326 68.1099 550.857 68.2459 550.505 68.4139C550.154 68.5819 549.902 68.7779 549.75 69.0019C549.598 69.2259 549.522 69.4699 549.522 69.7339C549.522 70.2539 549.674 70.6259 549.978 70.8499C550.29 71.0739 550.694 71.1859 551.19 71.1859C551.798 71.1859 552.322 71.0779 552.762 70.8619C553.21 70.6379 553.646 70.3019 554.07 69.8539V67.7779ZM547.277 62.4379C548.693 61.1419 550.397 60.4939 552.389 60.4939C553.109 60.4939 553.754 60.6139 554.322 60.8539C554.889 61.0859 555.37 61.4139 555.762 61.8379C556.154 62.2539 556.449 62.7539 556.65 63.3379C556.858 63.9219 556.962 64.5619 556.962 65.2579V73.0339H555.617C555.337 73.0339 555.122 72.9939 554.97 72.9139C554.818 72.8259 554.698 72.6539 554.609 72.3979L554.346 71.5099C554.034 71.7899 553.729 72.0379 553.434 72.2539C553.138 72.4619 552.829 72.6379 552.509 72.7819C552.189 72.9259 551.846 73.0339 551.478 73.1059C551.118 73.1859 550.717 73.2259 550.277 73.2259C549.758 73.2259 549.277 73.1579 548.837 73.0219C548.397 72.8779 548.018 72.6659 547.698 72.3859C547.378 72.1059 547.129 71.7579 546.953 71.3419C546.777 70.9259 546.69 70.4419 546.69 69.8899C546.69 69.5779 546.742 69.2699 546.846 68.9659C546.95 68.6539 547.118 68.3579 547.35 68.0779C547.59 67.7979 547.897 67.5339 548.273 67.2859C548.65 67.0379 549.109 66.8219 549.654 66.6379C550.206 66.4539 550.846 66.3059 551.574 66.1939C552.302 66.0739 553.134 66.0019 554.07 65.9779V65.2579C554.07 64.4339 553.893 63.8259 553.542 63.4339C553.19 63.0339 552.682 62.8339 552.018 62.8339C551.538 62.8339 551.138 62.8899 550.818 63.0019C550.505 63.1139 550.229 63.2419 549.99 63.3859C549.75 63.5219 549.53 63.6459 549.329 63.7579C549.138 63.8699 548.922 63.9259 548.682 63.9259C548.474 63.9259 548.298 63.8739 548.154 63.7699C548.009 63.6579 547.894 63.5299 547.806 63.3859L547.277 62.4379Z" fill="#31479E"/>
<path d="M562.525 62.2339C562.773 61.9859 563.033 61.7579 563.305 61.5499C563.585 61.3339 563.877 61.1539 564.181 61.0099C564.493 60.8579 564.825 60.7419 565.177 60.6619C565.529 60.5739 565.913 60.5299 566.329 60.5299C567.001 60.5299 567.597 60.6459 568.117 60.8779C568.637 61.1019 569.069 61.4219 569.413 61.8379C569.765 62.2459 570.029 62.7379 570.205 63.3139C570.389 63.8819 570.481 64.5099 570.481 65.1979V73.0339H567.517V65.1979C567.517 64.4459 567.345 63.8659 567.001 63.4579C566.657 63.0419 566.133 62.8339 565.429 62.8339C564.917 62.8339 564.437 62.9499 563.989 63.1819C563.541 63.4139 563.117 63.7299 562.717 64.1299V73.0339H559.753V60.7219H561.565C561.949 60.7219 562.201 60.9019 562.321 61.2619L562.525 62.2339Z" fill="#31479E"/>
<path d="M577.8 66.5779C578.168 66.5779 578.488 66.5299 578.76 66.4339C579.032 66.3299 579.256 66.1899 579.432 66.0139C579.616 65.8379 579.752 65.6259 579.84 65.3779C579.936 65.1299 579.984 64.8579 579.984 64.5619C579.984 63.9539 579.8 63.4739 579.432 63.1219C579.072 62.7619 578.528 62.5819 577.8 62.5819C577.072 62.5819 576.524 62.7619 576.156 63.1219C575.796 63.4739 575.616 63.9539 575.616 64.5619C575.616 64.8499 575.66 65.1179 575.748 65.3659C575.844 65.6139 575.98 65.8299 576.156 66.0139C576.34 66.1899 576.568 66.3299 576.84 66.4339C577.12 66.5299 577.44 66.5779 577.8 66.5779ZM581.148 73.5859C581.148 73.3459 581.076 73.1499 580.932 72.9979C580.788 72.8459 580.592 72.7299 580.344 72.6499C580.096 72.5619 579.804 72.4979 579.468 72.4579C579.14 72.4179 578.788 72.3899 578.412 72.3739C578.044 72.3499 577.66 72.3299 577.26 72.3139C576.868 72.2979 576.484 72.2659 576.108 72.2179C575.78 72.4019 575.512 72.6179 575.304 72.8659C575.104 73.1139 575.004 73.4019 575.004 73.7299C575.004 73.9459 575.056 74.1459 575.16 74.3299C575.272 74.5219 575.444 74.6859 575.676 74.8219C575.916 74.9579 576.224 75.0619 576.6 75.1339C576.976 75.2139 577.436 75.2539 577.98 75.2539C578.532 75.2539 579.008 75.2099 579.408 75.1219C579.808 75.0419 580.136 74.9259 580.392 74.7739C580.656 74.6299 580.848 74.4539 580.968 74.2459C581.088 74.0459 581.148 73.8259 581.148 73.5859ZM584.1 61.1419V62.2459C584.1 62.5979 583.888 62.8139 583.464 62.8939L582.36 63.0979C582.528 63.5219 582.612 63.9859 582.612 64.4899C582.612 65.0979 582.488 65.6499 582.24 66.1459C582 66.6339 581.664 67.0499 581.232 67.3939C580.8 67.7379 580.288 68.0059 579.696 68.1979C579.112 68.3819 578.48 68.4739 577.8 68.4739C577.56 68.4739 577.328 68.4619 577.104 68.4379C576.88 68.4139 576.66 68.3819 576.444 68.3419C576.06 68.5739 575.868 68.8339 575.868 69.1219C575.868 69.3699 575.98 69.5539 576.204 69.6739C576.436 69.7859 576.74 69.8659 577.116 69.9139C577.492 69.9619 577.92 69.9939 578.4 70.0099C578.88 70.0179 579.372 70.0419 579.876 70.0819C580.38 70.1219 580.872 70.1939 581.352 70.2979C581.832 70.3939 582.26 70.5499 582.636 70.7659C583.012 70.9819 583.312 71.2779 583.536 71.6539C583.768 72.0219 583.884 72.4979 583.884 73.0819C583.884 73.6259 583.748 74.1539 583.476 74.6659C583.212 75.1779 582.824 75.6339 582.312 76.0339C581.808 76.4339 581.184 76.7539 580.44 76.9939C579.704 77.2419 578.864 77.3659 577.92 77.3659C576.992 77.3659 576.184 77.2739 575.496 77.0899C574.808 76.9139 574.236 76.6739 573.78 76.3699C573.324 76.0739 572.984 75.7299 572.76 75.3379C572.536 74.9459 572.424 74.5379 572.424 74.1139C572.424 73.5379 572.596 73.0579 572.94 72.6739C573.292 72.2819 573.772 71.9699 574.38 71.7379C574.052 71.5699 573.792 71.3459 573.6 71.0659C573.408 70.7859 573.312 70.4179 573.312 69.9619C573.312 69.7779 573.344 69.5899 573.408 69.3979C573.48 69.1979 573.58 69.0019 573.708 68.8099C573.844 68.6179 574.012 68.4379 574.212 68.2699C574.412 68.0939 574.648 67.9379 574.92 67.8019C574.296 67.4659 573.804 67.0179 573.444 66.4579C573.092 65.8979 572.916 65.2419 572.916 64.4899C572.916 63.8819 573.036 63.3339 573.276 62.8459C573.524 62.3499 573.864 61.9299 574.296 61.5859C574.736 61.2339 575.252 60.9659 575.844 60.7819C576.444 60.5979 577.096 60.5059 577.8 60.5059C578.328 60.5059 578.824 60.5619 579.288 60.6739C579.752 60.7779 580.176 60.9339 580.56 61.1419H584.1Z" fill="#31479E"/>
<path d="M596.588 60.7219V73.0339H594.776C594.384 73.0339 594.136 72.8539 594.032 72.4939L593.828 71.5099C593.324 72.0219 592.768 72.4379 592.16 72.7579C591.552 73.0699 590.836 73.2259 590.012 73.2259C589.34 73.2259 588.744 73.1139 588.224 72.8899C587.712 72.6579 587.28 72.3339 586.928 71.9179C586.576 71.5019 586.308 71.0099 586.124 70.4419C585.948 69.8659 585.86 69.2339 585.86 68.5459V60.7219H588.824V68.5459C588.824 69.2979 588.996 69.8819 589.34 70.2979C589.692 70.7059 590.216 70.9099 590.912 70.9099C591.424 70.9099 591.904 70.7979 592.352 70.5739C592.8 70.3419 593.224 70.0259 593.624 69.6259V60.7219H596.588Z" fill="#31479E"/>
<path d="M606.03 67.7779C605.174 67.8179 604.454 67.8939 603.87 68.0059C603.286 68.1099 602.818 68.2459 602.466 68.4139C602.114 68.5819 601.862 68.7779 601.71 69.0019C601.558 69.2259 601.482 69.4699 601.482 69.7339C601.482 70.2539 601.634 70.6259 601.938 70.8499C602.25 71.0739 602.654 71.1859 603.15 71.1859C603.758 71.1859 604.282 71.0779 604.722 70.8619C605.17 70.6379 605.606 70.3019 606.03 69.8539V67.7779ZM599.238 62.4379C600.654 61.1419 602.358 60.4939 604.35 60.4939C605.07 60.4939 605.714 60.6139 606.282 60.8539C606.85 61.0859 607.33 61.4139 607.722 61.8379C608.115 62.2539 608.41 62.7539 608.61 63.3379C608.818 63.9219 608.922 64.5619 608.922 65.2579V73.0339H607.578C607.298 73.0339 607.082 72.9939 606.93 72.9139C606.778 72.8259 606.658 72.6539 606.57 72.3979L606.306 71.5099C605.994 71.7899 605.69 72.0379 605.394 72.2539C605.098 72.4619 604.79 72.6379 604.47 72.7819C604.15 72.9259 603.806 73.0339 603.438 73.1059C603.078 73.1859 602.678 73.2259 602.238 73.2259C601.718 73.2259 601.238 73.1579 600.798 73.0219C600.358 72.8779 599.978 72.6659 599.658 72.3859C599.338 72.1059 599.09 71.7579 598.914 71.3419C598.738 70.9259 598.65 70.4419 598.65 69.8899C598.65 69.5779 598.702 69.2699 598.806 68.9659C598.91 68.6539 599.078 68.3579 599.31 68.0779C599.55 67.7979 599.858 67.5339 600.234 67.2859C600.61 67.0379 601.07 66.8219 601.614 66.6379C602.166 66.4539 602.806 66.3059 603.534 66.1939C604.262 66.0739 605.094 66.0019 606.03 65.9779V65.2579C606.03 64.4339 605.854 63.8259 605.502 63.4339C605.15 63.0339 604.642 62.8339 603.978 62.8339C603.498 62.8339 603.098 62.8899 602.778 63.0019C602.466 63.1139 602.19 63.2419 601.95 63.3859C601.71 63.5219 601.49 63.6459 601.29 63.7579C601.098 63.8699 600.882 63.9259 600.642 63.9259C600.434 63.9259 600.258 63.8739 600.114 63.7699C599.97 63.6579 599.854 63.5299 599.766 63.3859L599.238 62.4379Z" fill="#31479E"/>
<path d="M616.214 66.5779C616.582 66.5779 616.902 66.5299 617.174 66.4339C617.446 66.3299 617.67 66.1899 617.846 66.0139C618.03 65.8379 618.166 65.6259 618.254 65.3779C618.35 65.1299 618.398 64.8579 618.398 64.5619C618.398 63.9539 618.214 63.4739 617.846 63.1219C617.486 62.7619 616.942 62.5819 616.214 62.5819C615.486 62.5819 614.938 62.7619 614.57 63.1219C614.21 63.4739 614.03 63.9539 614.03 64.5619C614.03 64.8499 614.074 65.1179 614.162 65.3659C614.258 65.6139 614.394 65.8299 614.57 66.0139C614.754 66.1899 614.982 66.3299 615.254 66.4339C615.534 66.5299 615.854 66.5779 616.214 66.5779ZM619.562 73.5859C619.562 73.3459 619.49 73.1499 619.346 72.9979C619.202 72.8459 619.006 72.7299 618.758 72.6499C618.51 72.5619 618.218 72.4979 617.882 72.4579C617.554 72.4179 617.202 72.3899 616.826 72.3739C616.458 72.3499 616.074 72.3299 615.674 72.3139C615.282 72.2979 614.898 72.2659 614.522 72.2179C614.194 72.4019 613.926 72.6179 613.718 72.8659C613.518 73.1139 613.418 73.4019 613.418 73.7299C613.418 73.9459 613.47 74.1459 613.574 74.3299C613.686 74.5219 613.858 74.6859 614.09 74.8219C614.33 74.9579 614.638 75.0619 615.014 75.1339C615.39 75.2139 615.85 75.2539 616.394 75.2539C616.946 75.2539 617.422 75.2099 617.822 75.1219C618.222 75.0419 618.55 74.9259 618.806 74.7739C619.07 74.6299 619.262 74.4539 619.382 74.2459C619.502 74.0459 619.562 73.8259 619.562 73.5859ZM622.514 61.1419V62.2459C622.514 62.5979 622.302 62.8139 621.878 62.8939L620.774 63.0979C620.942 63.5219 621.026 63.9859 621.026 64.4899C621.026 65.0979 620.902 65.6499 620.654 66.1459C620.414 66.6339 620.078 67.0499 619.646 67.3939C619.214 67.7379 618.702 68.0059 618.11 68.1979C617.526 68.3819 616.894 68.4739 616.214 68.4739C615.974 68.4739 615.742 68.4619 615.518 68.4379C615.294 68.4139 615.074 68.3819 614.858 68.3419C614.474 68.5739 614.282 68.8339 614.282 69.1219C614.282 69.3699 614.394 69.5539 614.618 69.6739C614.85 69.7859 615.154 69.8659 615.53 69.9139C615.906 69.9619 616.334 69.9939 616.814 70.0099C617.294 70.0179 617.786 70.0419 618.29 70.0819C618.794 70.1219 619.286 70.1939 619.766 70.2979C620.246 70.3939 620.674 70.5499 621.05 70.7659C621.426 70.9819 621.726 71.2779 621.95 71.6539C622.182 72.0219 622.298 72.4979 622.298 73.0819C622.298 73.6259 622.162 74.1539 621.89 74.6659C621.626 75.1779 621.238 75.6339 620.726 76.0339C620.222 76.4339 619.598 76.7539 618.854 76.9939C618.118 77.2419 617.278 77.3659 616.334 77.3659C615.406 77.3659 614.598 77.2739 613.91 77.0899C613.222 76.9139 612.65 76.6739 612.194 76.3699C611.738 76.0739 611.398 75.7299 611.174 75.3379C610.95 74.9459 610.838 74.5379 610.838 74.1139C610.838 73.5379 611.01 73.0579 611.354 72.6739C611.706 72.2819 612.186 71.9699 612.794 71.7379C612.466 71.5699 612.206 71.3459 612.014 71.0659C611.822 70.7859 611.726 70.4179 611.726 69.9619C611.726 69.7779 611.758 69.5899 611.822 69.3979C611.894 69.1979 611.994 69.0019 612.122 68.8099C612.258 68.6179 612.426 68.4379 612.626 68.2699C612.826 68.0939 613.062 67.9379 613.334 67.8019C612.71 67.4659 612.218 67.0179 611.858 66.4579C611.506 65.8979 611.33 65.2419 611.33 64.4899C611.33 63.8819 611.45 63.3339 611.69 62.8459C611.938 62.3499 612.278 61.9299 612.71 61.5859C613.15 61.2339 613.666 60.9659 614.258 60.7819C614.858 60.5979 615.51 60.5059 616.214 60.5059C616.742 60.5059 617.238 60.5619 617.702 60.6739C618.166 60.7779 618.59 60.9339 618.974 61.1419H622.514Z" fill="#31479E"/>
<path d="M632.115 65.4619C632.115 65.0779 632.059 64.7179 631.947 64.3819C631.843 64.0379 631.683 63.7379 631.467 63.4819C631.251 63.2259 630.975 63.0259 630.639 62.8819C630.311 62.7299 629.927 62.6539 629.487 62.6539C628.631 62.6539 627.955 62.8979 627.459 63.3859C626.971 63.8739 626.659 64.5659 626.523 65.4619H632.115ZM626.463 67.2499C626.511 67.8819 626.623 68.4299 626.799 68.8939C626.975 69.3499 627.207 69.7299 627.495 70.0339C627.783 70.3299 628.123 70.5539 628.515 70.7059C628.915 70.8499 629.355 70.9219 629.835 70.9219C630.315 70.9219 630.727 70.8659 631.071 70.7539C631.423 70.6419 631.727 70.5179 631.983 70.3819C632.247 70.2459 632.475 70.1219 632.667 70.0099C632.867 69.8979 633.059 69.8419 633.243 69.8419C633.491 69.8419 633.675 69.9339 633.795 70.1179L634.647 71.1979C634.319 71.5819 633.951 71.9059 633.543 72.1699C633.135 72.4259 632.707 72.6339 632.259 72.7939C631.819 72.9459 631.367 73.0539 630.903 73.1179C630.447 73.1819 630.003 73.2139 629.571 73.2139C628.715 73.2139 627.919 73.0739 627.183 72.7939C626.447 72.5059 625.807 72.0859 625.263 71.5339C624.719 70.9739 624.291 70.2859 623.979 69.4699C623.667 68.6459 623.511 67.6939 623.511 66.6139C623.511 65.7739 623.647 64.9859 623.919 64.2499C624.191 63.5059 624.579 62.8619 625.083 62.3179C625.595 61.7659 626.215 61.3299 626.943 61.0099C627.679 60.6899 628.507 60.5299 629.427 60.5299C630.203 60.5299 630.919 60.6539 631.575 60.9019C632.231 61.1499 632.795 61.5139 633.267 61.9939C633.739 62.4659 634.107 63.0499 634.371 63.7459C634.643 64.4339 634.779 65.2219 634.779 66.1099C634.779 66.5579 634.731 66.8619 634.635 67.0219C634.539 67.1739 634.355 67.2499 634.083 67.2499H626.463Z" fill="#31479E"/>
<path d="M644.515 63.1219C644.435 63.2499 644.351 63.3419 644.263 63.3979C644.175 63.4459 644.063 63.4699 643.927 63.4699C643.783 63.4699 643.627 63.4299 643.459 63.3499C643.299 63.2699 643.111 63.1819 642.895 63.0859C642.679 62.9819 642.431 62.8899 642.151 62.8099C641.879 62.7299 641.555 62.6899 641.179 62.6899C640.595 62.6899 640.135 62.8139 639.799 63.0619C639.471 63.3099 639.307 63.6339 639.307 64.0339C639.307 64.2979 639.391 64.5219 639.559 64.7059C639.735 64.8819 639.963 65.0379 640.243 65.1739C640.531 65.3099 640.855 65.4339 641.215 65.5459C641.575 65.6499 641.939 65.7659 642.307 65.8939C642.683 66.0219 643.051 66.1699 643.411 66.3379C643.771 66.4979 644.091 66.7059 644.371 66.9619C644.659 67.2099 644.887 67.5099 645.055 67.8619C645.231 68.2139 645.319 68.6379 645.319 69.1339C645.319 69.7259 645.211 70.2739 644.995 70.7779C644.787 71.2739 644.475 71.7059 644.059 72.0739C643.643 72.4339 643.127 72.7179 642.511 72.9259C641.903 73.1259 641.199 73.2259 640.399 73.2259C639.975 73.2259 639.559 73.1859 639.151 73.1059C638.751 73.0339 638.363 72.9299 637.987 72.7939C637.619 72.6579 637.275 72.4979 636.955 72.3139C636.643 72.1299 636.367 71.9299 636.127 71.7139L636.811 70.5859C636.899 70.4499 637.003 70.3459 637.123 70.2739C637.243 70.2019 637.395 70.1659 637.579 70.1659C637.763 70.1659 637.935 70.2179 638.095 70.3219C638.263 70.4259 638.455 70.5379 638.671 70.6579C638.887 70.7779 639.139 70.8899 639.427 70.9939C639.723 71.0979 640.095 71.1499 640.543 71.1499C640.895 71.1499 641.195 71.1099 641.443 71.0299C641.699 70.9419 641.907 70.8299 642.067 70.6939C642.235 70.5579 642.355 70.4019 642.427 70.2259C642.507 70.0419 642.547 69.8539 642.547 69.6619C642.547 69.3739 642.459 69.1379 642.283 68.9539C642.115 68.7699 641.887 68.6099 641.599 68.4739C641.319 68.3379 640.995 68.2179 640.627 68.1139C640.267 68.0019 639.895 67.8819 639.511 67.7539C639.135 67.6259 638.763 67.4779 638.395 67.3099C638.035 67.1339 637.711 66.9139 637.423 66.6499C637.143 66.3859 636.915 66.0619 636.739 65.6779C636.571 65.2939 636.487 64.8299 636.487 64.2859C636.487 63.7819 636.587 63.3019 636.787 62.8459C636.987 62.3899 637.279 61.9939 637.663 61.6579C638.055 61.3139 638.539 61.0419 639.115 60.8419C639.699 60.6339 640.371 60.5299 641.131 60.5299C641.979 60.5299 642.751 60.6699 643.447 60.9499C644.143 61.2299 644.723 61.5979 645.187 62.0539L644.515 63.1219Z" fill="#31479E"/>
<path d="M647.502 75.9739C647.358 75.8539 647.286 75.7059 647.286 75.5299C647.286 75.4659 647.306 75.3939 647.346 75.3139C647.394 75.2339 647.45 75.1619 647.514 75.0979C647.602 75.0019 647.71 74.8819 647.838 74.7379C647.966 74.6019 648.094 74.4419 648.222 74.2579C648.35 74.0819 648.466 73.8859 648.57 73.6699C648.682 73.4619 648.766 73.2379 648.822 72.9979C648.566 72.9979 648.334 72.9539 648.126 72.8659C647.918 72.7699 647.738 72.6419 647.586 72.4819C647.442 72.3219 647.326 72.1339 647.238 71.9179C647.158 71.7019 647.118 71.4659 647.118 71.2099C647.118 70.9859 647.158 70.7779 647.238 70.5859C647.326 70.3859 647.446 70.2139 647.598 70.0699C647.75 69.9179 647.934 69.8019 648.15 69.7219C648.366 69.6339 648.602 69.5899 648.858 69.5899C649.162 69.5899 649.426 69.6459 649.65 69.7579C649.882 69.8619 650.07 70.0099 650.214 70.2019C650.366 70.3859 650.478 70.6019 650.55 70.8499C650.63 71.0899 650.67 71.3459 650.67 71.6179C650.67 72.0019 650.61 72.4059 650.49 72.8299C650.378 73.2539 650.21 73.6779 649.986 74.1019C649.762 74.5259 649.482 74.9379 649.146 75.3379C648.818 75.7379 648.442 76.1059 648.018 76.4419L647.502 75.9739Z" fill="#31479E"/>
<path d="M661.975 69.8419C662.311 70.2499 662.675 70.5379 663.067 70.7059C663.467 70.8739 663.899 70.9579 664.363 70.9579C664.811 70.9579 665.215 70.8739 665.575 70.7059C665.935 70.5379 666.239 70.2819 666.487 69.9379C666.743 69.5939 666.939 69.1619 667.075 68.6419C667.211 68.1139 667.279 67.4939 667.279 66.7819C667.279 66.0619 667.219 65.4539 667.099 64.9579C666.987 64.4539 666.823 64.0459 666.607 63.7339C666.391 63.4219 666.127 63.1939 665.815 63.0499C665.511 62.9059 665.163 62.8339 664.771 62.8339C664.155 62.8339 663.631 62.9659 663.199 63.2299C662.767 63.4859 662.359 63.8499 661.975 64.3219V69.8419ZM661.819 62.4019C662.323 61.8339 662.895 61.3739 663.535 61.0219C664.175 60.6699 664.927 60.4939 665.791 60.4939C666.463 60.4939 667.075 60.6339 667.627 60.9139C668.187 61.1939 668.667 61.6019 669.067 62.1379C669.475 62.6659 669.787 63.3219 670.003 64.1059C670.227 64.8819 670.339 65.7739 670.339 66.7819C670.339 67.7019 670.215 68.5539 669.967 69.3379C669.719 70.1219 669.363 70.8019 668.899 71.3779C668.443 71.9539 667.887 72.4059 667.231 72.7339C666.583 73.0539 665.855 73.2139 665.047 73.2139C664.359 73.2139 663.771 73.1099 663.283 72.9019C662.795 72.6859 662.359 72.3899 661.975 72.0139V77.0539H659.011V60.7219H660.823C661.207 60.7219 661.459 60.9019 661.579 61.2619L661.819 62.4019Z" fill="#31479E"/>
<path d="M679.155 67.7779C678.299 67.8179 677.579 67.8939 676.995 68.0059C676.411 68.1099 675.943 68.2459 675.591 68.4139C675.239 68.5819 674.987 68.7779 674.835 69.0019C674.683 69.2259 674.607 69.4699 674.607 69.7339C674.607 70.2539 674.759 70.6259 675.063 70.8499C675.375 71.0739 675.779 71.1859 676.275 71.1859C676.883 71.1859 677.407 71.0779 677.847 70.8619C678.295 70.6379 678.731 70.3019 679.155 69.8539V67.7779ZM672.363 62.4379C673.779 61.1419 675.483 60.4939 677.475 60.4939C678.195 60.4939 678.839 60.6139 679.407 60.8539C679.975 61.0859 680.455 61.4139 680.847 61.8379C681.24 62.2539 681.535 62.7539 681.735 63.3379C681.943 63.9219 682.047 64.5619 682.047 65.2579V73.0339H680.703C680.423 73.0339 680.207 72.9939 680.055 72.9139C679.903 72.8259 679.783 72.6539 679.695 72.3979L679.431 71.5099C679.119 71.7899 678.815 72.0379 678.519 72.2539C678.223 72.4619 677.915 72.6379 677.595 72.7819C677.275 72.9259 676.931 73.0339 676.563 73.1059C676.203 73.1859 675.803 73.2259 675.363 73.2259C674.843 73.2259 674.363 73.1579 673.923 73.0219C673.483 72.8779 673.103 72.6659 672.783 72.3859C672.463 72.1059 672.215 71.7579 672.039 71.3419C671.863 70.9259 671.775 70.4419 671.775 69.8899C671.775 69.5779 671.827 69.2699 671.931 68.9659C672.035 68.6539 672.203 68.3579 672.435 68.0779C672.675 67.7979 672.983 67.5339 673.359 67.2859C673.735 67.0379 674.195 66.8219 674.739 66.6379C675.291 66.4539 675.931 66.3059 676.659 66.1939C677.387 66.0739 678.219 66.0019 679.155 65.9779V65.2579C679.155 64.4339 678.979 63.8259 678.627 63.4339C678.275 63.0339 677.767 62.8339 677.103 62.8339C676.623 62.8339 676.223 62.8899 675.903 63.0019C675.591 63.1139 675.315 63.2419 675.075 63.3859C674.835 63.5219 674.615 63.6459 674.415 63.7579C674.223 63.8699 674.007 63.9259 673.767 63.9259C673.559 63.9259 673.383 63.8739 673.239 63.7699C673.095 63.6579 672.979 63.5299 672.891 63.3859L672.363 62.4379Z" fill="#31479E"/>
<path d="M687.635 62.8579C688.019 62.1219 688.475 61.5459 689.003 61.1299C689.531 60.7059 690.155 60.4939 690.875 60.4939C691.443 60.4939 691.899 60.6179 692.243 60.8659L692.051 63.0859C692.011 63.2299 691.951 63.3339 691.871 63.3979C691.799 63.4539 691.699 63.4819 691.571 63.4819C691.451 63.4819 691.271 63.4619 691.031 63.4219C690.799 63.3819 690.571 63.3619 690.347 63.3619C690.019 63.3619 689.727 63.4099 689.471 63.5059C689.215 63.6019 688.983 63.7419 688.775 63.9259C688.575 64.1019 688.395 64.3179 688.235 64.5739C688.083 64.8299 687.939 65.1219 687.803 65.4499V73.0339H684.839V60.7219H686.579C686.883 60.7219 687.095 60.7779 687.215 60.8899C687.335 60.9939 687.415 61.1859 687.455 61.4659L687.635 62.8579Z" fill="#31479E"/>
<path d="M706.212 73.0339H703.248V62.9419H697.536V69.6139C697.536 69.9979 697.628 70.2979 697.812 70.5139C698.004 70.7299 698.264 70.8379 698.592 70.8379C698.776 70.8379 698.928 70.8179 699.048 70.7779C699.176 70.7299 699.284 70.6819 699.372 70.6339C699.468 70.5859 699.552 70.5419 699.624 70.5019C699.696 70.4539 699.768 70.4299 699.84 70.4299C699.928 70.4299 700 70.4539 700.056 70.5019C700.112 70.5419 700.172 70.6059 700.236 70.6939L701.124 72.1339C700.692 72.4939 700.196 72.7659 699.636 72.9499C699.076 73.1339 698.496 73.2259 697.896 73.2259C696.824 73.2259 696 72.9259 695.424 72.3259C694.856 71.7179 694.572 70.8819 694.572 69.8179V62.9419H693.312C693.152 62.9419 693.016 62.8899 692.904 62.7859C692.792 62.6819 692.736 62.5259 692.736 62.3179V61.1419L694.716 60.8059L695.34 57.4579C695.38 57.2979 695.456 57.1739 695.568 57.0859C695.68 56.9979 695.824 56.9539 696 56.9539H697.536V60.8299H706.212V73.0339ZM706.728 57.0859C706.728 57.3419 706.676 57.5859 706.572 57.8179C706.468 58.0419 706.328 58.2379 706.152 58.4059C705.984 58.5739 705.78 58.7099 705.54 58.8139C705.308 58.9099 705.06 58.9579 704.796 58.9579C704.54 58.9579 704.3 58.9099 704.076 58.8139C703.852 58.7099 703.656 58.5739 703.488 58.4059C703.32 58.2379 703.184 58.0419 703.08 57.8179C702.984 57.5859 702.936 57.3419 702.936 57.0859C702.936 56.8219 702.984 56.5779 703.08 56.3539C703.184 56.1219 703.32 55.9219 703.488 55.7539C703.656 55.5779 703.852 55.4419 704.076 55.3459C704.3 55.2419 704.54 55.1899 704.796 55.1899C705.06 55.1899 705.308 55.2419 705.54 55.3459C705.78 55.4419 705.984 55.5779 706.152 55.7539C706.328 55.9219 706.468 56.1219 706.572 56.3539C706.676 56.5779 706.728 56.8219 706.728 57.0859Z" fill="#31479E"/>
<path d="M718.057 63.3259C717.969 63.4379 717.881 63.5259 717.793 63.5899C717.713 63.6539 717.593 63.6859 717.433 63.6859C717.281 63.6859 717.133 63.6419 716.989 63.5539C716.845 63.4579 716.673 63.3539 716.473 63.2419C716.273 63.1219 716.033 63.0179 715.753 62.9299C715.481 62.8339 715.141 62.7859 714.733 62.7859C714.213 62.7859 713.757 62.8819 713.365 63.0739C712.973 63.2579 712.645 63.5259 712.381 63.8779C712.125 64.2299 711.933 64.6579 711.805 65.1619C711.677 65.6579 711.613 66.2219 711.613 66.8539C711.613 67.5099 711.681 68.0939 711.817 68.6059C711.961 69.1179 712.165 69.5499 712.429 69.9019C712.693 70.2459 713.013 70.5099 713.389 70.6939C713.765 70.8699 714.189 70.9579 714.661 70.9579C715.133 70.9579 715.513 70.9019 715.801 70.7899C716.097 70.6699 716.345 70.5419 716.545 70.4059C716.745 70.2619 716.917 70.1339 717.061 70.0219C717.213 69.9019 717.381 69.8419 717.565 69.8419C717.805 69.8419 717.985 69.9339 718.105 70.1179L718.957 71.1979C718.629 71.5819 718.273 71.9059 717.889 72.1699C717.505 72.4259 717.105 72.6339 716.689 72.7939C716.281 72.9459 715.857 73.0539 715.417 73.1179C714.985 73.1819 714.553 73.2139 714.121 73.2139C713.361 73.2139 712.645 73.0739 711.973 72.7939C711.301 72.5059 710.713 72.0899 710.209 71.5459C709.705 71.0019 709.305 70.3379 709.009 69.5539C708.721 68.7619 708.577 67.8619 708.577 66.8539C708.577 65.9499 708.705 65.1139 708.961 64.3459C709.225 63.5699 709.609 62.9019 710.113 62.3419C710.617 61.7739 711.241 61.3299 711.985 61.0099C712.729 60.6899 713.585 60.5299 714.553 60.5299C715.473 60.5299 716.277 60.6779 716.965 60.9739C717.661 61.2699 718.285 61.6939 718.837 62.2459L718.057 63.3259Z" fill="#31479E"/>
<path d="M731.424 60.7219V73.0339H729.612C729.219 73.0339 728.971 72.8539 728.867 72.4939L728.664 71.5099C728.159 72.0219 727.603 72.4379 726.995 72.7579C726.388 73.0699 725.672 73.2259 724.848 73.2259C724.176 73.2259 723.58 73.1139 723.06 72.8899C722.547 72.6579 722.115 72.3339 721.763 71.9179C721.411 71.5019 721.144 71.0099 720.96 70.4419C720.784 69.8659 720.695 69.2339 720.695 68.5459V60.7219H723.659V68.5459C723.659 69.2979 723.831 69.8819 724.175 70.2979C724.527 70.7059 725.052 70.9099 725.747 70.9099C726.26 70.9099 726.74 70.7979 727.188 70.5739C727.635 70.3419 728.06 70.0259 728.46 69.6259V60.7219H731.424Z" fill="#31479E"/>
<path d="M737.362 55.2019V73.0339H734.398V55.2019H737.362Z" fill="#31479E"/>
<path d="M746.82 67.7779C745.964 67.8179 745.243 67.8939 744.659 68.0059C744.076 68.1099 743.607 68.2459 743.255 68.4139C742.904 68.5819 742.651 68.7779 742.5 69.0019C742.348 69.2259 742.271 69.4699 742.271 69.7339C742.271 70.2539 742.423 70.6259 742.727 70.8499C743.039 71.0739 743.444 71.1859 743.94 71.1859C744.547 71.1859 745.071 71.0779 745.511 70.8619C745.959 70.6379 746.396 70.3019 746.82 69.8539V67.7779ZM740.028 62.4379C741.444 61.1419 743.148 60.4939 745.14 60.4939C745.859 60.4939 746.504 60.6139 747.072 60.8539C747.64 61.0859 748.12 61.4139 748.512 61.8379C748.904 62.2539 749.2 62.7539 749.4 63.3379C749.608 63.9219 749.711 64.5619 749.711 65.2579V73.0339H748.367C748.087 73.0339 747.871 72.9939 747.719 72.9139C747.568 72.8259 747.448 72.6539 747.359 72.3979L747.096 71.5099C746.784 71.7899 746.48 72.0379 746.184 72.2539C745.888 72.4619 745.58 72.6379 745.26 72.7819C744.94 72.9259 744.595 73.0339 744.227 73.1059C743.867 73.1859 743.468 73.2259 743.028 73.2259C742.508 73.2259 742.028 73.1579 741.588 73.0219C741.148 72.8779 740.768 72.6659 740.448 72.3859C740.128 72.1059 739.88 71.7579 739.703 71.3419C739.527 70.9259 739.44 70.4419 739.44 69.8899C739.44 69.5779 739.492 69.2699 739.596 68.9659C739.7 68.6539 739.867 68.3579 740.099 68.0779C740.339 67.7979 740.648 67.5339 741.023 67.2859C741.399 67.0379 741.859 66.8219 742.404 66.6379C742.956 66.4539 743.595 66.3059 744.323 66.1939C745.052 66.0739 745.884 66.0019 746.82 65.9779V65.2579C746.82 64.4339 746.643 63.8259 746.292 63.4339C745.94 63.0339 745.432 62.8339 744.768 62.8339C744.288 62.8339 743.888 62.8899 743.568 63.0019C743.255 63.1139 742.979 63.2419 742.74 63.3859C742.5 63.5219 742.28 63.6459 742.08 63.7579C741.888 63.8699 741.672 63.9259 741.432 63.9259C741.224 63.9259 741.047 63.8739 740.904 63.7699C740.76 63.6579 740.643 63.5299 740.555 63.3859L740.028 62.4379Z" fill="#31479E"/>
<path d="M755.299 62.8579C755.683 62.1219 756.139 61.5459 756.667 61.1299C757.195 60.7059 757.819 60.4939 758.539 60.4939C759.107 60.4939 759.563 60.6179 759.907 60.8659L759.715 63.0859C759.675 63.2299 759.615 63.3339 759.535 63.3979C759.463 63.4539 759.363 63.4819 759.235 63.4819C759.115 63.4819 758.935 63.4619 758.695 63.4219C758.463 63.3819 758.235 63.3619 758.011 63.3619C757.683 63.3619 757.391 63.4099 757.135 63.5059C756.879 63.6019 756.647 63.7419 756.439 63.9259C756.239 64.1019 756.059 64.3179 755.899 64.5739C755.747 64.8299 755.603 65.1219 755.467 65.4499V73.0339H752.503V60.7219H754.243C754.547 60.7219 754.759 60.7779 754.879 60.8899C754.999 60.9939 755.079 61.1859 755.119 61.4659L755.299 62.8579Z" fill="#31479E"/>
<path d="M764.456 55.2019V73.0339H761.492V55.2019H764.456Z" fill="#31479E"/>
<path d="M778.593 60.7219L771.885 76.4179C771.797 76.6259 771.681 76.7819 771.537 76.8859C771.401 76.9979 771.189 77.0539 770.901 77.0539H768.693L770.997 72.1099L766.017 60.7219H768.621C768.853 60.7219 769.033 60.7779 769.161 60.8899C769.297 61.0019 769.397 61.1299 769.461 61.2739L772.077 67.6579C772.165 67.8739 772.237 68.0899 772.293 68.3059C772.357 68.5219 772.417 68.7419 772.473 68.9659C772.545 68.7419 772.617 68.5219 772.689 68.3059C772.761 68.0819 772.841 67.8619 772.929 67.6459L775.401 61.2739C775.465 61.1139 775.569 60.9819 775.713 60.8779C775.865 60.7739 776.033 60.7219 776.217 60.7219H778.593Z" fill="#31479E"/>
<path d="M789 58.2499V63.0619H795.072V65.5459H789V70.4539H796.704V73.0339H785.76V55.6819H796.704V58.2499H789Z" fill="#31479E"/>
<path d="M801.611 62.2339C801.859 61.9859 802.119 61.7579 802.391 61.5499C802.671 61.3339 802.963 61.1539 803.267 61.0099C803.579 60.8579 803.911 60.7419 804.263 60.6619C804.615 60.5739 804.999 60.5299 805.415 60.5299C806.087 60.5299 806.683 60.6459 807.203 60.8779C807.723 61.1019 808.155 61.4219 808.499 61.8379C808.851 62.2459 809.115 62.7379 809.291 63.3139C809.475 63.8819 809.567 64.5099 809.567 65.1979V73.0339H806.603V65.1979C806.603 64.4459 806.431 63.8659 806.087 63.4579C805.743 63.0419 805.219 62.8339 804.515 62.8339C804.003 62.8339 803.523 62.9499 803.075 63.1819C802.627 63.4139 802.203 63.7299 801.803 64.1299V73.0339H798.839V60.7219H800.651C801.035 60.7219 801.287 60.9019 801.407 61.2619L801.611 62.2339Z" fill="#31479E"/>
<path d="M816.886 66.5779C817.254 66.5779 817.574 66.5299 817.846 66.4339C818.118 66.3299 818.342 66.1899 818.518 66.0139C818.702 65.8379 818.838 65.6259 818.926 65.3779C819.022 65.1299 819.07 64.8579 819.07 64.5619C819.07 63.9539 818.886 63.4739 818.518 63.1219C818.158 62.7619 817.614 62.5819 816.886 62.5819C816.158 62.5819 815.61 62.7619 815.242 63.1219C814.882 63.4739 814.702 63.9539 814.702 64.5619C814.702 64.8499 814.746 65.1179 814.834 65.3659C814.93 65.6139 815.066 65.8299 815.242 66.0139C815.426 66.1899 815.654 66.3299 815.926 66.4339C816.206 66.5299 816.526 66.5779 816.886 66.5779ZM820.234 73.5859C820.234 73.3459 820.162 73.1499 820.018 72.9979C819.874 72.8459 819.678 72.7299 819.43 72.6499C819.182 72.5619 818.89 72.4979 818.554 72.4579C818.226 72.4179 817.874 72.3899 817.498 72.3739C817.13 72.3499 816.746 72.3299 816.346 72.3139C815.954 72.2979 815.57 72.2659 815.194 72.2179C814.866 72.4019 814.598 72.6179 814.39 72.8659C814.19 73.1139 814.09 73.4019 814.09 73.7299C814.09 73.9459 814.142 74.1459 814.246 74.3299C814.358 74.5219 814.53 74.6859 814.762 74.8219C815.002 74.9579 815.31 75.0619 815.686 75.1339C816.062 75.2139 816.522 75.2539 817.066 75.2539C817.618 75.2539 818.094 75.2099 818.494 75.1219C818.894 75.0419 819.222 74.9259 819.478 74.7739C819.742 74.6299 819.934 74.4539 820.054 74.2459C820.174 74.0459 820.234 73.8259 820.234 73.5859ZM823.186 61.1419V62.2459C823.186 62.5979 822.974 62.8139 822.55 62.8939L821.446 63.0979C821.614 63.5219 821.698 63.9859 821.698 64.4899C821.698 65.0979 821.574 65.6499 821.326 66.1459C821.086 66.6339 820.75 67.0499 820.318 67.3939C819.886 67.7379 819.374 68.0059 818.782 68.1979C818.198 68.3819 817.566 68.4739 816.886 68.4739C816.646 68.4739 816.414 68.4619 816.19 68.4379C815.966 68.4139 815.746 68.3819 815.53 68.3419C815.146 68.5739 814.954 68.8339 814.954 69.1219C814.954 69.3699 815.066 69.5539 815.29 69.6739C815.522 69.7859 815.826 69.8659 816.202 69.9139C816.578 69.9619 817.006 69.9939 817.486 70.0099C817.966 70.0179 818.458 70.0419 818.962 70.0819C819.466 70.1219 819.958 70.1939 820.438 70.2979C820.918 70.3939 821.346 70.5499 821.722 70.7659C822.098 70.9819 822.398 71.2779 822.622 71.6539C822.854 72.0219 822.97 72.4979 822.97 73.0819C822.97 73.6259 822.834 74.1539 822.562 74.6659C822.298 75.1779 821.91 75.6339 821.398 76.0339C820.894 76.4339 820.27 76.7539 819.526 76.9939C818.79 77.2419 817.95 77.3659 817.006 77.3659C816.078 77.3659 815.27 77.2739 814.582 77.0899C813.894 76.9139 813.322 76.6739 812.866 76.3699C812.41 76.0739 812.07 75.7299 811.846 75.3379C811.622 74.9459 811.51 74.5379 811.51 74.1139C811.51 73.5379 811.682 73.0579 812.026 72.6739C812.378 72.2819 812.858 71.9699 813.466 71.7379C813.138 71.5699 812.878 71.3459 812.686 71.0659C812.494 70.7859 812.398 70.4179 812.398 69.9619C812.398 69.7779 812.43 69.5899 812.494 69.3979C812.566 69.1979 812.666 69.0019 812.794 68.8099C812.93 68.6179 813.098 68.4379 813.298 68.2699C813.498 68.0939 813.734 67.9379 814.006 67.8019C813.382 67.4659 812.89 67.0179 812.53 66.4579C812.178 65.8979 812.002 65.2419 812.002 64.4899C812.002 63.8819 812.122 63.3339 812.362 62.8459C812.61 62.3499 812.95 61.9299 813.382 61.5859C813.822 61.2339 814.338 60.9659 814.93 60.7819C815.53 60.5979 816.182 60.5059 816.886 60.5059C817.414 60.5059 817.91 60.5619 818.374 60.6739C818.838 60.7779 819.262 60.9339 819.646 61.1419H823.186Z" fill="#31479E"/>
<path d="M828.065 55.2019V73.0339H825.102V55.2019H828.065Z" fill="#31479E"/>
<path d="M834.091 60.7219V73.0339H831.115V60.7219H834.091ZM834.499 57.1339C834.499 57.3899 834.447 57.6299 834.343 57.8539C834.239 58.0779 834.099 58.2739 833.923 58.4419C833.755 58.6099 833.555 58.7459 833.323 58.8499C833.091 58.9459 832.843 58.9939 832.579 58.9939C832.323 58.9939 832.079 58.9459 831.847 58.8499C831.623 58.7459 831.427 58.6099 831.259 58.4419C831.091 58.2739 830.955 58.0779 830.851 57.8539C830.755 57.6299 830.707 57.3899 830.707 57.1339C830.707 56.8699 830.755 56.6219 830.851 56.3899C830.955 56.1579 831.091 55.9579 831.259 55.7899C831.427 55.6219 831.623 55.4899 831.847 55.3939C832.079 55.2899 832.323 55.2379 832.579 55.2379C832.843 55.2379 833.091 55.2899 833.323 55.3939C833.555 55.4899 833.755 55.6219 833.923 55.7899C834.099 55.9579 834.239 56.1579 834.343 56.3899C834.447 56.6219 834.499 56.8699 834.499 57.1339Z" fill="#31479E"/>
<path d="M844.624 63.1219C844.544 63.2499 844.46 63.3419 844.372 63.3979C844.284 63.4459 844.172 63.4699 844.036 63.4699C843.892 63.4699 843.736 63.4299 843.568 63.3499C843.408 63.2699 843.22 63.1819 843.004 63.0859C842.788 62.9819 842.54 62.8899 842.26 62.8099C841.988 62.7299 841.664 62.6899 841.288 62.6899C840.704 62.6899 840.244 62.8139 839.908 63.0619C839.58 63.3099 839.416 63.6339 839.416 64.0339C839.416 64.2979 839.5 64.5219 839.668 64.7059C839.844 64.8819 840.072 65.0379 840.352 65.1739C840.64 65.3099 840.964 65.4339 841.324 65.5459C841.684 65.6499 842.048 65.7659 842.416 65.8939C842.792 66.0219 843.16 66.1699 843.52 66.3379C843.88 66.4979 844.2 66.7059 844.48 66.9619C844.768 67.2099 844.996 67.5099 845.164 67.8619C845.34 68.2139 845.428 68.6379 845.428 69.1339C845.428 69.7259 845.32 70.2739 845.104 70.7779C844.896 71.2739 844.584 71.7059 844.168 72.0739C843.752 72.4339 843.236 72.7179 842.62 72.9259C842.012 73.1259 841.308 73.2259 840.508 73.2259C840.084 73.2259 839.668 73.1859 839.26 73.1059C838.86 73.0339 838.472 72.9299 838.096 72.7939C837.728 72.6579 837.384 72.4979 837.064 72.3139C836.752 72.1299 836.476 71.9299 836.236 71.7139L836.92 70.5859C837.008 70.4499 837.112 70.3459 837.232 70.2739C837.352 70.2019 837.504 70.1659 837.688 70.1659C837.872 70.1659 838.044 70.2179 838.204 70.3219C838.372 70.4259 838.564 70.5379 838.78 70.6579C838.996 70.7779 839.248 70.8899 839.536 70.9939C839.832 71.0979 840.204 71.1499 840.652 71.1499C841.004 71.1499 841.304 71.1099 841.552 71.0299C841.808 70.9419 842.016 70.8299 842.176 70.6939C842.344 70.5579 842.464 70.4019 842.536 70.2259C842.616 70.0419 842.656 69.8539 842.656 69.6619C842.656 69.3739 842.568 69.1379 842.392 68.9539C842.224 68.7699 841.996 68.6099 841.708 68.4739C841.428 68.3379 841.104 68.2179 840.736 68.1139C840.376 68.0019 840.004 67.8819 839.62 67.7539C839.244 67.6259 838.872 67.4779 838.504 67.3099C838.144 67.1339 837.82 66.9139 837.532 66.6499C837.252 66.3859 837.024 66.0619 836.848 65.6779C836.68 65.2939 836.596 64.8299 836.596 64.2859C836.596 63.7819 836.696 63.3019 836.896 62.8459C837.096 62.3899 837.388 61.9939 837.772 61.6579C838.164 61.3139 838.648 61.0419 839.224 60.8419C839.808 60.6339 840.48 60.5299 841.24 60.5299C842.088 60.5299 842.86 60.6699 843.556 60.9499C844.252 61.2299 844.832 61.5979 845.296 62.0539L844.624 63.1219Z" fill="#31479E"/>
<path d="M850.623 62.0419C851.103 61.5939 851.631 61.2299 852.207 60.9499C852.783 60.6699 853.459 60.5299 854.235 60.5299C854.907 60.5299 855.503 60.6459 856.023 60.8779C856.543 61.1019 856.975 61.4219 857.319 61.8379C857.671 62.2459 857.935 62.7379 858.111 63.3139C858.295 63.8819 858.387 64.5099 858.387 65.1979V73.0339H855.423V65.1979C855.423 64.4459 855.251 63.8659 854.907 63.4579C854.563 63.0419 854.039 62.8339 853.335 62.8339C852.823 62.8339 852.343 62.9499 851.895 63.1819C851.447 63.4139 851.023 63.7299 850.623 64.1299V73.0339H847.659V55.2019H850.623V62.0419Z" fill="#31479E"/>
</g>
<defs>
<filter id="filter0_d" x="0" y="0.731934" width="917" height="183.366" filterUnits="userSpaceOnUse" color-interpolation-filters="sRGB">
<feFlood flood-opacity="0" result="BackgroundImageFix"/>
<feColorMatrix in="SourceAlpha" type="matrix" values="0 0 0 0 0 0 0 0 0 0 0 0 0 0 0 0 0 0 127 0"/>
<feOffset/>
<feGaussianBlur stdDeviation="10"/>
<feColorMatrix type="matrix" values="0 0 0 0 0 0 0 0 0 0 0 0 0 0 0 0 0 0 0.25 0"/>
<feBlend mode="normal" in2="BackgroundImageFix" result="effect1_dropShadow"/>
<feBlend mode="normal" in="SourceGraphic" in2="effect1_dropShadow" result="shape"/>
</filter>
</defs>
</svg>
