<svg width="715" height="184" viewBox="0 0 715 184" fill="none" xmlns="http://www.w3.org/2000/svg">
<g filter="url(#filter0_d)">
<mask id="path-1-inside-1" fill="white">
<path fill-rule="evenodd" clip-rule="evenodd" d="M27 20C23.134 20 20 23.134 20 27V99.6672C20 103.533 23.134 106.667 27 106.667H59.6864L59.6864 160.362C59.6864 162.605 62.057 164.054 64.0533 163.033L174.179 106.667H688C691.866 106.667 695 103.533 695 99.6672V27C695 23.134 691.866 20 688 20H27Z"/>
</mask>
<path fill-rule="evenodd" clip-rule="evenodd" d="M27 20C23.134 20 20 23.134 20 27V99.6672C20 103.533 23.134 106.667 27 106.667H59.6864L59.6864 160.362C59.6864 162.605 62.057 164.054 64.0533 163.033L174.179 106.667H688C691.866 106.667 695 103.533 695 99.6672V27C695 23.134 691.866 20 688 20H27Z" fill="white"/>
<path d="M59.6864 106.667H62.6864V103.667H59.6864V106.667ZM59.6864 160.362H62.6864H59.6864ZM64.0533 163.033L65.4201 165.703H65.4201L64.0533 163.033ZM174.179 106.667V103.667H173.456L172.813 103.997L174.179 106.667ZM23 27C23 24.7909 24.7909 23 27 23V17C21.4772 17 17 21.4772 17 27H23ZM23 99.6672V27H17V99.6672H23ZM27 103.667C24.7909 103.667 23 101.876 23 99.6672H17C17 105.19 21.4772 109.667 27 109.667V103.667ZM59.6864 103.667H27V109.667H59.6864V103.667ZM56.6864 106.667L56.6864 160.362H62.6864L62.6864 106.667H56.6864ZM56.6864 160.362C56.6864 164.847 61.4277 167.747 65.4201 165.703L62.6864 160.362H62.6864H56.6864ZM65.4201 165.703L175.546 109.338L172.813 103.997L62.6864 160.362L65.4201 165.703ZM688 103.667H174.179V109.667H688V103.667ZM692 99.6672C692 101.876 690.209 103.667 688 103.667V109.667C693.523 109.667 698 105.19 698 99.6672H692ZM692 27V99.6672H698V27H692ZM688 23C690.209 23 692 24.7909 692 27H698C698 21.4771 693.523 17 688 17V23ZM27 23H688V17H27V23Z" fill="#31479E" mask="url(#path-1-inside-1)"/>
<path d="M70.1 65.75L67.988 59.978C67.884 59.722 67.776 59.418 67.664 59.066C67.552 58.714 67.44 58.334 67.328 57.926C67.224 58.334 67.116 58.718 67.004 59.078C66.892 59.43 66.784 59.738 66.68 60.002L64.58 65.75H70.1ZM75.8 72.302H73.304C73.024 72.302 72.796 72.234 72.62 72.098C72.444 71.954 72.312 71.778 72.224 71.57L70.928 68.03H63.74L62.444 71.57C62.38 71.754 62.256 71.922 62.072 72.074C61.888 72.226 61.66 72.302 61.388 72.302H58.868L65.696 54.95H68.984L75.8 72.302ZM79.8766 61.502C80.1246 61.254 80.3846 61.026 80.6566 60.818C80.9366 60.602 81.2286 60.422 81.5326 60.278C81.8446 60.126 82.1766 60.01 82.5286 59.93C82.8806 59.842 83.2646 59.798 83.6806 59.798C84.3526 59.798 84.9486 59.914 85.4686 60.146C85.9886 60.37 86.4206 60.69 86.7646 61.106C87.1166 61.514 87.3806 62.006 87.5566 62.582C87.7406 63.15 87.8326 63.778 87.8326 64.466V72.302H84.8686V64.466C84.8686 63.714 84.6966 63.134 84.3526 62.726C84.0086 62.31 83.4846 62.102 82.7806 62.102C82.2686 62.102 81.7886 62.218 81.3406 62.45C80.8926 62.682 80.4686 62.998 80.0686 63.398V72.302H77.1046V59.99H78.9166C79.3006 59.99 79.5526 60.17 79.6726 60.53L79.8766 61.502ZM98.3795 63.134C98.0435 62.726 97.6755 62.438 97.2755 62.27C96.8835 62.102 96.4595 62.018 96.0035 62.018C95.5555 62.018 95.1515 62.102 94.7915 62.27C94.4315 62.438 94.1235 62.694 93.8675 63.038C93.6115 63.374 93.4155 63.806 93.2795 64.334C93.1435 64.854 93.0755 65.47 93.0755 66.182C93.0755 66.902 93.1315 67.514 93.2435 68.018C93.3635 68.514 93.5315 68.922 93.7475 69.242C93.9635 69.554 94.2275 69.782 94.5395 69.926C94.8515 70.062 95.1995 70.13 95.5835 70.13C96.1995 70.13 96.7235 70.002 97.1555 69.746C97.5875 69.49 97.9955 69.126 98.3795 68.654V63.134ZM101.344 54.47V72.302H99.5315C99.1395 72.302 98.8915 72.122 98.7875 71.762L98.5355 70.574C98.0395 71.142 97.4675 71.602 96.8195 71.954C96.1795 72.306 95.4315 72.482 94.5755 72.482C93.9035 72.482 93.2875 72.342 92.7275 72.062C92.1675 71.782 91.6835 71.378 91.2755 70.85C90.8755 70.314 90.5635 69.654 90.3395 68.87C90.1235 68.086 90.0155 67.19 90.0155 66.182C90.0155 65.27 90.1395 64.422 90.3875 63.638C90.6355 62.854 90.9915 62.174 91.4555 61.598C91.9195 61.022 92.4755 60.574 93.1235 60.254C93.7715 59.926 94.4995 59.762 95.3075 59.762C95.9955 59.762 96.5835 59.87 97.0715 60.086C97.5595 60.302 97.9955 60.594 98.3795 60.962V54.47H101.344ZM107.065 62.126C107.449 61.39 107.905 60.814 108.433 60.398C108.961 59.974 109.585 59.762 110.305 59.762C110.873 59.762 111.329 59.886 111.673 60.134L111.481 62.354C111.441 62.498 111.381 62.602 111.301 62.666C111.229 62.722 111.129 62.75 111.001 62.75C110.881 62.75 110.701 62.73 110.461 62.69C110.229 62.65 110.001 62.63 109.777 62.63C109.449 62.63 109.157 62.678 108.901 62.774C108.645 62.87 108.413 63.01 108.205 63.194C108.005 63.37 107.825 63.586 107.665 63.842C107.513 64.098 107.369 64.39 107.233 64.718V72.302H104.269V59.99H106.009C106.313 59.99 106.525 60.046 106.645 60.158C106.765 60.262 106.845 60.454 106.885 60.734L107.065 62.126ZM119.562 67.046C118.706 67.086 117.986 67.162 117.402 67.274C116.818 67.378 116.35 67.514 115.998 67.682C115.646 67.85 115.394 68.046 115.242 68.27C115.09 68.494 115.014 68.738 115.014 69.002C115.014 69.522 115.166 69.894 115.47 70.118C115.782 70.342 116.186 70.454 116.682 70.454C117.29 70.454 117.814 70.346 118.254 70.13C118.702 69.906 119.138 69.57 119.562 69.122V67.046ZM112.77 61.706C114.186 60.41 115.89 59.762 117.882 59.762C118.602 59.762 119.246 59.882 119.814 60.122C120.382 60.354 120.862 60.682 121.254 61.106C121.646 61.522 121.942 62.022 122.142 62.606C122.35 63.19 122.454 63.83 122.454 64.526V72.302H121.11C120.83 72.302 120.614 72.262 120.462 72.182C120.31 72.094 120.19 71.922 120.102 71.666L119.838 70.778C119.526 71.058 119.222 71.306 118.926 71.522C118.63 71.73 118.322 71.906 118.002 72.05C117.682 72.194 117.338 72.302 116.97 72.374C116.61 72.454 116.21 72.494 115.77 72.494C115.25 72.494 114.77 72.426 114.33 72.29C113.89 72.146 113.51 71.934 113.19 71.654C112.87 71.374 112.622 71.026 112.446 70.61C112.27 70.194 112.182 69.71 112.182 69.158C112.182 68.846 112.234 68.538 112.338 68.234C112.442 67.922 112.61 67.626 112.842 67.346C113.082 67.066 113.39 66.802 113.766 66.554C114.142 66.306 114.602 66.09 115.146 65.906C115.698 65.722 116.338 65.574 117.066 65.462C117.794 65.342 118.626 65.27 119.562 65.246V64.526C119.562 63.702 119.386 63.094 119.034 62.702C118.682 62.302 118.174 62.102 117.51 62.102C117.03 62.102 116.63 62.158 116.31 62.27C115.998 62.382 115.722 62.51 115.482 62.654C115.242 62.79 115.022 62.914 114.822 63.026C114.63 63.138 114.414 63.194 114.174 63.194C113.966 63.194 113.79 63.142 113.646 63.038C113.502 62.926 113.386 62.798 113.298 62.654L112.77 61.706ZM129.745 65.846C130.113 65.846 130.433 65.798 130.705 65.702C130.977 65.598 131.201 65.458 131.377 65.282C131.561 65.106 131.697 64.894 131.785 64.646C131.881 64.398 131.929 64.126 131.929 63.83C131.929 63.222 131.745 62.742 131.377 62.39C131.017 62.03 130.473 61.85 129.745 61.85C129.017 61.85 128.469 62.03 128.101 62.39C127.741 62.742 127.561 63.222 127.561 63.83C127.561 64.118 127.605 64.386 127.693 64.634C127.789 64.882 127.925 65.098 128.101 65.282C128.285 65.458 128.513 65.598 128.785 65.702C129.065 65.798 129.385 65.846 129.745 65.846ZM133.093 72.854C133.093 72.614 133.021 72.418 132.877 72.266C132.733 72.114 132.537 71.998 132.289 71.918C132.041 71.83 131.749 71.766 131.413 71.726C131.085 71.686 130.733 71.658 130.357 71.642C129.989 71.618 129.605 71.598 129.205 71.582C128.813 71.566 128.429 71.534 128.053 71.486C127.725 71.67 127.457 71.886 127.249 72.134C127.049 72.382 126.949 72.67 126.949 72.998C126.949 73.214 127.001 73.414 127.105 73.598C127.217 73.79 127.389 73.954 127.621 74.09C127.861 74.226 128.169 74.33 128.545 74.402C128.921 74.482 129.381 74.522 129.925 74.522C130.477 74.522 130.953 74.478 131.353 74.39C131.753 74.31 132.081 74.194 132.337 74.042C132.601 73.898 132.793 73.722 132.913 73.514C133.033 73.314 133.093 73.094 133.093 72.854ZM136.045 60.41V61.514C136.045 61.866 135.833 62.082 135.409 62.162L134.305 62.366C134.473 62.79 134.557 63.254 134.557 63.758C134.557 64.366 134.433 64.918 134.185 65.414C133.945 65.902 133.609 66.318 133.177 66.662C132.745 67.006 132.233 67.274 131.641 67.466C131.057 67.65 130.425 67.742 129.745 67.742C129.505 67.742 129.273 67.73 129.049 67.706C128.825 67.682 128.605 67.65 128.389 67.61C128.005 67.842 127.813 68.102 127.813 68.39C127.813 68.638 127.925 68.822 128.149 68.942C128.381 69.054 128.685 69.134 129.061 69.182C129.437 69.23 129.865 69.262 130.345 69.278C130.825 69.286 131.317 69.31 131.821 69.35C132.325 69.39 132.817 69.462 133.297 69.566C133.777 69.662 134.205 69.818 134.581 70.034C134.957 70.25 135.257 70.546 135.481 70.922C135.713 71.29 135.829 71.766 135.829 72.35C135.829 72.894 135.693 73.422 135.421 73.934C135.157 74.446 134.769 74.902 134.257 75.302C133.753 75.702 133.129 76.022 132.385 76.262C131.649 76.51 130.809 76.634 129.865 76.634C128.937 76.634 128.129 76.542 127.441 76.358C126.753 76.182 126.181 75.942 125.725 75.638C125.269 75.342 124.929 74.998 124.705 74.606C124.481 74.214 124.369 73.806 124.369 73.382C124.369 72.806 124.541 72.326 124.885 71.942C125.237 71.55 125.717 71.238 126.325 71.006C125.997 70.838 125.737 70.614 125.545 70.334C125.353 70.054 125.257 69.686 125.257 69.23C125.257 69.046 125.289 68.858 125.353 68.666C125.425 68.466 125.525 68.27 125.653 68.078C125.789 67.886 125.957 67.706 126.157 67.538C126.357 67.362 126.593 67.206 126.865 67.07C126.241 66.734 125.749 66.286 125.389 65.726C125.037 65.166 124.861 64.51 124.861 63.758C124.861 63.15 124.981 62.602 125.221 62.114C125.469 61.618 125.809 61.198 126.241 60.854C126.681 60.502 127.197 60.234 127.789 60.05C128.389 59.866 129.041 59.774 129.745 59.774C130.273 59.774 130.769 59.83 131.233 59.942C131.697 60.046 132.121 60.202 132.505 60.41H136.045ZM143.162 59.798C144.074 59.798 144.902 59.946 145.646 60.242C146.398 60.538 147.038 60.958 147.566 61.502C148.102 62.046 148.514 62.71 148.802 63.494C149.09 64.278 149.234 65.154 149.234 66.122C149.234 67.098 149.09 67.978 148.802 68.762C148.514 69.546 148.102 70.214 147.566 70.766C147.038 71.318 146.398 71.742 145.646 72.038C144.902 72.334 144.074 72.482 143.162 72.482C142.242 72.482 141.406 72.334 140.654 72.038C139.902 71.742 139.258 71.318 138.722 70.766C138.194 70.214 137.782 69.546 137.486 68.762C137.198 67.978 137.054 67.098 137.054 66.122C137.054 65.154 137.198 64.278 137.486 63.494C137.782 62.71 138.194 62.046 138.722 61.502C139.258 60.958 139.902 60.538 140.654 60.242C141.406 59.946 142.242 59.798 143.162 59.798ZM143.162 70.202C144.186 70.202 144.942 69.858 145.43 69.17C145.926 68.482 146.174 67.474 146.174 66.146C146.174 64.818 145.926 63.806 145.43 63.11C144.942 62.414 144.186 62.066 143.162 62.066C142.122 62.066 141.35 62.418 140.846 63.122C140.35 63.818 140.102 64.826 140.102 66.146C140.102 67.466 140.35 68.474 140.846 69.17C141.35 69.858 142.122 70.202 143.162 70.202ZM155.902 65.846C156.27 65.846 156.59 65.798 156.862 65.702C157.134 65.598 157.358 65.458 157.534 65.282C157.718 65.106 157.854 64.894 157.942 64.646C158.038 64.398 158.086 64.126 158.086 63.83C158.086 63.222 157.902 62.742 157.534 62.39C157.174 62.03 156.63 61.85 155.902 61.85C155.174 61.85 154.626 62.03 154.258 62.39C153.898 62.742 153.718 63.222 153.718 63.83C153.718 64.118 153.762 64.386 153.85 64.634C153.946 64.882 154.082 65.098 154.258 65.282C154.442 65.458 154.67 65.598 154.942 65.702C155.222 65.798 155.542 65.846 155.902 65.846ZM159.25 72.854C159.25 72.614 159.178 72.418 159.034 72.266C158.89 72.114 158.694 71.998 158.446 71.918C158.198 71.83 157.906 71.766 157.57 71.726C157.242 71.686 156.89 71.658 156.514 71.642C156.146 71.618 155.762 71.598 155.362 71.582C154.97 71.566 154.586 71.534 154.21 71.486C153.882 71.67 153.614 71.886 153.406 72.134C153.206 72.382 153.105 72.67 153.105 72.998C153.105 73.214 153.158 73.414 153.262 73.598C153.374 73.79 153.546 73.954 153.778 74.09C154.018 74.226 154.326 74.33 154.702 74.402C155.078 74.482 155.538 74.522 156.082 74.522C156.634 74.522 157.11 74.478 157.51 74.39C157.91 74.31 158.238 74.194 158.494 74.042C158.758 73.898 158.95 73.722 159.07 73.514C159.19 73.314 159.25 73.094 159.25 72.854ZM162.202 60.41V61.514C162.202 61.866 161.99 62.082 161.566 62.162L160.462 62.366C160.63 62.79 160.714 63.254 160.714 63.758C160.714 64.366 160.59 64.918 160.342 65.414C160.102 65.902 159.766 66.318 159.334 66.662C158.902 67.006 158.39 67.274 157.798 67.466C157.214 67.65 156.582 67.742 155.902 67.742C155.662 67.742 155.43 67.73 155.206 67.706C154.982 67.682 154.762 67.65 154.546 67.61C154.162 67.842 153.97 68.102 153.97 68.39C153.97 68.638 154.082 68.822 154.306 68.942C154.538 69.054 154.842 69.134 155.218 69.182C155.594 69.23 156.022 69.262 156.502 69.278C156.982 69.286 157.474 69.31 157.978 69.35C158.482 69.39 158.974 69.462 159.454 69.566C159.934 69.662 160.362 69.818 160.738 70.034C161.114 70.25 161.414 70.546 161.638 70.922C161.87 71.29 161.986 71.766 161.986 72.35C161.986 72.894 161.85 73.422 161.578 73.934C161.314 74.446 160.926 74.902 160.414 75.302C159.91 75.702 159.286 76.022 158.542 76.262C157.806 76.51 156.966 76.634 156.022 76.634C155.094 76.634 154.286 76.542 153.598 76.358C152.91 76.182 152.338 75.942 151.882 75.638C151.426 75.342 151.086 74.998 150.862 74.606C150.638 74.214 150.526 73.806 150.526 73.382C150.526 72.806 150.698 72.326 151.042 71.942C151.394 71.55 151.874 71.238 152.482 71.006C152.154 70.838 151.894 70.614 151.701 70.334C151.51 70.054 151.414 69.686 151.414 69.23C151.414 69.046 151.446 68.858 151.51 68.666C151.582 68.466 151.682 68.27 151.81 68.078C151.946 67.886 152.114 67.706 152.314 67.538C152.514 67.362 152.75 67.206 153.021 67.07C152.398 66.734 151.906 66.286 151.546 65.726C151.194 65.166 151.018 64.51 151.018 63.758C151.018 63.15 151.138 62.602 151.378 62.114C151.626 61.618 151.966 61.198 152.398 60.854C152.838 60.502 153.354 60.234 153.946 60.05C154.546 59.866 155.198 59.774 155.902 59.774C156.43 59.774 156.926 59.83 157.39 59.942C157.854 60.046 158.278 60.202 158.662 60.41H162.202ZM167.153 59.99V72.302H164.177V59.99H167.153ZM167.561 56.402C167.561 56.658 167.509 56.898 167.405 57.122C167.301 57.346 167.161 57.542 166.985 57.71C166.817 57.878 166.617 58.014 166.385 58.118C166.153 58.214 165.905 58.262 165.641 58.262C165.385 58.262 165.141 58.214 164.909 58.118C164.685 58.014 164.489 57.878 164.321 57.71C164.153 57.542 164.017 57.346 163.913 57.122C163.817 56.898 163.769 56.658 163.769 56.402C163.769 56.138 163.817 55.89 163.913 55.658C164.017 55.426 164.153 55.226 164.321 55.058C164.489 54.89 164.685 54.758 164.909 54.662C165.141 54.558 165.385 54.506 165.641 54.506C165.905 54.506 166.153 54.558 166.385 54.662C166.617 54.758 166.817 54.89 166.985 55.058C167.161 55.226 167.301 55.426 167.405 55.658C167.509 55.89 167.561 56.138 167.561 56.402ZM178.995 62.594C178.907 62.706 178.819 62.794 178.731 62.858C178.651 62.922 178.531 62.954 178.371 62.954C178.219 62.954 178.071 62.91 177.927 62.822C177.783 62.726 177.611 62.622 177.411 62.51C177.211 62.39 176.971 62.286 176.691 62.198C176.419 62.102 176.079 62.054 175.671 62.054C175.151 62.054 174.695 62.15 174.303 62.342C173.911 62.526 173.583 62.794 173.319 63.146C173.063 63.498 172.871 63.926 172.743 64.43C172.615 64.926 172.551 65.49 172.551 66.122C172.551 66.778 172.619 67.362 172.755 67.874C172.899 68.386 173.103 68.818 173.367 69.17C173.631 69.514 173.951 69.778 174.327 69.962C174.703 70.138 175.127 70.226 175.599 70.226C176.071 70.226 176.451 70.17 176.739 70.058C177.035 69.938 177.283 69.81 177.483 69.674C177.683 69.53 177.855 69.402 177.999 69.29C178.151 69.17 178.319 69.11 178.503 69.11C178.743 69.11 178.923 69.202 179.043 69.386L179.895 70.466C179.567 70.85 179.211 71.174 178.827 71.438C178.443 71.694 178.043 71.902 177.627 72.062C177.219 72.214 176.795 72.322 176.355 72.386C175.923 72.45 175.491 72.482 175.059 72.482C174.299 72.482 173.583 72.342 172.911 72.062C172.239 71.774 171.651 71.358 171.147 70.814C170.643 70.27 170.243 69.606 169.947 68.822C169.659 68.03 169.515 67.13 169.515 66.122C169.515 65.218 169.643 64.382 169.899 63.614C170.163 62.838 170.547 62.17 171.051 61.61C171.555 61.042 172.179 60.598 172.923 60.278C173.667 59.958 174.523 59.798 175.491 59.798C176.411 59.798 177.215 59.946 177.903 60.242C178.599 60.538 179.223 60.962 179.775 61.514L178.995 62.594ZM188.257 67.046C187.401 67.086 186.681 67.162 186.097 67.274C185.513 67.378 185.045 67.514 184.693 67.682C184.341 67.85 184.089 68.046 183.937 68.27C183.785 68.494 183.709 68.738 183.709 69.002C183.709 69.522 183.861 69.894 184.165 70.118C184.477 70.342 184.881 70.454 185.377 70.454C185.985 70.454 186.509 70.346 186.949 70.13C187.397 69.906 187.833 69.57 188.257 69.122V67.046ZM181.465 61.706C182.881 60.41 184.585 59.762 186.577 59.762C187.297 59.762 187.941 59.882 188.509 60.122C189.077 60.354 189.557 60.682 189.949 61.106C190.341 61.522 190.637 62.022 190.837 62.606C191.045 63.19 191.149 63.83 191.149 64.526V72.302H189.805C189.525 72.302 189.309 72.262 189.157 72.182C189.005 72.094 188.885 71.922 188.797 71.666L188.533 70.778C188.221 71.058 187.917 71.306 187.621 71.522C187.325 71.73 187.017 71.906 186.697 72.05C186.377 72.194 186.033 72.302 185.665 72.374C185.305 72.454 184.905 72.494 184.465 72.494C183.945 72.494 183.465 72.426 183.025 72.29C182.585 72.146 182.205 71.934 181.885 71.654C181.565 71.374 181.317 71.026 181.141 70.61C180.965 70.194 180.877 69.71 180.877 69.158C180.877 68.846 180.929 68.538 181.033 68.234C181.137 67.922 181.305 67.626 181.537 67.346C181.777 67.066 182.085 66.802 182.461 66.554C182.837 66.306 183.297 66.09 183.841 65.906C184.393 65.722 185.033 65.574 185.761 65.462C186.489 65.342 187.321 65.27 188.257 65.246V64.526C188.257 63.702 188.081 63.094 187.729 62.702C187.377 62.302 186.869 62.102 186.205 62.102C185.725 62.102 185.325 62.158 185.005 62.27C184.693 62.382 184.417 62.51 184.177 62.654C183.937 62.79 183.717 62.914 183.517 63.026C183.325 63.138 183.109 63.194 182.869 63.194C182.661 63.194 182.485 63.142 182.341 63.038C182.197 62.926 182.081 62.798 181.993 62.654L181.465 61.706ZM196.941 54.47V72.302H193.977V54.47H196.941ZM208.694 69.11C209.03 69.518 209.394 69.806 209.786 69.974C210.186 70.142 210.618 70.226 211.082 70.226C211.53 70.226 211.934 70.142 212.294 69.974C212.654 69.806 212.958 69.55 213.206 69.206C213.462 68.862 213.658 68.43 213.794 67.91C213.93 67.382 213.998 66.762 213.998 66.05C213.998 65.33 213.938 64.722 213.818 64.226C213.706 63.722 213.542 63.314 213.326 63.002C213.11 62.69 212.846 62.462 212.534 62.318C212.23 62.174 211.882 62.102 211.49 62.102C210.874 62.102 210.35 62.234 209.918 62.498C209.486 62.754 209.078 63.118 208.694 63.59V69.11ZM208.538 61.67C209.042 61.102 209.614 60.642 210.254 60.29C210.894 59.938 211.646 59.762 212.51 59.762C213.182 59.762 213.794 59.902 214.346 60.182C214.906 60.462 215.386 60.87 215.786 61.406C216.194 61.934 216.506 62.59 216.722 63.374C216.946 64.15 217.058 65.042 217.058 66.05C217.058 66.97 216.934 67.822 216.686 68.606C216.438 69.39 216.082 70.07 215.618 70.646C215.162 71.222 214.606 71.674 213.95 72.002C213.302 72.322 212.574 72.482 211.766 72.482C211.078 72.482 210.49 72.378 210.002 72.17C209.514 71.954 209.078 71.658 208.694 71.282V76.322H205.73V59.99H207.542C207.926 59.99 208.178 60.17 208.298 60.53L208.538 61.67ZM227.302 64.73C227.302 64.346 227.246 63.986 227.134 63.65C227.03 63.306 226.87 63.006 226.654 62.75C226.438 62.494 226.162 62.294 225.826 62.15C225.498 61.998 225.114 61.922 224.674 61.922C223.818 61.922 223.142 62.166 222.646 62.654C222.158 63.142 221.846 63.834 221.71 64.73H227.302ZM221.65 66.518C221.698 67.15 221.81 67.698 221.986 68.162C222.162 68.618 222.394 68.998 222.682 69.302C222.97 69.598 223.31 69.822 223.702 69.974C224.102 70.118 224.542 70.19 225.022 70.19C225.502 70.19 225.914 70.134 226.258 70.022C226.61 69.91 226.914 69.786 227.17 69.65C227.434 69.514 227.662 69.39 227.854 69.278C228.054 69.166 228.246 69.11 228.43 69.11C228.678 69.11 228.862 69.202 228.982 69.386L229.834 70.466C229.506 70.85 229.138 71.174 228.73 71.438C228.322 71.694 227.894 71.902 227.446 72.062C227.006 72.214 226.554 72.322 226.09 72.386C225.634 72.45 225.19 72.482 224.758 72.482C223.902 72.482 223.106 72.342 222.37 72.062C221.634 71.774 220.994 71.354 220.45 70.802C219.906 70.242 219.478 69.554 219.166 68.738C218.854 67.914 218.698 66.962 218.698 65.882C218.698 65.042 218.834 64.254 219.106 63.518C219.378 62.774 219.766 62.13 220.27 61.586C220.782 61.034 221.402 60.598 222.13 60.278C222.866 59.958 223.694 59.798 224.614 59.798C225.39 59.798 226.106 59.922 226.762 60.17C227.418 60.418 227.982 60.782 228.454 61.262C228.926 61.734 229.294 62.318 229.558 63.014C229.83 63.702 229.966 64.49 229.966 65.378C229.966 65.826 229.918 66.13 229.822 66.29C229.726 66.442 229.542 66.518 229.27 66.518H221.65ZM234.987 62.126C235.371 61.39 235.827 60.814 236.355 60.398C236.883 59.974 237.507 59.762 238.227 59.762C238.795 59.762 239.251 59.886 239.595 60.134L239.403 62.354C239.363 62.498 239.303 62.602 239.223 62.666C239.151 62.722 239.051 62.75 238.923 62.75C238.803 62.75 238.623 62.73 238.383 62.69C238.151 62.65 237.923 62.63 237.699 62.63C237.371 62.63 237.079 62.678 236.823 62.774C236.567 62.87 236.335 63.01 236.127 63.194C235.927 63.37 235.747 63.586 235.587 63.842C235.435 64.098 235.291 64.39 235.155 64.718V72.302H232.191V59.99H233.931C234.235 59.99 234.447 60.046 234.567 60.158C234.687 60.262 234.767 60.454 234.807 60.734L234.987 62.126ZM248.609 62.39C248.529 62.518 248.445 62.61 248.357 62.666C248.269 62.714 248.157 62.738 248.021 62.738C247.877 62.738 247.721 62.698 247.553 62.618C247.393 62.538 247.205 62.45 246.989 62.354C246.773 62.25 246.525 62.158 246.245 62.078C245.973 61.998 245.649 61.958 245.273 61.958C244.689 61.958 244.229 62.082 243.893 62.33C243.565 62.578 243.401 62.902 243.401 63.302C243.401 63.566 243.485 63.79 243.653 63.974C243.829 64.15 244.057 64.306 244.337 64.442C244.625 64.578 244.949 64.702 245.309 64.814C245.669 64.918 246.033 65.034 246.401 65.162C246.777 65.29 247.145 65.438 247.505 65.606C247.865 65.766 248.185 65.974 248.465 66.23C248.753 66.478 248.981 66.778 249.149 67.13C249.325 67.482 249.413 67.906 249.413 68.402C249.413 68.994 249.305 69.542 249.089 70.046C248.881 70.542 248.569 70.974 248.153 71.342C247.737 71.702 247.221 71.986 246.605 72.194C245.997 72.394 245.293 72.494 244.493 72.494C244.069 72.494 243.653 72.454 243.245 72.374C242.845 72.302 242.457 72.198 242.081 72.062C241.713 71.926 241.369 71.766 241.049 71.582C240.737 71.398 240.461 71.198 240.221 70.982L240.905 69.854C240.993 69.718 241.097 69.614 241.217 69.542C241.337 69.47 241.489 69.434 241.673 69.434C241.857 69.434 242.029 69.486 242.189 69.59C242.357 69.694 242.549 69.806 242.765 69.926C242.981 70.046 243.233 70.158 243.521 70.262C243.817 70.366 244.189 70.418 244.637 70.418C244.989 70.418 245.289 70.378 245.537 70.298C245.793 70.21 246.001 70.098 246.161 69.962C246.329 69.826 246.449 69.67 246.521 69.494C246.601 69.31 246.641 69.122 246.641 68.93C246.641 68.642 246.553 68.406 246.377 68.222C246.209 68.038 245.981 67.878 245.693 67.742C245.413 67.606 245.089 67.486 244.721 67.382C244.361 67.27 243.989 67.15 243.605 67.022C243.229 66.894 242.857 66.746 242.489 66.578C242.129 66.402 241.805 66.182 241.517 65.918C241.237 65.654 241.009 65.33 240.833 64.946C240.665 64.562 240.581 64.098 240.581 63.554C240.581 63.05 240.681 62.57 240.881 62.114C241.081 61.658 241.373 61.262 241.757 60.926C242.149 60.582 242.633 60.31 243.209 60.11C243.793 59.902 244.465 59.798 245.225 59.798C246.073 59.798 246.845 59.938 247.541 60.218C248.237 60.498 248.817 60.866 249.281 61.322L248.609 62.39ZM254.608 69.11C254.944 69.518 255.308 69.806 255.7 69.974C256.1 70.142 256.532 70.226 256.996 70.226C257.444 70.226 257.848 70.142 258.208 69.974C258.568 69.806 258.872 69.55 259.12 69.206C259.376 68.862 259.572 68.43 259.708 67.91C259.844 67.382 259.912 66.762 259.912 66.05C259.912 65.33 259.852 64.722 259.732 64.226C259.62 63.722 259.456 63.314 259.24 63.002C259.024 62.69 258.76 62.462 258.448 62.318C258.144 62.174 257.796 62.102 257.404 62.102C256.788 62.102 256.264 62.234 255.832 62.498C255.4 62.754 254.992 63.118 254.608 63.59V69.11ZM254.452 61.67C254.956 61.102 255.528 60.642 256.168 60.29C256.808 59.938 257.56 59.762 258.424 59.762C259.096 59.762 259.708 59.902 260.26 60.182C260.82 60.462 261.3 60.87 261.7 61.406C262.108 61.934 262.42 62.59 262.636 63.374C262.86 64.15 262.972 65.042 262.972 66.05C262.972 66.97 262.848 67.822 262.6 68.606C262.352 69.39 261.996 70.07 261.532 70.646C261.076 71.222 260.52 71.674 259.864 72.002C259.216 72.322 258.488 72.482 257.68 72.482C256.992 72.482 256.404 72.378 255.916 72.17C255.428 71.954 254.992 71.658 254.608 71.282V76.322H251.644V59.99H253.456C253.84 59.99 254.092 60.17 254.212 60.53L254.452 61.67ZM273.216 64.73C273.216 64.346 273.16 63.986 273.048 63.65C272.944 63.306 272.784 63.006 272.568 62.75C272.352 62.494 272.076 62.294 271.74 62.15C271.412 61.998 271.028 61.922 270.588 61.922C269.732 61.922 269.056 62.166 268.56 62.654C268.072 63.142 267.76 63.834 267.624 64.73H273.216ZM267.564 66.518C267.612 67.15 267.724 67.698 267.9 68.162C268.076 68.618 268.308 68.998 268.596 69.302C268.884 69.598 269.224 69.822 269.616 69.974C270.016 70.118 270.456 70.19 270.936 70.19C271.416 70.19 271.828 70.134 272.172 70.022C272.524 69.91 272.828 69.786 273.084 69.65C273.348 69.514 273.576 69.39 273.768 69.278C273.968 69.166 274.16 69.11 274.344 69.11C274.592 69.11 274.776 69.202 274.896 69.386L275.748 70.466C275.42 70.85 275.052 71.174 274.644 71.438C274.236 71.694 273.808 71.902 273.36 72.062C272.92 72.214 272.468 72.322 272.004 72.386C271.548 72.45 271.104 72.482 270.672 72.482C269.816 72.482 269.02 72.342 268.284 72.062C267.548 71.774 266.908 71.354 266.364 70.802C265.82 70.242 265.392 69.554 265.08 68.738C264.768 67.914 264.612 66.962 264.612 65.882C264.612 65.042 264.748 64.254 265.02 63.518C265.292 62.774 265.68 62.13 266.184 61.586C266.696 61.034 267.316 60.598 268.044 60.278C268.78 59.958 269.608 59.798 270.528 59.798C271.304 59.798 272.02 59.922 272.676 60.17C273.332 60.418 273.896 60.782 274.368 61.262C274.84 61.734 275.208 62.318 275.472 63.014C275.744 63.702 275.88 64.49 275.88 65.378C275.88 65.826 275.832 66.13 275.736 66.29C275.64 66.442 275.456 66.518 275.184 66.518H267.564ZM286.925 62.594C286.837 62.706 286.749 62.794 286.661 62.858C286.581 62.922 286.461 62.954 286.301 62.954C286.149 62.954 286.001 62.91 285.857 62.822C285.713 62.726 285.541 62.622 285.341 62.51C285.141 62.39 284.901 62.286 284.621 62.198C284.349 62.102 284.009 62.054 283.601 62.054C283.081 62.054 282.625 62.15 282.233 62.342C281.841 62.526 281.513 62.794 281.249 63.146C280.993 63.498 280.801 63.926 280.673 64.43C280.545 64.926 280.481 65.49 280.481 66.122C280.481 66.778 280.549 67.362 280.685 67.874C280.829 68.386 281.033 68.818 281.297 69.17C281.561 69.514 281.881 69.778 282.257 69.962C282.633 70.138 283.057 70.226 283.529 70.226C284.001 70.226 284.381 70.17 284.669 70.058C284.965 69.938 285.213 69.81 285.413 69.674C285.613 69.53 285.785 69.402 285.929 69.29C286.081 69.17 286.249 69.11 286.433 69.11C286.673 69.11 286.853 69.202 286.973 69.386L287.825 70.466C287.497 70.85 287.141 71.174 286.757 71.438C286.373 71.694 285.973 71.902 285.557 72.062C285.149 72.214 284.725 72.322 284.285 72.386C283.853 72.45 283.421 72.482 282.989 72.482C282.229 72.482 281.513 72.342 280.841 72.062C280.169 71.774 279.581 71.358 279.077 70.814C278.573 70.27 278.173 69.606 277.877 68.822C277.589 68.03 277.445 67.13 277.445 66.122C277.445 65.218 277.573 64.382 277.829 63.614C278.093 62.838 278.477 62.17 278.981 61.61C279.485 61.042 280.109 60.598 280.853 60.278C281.597 59.958 282.453 59.798 283.421 59.798C284.341 59.798 285.145 59.946 285.833 60.242C286.529 60.538 287.153 60.962 287.705 61.514L286.925 62.594ZM302.103 72.302H299.139V62.21H293.427V68.882C293.427 69.266 293.519 69.566 293.703 69.782C293.895 69.998 294.155 70.106 294.483 70.106C294.667 70.106 294.819 70.086 294.939 70.046C295.067 69.998 295.175 69.95 295.263 69.902C295.359 69.854 295.443 69.81 295.515 69.77C295.587 69.722 295.659 69.698 295.731 69.698C295.819 69.698 295.891 69.722 295.947 69.77C296.003 69.81 296.063 69.874 296.127 69.962L297.015 71.402C296.583 71.762 296.087 72.034 295.527 72.218C294.967 72.402 294.387 72.494 293.787 72.494C292.715 72.494 291.891 72.194 291.315 71.594C290.747 70.986 290.463 70.15 290.463 69.086V62.21H289.203C289.043 62.21 288.907 62.158 288.795 62.054C288.683 61.95 288.627 61.794 288.627 61.586V60.41L290.607 60.074L291.231 56.726C291.271 56.566 291.347 56.442 291.459 56.354C291.571 56.266 291.715 56.222 291.891 56.222H293.427V60.098H302.103V72.302ZM302.619 56.354C302.619 56.61 302.567 56.854 302.463 57.086C302.359 57.31 302.219 57.506 302.043 57.674C301.875 57.842 301.671 57.978 301.431 58.082C301.199 58.178 300.951 58.226 300.687 58.226C300.431 58.226 300.191 58.178 299.967 58.082C299.743 57.978 299.547 57.842 299.379 57.674C299.211 57.506 299.075 57.31 298.971 57.086C298.875 56.854 298.827 56.61 298.827 56.354C298.827 56.09 298.875 55.846 298.971 55.622C299.075 55.39 299.211 55.19 299.379 55.022C299.547 54.846 299.743 54.71 299.967 54.614C300.191 54.51 300.431 54.458 300.687 54.458C300.951 54.458 301.199 54.51 301.431 54.614C301.671 54.71 301.875 54.846 302.043 55.022C302.219 55.19 302.359 55.39 302.463 55.622C302.567 55.846 302.619 56.09 302.619 56.354ZM316.228 59.99L311.344 72.302H308.656L303.772 59.99H306.22C306.444 59.99 306.628 60.042 306.772 60.146C306.924 60.25 307.024 60.382 307.072 60.542L309.448 67.118C309.576 67.502 309.688 67.878 309.784 68.246C309.88 68.614 309.964 68.982 310.036 69.35C310.116 68.982 310.204 68.614 310.3 68.246C310.396 67.878 310.512 67.502 310.648 67.118L313.072 60.542C313.128 60.382 313.228 60.25 313.372 60.146C313.516 60.042 313.688 59.99 313.888 59.99H316.228ZM325.365 64.73C325.365 64.346 325.309 63.986 325.197 63.65C325.093 63.306 324.933 63.006 324.717 62.75C324.501 62.494 324.225 62.294 323.889 62.15C323.561 61.998 323.177 61.922 322.737 61.922C321.881 61.922 321.205 62.166 320.709 62.654C320.221 63.142 319.909 63.834 319.773 64.73H325.365ZM319.713 66.518C319.761 67.15 319.873 67.698 320.049 68.162C320.225 68.618 320.457 68.998 320.745 69.302C321.033 69.598 321.373 69.822 321.765 69.974C322.165 70.118 322.605 70.19 323.085 70.19C323.565 70.19 323.977 70.134 324.321 70.022C324.673 69.91 324.977 69.786 325.233 69.65C325.497 69.514 325.725 69.39 325.917 69.278C326.117 69.166 326.309 69.11 326.493 69.11C326.741 69.11 326.925 69.202 327.045 69.386L327.897 70.466C327.569 70.85 327.201 71.174 326.793 71.438C326.385 71.694 325.957 71.902 325.509 72.062C325.069 72.214 324.617 72.322 324.153 72.386C323.697 72.45 323.253 72.482 322.821 72.482C321.965 72.482 321.169 72.342 320.433 72.062C319.697 71.774 319.057 71.354 318.513 70.802C317.969 70.242 317.541 69.554 317.229 68.738C316.917 67.914 316.761 66.962 316.761 65.882C316.761 65.042 316.897 64.254 317.169 63.518C317.441 62.774 317.829 62.13 318.333 61.586C318.845 61.034 319.465 60.598 320.193 60.278C320.929 59.958 321.757 59.798 322.677 59.798C323.453 59.798 324.169 59.922 324.825 60.17C325.481 60.418 326.045 60.782 326.517 61.262C326.989 61.734 327.357 62.318 327.621 63.014C327.893 63.702 328.029 64.49 328.029 65.378C328.029 65.826 327.981 66.13 327.885 66.29C327.789 66.442 327.605 66.518 327.333 66.518H319.713ZM337.765 62.39C337.685 62.518 337.601 62.61 337.513 62.666C337.425 62.714 337.313 62.738 337.177 62.738C337.033 62.738 336.877 62.698 336.709 62.618C336.549 62.538 336.361 62.45 336.145 62.354C335.929 62.25 335.681 62.158 335.401 62.078C335.129 61.998 334.805 61.958 334.429 61.958C333.845 61.958 333.385 62.082 333.049 62.33C332.721 62.578 332.557 62.902 332.557 63.302C332.557 63.566 332.641 63.79 332.809 63.974C332.985 64.15 333.213 64.306 333.493 64.442C333.781 64.578 334.105 64.702 334.465 64.814C334.825 64.918 335.189 65.034 335.557 65.162C335.933 65.29 336.301 65.438 336.661 65.606C337.021 65.766 337.341 65.974 337.621 66.23C337.909 66.478 338.137 66.778 338.305 67.13C338.481 67.482 338.569 67.906 338.569 68.402C338.569 68.994 338.461 69.542 338.245 70.046C338.037 70.542 337.725 70.974 337.309 71.342C336.893 71.702 336.377 71.986 335.761 72.194C335.153 72.394 334.449 72.494 333.649 72.494C333.225 72.494 332.809 72.454 332.401 72.374C332.001 72.302 331.613 72.198 331.237 72.062C330.869 71.926 330.525 71.766 330.205 71.582C329.893 71.398 329.617 71.198 329.377 70.982L330.061 69.854C330.149 69.718 330.253 69.614 330.373 69.542C330.493 69.47 330.645 69.434 330.829 69.434C331.013 69.434 331.185 69.486 331.345 69.59C331.513 69.694 331.705 69.806 331.921 69.926C332.137 70.046 332.389 70.158 332.677 70.262C332.973 70.366 333.345 70.418 333.793 70.418C334.145 70.418 334.445 70.378 334.693 70.298C334.949 70.21 335.157 70.098 335.317 69.962C335.485 69.826 335.605 69.67 335.677 69.494C335.757 69.31 335.797 69.122 335.797 68.93C335.797 68.642 335.709 68.406 335.533 68.222C335.365 68.038 335.137 67.878 334.849 67.742C334.569 67.606 334.245 67.486 333.877 67.382C333.517 67.27 333.145 67.15 332.761 67.022C332.385 66.894 332.013 66.746 331.645 66.578C331.285 66.402 330.961 66.182 330.673 65.918C330.393 65.654 330.165 65.33 329.989 64.946C329.821 64.562 329.737 64.098 329.737 63.554C329.737 63.05 329.837 62.57 330.037 62.114C330.237 61.658 330.529 61.262 330.913 60.926C331.305 60.582 331.789 60.31 332.365 60.11C332.949 59.902 333.621 59.798 334.381 59.798C335.229 59.798 336.001 59.938 336.697 60.218C337.393 60.498 337.973 60.866 338.437 61.322L337.765 62.39ZM353.14 67.046C352.284 67.086 351.564 67.162 350.98 67.274C350.396 67.378 349.928 67.514 349.576 67.682C349.224 67.85 348.972 68.046 348.82 68.27C348.668 68.494 348.592 68.738 348.592 69.002C348.592 69.522 348.744 69.894 349.048 70.118C349.36 70.342 349.764 70.454 350.26 70.454C350.868 70.454 351.392 70.346 351.832 70.13C352.28 69.906 352.716 69.57 353.14 69.122V67.046ZM346.348 61.706C347.764 60.41 349.468 59.762 351.46 59.762C352.18 59.762 352.824 59.882 353.392 60.122C353.96 60.354 354.44 60.682 354.832 61.106C355.224 61.522 355.52 62.022 355.72 62.606C355.928 63.19 356.032 63.83 356.032 64.526V72.302H354.688C354.408 72.302 354.192 72.262 354.04 72.182C353.888 72.094 353.768 71.922 353.68 71.666L353.416 70.778C353.104 71.058 352.8 71.306 352.504 71.522C352.208 71.73 351.9 71.906 351.58 72.05C351.26 72.194 350.916 72.302 350.548 72.374C350.188 72.454 349.788 72.494 349.348 72.494C348.828 72.494 348.348 72.426 347.908 72.29C347.468 72.146 347.088 71.934 346.768 71.654C346.448 71.374 346.2 71.026 346.024 70.61C345.848 70.194 345.76 69.71 345.76 69.158C345.76 68.846 345.812 68.538 345.916 68.234C346.02 67.922 346.188 67.626 346.42 67.346C346.66 67.066 346.968 66.802 347.344 66.554C347.72 66.306 348.18 66.09 348.724 65.906C349.276 65.722 349.916 65.574 350.644 65.462C351.372 65.342 352.204 65.27 353.14 65.246V64.526C353.14 63.702 352.964 63.094 352.612 62.702C352.26 62.302 351.752 62.102 351.088 62.102C350.608 62.102 350.208 62.158 349.888 62.27C349.576 62.382 349.3 62.51 349.06 62.654C348.82 62.79 348.6 62.914 348.4 63.026C348.208 63.138 347.992 63.194 347.752 63.194C347.544 63.194 347.368 63.142 347.224 63.038C347.08 62.926 346.964 62.798 346.876 62.654L346.348 61.706ZM361.787 69.11C362.123 69.518 362.487 69.806 362.879 69.974C363.279 70.142 363.711 70.226 364.175 70.226C364.623 70.226 365.027 70.142 365.387 69.974C365.747 69.806 366.051 69.55 366.299 69.206C366.555 68.862 366.751 68.43 366.887 67.91C367.023 67.382 367.091 66.762 367.091 66.05C367.091 65.33 367.031 64.722 366.911 64.226C366.799 63.722 366.635 63.314 366.419 63.002C366.203 62.69 365.939 62.462 365.627 62.318C365.323 62.174 364.975 62.102 364.583 62.102C363.967 62.102 363.443 62.234 363.011 62.498C362.579 62.754 362.171 63.118 361.787 63.59V69.11ZM361.631 61.67C362.135 61.102 362.707 60.642 363.347 60.29C363.987 59.938 364.739 59.762 365.603 59.762C366.275 59.762 366.887 59.902 367.439 60.182C367.999 60.462 368.479 60.87 368.879 61.406C369.287 61.934 369.599 62.59 369.815 63.374C370.039 64.15 370.151 65.042 370.151 66.05C370.151 66.97 370.027 67.822 369.779 68.606C369.531 69.39 369.175 70.07 368.711 70.646C368.255 71.222 367.699 71.674 367.043 72.002C366.395 72.322 365.667 72.482 364.859 72.482C364.171 72.482 363.583 72.378 363.095 72.17C362.607 71.954 362.171 71.658 361.787 71.282V76.322H358.823V59.99H360.635C361.019 59.99 361.271 60.17 361.391 60.53L361.631 61.67ZM375.428 69.11C375.764 69.518 376.128 69.806 376.52 69.974C376.92 70.142 377.352 70.226 377.816 70.226C378.264 70.226 378.668 70.142 379.028 69.974C379.388 69.806 379.692 69.55 379.94 69.206C380.196 68.862 380.392 68.43 380.528 67.91C380.664 67.382 380.732 66.762 380.732 66.05C380.732 65.33 380.672 64.722 380.552 64.226C380.44 63.722 380.276 63.314 380.06 63.002C379.844 62.69 379.58 62.462 379.268 62.318C378.964 62.174 378.616 62.102 378.224 62.102C377.608 62.102 377.084 62.234 376.652 62.498C376.22 62.754 375.812 63.118 375.428 63.59V69.11ZM375.272 61.67C375.776 61.102 376.348 60.642 376.988 60.29C377.628 59.938 378.38 59.762 379.244 59.762C379.916 59.762 380.528 59.902 381.08 60.182C381.64 60.462 382.12 60.87 382.52 61.406C382.928 61.934 383.24 62.59 383.456 63.374C383.68 64.15 383.792 65.042 383.792 66.05C383.792 66.97 383.668 67.822 383.42 68.606C383.172 69.39 382.816 70.07 382.352 70.646C381.896 71.222 381.34 71.674 380.684 72.002C380.036 72.322 379.308 72.482 378.5 72.482C377.812 72.482 377.224 72.378 376.736 72.17C376.248 71.954 375.812 71.658 375.428 71.282V76.322H372.464V59.99H374.276C374.66 59.99 374.912 60.17 375.032 60.53L375.272 61.67ZM389.105 54.47V72.302H386.141V54.47H389.105ZM395.13 59.99V72.302H392.154V59.99H395.13ZM395.538 56.402C395.538 56.658 395.486 56.898 395.382 57.122C395.278 57.346 395.138 57.542 394.962 57.71C394.794 57.878 394.594 58.014 394.362 58.118C394.13 58.214 393.882 58.262 393.618 58.262C393.362 58.262 393.118 58.214 392.886 58.118C392.662 58.014 392.466 57.878 392.298 57.71C392.13 57.542 391.994 57.346 391.89 57.122C391.794 56.898 391.746 56.658 391.746 56.402C391.746 56.138 391.794 55.89 391.89 55.658C391.994 55.426 392.13 55.226 392.298 55.058C392.466 54.89 392.662 54.758 392.886 54.662C393.118 54.558 393.362 54.506 393.618 54.506C393.882 54.506 394.13 54.558 394.362 54.662C394.594 54.758 394.794 54.89 394.962 55.058C395.138 55.226 395.278 55.426 395.382 55.658C395.486 55.89 395.538 56.138 395.538 56.402ZM406.084 64.73C406.084 64.346 406.028 63.986 405.916 63.65C405.812 63.306 405.652 63.006 405.436 62.75C405.22 62.494 404.944 62.294 404.608 62.15C404.28 61.998 403.896 61.922 403.456 61.922C402.6 61.922 401.924 62.166 401.428 62.654C400.94 63.142 400.628 63.834 400.492 64.73H406.084ZM400.432 66.518C400.48 67.15 400.592 67.698 400.768 68.162C400.944 68.618 401.176 68.998 401.464 69.302C401.752 69.598 402.092 69.822 402.484 69.974C402.884 70.118 403.324 70.19 403.804 70.19C404.284 70.19 404.696 70.134 405.04 70.022C405.392 69.91 405.696 69.786 405.952 69.65C406.216 69.514 406.444 69.39 406.636 69.278C406.836 69.166 407.028 69.11 407.212 69.11C407.46 69.11 407.644 69.202 407.764 69.386L408.616 70.466C408.288 70.85 407.92 71.174 407.512 71.438C407.104 71.694 406.676 71.902 406.228 72.062C405.788 72.214 405.336 72.322 404.872 72.386C404.416 72.45 403.972 72.482 403.54 72.482C402.684 72.482 401.888 72.342 401.152 72.062C400.416 71.774 399.776 71.354 399.232 70.802C398.688 70.242 398.26 69.554 397.948 68.738C397.636 67.914 397.479 66.962 397.479 65.882C397.479 65.042 397.616 64.254 397.888 63.518C398.16 62.774 398.548 62.13 399.052 61.586C399.564 61.034 400.184 60.598 400.912 60.278C401.648 59.958 402.476 59.798 403.396 59.798C404.172 59.798 404.888 59.922 405.544 60.17C406.2 60.418 406.764 60.782 407.236 61.262C407.708 61.734 408.076 62.318 408.34 63.014C408.612 63.702 408.747 64.49 408.747 65.378C408.747 65.826 408.7 66.13 408.604 66.29C408.508 66.442 408.324 66.518 408.052 66.518H400.432ZM418.7 63.134C418.364 62.726 417.996 62.438 417.596 62.27C417.204 62.102 416.78 62.018 416.324 62.018C415.876 62.018 415.472 62.102 415.112 62.27C414.752 62.438 414.444 62.694 414.188 63.038C413.932 63.374 413.736 63.806 413.6 64.334C413.464 64.854 413.396 65.47 413.396 66.182C413.396 66.902 413.452 67.514 413.564 68.018C413.684 68.514 413.852 68.922 414.068 69.242C414.284 69.554 414.548 69.782 414.86 69.926C415.172 70.062 415.52 70.13 415.904 70.13C416.52 70.13 417.044 70.002 417.476 69.746C417.908 69.49 418.316 69.126 418.7 68.654V63.134ZM421.664 54.47V72.302H419.852C419.46 72.302 419.212 72.122 419.108 71.762L418.856 70.574C418.36 71.142 417.788 71.602 417.14 71.954C416.5 72.306 415.752 72.482 414.896 72.482C414.224 72.482 413.608 72.342 413.048 72.062C412.488 71.782 412.004 71.378 411.596 70.85C411.196 70.314 410.884 69.654 410.66 68.87C410.444 68.086 410.336 67.19 410.336 66.182C410.336 65.27 410.46 64.422 410.708 63.638C410.956 62.854 411.312 62.174 411.776 61.598C412.24 61.022 412.796 60.574 413.444 60.254C414.092 59.926 414.82 59.762 415.628 59.762C416.316 59.762 416.904 59.87 417.392 60.086C417.88 60.302 418.316 60.594 418.7 60.962V54.47H421.664ZM434.529 72.494C433.457 72.494 432.633 72.194 432.057 71.594C431.489 70.986 431.205 70.15 431.205 69.086V62.21H429.945C429.785 62.21 429.649 62.158 429.537 62.054C429.425 61.95 429.369 61.794 429.369 61.586V60.41L431.349 60.086L431.973 56.726C432.013 56.566 432.089 56.442 432.201 56.354C432.313 56.266 432.457 56.222 432.633 56.222H434.169V60.098H437.457V62.21H434.169V68.882C434.169 69.266 434.261 69.566 434.445 69.782C434.637 69.998 434.897 70.106 435.225 70.106C435.409 70.106 435.561 70.086 435.681 70.046C435.809 69.998 435.917 69.95 436.005 69.902C436.101 69.854 436.185 69.81 436.257 69.77C436.329 69.722 436.401 69.698 436.473 69.698C436.561 69.698 436.633 69.722 436.689 69.77C436.745 69.81 436.805 69.874 436.869 69.962L437.757 71.402C437.325 71.762 436.829 72.034 436.269 72.218C435.709 72.402 435.129 72.494 434.529 72.494ZM444.709 59.798C445.621 59.798 446.449 59.946 447.193 60.242C447.945 60.538 448.585 60.958 449.113 61.502C449.649 62.046 450.061 62.71 450.349 63.494C450.637 64.278 450.781 65.154 450.781 66.122C450.781 67.098 450.637 67.978 450.349 68.762C450.061 69.546 449.649 70.214 449.113 70.766C448.585 71.318 447.945 71.742 447.193 72.038C446.449 72.334 445.621 72.482 444.709 72.482C443.789 72.482 442.953 72.334 442.201 72.038C441.449 71.742 440.805 71.318 440.269 70.766C439.741 70.214 439.329 69.546 439.033 68.762C438.745 67.978 438.601 67.098 438.601 66.122C438.601 65.154 438.745 64.278 439.033 63.494C439.329 62.71 439.741 62.046 440.269 61.502C440.805 60.958 441.449 60.538 442.201 60.242C442.953 59.946 443.789 59.798 444.709 59.798ZM444.709 70.202C445.733 70.202 446.489 69.858 446.977 69.17C447.473 68.482 447.721 67.474 447.721 66.146C447.721 64.818 447.473 63.806 446.977 63.11C446.489 62.414 445.733 62.066 444.709 62.066C443.669 62.066 442.897 62.418 442.393 63.122C441.897 63.818 441.649 64.826 441.649 66.146C441.649 67.466 441.897 68.474 442.393 69.17C442.897 69.858 443.669 70.202 444.709 70.202ZM461.878 54.47V72.302H458.914V54.47H461.878ZM471.335 67.046C470.479 67.086 469.759 67.162 469.175 67.274C468.591 67.378 468.123 67.514 467.771 67.682C467.419 67.85 467.167 68.046 467.015 68.27C466.863 68.494 466.787 68.738 466.787 69.002C466.787 69.522 466.939 69.894 467.243 70.118C467.555 70.342 467.959 70.454 468.455 70.454C469.063 70.454 469.587 70.346 470.027 70.13C470.475 69.906 470.911 69.57 471.335 69.122V67.046ZM464.543 61.706C465.959 60.41 467.663 59.762 469.655 59.762C470.375 59.762 471.019 59.882 471.587 60.122C472.155 60.354 472.635 60.682 473.027 61.106C473.419 61.522 473.715 62.022 473.915 62.606C474.123 63.19 474.227 63.83 474.227 64.526V72.302H472.883C472.603 72.302 472.387 72.262 472.235 72.182C472.083 72.094 471.963 71.922 471.875 71.666L471.611 70.778C471.299 71.058 470.995 71.306 470.699 71.522C470.403 71.73 470.095 71.906 469.775 72.05C469.455 72.194 469.111 72.302 468.743 72.374C468.383 72.454 467.983 72.494 467.543 72.494C467.023 72.494 466.543 72.426 466.103 72.29C465.663 72.146 465.283 71.934 464.963 71.654C464.643 71.374 464.395 71.026 464.219 70.61C464.043 70.194 463.955 69.71 463.955 69.158C463.955 68.846 464.007 68.538 464.111 68.234C464.215 67.922 464.383 67.626 464.615 67.346C464.855 67.066 465.163 66.802 465.539 66.554C465.915 66.306 466.375 66.09 466.919 65.906C467.471 65.722 468.111 65.574 468.839 65.462C469.567 65.342 470.399 65.27 471.335 65.246V64.526C471.335 63.702 471.159 63.094 470.807 62.702C470.455 62.302 469.947 62.102 469.283 62.102C468.803 62.102 468.403 62.158 468.083 62.27C467.771 62.382 467.495 62.51 467.255 62.654C467.015 62.79 466.795 62.914 466.595 63.026C466.403 63.138 466.187 63.194 465.947 63.194C465.739 63.194 465.563 63.142 465.419 63.038C465.275 62.926 465.159 62.798 465.071 62.654L464.543 61.706ZM479.791 61.502C480.039 61.254 480.299 61.026 480.571 60.818C480.851 60.602 481.143 60.422 481.447 60.278C481.759 60.126 482.091 60.01 482.443 59.93C482.795 59.842 483.179 59.798 483.595 59.798C484.267 59.798 484.863 59.914 485.383 60.146C485.903 60.37 486.335 60.69 486.679 61.106C487.031 61.514 487.295 62.006 487.471 62.582C487.655 63.15 487.747 63.778 487.747 64.466V72.302H484.783V64.466C484.783 63.714 484.611 63.134 484.267 62.726C483.923 62.31 483.399 62.102 482.695 62.102C482.183 62.102 481.703 62.218 481.255 62.45C480.807 62.682 480.383 62.998 479.983 63.398V72.302H477.019V59.99H478.831C479.215 59.99 479.467 60.17 479.587 60.53L479.791 61.502ZM495.066 65.846C495.434 65.846 495.754 65.798 496.026 65.702C496.298 65.598 496.522 65.458 496.698 65.282C496.882 65.106 497.018 64.894 497.106 64.646C497.202 64.398 497.25 64.126 497.25 63.83C497.25 63.222 497.066 62.742 496.698 62.39C496.338 62.03 495.794 61.85 495.066 61.85C494.338 61.85 493.79 62.03 493.422 62.39C493.062 62.742 492.882 63.222 492.882 63.83C492.882 64.118 492.926 64.386 493.014 64.634C493.11 64.882 493.246 65.098 493.422 65.282C493.606 65.458 493.834 65.598 494.106 65.702C494.386 65.798 494.706 65.846 495.066 65.846ZM498.414 72.854C498.414 72.614 498.342 72.418 498.198 72.266C498.054 72.114 497.858 71.998 497.61 71.918C497.362 71.83 497.07 71.766 496.734 71.726C496.406 71.686 496.054 71.658 495.678 71.642C495.31 71.618 494.926 71.598 494.526 71.582C494.134 71.566 493.75 71.534 493.374 71.486C493.046 71.67 492.778 71.886 492.57 72.134C492.37 72.382 492.27 72.67 492.27 72.998C492.27 73.214 492.322 73.414 492.426 73.598C492.538 73.79 492.71 73.954 492.942 74.09C493.182 74.226 493.49 74.33 493.866 74.402C494.242 74.482 494.702 74.522 495.246 74.522C495.798 74.522 496.274 74.478 496.674 74.39C497.074 74.31 497.402 74.194 497.658 74.042C497.922 73.898 498.114 73.722 498.234 73.514C498.354 73.314 498.414 73.094 498.414 72.854ZM501.366 60.41V61.514C501.366 61.866 501.154 62.082 500.73 62.162L499.626 62.366C499.794 62.79 499.878 63.254 499.878 63.758C499.878 64.366 499.754 64.918 499.506 65.414C499.266 65.902 498.93 66.318 498.498 66.662C498.066 67.006 497.554 67.274 496.962 67.466C496.378 67.65 495.746 67.742 495.066 67.742C494.826 67.742 494.594 67.73 494.37 67.706C494.146 67.682 493.926 67.65 493.71 67.61C493.326 67.842 493.134 68.102 493.134 68.39C493.134 68.638 493.246 68.822 493.47 68.942C493.702 69.054 494.006 69.134 494.382 69.182C494.758 69.23 495.186 69.262 495.666 69.278C496.146 69.286 496.638 69.31 497.142 69.35C497.646 69.39 498.138 69.462 498.618 69.566C499.098 69.662 499.526 69.818 499.902 70.034C500.278 70.25 500.578 70.546 500.802 70.922C501.034 71.29 501.15 71.766 501.15 72.35C501.15 72.894 501.014 73.422 500.742 73.934C500.478 74.446 500.09 74.902 499.578 75.302C499.074 75.702 498.45 76.022 497.706 76.262C496.97 76.51 496.13 76.634 495.186 76.634C494.258 76.634 493.45 76.542 492.762 76.358C492.074 76.182 491.502 75.942 491.046 75.638C490.59 75.342 490.25 74.998 490.026 74.606C489.802 74.214 489.69 73.806 489.69 73.382C489.69 72.806 489.862 72.326 490.206 71.942C490.558 71.55 491.038 71.238 491.646 71.006C491.318 70.838 491.058 70.614 490.866 70.334C490.674 70.054 490.578 69.686 490.578 69.23C490.578 69.046 490.61 68.858 490.674 68.666C490.746 68.466 490.846 68.27 490.974 68.078C491.11 67.886 491.278 67.706 491.478 67.538C491.678 67.362 491.914 67.206 492.186 67.07C491.562 66.734 491.07 66.286 490.71 65.726C490.358 65.166 490.182 64.51 490.182 63.758C490.182 63.15 490.302 62.602 490.542 62.114C490.79 61.618 491.13 61.198 491.562 60.854C492.002 60.502 492.518 60.234 493.11 60.05C493.71 59.866 494.362 59.774 495.066 59.774C495.594 59.774 496.09 59.83 496.554 59.942C497.018 60.046 497.442 60.202 497.826 60.41H501.366ZM513.853 59.99V72.302H512.041C511.649 72.302 511.401 72.122 511.297 71.762L511.093 70.778C510.589 71.29 510.033 71.706 509.425 72.026C508.817 72.338 508.101 72.494 507.277 72.494C506.605 72.494 506.009 72.382 505.489 72.158C504.977 71.926 504.545 71.602 504.193 71.186C503.841 70.77 503.573 70.278 503.389 69.71C503.213 69.134 503.125 68.502 503.125 67.814V59.99H506.089V67.814C506.089 68.566 506.261 69.15 506.605 69.566C506.957 69.974 507.481 70.178 508.177 70.178C508.689 70.178 509.169 70.066 509.617 69.842C510.065 69.61 510.489 69.294 510.889 68.894V59.99H513.853ZM523.296 67.046C522.44 67.086 521.72 67.162 521.136 67.274C520.552 67.378 520.084 67.514 519.732 67.682C519.38 67.85 519.128 68.046 518.976 68.27C518.824 68.494 518.748 68.738 518.748 69.002C518.748 69.522 518.9 69.894 519.204 70.118C519.516 70.342 519.92 70.454 520.416 70.454C521.024 70.454 521.548 70.346 521.988 70.13C522.436 69.906 522.872 69.57 523.296 69.122V67.046ZM516.504 61.706C517.92 60.41 519.624 59.762 521.616 59.762C522.336 59.762 522.98 59.882 523.548 60.122C524.116 60.354 524.596 60.682 524.988 61.106C525.38 61.522 525.676 62.022 525.876 62.606C526.084 63.19 526.188 63.83 526.188 64.526V72.302H524.844C524.564 72.302 524.348 72.262 524.196 72.182C524.044 72.094 523.924 71.922 523.836 71.666L523.572 70.778C523.26 71.058 522.956 71.306 522.66 71.522C522.364 71.73 522.056 71.906 521.736 72.05C521.416 72.194 521.072 72.302 520.704 72.374C520.344 72.454 519.944 72.494 519.504 72.494C518.984 72.494 518.504 72.426 518.064 72.29C517.624 72.146 517.244 71.934 516.924 71.654C516.604 71.374 516.356 71.026 516.18 70.61C516.004 70.194 515.916 69.71 515.916 69.158C515.916 68.846 515.968 68.538 516.072 68.234C516.176 67.922 516.344 67.626 516.576 67.346C516.816 67.066 517.124 66.802 517.5 66.554C517.876 66.306 518.336 66.09 518.88 65.906C519.432 65.722 520.072 65.574 520.8 65.462C521.528 65.342 522.36 65.27 523.296 65.246V64.526C523.296 63.702 523.12 63.094 522.768 62.702C522.416 62.302 521.908 62.102 521.244 62.102C520.764 62.102 520.364 62.158 520.044 62.27C519.732 62.382 519.456 62.51 519.216 62.654C518.976 62.79 518.756 62.914 518.556 63.026C518.364 63.138 518.148 63.194 517.908 63.194C517.7 63.194 517.524 63.142 517.38 63.038C517.236 62.926 517.12 62.798 517.032 62.654L516.504 61.706ZM533.48 65.846C533.848 65.846 534.168 65.798 534.44 65.702C534.712 65.598 534.936 65.458 535.112 65.282C535.296 65.106 535.432 64.894 535.52 64.646C535.616 64.398 535.664 64.126 535.664 63.83C535.664 63.222 535.48 62.742 535.112 62.39C534.752 62.03 534.208 61.85 533.48 61.85C532.752 61.85 532.204 62.03 531.836 62.39C531.476 62.742 531.296 63.222 531.296 63.83C531.296 64.118 531.34 64.386 531.428 64.634C531.524 64.882 531.66 65.098 531.836 65.282C532.02 65.458 532.248 65.598 532.52 65.702C532.8 65.798 533.12 65.846 533.48 65.846ZM536.828 72.854C536.828 72.614 536.756 72.418 536.612 72.266C536.468 72.114 536.272 71.998 536.024 71.918C535.776 71.83 535.484 71.766 535.148 71.726C534.82 71.686 534.468 71.658 534.092 71.642C533.724 71.618 533.34 71.598 532.94 71.582C532.548 71.566 532.164 71.534 531.788 71.486C531.46 71.67 531.192 71.886 530.984 72.134C530.784 72.382 530.684 72.67 530.684 72.998C530.684 73.214 530.736 73.414 530.84 73.598C530.952 73.79 531.124 73.954 531.356 74.09C531.596 74.226 531.904 74.33 532.28 74.402C532.656 74.482 533.116 74.522 533.66 74.522C534.212 74.522 534.688 74.478 535.088 74.39C535.488 74.31 535.816 74.194 536.072 74.042C536.336 73.898 536.528 73.722 536.648 73.514C536.768 73.314 536.828 73.094 536.828 72.854ZM539.78 60.41V61.514C539.78 61.866 539.568 62.082 539.144 62.162L538.04 62.366C538.208 62.79 538.292 63.254 538.292 63.758C538.292 64.366 538.168 64.918 537.92 65.414C537.68 65.902 537.344 66.318 536.912 66.662C536.48 67.006 535.968 67.274 535.376 67.466C534.792 67.65 534.16 67.742 533.48 67.742C533.24 67.742 533.008 67.73 532.784 67.706C532.56 67.682 532.34 67.65 532.124 67.61C531.74 67.842 531.548 68.102 531.548 68.39C531.548 68.638 531.66 68.822 531.884 68.942C532.116 69.054 532.42 69.134 532.796 69.182C533.172 69.23 533.6 69.262 534.08 69.278C534.56 69.286 535.052 69.31 535.556 69.35C536.06 69.39 536.552 69.462 537.032 69.566C537.512 69.662 537.94 69.818 538.316 70.034C538.692 70.25 538.992 70.546 539.216 70.922C539.448 71.29 539.564 71.766 539.564 72.35C539.564 72.894 539.428 73.422 539.156 73.934C538.892 74.446 538.504 74.902 537.992 75.302C537.488 75.702 536.864 76.022 536.12 76.262C535.384 76.51 534.544 76.634 533.6 76.634C532.672 76.634 531.864 76.542 531.176 76.358C530.488 76.182 529.916 75.942 529.46 75.638C529.004 75.342 528.664 74.998 528.44 74.606C528.216 74.214 528.104 73.806 528.104 73.382C528.104 72.806 528.276 72.326 528.62 71.942C528.972 71.55 529.452 71.238 530.06 71.006C529.732 70.838 529.472 70.614 529.28 70.334C529.088 70.054 528.992 69.686 528.992 69.23C528.992 69.046 529.024 68.858 529.088 68.666C529.16 68.466 529.26 68.27 529.388 68.078C529.524 67.886 529.692 67.706 529.892 67.538C530.092 67.362 530.328 67.206 530.6 67.07C529.976 66.734 529.484 66.286 529.124 65.726C528.772 65.166 528.596 64.51 528.596 63.758C528.596 63.15 528.716 62.602 528.956 62.114C529.204 61.618 529.544 61.198 529.976 60.854C530.416 60.502 530.932 60.234 531.524 60.05C532.124 59.866 532.776 59.774 533.48 59.774C534.008 59.774 534.504 59.83 534.968 59.942C535.432 60.046 535.856 60.202 536.24 60.41H539.78ZM549.38 64.73C549.38 64.346 549.324 63.986 549.212 63.65C549.108 63.306 548.948 63.006 548.732 62.75C548.516 62.494 548.24 62.294 547.904 62.15C547.576 61.998 547.192 61.922 546.752 61.922C545.896 61.922 545.22 62.166 544.724 62.654C544.236 63.142 543.924 63.834 543.788 64.73H549.38ZM543.728 66.518C543.776 67.15 543.888 67.698 544.064 68.162C544.24 68.618 544.472 68.998 544.76 69.302C545.048 69.598 545.388 69.822 545.78 69.974C546.18 70.118 546.62 70.19 547.1 70.19C547.58 70.19 547.992 70.134 548.336 70.022C548.688 69.91 548.992 69.786 549.248 69.65C549.512 69.514 549.74 69.39 549.932 69.278C550.132 69.166 550.324 69.11 550.508 69.11C550.756 69.11 550.94 69.202 551.06 69.386L551.912 70.466C551.584 70.85 551.216 71.174 550.808 71.438C550.4 71.694 549.972 71.902 549.524 72.062C549.084 72.214 548.632 72.322 548.168 72.386C547.712 72.45 547.268 72.482 546.836 72.482C545.98 72.482 545.184 72.342 544.448 72.062C543.712 71.774 543.072 71.354 542.528 70.802C541.984 70.242 541.556 69.554 541.244 68.738C540.932 67.914 540.776 66.962 540.776 65.882C540.776 65.042 540.912 64.254 541.184 63.518C541.456 62.774 541.844 62.13 542.348 61.586C542.86 61.034 543.48 60.598 544.208 60.278C544.944 59.958 545.772 59.798 546.692 59.798C547.468 59.798 548.184 59.922 548.84 60.17C549.496 60.418 550.06 60.782 550.532 61.262C551.004 61.734 551.372 62.318 551.636 63.014C551.908 63.702 552.044 64.49 552.044 65.378C552.044 65.826 551.996 66.13 551.9 66.29C551.804 66.442 551.62 66.518 551.348 66.518H543.728ZM564.209 72.494C563.137 72.494 562.313 72.194 561.737 71.594C561.169 70.986 560.885 70.15 560.885 69.086V62.21H559.625C559.465 62.21 559.329 62.158 559.217 62.054C559.105 61.95 559.049 61.794 559.049 61.586V60.41L561.029 60.086L561.653 56.726C561.693 56.566 561.769 56.442 561.881 56.354C561.993 56.266 562.137 56.222 562.313 56.222H563.849V60.098H567.137V62.21H563.849V68.882C563.849 69.266 563.941 69.566 564.125 69.782C564.317 69.998 564.577 70.106 564.905 70.106C565.089 70.106 565.241 70.086 565.361 70.046C565.489 69.998 565.597 69.95 565.685 69.902C565.781 69.854 565.865 69.81 565.937 69.77C566.009 69.722 566.081 69.698 566.153 69.698C566.241 69.698 566.313 69.722 566.369 69.77C566.425 69.81 566.485 69.874 566.549 69.962L567.437 71.402C567.005 71.762 566.509 72.034 565.949 72.218C565.389 72.402 564.809 72.494 564.209 72.494ZM576.873 64.73C576.873 64.346 576.817 63.986 576.705 63.65C576.601 63.306 576.441 63.006 576.225 62.75C576.009 62.494 575.733 62.294 575.397 62.15C575.069 61.998 574.685 61.922 574.245 61.922C573.389 61.922 572.713 62.166 572.217 62.654C571.729 63.142 571.417 63.834 571.281 64.73H576.873ZM571.221 66.518C571.269 67.15 571.381 67.698 571.557 68.162C571.733 68.618 571.965 68.998 572.253 69.302C572.541 69.598 572.881 69.822 573.273 69.974C573.673 70.118 574.113 70.19 574.593 70.19C575.073 70.19 575.485 70.134 575.829 70.022C576.181 69.91 576.485 69.786 576.741 69.65C577.005 69.514 577.233 69.39 577.425 69.278C577.625 69.166 577.817 69.11 578.001 69.11C578.249 69.11 578.433 69.202 578.553 69.386L579.405 70.466C579.077 70.85 578.709 71.174 578.301 71.438C577.893 71.694 577.465 71.902 577.017 72.062C576.577 72.214 576.125 72.322 575.661 72.386C575.205 72.45 574.761 72.482 574.329 72.482C573.473 72.482 572.677 72.342 571.941 72.062C571.205 71.774 570.565 71.354 570.021 70.802C569.477 70.242 569.049 69.554 568.737 68.738C568.425 67.914 568.269 66.962 568.269 65.882C568.269 65.042 568.405 64.254 568.677 63.518C568.949 62.774 569.337 62.13 569.841 61.586C570.353 61.034 570.973 60.598 571.701 60.278C572.437 59.958 573.265 59.798 574.185 59.798C574.961 59.798 575.677 59.922 576.333 60.17C576.989 60.418 577.553 60.782 578.025 61.262C578.497 61.734 578.865 62.318 579.129 63.014C579.401 63.702 579.537 64.49 579.537 65.378C579.537 65.826 579.489 66.13 579.393 66.29C579.297 66.442 579.113 66.518 578.841 66.518H571.221ZM588.265 67.046C587.409 67.086 586.689 67.162 586.105 67.274C585.521 67.378 585.053 67.514 584.701 67.682C584.349 67.85 584.097 68.046 583.945 68.27C583.793 68.494 583.717 68.738 583.717 69.002C583.717 69.522 583.869 69.894 584.173 70.118C584.485 70.342 584.889 70.454 585.385 70.454C585.993 70.454 586.517 70.346 586.957 70.13C587.405 69.906 587.841 69.57 588.265 69.122V67.046ZM581.473 61.706C582.889 60.41 584.593 59.762 586.585 59.762C587.305 59.762 587.949 59.882 588.517 60.122C589.085 60.354 589.565 60.682 589.957 61.106C590.349 61.522 590.645 62.022 590.845 62.606C591.053 63.19 591.157 63.83 591.157 64.526V72.302H589.813C589.533 72.302 589.317 72.262 589.165 72.182C589.013 72.094 588.893 71.922 588.805 71.666L588.541 70.778C588.229 71.058 587.925 71.306 587.629 71.522C587.333 71.73 587.025 71.906 586.705 72.05C586.385 72.194 586.041 72.302 585.673 72.374C585.313 72.454 584.913 72.494 584.473 72.494C583.953 72.494 583.473 72.426 583.033 72.29C582.593 72.146 582.213 71.934 581.893 71.654C581.573 71.374 581.325 71.026 581.149 70.61C580.973 70.194 580.885 69.71 580.885 69.158C580.885 68.846 580.937 68.538 581.041 68.234C581.145 67.922 581.313 67.626 581.545 67.346C581.785 67.066 582.093 66.802 582.469 66.554C582.845 66.306 583.305 66.09 583.849 65.906C584.401 65.722 585.041 65.574 585.769 65.462C586.497 65.342 587.329 65.27 588.265 65.246V64.526C588.265 63.702 588.089 63.094 587.737 62.702C587.385 62.302 586.877 62.102 586.213 62.102C585.733 62.102 585.333 62.158 585.013 62.27C584.701 62.382 584.425 62.51 584.185 62.654C583.945 62.79 583.725 62.914 583.525 63.026C583.333 63.138 583.117 63.194 582.877 63.194C582.669 63.194 582.493 63.142 582.349 63.038C582.205 62.926 582.089 62.798 582.001 62.654L581.473 61.706ZM602.768 62.594C602.68 62.706 602.592 62.794 602.504 62.858C602.424 62.922 602.304 62.954 602.144 62.954C601.992 62.954 601.844 62.91 601.7 62.822C601.556 62.726 601.384 62.622 601.184 62.51C600.984 62.39 600.744 62.286 600.464 62.198C600.192 62.102 599.852 62.054 599.444 62.054C598.924 62.054 598.468 62.15 598.076 62.342C597.684 62.526 597.356 62.794 597.092 63.146C596.836 63.498 596.644 63.926 596.516 64.43C596.388 64.926 596.324 65.49 596.324 66.122C596.324 66.778 596.392 67.362 596.528 67.874C596.672 68.386 596.876 68.818 597.14 69.17C597.404 69.514 597.724 69.778 598.1 69.962C598.476 70.138 598.9 70.226 599.372 70.226C599.844 70.226 600.224 70.17 600.512 70.058C600.808 69.938 601.056 69.81 601.256 69.674C601.456 69.53 601.628 69.402 601.772 69.29C601.924 69.17 602.092 69.11 602.276 69.11C602.516 69.11 602.696 69.202 602.816 69.386L603.668 70.466C603.34 70.85 602.984 71.174 602.6 71.438C602.216 71.694 601.816 71.902 601.4 72.062C600.992 72.214 600.568 72.322 600.128 72.386C599.696 72.45 599.264 72.482 598.832 72.482C598.072 72.482 597.356 72.342 596.684 72.062C596.012 71.774 595.424 71.358 594.92 70.814C594.416 70.27 594.016 69.606 593.72 68.822C593.432 68.03 593.288 67.13 593.288 66.122C593.288 65.218 593.416 64.382 593.672 63.614C593.936 62.838 594.32 62.17 594.824 61.61C595.328 61.042 595.952 60.598 596.696 60.278C597.44 59.958 598.296 59.798 599.264 59.798C600.184 59.798 600.988 59.946 601.676 60.242C602.372 60.538 602.996 60.962 603.548 61.514L602.768 62.594ZM608.491 61.31C608.971 60.862 609.499 60.498 610.075 60.218C610.651 59.938 611.327 59.798 612.103 59.798C612.775 59.798 613.371 59.914 613.891 60.146C614.411 60.37 614.843 60.69 615.187 61.106C615.539 61.514 615.803 62.006 615.979 62.582C616.163 63.15 616.255 63.778 616.255 64.466V72.302H613.291V64.466C613.291 63.714 613.119 63.134 612.775 62.726C612.431 62.31 611.907 62.102 611.203 62.102C610.691 62.102 610.211 62.218 609.763 62.45C609.315 62.682 608.891 62.998 608.491 63.398V72.302H605.527V54.47H608.491V61.31ZM622.145 59.99V72.302H619.169V59.99H622.145ZM622.553 56.402C622.553 56.658 622.501 56.898 622.397 57.122C622.293 57.346 622.153 57.542 621.977 57.71C621.809 57.878 621.609 58.014 621.377 58.118C621.145 58.214 620.897 58.262 620.633 58.262C620.377 58.262 620.133 58.214 619.901 58.118C619.677 58.014 619.481 57.878 619.313 57.71C619.145 57.542 619.009 57.346 618.905 57.122C618.809 56.898 618.761 56.658 618.761 56.402C618.761 56.138 618.809 55.89 618.905 55.658C619.009 55.426 619.145 55.226 619.313 55.058C619.481 54.89 619.677 54.758 619.901 54.662C620.133 54.558 620.377 54.506 620.633 54.506C620.897 54.506 621.145 54.558 621.377 54.662C621.609 54.758 621.809 54.89 621.977 55.058C622.153 55.226 622.293 55.426 622.397 55.658C622.501 55.89 622.553 56.138 622.553 56.402ZM627.939 61.502C628.187 61.254 628.447 61.026 628.719 60.818C628.999 60.602 629.291 60.422 629.595 60.278C629.907 60.126 630.239 60.01 630.591 59.93C630.943 59.842 631.327 59.798 631.743 59.798C632.415 59.798 633.011 59.914 633.531 60.146C634.051 60.37 634.483 60.69 634.827 61.106C635.179 61.514 635.443 62.006 635.619 62.582C635.803 63.15 635.895 63.778 635.895 64.466V72.302H632.931V64.466C632.931 63.714 632.759 63.134 632.415 62.726C632.071 62.31 631.547 62.102 630.843 62.102C630.331 62.102 629.851 62.218 629.403 62.45C628.955 62.682 628.531 62.998 628.131 63.398V72.302H625.167V59.99H626.979C627.363 59.99 627.615 60.17 627.735 60.53L627.939 61.502ZM643.214 65.846C643.582 65.846 643.902 65.798 644.174 65.702C644.446 65.598 644.67 65.458 644.846 65.282C645.03 65.106 645.166 64.894 645.254 64.646C645.35 64.398 645.398 64.126 645.398 63.83C645.398 63.222 645.214 62.742 644.846 62.39C644.486 62.03 643.942 61.85 643.214 61.85C642.486 61.85 641.938 62.03 641.57 62.39C641.21 62.742 641.03 63.222 641.03 63.83C641.03 64.118 641.074 64.386 641.162 64.634C641.258 64.882 641.394 65.098 641.57 65.282C641.754 65.458 641.982 65.598 642.254 65.702C642.534 65.798 642.854 65.846 643.214 65.846ZM646.562 72.854C646.562 72.614 646.49 72.418 646.346 72.266C646.202 72.114 646.006 71.998 645.758 71.918C645.51 71.83 645.218 71.766 644.882 71.726C644.554 71.686 644.202 71.658 643.826 71.642C643.458 71.618 643.074 71.598 642.674 71.582C642.282 71.566 641.898 71.534 641.522 71.486C641.194 71.67 640.926 71.886 640.718 72.134C640.518 72.382 640.418 72.67 640.418 72.998C640.418 73.214 640.47 73.414 640.574 73.598C640.686 73.79 640.858 73.954 641.09 74.09C641.33 74.226 641.638 74.33 642.014 74.402C642.39 74.482 642.85 74.522 643.394 74.522C643.946 74.522 644.422 74.478 644.822 74.39C645.222 74.31 645.55 74.194 645.806 74.042C646.07 73.898 646.262 73.722 646.382 73.514C646.502 73.314 646.562 73.094 646.562 72.854ZM649.514 60.41V61.514C649.514 61.866 649.302 62.082 648.878 62.162L647.774 62.366C647.942 62.79 648.026 63.254 648.026 63.758C648.026 64.366 647.902 64.918 647.654 65.414C647.414 65.902 647.078 66.318 646.646 66.662C646.214 67.006 645.702 67.274 645.11 67.466C644.526 67.65 643.894 67.742 643.214 67.742C642.974 67.742 642.742 67.73 642.518 67.706C642.294 67.682 642.074 67.65 641.858 67.61C641.474 67.842 641.282 68.102 641.282 68.39C641.282 68.638 641.394 68.822 641.618 68.942C641.85 69.054 642.154 69.134 642.53 69.182C642.906 69.23 643.334 69.262 643.814 69.278C644.294 69.286 644.786 69.31 645.29 69.35C645.794 69.39 646.286 69.462 646.766 69.566C647.246 69.662 647.674 69.818 648.05 70.034C648.426 70.25 648.726 70.546 648.95 70.922C649.182 71.29 649.298 71.766 649.298 72.35C649.298 72.894 649.162 73.422 648.89 73.934C648.626 74.446 648.238 74.902 647.726 75.302C647.222 75.702 646.598 76.022 645.854 76.262C645.118 76.51 644.278 76.634 643.334 76.634C642.406 76.634 641.598 76.542 640.91 76.358C640.222 76.182 639.65 75.942 639.194 75.638C638.738 75.342 638.398 74.998 638.174 74.606C637.95 74.214 637.838 73.806 637.838 73.382C637.838 72.806 638.01 72.326 638.354 71.942C638.706 71.55 639.186 71.238 639.794 71.006C639.466 70.838 639.206 70.614 639.014 70.334C638.822 70.054 638.726 69.686 638.726 69.23C638.726 69.046 638.758 68.858 638.822 68.666C638.894 68.466 638.994 68.27 639.122 68.078C639.258 67.886 639.426 67.706 639.626 67.538C639.826 67.362 640.062 67.206 640.334 67.07C639.71 66.734 639.218 66.286 638.858 65.726C638.506 65.166 638.33 64.51 638.33 63.758C638.33 63.15 638.45 62.602 638.69 62.114C638.938 61.618 639.278 61.198 639.71 60.854C640.15 60.502 640.666 60.234 641.258 60.05C641.858 59.866 642.51 59.774 643.214 59.774C643.742 59.774 644.238 59.83 644.702 59.942C645.166 60.046 645.59 60.202 645.974 60.41H649.514Z" fill="#31479E"/>
</g>
<defs>
<filter id="filter0_d" x="0" y="0" width="715" height="183.366" filterUnits="userSpaceOnUse" color-interpolation-filters="sRGB">
<feFlood flood-opacity="0" result="BackgroundImageFix"/>
<feColorMatrix in="SourceAlpha" type="matrix" values="0 0 0 0 0 0 0 0 0 0 0 0 0 0 0 0 0 0 127 0"/>
<feOffset/>
<feGaussianBlur stdDeviation="10"/>
<feColorMatrix type="matrix" values="0 0 0 0 0 0 0 0 0 0 0 0 0 0 0 0 0 0 0.25 0"/>
<feBlend mode="normal" in2="BackgroundImageFix" result="effect1_dropShadow"/>
<feBlend mode="normal" in="SourceGraphic" in2="effect1_dropShadow" result="shape"/>
</filter>
</defs>
</svg>
